<svg width="335" height="497" viewBox="0 0 335 497" fill="none" xmlns="http://www.w3.org/2000/svg">
<mask id="path-1-outside-1_402_9863" maskUnits="userSpaceOnUse" x="34" y="0" width="263" height="14" fill="black">
<rect fill="white" x="34" width="263" height="14"/>
<path fill-rule="evenodd" clip-rule="evenodd" d="M46.917 8C46.441 10.8377 43.973 13 41 13C37.6863 13 35 10.3137 35 7C35 3.68629 37.6863 1 41 1C43.6124 1 45.8349 2.66962 46.6586 5H117.341C118.165 2.66962 120.388 1 123 1C125.612 1 127.835 2.66962 128.659 5H199.341C200.165 2.66962 202.388 1 205 1C207.612 1 209.835 2.66962 210.659 5H284.341C285.165 2.66962 287.388 1 290 1C293.314 1 296 3.68629 296 7C296 10.3137 293.314 13 290 13C287.027 13 284.559 10.8377 284.083 8H210.917C210.441 10.8377 207.973 13 205 13C202.027 13 199.559 10.8377 199.083 8H128.917C128.441 10.8377 125.973 13 123 13C120.027 13 117.559 10.8377 117.083 8H46.917Z"/>
</mask>
<path fill-rule="evenodd" clip-rule="evenodd" d="M46.917 8C46.441 10.8377 43.973 13 41 13C37.6863 13 35 10.3137 35 7C35 3.68629 37.6863 1 41 1C43.6124 1 45.8349 2.66962 46.6586 5H117.341C118.165 2.66962 120.388 1 123 1C125.612 1 127.835 2.66962 128.659 5H199.341C200.165 2.66962 202.388 1 205 1C207.612 1 209.835 2.66962 210.659 5H284.341C285.165 2.66962 287.388 1 290 1C293.314 1 296 3.68629 296 7C296 10.3137 293.314 13 290 13C287.027 13 284.559 10.8377 284.083 8H210.917C210.441 10.8377 207.973 13 205 13C202.027 13 199.559 10.8377 199.083 8H128.917C128.441 10.8377 125.973 13 123 13C120.027 13 117.559 10.8377 117.083 8H46.917Z" fill="url(#paint0_linear_402_9863)"/>
<path d="M46.917 8V7H46.0708L45.9308 7.83454L46.917 8ZM46.6586 5L45.7157 5.33325L45.9514 6H46.6586V5ZM117.341 5V6H118.049L118.284 5.33325L117.341 5ZM128.659 5L127.716 5.33325L127.951 6H128.659V5ZM199.341 5V6H200.049L200.284 5.33324L199.341 5ZM210.659 5L209.716 5.33324L209.951 6H210.659V5ZM284.341 5V6H285.049L285.284 5.33324L284.341 5ZM284.083 8L285.069 7.83455L284.929 7H284.083V8ZM210.917 8V7H210.071L209.931 7.83455L210.917 8ZM199.083 8L200.069 7.83455L199.929 7H199.083V8ZM128.917 8V7H128.071L127.931 7.83454L128.917 8ZM117.083 8L118.069 7.83454L117.929 7H117.083V8ZM41 14C44.4695 14 47.3477 11.4769 47.9033 8.16546L45.9308 7.83454C45.5342 10.1985 43.4765 12 41 12V14ZM34 7C34 10.866 37.134 14 41 14V12C38.2386 12 36 9.76142 36 7H34ZM41 0C37.134 0 34 3.13401 34 7H36C36 4.23858 38.2386 2 41 2V0ZM47.6014 4.66675C46.641 1.94932 44.0494 0 41 0V2C43.1755 2 45.0289 3.38991 45.7157 5.33325L47.6014 4.66675ZM46.6586 6H117.341V4H46.6586V6ZM123 0C119.951 0 117.359 1.94932 116.399 4.66675L118.284 5.33325C118.971 3.38991 120.825 2 123 2V0ZM129.601 4.66675C128.641 1.94932 126.049 0 123 0V2C125.175 2 127.029 3.38991 127.716 5.33325L129.601 4.66675ZM128.659 6H199.341V4H128.659V6ZM200.284 5.33324C200.971 3.38991 202.825 2 205 2V0C201.951 0 199.359 1.94932 198.399 4.66676L200.284 5.33324ZM205 2C207.175 2 209.029 3.38991 209.716 5.33324L211.601 4.66676C210.641 1.94932 208.049 0 205 0V2ZM210.659 6H284.341V4H210.659V6ZM290 0C286.951 0 284.359 1.94932 283.399 4.66676L285.284 5.33324C285.971 3.38991 287.825 2 290 2V0ZM297 7C297 3.13401 293.866 0 290 0V2C292.761 2 295 4.23857 295 7H297ZM290 14C293.866 14 297 10.866 297 7H295C295 9.76142 292.761 12 290 12V14ZM283.097 8.16545C283.652 11.4769 286.531 14 290 14V12C287.523 12 285.466 10.1985 285.069 7.83455L283.097 8.16545ZM284.083 7H210.917V9H284.083V7ZM209.931 7.83455C209.534 10.1985 207.477 12 205 12V14C208.469 14 211.348 11.4769 211.903 8.16545L209.931 7.83455ZM205 12C202.523 12 200.466 10.1985 200.069 7.83455L198.097 8.16545C198.652 11.4769 201.531 14 205 14V12ZM199.083 7H128.917V9H199.083V7ZM123 14C126.469 14 129.348 11.4769 129.903 8.16546L127.931 7.83454C127.534 10.1985 125.476 12 123 12V14ZM116.097 8.16546C116.652 11.4769 119.531 14 123 14V12C120.524 12 118.466 10.1985 118.069 7.83454L116.097 8.16546ZM117.083 7H46.917V9H117.083V7Z" fill="#DDDEDE" mask="url(#path-1-outside-1_402_9863)"/>
<rect x="41" y="5" width="243" height="3" fill="#3FBF5B"/>
<circle cx="41" cy="7" r="6" fill="#3FBF5B"/>
<circle cx="123" cy="7" r="6" fill="#3FBF5B"/>
<circle cx="205" cy="7" r="6" fill="#3FBF5B"/>
<circle cx="290" cy="7" r="4" fill="#3FBF5B"/>
<path d="M25.8465 40.168C24.2225 40.168 23.0325 39.552 22.2625 38.684L22.9485 37.802C23.5645 38.488 24.5725 39.132 25.8885 39.132C27.5545 39.132 28.0865 38.236 28.0865 37.522C28.0865 35.114 22.5565 36.444 22.5565 33.112C22.5565 31.572 23.9285 30.522 25.7625 30.522C27.1905 30.522 28.2965 30.998 29.0805 31.824L28.3805 32.678C27.6805 31.908 26.7005 31.558 25.6785 31.558C24.5585 31.558 23.7605 32.16 23.7605 33.042C23.7605 35.142 29.2905 33.938 29.2905 37.424C29.2905 38.782 28.3665 40.168 25.8465 40.168ZM34.0356 40.168C32.0336 40.168 30.5916 38.726 30.5916 36.612C30.5916 34.652 31.9916 33.07 33.9236 33.07C35.9676 33.07 37.1716 34.666 37.1716 36.696V36.962H31.6976C31.7816 38.236 32.6776 39.3 34.1336 39.3C34.9036 39.3 35.6876 38.992 36.2196 38.446L36.7236 39.132C36.0516 39.804 35.1416 40.168 34.0356 40.168ZM36.1356 36.192C36.1216 35.184 35.4496 33.938 33.9096 33.938C32.4676 33.938 31.7536 35.156 31.6976 36.192H36.1356ZM40.5803 40.168C39.5863 40.168 39.0823 39.594 39.0823 38.586V34.162H37.9623V33.238H39.0823V31.39H40.1323V33.238H41.5043V34.162H40.1323V38.362C40.1323 38.866 40.3563 39.23 40.8183 39.23C41.1123 39.23 41.3923 39.104 41.5323 38.95L41.8403 39.734C41.5743 39.986 41.1963 40.168 40.5803 40.168ZM52.2109 40H51.1609V39.048C50.6429 39.636 49.7609 40.168 48.7529 40.168C47.3389 40.168 46.5969 39.482 46.5969 38.012V33.238H47.6469V37.69C47.6469 38.88 48.2489 39.23 49.1589 39.23C49.9849 39.23 50.7689 38.754 51.1609 38.208V33.238H52.2109V40ZM57.6398 40.168C56.7158 40.168 55.9038 39.734 55.3578 38.978V42.576H54.3078V33.238H55.3578V34.246C55.8478 33.56 56.6878 33.07 57.6398 33.07C59.4178 33.07 60.6498 34.414 60.6498 36.612C60.6498 38.796 59.4178 40.168 57.6398 40.168ZM57.3738 39.23C58.7318 39.23 59.5438 38.11 59.5438 36.612C59.5438 35.114 58.7318 34.008 57.3738 34.008C56.5478 34.008 55.7218 34.498 55.3578 35.086V38.138C55.7218 38.726 56.5478 39.23 57.3738 39.23ZM23.4305 58H22.3805V57.23C21.8205 57.846 21.0505 58.168 20.1405 58.168C18.9925 58.168 17.7745 57.398 17.7745 55.928C17.7745 54.416 18.9925 53.702 20.1405 53.702C21.0645 53.702 21.8345 53.996 22.3805 54.626V53.408C22.3805 52.498 21.6525 51.98 20.6725 51.98C19.8605 51.98 19.2025 52.274 18.6005 52.918L18.1105 52.19C18.8385 51.434 19.7065 51.07 20.8125 51.07C22.2405 51.07 23.4305 51.714 23.4305 53.352V58ZM20.5185 57.412C21.2605 57.412 21.9745 57.132 22.3805 56.572V55.298C21.9745 54.738 21.2605 54.458 20.5185 54.458C19.5385 54.458 18.8525 55.074 18.8525 55.942C18.8525 56.796 19.5385 57.412 20.5185 57.412ZM28.5174 58.168C26.5014 58.168 25.1434 56.628 25.1434 54.612C25.1434 52.61 26.5014 51.07 28.5174 51.07C29.7494 51.07 30.4774 51.574 30.9954 52.246L30.2954 52.89C29.8474 52.274 29.2734 52.008 28.5734 52.008C27.1314 52.008 26.2354 53.114 26.2354 54.612C26.2354 56.11 27.1314 57.23 28.5734 57.23C29.2734 57.23 29.8474 56.95 30.2954 56.348L30.9954 56.992C30.4774 57.664 29.7494 58.168 28.5174 58.168ZM35.449 58.168C33.433 58.168 32.075 56.628 32.075 54.612C32.075 52.61 33.433 51.07 35.449 51.07C36.681 51.07 37.409 51.574 37.927 52.246L37.227 52.89C36.779 52.274 36.205 52.008 35.505 52.008C34.063 52.008 33.167 53.114 33.167 54.612C33.167 56.11 34.063 57.23 35.505 57.23C36.205 57.23 36.779 56.95 37.227 56.348L37.927 56.992C37.409 57.664 36.681 58.168 35.449 58.168ZM42.3526 58.168C40.2946 58.168 39.0066 56.572 39.0066 54.612C39.0066 52.652 40.2946 51.07 42.3526 51.07C44.4106 51.07 45.6986 52.652 45.6986 54.612C45.6986 56.572 44.4106 58.168 42.3526 58.168ZM42.3526 57.23C43.7946 57.23 44.5926 55.998 44.5926 54.612C44.5926 53.24 43.7946 52.008 42.3526 52.008C40.9106 52.008 40.0986 53.24 40.0986 54.612C40.0986 55.998 40.9106 57.23 42.3526 57.23ZM53.0244 58H51.9744V57.048C51.4564 57.636 50.5744 58.168 49.5664 58.168C48.1524 58.168 47.4104 57.482 47.4104 56.012V51.238H48.4604V55.69C48.4604 56.88 49.0624 57.23 49.9724 57.23C50.7984 57.23 51.5824 56.754 51.9744 56.208V51.238H53.0244V58ZM60.7353 58H59.6853V53.576C59.6853 52.386 59.0833 52.008 58.1733 52.008C57.3473 52.008 56.5633 52.512 56.1713 53.058V58H55.1213V51.238H56.1713V52.218C56.6473 51.658 57.5713 51.07 58.5793 51.07C59.9933 51.07 60.7353 51.784 60.7353 53.254V58ZM64.5402 58.168C63.5462 58.168 63.0422 57.594 63.0422 56.586V52.162H61.9222V51.238H63.0422V49.39H64.0922V51.238H65.4642V52.162H64.0922V56.362C64.0922 56.866 64.3162 57.23 64.7782 57.23C65.0722 57.23 65.3522 57.104 65.4922 56.95L65.8002 57.734C65.5342 57.986 65.1562 58.168 64.5402 58.168Z" fill="#CCCCCC"/>
<path d="M101.278 40.182C98.6177 40.182 96.4757 38.236 96.4757 35.338C96.4757 32.44 98.6177 30.508 101.278 30.508C102.93 30.508 104.078 31.236 104.904 32.258L103.98 32.832C103.392 32.076 102.398 31.544 101.278 31.544C99.2337 31.544 97.6797 33.112 97.6797 35.338C97.6797 37.55 99.2337 39.146 101.278 39.146C102.398 39.146 103.322 38.6 103.784 38.138V36.234H100.578V35.198H104.946V38.572C104.078 39.538 102.804 40.182 101.278 40.182ZM109.844 40.168C107.842 40.168 106.4 38.726 106.4 36.612C106.4 34.652 107.8 33.07 109.732 33.07C111.776 33.07 112.98 34.666 112.98 36.696V36.962H107.506C107.59 38.236 108.486 39.3 109.942 39.3C110.712 39.3 111.496 38.992 112.028 38.446L112.532 39.132C111.86 39.804 110.95 40.168 109.844 40.168ZM111.944 36.192C111.93 35.184 111.258 33.938 109.718 33.938C108.276 33.938 107.562 35.156 107.506 36.192H111.944ZM120.295 40H119.245V35.576C119.245 34.386 118.643 34.008 117.733 34.008C116.907 34.008 116.123 34.512 115.731 35.058V40H114.681V33.238H115.731V34.218C116.207 33.658 117.131 33.07 118.139 33.07C119.553 33.07 120.295 33.784 120.295 35.254V40ZM125.444 40.168C123.442 40.168 122 38.726 122 36.612C122 34.652 123.4 33.07 125.332 33.07C127.376 33.07 128.58 34.666 128.58 36.696V36.962H123.106C123.19 38.236 124.086 39.3 125.542 39.3C126.312 39.3 127.096 38.992 127.628 38.446L128.132 39.132C127.46 39.804 126.55 40.168 125.444 40.168ZM127.544 36.192C127.53 35.184 126.858 33.938 125.318 33.938C123.876 33.938 123.162 35.156 123.106 36.192H127.544ZM131.33 40H130.28V33.238H131.33V34.33C131.876 33.616 132.66 33.098 133.584 33.098V34.176C133.458 34.148 133.332 34.134 133.164 34.134C132.52 34.134 131.638 34.666 131.33 35.212V40ZM140.18 40H139.13V39.23C138.57 39.846 137.8 40.168 136.89 40.168C135.742 40.168 134.524 39.398 134.524 37.928C134.524 36.416 135.742 35.702 136.89 35.702C137.814 35.702 138.584 35.996 139.13 36.626V35.408C139.13 34.498 138.402 33.98 137.422 33.98C136.61 33.98 135.952 34.274 135.35 34.918L134.86 34.19C135.588 33.434 136.456 33.07 137.562 33.07C138.99 33.07 140.18 33.714 140.18 35.352V40ZM137.268 39.412C138.01 39.412 138.724 39.132 139.13 38.572V37.298C138.724 36.738 138.01 36.458 137.268 36.458C136.288 36.458 135.602 37.074 135.602 37.942C135.602 38.796 136.288 39.412 137.268 39.412ZM143.992 40.168C142.998 40.168 142.494 39.594 142.494 38.586V34.162H141.374V33.238H142.494V31.39H143.544V33.238H144.916V34.162H143.544V38.362C143.544 38.866 143.768 39.23 144.23 39.23C144.524 39.23 144.804 39.104 144.944 38.95L145.252 39.734C144.986 39.986 144.608 40.168 143.992 40.168ZM149.452 40.168C147.45 40.168 146.008 38.726 146.008 36.612C146.008 34.652 147.408 33.07 149.34 33.07C151.384 33.07 152.588 34.666 152.588 36.696V36.962H147.114C147.198 38.236 148.094 39.3 149.55 39.3C150.32 39.3 151.104 38.992 151.636 38.446L152.14 39.132C151.468 39.804 150.558 40.168 149.452 40.168ZM151.552 36.192C151.538 35.184 150.866 33.938 149.326 33.938C147.884 33.938 147.17 35.156 147.114 36.192H151.552ZM104.22 50.272C103.842 50.272 103.52 49.964 103.52 49.572C103.52 49.18 103.842 48.858 104.22 48.858C104.612 48.858 104.934 49.18 104.934 49.572C104.934 49.964 104.612 50.272 104.22 50.272ZM104.752 58H103.702V51.238H104.752V58ZM112.461 58H111.411V53.576C111.411 52.386 110.809 52.008 109.899 52.008C109.073 52.008 108.289 52.512 107.897 53.058V58H106.847V51.238H107.897V52.218C108.373 51.658 109.297 51.07 110.305 51.07C111.719 51.07 112.461 51.784 112.461 53.254V58ZM117.512 58H116.364L113.55 51.238H114.684L116.938 56.782L119.178 51.238H120.326L117.512 58ZM124.375 58.168C122.317 58.168 121.029 56.572 121.029 54.612C121.029 52.652 122.317 51.07 124.375 51.07C126.433 51.07 127.721 52.652 127.721 54.612C127.721 56.572 126.433 58.168 124.375 58.168ZM124.375 57.23C125.817 57.23 126.615 55.998 126.615 54.612C126.615 53.24 125.817 52.008 124.375 52.008C122.933 52.008 122.121 53.24 122.121 54.612C122.121 55.998 122.933 57.23 124.375 57.23ZM129.951 50.272C129.573 50.272 129.251 49.964 129.251 49.572C129.251 49.18 129.573 48.858 129.951 48.858C130.343 48.858 130.665 49.18 130.665 49.572C130.665 49.964 130.343 50.272 129.951 50.272ZM130.483 58H129.433V51.238H130.483V58ZM135.559 58.168C133.543 58.168 132.185 56.628 132.185 54.612C132.185 52.61 133.543 51.07 135.559 51.07C136.791 51.07 137.519 51.574 138.037 52.246L137.337 52.89C136.889 52.274 136.315 52.008 135.615 52.008C134.173 52.008 133.277 53.114 133.277 54.612C133.277 56.11 134.173 57.23 135.615 57.23C136.315 57.23 136.889 56.95 137.337 56.348L138.037 56.992C137.519 57.664 136.791 58.168 135.559 58.168ZM142.561 58.168C140.559 58.168 139.117 56.726 139.117 54.612C139.117 52.652 140.517 51.07 142.449 51.07C144.493 51.07 145.697 52.666 145.697 54.696V54.962H140.223C140.307 56.236 141.203 57.3 142.659 57.3C143.429 57.3 144.213 56.992 144.745 56.446L145.249 57.132C144.577 57.804 143.667 58.168 142.561 58.168ZM144.661 54.192C144.647 53.184 143.975 51.938 142.435 51.938C140.993 51.938 140.279 53.156 140.223 54.192H144.661Z" fill="#CCCCCC"/>
<path d="M194.258 40H192.928L192.102 37.928H187.454L186.628 40H185.298L189.05 30.662H190.492L194.258 40ZM191.752 36.892L189.778 31.866L187.79 36.892H191.752ZM201.387 40H200.337V38.992C199.833 39.678 199.007 40.168 198.055 40.168C196.291 40.168 195.045 38.824 195.045 36.626C195.045 34.47 196.277 33.07 198.055 33.07C198.965 33.07 199.791 33.518 200.337 34.26V30.662H201.387V40ZM198.307 39.23C199.147 39.23 199.959 38.754 200.337 38.166V35.1C199.959 34.512 199.147 34.008 198.307 34.008C196.949 34.008 196.137 35.128 196.137 36.626C196.137 38.124 196.949 39.23 198.307 39.23ZM212.701 40H211.651V35.408C211.651 34.554 211.273 34.008 210.405 34.008C209.705 34.008 208.963 34.512 208.613 35.044V40H207.563V35.408C207.563 34.554 207.199 34.008 206.317 34.008C205.631 34.008 204.903 34.512 204.539 35.058V40H203.489V33.238H204.539V34.218C204.819 33.784 205.729 33.07 206.723 33.07C207.759 33.07 208.347 33.63 208.543 34.33C208.921 33.714 209.831 33.07 210.811 33.07C212.043 33.07 212.701 33.756 212.701 35.114V40ZM215.314 32.272C214.936 32.272 214.614 31.964 214.614 31.572C214.614 31.18 214.936 30.858 215.314 30.858C215.706 30.858 216.028 31.18 216.028 31.572C216.028 31.964 215.706 32.272 215.314 32.272ZM215.846 40H214.796V33.238H215.846V40ZM223.555 40H222.505V35.576C222.505 34.386 221.903 34.008 220.993 34.008C220.167 34.008 219.383 34.512 218.991 35.058V40H217.941V33.238H218.991V34.218C219.467 33.658 220.391 33.07 221.399 33.07C222.813 33.07 223.555 33.784 223.555 35.254V40ZM226.212 40.14C225.792 40.14 225.442 39.79 225.442 39.37C225.442 38.95 225.792 38.6 226.212 38.6C226.632 38.6 226.982 38.95 226.982 39.37C226.982 39.79 226.632 40.14 226.212 40.14Z" fill="#CCCCCC"/>
<path d="M265.815 40H264.653V32.314L261.475 40H260.999L257.835 32.314V40H256.673V30.662H258.339L261.237 37.69L264.149 30.662H265.815V40ZM273.229 40H272.179V39.23C271.619 39.846 270.849 40.168 269.939 40.168C268.791 40.168 267.573 39.398 267.573 37.928C267.573 36.416 268.791 35.702 269.939 35.702C270.863 35.702 271.633 35.996 272.179 36.626V35.408C272.179 34.498 271.451 33.98 270.471 33.98C269.659 33.98 269.001 34.274 268.399 34.918L267.909 34.19C268.637 33.434 269.505 33.07 270.611 33.07C272.039 33.07 273.229 33.714 273.229 35.352V40ZM270.317 39.412C271.059 39.412 271.773 39.132 272.179 38.572V37.298C271.773 36.738 271.059 36.458 270.317 36.458C269.337 36.458 268.651 37.074 268.651 37.942C268.651 38.796 269.337 39.412 270.317 39.412ZM276.384 40H275.334V33.238H276.384V34.33C276.93 33.616 277.714 33.098 278.638 33.098V34.176C278.512 34.148 278.386 34.134 278.218 34.134C277.574 34.134 276.692 34.666 276.384 35.212V40ZM285.905 40H284.561L282.125 36.962L281.005 38.068V40H279.955V30.662H281.005V36.836L284.561 33.238H285.891L282.895 36.304L285.905 40ZM290.158 40.168C288.156 40.168 286.714 38.726 286.714 36.612C286.714 34.652 288.114 33.07 290.046 33.07C292.09 33.07 293.294 34.666 293.294 36.696V36.962H287.82C287.904 38.236 288.8 39.3 290.256 39.3C291.026 39.3 291.81 38.992 292.342 38.446L292.846 39.132C292.174 39.804 291.264 40.168 290.158 40.168ZM292.258 36.192C292.244 35.184 291.572 33.938 290.032 33.938C288.59 33.938 287.876 35.156 287.82 36.192H292.258ZM296.702 40.168C295.708 40.168 295.204 39.594 295.204 38.586V34.162H294.084V33.238H295.204V31.39H296.254V33.238H297.626V34.162H296.254V38.362C296.254 38.866 296.478 39.23 296.94 39.23C297.234 39.23 297.514 39.104 297.654 38.95L297.962 39.734C297.696 39.986 297.318 40.168 296.702 40.168ZM302.442 40.168C301.518 40.168 300.706 39.734 300.16 38.978V42.576H299.11V33.238H300.16V34.246C300.65 33.56 301.49 33.07 302.442 33.07C304.22 33.07 305.452 34.414 305.452 36.612C305.452 38.796 304.22 40.168 302.442 40.168ZM302.176 39.23C303.534 39.23 304.346 38.11 304.346 36.612C304.346 35.114 303.534 34.008 302.176 34.008C301.35 34.008 300.524 34.498 300.16 35.086V38.138C300.524 38.726 301.35 39.23 302.176 39.23ZM308.171 40H307.121V30.662H308.171V40ZM315.544 40H314.494V39.23C313.934 39.846 313.164 40.168 312.254 40.168C311.106 40.168 309.888 39.398 309.888 37.928C309.888 36.416 311.106 35.702 312.254 35.702C313.178 35.702 313.948 35.996 314.494 36.626V35.408C314.494 34.498 313.766 33.98 312.786 33.98C311.974 33.98 311.316 34.274 310.714 34.918L310.224 34.19C310.952 33.434 311.82 33.07 312.926 33.07C314.354 33.07 315.544 33.714 315.544 35.352V40ZM312.632 39.412C313.374 39.412 314.088 39.132 314.494 38.572V37.298C314.088 36.738 313.374 36.458 312.632 36.458C311.652 36.458 310.966 37.074 310.966 37.942C310.966 38.796 311.652 39.412 312.632 39.412ZM320.631 40.168C318.615 40.168 317.257 38.628 317.257 36.612C317.257 34.61 318.615 33.07 320.631 33.07C321.863 33.07 322.591 33.574 323.109 34.246L322.409 34.89C321.961 34.274 321.387 34.008 320.687 34.008C319.245 34.008 318.349 35.114 318.349 36.612C318.349 38.11 319.245 39.23 320.687 39.23C321.387 39.23 321.961 38.95 322.409 38.348L323.109 38.992C322.591 39.664 321.863 40.168 320.631 40.168ZM327.632 40.168C325.63 40.168 324.188 38.726 324.188 36.612C324.188 34.652 325.588 33.07 327.52 33.07C329.564 33.07 330.768 34.666 330.768 36.696V36.962H325.294C325.378 38.236 326.274 39.3 327.73 39.3C328.5 39.3 329.284 38.992 329.816 38.446L330.32 39.132C329.648 39.804 328.738 40.168 327.632 40.168ZM329.732 36.192C329.718 35.184 329.046 33.938 327.506 33.938C326.064 33.938 325.35 35.156 325.294 36.192H329.732Z" fill="#50667C"/>
<path fill-rule="evenodd" clip-rule="evenodd" d="M120.006 23.9999L123.5 20.0068L126.994 23.9999H120.006Z" fill="#3FBF5B"/>
<line x1="44.5" y1="70" x2="44.5" y2="169" stroke="#CCCCCC" stroke-dasharray="2 2"/>
<line x1="97" y1="123.5" x2="44" y2="123.5" stroke="#CCCCCC" stroke-dasharray="2 2"/>
<line x1="44" y1="69.5" x2="294" y2="69.5" stroke="#CCCCCC" stroke-dasharray="2 2"/>
<line x1="97" y1="149.5" x2="44" y2="149.5" stroke="#CCCCCC" stroke-dasharray="2 2"/>
<line x1="97" y1="174.5" x2="44" y2="174.5" stroke="#CCCCCC" stroke-dasharray="2 2"/>
<path d="M119.27 128H118.108V120.202L116.61 121.784L115.91 121.07L118.248 118.662H119.27V128ZM123.717 128.14C123.297 128.14 122.947 127.79 122.947 127.37C122.947 126.95 123.297 126.6 123.717 126.6C124.137 126.6 124.487 126.95 124.487 127.37C124.487 127.79 124.137 128.14 123.717 128.14ZM132.254 128H131.092V118.662H134.844C136.72 118.662 137.77 119.95 137.77 121.476C137.77 123.002 136.692 124.29 134.844 124.29H132.254V128ZM134.704 123.254C135.81 123.254 136.566 122.526 136.566 121.476C136.566 120.426 135.81 119.698 134.704 119.698H132.254V123.254H134.704ZM144.881 128H143.831V127.048C143.313 127.636 142.431 128.168 141.423 128.168C140.009 128.168 139.267 127.482 139.267 126.012V121.238H140.317V125.69C140.317 126.88 140.919 127.23 141.829 127.23C142.655 127.23 143.439 126.754 143.831 126.208V121.238H144.881V128ZM148.028 128H146.978V121.238H148.028V122.33C148.574 121.616 149.358 121.098 150.282 121.098V122.176C150.156 122.148 150.03 122.134 149.862 122.134C149.218 122.134 148.336 122.666 148.028 123.212V128ZM154.581 128.168C152.565 128.168 151.207 126.628 151.207 124.612C151.207 122.61 152.565 121.07 154.581 121.07C155.813 121.07 156.541 121.574 157.059 122.246L156.359 122.89C155.911 122.274 155.337 122.008 154.637 122.008C153.195 122.008 152.299 123.114 152.299 124.612C152.299 126.11 153.195 127.23 154.637 127.23C155.337 127.23 155.911 126.95 156.359 126.348L157.059 126.992C156.541 127.664 155.813 128.168 154.581 128.168ZM164.158 128H163.108V123.548C163.108 122.358 162.492 122.008 161.582 122.008C160.77 122.008 159.986 122.512 159.58 123.058V128H158.53V118.662H159.58V122.218C160.056 121.658 160.98 121.07 162.002 121.07C163.416 121.07 164.158 121.756 164.158 123.226V128ZM171.533 128H170.483V127.23C169.923 127.846 169.153 128.168 168.243 128.168C167.095 128.168 165.877 127.398 165.877 125.928C165.877 124.416 167.095 123.702 168.243 123.702C169.167 123.702 169.937 123.996 170.483 124.626V123.408C170.483 122.498 169.755 121.98 168.775 121.98C167.963 121.98 167.305 122.274 166.703 122.918L166.213 122.19C166.941 121.434 167.809 121.07 168.915 121.07C170.343 121.07 171.533 121.714 171.533 123.352V128ZM168.621 127.412C169.363 127.412 170.077 127.132 170.483 126.572V125.298C170.077 124.738 169.363 124.458 168.621 124.458C167.641 124.458 166.955 125.074 166.955 125.942C166.955 126.796 167.641 127.412 168.621 127.412ZM175.78 128.168C174.674 128.168 173.736 127.832 173.05 127.104L173.596 126.348C174.044 126.866 174.898 127.314 175.822 127.314C176.858 127.314 177.418 126.824 177.418 126.152C177.418 124.514 173.232 125.522 173.232 123.016C173.232 121.966 174.142 121.07 175.752 121.07C176.9 121.07 177.712 121.504 178.258 122.05L177.768 122.778C177.362 122.288 176.62 121.924 175.752 121.924C174.828 121.924 174.254 122.386 174.254 122.988C174.254 124.472 178.44 123.492 178.44 126.124C178.44 127.258 177.53 128.168 175.78 128.168ZM183.198 128.168C181.196 128.168 179.754 126.726 179.754 124.612C179.754 122.652 181.154 121.07 183.086 121.07C185.13 121.07 186.334 122.666 186.334 124.696V124.962H180.86C180.944 126.236 181.84 127.3 183.296 127.3C184.066 127.3 184.85 126.992 185.382 126.446L185.886 127.132C185.214 127.804 184.304 128.168 183.198 128.168ZM185.298 124.192C185.284 123.184 184.612 121.938 183.072 121.938C181.63 121.938 180.916 123.156 180.86 124.192H185.298ZM192.162 120.272C191.784 120.272 191.462 119.964 191.462 119.572C191.462 119.18 191.784 118.858 192.162 118.858C192.554 118.858 192.876 119.18 192.876 119.572C192.876 119.964 192.554 120.272 192.162 120.272ZM192.694 128H191.644V121.238H192.694V128ZM200.402 128H199.352V123.576C199.352 122.386 198.75 122.008 197.84 122.008C197.014 122.008 196.23 122.512 195.838 123.058V128H194.788V121.238H195.838V122.218C196.314 121.658 197.238 121.07 198.246 121.07C199.66 121.07 200.402 121.784 200.402 123.254V128ZM205.453 128H204.305L201.491 121.238H202.625L204.879 126.782L207.119 121.238H208.267L205.453 128ZM212.317 128.168C210.259 128.168 208.971 126.572 208.971 124.612C208.971 122.652 210.259 121.07 212.317 121.07C214.375 121.07 215.663 122.652 215.663 124.612C215.663 126.572 214.375 128.168 212.317 128.168ZM212.317 127.23C213.759 127.23 214.557 125.998 214.557 124.612C214.557 123.24 213.759 122.008 212.317 122.008C210.875 122.008 210.062 123.24 210.062 124.612C210.062 125.998 210.875 127.23 212.317 127.23ZM217.892 120.272C217.514 120.272 217.192 119.964 217.192 119.572C217.192 119.18 217.514 118.858 217.892 118.858C218.284 118.858 218.606 119.18 218.606 119.572C218.606 119.964 218.284 120.272 217.892 120.272ZM218.424 128H217.374V121.238H218.424V128ZM223.501 128.168C221.485 128.168 220.127 126.628 220.127 124.612C220.127 122.61 221.485 121.07 223.501 121.07C224.733 121.07 225.461 121.574 225.979 122.246L225.279 122.89C224.831 122.274 224.257 122.008 223.557 122.008C222.115 122.008 221.219 123.114 221.219 124.612C221.219 126.11 222.115 127.23 223.557 127.23C224.257 127.23 224.831 126.95 225.279 126.348L225.979 126.992C225.461 127.664 224.733 128.168 223.501 128.168ZM230.502 128.168C228.5 128.168 227.058 126.726 227.058 124.612C227.058 122.652 228.458 121.07 230.39 121.07C232.434 121.07 233.638 122.666 233.638 124.696V124.962H228.164C228.248 126.236 229.144 127.3 230.6 127.3C231.37 127.3 232.154 126.992 232.686 126.446L233.19 127.132C232.518 127.804 231.608 128.168 230.502 128.168ZM232.602 124.192C232.588 123.184 231.916 121.938 230.376 121.938C228.934 121.938 228.22 123.156 228.164 124.192H232.602ZM240.656 128.168C239.662 128.168 239.158 127.594 239.158 126.586V122.162H238.038V121.238H239.158V119.39H240.208V121.238H241.58V122.162H240.208V126.362C240.208 126.866 240.432 127.23 240.894 127.23C241.188 127.23 241.468 127.104 241.608 126.95L241.916 127.734C241.65 127.986 241.272 128.168 240.656 128.168ZM243.582 120.272C243.204 120.272 242.882 119.964 242.882 119.572C242.882 119.18 243.204 118.858 243.582 118.858C243.974 118.858 244.296 119.18 244.296 119.572C244.296 119.964 243.974 120.272 243.582 120.272ZM244.114 128H243.064V121.238H244.114V128ZM249.19 128.168C247.174 128.168 245.816 126.628 245.816 124.612C245.816 122.61 247.174 121.07 249.19 121.07C250.422 121.07 251.15 121.574 251.668 122.246L250.968 122.89C250.52 122.274 249.946 122.008 249.246 122.008C247.804 122.008 246.908 123.114 246.908 124.612C246.908 126.11 247.804 127.23 249.246 127.23C249.946 127.23 250.52 126.95 250.968 126.348L251.668 126.992C251.15 127.664 250.422 128.168 249.19 128.168ZM259.09 128H257.746L255.31 124.962L254.19 126.068V128H253.14V118.662H254.19V124.836L257.746 121.238H259.076L256.08 124.304L259.09 128ZM263.342 128.168C261.34 128.168 259.898 126.726 259.898 124.612C259.898 122.652 261.298 121.07 263.23 121.07C265.274 121.07 266.478 122.666 266.478 124.696V124.962H261.004C261.088 126.236 261.984 127.3 263.44 127.3C264.21 127.3 264.994 126.992 265.526 126.446L266.03 127.132C265.358 127.804 264.448 128.168 263.342 128.168ZM265.442 124.192C265.428 123.184 264.756 121.938 263.216 121.938C261.774 121.938 261.06 123.156 261.004 124.192H265.442ZM269.887 128.168C268.893 128.168 268.389 127.594 268.389 126.586V122.162H267.269V121.238H268.389V119.39H269.439V121.238H270.811V122.162H269.439V126.362C269.439 126.866 269.663 127.23 270.125 127.23C270.419 127.23 270.699 127.104 270.839 126.95L271.147 127.734C270.881 127.986 270.503 128.168 269.887 128.168ZM274.436 128.168C273.33 128.168 272.392 127.832 271.706 127.104L272.252 126.348C272.7 126.866 273.554 127.314 274.478 127.314C275.514 127.314 276.074 126.824 276.074 126.152C276.074 124.514 271.888 125.522 271.888 123.016C271.888 121.966 272.798 121.07 274.408 121.07C275.556 121.07 276.368 121.504 276.914 122.05L276.424 122.778C276.018 122.288 275.276 121.924 274.408 121.924C273.484 121.924 272.91 122.386 272.91 122.988C272.91 124.472 277.096 123.492 277.096 126.124C277.096 127.258 276.186 128.168 274.436 128.168Z" fill="#50667C"/>
<path d="M117.912 178.168C116.33 178.168 115.168 177.468 114.594 176.628L115.28 175.9C115.826 176.628 116.778 177.132 117.884 177.132C119.242 177.132 120.068 176.46 120.068 175.382C120.068 174.22 119.116 173.73 117.744 173.73C117.352 173.73 116.918 173.73 116.778 173.744V172.68C116.932 172.694 117.366 172.694 117.744 172.694C118.92 172.694 119.914 172.232 119.914 171.154C119.914 170.118 118.962 169.558 117.828 169.558C116.806 169.558 116.05 169.95 115.364 170.692L114.72 169.964C115.392 169.152 116.47 168.522 117.912 168.522C119.704 168.522 121.076 169.432 121.076 171.014C121.076 172.358 119.942 173.03 119.06 173.184C119.914 173.254 121.216 173.982 121.216 175.48C121.216 177.034 119.97 178.168 117.912 178.168ZM123.717 178.14C123.297 178.14 122.947 177.79 122.947 177.37C122.947 176.95 123.297 176.6 123.717 176.6C124.137 176.6 124.487 176.95 124.487 177.37C124.487 177.79 124.137 178.14 123.717 178.14ZM132.254 178H131.092V168.662H134.844C136.72 168.662 137.77 169.95 137.77 171.476C137.77 173.002 136.692 174.29 134.844 174.29H132.254V178ZM134.704 173.254C135.81 173.254 136.566 172.526 136.566 171.476C136.566 170.426 135.81 169.698 134.704 169.698H132.254V173.254H134.704ZM144.881 178H143.831V177.048C143.313 177.636 142.431 178.168 141.423 178.168C140.009 178.168 139.267 177.482 139.267 176.012V171.238H140.317V175.69C140.317 176.88 140.919 177.23 141.829 177.23C142.655 177.23 143.439 176.754 143.831 176.208V171.238H144.881V178ZM148.028 178H146.978V171.238H148.028V172.33C148.574 171.616 149.358 171.098 150.282 171.098V172.176C150.156 172.148 150.03 172.134 149.862 172.134C149.218 172.134 148.336 172.666 148.028 173.212V178ZM154.581 178.168C152.565 178.168 151.207 176.628 151.207 174.612C151.207 172.61 152.565 171.07 154.581 171.07C155.813 171.07 156.541 171.574 157.059 172.246L156.359 172.89C155.911 172.274 155.337 172.008 154.637 172.008C153.195 172.008 152.299 173.114 152.299 174.612C152.299 176.11 153.195 177.23 154.637 177.23C155.337 177.23 155.911 176.95 156.359 176.348L157.059 176.992C156.541 177.664 155.813 178.168 154.581 178.168ZM164.158 178H163.108V173.548C163.108 172.358 162.492 172.008 161.582 172.008C160.77 172.008 159.986 172.512 159.58 173.058V178H158.53V168.662H159.58V172.218C160.056 171.658 160.98 171.07 162.002 171.07C163.416 171.07 164.158 171.756 164.158 173.226V178ZM171.533 178H170.483V177.23C169.923 177.846 169.153 178.168 168.243 178.168C167.095 178.168 165.877 177.398 165.877 175.928C165.877 174.416 167.095 173.702 168.243 173.702C169.167 173.702 169.937 173.996 170.483 174.626V173.408C170.483 172.498 169.755 171.98 168.775 171.98C167.963 171.98 167.305 172.274 166.703 172.918L166.213 172.19C166.941 171.434 167.809 171.07 168.915 171.07C170.343 171.07 171.533 171.714 171.533 173.352V178ZM168.621 177.412C169.363 177.412 170.077 177.132 170.483 176.572V175.298C170.077 174.738 169.363 174.458 168.621 174.458C167.641 174.458 166.955 175.074 166.955 175.942C166.955 176.796 167.641 177.412 168.621 177.412ZM175.78 178.168C174.674 178.168 173.736 177.832 173.05 177.104L173.596 176.348C174.044 176.866 174.898 177.314 175.822 177.314C176.858 177.314 177.418 176.824 177.418 176.152C177.418 174.514 173.232 175.522 173.232 173.016C173.232 171.966 174.142 171.07 175.752 171.07C176.9 171.07 177.712 171.504 178.258 172.05L177.768 172.778C177.362 172.288 176.62 171.924 175.752 171.924C174.828 171.924 174.254 172.386 174.254 172.988C174.254 174.472 178.44 173.492 178.44 176.124C178.44 177.258 177.53 178.168 175.78 178.168ZM183.198 178.168C181.196 178.168 179.754 176.726 179.754 174.612C179.754 172.652 181.154 171.07 183.086 171.07C185.13 171.07 186.334 172.666 186.334 174.696V174.962H180.86C180.944 176.236 181.84 177.3 183.296 177.3C184.066 177.3 184.85 176.992 185.382 176.446L185.886 177.132C185.214 177.804 184.304 178.168 183.198 178.168ZM185.298 174.192C185.284 173.184 184.612 171.938 183.072 171.938C181.63 171.938 180.916 173.156 180.86 174.192H185.298ZM194.598 178.168C192.54 178.168 191.252 176.572 191.252 174.612C191.252 172.652 192.54 171.07 194.598 171.07C196.656 171.07 197.944 172.652 197.944 174.612C197.944 176.572 196.656 178.168 194.598 178.168ZM194.598 177.23C196.04 177.23 196.838 175.998 196.838 174.612C196.838 173.24 196.04 172.008 194.598 172.008C193.156 172.008 192.344 173.24 192.344 174.612C192.344 175.998 193.156 177.23 194.598 177.23ZM201.363 178.168C200.369 178.168 199.865 177.594 199.865 176.586V172.162H198.745V171.238H199.865V169.39H200.915V171.238H202.287V172.162H200.915V176.362C200.915 176.866 201.139 177.23 201.601 177.23C201.895 177.23 202.175 177.104 202.315 176.95L202.623 177.734C202.357 177.986 201.979 178.168 201.363 178.168ZM209.399 178H208.349V173.548C208.349 172.358 207.733 172.008 206.823 172.008C206.011 172.008 205.227 172.512 204.821 173.058V178H203.771V168.662H204.821V172.218C205.297 171.658 206.221 171.07 207.243 171.07C208.657 171.07 209.399 171.756 209.399 173.226V178ZM214.547 178.168C212.545 178.168 211.103 176.726 211.103 174.612C211.103 172.652 212.503 171.07 214.435 171.07C216.479 171.07 217.683 172.666 217.683 174.696V174.962H212.209C212.293 176.236 213.189 177.3 214.645 177.3C215.415 177.3 216.199 176.992 216.731 176.446L217.235 177.132C216.563 177.804 215.653 178.168 214.547 178.168ZM216.647 174.192C216.633 173.184 215.961 171.938 214.421 171.938C212.979 171.938 212.265 173.156 212.209 174.192H216.647ZM220.434 178H219.384V171.238H220.434V172.33C220.98 171.616 221.764 171.098 222.688 171.098V172.176C222.562 172.148 222.436 172.134 222.268 172.134C221.624 172.134 220.742 172.666 220.434 173.212V178ZM229.322 178.168C228.328 178.168 227.824 177.594 227.824 176.586V172.162H226.704V171.238H227.824V169.39H228.874V171.238H230.246V172.162H228.874V176.362C228.874 176.866 229.098 177.23 229.56 177.23C229.854 177.23 230.134 177.104 230.274 176.95L230.582 177.734C230.316 177.986 229.938 178.168 229.322 178.168ZM232.248 170.272C231.87 170.272 231.548 169.964 231.548 169.572C231.548 169.18 231.87 168.858 232.248 168.858C232.64 168.858 232.962 169.18 232.962 169.572C232.962 169.964 232.64 170.272 232.248 170.272ZM232.78 178H231.73V171.238H232.78V178ZM237.856 178.168C235.84 178.168 234.482 176.628 234.482 174.612C234.482 172.61 235.84 171.07 237.856 171.07C239.088 171.07 239.816 171.574 240.334 172.246L239.634 172.89C239.186 172.274 238.612 172.008 237.912 172.008C236.47 172.008 235.574 173.114 235.574 174.612C235.574 176.11 236.47 177.23 237.912 177.23C238.612 177.23 239.186 176.95 239.634 176.348L240.334 176.992C239.816 177.664 239.088 178.168 237.856 178.168ZM247.756 178H246.412L243.976 174.962L242.856 176.068V178H241.806V168.662H242.856V174.836L246.412 171.238H247.742L244.746 174.304L247.756 178ZM252.008 178.168C250.006 178.168 248.564 176.726 248.564 174.612C248.564 172.652 249.964 171.07 251.896 171.07C253.94 171.07 255.144 172.666 255.144 174.696V174.962H249.67C249.754 176.236 250.65 177.3 252.106 177.3C252.876 177.3 253.66 176.992 254.192 176.446L254.696 177.132C254.024 177.804 253.114 178.168 252.008 178.168ZM254.108 174.192C254.094 173.184 253.422 171.938 251.882 171.938C250.44 171.938 249.726 173.156 249.67 174.192H254.108ZM258.553 178.168C257.559 178.168 257.055 177.594 257.055 176.586V172.162H255.935V171.238H257.055V169.39H258.105V171.238H259.477V172.162H258.105V176.362C258.105 176.866 258.329 177.23 258.791 177.23C259.085 177.23 259.365 177.104 259.505 176.95L259.813 177.734C259.547 177.986 259.169 178.168 258.553 178.168ZM263.102 178.168C261.996 178.168 261.058 177.832 260.372 177.104L260.918 176.348C261.366 176.866 262.22 177.314 263.144 177.314C264.18 177.314 264.74 176.824 264.74 176.152C264.74 174.514 260.554 175.522 260.554 173.016C260.554 171.966 261.464 171.07 263.074 171.07C264.222 171.07 265.034 171.504 265.58 172.05L265.09 172.778C264.684 172.288 263.942 171.924 263.074 171.924C262.15 171.924 261.576 172.386 261.576 172.988C261.576 174.472 265.762 173.492 265.762 176.124C265.762 177.258 264.852 178.168 263.102 178.168Z" fill="#50667C"/>
<path d="M121.118 153H114.706V152.076C118.066 149.43 119.886 147.876 119.886 146.266C119.886 145.076 118.906 144.558 117.94 144.558C116.82 144.558 115.952 145.034 115.406 145.734L114.692 144.992C115.406 144.054 116.624 143.522 117.94 143.522C119.494 143.522 121.076 144.404 121.076 146.266C121.076 148.17 119.144 149.906 116.54 151.964H121.118V153ZM123.717 153.14C123.297 153.14 122.947 152.79 122.947 152.37C122.947 151.95 123.297 151.6 123.717 151.6C124.137 151.6 124.487 151.95 124.487 152.37C124.487 152.79 124.137 153.14 123.717 153.14ZM135.516 153.182C132.856 153.182 130.714 151.236 130.714 148.338C130.714 145.44 132.856 143.508 135.516 143.508C137.168 143.508 138.316 144.236 139.142 145.258L138.218 145.832C137.63 145.076 136.636 144.544 135.516 144.544C133.472 144.544 131.918 146.112 131.918 148.338C131.918 150.55 133.472 152.146 135.516 152.146C136.636 152.146 137.56 151.6 138.022 151.138V149.234H134.816V148.198H139.184V151.572C138.316 152.538 137.042 153.182 135.516 153.182ZM144.082 153.168C142.08 153.168 140.638 151.726 140.638 149.612C140.638 147.652 142.038 146.07 143.97 146.07C146.014 146.07 147.218 147.666 147.218 149.696V149.962H141.744C141.828 151.236 142.724 152.3 144.18 152.3C144.95 152.3 145.734 151.992 146.266 151.446L146.77 152.132C146.098 152.804 145.188 153.168 144.082 153.168ZM146.182 149.192C146.168 148.184 145.496 146.938 143.956 146.938C142.514 146.938 141.8 148.156 141.744 149.192H146.182ZM150.627 153.168C149.633 153.168 149.129 152.594 149.129 151.586V147.162H148.009V146.238H149.129V144.39H150.179V146.238H151.551V147.162H150.179V151.362C150.179 151.866 150.403 152.23 150.865 152.23C151.159 152.23 151.439 152.104 151.579 151.95L151.887 152.734C151.621 152.986 151.243 153.168 150.627 153.168ZM165.856 153H164.806V148.408C164.806 147.554 164.428 147.008 163.56 147.008C162.86 147.008 162.118 147.512 161.768 148.044V153H160.718V148.408C160.718 147.554 160.354 147.008 159.472 147.008C158.786 147.008 158.058 147.512 157.694 148.058V153H156.644V146.238H157.694V147.218C157.974 146.784 158.884 146.07 159.878 146.07C160.914 146.07 161.502 146.63 161.698 147.33C162.076 146.714 162.986 146.07 163.966 146.07C165.198 146.07 165.856 146.756 165.856 148.114V153ZM170.904 153.168C168.846 153.168 167.558 151.572 167.558 149.612C167.558 147.652 168.846 146.07 170.904 146.07C172.962 146.07 174.25 147.652 174.25 149.612C174.25 151.572 172.962 153.168 170.904 153.168ZM170.904 152.23C172.346 152.23 173.144 150.998 173.144 149.612C173.144 148.24 172.346 147.008 170.904 147.008C169.462 147.008 168.65 148.24 168.65 149.612C168.65 150.998 169.462 152.23 170.904 152.23ZM177.012 153H175.962V146.238H177.012V147.33C177.558 146.616 178.342 146.098 179.266 146.098V147.176C179.14 147.148 179.014 147.134 178.846 147.134C178.202 147.134 177.32 147.666 177.012 148.212V153ZM183.635 153.168C181.633 153.168 180.191 151.726 180.191 149.612C180.191 147.652 181.591 146.07 183.523 146.07C185.567 146.07 186.771 147.666 186.771 149.696V149.962H181.297C181.381 151.236 182.277 152.3 183.733 152.3C184.503 152.3 185.287 151.992 185.819 151.446L186.323 152.132C185.651 152.804 184.741 153.168 183.635 153.168ZM185.735 149.192C185.721 148.184 185.049 146.938 183.509 146.938C182.067 146.938 181.353 148.156 181.297 149.192H185.735ZM197.359 153H196.309V152.23C195.749 152.846 194.979 153.168 194.069 153.168C192.921 153.168 191.703 152.398 191.703 150.928C191.703 149.416 192.921 148.702 194.069 148.702C194.993 148.702 195.763 148.996 196.309 149.626V148.408C196.309 147.498 195.581 146.98 194.601 146.98C193.789 146.98 193.131 147.274 192.529 147.918L192.039 147.19C192.767 146.434 193.635 146.07 194.741 146.07C196.169 146.07 197.359 146.714 197.359 148.352V153ZM194.447 152.412C195.189 152.412 195.903 152.132 196.309 151.572V150.298C195.903 149.738 195.189 149.458 194.447 149.458C193.467 149.458 192.781 150.074 192.781 150.942C192.781 151.796 193.467 152.412 194.447 152.412ZM202.796 153.168C201.872 153.168 201.06 152.734 200.514 151.978V155.576H199.464V146.238H200.514V147.246C201.004 146.56 201.844 146.07 202.796 146.07C204.574 146.07 205.806 147.414 205.806 149.612C205.806 151.796 204.574 153.168 202.796 153.168ZM202.53 152.23C203.888 152.23 204.7 151.11 204.7 149.612C204.7 148.114 203.888 147.008 202.53 147.008C201.704 147.008 200.878 147.498 200.514 148.086V151.138C200.878 151.726 201.704 152.23 202.53 152.23ZM210.808 153.168C209.884 153.168 209.072 152.734 208.526 151.978V155.576H207.476V146.238H208.526V147.246C209.016 146.56 209.856 146.07 210.808 146.07C212.586 146.07 213.818 147.414 213.818 149.612C213.818 151.796 212.586 153.168 210.808 153.168ZM210.542 152.23C211.9 152.23 212.712 151.11 212.712 149.612C212.712 148.114 211.9 147.008 210.542 147.008C209.716 147.008 208.89 147.498 208.526 148.086V151.138C208.89 151.726 209.716 152.23 210.542 152.23ZM217.63 153.168C216.524 153.168 215.586 152.832 214.899 152.104L215.446 151.348C215.894 151.866 216.748 152.314 217.672 152.314C218.708 152.314 219.268 151.824 219.268 151.152C219.268 149.514 215.082 150.522 215.082 148.016C215.082 146.966 215.992 146.07 217.602 146.07C218.75 146.07 219.562 146.504 220.108 147.05L219.618 147.778C219.212 147.288 218.47 146.924 217.602 146.924C216.678 146.924 216.104 147.386 216.104 147.988C216.104 149.472 220.29 148.492 220.29 151.124C220.29 152.258 219.38 153.168 217.63 153.168Z" fill="#50667C"/>
<g filter="url(#filter0_i_402_9863)">
<path fill-rule="evenodd" clip-rule="evenodd" d="M9.00002 208H234V433H9.00002V208Z" fill="#EDEFF0"/>
</g>
<path d="M9.50002 208.5H233.5V432.5H9.50002V208.5Z" stroke="#CAD4DA"/>
<g filter="url(#filter1_d_402_9863)">
<path fill-rule="evenodd" clip-rule="evenodd" d="M145 304.996C145 292.293 134.703 281.996 122 281.996C109.297 281.996 99 292.293 99 304.996C99 317.699 109.297 327.996 122 327.996C134.703 327.996 145 317.699 145 304.996ZM142.996 304.996C142.996 293.4 133.595 284 122 284C110.405 284 101.004 293.4 101.004 304.996C101.004 316.593 110.405 325.991 122 325.991C133.595 325.991 142.996 316.593 142.996 304.996ZM122 293.999C122.552 293.999 123 294.446 123 294.998V303.999H132C132.553 303.999 133 304.446 133 304.999C133 305.551 132.553 305.998 132 305.998H123V314.999C123 315.551 122.552 315.999 122 315.999C121.448 315.999 121 315.551 121 314.999V305.998H112C111.448 305.998 111 305.551 111 304.999C111 304.446 111.448 303.999 112 303.999H121V294.998C121 294.446 121.448 293.999 122 293.999Z" fill="#B5C2CA"/>
</g>
<path d="M55.0587 393H53.7287L52.9027 390.928H48.2547L47.4287 393H46.0987L49.8507 383.662H51.2927L55.0587 393ZM52.5527 389.892L50.5787 384.866L48.5907 389.892H52.5527ZM62.1875 393H61.1375V391.992C60.6335 392.678 59.8075 393.168 58.8555 393.168C57.0915 393.168 55.8455 391.824 55.8455 389.626C55.8455 387.47 57.0775 386.07 58.8555 386.07C59.7655 386.07 60.5915 386.518 61.1375 387.26V383.662H62.1875V393ZM59.1075 392.23C59.9475 392.23 60.7595 391.754 61.1375 391.166V388.1C60.7595 387.512 59.9475 387.008 59.1075 387.008C57.7495 387.008 56.9375 388.128 56.9375 389.626C56.9375 391.124 57.7495 392.23 59.1075 392.23ZM70.2402 393H69.1902V391.992C68.6862 392.678 67.8602 393.168 66.9082 393.168C65.1442 393.168 63.8982 391.824 63.8982 389.626C63.8982 387.47 65.1302 386.07 66.9082 386.07C67.8182 386.07 68.6442 386.518 69.1902 387.26V383.662H70.2402V393ZM67.1602 392.23C68.0002 392.23 68.8122 391.754 69.1902 391.166V388.1C68.8122 387.512 68.0002 387.008 67.1602 387.008C65.8022 387.008 64.9902 388.128 64.9902 389.626C64.9902 391.124 65.8022 392.23 67.1602 392.23ZM85.1643 393H84.1143V388.408C84.1143 387.554 83.7363 387.008 82.8683 387.008C82.1683 387.008 81.4263 387.512 81.0763 388.044V393H80.0263V388.408C80.0263 387.554 79.6623 387.008 78.7803 387.008C78.0943 387.008 77.3663 387.512 77.0023 388.058V393H75.9523V386.238H77.0023V387.218C77.2823 386.784 78.1923 386.07 79.1863 386.07C80.2223 386.07 80.8103 386.63 81.0063 387.33C81.3843 386.714 82.2943 386.07 83.2743 386.07C84.5063 386.07 85.1643 386.756 85.1643 388.114V393ZM90.213 393.168C88.155 393.168 86.867 391.572 86.867 389.612C86.867 387.652 88.155 386.07 90.213 386.07C92.271 386.07 93.559 387.652 93.559 389.612C93.559 391.572 92.271 393.168 90.213 393.168ZM90.213 392.23C91.655 392.23 92.453 390.998 92.453 389.612C92.453 388.24 91.655 387.008 90.213 387.008C88.771 387.008 87.959 388.24 87.959 389.612C87.959 390.998 88.771 392.23 90.213 392.23ZM96.3207 393H95.2707V386.238H96.3207V387.33C96.8667 386.616 97.6507 386.098 98.5747 386.098V387.176C98.4487 387.148 98.3227 387.134 98.1547 387.134C97.5107 387.134 96.6287 387.666 96.3207 388.212V393ZM102.944 393.168C100.942 393.168 99.4998 391.726 99.4998 389.612C99.4998 387.652 100.9 386.07 102.832 386.07C104.876 386.07 106.08 387.666 106.08 389.696V389.962H100.606C100.69 391.236 101.586 392.3 103.042 392.3C103.812 392.3 104.596 391.992 105.128 391.446L105.632 392.132C104.96 392.804 104.05 393.168 102.944 393.168ZM105.044 389.192C105.03 388.184 104.358 386.938 102.818 386.938C101.376 386.938 100.662 388.156 100.606 389.192H105.044ZM112.734 393H111.684V387.162H110.564V386.238H111.684V385.72C111.684 384.334 112.44 383.522 113.644 383.522C114.176 383.522 114.652 383.648 115.072 384.04L114.638 384.726C114.414 384.53 114.148 384.39 113.798 384.39C113.112 384.39 112.734 384.866 112.734 385.72V386.238H114.106V387.162H112.734V393ZM120.969 393H119.919V392.048C119.401 392.636 118.519 393.168 117.511 393.168C116.097 393.168 115.355 392.482 115.355 391.012V386.238H116.405V390.69C116.405 391.88 117.007 392.23 117.917 392.23C118.743 392.23 119.527 391.754 119.919 391.208V386.238H120.969V393ZM128.68 393H127.63V388.576C127.63 387.386 127.028 387.008 126.118 387.008C125.292 387.008 124.508 387.512 124.116 388.058V393H123.066V386.238H124.116V387.218C124.592 386.658 125.516 386.07 126.524 386.07C127.938 386.07 128.68 386.784 128.68 388.254V393ZM133.759 393.168C131.743 393.168 130.385 391.628 130.385 389.612C130.385 387.61 131.743 386.07 133.759 386.07C134.991 386.07 135.719 386.574 136.237 387.246L135.537 387.89C135.089 387.274 134.515 387.008 133.815 387.008C132.373 387.008 131.477 388.114 131.477 389.612C131.477 391.11 132.373 392.23 133.815 392.23C134.515 392.23 135.089 391.95 135.537 391.348L136.237 391.992C135.719 392.664 134.991 393.168 133.759 393.168ZM139.416 393.168C138.422 393.168 137.918 392.594 137.918 391.586V387.162H136.798V386.238H137.918V384.39H138.968V386.238H140.34V387.162H138.968V391.362C138.968 391.866 139.192 392.23 139.654 392.23C139.948 392.23 140.228 392.104 140.368 391.95L140.676 392.734C140.41 392.986 140.032 393.168 139.416 393.168ZM142.341 385.272C141.963 385.272 141.641 384.964 141.641 384.572C141.641 384.18 141.963 383.858 142.341 383.858C142.733 383.858 143.055 384.18 143.055 384.572C143.055 384.964 142.733 385.272 142.341 385.272ZM142.873 393H141.823V386.238H142.873V393ZM147.922 393.168C145.864 393.168 144.576 391.572 144.576 389.612C144.576 387.652 145.864 386.07 147.922 386.07C149.98 386.07 151.268 387.652 151.268 389.612C151.268 391.572 149.98 393.168 147.922 393.168ZM147.922 392.23C149.364 392.23 150.162 390.998 150.162 389.612C150.162 388.24 149.364 387.008 147.922 387.008C146.48 387.008 145.668 388.24 145.668 389.612C145.668 390.998 146.48 392.23 147.922 392.23ZM158.594 393H157.544V388.576C157.544 387.386 156.942 387.008 156.032 387.008C155.206 387.008 154.422 387.512 154.03 388.058V393H152.98V386.238H154.03V387.218C154.506 386.658 155.43 386.07 156.438 386.07C157.852 386.07 158.594 386.784 158.594 388.254V393ZM165.969 393H164.919V392.23C164.359 392.846 163.589 393.168 162.679 393.168C161.531 393.168 160.313 392.398 160.313 390.928C160.313 389.416 161.531 388.702 162.679 388.702C163.603 388.702 164.373 388.996 164.919 389.626V388.408C164.919 387.498 164.191 386.98 163.211 386.98C162.399 386.98 161.741 387.274 161.139 387.918L160.649 387.19C161.377 386.434 162.245 386.07 163.351 386.07C164.779 386.07 165.969 386.714 165.969 388.352V393ZM163.057 392.412C163.799 392.412 164.513 392.132 164.919 391.572V390.298C164.513 389.738 163.799 389.458 163.057 389.458C162.077 389.458 161.391 390.074 161.391 390.942C161.391 391.796 162.077 392.412 163.057 392.412ZM169.123 393H168.073V383.662H169.123V393ZM171.736 385.272C171.358 385.272 171.036 384.964 171.036 384.572C171.036 384.18 171.358 383.858 171.736 383.858C172.128 383.858 172.45 384.18 172.45 384.572C172.45 384.964 172.128 385.272 171.736 385.272ZM172.268 393H171.218V386.238H172.268V393ZM176.071 393.168C175.077 393.168 174.573 392.594 174.573 391.586V387.162H173.453V386.238H174.573V384.39H175.623V386.238H176.995V387.162H175.623V391.362C175.623 391.866 175.847 392.23 176.309 392.23C176.603 392.23 176.883 392.104 177.023 391.95L177.331 392.734C177.065 392.986 176.687 393.168 176.071 393.168ZM178.1 395.646L178.268 394.694C178.422 394.764 178.674 394.806 178.842 394.806C179.304 394.806 179.612 394.652 179.85 394.092L180.298 393.07L177.47 386.238H178.604L180.858 391.782L183.098 386.238H184.246L180.858 394.372C180.452 395.352 179.766 395.73 178.87 395.744C178.646 395.744 178.296 395.702 178.1 395.646ZM190.658 393.168C189.664 393.168 189.16 392.594 189.16 391.586V387.162H188.04V386.238H189.16V384.39H190.21V386.238H191.582V387.162H190.21V391.362C190.21 391.866 190.434 392.23 190.896 392.23C191.19 392.23 191.47 392.104 191.61 391.95L191.918 392.734C191.652 392.986 191.274 393.168 190.658 393.168ZM196.02 393.168C193.962 393.168 192.674 391.572 192.674 389.612C192.674 387.652 193.962 386.07 196.02 386.07C198.078 386.07 199.366 387.652 199.366 389.612C199.366 391.572 198.078 393.168 196.02 393.168ZM196.02 392.23C197.462 392.23 198.26 390.998 198.26 389.612C198.26 388.24 197.462 387.008 196.02 387.008C194.578 387.008 193.766 388.24 193.766 389.612C193.766 390.998 194.578 392.23 196.02 392.23ZM95.6215 410.168C92.9335 410.168 90.8195 408.208 90.8195 405.338C90.8195 402.468 92.9335 400.508 95.6215 400.508C97.2735 400.508 98.4215 401.306 99.1635 402.356L98.1835 402.902C97.6515 402.118 96.6855 401.544 95.6215 401.544C93.5775 401.544 92.0235 403.112 92.0235 405.338C92.0235 407.55 93.5775 409.132 95.6215 409.132C96.6855 409.132 97.6515 408.572 98.1835 407.774L99.1775 408.32C98.3935 409.384 97.2735 410.168 95.6215 410.168ZM103.57 410.168C101.512 410.168 100.224 408.572 100.224 406.612C100.224 404.652 101.512 403.07 103.57 403.07C105.628 403.07 106.916 404.652 106.916 406.612C106.916 408.572 105.628 410.168 103.57 410.168ZM103.57 409.23C105.012 409.23 105.81 407.998 105.81 406.612C105.81 405.24 105.012 404.008 103.57 404.008C102.128 404.008 101.316 405.24 101.316 406.612C101.316 407.998 102.128 409.23 103.57 409.23ZM109.678 410H108.628V403.238H109.678V404.33C110.224 403.616 111.008 403.098 111.932 403.098V404.176C111.806 404.148 111.68 404.134 111.512 404.134C110.868 404.134 109.986 404.666 109.678 405.212V410ZM116.581 410.168C115.657 410.168 114.845 409.734 114.299 408.978V412.576H113.249V403.238H114.299V404.246C114.789 403.56 115.629 403.07 116.581 403.07C118.359 403.07 119.591 404.414 119.591 406.612C119.591 408.796 118.359 410.168 116.581 410.168ZM116.315 409.23C117.673 409.23 118.485 408.11 118.485 406.612C118.485 405.114 117.673 404.008 116.315 404.008C115.489 404.008 114.663 404.498 114.299 405.086V408.138C114.663 408.726 115.489 409.23 116.315 409.23ZM122.605 410H121.555V404.162H120.435V403.238H121.555V402.72C121.555 401.334 122.311 400.522 123.515 400.522C124.047 400.522 124.523 400.648 124.943 401.04L124.509 401.726C124.285 401.53 124.019 401.39 123.669 401.39C122.983 401.39 122.605 401.866 122.605 402.72V403.238H123.977V404.162H122.605V410ZM128.18 410.168C126.122 410.168 124.834 408.572 124.834 406.612C124.834 404.652 126.122 403.07 128.18 403.07C130.238 403.07 131.526 404.652 131.526 406.612C131.526 408.572 130.238 410.168 128.18 410.168ZM128.18 409.23C129.622 409.23 130.42 407.998 130.42 406.612C130.42 405.24 129.622 404.008 128.18 404.008C126.738 404.008 125.926 405.24 125.926 406.612C125.926 407.998 126.738 409.23 128.18 409.23ZM134.288 410H133.238V400.662H134.288V410ZM142.332 410H141.282V408.992C140.778 409.678 139.952 410.168 139 410.168C137.236 410.168 135.99 408.824 135.99 406.626C135.99 404.47 137.222 403.07 139 403.07C139.91 403.07 140.736 403.518 141.282 404.26V400.662H142.332V410ZM139.252 409.23C140.092 409.23 140.904 408.754 141.282 408.166V405.1C140.904 404.512 140.092 404.008 139.252 404.008C137.894 404.008 137.082 405.128 137.082 406.626C137.082 408.124 137.894 409.23 139.252 409.23ZM147.487 410.168C145.485 410.168 144.043 408.726 144.043 406.612C144.043 404.652 145.443 403.07 147.375 403.07C149.419 403.07 150.623 404.666 150.623 406.696V406.962H145.149C145.233 408.236 146.129 409.3 147.585 409.3C148.355 409.3 149.139 408.992 149.671 408.446L150.175 409.132C149.503 409.804 148.593 410.168 147.487 410.168ZM149.587 406.192C149.573 405.184 148.901 403.938 147.361 403.938C145.919 403.938 145.205 405.156 145.149 406.192H149.587ZM153.373 410H152.323V403.238H153.373V404.33C153.919 403.616 154.703 403.098 155.627 403.098V404.176C155.501 404.148 155.375 404.134 155.207 404.134C154.563 404.134 153.681 404.666 153.373 405.212V410Z" fill="#50667C"/>
<g clip-path="url(#clip0_402_9863)">
<rect x="9.5" y="459.5" width="224" height="37" rx="2.5" fill="white" stroke="#CAD4DA"/>
<path d="M62.3639 483H60.9219L57.1699 473.662H58.4999L61.6499 481.726L64.7999 473.662H66.1299L62.3639 483ZM67.8268 475.272C67.4488 475.272 67.1268 474.964 67.1268 474.572C67.1268 474.18 67.4488 473.858 67.8268 473.858C68.2188 473.858 68.5408 474.18 68.5408 474.572C68.5408 474.964 68.2188 475.272 67.8268 475.272ZM68.3588 483H67.3088V476.238H68.3588V483ZM72.5953 483.168C71.4893 483.168 70.5513 482.832 69.8653 482.104L70.4113 481.348C70.8593 481.866 71.7133 482.314 72.6373 482.314C73.6733 482.314 74.2333 481.824 74.2333 481.152C74.2333 479.514 70.0473 480.522 70.0473 478.016C70.0473 476.966 70.9573 476.07 72.5673 476.07C73.7153 476.07 74.5273 476.504 75.0733 477.05L74.5833 477.778C74.1773 477.288 73.4353 476.924 72.5673 476.924C71.6433 476.924 71.0693 477.386 71.0693 477.988C71.0693 479.472 75.2553 478.492 75.2553 481.124C75.2553 482.258 74.3453 483.168 72.5953 483.168ZM77.4791 475.272C77.1011 475.272 76.7791 474.964 76.7791 474.572C76.7791 474.18 77.1011 473.858 77.4791 473.858C77.8711 473.858 78.1931 474.18 78.1931 474.572C78.1931 474.964 77.8711 475.272 77.4791 475.272ZM78.0111 483H76.9611V476.238H78.0111V483ZM81.8137 483.168C80.8197 483.168 80.3157 482.594 80.3157 481.586V477.162H79.1957V476.238H80.3157V474.39H81.3657V476.238H82.7377V477.162H81.3657V481.362C81.3657 481.866 81.5897 482.23 82.0517 482.23C82.3457 482.23 82.6257 482.104 82.7657 481.95L83.0737 482.734C82.8077 482.986 82.4297 483.168 81.8137 483.168ZM89.5383 483.168C88.5443 483.168 88.0403 482.594 88.0403 481.586V477.162H86.9203V476.238H88.0403V474.39H89.0903V476.238H90.4623V477.162H89.0903V481.362C89.0903 481.866 89.3143 482.23 89.7763 482.23C90.0703 482.23 90.3503 482.104 90.4903 481.95L90.7983 482.734C90.5323 482.986 90.1543 483.168 89.5383 483.168ZM97.5735 483H96.5235V478.548C96.5235 477.358 95.9075 477.008 94.9975 477.008C94.1855 477.008 93.4015 477.512 92.9955 478.058V483H91.9455V473.662H92.9955V477.218C93.4715 476.658 94.3955 476.07 95.4175 476.07C96.8315 476.07 97.5735 476.756 97.5735 478.226V483ZM102.722 483.168C100.72 483.168 99.2781 481.726 99.2781 479.612C99.2781 477.652 100.678 476.07 102.61 476.07C104.654 476.07 105.858 477.666 105.858 479.696V479.962H100.384C100.468 481.236 101.364 482.3 102.82 482.3C103.59 482.3 104.374 481.992 104.906 481.446L105.41 482.132C104.738 482.804 103.828 483.168 102.722 483.168ZM104.822 479.192C104.808 478.184 104.136 476.938 102.596 476.938C101.154 476.938 100.44 478.156 100.384 479.192H104.822ZM120.352 483H119.19V475.314L116.012 483H115.536L112.372 475.314V483H111.21V473.662H112.876L115.774 480.69L118.686 473.662H120.352V483ZM127.766 483H126.716V482.23C126.156 482.846 125.386 483.168 124.476 483.168C123.328 483.168 122.11 482.398 122.11 480.928C122.11 479.416 123.328 478.702 124.476 478.702C125.4 478.702 126.17 478.996 126.716 479.626V478.408C126.716 477.498 125.988 476.98 125.008 476.98C124.196 476.98 123.538 477.274 122.936 477.918L122.446 477.19C123.174 476.434 124.042 476.07 125.148 476.07C126.576 476.07 127.766 476.714 127.766 478.352V483ZM124.854 482.412C125.596 482.412 126.31 482.132 126.716 481.572V480.298C126.31 479.738 125.596 479.458 124.854 479.458C123.874 479.458 123.188 480.074 123.188 480.942C123.188 481.796 123.874 482.412 124.854 482.412ZM130.921 483H129.871V476.238H130.921V477.33C131.467 476.616 132.251 476.098 133.175 476.098V477.176C133.049 477.148 132.923 477.134 132.755 477.134C132.111 477.134 131.229 477.666 130.921 478.212V483ZM140.442 483H139.098L136.662 479.962L135.542 481.068V483H134.492V473.662H135.542V479.836L139.098 476.238H140.428L137.432 479.304L140.442 483ZM144.695 483.168C142.693 483.168 141.251 481.726 141.251 479.612C141.251 477.652 142.651 476.07 144.583 476.07C146.627 476.07 147.831 477.666 147.831 479.696V479.962H142.357C142.441 481.236 143.337 482.3 144.793 482.3C145.563 482.3 146.347 481.992 146.879 481.446L147.383 482.132C146.711 482.804 145.801 483.168 144.695 483.168ZM146.795 479.192C146.781 478.184 146.109 476.938 144.569 476.938C143.127 476.938 142.413 478.156 142.357 479.192H146.795ZM151.239 483.168C150.245 483.168 149.741 482.594 149.741 481.586V477.162H148.621V476.238H149.741V474.39H150.791V476.238H152.163V477.162H150.791V481.362C150.791 481.866 151.015 482.23 151.477 482.23C151.771 482.23 152.051 482.104 152.191 481.95L152.499 482.734C152.233 482.986 151.855 483.168 151.239 483.168ZM156.979 483.168C156.055 483.168 155.243 482.734 154.697 481.978V485.576H153.647V476.238H154.697V477.246C155.187 476.56 156.027 476.07 156.979 476.07C158.757 476.07 159.989 477.414 159.989 479.612C159.989 481.796 158.757 483.168 156.979 483.168ZM156.713 482.23C158.071 482.23 158.883 481.11 158.883 479.612C158.883 478.114 158.071 477.008 156.713 477.008C155.887 477.008 155.061 477.498 154.697 478.086V481.138C155.061 481.726 155.887 482.23 156.713 482.23ZM162.708 483H161.658V473.662H162.708V483ZM170.081 483H169.031V482.23C168.471 482.846 167.701 483.168 166.791 483.168C165.643 483.168 164.425 482.398 164.425 480.928C164.425 479.416 165.643 478.702 166.791 478.702C167.715 478.702 168.485 478.996 169.031 479.626V478.408C169.031 477.498 168.303 476.98 167.323 476.98C166.511 476.98 165.853 477.274 165.251 477.918L164.761 477.19C165.489 476.434 166.357 476.07 167.463 476.07C168.891 476.07 170.081 476.714 170.081 478.352V483ZM167.169 482.412C167.911 482.412 168.625 482.132 169.031 481.572V480.298C168.625 479.738 167.911 479.458 167.169 479.458C166.189 479.458 165.503 480.074 165.503 480.942C165.503 481.796 166.189 482.412 167.169 482.412ZM175.168 483.168C173.152 483.168 171.794 481.628 171.794 479.612C171.794 477.61 173.152 476.07 175.168 476.07C176.4 476.07 177.128 476.574 177.646 477.246L176.946 477.89C176.498 477.274 175.924 477.008 175.224 477.008C173.782 477.008 172.886 478.114 172.886 479.612C172.886 481.11 173.782 482.23 175.224 482.23C175.924 482.23 176.498 481.95 176.946 481.348L177.646 481.992C177.128 482.664 176.4 483.168 175.168 483.168ZM182.169 483.168C180.167 483.168 178.725 481.726 178.725 479.612C178.725 477.652 180.125 476.07 182.057 476.07C184.101 476.07 185.305 477.666 185.305 479.696V479.962H179.831C179.915 481.236 180.811 482.3 182.267 482.3C183.037 482.3 183.821 481.992 184.353 481.446L184.857 482.132C184.185 482.804 183.275 483.168 182.169 483.168ZM184.269 479.192C184.255 478.184 183.583 476.938 182.043 476.938C180.601 476.938 179.887 478.156 179.831 479.192H184.269Z" fill="#50667C"/>
</g>
<defs>
<filter id="filter0_i_402_9863" x="9" y="208" width="225" height="225" filterUnits="userSpaceOnUse" color-interpolation-filters="sRGB">
<feFlood flood-opacity="0" result="BackgroundImageFix"/>
<feBlend mode="normal" in="SourceGraphic" in2="BackgroundImageFix" result="shape"/>
<feColorMatrix in="SourceAlpha" type="matrix" values="0 0 0 0 0 0 0 0 0 0 0 0 0 0 0 0 0 0 127 0" result="hardAlpha"/>
<feOffset dy="3"/>
<feComposite in2="hardAlpha" operator="arithmetic" k2="-1" k3="1"/>
<feColorMatrix type="matrix" values="0 0 0 0 0.890196 0 0 0 0 0.898039 0 0 0 0 0.901961 0 0 0 1 0"/>
<feBlend mode="normal" in2="shape" result="effect1_innerShadow_402_9863"/>
</filter>
<filter id="filter1_d_402_9863" x="99" y="281.996" width="46" height="47" filterUnits="userSpaceOnUse" color-interpolation-filters="sRGB">
<feFlood flood-opacity="0" result="BackgroundImageFix"/>
<feColorMatrix in="SourceAlpha" type="matrix" values="0 0 0 0 0 0 0 0 0 0 0 0 0 0 0 0 0 0 127 0" result="hardAlpha"/>
<feOffset dy="1"/>
<feColorMatrix type="matrix" values="0 0 0 0 1 0 0 0 0 1 0 0 0 0 1 0 0 0 1 0"/>
<feBlend mode="normal" in2="BackgroundImageFix" result="effect1_dropShadow_402_9863"/>
<feBlend mode="normal" in="SourceGraphic" in2="effect1_dropShadow_402_9863" result="shape"/>
</filter>
<linearGradient id="paint0_linear_402_9863" x1="296" y1="13" x2="296" y2="1" gradientUnits="userSpaceOnUse">
<stop stop-color="#EEEEEE"/>
<stop offset="1" stop-color="#ECECEC"/>
<stop offset="2" stop-color="#F4F4F4"/>
<stop offset="3" stop-color="white"/>
</linearGradient>
<clipPath id="clip0_402_9863">
<rect width="225" height="38" fill="white" transform="translate(9 459)"/>
</clipPath>
</defs>
</svg>
