<svg width="335" height="500" viewBox="0 0 335 500" fill="none" xmlns="http://www.w3.org/2000/svg">
<mask id="path-1-outside-1_402_9788" maskUnits="userSpaceOnUse" x="34" y="0" width="263" height="14" fill="black">
<rect fill="white" x="34" width="263" height="14"/>
<path fill-rule="evenodd" clip-rule="evenodd" d="M46.917 8C46.441 10.8377 43.973 13 41 13C37.6863 13 35 10.3137 35 7C35 3.68629 37.6863 1 41 1C43.6124 1 45.8349 2.66962 46.6586 5H117.341C118.165 2.66962 120.388 1 123 1C125.612 1 127.835 2.66962 128.659 5H199.341C200.165 2.66962 202.388 1 205 1C207.612 1 209.835 2.66962 210.659 5H284.341C285.165 2.66962 287.388 1 290 1C293.314 1 296 3.68629 296 7C296 10.3137 293.314 13 290 13C287.027 13 284.559 10.8377 284.083 8H210.917C210.441 10.8377 207.973 13 205 13C202.027 13 199.559 10.8377 199.083 8H128.917C128.441 10.8377 125.973 13 123 13C120.027 13 117.559 10.8377 117.083 8H46.917Z"/>
</mask>
<path fill-rule="evenodd" clip-rule="evenodd" d="M46.917 8C46.441 10.8377 43.973 13 41 13C37.6863 13 35 10.3137 35 7C35 3.68629 37.6863 1 41 1C43.6124 1 45.8349 2.66962 46.6586 5H117.341C118.165 2.66962 120.388 1 123 1C125.612 1 127.835 2.66962 128.659 5H199.341C200.165 2.66962 202.388 1 205 1C207.612 1 209.835 2.66962 210.659 5H284.341C285.165 2.66962 287.388 1 290 1C293.314 1 296 3.68629 296 7C296 10.3137 293.314 13 290 13C287.027 13 284.559 10.8377 284.083 8H210.917C210.441 10.8377 207.973 13 205 13C202.027 13 199.559 10.8377 199.083 8H128.917C128.441 10.8377 125.973 13 123 13C120.027 13 117.559 10.8377 117.083 8H46.917Z" fill="url(#paint0_linear_402_9788)"/>
<path d="M46.917 8V7H46.0708L45.9308 7.83454L46.917 8ZM46.6586 5L45.7157 5.33325L45.9514 6H46.6586V5ZM117.341 5V6H118.049L118.284 5.33325L117.341 5ZM128.659 5L127.716 5.33325L127.951 6H128.659V5ZM199.341 5V6H200.049L200.284 5.33324L199.341 5ZM210.659 5L209.716 5.33324L209.951 6H210.659V5ZM284.341 5V6H285.049L285.284 5.33324L284.341 5ZM284.083 8L285.069 7.83455L284.929 7H284.083V8ZM210.917 8V7H210.071L209.931 7.83455L210.917 8ZM199.083 8L200.069 7.83455L199.929 7H199.083V8ZM128.917 8V7H128.071L127.931 7.83454L128.917 8ZM117.083 8L118.069 7.83454L117.929 7H117.083V8ZM41 14C44.4695 14 47.3477 11.4769 47.9033 8.16546L45.9308 7.83454C45.5342 10.1985 43.4765 12 41 12V14ZM34 7C34 10.866 37.134 14 41 14V12C38.2386 12 36 9.76142 36 7H34ZM41 0C37.134 0 34 3.13401 34 7H36C36 4.23858 38.2386 2 41 2V0ZM47.6014 4.66675C46.641 1.94932 44.0494 0 41 0V2C43.1755 2 45.0289 3.38991 45.7157 5.33325L47.6014 4.66675ZM46.6586 6H117.341V4H46.6586V6ZM123 0C119.951 0 117.359 1.94932 116.399 4.66675L118.284 5.33325C118.971 3.38991 120.825 2 123 2V0ZM129.601 4.66675C128.641 1.94932 126.049 0 123 0V2C125.175 2 127.029 3.38991 127.716 5.33325L129.601 4.66675ZM128.659 6H199.341V4H128.659V6ZM200.284 5.33324C200.971 3.38991 202.825 2 205 2V0C201.951 0 199.359 1.94932 198.399 4.66676L200.284 5.33324ZM205 2C207.175 2 209.029 3.38991 209.716 5.33324L211.601 4.66676C210.641 1.94932 208.049 0 205 0V2ZM210.659 6H284.341V4H210.659V6ZM290 0C286.951 0 284.359 1.94932 283.399 4.66676L285.284 5.33324C285.971 3.38991 287.825 2 290 2V0ZM297 7C297 3.13401 293.866 0 290 0V2C292.761 2 295 4.23857 295 7H297ZM290 14C293.866 14 297 10.866 297 7H295C295 9.76142 292.761 12 290 12V14ZM283.097 8.16545C283.652 11.4769 286.531 14 290 14V12C287.523 12 285.466 10.1985 285.069 7.83455L283.097 8.16545ZM284.083 7H210.917V9H284.083V7ZM209.931 7.83455C209.534 10.1985 207.477 12 205 12V14C208.469 14 211.348 11.4769 211.903 8.16545L209.931 7.83455ZM205 12C202.523 12 200.466 10.1985 200.069 7.83455L198.097 8.16545C198.652 11.4769 201.531 14 205 14V12ZM199.083 7H128.917V9H199.083V7ZM123 14C126.469 14 129.348 11.4769 129.903 8.16546L127.931 7.83454C127.534 10.1985 125.476 12 123 12V14ZM116.097 8.16546C116.652 11.4769 119.531 14 123 14V12C120.524 12 118.466 10.1985 118.069 7.83454L116.097 8.16546ZM117.083 7H46.917V9H117.083V7Z" fill="#DDDEDE" mask="url(#path-1-outside-1_402_9788)"/>
<rect x="41" y="5" width="158" height="3" fill="#3FBF5B"/>
<circle cx="41" cy="7" r="6" fill="#3FBF5B"/>
<circle cx="123" cy="7" r="6" fill="#3FBF5B"/>
<circle cx="205" cy="7" r="4" fill="#3FBF5B"/>
<path d="M25.8465 40.168C24.2225 40.168 23.0325 39.552 22.2625 38.684L22.9485 37.802C23.5645 38.488 24.5725 39.132 25.8885 39.132C27.5545 39.132 28.0865 38.236 28.0865 37.522C28.0865 35.114 22.5565 36.444 22.5565 33.112C22.5565 31.572 23.9285 30.522 25.7625 30.522C27.1905 30.522 28.2965 30.998 29.0805 31.824L28.3805 32.678C27.6805 31.908 26.7005 31.558 25.6785 31.558C24.5585 31.558 23.7605 32.16 23.7605 33.042C23.7605 35.142 29.2905 33.938 29.2905 37.424C29.2905 38.782 28.3665 40.168 25.8465 40.168ZM34.0356 40.168C32.0336 40.168 30.5916 38.726 30.5916 36.612C30.5916 34.652 31.9916 33.07 33.9236 33.07C35.9676 33.07 37.1716 34.666 37.1716 36.696V36.962H31.6976C31.7816 38.236 32.6776 39.3 34.1336 39.3C34.9036 39.3 35.6876 38.992 36.2196 38.446L36.7236 39.132C36.0516 39.804 35.1416 40.168 34.0356 40.168ZM36.1356 36.192C36.1216 35.184 35.4496 33.938 33.9096 33.938C32.4676 33.938 31.7536 35.156 31.6976 36.192H36.1356ZM40.5803 40.168C39.5863 40.168 39.0823 39.594 39.0823 38.586V34.162H37.9623V33.238H39.0823V31.39H40.1323V33.238H41.5043V34.162H40.1323V38.362C40.1323 38.866 40.3563 39.23 40.8183 39.23C41.1123 39.23 41.3923 39.104 41.5323 38.95L41.8403 39.734C41.5743 39.986 41.1963 40.168 40.5803 40.168ZM52.2109 40H51.1609V39.048C50.6429 39.636 49.7609 40.168 48.7529 40.168C47.3389 40.168 46.5969 39.482 46.5969 38.012V33.238H47.6469V37.69C47.6469 38.88 48.2489 39.23 49.1589 39.23C49.9849 39.23 50.7689 38.754 51.1609 38.208V33.238H52.2109V40ZM57.6398 40.168C56.7158 40.168 55.9038 39.734 55.3578 38.978V42.576H54.3078V33.238H55.3578V34.246C55.8478 33.56 56.6878 33.07 57.6398 33.07C59.4178 33.07 60.6498 34.414 60.6498 36.612C60.6498 38.796 59.4178 40.168 57.6398 40.168ZM57.3738 39.23C58.7318 39.23 59.5438 38.11 59.5438 36.612C59.5438 35.114 58.7318 34.008 57.3738 34.008C56.5478 34.008 55.7218 34.498 55.3578 35.086V38.138C55.7218 38.726 56.5478 39.23 57.3738 39.23ZM23.4305 58H22.3805V57.23C21.8205 57.846 21.0505 58.168 20.1405 58.168C18.9925 58.168 17.7745 57.398 17.7745 55.928C17.7745 54.416 18.9925 53.702 20.1405 53.702C21.0645 53.702 21.8345 53.996 22.3805 54.626V53.408C22.3805 52.498 21.6525 51.98 20.6725 51.98C19.8605 51.98 19.2025 52.274 18.6005 52.918L18.1105 52.19C18.8385 51.434 19.7065 51.07 20.8125 51.07C22.2405 51.07 23.4305 51.714 23.4305 53.352V58ZM20.5185 57.412C21.2605 57.412 21.9745 57.132 22.3805 56.572V55.298C21.9745 54.738 21.2605 54.458 20.5185 54.458C19.5385 54.458 18.8525 55.074 18.8525 55.942C18.8525 56.796 19.5385 57.412 20.5185 57.412ZM28.5174 58.168C26.5014 58.168 25.1434 56.628 25.1434 54.612C25.1434 52.61 26.5014 51.07 28.5174 51.07C29.7494 51.07 30.4774 51.574 30.9954 52.246L30.2954 52.89C29.8474 52.274 29.2734 52.008 28.5734 52.008C27.1314 52.008 26.2354 53.114 26.2354 54.612C26.2354 56.11 27.1314 57.23 28.5734 57.23C29.2734 57.23 29.8474 56.95 30.2954 56.348L30.9954 56.992C30.4774 57.664 29.7494 58.168 28.5174 58.168ZM35.449 58.168C33.433 58.168 32.075 56.628 32.075 54.612C32.075 52.61 33.433 51.07 35.449 51.07C36.681 51.07 37.409 51.574 37.927 52.246L37.227 52.89C36.779 52.274 36.205 52.008 35.505 52.008C34.063 52.008 33.167 53.114 33.167 54.612C33.167 56.11 34.063 57.23 35.505 57.23C36.205 57.23 36.779 56.95 37.227 56.348L37.927 56.992C37.409 57.664 36.681 58.168 35.449 58.168ZM42.3526 58.168C40.2946 58.168 39.0066 56.572 39.0066 54.612C39.0066 52.652 40.2946 51.07 42.3526 51.07C44.4106 51.07 45.6986 52.652 45.6986 54.612C45.6986 56.572 44.4106 58.168 42.3526 58.168ZM42.3526 57.23C43.7946 57.23 44.5926 55.998 44.5926 54.612C44.5926 53.24 43.7946 52.008 42.3526 52.008C40.9106 52.008 40.0986 53.24 40.0986 54.612C40.0986 55.998 40.9106 57.23 42.3526 57.23ZM53.0244 58H51.9744V57.048C51.4564 57.636 50.5744 58.168 49.5664 58.168C48.1524 58.168 47.4104 57.482 47.4104 56.012V51.238H48.4604V55.69C48.4604 56.88 49.0624 57.23 49.9724 57.23C50.7984 57.23 51.5824 56.754 51.9744 56.208V51.238H53.0244V58ZM60.7353 58H59.6853V53.576C59.6853 52.386 59.0833 52.008 58.1733 52.008C57.3473 52.008 56.5633 52.512 56.1713 53.058V58H55.1213V51.238H56.1713V52.218C56.6473 51.658 57.5713 51.07 58.5793 51.07C59.9933 51.07 60.7353 51.784 60.7353 53.254V58ZM64.5402 58.168C63.5462 58.168 63.0422 57.594 63.0422 56.586V52.162H61.9222V51.238H63.0422V49.39H64.0922V51.238H65.4642V52.162H64.0922V56.362C64.0922 56.866 64.3162 57.23 64.7782 57.23C65.0722 57.23 65.3522 57.104 65.4922 56.95L65.8002 57.734C65.5342 57.986 65.1562 58.168 64.5402 58.168Z" fill="#CCCCCC"/>
<path d="M101.278 40.182C98.6177 40.182 96.4757 38.236 96.4757 35.338C96.4757 32.44 98.6177 30.508 101.278 30.508C102.93 30.508 104.078 31.236 104.904 32.258L103.98 32.832C103.392 32.076 102.398 31.544 101.278 31.544C99.2337 31.544 97.6797 33.112 97.6797 35.338C97.6797 37.55 99.2337 39.146 101.278 39.146C102.398 39.146 103.322 38.6 103.784 38.138V36.234H100.578V35.198H104.946V38.572C104.078 39.538 102.804 40.182 101.278 40.182ZM109.844 40.168C107.842 40.168 106.4 38.726 106.4 36.612C106.4 34.652 107.8 33.07 109.732 33.07C111.776 33.07 112.98 34.666 112.98 36.696V36.962H107.506C107.59 38.236 108.486 39.3 109.942 39.3C110.712 39.3 111.496 38.992 112.028 38.446L112.532 39.132C111.86 39.804 110.95 40.168 109.844 40.168ZM111.944 36.192C111.93 35.184 111.258 33.938 109.718 33.938C108.276 33.938 107.562 35.156 107.506 36.192H111.944ZM120.295 40H119.245V35.576C119.245 34.386 118.643 34.008 117.733 34.008C116.907 34.008 116.123 34.512 115.731 35.058V40H114.681V33.238H115.731V34.218C116.207 33.658 117.131 33.07 118.139 33.07C119.553 33.07 120.295 33.784 120.295 35.254V40ZM125.444 40.168C123.442 40.168 122 38.726 122 36.612C122 34.652 123.4 33.07 125.332 33.07C127.376 33.07 128.58 34.666 128.58 36.696V36.962H123.106C123.19 38.236 124.086 39.3 125.542 39.3C126.312 39.3 127.096 38.992 127.628 38.446L128.132 39.132C127.46 39.804 126.55 40.168 125.444 40.168ZM127.544 36.192C127.53 35.184 126.858 33.938 125.318 33.938C123.876 33.938 123.162 35.156 123.106 36.192H127.544ZM131.33 40H130.28V33.238H131.33V34.33C131.876 33.616 132.66 33.098 133.584 33.098V34.176C133.458 34.148 133.332 34.134 133.164 34.134C132.52 34.134 131.638 34.666 131.33 35.212V40ZM140.18 40H139.13V39.23C138.57 39.846 137.8 40.168 136.89 40.168C135.742 40.168 134.524 39.398 134.524 37.928C134.524 36.416 135.742 35.702 136.89 35.702C137.814 35.702 138.584 35.996 139.13 36.626V35.408C139.13 34.498 138.402 33.98 137.422 33.98C136.61 33.98 135.952 34.274 135.35 34.918L134.86 34.19C135.588 33.434 136.456 33.07 137.562 33.07C138.99 33.07 140.18 33.714 140.18 35.352V40ZM137.268 39.412C138.01 39.412 138.724 39.132 139.13 38.572V37.298C138.724 36.738 138.01 36.458 137.268 36.458C136.288 36.458 135.602 37.074 135.602 37.942C135.602 38.796 136.288 39.412 137.268 39.412ZM143.992 40.168C142.998 40.168 142.494 39.594 142.494 38.586V34.162H141.374V33.238H142.494V31.39H143.544V33.238H144.916V34.162H143.544V38.362C143.544 38.866 143.768 39.23 144.23 39.23C144.524 39.23 144.804 39.104 144.944 38.95L145.252 39.734C144.986 39.986 144.608 40.168 143.992 40.168ZM149.452 40.168C147.45 40.168 146.008 38.726 146.008 36.612C146.008 34.652 147.408 33.07 149.34 33.07C151.384 33.07 152.588 34.666 152.588 36.696V36.962H147.114C147.198 38.236 148.094 39.3 149.55 39.3C150.32 39.3 151.104 38.992 151.636 38.446L152.14 39.132C151.468 39.804 150.558 40.168 149.452 40.168ZM151.552 36.192C151.538 35.184 150.866 33.938 149.326 33.938C147.884 33.938 147.17 35.156 147.114 36.192H151.552ZM104.22 50.272C103.842 50.272 103.52 49.964 103.52 49.572C103.52 49.18 103.842 48.858 104.22 48.858C104.612 48.858 104.934 49.18 104.934 49.572C104.934 49.964 104.612 50.272 104.22 50.272ZM104.752 58H103.702V51.238H104.752V58ZM112.461 58H111.411V53.576C111.411 52.386 110.809 52.008 109.899 52.008C109.073 52.008 108.289 52.512 107.897 53.058V58H106.847V51.238H107.897V52.218C108.373 51.658 109.297 51.07 110.305 51.07C111.719 51.07 112.461 51.784 112.461 53.254V58ZM117.512 58H116.364L113.55 51.238H114.684L116.938 56.782L119.178 51.238H120.326L117.512 58ZM124.375 58.168C122.317 58.168 121.029 56.572 121.029 54.612C121.029 52.652 122.317 51.07 124.375 51.07C126.433 51.07 127.721 52.652 127.721 54.612C127.721 56.572 126.433 58.168 124.375 58.168ZM124.375 57.23C125.817 57.23 126.615 55.998 126.615 54.612C126.615 53.24 125.817 52.008 124.375 52.008C122.933 52.008 122.121 53.24 122.121 54.612C122.121 55.998 122.933 57.23 124.375 57.23ZM129.951 50.272C129.573 50.272 129.251 49.964 129.251 49.572C129.251 49.18 129.573 48.858 129.951 48.858C130.343 48.858 130.665 49.18 130.665 49.572C130.665 49.964 130.343 50.272 129.951 50.272ZM130.483 58H129.433V51.238H130.483V58ZM135.559 58.168C133.543 58.168 132.185 56.628 132.185 54.612C132.185 52.61 133.543 51.07 135.559 51.07C136.791 51.07 137.519 51.574 138.037 52.246L137.337 52.89C136.889 52.274 136.315 52.008 135.615 52.008C134.173 52.008 133.277 53.114 133.277 54.612C133.277 56.11 134.173 57.23 135.615 57.23C136.315 57.23 136.889 56.95 137.337 56.348L138.037 56.992C137.519 57.664 136.791 58.168 135.559 58.168ZM142.561 58.168C140.559 58.168 139.117 56.726 139.117 54.612C139.117 52.652 140.517 51.07 142.449 51.07C144.493 51.07 145.697 52.666 145.697 54.696V54.962H140.223C140.307 56.236 141.203 57.3 142.659 57.3C143.429 57.3 144.213 56.992 144.745 56.446L145.249 57.132C144.577 57.804 143.667 58.168 142.561 58.168ZM144.661 54.192C144.647 53.184 143.975 51.938 142.435 51.938C140.993 51.938 140.279 53.156 140.223 54.192H144.661Z" fill="#CCCCCC"/>
<path d="M194.258 40H192.928L192.102 37.928H187.454L186.628 40H185.298L189.05 30.662H190.492L194.258 40ZM191.752 36.892L189.778 31.866L187.79 36.892H191.752ZM201.387 40H200.337V38.992C199.833 39.678 199.007 40.168 198.055 40.168C196.291 40.168 195.045 38.824 195.045 36.626C195.045 34.47 196.277 33.07 198.055 33.07C198.965 33.07 199.791 33.518 200.337 34.26V30.662H201.387V40ZM198.307 39.23C199.147 39.23 199.959 38.754 200.337 38.166V35.1C199.959 34.512 199.147 34.008 198.307 34.008C196.949 34.008 196.137 35.128 196.137 36.626C196.137 38.124 196.949 39.23 198.307 39.23ZM212.701 40H211.651V35.408C211.651 34.554 211.273 34.008 210.405 34.008C209.705 34.008 208.963 34.512 208.613 35.044V40H207.563V35.408C207.563 34.554 207.199 34.008 206.317 34.008C205.631 34.008 204.903 34.512 204.539 35.058V40H203.489V33.238H204.539V34.218C204.819 33.784 205.729 33.07 206.723 33.07C207.759 33.07 208.347 33.63 208.543 34.33C208.921 33.714 209.831 33.07 210.811 33.07C212.043 33.07 212.701 33.756 212.701 35.114V40ZM215.314 32.272C214.936 32.272 214.614 31.964 214.614 31.572C214.614 31.18 214.936 30.858 215.314 30.858C215.706 30.858 216.028 31.18 216.028 31.572C216.028 31.964 215.706 32.272 215.314 32.272ZM215.846 40H214.796V33.238H215.846V40ZM223.555 40H222.505V35.576C222.505 34.386 221.903 34.008 220.993 34.008C220.167 34.008 219.383 34.512 218.991 35.058V40H217.941V33.238H218.991V34.218C219.467 33.658 220.391 33.07 221.399 33.07C222.813 33.07 223.555 33.784 223.555 35.254V40ZM226.212 40.14C225.792 40.14 225.442 39.79 225.442 39.37C225.442 38.95 225.792 38.6 226.212 38.6C226.632 38.6 226.982 38.95 226.982 39.37C226.982 39.79 226.632 40.14 226.212 40.14Z" fill="#50667C"/>
<path d="M265.815 40H264.653V32.314L261.475 40H260.999L257.835 32.314V40H256.673V30.662H258.339L261.237 37.69L264.149 30.662H265.815V40ZM273.229 40H272.179V39.23C271.619 39.846 270.849 40.168 269.939 40.168C268.791 40.168 267.573 39.398 267.573 37.928C267.573 36.416 268.791 35.702 269.939 35.702C270.863 35.702 271.633 35.996 272.179 36.626V35.408C272.179 34.498 271.451 33.98 270.471 33.98C269.659 33.98 269.001 34.274 268.399 34.918L267.909 34.19C268.637 33.434 269.505 33.07 270.611 33.07C272.039 33.07 273.229 33.714 273.229 35.352V40ZM270.317 39.412C271.059 39.412 271.773 39.132 272.179 38.572V37.298C271.773 36.738 271.059 36.458 270.317 36.458C269.337 36.458 268.651 37.074 268.651 37.942C268.651 38.796 269.337 39.412 270.317 39.412ZM276.384 40H275.334V33.238H276.384V34.33C276.93 33.616 277.714 33.098 278.638 33.098V34.176C278.512 34.148 278.386 34.134 278.218 34.134C277.574 34.134 276.692 34.666 276.384 35.212V40ZM285.905 40H284.561L282.125 36.962L281.005 38.068V40H279.955V30.662H281.005V36.836L284.561 33.238H285.891L282.895 36.304L285.905 40ZM290.158 40.168C288.156 40.168 286.714 38.726 286.714 36.612C286.714 34.652 288.114 33.07 290.046 33.07C292.09 33.07 293.294 34.666 293.294 36.696V36.962H287.82C287.904 38.236 288.8 39.3 290.256 39.3C291.026 39.3 291.81 38.992 292.342 38.446L292.846 39.132C292.174 39.804 291.264 40.168 290.158 40.168ZM292.258 36.192C292.244 35.184 291.572 33.938 290.032 33.938C288.59 33.938 287.876 35.156 287.82 36.192H292.258ZM296.702 40.168C295.708 40.168 295.204 39.594 295.204 38.586V34.162H294.084V33.238H295.204V31.39H296.254V33.238H297.626V34.162H296.254V38.362C296.254 38.866 296.478 39.23 296.94 39.23C297.234 39.23 297.514 39.104 297.654 38.95L297.962 39.734C297.696 39.986 297.318 40.168 296.702 40.168ZM302.442 40.168C301.518 40.168 300.706 39.734 300.16 38.978V42.576H299.11V33.238H300.16V34.246C300.65 33.56 301.49 33.07 302.442 33.07C304.22 33.07 305.452 34.414 305.452 36.612C305.452 38.796 304.22 40.168 302.442 40.168ZM302.176 39.23C303.534 39.23 304.346 38.11 304.346 36.612C304.346 35.114 303.534 34.008 302.176 34.008C301.35 34.008 300.524 34.498 300.16 35.086V38.138C300.524 38.726 301.35 39.23 302.176 39.23ZM308.171 40H307.121V30.662H308.171V40ZM315.544 40H314.494V39.23C313.934 39.846 313.164 40.168 312.254 40.168C311.106 40.168 309.888 39.398 309.888 37.928C309.888 36.416 311.106 35.702 312.254 35.702C313.178 35.702 313.948 35.996 314.494 36.626V35.408C314.494 34.498 313.766 33.98 312.786 33.98C311.974 33.98 311.316 34.274 310.714 34.918L310.224 34.19C310.952 33.434 311.82 33.07 312.926 33.07C314.354 33.07 315.544 33.714 315.544 35.352V40ZM312.632 39.412C313.374 39.412 314.088 39.132 314.494 38.572V37.298C314.088 36.738 313.374 36.458 312.632 36.458C311.652 36.458 310.966 37.074 310.966 37.942C310.966 38.796 311.652 39.412 312.632 39.412ZM320.631 40.168C318.615 40.168 317.257 38.628 317.257 36.612C317.257 34.61 318.615 33.07 320.631 33.07C321.863 33.07 322.591 33.574 323.109 34.246L322.409 34.89C321.961 34.274 321.387 34.008 320.687 34.008C319.245 34.008 318.349 35.114 318.349 36.612C318.349 38.11 319.245 39.23 320.687 39.23C321.387 39.23 321.961 38.95 322.409 38.348L323.109 38.992C322.591 39.664 321.863 40.168 320.631 40.168ZM327.632 40.168C325.63 40.168 324.188 38.726 324.188 36.612C324.188 34.652 325.588 33.07 327.52 33.07C329.564 33.07 330.768 34.666 330.768 36.696V36.962H325.294C325.378 38.236 326.274 39.3 327.73 39.3C328.5 39.3 329.284 38.992 329.816 38.446L330.32 39.132C329.648 39.804 328.738 40.168 327.632 40.168ZM329.732 36.192C329.718 35.184 329.046 33.938 327.506 33.938C326.064 33.938 325.35 35.156 325.294 36.192H329.732Z" fill="#CCCCCC"/>
<path fill-rule="evenodd" clip-rule="evenodd" d="M120.006 23.9999L123.5 20.0068L126.994 23.9999H120.006Z" fill="#3FBF5B"/>
<line x1="44.5" y1="70" x2="44.5" y2="256" stroke="#CCCCCC" stroke-dasharray="2 2"/>
<line x1="97" y1="123.5" x2="44" y2="123.5" stroke="#CCCCCC" stroke-dasharray="2 2"/>
<line x1="44" y1="69.5" x2="204" y2="69.5" stroke="#CCCCCC" stroke-dasharray="2 2"/>
<line x1="97" y1="149.5" x2="44" y2="149.5" stroke="#CCCCCC" stroke-dasharray="2 2"/>
<line x1="97" y1="174.5" x2="44" y2="174.5" stroke="#CCCCCC" stroke-dasharray="2 2"/>
<line x1="97" y1="199.5" x2="44" y2="199.5" stroke="#CCCCCC" stroke-dasharray="2 2"/>
<line x1="97" y1="227.5" x2="44" y2="227.5" stroke="#CCCCCC" stroke-dasharray="2 2"/>
<line x1="97" y1="255.5" x2="44" y2="255.5" stroke="#CCCCCC" stroke-dasharray="2 2"/>
<path d="M119.27 128H118.108V120.202L116.61 121.784L115.91 121.07L118.248 118.662H119.27V128ZM123.717 128.14C123.297 128.14 122.947 127.79 122.947 127.37C122.947 126.95 123.297 126.6 123.717 126.6C124.137 126.6 124.487 126.95 124.487 127.37C124.487 127.79 124.137 128.14 123.717 128.14ZM134.9 128.168C132.366 128.168 131.092 126.67 131.092 124.374V118.662H132.254V124.346C132.254 126.054 133.178 127.132 134.9 127.132C136.622 127.132 137.546 126.054 137.546 124.346V118.662H138.708V124.36C138.708 126.684 137.434 128.168 134.9 128.168ZM144.185 128.168C143.261 128.168 142.449 127.734 141.903 126.978V130.576H140.853V121.238H141.903V122.246C142.393 121.56 143.233 121.07 144.185 121.07C145.963 121.07 147.195 122.414 147.195 124.612C147.195 126.796 145.963 128.168 144.185 128.168ZM143.919 127.23C145.277 127.23 146.089 126.11 146.089 124.612C146.089 123.114 145.277 122.008 143.919 122.008C143.093 122.008 142.267 122.498 141.903 123.086V126.138C142.267 126.726 143.093 127.23 143.919 127.23ZM149.914 128H148.864V118.662H149.914V128ZM154.963 128.168C152.905 128.168 151.617 126.572 151.617 124.612C151.617 122.652 152.905 121.07 154.963 121.07C157.021 121.07 158.309 122.652 158.309 124.612C158.309 126.572 157.021 128.168 154.963 128.168ZM154.963 127.23C156.405 127.23 157.203 125.998 157.203 124.612C157.203 123.24 156.405 122.008 154.963 122.008C153.521 122.008 152.709 123.24 152.709 124.612C152.709 125.998 153.521 127.23 154.963 127.23ZM165.299 128H164.249V127.23C163.689 127.846 162.919 128.168 162.009 128.168C160.861 128.168 159.643 127.398 159.643 125.928C159.643 124.416 160.861 123.702 162.009 123.702C162.933 123.702 163.703 123.996 164.249 124.626V123.408C164.249 122.498 163.521 121.98 162.541 121.98C161.729 121.98 161.071 122.274 160.469 122.918L159.979 122.19C160.707 121.434 161.575 121.07 162.681 121.07C164.109 121.07 165.299 121.714 165.299 123.352V128ZM162.387 127.412C163.129 127.412 163.843 127.132 164.249 126.572V125.298C163.843 124.738 163.129 124.458 162.387 124.458C161.407 124.458 160.721 125.074 160.721 125.942C160.721 126.796 161.407 127.412 162.387 127.412ZM173.354 128H172.304V126.992C171.8 127.678 170.974 128.168 170.022 128.168C168.258 128.168 167.012 126.824 167.012 124.626C167.012 122.47 168.244 121.07 170.022 121.07C170.932 121.07 171.758 121.518 172.304 122.26V118.662H173.354V128ZM170.274 127.23C171.114 127.23 171.926 126.754 172.304 126.166V123.1C171.926 122.512 171.114 122.008 170.274 122.008C168.916 122.008 168.104 123.128 168.104 124.626C168.104 126.124 168.916 127.23 170.274 127.23ZM182.398 128.168C181.474 128.168 180.662 127.734 180.116 126.978V130.576H179.066V121.238H180.116V122.246C180.606 121.56 181.446 121.07 182.398 121.07C184.176 121.07 185.408 122.414 185.408 124.612C185.408 126.796 184.176 128.168 182.398 128.168ZM182.132 127.23C183.49 127.23 184.302 126.11 184.302 124.612C184.302 123.114 183.49 122.008 182.132 122.008C181.306 122.008 180.48 122.498 180.116 123.086V126.138C180.48 126.726 181.306 127.23 182.132 127.23ZM188.127 128H187.077V121.238H188.127V122.33C188.673 121.616 189.457 121.098 190.381 121.098V122.176C190.255 122.148 190.129 122.134 189.961 122.134C189.317 122.134 188.435 122.666 188.127 123.212V128ZM194.75 128.168C192.748 128.168 191.306 126.726 191.306 124.612C191.306 122.652 192.706 121.07 194.638 121.07C196.682 121.07 197.886 122.666 197.886 124.696V124.962H192.412C192.496 126.236 193.392 127.3 194.848 127.3C195.618 127.3 196.402 126.992 196.934 126.446L197.438 127.132C196.766 127.804 195.856 128.168 194.75 128.168ZM196.85 124.192C196.836 123.184 196.164 121.938 194.624 121.938C193.182 121.938 192.468 123.156 192.412 124.192H196.85ZM206.248 128.168C204.246 128.168 202.804 126.726 202.804 124.612C202.804 122.652 204.204 121.07 206.136 121.07C208.18 121.07 209.384 122.666 209.384 124.696V124.962H203.91C203.994 126.236 204.89 127.3 206.346 127.3C207.116 127.3 207.9 126.992 208.432 126.446L208.936 127.132C208.264 127.804 207.354 128.168 206.248 128.168ZM208.348 124.192C208.334 123.184 207.662 121.938 206.122 121.938C204.68 121.938 203.966 123.156 203.91 124.192H208.348ZM216.685 128H215.467L213.437 125.228L211.407 128H210.203L212.793 124.528L210.343 121.238H211.561L213.437 123.814L215.313 121.238H216.531L214.081 124.528L216.685 128ZM218.412 120.272C218.034 120.272 217.712 119.964 217.712 119.572C217.712 119.18 218.034 118.858 218.412 118.858C218.804 118.858 219.126 119.18 219.126 119.572C219.126 119.964 218.804 120.272 218.412 120.272ZM218.944 128H217.894V121.238H218.944V128ZM223.18 128.168C222.074 128.168 221.136 127.832 220.45 127.104L220.996 126.348C221.444 126.866 222.298 127.314 223.222 127.314C224.258 127.314 224.818 126.824 224.818 126.152C224.818 124.514 220.632 125.522 220.632 123.016C220.632 121.966 221.542 121.07 223.152 121.07C224.3 121.07 225.112 121.504 225.658 122.05L225.168 122.778C224.762 122.288 224.02 121.924 223.152 121.924C222.228 121.924 221.654 122.386 221.654 122.988C221.654 124.472 225.84 123.492 225.84 126.124C225.84 127.258 224.93 128.168 223.18 128.168ZM229.254 128.168C228.26 128.168 227.756 127.594 227.756 126.586V122.162H226.636V121.238H227.756V119.39H228.806V121.238H230.178V122.162H228.806V126.362C228.806 126.866 229.03 127.23 229.492 127.23C229.786 127.23 230.066 127.104 230.206 126.95L230.514 127.734C230.248 127.986 229.87 128.168 229.254 128.168ZM232.179 120.272C231.801 120.272 231.479 119.964 231.479 119.572C231.479 119.18 231.801 118.858 232.179 118.858C232.571 118.858 232.893 119.18 232.893 119.572C232.893 119.964 232.571 120.272 232.179 120.272ZM232.711 128H231.661V121.238H232.711V128ZM240.42 128H239.37V123.576C239.37 122.386 238.768 122.008 237.858 122.008C237.032 122.008 236.248 122.512 235.856 123.058V128H234.806V121.238H235.856V122.218C236.332 121.658 237.256 121.07 238.264 121.07C239.678 121.07 240.42 121.784 240.42 123.254V128ZM245.233 130.744C244.085 130.744 243.301 130.52 242.503 129.736L243.035 128.952C243.595 129.624 244.267 129.876 245.233 129.876C246.353 129.876 247.403 129.33 247.403 127.846V126.88C246.913 127.566 246.087 128.084 245.135 128.084C243.371 128.084 242.125 126.768 242.125 124.584C242.125 122.414 243.357 121.07 245.135 121.07C246.045 121.07 246.857 121.518 247.403 122.26V121.238H248.453V127.804C248.453 130.044 246.885 130.744 245.233 130.744ZM245.387 127.16C246.227 127.16 247.039 126.642 247.403 126.054V123.1C247.039 122.512 246.227 122.008 245.387 122.008C244.029 122.008 243.217 123.086 243.217 124.584C243.217 126.068 244.029 127.16 245.387 127.16ZM254.683 120.272C254.305 120.272 253.983 119.964 253.983 119.572C253.983 119.18 254.305 118.858 254.683 118.858C255.075 118.858 255.397 119.18 255.397 119.572C255.397 119.964 255.075 120.272 254.683 120.272ZM255.215 128H254.165V121.238H255.215V128ZM262.924 128H261.874V123.576C261.874 122.386 261.272 122.008 260.362 122.008C259.536 122.008 258.752 122.512 258.36 123.058V128H257.31V121.238H258.36V122.218C258.836 121.658 259.76 121.07 260.768 121.07C262.182 121.07 262.924 121.784 262.924 123.254V128ZM267.975 128H266.827L264.013 121.238H265.147L267.401 126.782L269.641 121.238H270.789L267.975 128ZM274.838 128.168C272.78 128.168 271.492 126.572 271.492 124.612C271.492 122.652 272.78 121.07 274.838 121.07C276.896 121.07 278.184 122.652 278.184 124.612C278.184 126.572 276.896 128.168 274.838 128.168ZM274.838 127.23C276.28 127.23 277.078 125.998 277.078 124.612C277.078 123.24 276.28 122.008 274.838 122.008C273.396 122.008 272.584 123.24 272.584 124.612C272.584 125.998 273.396 127.23 274.838 127.23ZM280.414 120.272C280.036 120.272 279.714 119.964 279.714 119.572C279.714 119.18 280.036 118.858 280.414 118.858C280.806 118.858 281.128 119.18 281.128 119.572C281.128 119.964 280.806 120.272 280.414 120.272ZM280.946 128H279.896V121.238H280.946V128ZM286.022 128.168C284.006 128.168 282.648 126.628 282.648 124.612C282.648 122.61 284.006 121.07 286.022 121.07C287.254 121.07 287.982 121.574 288.5 122.246L287.8 122.89C287.352 122.274 286.778 122.008 286.078 122.008C284.636 122.008 283.74 123.114 283.74 124.612C283.74 126.11 284.636 127.23 286.078 127.23C286.778 127.23 287.352 126.95 287.8 126.348L288.5 126.992C287.982 127.664 287.254 128.168 286.022 128.168ZM293.024 128.168C291.022 128.168 289.58 126.726 289.58 124.612C289.58 122.652 290.98 121.07 292.912 121.07C294.956 121.07 296.16 122.666 296.16 124.696V124.962H290.686C290.77 126.236 291.666 127.3 293.122 127.3C293.892 127.3 294.676 126.992 295.208 126.446L295.712 127.132C295.04 127.804 294.13 128.168 293.024 128.168ZM295.124 124.192C295.11 123.184 294.438 121.938 292.898 121.938C291.456 121.938 290.742 123.156 290.686 124.192H295.124ZM300.003 128.168C298.897 128.168 297.959 127.832 297.273 127.104L297.819 126.348C298.267 126.866 299.121 127.314 300.045 127.314C301.081 127.314 301.641 126.824 301.641 126.152C301.641 124.514 297.455 125.522 297.455 123.016C297.455 121.966 298.365 121.07 299.975 121.07C301.123 121.07 301.935 121.504 302.481 122.05L301.991 122.778C301.585 122.288 300.843 121.924 299.975 121.924C299.051 121.924 298.477 122.386 298.477 122.988C298.477 124.472 302.663 123.492 302.663 126.124C302.663 127.258 301.753 128.168 300.003 128.168Z" fill="#50667C"/>
<path d="M117.912 178.168C116.33 178.168 115.168 177.468 114.594 176.628L115.28 175.9C115.826 176.628 116.778 177.132 117.884 177.132C119.242 177.132 120.068 176.46 120.068 175.382C120.068 174.22 119.116 173.73 117.744 173.73C117.352 173.73 116.918 173.73 116.778 173.744V172.68C116.932 172.694 117.366 172.694 117.744 172.694C118.92 172.694 119.914 172.232 119.914 171.154C119.914 170.118 118.962 169.558 117.828 169.558C116.806 169.558 116.05 169.95 115.364 170.692L114.72 169.964C115.392 169.152 116.47 168.522 117.912 168.522C119.704 168.522 121.076 169.432 121.076 171.014C121.076 172.358 119.942 173.03 119.06 173.184C119.914 173.254 121.216 173.982 121.216 175.48C121.216 177.034 119.97 178.168 117.912 178.168ZM123.717 178.14C123.297 178.14 122.947 177.79 122.947 177.37C122.947 176.95 123.297 176.6 123.717 176.6C124.137 176.6 124.487 176.95 124.487 177.37C124.487 177.79 124.137 178.14 123.717 178.14ZM134.564 178H133.402V169.698H130.448V168.662H137.532V169.698H134.564V178ZM142.986 178H141.936V177.23C141.376 177.846 140.606 178.168 139.696 178.168C138.548 178.168 137.33 177.398 137.33 175.928C137.33 174.416 138.548 173.702 139.696 173.702C140.62 173.702 141.39 173.996 141.936 174.626V173.408C141.936 172.498 141.208 171.98 140.228 171.98C139.416 171.98 138.758 172.274 138.156 172.918L137.666 172.19C138.394 171.434 139.262 171.07 140.368 171.07C141.796 171.07 142.986 171.714 142.986 173.352V178ZM140.074 177.412C140.816 177.412 141.53 177.132 141.936 176.572V175.298C141.53 174.738 140.816 174.458 140.074 174.458C139.094 174.458 138.408 175.074 138.408 175.942C138.408 176.796 139.094 177.412 140.074 177.412ZM147.807 180.744C146.659 180.744 145.875 180.52 145.077 179.736L145.609 178.952C146.169 179.624 146.841 179.876 147.807 179.876C148.927 179.876 149.977 179.33 149.977 177.846V176.88C149.487 177.566 148.661 178.084 147.709 178.084C145.945 178.084 144.699 176.768 144.699 174.584C144.699 172.414 145.931 171.07 147.709 171.07C148.619 171.07 149.431 171.518 149.977 172.26V171.238H151.027V177.804C151.027 180.044 149.459 180.744 147.807 180.744ZM147.961 177.16C148.801 177.16 149.613 176.642 149.977 176.054V173.1C149.613 172.512 148.801 172.008 147.961 172.008C146.603 172.008 145.791 173.086 145.791 174.584C145.791 176.068 146.603 177.16 147.961 177.16ZM156.361 180.646L156.529 179.694C156.683 179.764 156.935 179.806 157.103 179.806C157.565 179.806 157.873 179.652 158.111 179.092L158.559 178.07L155.731 171.238H156.865L159.119 176.782L161.359 171.238H162.507L159.119 179.372C158.713 180.352 158.027 180.73 157.131 180.744C156.907 180.744 156.557 180.702 156.361 180.646ZM166.557 178.168C164.499 178.168 163.211 176.572 163.211 174.612C163.211 172.652 164.499 171.07 166.557 171.07C168.615 171.07 169.903 172.652 169.903 174.612C169.903 176.572 168.615 178.168 166.557 178.168ZM166.557 177.23C167.999 177.23 168.797 175.998 168.797 174.612C168.797 173.24 167.999 172.008 166.557 172.008C165.115 172.008 164.303 173.24 164.303 174.612C164.303 175.998 165.115 177.23 166.557 177.23ZM177.228 178H176.178V177.048C175.66 177.636 174.778 178.168 173.77 178.168C172.356 178.168 171.614 177.482 171.614 176.012V171.238H172.664V175.69C172.664 176.88 173.266 177.23 174.176 177.23C175.002 177.23 175.786 176.754 176.178 176.208V171.238H177.228V178ZM180.375 178H179.325V171.238H180.375V172.33C180.921 171.616 181.705 171.098 182.629 171.098V172.176C182.503 172.148 182.377 172.134 182.209 172.134C181.565 172.134 180.683 172.666 180.375 173.212V178ZM188.074 170.272C187.696 170.272 187.374 169.964 187.374 169.572C187.374 169.18 187.696 168.858 188.074 168.858C188.466 168.858 188.788 169.18 188.788 169.572C188.788 169.964 188.466 170.272 188.074 170.272ZM188.606 178H187.556V171.238H188.606V178ZM196.314 178H195.264V173.576C195.264 172.386 194.662 172.008 193.752 172.008C192.926 172.008 192.142 172.512 191.75 173.058V178H190.7V171.238H191.75V172.218C192.226 171.658 193.15 171.07 194.158 171.07C195.572 171.07 196.314 171.784 196.314 173.254V178ZM201.365 178H200.217L197.403 171.238H198.537L200.791 176.782L203.031 171.238H204.179L201.365 178ZM208.229 178.168C206.171 178.168 204.883 176.572 204.883 174.612C204.883 172.652 206.171 171.07 208.229 171.07C210.287 171.07 211.575 172.652 211.575 174.612C211.575 176.572 210.287 178.168 208.229 178.168ZM208.229 177.23C209.671 177.23 210.469 175.998 210.469 174.612C210.469 173.24 209.671 172.008 208.229 172.008C206.787 172.008 205.975 173.24 205.975 174.612C205.975 175.998 206.787 177.23 208.229 177.23ZM213.804 170.272C213.426 170.272 213.104 169.964 213.104 169.572C213.104 169.18 213.426 168.858 213.804 168.858C214.196 168.858 214.518 169.18 214.518 169.572C214.518 169.964 214.196 170.272 213.804 170.272ZM214.336 178H213.286V171.238H214.336V178ZM219.413 178.168C217.397 178.168 216.039 176.628 216.039 174.612C216.039 172.61 217.397 171.07 219.413 171.07C220.645 171.07 221.373 171.574 221.891 172.246L221.191 172.89C220.743 172.274 220.169 172.008 219.469 172.008C218.027 172.008 217.131 173.114 217.131 174.612C217.131 176.11 218.027 177.23 219.469 177.23C220.169 177.23 220.743 176.95 221.191 176.348L221.891 176.992C221.373 177.664 220.645 178.168 219.413 178.168ZM226.415 178.168C224.413 178.168 222.971 176.726 222.971 174.612C222.971 172.652 224.37 171.07 226.303 171.07C228.347 171.07 229.551 172.666 229.551 174.696V174.962H224.077C224.16 176.236 225.057 177.3 226.513 177.3C227.283 177.3 228.067 176.992 228.599 176.446L229.103 177.132C228.431 177.804 227.521 178.168 226.415 178.168ZM228.515 174.192C228.501 173.184 227.829 171.938 226.289 171.938C224.847 171.938 224.133 173.156 224.077 174.192H228.515ZM233.393 178.168C232.287 178.168 231.349 177.832 230.663 177.104L231.209 176.348C231.657 176.866 232.511 177.314 233.435 177.314C234.471 177.314 235.031 176.824 235.031 176.152C235.031 174.514 230.845 175.522 230.845 173.016C230.845 171.966 231.755 171.07 233.365 171.07C234.513 171.07 235.325 171.504 235.871 172.05L235.381 172.778C234.975 172.288 234.233 171.924 233.365 171.924C232.441 171.924 231.867 172.386 231.867 172.988C231.867 174.472 236.053 173.492 236.053 176.124C236.053 177.258 235.143 178.168 233.393 178.168Z" fill="#50667C"/>
<path d="M121.118 153H114.706V152.076C118.066 149.43 119.886 147.876 119.886 146.266C119.886 145.076 118.906 144.558 117.94 144.558C116.82 144.558 115.952 145.034 115.406 145.734L114.692 144.992C115.406 144.054 116.624 143.522 117.94 143.522C119.494 143.522 121.076 144.404 121.076 146.266C121.076 148.17 119.144 149.906 116.54 151.964H121.118V153ZM123.717 153.14C123.297 153.14 122.947 152.79 122.947 152.37C122.947 151.95 123.297 151.6 123.717 151.6C124.137 151.6 124.487 151.95 124.487 152.37C124.487 152.79 124.137 153.14 123.717 153.14ZM134.116 153.168C132.492 153.168 131.302 152.552 130.532 151.684L131.218 150.802C131.834 151.488 132.842 152.132 134.158 152.132C135.824 152.132 136.356 151.236 136.356 150.522C136.356 148.114 130.826 149.444 130.826 146.112C130.826 144.572 132.198 143.522 134.032 143.522C135.46 143.522 136.566 143.998 137.35 144.824L136.65 145.678C135.95 144.908 134.97 144.558 133.948 144.558C132.828 144.558 132.03 145.16 132.03 146.042C132.03 148.142 137.56 146.938 137.56 150.424C137.56 151.782 136.636 153.168 134.116 153.168ZM142.305 153.168C140.303 153.168 138.861 151.726 138.861 149.612C138.861 147.652 140.261 146.07 142.193 146.07C144.237 146.07 145.441 147.666 145.441 149.696V149.962H139.967C140.051 151.236 140.947 152.3 142.403 152.3C143.173 152.3 143.957 151.992 144.489 151.446L144.993 152.132C144.321 152.804 143.411 153.168 142.305 153.168ZM144.405 149.192C144.391 148.184 143.719 146.938 142.179 146.938C140.737 146.938 140.023 148.156 139.967 149.192H144.405ZM152.756 153H151.706V148.576C151.706 147.386 151.104 147.008 150.194 147.008C149.368 147.008 148.584 147.512 148.192 148.058V153H147.142V146.238H148.192V147.218C148.668 146.658 149.592 146.07 150.6 146.07C152.014 146.07 152.756 146.784 152.756 148.254V153ZM160.803 153H159.753V151.992C159.249 152.678 158.423 153.168 157.471 153.168C155.707 153.168 154.461 151.824 154.461 149.626C154.461 147.47 155.693 146.07 157.471 146.07C158.381 146.07 159.207 146.518 159.753 147.26V143.662H160.803V153ZM157.723 152.23C158.563 152.23 159.375 151.754 159.753 151.166V148.1C159.375 147.512 158.563 147.008 157.723 147.008C156.365 147.008 155.553 148.128 155.553 149.626C155.553 151.124 156.365 152.23 157.723 152.23ZM168.223 153.168C167.229 153.168 166.725 152.594 166.725 151.586V147.162H165.605V146.238H166.725V144.39H167.775V146.238H169.147V147.162H167.775V151.362C167.775 151.866 167.999 152.23 168.461 152.23C168.755 152.23 169.035 152.104 169.175 151.95L169.483 152.734C169.217 152.986 168.839 153.168 168.223 153.168ZM176.258 153H175.208V148.548C175.208 147.358 174.592 147.008 173.682 147.008C172.87 147.008 172.086 147.512 171.68 148.058V153H170.63V143.662H171.68V147.218C172.156 146.658 173.08 146.07 174.102 146.07C175.516 146.07 176.258 146.756 176.258 148.226V153ZM181.407 153.168C179.405 153.168 177.963 151.726 177.963 149.612C177.963 147.652 179.363 146.07 181.295 146.07C183.339 146.07 184.543 147.666 184.543 149.696V149.962H179.069C179.153 151.236 180.049 152.3 181.505 152.3C182.275 152.3 183.059 151.992 183.591 151.446L184.095 152.132C183.423 152.804 182.513 153.168 181.407 153.168ZM183.507 149.192C183.493 148.184 182.821 146.938 181.281 146.938C179.839 146.938 179.125 148.156 179.069 149.192H183.507ZM195.455 153H194.405V148.408C194.405 147.554 194.027 147.008 193.159 147.008C192.459 147.008 191.717 147.512 191.367 148.044V153H190.317V148.408C190.317 147.554 189.953 147.008 189.071 147.008C188.385 147.008 187.657 147.512 187.293 148.058V153H186.243V146.238H187.293V147.218C187.573 146.784 188.483 146.07 189.477 146.07C190.513 146.07 191.101 146.63 191.297 147.33C191.675 146.714 192.585 146.07 193.565 146.07C194.797 146.07 195.455 146.756 195.455 148.114V153ZM204.113 153H202.965L200.151 146.238H201.285L203.539 151.782L205.779 146.238H206.927L204.113 153ZM208.541 145.272C208.163 145.272 207.841 144.964 207.841 144.572C207.841 144.18 208.163 143.858 208.541 143.858C208.933 143.858 209.255 144.18 209.255 144.572C209.255 144.964 208.933 145.272 208.541 145.272ZM209.073 153H208.023V146.238H209.073V153ZM216.445 153H215.395V152.23C214.835 152.846 214.065 153.168 213.155 153.168C212.007 153.168 210.789 152.398 210.789 150.928C210.789 149.416 212.007 148.702 213.155 148.702C214.079 148.702 214.849 148.996 215.395 149.626V148.408C215.395 147.498 214.667 146.98 213.687 146.98C212.875 146.98 212.217 147.274 211.615 147.918L211.125 147.19C211.853 146.434 212.721 146.07 213.827 146.07C215.255 146.07 216.445 146.714 216.445 148.352V153ZM213.533 152.412C214.275 152.412 214.989 152.132 215.395 151.572V150.298C214.989 149.738 214.275 149.458 213.533 149.458C212.553 149.458 211.867 150.074 211.867 150.942C211.867 151.796 212.553 152.412 213.533 152.412ZM225.211 153.168C223.209 153.168 221.767 151.726 221.767 149.612C221.767 147.652 223.167 146.07 225.099 146.07C227.143 146.07 228.347 147.666 228.347 149.696V149.962H222.873C222.957 151.236 223.853 152.3 225.309 152.3C226.079 152.3 226.863 151.992 227.395 151.446L227.899 152.132C227.227 152.804 226.317 153.168 225.211 153.168ZM227.311 149.192C227.297 148.184 226.625 146.938 225.085 146.938C223.643 146.938 222.929 148.156 222.873 149.192H227.311ZM239.26 153H238.21V148.408C238.21 147.554 237.832 147.008 236.964 147.008C236.264 147.008 235.522 147.512 235.172 148.044V153H234.122V148.408C234.122 147.554 233.758 147.008 232.876 147.008C232.19 147.008 231.462 147.512 231.098 148.058V153H230.048V146.238H231.098V147.218C231.378 146.784 232.288 146.07 233.282 146.07C234.318 146.07 234.906 146.63 235.102 147.33C235.48 146.714 236.39 146.07 237.37 146.07C238.602 146.07 239.26 146.756 239.26 148.114V153ZM246.633 153H245.583V152.23C245.023 152.846 244.253 153.168 243.343 153.168C242.195 153.168 240.977 152.398 240.977 150.928C240.977 149.416 242.195 148.702 243.343 148.702C244.267 148.702 245.037 148.996 245.583 149.626V148.408C245.583 147.498 244.855 146.98 243.875 146.98C243.063 146.98 242.405 147.274 241.803 147.918L241.313 147.19C242.041 146.434 242.909 146.07 244.015 146.07C245.443 146.07 246.633 146.714 246.633 148.352V153ZM243.721 152.412C244.463 152.412 245.177 152.132 245.583 151.572V150.298C245.177 149.738 244.463 149.458 243.721 149.458C242.741 149.458 242.055 150.074 242.055 150.942C242.055 151.796 242.741 152.412 243.721 152.412ZM249.256 145.272C248.878 145.272 248.556 144.964 248.556 144.572C248.556 144.18 248.878 143.858 249.256 143.858C249.648 143.858 249.97 144.18 249.97 144.572C249.97 144.964 249.648 145.272 249.256 145.272ZM249.788 153H248.738V146.238H249.788V153ZM252.932 153H251.882V143.662H252.932V153ZM260.806 155.296L260.176 155.786C258.916 154.064 258.202 151.852 258.202 149.598C258.202 147.344 258.916 145.146 260.176 143.41L260.806 143.886C259.91 145.664 259.35 147.26 259.35 149.598C259.35 151.922 259.91 153.532 260.806 155.296ZM267.387 153H266.337V152.23C265.777 152.846 265.007 153.168 264.097 153.168C262.949 153.168 261.731 152.398 261.731 150.928C261.731 149.416 262.949 148.702 264.097 148.702C265.021 148.702 265.791 148.996 266.337 149.626V148.408C266.337 147.498 265.609 146.98 264.629 146.98C263.817 146.98 263.159 147.274 262.557 147.918L262.067 147.19C262.795 146.434 263.663 146.07 264.769 146.07C266.197 146.07 267.387 146.714 267.387 148.352V153ZM264.475 152.412C265.217 152.412 265.931 152.132 266.337 151.572V150.298C265.931 149.738 265.217 149.458 264.475 149.458C263.495 149.458 262.809 150.074 262.809 150.942C262.809 151.796 263.495 152.412 264.475 152.412ZM270.541 153H269.491V143.662H270.541V153ZM274.344 153.168C273.35 153.168 272.846 152.594 272.846 151.586V147.162H271.726V146.238H272.846V144.39H273.896V146.238H275.268V147.162H273.896V151.362C273.896 151.866 274.12 152.23 274.582 152.23C274.876 152.23 275.156 152.104 275.296 151.95L275.604 152.734C275.338 152.986 274.96 153.168 274.344 153.168ZM279.803 153.168C277.801 153.168 276.359 151.726 276.359 149.612C276.359 147.652 277.759 146.07 279.691 146.07C281.735 146.07 282.939 147.666 282.939 149.696V149.962H277.465C277.549 151.236 278.445 152.3 279.901 152.3C280.671 152.3 281.455 151.992 281.987 151.446L282.491 152.132C281.819 152.804 280.909 153.168 279.803 153.168ZM281.903 149.192C281.889 148.184 281.217 146.938 279.677 146.938C278.235 146.938 277.521 148.156 277.465 149.192H281.903ZM285.69 153H284.64V146.238H285.69V147.33C286.236 146.616 287.02 146.098 287.944 146.098V147.176C287.818 147.148 287.692 147.134 287.524 147.134C286.88 147.134 285.998 147.666 285.69 148.212V153ZM294.875 153H293.825V148.576C293.825 147.386 293.223 147.008 292.313 147.008C291.487 147.008 290.703 147.512 290.311 148.058V153H289.261V146.238H290.311V147.218C290.787 146.658 291.711 146.07 292.719 146.07C294.133 146.07 294.875 146.784 294.875 148.254V153ZM302.25 153H301.2V152.23C300.64 152.846 299.87 153.168 298.96 153.168C297.812 153.168 296.594 152.398 296.594 150.928C296.594 149.416 297.812 148.702 298.96 148.702C299.884 148.702 300.654 148.996 301.2 149.626V148.408C301.2 147.498 300.472 146.98 299.492 146.98C298.68 146.98 298.022 147.274 297.42 147.918L296.93 147.19C297.658 146.434 298.526 146.07 299.632 146.07C301.06 146.07 302.25 146.714 302.25 148.352V153ZM299.338 152.412C300.08 152.412 300.794 152.132 301.2 151.572V150.298C300.794 149.738 300.08 149.458 299.338 149.458C298.358 149.458 297.672 150.074 297.672 150.942C297.672 151.796 298.358 152.412 299.338 152.412ZM306.063 153.168C305.069 153.168 304.565 152.594 304.565 151.586V147.162H303.445V146.238H304.565V144.39H305.615V146.238H306.987V147.162H305.615V151.362C305.615 151.866 305.839 152.23 306.301 152.23C306.595 152.23 306.875 152.104 307.015 151.95L307.323 152.734C307.057 152.986 306.679 153.168 306.063 153.168ZM308.988 145.272C308.61 145.272 308.288 144.964 308.288 144.572C308.288 144.18 308.61 143.858 308.988 143.858C309.38 143.858 309.702 144.18 309.702 144.572C309.702 144.964 309.38 145.272 308.988 145.272ZM309.52 153H308.47V146.238H309.52V153ZM314.568 153H313.42L310.606 146.238H311.74L313.994 151.782L316.234 146.238H317.382L314.568 153ZM321.53 153.168C319.528 153.168 318.086 151.726 318.086 149.612C318.086 147.652 319.486 146.07 321.418 146.07C323.462 146.07 324.666 147.666 324.666 149.696V149.962H319.192C319.276 151.236 320.172 152.3 321.628 152.3C322.398 152.3 323.182 151.992 323.714 151.446L324.218 152.132C323.546 152.804 322.636 153.168 321.53 153.168ZM323.63 149.192C323.616 148.184 322.944 146.938 321.404 146.938C319.962 146.938 319.248 148.156 319.192 149.192H323.63ZM326.184 155.786L325.554 155.296C326.464 153.532 327.024 151.922 327.024 149.598C327.024 147.26 326.464 145.664 325.554 143.886L326.184 143.41C327.458 145.146 328.172 147.344 328.172 149.598C328.172 151.852 327.458 154.064 326.184 155.786Z" fill="#50667C"/>
<path d="M120.054 203H118.892V200.634H114.454V199.668L118.458 193.662H120.054V199.612H121.37V200.634H120.054V203ZM118.892 199.612V194.74L115.616 199.612H118.892ZM123.717 203.14C123.297 203.14 122.947 202.79 122.947 202.37C122.947 201.95 123.297 201.6 123.717 201.6C124.137 201.6 124.487 201.95 124.487 202.37C124.487 202.79 124.137 203.14 123.717 203.14ZM134.284 203H131.092V193.662H134.284C137.182 193.662 139.072 195.692 139.072 198.338C139.072 200.998 137.182 203 134.284 203ZM134.284 201.964C136.552 201.964 137.868 200.34 137.868 198.338C137.868 196.322 136.594 194.698 134.284 194.698H132.254V201.964H134.284ZM143.905 203.168C141.903 203.168 140.461 201.726 140.461 199.612C140.461 197.652 141.861 196.07 143.793 196.07C145.837 196.07 147.041 197.666 147.041 199.696V199.962H141.567C141.651 201.236 142.547 202.3 144.003 202.3C144.773 202.3 145.557 201.992 146.089 201.446L146.593 202.132C145.921 202.804 145.011 203.168 143.905 203.168ZM146.005 199.192C145.991 198.184 145.319 196.938 143.779 196.938C142.337 196.938 141.623 198.156 141.567 199.192H146.005ZM149.791 203H148.741V193.662H149.791V203ZM154.938 203.168C152.936 203.168 151.494 201.726 151.494 199.612C151.494 197.652 152.894 196.07 154.826 196.07C156.87 196.07 158.074 197.666 158.074 199.696V199.962H152.6C152.684 201.236 153.58 202.3 155.036 202.3C155.806 202.3 156.59 201.992 157.122 201.446L157.626 202.132C156.954 202.804 156.044 203.168 154.938 203.168ZM157.038 199.192C157.024 198.184 156.352 196.938 154.812 196.938C153.37 196.938 152.656 198.156 152.6 199.192H157.038ZM161.483 203.168C160.489 203.168 159.985 202.594 159.985 201.586V197.162H158.865V196.238H159.985V194.39H161.035V196.238H162.407V197.162H161.035V201.362C161.035 201.866 161.259 202.23 161.721 202.23C162.015 202.23 162.295 202.104 162.435 201.95L162.743 202.734C162.477 202.986 162.099 203.168 161.483 203.168ZM166.942 203.168C164.94 203.168 163.498 201.726 163.498 199.612C163.498 197.652 164.898 196.07 166.83 196.07C168.874 196.07 170.078 197.666 170.078 199.696V199.962H164.604C164.688 201.236 165.584 202.3 167.04 202.3C167.81 202.3 168.594 201.992 169.126 201.446L169.63 202.132C168.958 202.804 168.048 203.168 166.942 203.168ZM169.042 199.192C169.028 198.184 168.356 196.938 166.816 196.938C165.374 196.938 164.66 198.156 164.604 199.192H169.042ZM175.906 195.272C175.528 195.272 175.206 194.964 175.206 194.572C175.206 194.18 175.528 193.858 175.906 193.858C176.298 193.858 176.62 194.18 176.62 194.572C176.62 194.964 176.298 195.272 175.906 195.272ZM176.438 203H175.388V196.238H176.438V203ZM184.146 203H183.096V198.576C183.096 197.386 182.494 197.008 181.584 197.008C180.758 197.008 179.974 197.512 179.582 198.058V203H178.532V196.238H179.582V197.218C180.058 196.658 180.982 196.07 181.99 196.07C183.404 196.07 184.146 196.784 184.146 198.254V203ZM189.197 203H188.049L185.235 196.238H186.369L188.623 201.782L190.863 196.238H192.011L189.197 203ZM196.061 203.168C194.003 203.168 192.715 201.572 192.715 199.612C192.715 197.652 194.003 196.07 196.061 196.07C198.119 196.07 199.407 197.652 199.407 199.612C199.407 201.572 198.119 203.168 196.061 203.168ZM196.061 202.23C197.503 202.23 198.301 200.998 198.301 199.612C198.301 198.24 197.503 197.008 196.061 197.008C194.619 197.008 193.807 198.24 193.807 199.612C193.807 200.998 194.619 202.23 196.061 202.23ZM201.636 195.272C201.258 195.272 200.936 194.964 200.936 194.572C200.936 194.18 201.258 193.858 201.636 193.858C202.028 193.858 202.35 194.18 202.35 194.572C202.35 194.964 202.028 195.272 201.636 195.272ZM202.168 203H201.118V196.238H202.168V203ZM207.245 203.168C205.229 203.168 203.871 201.628 203.871 199.612C203.871 197.61 205.229 196.07 207.245 196.07C208.477 196.07 209.205 196.574 209.723 197.246L209.023 197.89C208.575 197.274 208.001 197.008 207.301 197.008C205.859 197.008 204.963 198.114 204.963 199.612C204.963 201.11 205.859 202.23 207.301 202.23C208.001 202.23 208.575 201.95 209.023 201.348L209.723 201.992C209.205 202.664 208.477 203.168 207.245 203.168ZM214.247 203.168C212.245 203.168 210.803 201.726 210.803 199.612C210.803 197.652 212.203 196.07 214.135 196.07C216.179 196.07 217.383 197.666 217.383 199.696V199.962H211.909C211.993 201.236 212.889 202.3 214.345 202.3C215.115 202.3 215.899 201.992 216.431 201.446L216.935 202.132C216.263 202.804 215.353 203.168 214.247 203.168ZM216.347 199.192C216.333 198.184 215.661 196.938 214.121 196.938C212.679 196.938 211.965 198.156 211.909 199.192H216.347ZM221.225 203.168C220.119 203.168 219.181 202.832 218.495 202.104L219.041 201.348C219.489 201.866 220.343 202.314 221.267 202.314C222.303 202.314 222.863 201.824 222.863 201.152C222.863 199.514 218.677 200.522 218.677 198.016C218.677 196.966 219.587 196.07 221.197 196.07C222.345 196.07 223.157 196.504 223.703 197.05L223.213 197.778C222.807 197.288 222.065 196.924 221.197 196.924C220.273 196.924 219.699 197.386 219.699 197.988C219.699 199.472 223.885 198.492 223.885 201.124C223.885 202.258 222.975 203.168 221.225 203.168Z" fill="#50667C"/>
<path d="M117.996 228.168C116.414 228.168 115.406 227.594 114.706 226.67L115.42 225.9C116.036 226.684 116.848 227.132 117.996 227.132C119.27 227.132 120.152 226.264 120.152 225.13C120.152 223.898 119.27 223.114 118.01 223.114C117.184 223.114 116.484 223.38 115.854 223.996L115 223.702V218.662H120.712V219.698H116.162V222.946C116.61 222.498 117.408 222.106 118.346 222.106C119.9 222.106 121.314 223.17 121.314 225.088C121.314 226.992 119.872 228.168 117.996 228.168ZM123.717 228.14C123.297 228.14 122.947 227.79 122.947 227.37C122.947 226.95 123.297 226.6 123.717 226.6C124.137 226.6 124.487 226.95 124.487 227.37C124.487 227.79 124.137 228.14 123.717 228.14ZM137.21 228H131.092V218.662H137.21V219.698H132.254V222.708H137.112V223.744H132.254V226.964H137.21V228ZM144.621 228H143.403L141.373 225.228L139.343 228H138.139L140.729 224.528L138.279 221.238H139.497L141.373 223.814L143.249 221.238H144.467L142.017 224.528L144.621 228ZM149.161 228.168C148.237 228.168 147.425 227.734 146.879 226.978V230.576H145.829V221.238H146.879V222.246C147.369 221.56 148.209 221.07 149.161 221.07C150.939 221.07 152.171 222.414 152.171 224.612C152.171 226.796 150.939 228.168 149.161 228.168ZM148.895 227.23C150.253 227.23 151.065 226.11 151.065 224.612C151.065 223.114 150.253 222.008 148.895 222.008C148.069 222.008 147.243 222.498 146.879 223.086V226.138C147.243 226.726 148.069 227.23 148.895 227.23ZM156.795 228.168C154.737 228.168 153.449 226.572 153.449 224.612C153.449 222.652 154.737 221.07 156.795 221.07C158.853 221.07 160.141 222.652 160.141 224.612C160.141 226.572 158.853 228.168 156.795 228.168ZM156.795 227.23C158.237 227.23 159.035 225.998 159.035 224.612C159.035 223.24 158.237 222.008 156.795 222.008C155.353 222.008 154.541 223.24 154.541 224.612C154.541 225.998 155.353 227.23 156.795 227.23ZM162.903 228H161.853V221.238H162.903V222.33C163.449 221.616 164.233 221.098 165.157 221.098V222.176C165.031 222.148 164.905 222.134 164.737 222.134C164.093 222.134 163.211 222.666 162.903 223.212V228ZM168.182 228.168C167.188 228.168 166.684 227.594 166.684 226.586V222.162H165.564V221.238H166.684V219.39H167.734V221.238H169.106V222.162H167.734V226.362C167.734 226.866 167.958 227.23 168.42 227.23C168.714 227.23 168.994 227.104 169.134 226.95L169.442 227.734C169.176 227.986 168.798 228.168 168.182 228.168ZM174.716 220.272C174.338 220.272 174.016 219.964 174.016 219.572C174.016 219.18 174.338 218.858 174.716 218.858C175.108 218.858 175.43 219.18 175.43 219.572C175.43 219.964 175.108 220.272 174.716 220.272ZM175.248 228H174.198V221.238H175.248V228ZM182.957 228H181.907V223.576C181.907 222.386 181.305 222.008 180.395 222.008C179.569 222.008 178.785 222.512 178.393 223.058V228H177.343V221.238H178.393V222.218C178.869 221.658 179.793 221.07 180.801 221.07C182.215 221.07 182.957 221.784 182.957 223.254V228ZM188.008 228H186.86L184.046 221.238H185.18L187.434 226.782L189.674 221.238H190.822L188.008 228ZM194.871 228.168C192.813 228.168 191.525 226.572 191.525 224.612C191.525 222.652 192.813 221.07 194.871 221.07C196.929 221.07 198.217 222.652 198.217 224.612C198.217 226.572 196.929 228.168 194.871 228.168ZM194.871 227.23C196.313 227.23 197.111 225.998 197.111 224.612C197.111 223.24 196.313 222.008 194.871 222.008C193.429 222.008 192.617 223.24 192.617 224.612C192.617 225.998 193.429 227.23 194.871 227.23ZM200.447 220.272C200.069 220.272 199.747 219.964 199.747 219.572C199.747 219.18 200.069 218.858 200.447 218.858C200.839 218.858 201.161 219.18 201.161 219.572C201.161 219.964 200.839 220.272 200.447 220.272ZM200.979 228H199.929V221.238H200.979V228ZM206.055 228.168C204.039 228.168 202.681 226.628 202.681 224.612C202.681 222.61 204.039 221.07 206.055 221.07C207.287 221.07 208.015 221.574 208.533 222.246L207.833 222.89C207.385 222.274 206.811 222.008 206.111 222.008C204.669 222.008 203.773 223.114 203.773 224.612C203.773 226.11 204.669 227.23 206.111 227.23C206.811 227.23 207.385 226.95 207.833 226.348L208.533 226.992C208.015 227.664 207.287 228.168 206.055 228.168ZM213.057 228.168C211.055 228.168 209.613 226.726 209.613 224.612C209.613 222.652 211.013 221.07 212.945 221.07C214.989 221.07 216.193 222.666 216.193 224.696V224.962H210.719C210.803 226.236 211.699 227.3 213.155 227.3C213.925 227.3 214.709 226.992 215.241 226.446L215.745 227.132C215.073 227.804 214.163 228.168 213.057 228.168ZM215.157 224.192C215.143 223.184 214.471 221.938 212.931 221.938C211.489 221.938 210.775 223.156 210.719 224.192H215.157ZM220.036 228.168C218.93 228.168 217.992 227.832 217.306 227.104L217.852 226.348C218.3 226.866 219.154 227.314 220.078 227.314C221.114 227.314 221.674 226.824 221.674 226.152C221.674 224.514 217.488 225.522 217.488 223.016C217.488 221.966 218.398 221.07 220.008 221.07C221.156 221.07 221.968 221.504 222.514 222.05L222.024 222.778C221.618 222.288 220.876 221.924 220.008 221.924C219.084 221.924 218.51 222.386 218.51 222.988C218.51 224.472 222.696 223.492 222.696 226.124C222.696 227.258 221.786 228.168 220.036 228.168ZM230.181 230.296L229.551 230.786C228.291 229.064 227.577 226.852 227.577 224.598C227.577 222.344 228.291 220.146 229.551 218.41L230.181 218.886C229.285 220.664 228.725 222.26 228.725 224.598C228.725 226.922 229.285 228.532 230.181 230.296ZM235.95 228.168C233.262 228.168 231.148 226.208 231.148 223.338C231.148 220.468 233.262 218.508 235.95 218.508C237.602 218.508 238.75 219.306 239.492 220.356L238.512 220.902C237.98 220.118 237.014 219.544 235.95 219.544C233.906 219.544 232.352 221.112 232.352 223.338C232.352 225.55 233.906 227.132 235.95 227.132C237.014 227.132 237.98 226.572 238.512 225.774L239.506 226.32C238.722 227.384 237.602 228.168 235.95 228.168ZM244.011 228.168C242.387 228.168 241.197 227.552 240.427 226.684L241.113 225.802C241.729 226.488 242.737 227.132 244.053 227.132C245.719 227.132 246.251 226.236 246.251 225.522C246.251 223.114 240.721 224.444 240.721 221.112C240.721 219.572 242.093 218.522 243.927 218.522C245.355 218.522 246.461 218.998 247.245 219.824L246.545 220.678C245.845 219.908 244.865 219.558 243.843 219.558C242.723 219.558 241.925 220.16 241.925 221.042C241.925 223.142 247.455 221.938 247.455 225.424C247.455 226.782 246.531 228.168 244.011 228.168ZM253.418 228H251.976L248.224 218.662H249.554L252.704 226.726L255.854 218.662H257.184L253.418 228ZM258.181 230.786L257.551 230.296C258.461 228.532 259.021 226.922 259.021 224.598C259.021 222.26 258.461 220.664 257.551 218.886L258.181 218.41C259.455 220.146 260.169 222.344 260.169 224.598C260.169 226.852 259.455 229.064 258.181 230.786Z" fill="#50667C"/>
<path d="M118.15 253.168C115.546 253.168 114.552 250.886 114.552 248.352C114.552 245.818 115.728 243.522 118.346 243.522C119.55 243.522 120.362 243.984 120.936 244.642L120.348 245.51C119.872 244.95 119.326 244.558 118.346 244.558C116.54 244.558 115.714 246.392 115.714 248.226C115.714 248.352 115.714 248.464 115.728 248.59C116.134 247.946 117.17 247.134 118.374 247.134C120.054 247.134 121.426 248.128 121.426 250.116C121.426 251.74 120.194 253.168 118.15 253.168ZM118.108 252.132C119.55 252.132 120.25 251.054 120.25 250.158C120.25 248.786 119.298 248.142 118.094 248.142C117.17 248.142 116.274 248.716 115.756 249.542C115.868 250.704 116.484 252.132 118.108 252.132ZM123.717 253.14C123.297 253.14 122.947 252.79 122.947 252.37C122.947 251.95 123.297 251.6 123.717 251.6C124.137 251.6 124.487 251.95 124.487 252.37C124.487 252.79 124.137 253.14 123.717 253.14ZM134.9 253.168C132.366 253.168 131.092 251.67 131.092 249.374V243.662H132.254V249.346C132.254 251.054 133.178 252.132 134.9 252.132C136.622 252.132 137.546 251.054 137.546 249.346V243.662H138.708V249.36C138.708 251.684 137.434 253.168 134.9 253.168ZM142.995 253.168C141.889 253.168 140.951 252.832 140.265 252.104L140.811 251.348C141.259 251.866 142.113 252.314 143.037 252.314C144.073 252.314 144.633 251.824 144.633 251.152C144.633 249.514 140.447 250.522 140.447 248.016C140.447 246.966 141.357 246.07 142.967 246.07C144.115 246.07 144.927 246.504 145.473 247.05L144.983 247.778C144.577 247.288 143.835 246.924 142.967 246.924C142.043 246.924 141.469 247.386 141.469 247.988C141.469 249.472 145.655 248.492 145.655 251.124C145.655 252.258 144.745 253.168 142.995 253.168ZM150.413 253.168C148.411 253.168 146.969 251.726 146.969 249.612C146.969 247.652 148.369 246.07 150.301 246.07C152.345 246.07 153.549 247.666 153.549 249.696V249.962H148.075C148.159 251.236 149.055 252.3 150.511 252.3C151.281 252.3 152.065 251.992 152.597 251.446L153.101 252.132C152.429 252.804 151.519 253.168 150.413 253.168ZM152.513 249.192C152.499 248.184 151.827 246.938 150.287 246.938C148.845 246.938 148.131 248.156 148.075 249.192H152.513ZM160.203 253H159.153V247.162H158.033V246.238H159.153V245.72C159.153 244.32 159.937 243.522 161.113 243.522C161.505 243.522 161.869 243.592 162.135 243.76L161.869 244.558C161.715 244.46 161.533 244.39 161.267 244.39C160.581 244.39 160.203 244.866 160.203 245.72V246.238H161.575V247.162H160.203V253ZM163.339 245.272C162.961 245.272 162.639 244.964 162.639 244.572C162.639 244.18 162.961 243.858 163.339 243.858C163.731 243.858 164.053 244.18 164.053 244.572C164.053 244.964 163.731 245.272 163.339 245.272ZM163.871 253H162.821V246.238H163.871V253ZM167.032 253H165.982V243.662H167.032V253ZM170.834 253.168C169.84 253.168 169.336 252.594 169.336 251.586V247.162H168.216V246.238H169.336V244.39H170.386V246.238H171.758V247.162H170.386V251.362C170.386 251.866 170.61 252.23 171.072 252.23C171.366 252.23 171.646 252.104 171.786 251.95L172.094 252.734C171.828 252.986 171.45 253.168 170.834 253.168ZM176.293 253.168C174.291 253.168 172.849 251.726 172.849 249.612C172.849 247.652 174.249 246.07 176.181 246.07C178.225 246.07 179.429 247.666 179.429 249.696V249.962H173.955C174.039 251.236 174.935 252.3 176.391 252.3C177.161 252.3 177.945 251.992 178.477 251.446L178.981 252.132C178.309 252.804 177.399 253.168 176.293 253.168ZM178.393 249.192C178.379 248.184 177.707 246.938 176.167 246.938C174.725 246.938 174.011 248.156 173.955 249.192H178.393ZM182.18 253H181.13V246.238H182.18V247.33C182.726 246.616 183.51 246.098 184.434 246.098V247.176C184.308 247.148 184.182 247.134 184.014 247.134C183.37 247.134 182.488 247.666 182.18 248.212V253ZM187.893 253.168C186.787 253.168 185.849 252.832 185.163 252.104L185.709 251.348C186.157 251.866 187.011 252.314 187.935 252.314C188.971 252.314 189.531 251.824 189.531 251.152C189.531 249.514 185.345 250.522 185.345 248.016C185.345 246.966 186.255 246.07 187.865 246.07C189.013 246.07 189.825 246.504 190.371 247.05L189.881 247.778C189.475 247.288 188.733 246.924 187.865 246.924C186.941 246.924 186.367 247.386 186.367 247.988C186.367 249.472 190.553 248.492 190.553 251.124C190.553 252.258 189.643 253.168 187.893 253.168Z" fill="#50667C"/>
<path d="M9.49986 273.5H233.5V497.5H9.49986V273.5Z" fill="white" stroke="#CAD4DA"/>
<path d="M69.6731 398H68.1531L67.2091 395.616H61.8971L60.9531 398H59.4331L63.7371 387.328H65.3851L69.6731 398ZM66.8251 394.448L64.5531 388.688L62.2971 394.448H66.8251ZM77.8203 398H76.6203V396.848C76.0443 397.632 75.1003 398.192 74.0123 398.192C71.9963 398.192 70.5723 396.656 70.5723 394.144C70.5723 391.664 71.9963 390.08 74.0123 390.08C75.0523 390.08 75.9963 390.592 76.6203 391.44V387.328H77.8203V398ZM74.3163 397.12C75.2603 397.12 76.2043 396.56 76.6203 395.888V392.4C76.2043 391.728 75.2603 391.152 74.3163 391.152C72.7483 391.152 71.8203 392.432 71.8203 394.144C71.8203 395.856 72.7483 397.12 74.3163 397.12ZM90.7514 398H89.5514V392.752C89.5514 391.776 89.1354 391.152 88.1274 391.152C87.3274 391.152 86.4794 391.712 86.0794 392.336V398H84.8794V392.752C84.8794 391.776 84.4794 391.152 83.4554 391.152C82.6714 391.152 81.8394 391.728 81.4234 392.352V398H80.2234V390.272H81.4234V391.392C81.7594 390.896 82.7834 390.08 83.9354 390.08C85.1034 390.08 85.7754 390.72 85.9994 391.52C86.4314 390.816 87.4714 390.08 88.5914 390.08C89.9994 390.08 90.7514 390.864 90.7514 392.416V398ZM93.7533 389.168C93.3053 389.168 92.9373 388.816 92.9373 388.368C92.9373 387.92 93.3053 387.552 93.7533 387.552C94.2013 387.552 94.5533 387.92 94.5533 388.368C94.5533 388.816 94.2013 389.168 93.7533 389.168ZM94.3453 398H93.1453V390.272H94.3453V398ZM103.155 398H101.971V392.944C101.971 391.568 101.267 391.152 100.227 391.152C99.2831 391.152 98.4031 391.728 97.9391 392.352V398H96.7391V390.272H97.9391V391.392C98.4831 390.736 99.5391 390.08 100.707 390.08C102.307 390.08 103.155 390.896 103.155 392.576V398ZM106.175 389.168C105.727 389.168 105.359 388.816 105.359 388.368C105.359 387.92 105.727 387.552 106.175 387.552C106.623 387.552 106.975 387.92 106.975 388.368C106.975 388.816 106.623 389.168 106.175 389.168ZM106.767 398H105.567V390.272H106.767V398ZM111.625 398.192C110.345 398.192 109.289 397.792 108.505 396.976L109.113 396.112C109.625 396.704 110.601 397.216 111.657 397.216C112.841 397.216 113.497 396.656 113.497 395.888C113.497 394.016 108.713 395.168 108.713 392.304C108.713 391.088 109.737 390.08 111.577 390.08C112.905 390.08 113.833 390.576 114.441 391.2L113.881 392.032C113.417 391.472 112.585 391.056 111.577 391.056C110.521 391.056 109.865 391.584 109.865 392.272C109.865 393.952 114.649 392.848 114.649 395.856C114.649 397.152 113.609 398.192 111.625 398.192ZM118.566 398.192C117.414 398.192 116.838 397.536 116.838 396.384V391.328H115.558V390.272H116.838V388.16H118.054V390.272H119.622V391.328H118.054V396.128C118.054 396.704 118.31 397.12 118.822 397.12C119.174 397.12 119.478 396.96 119.638 396.784L119.99 397.696C119.686 397.984 119.254 398.192 118.566 398.192ZM122.502 398H121.302V390.272H122.502V391.504C123.126 390.704 124.022 390.096 125.078 390.096V391.328C124.934 391.312 124.79 391.296 124.614 391.296C123.862 391.296 122.854 391.904 122.502 392.528V398ZM132.615 398H131.415V397.12C130.791 397.824 129.895 398.192 128.855 398.192C127.559 398.192 126.167 397.312 126.167 395.632C126.167 393.888 127.543 393.088 128.855 393.088C129.911 393.088 130.791 393.424 131.415 394.128V392.736C131.415 391.712 130.583 391.12 129.463 391.12C128.535 391.12 127.783 391.44 127.095 392.192L126.535 391.36C127.367 390.496 128.359 390.08 129.623 390.08C131.271 390.08 132.615 390.816 132.615 392.688V398ZM129.303 397.328C130.135 397.328 130.951 397.008 131.415 396.368V394.896C130.951 394.272 130.135 393.952 129.303 393.952C128.167 393.952 127.383 394.656 127.383 395.632C127.383 396.624 128.167 397.328 129.303 397.328ZM138.444 398.192C136.14 398.192 134.588 396.416 134.588 394.128C134.588 391.84 136.14 390.08 138.444 390.08C139.852 390.08 140.684 390.656 141.276 391.424L140.476 392.144C139.964 391.44 139.308 391.152 138.508 391.152C136.876 391.152 135.836 392.416 135.836 394.128C135.836 395.84 136.876 397.12 138.508 397.12C139.308 397.12 139.964 396.8 140.476 396.112L141.276 396.848C140.684 397.616 139.852 398.192 138.444 398.192ZM143.581 389.168C143.133 389.168 142.765 388.816 142.765 388.368C142.765 387.92 143.133 387.552 143.581 387.552C144.029 387.552 144.381 387.92 144.381 388.368C144.381 388.816 144.029 389.168 143.581 389.168ZM144.173 398H142.973V390.272H144.173V398ZM149.943 398.192C147.591 398.192 146.119 396.368 146.119 394.128C146.119 391.888 147.591 390.08 149.943 390.08C152.295 390.08 153.767 391.888 153.767 394.128C153.767 396.368 152.295 398.192 149.943 398.192ZM149.943 397.12C151.591 397.12 152.503 395.712 152.503 394.128C152.503 392.56 151.591 391.152 149.943 391.152C148.295 391.152 147.383 392.56 147.383 394.128C147.383 395.712 148.295 397.12 149.943 397.12ZM152.503 386.8L149.799 389.104H148.887L151.255 386.8H152.503ZM162.139 398H160.955V392.944C160.955 391.568 160.251 391.152 159.211 391.152C158.267 391.152 157.387 391.728 156.923 392.352V398H155.723V390.272H156.923V391.392C157.467 390.736 158.523 390.08 159.691 390.08C161.291 390.08 162.139 390.896 162.139 392.576V398ZM175.492 398H174.292V396.848C173.716 397.632 172.772 398.192 171.684 398.192C169.668 398.192 168.244 396.656 168.244 394.144C168.244 391.664 169.668 390.08 171.684 390.08C172.724 390.08 173.668 390.592 174.292 391.44V387.328H175.492V398ZM171.988 397.12C172.932 397.12 173.876 396.56 174.292 395.888V392.4C173.876 391.728 172.932 391.152 171.988 391.152C170.42 391.152 169.492 392.432 169.492 394.144C169.492 395.856 170.42 397.12 171.988 397.12ZM181.399 398.192C179.095 398.192 177.447 396.544 177.447 394.128C177.447 391.888 179.047 390.08 181.255 390.08C183.591 390.08 184.967 391.904 184.967 394.224V394.528H178.727C178.823 395.984 179.831 397.2 181.495 397.2C182.391 397.2 183.271 396.848 183.895 396.208L184.471 396.992C183.687 397.76 182.647 398.192 181.399 398.192ZM183.783 393.632C183.767 392.496 182.999 391.072 181.239 391.072C179.591 391.072 178.775 392.464 178.711 393.632H183.783ZM76.483 419.192C74.179 419.192 72.627 417.416 72.627 415.128C72.627 412.84 74.179 411.08 76.483 411.08C77.891 411.08 78.723 411.656 79.315 412.424L78.515 413.144C78.003 412.44 77.347 412.152 76.547 412.152C74.915 412.152 73.875 413.416 73.875 415.128C73.875 416.84 74.915 418.12 76.547 418.12C77.347 418.12 78.003 417.8 78.515 417.112L79.315 417.848C78.723 418.616 77.891 419.192 76.483 419.192ZM84.3885 419.192C82.0365 419.192 80.5645 417.368 80.5645 415.128C80.5645 412.888 82.0365 411.08 84.3885 411.08C86.7405 411.08 88.2125 412.888 88.2125 415.128C88.2125 417.368 86.7405 419.192 84.3885 419.192ZM84.3885 418.12C86.0365 418.12 86.9485 416.712 86.9485 415.128C86.9485 413.56 86.0365 412.152 84.3885 412.152C82.7405 412.152 81.8285 413.56 81.8285 415.128C81.8285 416.712 82.7405 418.12 84.3885 418.12ZM100.697 419H99.4968V413.752C99.4968 412.776 99.0808 412.152 98.0728 412.152C97.2728 412.152 96.4248 412.712 96.0248 413.336V419H94.8248V413.752C94.8248 412.776 94.4248 412.152 93.4008 412.152C92.6168 412.152 91.7848 412.728 91.3688 413.352V419H90.1688V411.272H91.3688V412.392C91.7048 411.896 92.7288 411.08 93.8808 411.08C95.0488 411.08 95.7208 411.72 95.9448 412.52C96.3768 411.816 97.4167 411.08 98.5368 411.08C99.9448 411.08 100.697 411.864 100.697 413.416V419ZM106.899 419.192C105.843 419.192 104.931 418.68 104.291 417.832V421.944H103.091V411.272H104.291V412.424C104.851 411.64 105.811 411.08 106.899 411.08C108.931 411.08 110.339 412.616 110.339 415.128C110.339 417.624 108.931 419.192 106.899 419.192ZM106.595 418.12C108.147 418.12 109.075 416.84 109.075 415.128C109.075 413.416 108.147 412.152 106.595 412.152C105.651 412.152 104.707 412.712 104.291 413.384V416.872C104.707 417.544 105.651 418.12 106.595 418.12ZM113.447 419H112.247V411.272H113.447V412.504C114.071 411.704 114.967 411.096 116.023 411.096V412.328C115.879 412.312 115.735 412.296 115.559 412.296C114.807 412.296 113.799 412.904 113.447 413.528V419ZM120.904 419.192C118.552 419.192 117.08 417.368 117.08 415.128C117.08 412.888 118.552 411.08 120.904 411.08C123.256 411.08 124.728 412.888 124.728 415.128C124.728 417.368 123.256 419.192 120.904 419.192ZM120.904 418.12C122.552 418.12 123.464 416.712 123.464 415.128C123.464 413.56 122.552 412.152 120.904 412.152C119.256 412.152 118.344 413.56 118.344 415.128C118.344 416.712 119.256 418.12 120.904 418.12ZM127.884 416.904C128.3 417.576 129.244 418.12 130.204 418.12C131.756 418.12 132.684 416.856 132.684 415.144C132.684 413.432 131.756 412.152 130.204 412.152C129.244 412.152 128.3 412.728 127.884 413.4V416.904ZM127.884 419H126.684V408.328H127.884V412.44C128.508 411.592 129.452 411.08 130.492 411.08C132.524 411.08 133.932 412.664 133.932 415.144C133.932 417.656 132.508 419.192 130.492 419.192C129.404 419.192 128.46 418.632 127.884 417.848V419ZM141.92 419H140.72V418.12C140.096 418.824 139.2 419.192 138.16 419.192C136.864 419.192 135.472 418.312 135.472 416.632C135.472 414.888 136.848 414.088 138.16 414.088C139.216 414.088 140.096 414.424 140.72 415.128V413.736C140.72 412.712 139.888 412.12 138.768 412.12C137.84 412.12 137.088 412.44 136.4 413.192L135.84 412.36C136.672 411.496 137.664 411.08 138.928 411.08C140.576 411.08 141.92 411.816 141.92 413.688V419ZM138.608 418.328C139.44 418.328 140.256 418.008 140.72 417.368V415.896C140.256 415.272 139.44 414.952 138.608 414.952C137.472 414.952 136.688 415.656 136.688 416.632C136.688 417.624 137.472 418.328 138.608 418.328ZM150.757 419H149.573V413.944C149.573 412.568 148.869 412.152 147.829 412.152C146.885 412.152 146.005 412.728 145.541 413.352V419H144.341V411.272H145.541V412.392C146.085 411.736 147.141 411.08 148.309 411.08C149.909 411.08 150.757 411.896 150.757 413.576V419ZM155.137 419.192C153.985 419.192 153.409 418.536 153.409 417.384V412.328H152.129V411.272H153.409V409.16H154.625V411.272H156.193V412.328H154.625V417.128C154.625 417.704 154.881 418.12 155.393 418.12C155.745 418.12 156.049 417.96 156.209 417.784L156.561 418.696C156.257 418.984 155.825 419.192 155.137 419.192ZM161.376 419.192C159.072 419.192 157.424 417.544 157.424 415.128C157.424 412.888 159.024 411.08 161.232 411.08C163.568 411.08 164.944 412.904 164.944 415.224V415.528H158.704C158.8 416.984 159.808 418.2 161.472 418.2C162.368 418.2 163.248 417.848 163.872 417.208L164.448 417.992C163.664 418.76 162.624 419.192 161.376 419.192ZM163.76 414.632C163.744 413.496 162.976 412.072 161.216 412.072C159.568 412.072 158.752 413.464 158.688 414.632H163.76ZM169.352 419.192C168.072 419.192 167.016 418.792 166.232 417.976L166.84 417.112C167.352 417.704 168.328 418.216 169.384 418.216C170.568 418.216 171.224 417.656 171.224 416.888C171.224 415.016 166.44 416.168 166.44 413.304C166.44 412.088 167.464 411.08 169.304 411.08C170.632 411.08 171.56 411.576 172.168 412.2L171.608 413.032C171.144 412.472 170.312 412.056 169.304 412.056C168.248 412.056 167.592 412.584 167.592 413.272C167.592 414.952 172.376 413.848 172.376 416.856C172.376 418.152 171.336 419.192 169.352 419.192Z" fill="#3D454D"/>
<path d="M75.3895 474.168C72.8275 474.168 71.8195 471.606 71.8195 469.338C71.8195 467.056 72.8275 464.522 75.3895 464.522C77.9375 464.522 78.9595 467.056 78.9595 469.338C78.9595 471.606 77.9375 474.168 75.3895 474.168ZM75.3895 473.132C77.1675 473.132 77.7695 471.2 77.7695 469.338C77.7695 467.476 77.1675 465.558 75.3895 465.558C73.6115 465.558 73.0095 467.476 73.0095 469.338C73.0095 471.2 73.6115 473.132 75.3895 473.132ZM87.3328 474.168C85.3168 474.168 83.9588 472.614 83.9588 470.612C83.9588 468.61 85.3168 467.07 87.3328 467.07C88.5648 467.07 89.2928 467.574 89.8108 468.246L89.1108 468.876C88.6628 468.26 88.0888 468.008 87.3888 468.008C85.9608 468.008 85.0508 469.114 85.0508 470.612C85.0508 472.11 85.9608 473.23 87.3888 473.23C88.0888 473.23 88.6628 472.95 89.1108 472.348L89.8108 472.992C89.2928 473.664 88.5648 474.168 87.3328 474.168ZM94.2501 474.168C92.1921 474.168 90.9041 472.572 90.9041 470.612C90.9041 468.652 92.1921 467.07 94.2501 467.07C96.3081 467.07 97.5961 468.652 97.5961 470.612C97.5961 472.572 96.3081 474.168 94.2501 474.168ZM94.2501 473.23C95.6921 473.23 96.4901 471.998 96.4901 470.612C96.4901 469.24 95.6921 468.008 94.2501 468.008C92.8081 468.008 92.0101 469.24 92.0101 470.612C92.0101 471.998 92.8081 473.23 94.2501 473.23ZM108.52 474H107.47V469.408C107.47 468.554 107.106 468.008 106.224 468.008C105.524 468.008 104.782 468.498 104.432 469.044V474H103.382V469.408C103.382 468.554 103.032 468.008 102.136 468.008C101.45 468.008 100.722 468.512 100.358 469.058V474H99.3078V467.238H100.358V468.218C100.652 467.784 101.548 467.07 102.556 467.07C103.578 467.07 104.166 467.63 104.362 468.33C104.74 467.714 105.65 467.07 106.63 467.07C107.862 467.07 108.52 467.756 108.52 469.114V474ZM113.946 474.168C113.022 474.168 112.224 473.72 111.664 472.978V476.576H110.614V467.238H111.664V468.246C112.154 467.56 112.994 467.07 113.946 467.07C115.724 467.07 116.956 468.414 116.956 470.612C116.956 472.796 115.724 474.168 113.946 474.168ZM113.68 473.23C115.038 473.23 115.85 472.11 115.85 470.612C115.85 469.114 115.038 468.008 113.68 468.008C112.854 468.008 112.028 468.498 111.664 469.086V472.138C112.028 472.726 112.854 473.23 113.68 473.23ZM119.676 474H118.626V467.238H119.676V468.316C120.222 467.616 121.006 467.084 121.93 467.084V468.162C121.804 468.148 121.678 468.134 121.524 468.134C120.866 468.134 119.984 468.666 119.676 469.212V474ZM126.201 474.168C124.143 474.168 122.855 472.572 122.855 470.612C122.855 468.652 124.143 467.07 126.201 467.07C128.259 467.07 129.547 468.652 129.547 470.612C129.547 472.572 128.259 474.168 126.201 474.168ZM126.201 473.23C127.643 473.23 128.441 471.998 128.441 470.612C128.441 469.24 127.643 468.008 126.201 468.008C124.759 468.008 123.961 469.24 123.961 470.612C123.961 471.998 124.759 473.23 126.201 473.23ZM132.309 472.166C132.673 472.754 133.499 473.23 134.339 473.23C135.697 473.23 136.509 472.124 136.509 470.626C136.509 469.128 135.697 468.008 134.339 468.008C133.499 468.008 132.673 468.512 132.309 469.1V472.166ZM132.309 474H131.259V464.662H132.309V468.26C132.855 467.518 133.681 467.07 134.591 467.07C136.369 467.07 137.601 468.456 137.601 470.626C137.601 472.824 136.355 474.168 134.591 474.168C133.639 474.168 132.813 473.678 132.309 472.992V474ZM144.59 474H143.54V473.23C142.994 473.846 142.21 474.168 141.3 474.168C140.166 474.168 138.948 473.398 138.948 471.928C138.948 470.402 140.152 469.702 141.3 469.702C142.224 469.702 142.994 469.996 143.54 470.612V469.394C143.54 468.498 142.812 467.98 141.832 467.98C141.02 467.98 140.362 468.26 139.76 468.918L139.27 468.19C139.998 467.434 140.866 467.07 141.972 467.07C143.414 467.07 144.59 467.714 144.59 469.352V474ZM141.692 473.412C142.42 473.412 143.134 473.132 143.54 472.572V471.284C143.134 470.738 142.42 470.458 141.692 470.458C140.698 470.458 140.012 471.074 140.012 471.928C140.012 472.796 140.698 473.412 141.692 473.412ZM152.322 474H151.286V469.576C151.286 468.372 150.67 468.008 149.76 468.008C148.934 468.008 148.164 468.512 147.758 469.058V474H146.708V467.238H147.758V468.218C148.234 467.644 149.158 467.07 150.18 467.07C151.58 467.07 152.322 467.784 152.322 469.254V474ZM156.155 474.168C155.147 474.168 154.643 473.594 154.643 472.586V468.162H153.523V467.238H154.643V465.39H155.707V467.238H157.079V468.162H155.707V472.362C155.707 472.866 155.931 473.23 156.379 473.23C156.687 473.23 156.953 473.09 157.093 472.936L157.401 473.734C157.135 473.986 156.757 474.168 156.155 474.168ZM161.614 474.168C159.598 474.168 158.156 472.726 158.156 470.612C158.156 468.652 159.556 467.07 161.488 467.07C163.532 467.07 164.736 468.666 164.736 470.696V470.962H159.276C159.36 472.236 160.242 473.3 161.698 473.3C162.482 473.3 163.252 472.992 163.798 472.432L164.302 473.118C163.616 473.79 162.706 474.168 161.614 474.168ZM163.7 470.178C163.686 469.184 163.014 467.938 161.474 467.938C160.032 467.938 159.318 469.156 159.262 470.178H163.7ZM168.593 474.168C167.473 474.168 166.549 473.818 165.863 473.104L166.395 472.348C166.843 472.866 167.697 473.314 168.621 473.314C169.657 473.314 170.231 472.824 170.231 472.152C170.231 470.514 166.045 471.522 166.045 469.016C166.045 467.952 166.941 467.07 168.551 467.07C169.713 467.07 170.525 467.504 171.057 468.05L170.567 468.778C170.161 468.288 169.433 467.924 168.551 467.924C167.627 467.924 167.053 468.386 167.053 468.988C167.053 470.458 171.239 469.492 171.239 472.124C171.239 473.258 170.329 474.168 168.593 474.168Z" fill="#50667C"/>
<path fill-rule="evenodd" clip-rule="evenodd" d="M142 324V328.999H144V321.999H112V315.998L98 315.995L98.0003 328.999H100V317.999H110V321.999H106V328.999H108V324H142ZM148 331.999H98.0003L102 365.999H144L148 331.999ZM146 333.998H100L104 363.999H142L146 333.998ZM110 341.998H136V343.997H110V341.998Z" fill="#03D8FF"/>
<path fill-rule="evenodd" clip-rule="evenodd" d="M142 324V328.999H144V321.999H112V315.998L98 315.995L98.0003 328.999H100V317.999H110V321.999H106V328.999H108V324H142ZM148 331.999H98.0003L102 365.999H144L148 331.999ZM146 333.998H100L104 363.999H142L146 333.998ZM110 341.998H136V343.997H110V341.998Z" fill="url(#paint1_linear_402_9788)"/>
<path opacity="0.7" fill-rule="evenodd" clip-rule="evenodd" d="M211.538 293.077H210.985C210.731 293.077 210.461 292.879 210.386 292.637L210.068 291.864C209.949 291.64 209.997 291.31 210.176 291.132L210.569 290.739C210.749 290.559 210.749 290.266 210.569 290.086L209.916 289.433C209.737 289.254 209.443 289.254 209.263 289.433L208.869 289.826C208.691 290.005 208.36 290.054 208.137 289.934L207.365 289.616C207.123 289.54 206.925 289.272 206.925 289.018V288.464C206.925 288.21 206.717 288.002 206.462 288.002H205.54C205.285 288.002 205.077 288.21 205.077 288.464V289.018C205.077 289.272 204.88 289.54 204.637 289.616L203.865 289.934C203.641 290.054 203.312 290.006 203.132 289.826L202.739 289.433C202.559 289.254 202.266 289.254 202.086 289.433L201.434 290.086C201.254 290.264 201.254 290.559 201.434 290.738L201.826 291.132C202.005 291.31 202.055 291.64 201.934 291.864L201.617 292.637C201.541 292.88 201.272 293.078 201.018 293.078L200.464 293.077C200.21 293.077 200.002 293.285 200.002 293.539V294.462C200.002 294.715 200.21 294.924 200.464 294.924H201.018C201.272 294.924 201.541 295.122 201.616 295.364L201.934 296.137C202.055 296.362 202.005 296.692 201.826 296.87L201.433 297.263C201.254 297.443 201.254 297.735 201.433 297.916L202.086 298.569C202.266 298.749 202.559 298.749 202.739 298.569L203.132 298.176C203.311 297.998 203.641 297.949 203.863 298.069L204.637 298.387C204.88 298.463 205.077 298.732 205.077 298.986V299.538C205.077 299.791 205.285 299.999 205.54 299.999H206.462C206.717 299.999 206.925 299.791 206.925 299.538V298.986C206.925 298.732 207.123 298.463 207.365 298.387L208.138 298.069C208.362 297.949 208.692 297.998 208.873 298.176L209.263 298.569C209.443 298.749 209.737 298.749 209.916 298.569L210.569 297.916C210.749 297.735 210.749 297.443 210.569 297.263L210.176 296.87C209.997 296.692 209.949 296.362 210.068 296.137L210.386 295.364C210.461 295.122 210.732 294.924 210.985 294.924H211.538C211.792 294.924 211.999 294.716 211.999 294.463V293.539C211.999 293.285 211.792 293.077 211.538 293.077ZM208.497 293.999C208.497 295.378 207.38 296.494 206.002 296.494C204.624 296.494 203.507 295.378 203.507 293.999C203.507 292.622 204.624 291.506 206.002 291.506C207.38 291.506 208.497 292.622 208.497 293.999Z" fill="#727272"/>
<path opacity="0.5" fill-rule="evenodd" clip-rule="evenodd" d="M219.996 293L217.5 295.995L215.005 293H219.996Z" fill="#A2A2A2"/>
<defs>
<linearGradient id="paint0_linear_402_9788" x1="296" y1="13" x2="296" y2="1" gradientUnits="userSpaceOnUse">
<stop stop-color="#EEEEEE"/>
<stop offset="1" stop-color="#ECECEC"/>
<stop offset="2" stop-color="#F4F4F4"/>
<stop offset="3" stop-color="white"/>
</linearGradient>
<linearGradient id="paint1_linear_402_9788" x1="123" y1="391.002" x2="173.005" y2="341.001" gradientUnits="userSpaceOnUse">
<stop stop-color="#3F89D6"/>
<stop offset="1" stop-color="#00BDD5"/>
</linearGradient>
</defs>
</svg>
