<svg width="335" height="460" viewBox="0 0 335 460" fill="none" xmlns="http://www.w3.org/2000/svg">
<mask id="path-1-outside-1_402_9788" maskUnits="userSpaceOnUse" x="34" y="0" width="263" height="14" fill="black">
<rect fill="white" x="34" width="263" height="14"/>
<path fill-rule="evenodd" clip-rule="evenodd" d="M46.917 8C46.441 10.8377 43.973 13 41 13C37.6863 13 35 10.3137 35 7C35 3.68629 37.6863 1 41 1C43.6124 1 45.8349 2.66962 46.6586 5H117.341C118.165 2.66962 120.388 1 123 1C125.612 1 127.835 2.66962 128.659 5H199.341C200.165 2.66962 202.388 1 205 1C207.612 1 209.835 2.66962 210.659 5H284.341C285.165 2.66962 287.388 1 290 1C293.314 1 296 3.68629 296 7C296 10.3137 293.314 13 290 13C287.027 13 284.559 10.8377 284.083 8H210.917C210.441 10.8377 207.973 13 205 13C202.027 13 199.559 10.8377 199.083 8H128.917C128.441 10.8377 125.973 13 123 13C120.027 13 117.559 10.8377 117.083 8H46.917Z"/>
</mask>
<path fill-rule="evenodd" clip-rule="evenodd" d="M46.917 8C46.441 10.8377 43.973 13 41 13C37.6863 13 35 10.3137 35 7C35 3.68629 37.6863 1 41 1C43.6124 1 45.8349 2.66962 46.6586 5H117.341C118.165 2.66962 120.388 1 123 1C125.612 1 127.835 2.66962 128.659 5H199.341C200.165 2.66962 202.388 1 205 1C207.612 1 209.835 2.66962 210.659 5H284.341C285.165 2.66962 287.388 1 290 1C293.314 1 296 3.68629 296 7C296 10.3137 293.314 13 290 13C287.027 13 284.559 10.8377 284.083 8H210.917C210.441 10.8377 207.973 13 205 13C202.027 13 199.559 10.8377 199.083 8H128.917C128.441 10.8377 125.973 13 123 13C120.027 13 117.559 10.8377 117.083 8H46.917Z" fill="url(#paint0_linear_402_9788)"/>
<path d="M46.917 8V7H46.0708L45.9308 7.83454L46.917 8ZM46.6586 5L45.7157 5.33325L45.9514 6H46.6586V5ZM117.341 5V6H118.049L118.284 5.33325L117.341 5ZM128.659 5L127.716 5.33325L127.951 6H128.659V5ZM199.341 5V6H200.049L200.284 5.33324L199.341 5ZM210.659 5L209.716 5.33324L209.951 6H210.659V5ZM284.341 5V6H285.049L285.284 5.33324L284.341 5ZM284.083 8L285.069 7.83455L284.929 7H284.083V8ZM210.917 8V7H210.071L209.931 7.83455L210.917 8ZM199.083 8L200.069 7.83455L199.929 7H199.083V8ZM128.917 8V7H128.071L127.931 7.83454L128.917 8ZM117.083 8L118.069 7.83454L117.929 7H117.083V8ZM41 14C44.4695 14 47.3477 11.4769 47.9033 8.16546L45.9308 7.83454C45.5342 10.1985 43.4765 12 41 12V14ZM34 7C34 10.866 37.134 14 41 14V12C38.2386 12 36 9.76142 36 7H34ZM41 0C37.134 0 34 3.13401 34 7H36C36 4.23858 38.2386 2 41 2V0ZM47.6014 4.66675C46.641 1.94932 44.0494 0 41 0V2C43.1755 2 45.0289 3.38991 45.7157 5.33325L47.6014 4.66675ZM46.6586 6H117.341V4H46.6586V6ZM123 0C119.951 0 117.359 1.94932 116.399 4.66675L118.284 5.33325C118.971 3.38991 120.825 2 123 2V0ZM129.601 4.66675C128.641 1.94932 126.049 0 123 0V2C125.175 2 127.029 3.38991 127.716 5.33325L129.601 4.66675ZM128.659 6H199.341V4H128.659V6ZM200.284 5.33324C200.971 3.38991 202.825 2 205 2V0C201.951 0 199.359 1.94932 198.399 4.66676L200.284 5.33324ZM205 2C207.175 2 209.029 3.38991 209.716 5.33324L211.601 4.66676C210.641 1.94932 208.049 0 205 0V2ZM210.659 6H284.341V4H210.659V6ZM290 0C286.951 0 284.359 1.94932 283.399 4.66676L285.284 5.33324C285.971 3.38991 287.825 2 290 2V0ZM297 7C297 3.13401 293.866 0 290 0V2C292.761 2 295 4.23857 295 7H297ZM290 14C293.866 14 297 10.866 297 7H295C295 9.76142 292.761 12 290 12V14ZM283.097 8.16545C283.652 11.4769 286.531 14 290 14V12C287.523 12 285.466 10.1985 285.069 7.83455L283.097 8.16545ZM284.083 7H210.917V9H284.083V7ZM209.931 7.83455C209.534 10.1985 207.477 12 205 12V14C208.469 14 211.348 11.4769 211.903 8.16545L209.931 7.83455ZM205 12C202.523 12 200.466 10.1985 200.069 7.83455L198.097 8.16545C198.652 11.4769 201.531 14 205 14V12ZM199.083 7H128.917V9H199.083V7ZM123 14C126.469 14 129.348 11.4769 129.903 8.16546L127.931 7.83454C127.534 10.1985 125.476 12 123 12V14ZM116.097 8.16546C116.652 11.4769 119.531 14 123 14V12C120.524 12 118.466 10.1985 118.069 7.83454L116.097 8.16546ZM117.083 7H46.917V9H117.083V7Z" fill="#DDDEDE" mask="url(#path-1-outside-1_402_9788)"/>
<rect x="41" y="5" width="158" height="3" fill="#3FBF5B"/>
<circle cx="41" cy="7" r="6" fill="#3FBF5B"/>
<circle cx="123" cy="7" r="6" fill="#3FBF5B"/>
<circle cx="205" cy="7" r="4" fill="#3FBF5B"/>
<path d="M25.8465 40.168C24.2225 40.168 23.0325 39.552 22.2625 38.684L22.9485 37.802C23.5645 38.488 24.5725 39.132 25.8885 39.132C27.5545 39.132 28.0865 38.236 28.0865 37.522C28.0865 35.114 22.5565 36.444 22.5565 33.112C22.5565 31.572 23.9285 30.522 25.7625 30.522C27.1905 30.522 28.2965 30.998 29.0805 31.824L28.3805 32.678C27.6805 31.908 26.7005 31.558 25.6785 31.558C24.5585 31.558 23.7605 32.16 23.7605 33.042C23.7605 35.142 29.2905 33.938 29.2905 37.424C29.2905 38.782 28.3665 40.168 25.8465 40.168ZM34.0356 40.168C32.0336 40.168 30.5916 38.726 30.5916 36.612C30.5916 34.652 31.9916 33.07 33.9236 33.07C35.9676 33.07 37.1716 34.666 37.1716 36.696V36.962H31.6976C31.7816 38.236 32.6776 39.3 34.1336 39.3C34.9036 39.3 35.6876 38.992 36.2196 38.446L36.7236 39.132C36.0516 39.804 35.1416 40.168 34.0356 40.168ZM36.1356 36.192C36.1216 35.184 35.4496 33.938 33.9096 33.938C32.4676 33.938 31.7536 35.156 31.6976 36.192H36.1356ZM40.5803 40.168C39.5863 40.168 39.0823 39.594 39.0823 38.586V34.162H37.9623V33.238H39.0823V31.39H40.1323V33.238H41.5043V34.162H40.1323V38.362C40.1323 38.866 40.3563 39.23 40.8183 39.23C41.1123 39.23 41.3923 39.104 41.5323 38.95L41.8403 39.734C41.5743 39.986 41.1963 40.168 40.5803 40.168ZM52.2109 40H51.1609V39.048C50.6429 39.636 49.7609 40.168 48.7529 40.168C47.3389 40.168 46.5969 39.482 46.5969 38.012V33.238H47.6469V37.69C47.6469 38.88 48.2489 39.23 49.1589 39.23C49.9849 39.23 50.7689 38.754 51.1609 38.208V33.238H52.2109V40ZM57.6398 40.168C56.7158 40.168 55.9038 39.734 55.3578 38.978V42.576H54.3078V33.238H55.3578V34.246C55.8478 33.56 56.6878 33.07 57.6398 33.07C59.4178 33.07 60.6498 34.414 60.6498 36.612C60.6498 38.796 59.4178 40.168 57.6398 40.168ZM57.3738 39.23C58.7318 39.23 59.5438 38.11 59.5438 36.612C59.5438 35.114 58.7318 34.008 57.3738 34.008C56.5478 34.008 55.7218 34.498 55.3578 35.086V38.138C55.7218 38.726 56.5478 39.23 57.3738 39.23ZM23.4305 58H22.3805V57.23C21.8205 57.846 21.0505 58.168 20.1405 58.168C18.9925 58.168 17.7745 57.398 17.7745 55.928C17.7745 54.416 18.9925 53.702 20.1405 53.702C21.0645 53.702 21.8345 53.996 22.3805 54.626V53.408C22.3805 52.498 21.6525 51.98 20.6725 51.98C19.8605 51.98 19.2025 52.274 18.6005 52.918L18.1105 52.19C18.8385 51.434 19.7065 51.07 20.8125 51.07C22.2405 51.07 23.4305 51.714 23.4305 53.352V58ZM20.5185 57.412C21.2605 57.412 21.9745 57.132 22.3805 56.572V55.298C21.9745 54.738 21.2605 54.458 20.5185 54.458C19.5385 54.458 18.8525 55.074 18.8525 55.942C18.8525 56.796 19.5385 57.412 20.5185 57.412ZM28.5174 58.168C26.5014 58.168 25.1434 56.628 25.1434 54.612C25.1434 52.61 26.5014 51.07 28.5174 51.07C29.7494 51.07 30.4774 51.574 30.9954 52.246L30.2954 52.89C29.8474 52.274 29.2734 52.008 28.5734 52.008C27.1314 52.008 26.2354 53.114 26.2354 54.612C26.2354 56.11 27.1314 57.23 28.5734 57.23C29.2734 57.23 29.8474 56.95 30.2954 56.348L30.9954 56.992C30.4774 57.664 29.7494 58.168 28.5174 58.168ZM35.449 58.168C33.433 58.168 32.075 56.628 32.075 54.612C32.075 52.61 33.433 51.07 35.449 51.07C36.681 51.07 37.409 51.574 37.927 52.246L37.227 52.89C36.779 52.274 36.205 52.008 35.505 52.008C34.063 52.008 33.167 53.114 33.167 54.612C33.167 56.11 34.063 57.23 35.505 57.23C36.205 57.23 36.779 56.95 37.227 56.348L37.927 56.992C37.409 57.664 36.681 58.168 35.449 58.168ZM42.3526 58.168C40.2946 58.168 39.0066 56.572 39.0066 54.612C39.0066 52.652 40.2946 51.07 42.3526 51.07C44.4106 51.07 45.6986 52.652 45.6986 54.612C45.6986 56.572 44.4106 58.168 42.3526 58.168ZM42.3526 57.23C43.7946 57.23 44.5926 55.998 44.5926 54.612C44.5926 53.24 43.7946 52.008 42.3526 52.008C40.9106 52.008 40.0986 53.24 40.0986 54.612C40.0986 55.998 40.9106 57.23 42.3526 57.23ZM53.0244 58H51.9744V57.048C51.4564 57.636 50.5744 58.168 49.5664 58.168C48.1524 58.168 47.4104 57.482 47.4104 56.012V51.238H48.4604V55.69C48.4604 56.88 49.0624 57.23 49.9724 57.23C50.7984 57.23 51.5824 56.754 51.9744 56.208V51.238H53.0244V58ZM60.7353 58H59.6853V53.576C59.6853 52.386 59.0833 52.008 58.1733 52.008C57.3473 52.008 56.5633 52.512 56.1713 53.058V58H55.1213V51.238H56.1713V52.218C56.6473 51.658 57.5713 51.07 58.5793 51.07C59.9933 51.07 60.7353 51.784 60.7353 53.254V58ZM64.5402 58.168C63.5462 58.168 63.0422 57.594 63.0422 56.586V52.162H61.9222V51.238H63.0422V49.39H64.0922V51.238H65.4642V52.162H64.0922V56.362C64.0922 56.866 64.3162 57.23 64.7782 57.23C65.0722 57.23 65.3522 57.104 65.4922 56.95L65.8002 57.734C65.5342 57.986 65.1562 58.168 64.5402 58.168Z" fill="#CCCCCC"/>
<path d="M101.278 40.182C98.6177 40.182 96.4757 38.236 96.4757 35.338C96.4757 32.44 98.6177 30.508 101.278 30.508C102.93 30.508 104.078 31.236 104.904 32.258L103.98 32.832C103.392 32.076 102.398 31.544 101.278 31.544C99.2337 31.544 97.6797 33.112 97.6797 35.338C97.6797 37.55 99.2337 39.146 101.278 39.146C102.398 39.146 103.322 38.6 103.784 38.138V36.234H100.578V35.198H104.946V38.572C104.078 39.538 102.804 40.182 101.278 40.182ZM109.844 40.168C107.842 40.168 106.4 38.726 106.4 36.612C106.4 34.652 107.8 33.07 109.732 33.07C111.776 33.07 112.98 34.666 112.98 36.696V36.962H107.506C107.59 38.236 108.486 39.3 109.942 39.3C110.712 39.3 111.496 38.992 112.028 38.446L112.532 39.132C111.86 39.804 110.95 40.168 109.844 40.168ZM111.944 36.192C111.93 35.184 111.258 33.938 109.718 33.938C108.276 33.938 107.562 35.156 107.506 36.192H111.944ZM120.295 40H119.245V35.576C119.245 34.386 118.643 34.008 117.733 34.008C116.907 34.008 116.123 34.512 115.731 35.058V40H114.681V33.238H115.731V34.218C116.207 33.658 117.131 33.07 118.139 33.07C119.553 33.07 120.295 33.784 120.295 35.254V40ZM125.444 40.168C123.442 40.168 122 38.726 122 36.612C122 34.652 123.4 33.07 125.332 33.07C127.376 33.07 128.58 34.666 128.58 36.696V36.962H123.106C123.19 38.236 124.086 39.3 125.542 39.3C126.312 39.3 127.096 38.992 127.628 38.446L128.132 39.132C127.46 39.804 126.55 40.168 125.444 40.168ZM127.544 36.192C127.53 35.184 126.858 33.938 125.318 33.938C123.876 33.938 123.162 35.156 123.106 36.192H127.544ZM131.33 40H130.28V33.238H131.33V34.33C131.876 33.616 132.66 33.098 133.584 33.098V34.176C133.458 34.148 133.332 34.134 133.164 34.134C132.52 34.134 131.638 34.666 131.33 35.212V40ZM140.18 40H139.13V39.23C138.57 39.846 137.8 40.168 136.89 40.168C135.742 40.168 134.524 39.398 134.524 37.928C134.524 36.416 135.742 35.702 136.89 35.702C137.814 35.702 138.584 35.996 139.13 36.626V35.408C139.13 34.498 138.402 33.98 137.422 33.98C136.61 33.98 135.952 34.274 135.35 34.918L134.86 34.19C135.588 33.434 136.456 33.07 137.562 33.07C138.99 33.07 140.18 33.714 140.18 35.352V40ZM137.268 39.412C138.01 39.412 138.724 39.132 139.13 38.572V37.298C138.724 36.738 138.01 36.458 137.268 36.458C136.288 36.458 135.602 37.074 135.602 37.942C135.602 38.796 136.288 39.412 137.268 39.412ZM143.992 40.168C142.998 40.168 142.494 39.594 142.494 38.586V34.162H141.374V33.238H142.494V31.39H143.544V33.238H144.916V34.162H143.544V38.362C143.544 38.866 143.768 39.23 144.23 39.23C144.524 39.23 144.804 39.104 144.944 38.95L145.252 39.734C144.986 39.986 144.608 40.168 143.992 40.168ZM149.452 40.168C147.45 40.168 146.008 38.726 146.008 36.612C146.008 34.652 147.408 33.07 149.34 33.07C151.384 33.07 152.588 34.666 152.588 36.696V36.962H147.114C147.198 38.236 148.094 39.3 149.55 39.3C150.32 39.3 151.104 38.992 151.636 38.446L152.14 39.132C151.468 39.804 150.558 40.168 149.452 40.168ZM151.552 36.192C151.538 35.184 150.866 33.938 149.326 33.938C147.884 33.938 147.17 35.156 147.114 36.192H151.552ZM104.22 50.272C103.842 50.272 103.52 49.964 103.52 49.572C103.52 49.18 103.842 48.858 104.22 48.858C104.612 48.858 104.934 49.18 104.934 49.572C104.934 49.964 104.612 50.272 104.22 50.272ZM104.752 58H103.702V51.238H104.752V58ZM112.461 58H111.411V53.576C111.411 52.386 110.809 52.008 109.899 52.008C109.073 52.008 108.289 52.512 107.897 53.058V58H106.847V51.238H107.897V52.218C108.373 51.658 109.297 51.07 110.305 51.07C111.719 51.07 112.461 51.784 112.461 53.254V58ZM117.512 58H116.364L113.55 51.238H114.684L116.938 56.782L119.178 51.238H120.326L117.512 58ZM124.375 58.168C122.317 58.168 121.029 56.572 121.029 54.612C121.029 52.652 122.317 51.07 124.375 51.07C126.433 51.07 127.721 52.652 127.721 54.612C127.721 56.572 126.433 58.168 124.375 58.168ZM124.375 57.23C125.817 57.23 126.615 55.998 126.615 54.612C126.615 53.24 125.817 52.008 124.375 52.008C122.933 52.008 122.121 53.24 122.121 54.612C122.121 55.998 122.933 57.23 124.375 57.23ZM129.951 50.272C129.573 50.272 129.251 49.964 129.251 49.572C129.251 49.18 129.573 48.858 129.951 48.858C130.343 48.858 130.665 49.18 130.665 49.572C130.665 49.964 130.343 50.272 129.951 50.272ZM130.483 58H129.433V51.238H130.483V58ZM135.559 58.168C133.543 58.168 132.185 56.628 132.185 54.612C132.185 52.61 133.543 51.07 135.559 51.07C136.791 51.07 137.519 51.574 138.037 52.246L137.337 52.89C136.889 52.274 136.315 52.008 135.615 52.008C134.173 52.008 133.277 53.114 133.277 54.612C133.277 56.11 134.173 57.23 135.615 57.23C136.315 57.23 136.889 56.95 137.337 56.348L138.037 56.992C137.519 57.664 136.791 58.168 135.559 58.168ZM142.561 58.168C140.559 58.168 139.117 56.726 139.117 54.612C139.117 52.652 140.517 51.07 142.449 51.07C144.493 51.07 145.697 52.666 145.697 54.696V54.962H140.223C140.307 56.236 141.203 57.3 142.659 57.3C143.429 57.3 144.213 56.992 144.745 56.446L145.249 57.132C144.577 57.804 143.667 58.168 142.561 58.168ZM144.661 54.192C144.647 53.184 143.975 51.938 142.435 51.938C140.993 51.938 140.279 53.156 140.223 54.192H144.661Z" fill="#CCCCCC"/>
<path d="M194.258 40H192.928L192.102 37.928H187.454L186.628 40H185.298L189.05 30.662H190.492L194.258 40ZM191.752 36.892L189.778 31.866L187.79 36.892H191.752ZM201.387 40H200.337V38.992C199.833 39.678 199.007 40.168 198.055 40.168C196.291 40.168 195.045 38.824 195.045 36.626C195.045 34.47 196.277 33.07 198.055 33.07C198.965 33.07 199.791 33.518 200.337 34.26V30.662H201.387V40ZM198.307 39.23C199.147 39.23 199.959 38.754 200.337 38.166V35.1C199.959 34.512 199.147 34.008 198.307 34.008C196.949 34.008 196.137 35.128 196.137 36.626C196.137 38.124 196.949 39.23 198.307 39.23ZM212.701 40H211.651V35.408C211.651 34.554 211.273 34.008 210.405 34.008C209.705 34.008 208.963 34.512 208.613 35.044V40H207.563V35.408C207.563 34.554 207.199 34.008 206.317 34.008C205.631 34.008 204.903 34.512 204.539 35.058V40H203.489V33.238H204.539V34.218C204.819 33.784 205.729 33.07 206.723 33.07C207.759 33.07 208.347 33.63 208.543 34.33C208.921 33.714 209.831 33.07 210.811 33.07C212.043 33.07 212.701 33.756 212.701 35.114V40ZM215.314 32.272C214.936 32.272 214.614 31.964 214.614 31.572C214.614 31.18 214.936 30.858 215.314 30.858C215.706 30.858 216.028 31.18 216.028 31.572C216.028 31.964 215.706 32.272 215.314 32.272ZM215.846 40H214.796V33.238H215.846V40ZM223.555 40H222.505V35.576C222.505 34.386 221.903 34.008 220.993 34.008C220.167 34.008 219.383 34.512 218.991 35.058V40H217.941V33.238H218.991V34.218C219.467 33.658 220.391 33.07 221.399 33.07C222.813 33.07 223.555 33.784 223.555 35.254V40ZM226.212 40.14C225.792 40.14 225.442 39.79 225.442 39.37C225.442 38.95 225.792 38.6 226.212 38.6C226.632 38.6 226.982 38.95 226.982 39.37C226.982 39.79 226.632 40.14 226.212 40.14Z" fill="#50667C"/>
<path d="M265.815 40H264.653V32.314L261.475 40H260.999L257.835 32.314V40H256.673V30.662H258.339L261.237 37.69L264.149 30.662H265.815V40ZM273.229 40H272.179V39.23C271.619 39.846 270.849 40.168 269.939 40.168C268.791 40.168 267.573 39.398 267.573 37.928C267.573 36.416 268.791 35.702 269.939 35.702C270.863 35.702 271.633 35.996 272.179 36.626V35.408C272.179 34.498 271.451 33.98 270.471 33.98C269.659 33.98 269.001 34.274 268.399 34.918L267.909 34.19C268.637 33.434 269.505 33.07 270.611 33.07C272.039 33.07 273.229 33.714 273.229 35.352V40ZM270.317 39.412C271.059 39.412 271.773 39.132 272.179 38.572V37.298C271.773 36.738 271.059 36.458 270.317 36.458C269.337 36.458 268.651 37.074 268.651 37.942C268.651 38.796 269.337 39.412 270.317 39.412ZM276.384 40H275.334V33.238H276.384V34.33C276.93 33.616 277.714 33.098 278.638 33.098V34.176C278.512 34.148 278.386 34.134 278.218 34.134C277.574 34.134 276.692 34.666 276.384 35.212V40ZM285.905 40H284.561L282.125 36.962L281.005 38.068V40H279.955V30.662H281.005V36.836L284.561 33.238H285.891L282.895 36.304L285.905 40ZM290.158 40.168C288.156 40.168 286.714 38.726 286.714 36.612C286.714 34.652 288.114 33.07 290.046 33.07C292.09 33.07 293.294 34.666 293.294 36.696V36.962H287.82C287.904 38.236 288.8 39.3 290.256 39.3C291.026 39.3 291.81 38.992 292.342 38.446L292.846 39.132C292.174 39.804 291.264 40.168 290.158 40.168ZM292.258 36.192C292.244 35.184 291.572 33.938 290.032 33.938C288.59 33.938 287.876 35.156 287.82 36.192H292.258ZM296.702 40.168C295.708 40.168 295.204 39.594 295.204 38.586V34.162H294.084V33.238H295.204V31.39H296.254V33.238H297.626V34.162H296.254V38.362C296.254 38.866 296.478 39.23 296.94 39.23C297.234 39.23 297.514 39.104 297.654 38.95L297.962 39.734C297.696 39.986 297.318 40.168 296.702 40.168ZM302.442 40.168C301.518 40.168 300.706 39.734 300.16 38.978V42.576H299.11V33.238H300.16V34.246C300.65 33.56 301.49 33.07 302.442 33.07C304.22 33.07 305.452 34.414 305.452 36.612C305.452 38.796 304.22 40.168 302.442 40.168ZM302.176 39.23C303.534 39.23 304.346 38.11 304.346 36.612C304.346 35.114 303.534 34.008 302.176 34.008C301.35 34.008 300.524 34.498 300.16 35.086V38.138C300.524 38.726 301.35 39.23 302.176 39.23ZM308.171 40H307.121V30.662H308.171V40ZM315.544 40H314.494V39.23C313.934 39.846 313.164 40.168 312.254 40.168C311.106 40.168 309.888 39.398 309.888 37.928C309.888 36.416 311.106 35.702 312.254 35.702C313.178 35.702 313.948 35.996 314.494 36.626V35.408C314.494 34.498 313.766 33.98 312.786 33.98C311.974 33.98 311.316 34.274 310.714 34.918L310.224 34.19C310.952 33.434 311.82 33.07 312.926 33.07C314.354 33.07 315.544 33.714 315.544 35.352V40ZM312.632 39.412C313.374 39.412 314.088 39.132 314.494 38.572V37.298C314.088 36.738 313.374 36.458 312.632 36.458C311.652 36.458 310.966 37.074 310.966 37.942C310.966 38.796 311.652 39.412 312.632 39.412ZM320.631 40.168C318.615 40.168 317.257 38.628 317.257 36.612C317.257 34.61 318.615 33.07 320.631 33.07C321.863 33.07 322.591 33.574 323.109 34.246L322.409 34.89C321.961 34.274 321.387 34.008 320.687 34.008C319.245 34.008 318.349 35.114 318.349 36.612C318.349 38.11 319.245 39.23 320.687 39.23C321.387 39.23 321.961 38.95 322.409 38.348L323.109 38.992C322.591 39.664 321.863 40.168 320.631 40.168ZM327.632 40.168C325.63 40.168 324.188 38.726 324.188 36.612C324.188 34.652 325.588 33.07 327.52 33.07C329.564 33.07 330.768 34.666 330.768 36.696V36.962H325.294C325.378 38.236 326.274 39.3 327.73 39.3C328.5 39.3 329.284 38.992 329.816 38.446L330.32 39.132C329.648 39.804 328.738 40.168 327.632 40.168ZM329.732 36.192C329.718 35.184 329.046 33.938 327.506 33.938C326.064 33.938 325.35 35.156 325.294 36.192H329.732Z" fill="#CCCCCC"/>
<path fill-rule="evenodd" clip-rule="evenodd" d="M120.006 23.9999L123.5 20.0068L126.994 23.9999H120.006Z" fill="#3FBF5B"/>
<line x1="44.5" y1="70" x2="44.5" y2="199" stroke="#CCCCCC" stroke-dasharray="2 2"/>
<line x1="97" y1="123.5" x2="44" y2="123.5" stroke="#CCCCCC" stroke-dasharray="2 2"/>
<line x1="44" y1="69.5" x2="204" y2="69.5" stroke="#CCCCCC" stroke-dasharray="2 2"/>
<line x1="97" y1="149.5" x2="44" y2="149.5" stroke="#CCCCCC" stroke-dasharray="2 2"/>
<line x1="97" y1="174.5" x2="44" y2="174.5" stroke="#CCCCCC" stroke-dasharray="2 2"/>
<line x1="97" y1="199.5" x2="44" y2="199.5" stroke="#CCCCCC" stroke-dasharray="2 2"/>
<path d="M119.27 128H118.108V120.202L116.61 121.784L115.91 121.07L118.248 118.662H119.27V128ZM123.717 128.14C123.297 128.14 122.947 127.79 122.947 127.37C122.947 126.95 123.297 126.6 123.717 126.6C124.137 126.6 124.487 126.95 124.487 127.37C124.487 127.79 124.137 128.14 123.717 128.14ZM135.516 128.168C132.828 128.168 130.714 126.208 130.714 123.338C130.714 120.468 132.828 118.508 135.516 118.508C137.168 118.508 138.316 119.306 139.058 120.356L138.078 120.902C137.546 120.118 136.58 119.544 135.516 119.544C133.472 119.544 131.918 121.112 131.918 123.338C131.918 125.55 133.472 127.132 135.516 127.132C136.58 127.132 137.546 126.572 138.078 125.774L139.072 126.32C138.288 127.384 137.168 128.168 135.516 128.168ZM146.139 128H145.089V123.548C145.089 122.358 144.473 122.008 143.563 122.008C142.751 122.008 141.967 122.512 141.561 123.058V128H140.511V118.662H141.561V122.218C142.037 121.658 142.961 121.07 143.983 121.07C145.397 121.07 146.139 121.756 146.139 123.226V128ZM151.19 128.168C149.132 128.168 147.844 126.572 147.844 124.612C147.844 122.652 149.132 121.07 151.19 121.07C153.248 121.07 154.536 122.652 154.536 124.612C154.536 126.572 153.248 128.168 151.19 128.168ZM151.19 127.23C152.632 127.23 153.43 125.998 153.43 124.612C153.43 123.24 152.632 122.008 151.19 122.008C149.748 122.008 148.936 123.24 148.936 124.612C148.936 125.998 149.748 127.23 151.19 127.23ZM159.201 128.168C157.143 128.168 155.855 126.572 155.855 124.612C155.855 122.652 157.143 121.07 159.201 121.07C161.259 121.07 162.547 122.652 162.547 124.612C162.547 126.572 161.259 128.168 159.201 128.168ZM159.201 127.23C160.643 127.23 161.441 125.998 161.441 124.612C161.441 123.24 160.643 122.008 159.201 122.008C157.759 122.008 156.947 123.24 156.947 124.612C156.947 125.998 157.759 127.23 159.201 127.23ZM166.401 128.168C165.295 128.168 164.357 127.832 163.671 127.104L164.217 126.348C164.665 126.866 165.519 127.314 166.443 127.314C167.479 127.314 168.039 126.824 168.039 126.152C168.039 124.514 163.853 125.522 163.853 123.016C163.853 121.966 164.763 121.07 166.373 121.07C167.521 121.07 168.333 121.504 168.879 122.05L168.389 122.778C167.983 122.288 167.241 121.924 166.373 121.924C165.449 121.924 164.875 122.386 164.875 122.988C164.875 124.472 169.061 123.492 169.061 126.124C169.061 127.258 168.151 128.168 166.401 128.168ZM173.819 128.168C171.817 128.168 170.375 126.726 170.375 124.612C170.375 122.652 171.775 121.07 173.707 121.07C175.751 121.07 176.955 122.666 176.955 124.696V124.962H171.481C171.565 126.236 172.461 127.3 173.917 127.3C174.687 127.3 175.471 126.992 176.003 126.446L176.507 127.132C175.835 127.804 174.925 128.168 173.819 128.168ZM175.919 124.192C175.905 123.184 175.233 121.938 173.693 121.938C172.251 121.938 171.537 123.156 171.481 124.192H175.919ZM185.779 128H184.617V119.698H181.663V118.662H188.747V119.698H185.779V128ZM194.201 128H193.151V127.23C192.591 127.846 191.821 128.168 190.911 128.168C189.763 128.168 188.545 127.398 188.545 125.928C188.545 124.416 189.763 123.702 190.911 123.702C191.835 123.702 192.605 123.996 193.151 124.626V123.408C193.151 122.498 192.423 121.98 191.443 121.98C190.631 121.98 189.973 122.274 189.371 122.918L188.881 122.19C189.609 121.434 190.477 121.07 191.583 121.07C193.011 121.07 194.201 121.714 194.201 123.352V128ZM191.289 127.412C192.031 127.412 192.745 127.132 193.151 126.572V125.298C192.745 124.738 192.031 124.458 191.289 124.458C190.309 124.458 189.623 125.074 189.623 125.942C189.623 126.796 190.309 127.412 191.289 127.412ZM201.906 128H200.688L198.658 125.228L196.628 128H195.424L198.014 124.528L195.564 121.238H196.782L198.658 123.814L200.534 121.238H201.752L199.302 124.528L201.906 128ZM207.928 128H206.766V118.662H207.928V128ZM213.307 128H210.115V118.662H213.307C216.205 118.662 218.095 120.692 218.095 123.338C218.095 125.998 216.205 128 213.307 128ZM213.307 126.964C215.575 126.964 216.891 125.34 216.891 123.338C216.891 121.322 215.617 119.698 213.307 119.698H211.277V126.964H213.307Z" fill="#50667C"/>
<path d="M117.912 178.168C116.33 178.168 115.168 177.468 114.594 176.628L115.28 175.9C115.826 176.628 116.778 177.132 117.884 177.132C119.242 177.132 120.068 176.46 120.068 175.382C120.068 174.22 119.116 173.73 117.744 173.73C117.352 173.73 116.918 173.73 116.778 173.744V172.68C116.932 172.694 117.366 172.694 117.744 172.694C118.92 172.694 119.914 172.232 119.914 171.154C119.914 170.118 118.962 169.558 117.828 169.558C116.806 169.558 116.05 169.95 115.364 170.692L114.72 169.964C115.392 169.152 116.47 168.522 117.912 168.522C119.704 168.522 121.076 169.432 121.076 171.014C121.076 172.358 119.942 173.03 119.06 173.184C119.914 173.254 121.216 173.982 121.216 175.48C121.216 177.034 119.97 178.168 117.912 178.168ZM123.717 178.14C123.297 178.14 122.947 177.79 122.947 177.37C122.947 176.95 123.297 176.6 123.717 176.6C124.137 176.6 124.487 176.95 124.487 177.37C124.487 177.79 124.137 178.14 123.717 178.14ZM135.516 178.168C132.828 178.168 130.714 176.208 130.714 173.338C130.714 170.468 132.828 168.508 135.516 168.508C137.168 168.508 138.316 169.306 139.058 170.356L138.078 170.902C137.546 170.118 136.58 169.544 135.516 169.544C133.472 169.544 131.918 171.112 131.918 173.338C131.918 175.55 133.472 177.132 135.516 177.132C136.58 177.132 137.546 176.572 138.078 175.774L139.072 176.32C138.288 177.384 137.168 178.168 135.516 178.168ZM146.139 178H145.089V173.548C145.089 172.358 144.473 172.008 143.563 172.008C142.751 172.008 141.967 172.512 141.561 173.058V178H140.511V168.662H141.561V172.218C142.037 171.658 142.961 171.07 143.983 171.07C145.397 171.07 146.139 171.756 146.139 173.226V178ZM151.19 178.168C149.132 178.168 147.844 176.572 147.844 174.612C147.844 172.652 149.132 171.07 151.19 171.07C153.248 171.07 154.536 172.652 154.536 174.612C154.536 176.572 153.248 178.168 151.19 178.168ZM151.19 177.23C152.632 177.23 153.43 175.998 153.43 174.612C153.43 173.24 152.632 172.008 151.19 172.008C149.748 172.008 148.936 173.24 148.936 174.612C148.936 175.998 149.748 177.23 151.19 177.23ZM159.201 178.168C157.143 178.168 155.855 176.572 155.855 174.612C155.855 172.652 157.143 171.07 159.201 171.07C161.259 171.07 162.547 172.652 162.547 174.612C162.547 176.572 161.259 178.168 159.201 178.168ZM159.201 177.23C160.643 177.23 161.441 175.998 161.441 174.612C161.441 173.24 160.643 172.008 159.201 172.008C157.759 172.008 156.947 173.24 156.947 174.612C156.947 175.998 157.759 177.23 159.201 177.23ZM166.401 178.168C165.295 178.168 164.357 177.832 163.671 177.104L164.217 176.348C164.665 176.866 165.519 177.314 166.443 177.314C167.479 177.314 168.039 176.824 168.039 176.152C168.039 174.514 163.853 175.522 163.853 173.016C163.853 171.966 164.763 171.07 166.373 171.07C167.521 171.07 168.333 171.504 168.879 172.05L168.389 172.778C167.983 172.288 167.241 171.924 166.373 171.924C165.449 171.924 164.875 172.386 164.875 172.988C164.875 174.472 169.061 173.492 169.061 176.124C169.061 177.258 168.151 178.168 166.401 178.168ZM173.819 178.168C171.817 178.168 170.375 176.726 170.375 174.612C170.375 172.652 171.775 171.07 173.707 171.07C175.751 171.07 176.955 172.666 176.955 174.696V174.962H171.481C171.565 176.236 172.461 177.3 173.917 177.3C174.687 177.3 175.471 176.992 176.003 176.446L176.507 177.132C175.835 177.804 174.925 178.168 173.819 178.168ZM175.919 174.192C175.905 173.184 175.233 171.938 173.693 171.938C172.251 171.938 171.537 173.156 171.481 174.192H175.919ZM183.973 178.168C182.979 178.168 182.475 177.594 182.475 176.586V172.162H181.355V171.238H182.475V169.39H183.525V171.238H184.897V172.162H183.525V176.362C183.525 176.866 183.749 177.23 184.211 177.23C184.505 177.23 184.785 177.104 184.925 176.95L185.233 177.734C184.967 177.986 184.589 178.168 183.973 178.168ZM186.002 180.646L186.17 179.694C186.324 179.764 186.576 179.806 186.744 179.806C187.206 179.806 187.514 179.652 187.752 179.092L188.2 178.07L185.372 171.238H186.506L188.76 176.782L191 171.238H192.148L188.76 179.372C188.354 180.352 187.668 180.73 186.772 180.744C186.548 180.744 186.198 180.702 186.002 180.646ZM196.575 178.168C195.651 178.168 194.839 177.734 194.293 176.978V180.576H193.243V171.238H194.293V172.246C194.783 171.56 195.623 171.07 196.575 171.07C198.353 171.07 199.585 172.414 199.585 174.612C199.585 176.796 198.353 178.168 196.575 178.168ZM196.309 177.23C197.667 177.23 198.479 176.11 198.479 174.612C198.479 173.114 197.667 172.008 196.309 172.008C195.483 172.008 194.657 172.498 194.293 173.086V176.138C194.657 176.726 195.483 177.23 196.309 177.23ZM204.307 178.168C202.305 178.168 200.863 176.726 200.863 174.612C200.863 172.652 202.263 171.07 204.195 171.07C206.239 171.07 207.443 172.666 207.443 174.696V174.962H201.969C202.053 176.236 202.949 177.3 204.405 177.3C205.175 177.3 205.959 176.992 206.491 176.446L206.995 177.132C206.323 177.804 205.413 178.168 204.307 178.168ZM206.407 174.192C206.393 173.184 205.721 171.938 204.181 171.938C202.739 171.938 202.025 173.156 201.969 174.192H206.407ZM215.707 178.168C213.649 178.168 212.361 176.572 212.361 174.612C212.361 172.652 213.649 171.07 215.707 171.07C217.765 171.07 219.053 172.652 219.053 174.612C219.053 176.572 217.765 178.168 215.707 178.168ZM215.707 177.23C217.149 177.23 217.947 175.998 217.947 174.612C217.947 173.24 217.149 172.008 215.707 172.008C214.265 172.008 213.453 173.24 213.453 174.612C213.453 175.998 214.265 177.23 215.707 177.23ZM222.109 178H221.059V172.162H219.939V171.238H221.059V170.72C221.059 169.334 221.815 168.522 223.019 168.522C223.551 168.522 224.027 168.648 224.447 169.04L224.013 169.726C223.789 169.53 223.523 169.39 223.173 169.39C222.487 169.39 222.109 169.866 222.109 170.72V171.238H223.481V172.162H222.109V178ZM228.857 170.272C228.479 170.272 228.157 169.964 228.157 169.572C228.157 169.18 228.479 168.858 228.857 168.858C229.249 168.858 229.571 169.18 229.571 169.572C229.571 169.964 229.249 170.272 228.857 170.272ZM229.389 178H228.339V171.238H229.389V178ZM237.098 178H236.048V173.576C236.048 172.386 235.446 172.008 234.536 172.008C233.71 172.008 232.926 172.512 232.534 173.058V178H231.484V171.238H232.534V172.218C233.01 171.658 233.934 171.07 234.942 171.07C236.356 171.07 237.098 171.784 237.098 173.254V178ZM242.149 178H241.001L238.187 171.238H239.321L241.575 176.782L243.815 171.238H244.963L242.149 178ZM249.012 178.168C246.954 178.168 245.666 176.572 245.666 174.612C245.666 172.652 246.954 171.07 249.012 171.07C251.07 171.07 252.358 172.652 252.358 174.612C252.358 176.572 251.07 178.168 249.012 178.168ZM249.012 177.23C250.454 177.23 251.252 175.998 251.252 174.612C251.252 173.24 250.454 172.008 249.012 172.008C247.57 172.008 246.758 173.24 246.758 174.612C246.758 175.998 247.57 177.23 249.012 177.23ZM254.588 170.272C254.21 170.272 253.888 169.964 253.888 169.572C253.888 169.18 254.21 168.858 254.588 168.858C254.98 168.858 255.302 169.18 255.302 169.572C255.302 169.964 254.98 170.272 254.588 170.272ZM255.12 178H254.07V171.238H255.12V178ZM260.196 178.168C258.18 178.168 256.822 176.628 256.822 174.612C256.822 172.61 258.18 171.07 260.196 171.07C261.428 171.07 262.156 171.574 262.674 172.246L261.974 172.89C261.526 172.274 260.952 172.008 260.252 172.008C258.81 172.008 257.914 173.114 257.914 174.612C257.914 176.11 258.81 177.23 260.252 177.23C260.952 177.23 261.526 176.95 261.974 176.348L262.674 176.992C262.156 177.664 261.428 178.168 260.196 178.168ZM267.198 178.168C265.196 178.168 263.754 176.726 263.754 174.612C263.754 172.652 265.154 171.07 267.086 171.07C269.13 171.07 270.334 172.666 270.334 174.696V174.962H264.86C264.944 176.236 265.84 177.3 267.296 177.3C268.066 177.3 268.85 176.992 269.382 176.446L269.886 177.132C269.214 177.804 268.304 178.168 267.198 178.168ZM269.298 174.192C269.284 173.184 268.612 171.938 267.072 171.938C265.63 171.938 264.916 173.156 264.86 174.192H269.298Z" fill="#50667C"/>
<path d="M121.118 153H114.706V152.076C118.066 149.43 119.886 147.876 119.886 146.266C119.886 145.076 118.906 144.558 117.94 144.558C116.82 144.558 115.952 145.034 115.406 145.734L114.692 144.992C115.406 144.054 116.624 143.522 117.94 143.522C119.494 143.522 121.076 144.404 121.076 146.266C121.076 148.17 119.144 149.906 116.54 151.964H121.118V153ZM123.717 153.14C123.297 153.14 122.947 152.79 122.947 152.37C122.947 151.95 123.297 151.6 123.717 151.6C124.137 151.6 124.487 151.95 124.487 152.37C124.487 152.79 124.137 153.14 123.717 153.14ZM135.516 153.168C132.828 153.168 130.714 151.208 130.714 148.338C130.714 145.468 132.828 143.508 135.516 143.508C137.168 143.508 138.316 144.306 139.058 145.356L138.078 145.902C137.546 145.118 136.58 144.544 135.516 144.544C133.472 144.544 131.918 146.112 131.918 148.338C131.918 150.55 133.472 152.132 135.516 152.132C136.58 152.132 137.546 151.572 138.078 150.774L139.072 151.32C138.288 152.384 137.168 153.168 135.516 153.168ZM146.139 153H145.089V148.548C145.089 147.358 144.473 147.008 143.563 147.008C142.751 147.008 141.967 147.512 141.561 148.058V153H140.511V143.662H141.561V147.218C142.037 146.658 142.961 146.07 143.983 146.07C145.397 146.07 146.139 146.756 146.139 148.226V153ZM151.19 153.168C149.132 153.168 147.844 151.572 147.844 149.612C147.844 147.652 149.132 146.07 151.19 146.07C153.248 146.07 154.536 147.652 154.536 149.612C154.536 151.572 153.248 153.168 151.19 153.168ZM151.19 152.23C152.632 152.23 153.43 150.998 153.43 149.612C153.43 148.24 152.632 147.008 151.19 147.008C149.748 147.008 148.936 148.24 148.936 149.612C148.936 150.998 149.748 152.23 151.19 152.23ZM159.201 153.168C157.143 153.168 155.855 151.572 155.855 149.612C155.855 147.652 157.143 146.07 159.201 146.07C161.259 146.07 162.547 147.652 162.547 149.612C162.547 151.572 161.259 153.168 159.201 153.168ZM159.201 152.23C160.643 152.23 161.441 150.998 161.441 149.612C161.441 148.24 160.643 147.008 159.201 147.008C157.759 147.008 156.947 148.24 156.947 149.612C156.947 150.998 157.759 152.23 159.201 152.23ZM166.401 153.168C165.295 153.168 164.357 152.832 163.671 152.104L164.217 151.348C164.665 151.866 165.519 152.314 166.443 152.314C167.479 152.314 168.039 151.824 168.039 151.152C168.039 149.514 163.853 150.522 163.853 148.016C163.853 146.966 164.763 146.07 166.373 146.07C167.521 146.07 168.333 146.504 168.879 147.05L168.389 147.778C167.983 147.288 167.241 146.924 166.373 146.924C165.449 146.924 164.875 147.386 164.875 147.988C164.875 149.472 169.061 148.492 169.061 151.124C169.061 152.258 168.151 153.168 166.401 153.168ZM173.819 153.168C171.817 153.168 170.375 151.726 170.375 149.612C170.375 147.652 171.775 146.07 173.707 146.07C175.751 146.07 176.955 147.666 176.955 149.696V149.962H171.481C171.565 151.236 172.461 152.3 173.917 152.3C174.687 152.3 175.471 151.992 176.003 151.446L176.507 152.132C175.835 152.804 174.925 153.168 173.819 153.168ZM175.919 149.192C175.905 148.184 175.233 146.938 173.693 146.938C172.251 146.938 171.537 148.156 171.481 149.192H175.919ZM183.315 151.166C183.679 151.754 184.505 152.23 185.331 152.23C186.703 152.23 187.515 151.124 187.515 149.626C187.515 148.128 186.703 147.008 185.331 147.008C184.505 147.008 183.679 147.512 183.315 148.1V151.166ZM183.315 153H182.265V143.662H183.315V147.26C183.861 146.518 184.673 146.07 185.597 146.07C187.361 146.07 188.607 147.47 188.607 149.626C188.607 151.824 187.361 153.168 185.597 153.168C184.645 153.168 183.819 152.678 183.315 151.992V153ZM191.368 153H190.318V146.238H191.368V147.33C191.914 146.616 192.698 146.098 193.622 146.098V147.176C193.496 147.148 193.37 147.134 193.202 147.134C192.558 147.134 191.676 147.666 191.368 148.212V153ZM200.217 153H199.167V152.23C198.607 152.846 197.837 153.168 196.927 153.168C195.779 153.168 194.561 152.398 194.561 150.928C194.561 149.416 195.779 148.702 196.927 148.702C197.851 148.702 198.621 148.996 199.167 149.626V148.408C199.167 147.498 198.439 146.98 197.459 146.98C196.647 146.98 195.989 147.274 195.387 147.918L194.897 147.19C195.625 146.434 196.493 146.07 197.599 146.07C199.027 146.07 200.217 146.714 200.217 148.352V153ZM197.305 152.412C198.047 152.412 198.761 152.132 199.167 151.572V150.298C198.761 149.738 198.047 149.458 197.305 149.458C196.325 149.458 195.639 150.074 195.639 150.942C195.639 151.796 196.325 152.412 197.305 152.412ZM207.935 153H206.885V148.576C206.885 147.386 206.283 147.008 205.373 147.008C204.547 147.008 203.763 147.512 203.371 148.058V153H202.321V146.238H203.371V147.218C203.847 146.658 204.771 146.07 205.779 146.07C207.193 146.07 207.935 146.784 207.935 148.254V153ZM213.014 153.168C210.998 153.168 209.64 151.628 209.64 149.612C209.64 147.61 210.998 146.07 213.014 146.07C214.246 146.07 214.974 146.574 215.492 147.246L214.792 147.89C214.344 147.274 213.77 147.008 213.07 147.008C211.628 147.008 210.732 148.114 210.732 149.612C210.732 151.11 211.628 152.23 213.07 152.23C213.77 152.23 214.344 151.95 214.792 151.348L215.492 151.992C214.974 152.664 214.246 153.168 213.014 153.168ZM222.592 153H221.542V148.548C221.542 147.358 220.926 147.008 220.016 147.008C219.204 147.008 218.42 147.512 218.014 148.058V153H216.964V143.662H218.014V147.218C218.49 146.658 219.414 146.07 220.436 146.07C221.85 146.07 222.592 146.756 222.592 148.226V153Z" fill="#50667C"/>
<path d="M120.054 203H118.892V200.634H114.454V199.668L118.458 193.662H120.054V199.612H121.37V200.634H120.054V203ZM118.892 199.612V194.74L115.616 199.612H118.892ZM123.717 203.14C123.297 203.14 122.947 202.79 122.947 202.37C122.947 201.95 123.297 201.6 123.717 201.6C124.137 201.6 124.487 201.95 124.487 202.37C124.487 202.79 124.137 203.14 123.717 203.14ZM132.254 203H131.092V193.662H134.844C136.72 193.662 137.77 194.95 137.77 196.476C137.77 198.002 136.692 199.29 134.844 199.29H132.254V203ZM134.704 198.254C135.81 198.254 136.566 197.526 136.566 196.476C136.566 195.426 135.81 194.698 134.704 194.698H132.254V198.254H134.704ZM144.881 203H143.831V202.048C143.313 202.636 142.431 203.168 141.423 203.168C140.009 203.168 139.267 202.482 139.267 201.012V196.238H140.317V200.69C140.317 201.88 140.919 202.23 141.829 202.23C142.655 202.23 143.439 201.754 143.831 201.208V196.238H144.881V203ZM148.028 203H146.978V196.238H148.028V197.33C148.574 196.616 149.358 196.098 150.282 196.098V197.176C150.156 197.148 150.03 197.134 149.862 197.134C149.218 197.134 148.336 197.666 148.028 198.212V203ZM154.581 203.168C152.565 203.168 151.207 201.628 151.207 199.612C151.207 197.61 152.565 196.07 154.581 196.07C155.813 196.07 156.541 196.574 157.059 197.246L156.359 197.89C155.911 197.274 155.337 197.008 154.637 197.008C153.195 197.008 152.299 198.114 152.299 199.612C152.299 201.11 153.195 202.23 154.637 202.23C155.337 202.23 155.911 201.95 156.359 201.348L157.059 201.992C156.541 202.664 155.813 203.168 154.581 203.168ZM164.158 203H163.108V198.548C163.108 197.358 162.492 197.008 161.582 197.008C160.77 197.008 159.986 197.512 159.58 198.058V203H158.53V193.662H159.58V197.218C160.056 196.658 160.98 196.07 162.002 196.07C163.416 196.07 164.158 196.756 164.158 198.226V203ZM171.533 203H170.483V202.23C169.923 202.846 169.153 203.168 168.243 203.168C167.095 203.168 165.877 202.398 165.877 200.928C165.877 199.416 167.095 198.702 168.243 198.702C169.167 198.702 169.937 198.996 170.483 199.626V198.408C170.483 197.498 169.755 196.98 168.775 196.98C167.963 196.98 167.305 197.274 166.703 197.918L166.213 197.19C166.941 196.434 167.809 196.07 168.915 196.07C170.343 196.07 171.533 196.714 171.533 198.352V203ZM168.621 202.412C169.363 202.412 170.077 202.132 170.483 201.572V200.298C170.077 199.738 169.363 199.458 168.621 199.458C167.641 199.458 166.955 200.074 166.955 200.942C166.955 201.796 167.641 202.412 168.621 202.412ZM175.78 203.168C174.674 203.168 173.736 202.832 173.05 202.104L173.596 201.348C174.044 201.866 174.898 202.314 175.822 202.314C176.858 202.314 177.418 201.824 177.418 201.152C177.418 199.514 173.232 200.522 173.232 198.016C173.232 196.966 174.142 196.07 175.752 196.07C176.9 196.07 177.712 196.504 178.258 197.05L177.768 197.778C177.362 197.288 176.62 196.924 175.752 196.924C174.828 196.924 174.254 197.386 174.254 197.988C174.254 199.472 178.44 198.492 178.44 201.124C178.44 202.258 177.53 203.168 175.78 203.168ZM183.198 203.168C181.196 203.168 179.754 201.726 179.754 199.612C179.754 197.652 181.154 196.07 183.086 196.07C185.13 196.07 186.334 197.666 186.334 199.696V199.962H180.86C180.944 201.236 181.84 202.3 183.296 202.3C184.066 202.3 184.85 201.992 185.382 201.446L185.886 202.132C185.214 202.804 184.304 203.168 183.198 203.168ZM185.298 199.192C185.284 198.184 184.612 196.938 183.072 196.938C181.63 196.938 180.916 198.156 180.86 199.192H185.298ZM192.162 195.272C191.784 195.272 191.462 194.964 191.462 194.572C191.462 194.18 191.784 193.858 192.162 193.858C192.554 193.858 192.876 194.18 192.876 194.572C192.876 194.964 192.554 195.272 192.162 195.272ZM192.694 203H191.644V196.238H192.694V203ZM200.402 203H199.352V198.576C199.352 197.386 198.75 197.008 197.84 197.008C197.014 197.008 196.23 197.512 195.838 198.058V203H194.788V196.238H195.838V197.218C196.314 196.658 197.238 196.07 198.246 196.07C199.66 196.07 200.402 196.784 200.402 198.254V203ZM205.453 203H204.305L201.491 196.238H202.625L204.879 201.782L207.119 196.238H208.267L205.453 203ZM212.317 203.168C210.259 203.168 208.971 201.572 208.971 199.612C208.971 197.652 210.259 196.07 212.317 196.07C214.375 196.07 215.663 197.652 215.663 199.612C215.663 201.572 214.375 203.168 212.317 203.168ZM212.317 202.23C213.759 202.23 214.557 200.998 214.557 199.612C214.557 198.24 213.759 197.008 212.317 197.008C210.875 197.008 210.062 198.24 210.062 199.612C210.062 200.998 210.875 202.23 212.317 202.23ZM217.892 195.272C217.514 195.272 217.192 194.964 217.192 194.572C217.192 194.18 217.514 193.858 217.892 193.858C218.284 193.858 218.606 194.18 218.606 194.572C218.606 194.964 218.284 195.272 217.892 195.272ZM218.424 203H217.374V196.238H218.424V203ZM223.501 203.168C221.485 203.168 220.127 201.628 220.127 199.612C220.127 197.61 221.485 196.07 223.501 196.07C224.733 196.07 225.461 196.574 225.979 197.246L225.279 197.89C224.831 197.274 224.257 197.008 223.557 197.008C222.115 197.008 221.219 198.114 221.219 199.612C221.219 201.11 222.115 202.23 223.557 202.23C224.257 202.23 224.831 201.95 225.279 201.348L225.979 201.992C225.461 202.664 224.733 203.168 223.501 203.168ZM230.502 203.168C228.5 203.168 227.058 201.726 227.058 199.612C227.058 197.652 228.458 196.07 230.39 196.07C232.434 196.07 233.638 197.666 233.638 199.696V199.962H228.164C228.248 201.236 229.144 202.3 230.6 202.3C231.37 202.3 232.154 201.992 232.686 201.446L233.19 202.132C232.518 202.804 231.608 203.168 230.502 203.168ZM232.602 199.192C232.588 198.184 231.916 196.938 230.376 196.938C228.934 196.938 228.22 198.156 228.164 199.192H232.602ZM240.656 203.168C239.662 203.168 239.158 202.594 239.158 201.586V197.162H238.038V196.238H239.158V194.39H240.208V196.238H241.58V197.162H240.208V201.362C240.208 201.866 240.432 202.23 240.894 202.23C241.188 202.23 241.468 202.104 241.608 201.95L241.916 202.734C241.65 202.986 241.272 203.168 240.656 203.168ZM243.582 195.272C243.204 195.272 242.882 194.964 242.882 194.572C242.882 194.18 243.204 193.858 243.582 193.858C243.974 193.858 244.296 194.18 244.296 194.572C244.296 194.964 243.974 195.272 243.582 195.272ZM244.114 203H243.064V196.238H244.114V203ZM249.19 203.168C247.174 203.168 245.816 201.628 245.816 199.612C245.816 197.61 247.174 196.07 249.19 196.07C250.422 196.07 251.15 196.574 251.668 197.246L250.968 197.89C250.52 197.274 249.946 197.008 249.246 197.008C247.804 197.008 246.908 198.114 246.908 199.612C246.908 201.11 247.804 202.23 249.246 202.23C249.946 202.23 250.52 201.95 250.968 201.348L251.668 201.992C251.15 202.664 250.422 203.168 249.19 203.168ZM259.09 203H257.746L255.31 199.962L254.19 201.068V203H253.14V193.662H254.19V199.836L257.746 196.238H259.076L256.08 199.304L259.09 203ZM263.342 203.168C261.34 203.168 259.898 201.726 259.898 199.612C259.898 197.652 261.298 196.07 263.23 196.07C265.274 196.07 266.478 197.666 266.478 199.696V199.962H261.004C261.088 201.236 261.984 202.3 263.44 202.3C264.21 202.3 264.994 201.992 265.526 201.446L266.03 202.132C265.358 202.804 264.448 203.168 263.342 203.168ZM265.442 199.192C265.428 198.184 264.756 196.938 263.216 196.938C261.774 196.938 261.06 198.156 261.004 199.192H265.442ZM269.887 203.168C268.893 203.168 268.389 202.594 268.389 201.586V197.162H267.269V196.238H268.389V194.39H269.439V196.238H270.811V197.162H269.439V201.362C269.439 201.866 269.663 202.23 270.125 202.23C270.419 202.23 270.699 202.104 270.839 201.95L271.147 202.734C270.881 202.986 270.503 203.168 269.887 203.168ZM274.436 203.168C273.33 203.168 272.392 202.832 271.706 202.104L272.252 201.348C272.7 201.866 273.554 202.314 274.478 202.314C275.514 202.314 276.074 201.824 276.074 201.152C276.074 199.514 271.888 200.522 271.888 198.016C271.888 196.966 272.798 196.07 274.408 196.07C275.556 196.07 276.368 196.504 276.914 197.05L276.424 197.778C276.018 197.288 275.276 196.924 274.408 196.924C273.484 196.924 272.91 197.386 272.91 197.988C272.91 199.472 277.096 198.492 277.096 201.124C277.096 202.258 276.186 203.168 274.436 203.168Z" fill="#50667C"/>
<path d="M9.49986 233.5H233.5V457.5H9.49986V233.5Z" fill="white" stroke="#CAD4DA"/>
<path d="M69.6731 358H68.1531L67.2091 355.616H61.8971L60.9531 358H59.4331L63.7371 347.328H65.3851L69.6731 358ZM66.8251 354.448L64.5531 348.688L62.2971 354.448H66.8251ZM77.8203 358H76.6203V356.848C76.0443 357.632 75.1003 358.192 74.0123 358.192C71.9963 358.192 70.5723 356.656 70.5723 354.144C70.5723 351.664 71.9963 350.08 74.0123 350.08C75.0523 350.08 75.9963 350.592 76.6203 351.44V347.328H77.8203V358ZM74.3163 357.12C75.2603 357.12 76.2043 356.56 76.6203 355.888V352.4C76.2043 351.728 75.2603 351.152 74.3163 351.152C72.7483 351.152 71.8203 352.432 71.8203 354.144C71.8203 355.856 72.7483 357.12 74.3163 357.12ZM90.7514 358H89.5514V352.752C89.5514 351.776 89.1354 351.152 88.1274 351.152C87.3274 351.152 86.4794 351.712 86.0794 352.336V358H84.8794V352.752C84.8794 351.776 84.4794 351.152 83.4554 351.152C82.6714 351.152 81.8394 351.728 81.4234 352.352V358H80.2234V350.272H81.4234V351.392C81.7594 350.896 82.7834 350.08 83.9354 350.08C85.1034 350.08 85.7754 350.72 85.9994 351.52C86.4314 350.816 87.4714 350.08 88.5914 350.08C89.9994 350.08 90.7514 350.864 90.7514 352.416V358ZM93.7533 349.168C93.3053 349.168 92.9373 348.816 92.9373 348.368C92.9373 347.92 93.3053 347.552 93.7533 347.552C94.2013 347.552 94.5533 347.92 94.5533 348.368C94.5533 348.816 94.2013 349.168 93.7533 349.168ZM94.3453 358H93.1453V350.272H94.3453V358ZM103.155 358H101.971V352.944C101.971 351.568 101.267 351.152 100.227 351.152C99.2831 351.152 98.4031 351.728 97.9391 352.352V358H96.7391V350.272H97.9391V351.392C98.4831 350.736 99.5391 350.08 100.707 350.08C102.307 350.08 103.155 350.896 103.155 352.576V358ZM106.175 349.168C105.727 349.168 105.359 348.816 105.359 348.368C105.359 347.92 105.727 347.552 106.175 347.552C106.623 347.552 106.975 347.92 106.975 348.368C106.975 348.816 106.623 349.168 106.175 349.168ZM106.767 358H105.567V350.272H106.767V358ZM111.625 358.192C110.345 358.192 109.289 357.792 108.505 356.976L109.113 356.112C109.625 356.704 110.601 357.216 111.657 357.216C112.841 357.216 113.497 356.656 113.497 355.888C113.497 354.016 108.713 355.168 108.713 352.304C108.713 351.088 109.737 350.08 111.577 350.08C112.905 350.08 113.833 350.576 114.441 351.2L113.881 352.032C113.417 351.472 112.585 351.056 111.577 351.056C110.521 351.056 109.865 351.584 109.865 352.272C109.865 353.952 114.649 352.848 114.649 355.856C114.649 357.152 113.609 358.192 111.625 358.192ZM118.566 358.192C117.414 358.192 116.838 357.536 116.838 356.384V351.328H115.558V350.272H116.838V348.16H118.054V350.272H119.622V351.328H118.054V356.128C118.054 356.704 118.31 357.12 118.822 357.12C119.174 357.12 119.478 356.96 119.638 356.784L119.99 357.696C119.686 357.984 119.254 358.192 118.566 358.192ZM122.502 358H121.302V350.272H122.502V351.504C123.126 350.704 124.022 350.096 125.078 350.096V351.328C124.934 351.312 124.79 351.296 124.614 351.296C123.862 351.296 122.854 351.904 122.502 352.528V358ZM132.615 358H131.415V357.12C130.791 357.824 129.895 358.192 128.855 358.192C127.559 358.192 126.167 357.312 126.167 355.632C126.167 353.888 127.543 353.088 128.855 353.088C129.911 353.088 130.791 353.424 131.415 354.128V352.736C131.415 351.712 130.583 351.12 129.463 351.12C128.535 351.12 127.783 351.44 127.095 352.192L126.535 351.36C127.367 350.496 128.359 350.08 129.623 350.08C131.271 350.08 132.615 350.816 132.615 352.688V358ZM129.303 357.328C130.135 357.328 130.951 357.008 131.415 356.368V354.896C130.951 354.272 130.135 353.952 129.303 353.952C128.167 353.952 127.383 354.656 127.383 355.632C127.383 356.624 128.167 357.328 129.303 357.328ZM138.444 358.192C136.14 358.192 134.588 356.416 134.588 354.128C134.588 351.84 136.14 350.08 138.444 350.08C139.852 350.08 140.684 350.656 141.276 351.424L140.476 352.144C139.964 351.44 139.308 351.152 138.508 351.152C136.876 351.152 135.836 352.416 135.836 354.128C135.836 355.84 136.876 357.12 138.508 357.12C139.308 357.12 139.964 356.8 140.476 356.112L141.276 356.848C140.684 357.616 139.852 358.192 138.444 358.192ZM143.581 349.168C143.133 349.168 142.765 348.816 142.765 348.368C142.765 347.92 143.133 347.552 143.581 347.552C144.029 347.552 144.381 347.92 144.381 348.368C144.381 348.816 144.029 349.168 143.581 349.168ZM144.173 358H142.973V350.272H144.173V358ZM149.943 358.192C147.591 358.192 146.119 356.368 146.119 354.128C146.119 351.888 147.591 350.08 149.943 350.08C152.295 350.08 153.767 351.888 153.767 354.128C153.767 356.368 152.295 358.192 149.943 358.192ZM149.943 357.12C151.591 357.12 152.503 355.712 152.503 354.128C152.503 352.56 151.591 351.152 149.943 351.152C148.295 351.152 147.383 352.56 147.383 354.128C147.383 355.712 148.295 357.12 149.943 357.12ZM152.503 346.8L149.799 349.104H148.887L151.255 346.8H152.503ZM162.139 358H160.955V352.944C160.955 351.568 160.251 351.152 159.211 351.152C158.267 351.152 157.387 351.728 156.923 352.352V358H155.723V350.272H156.923V351.392C157.467 350.736 158.523 350.08 159.691 350.08C161.291 350.08 162.139 350.896 162.139 352.576V358ZM175.492 358H174.292V356.848C173.716 357.632 172.772 358.192 171.684 358.192C169.668 358.192 168.244 356.656 168.244 354.144C168.244 351.664 169.668 350.08 171.684 350.08C172.724 350.08 173.668 350.592 174.292 351.44V347.328H175.492V358ZM171.988 357.12C172.932 357.12 173.876 356.56 174.292 355.888V352.4C173.876 351.728 172.932 351.152 171.988 351.152C170.42 351.152 169.492 352.432 169.492 354.144C169.492 355.856 170.42 357.12 171.988 357.12ZM181.399 358.192C179.095 358.192 177.447 356.544 177.447 354.128C177.447 351.888 179.047 350.08 181.255 350.08C183.591 350.08 184.967 351.904 184.967 354.224V354.528H178.727C178.823 355.984 179.831 357.2 181.495 357.2C182.391 357.2 183.271 356.848 183.895 356.208L184.471 356.992C183.687 357.76 182.647 358.192 181.399 358.192ZM183.783 353.632C183.767 352.496 182.999 351.072 181.239 351.072C179.591 351.072 178.775 352.464 178.711 353.632H183.783ZM76.483 379.192C74.179 379.192 72.627 377.416 72.627 375.128C72.627 372.84 74.179 371.08 76.483 371.08C77.891 371.08 78.723 371.656 79.315 372.424L78.515 373.144C78.003 372.44 77.347 372.152 76.547 372.152C74.915 372.152 73.875 373.416 73.875 375.128C73.875 376.84 74.915 378.12 76.547 378.12C77.347 378.12 78.003 377.8 78.515 377.112L79.315 377.848C78.723 378.616 77.891 379.192 76.483 379.192ZM84.3885 379.192C82.0365 379.192 80.5645 377.368 80.5645 375.128C80.5645 372.888 82.0365 371.08 84.3885 371.08C86.7405 371.08 88.2125 372.888 88.2125 375.128C88.2125 377.368 86.7405 379.192 84.3885 379.192ZM84.3885 378.12C86.0365 378.12 86.9485 376.712 86.9485 375.128C86.9485 373.56 86.0365 372.152 84.3885 372.152C82.7405 372.152 81.8285 373.56 81.8285 375.128C81.8285 376.712 82.7405 378.12 84.3885 378.12ZM100.697 379H99.4968V373.752C99.4968 372.776 99.0808 372.152 98.0728 372.152C97.2728 372.152 96.4248 372.712 96.0248 373.336V379H94.8248V373.752C94.8248 372.776 94.4248 372.152 93.4008 372.152C92.6168 372.152 91.7848 372.728 91.3688 373.352V379H90.1688V371.272H91.3688V372.392C91.7048 371.896 92.7288 371.08 93.8808 371.08C95.0488 371.08 95.7208 371.72 95.9448 372.52C96.3768 371.816 97.4167 371.08 98.5368 371.08C99.9448 371.08 100.697 371.864 100.697 373.416V379ZM106.899 379.192C105.843 379.192 104.931 378.68 104.291 377.832V381.944H103.091V371.272H104.291V372.424C104.851 371.64 105.811 371.08 106.899 371.08C108.931 371.08 110.339 372.616 110.339 375.128C110.339 377.624 108.931 379.192 106.899 379.192ZM106.595 378.12C108.147 378.12 109.075 376.84 109.075 375.128C109.075 373.416 108.147 372.152 106.595 372.152C105.651 372.152 104.707 372.712 104.291 373.384V376.872C104.707 377.544 105.651 378.12 106.595 378.12ZM113.447 379H112.247V371.272H113.447V372.504C114.071 371.704 114.967 371.096 116.023 371.096V372.328C115.879 372.312 115.735 372.296 115.559 372.296C114.807 372.296 113.799 372.904 113.447 373.528V379ZM120.904 379.192C118.552 379.192 117.08 377.368 117.08 375.128C117.08 372.888 118.552 371.08 120.904 371.08C123.256 371.08 124.728 372.888 124.728 375.128C124.728 377.368 123.256 379.192 120.904 379.192ZM120.904 378.12C122.552 378.12 123.464 376.712 123.464 375.128C123.464 373.56 122.552 372.152 120.904 372.152C119.256 372.152 118.344 373.56 118.344 375.128C118.344 376.712 119.256 378.12 120.904 378.12ZM127.884 376.904C128.3 377.576 129.244 378.12 130.204 378.12C131.756 378.12 132.684 376.856 132.684 375.144C132.684 373.432 131.756 372.152 130.204 372.152C129.244 372.152 128.3 372.728 127.884 373.4V376.904ZM127.884 379H126.684V368.328H127.884V372.44C128.508 371.592 129.452 371.08 130.492 371.08C132.524 371.08 133.932 372.664 133.932 375.144C133.932 377.656 132.508 379.192 130.492 379.192C129.404 379.192 128.46 378.632 127.884 377.848V379ZM141.92 379H140.72V378.12C140.096 378.824 139.2 379.192 138.16 379.192C136.864 379.192 135.472 378.312 135.472 376.632C135.472 374.888 136.848 374.088 138.16 374.088C139.216 374.088 140.096 374.424 140.72 375.128V373.736C140.72 372.712 139.888 372.12 138.768 372.12C137.84 372.12 137.088 372.44 136.4 373.192L135.84 372.36C136.672 371.496 137.664 371.08 138.928 371.08C140.576 371.08 141.92 371.816 141.92 373.688V379ZM138.608 378.328C139.44 378.328 140.256 378.008 140.72 377.368V375.896C140.256 375.272 139.44 374.952 138.608 374.952C137.472 374.952 136.688 375.656 136.688 376.632C136.688 377.624 137.472 378.328 138.608 378.328ZM150.757 379H149.573V373.944C149.573 372.568 148.869 372.152 147.829 372.152C146.885 372.152 146.005 372.728 145.541 373.352V379H144.341V371.272H145.541V372.392C146.085 371.736 147.141 371.08 148.309 371.08C149.909 371.08 150.757 371.896 150.757 373.576V379ZM155.137 379.192C153.985 379.192 153.409 378.536 153.409 377.384V372.328H152.129V371.272H153.409V369.16H154.625V371.272H156.193V372.328H154.625V377.128C154.625 377.704 154.881 378.12 155.393 378.12C155.745 378.12 156.049 377.96 156.209 377.784L156.561 378.696C156.257 378.984 155.825 379.192 155.137 379.192ZM161.376 379.192C159.072 379.192 157.424 377.544 157.424 375.128C157.424 372.888 159.024 371.08 161.232 371.08C163.568 371.08 164.944 372.904 164.944 375.224V375.528H158.704C158.8 376.984 159.808 378.2 161.472 378.2C162.368 378.2 163.248 377.848 163.872 377.208L164.448 377.992C163.664 378.76 162.624 379.192 161.376 379.192ZM163.76 374.632C163.744 373.496 162.976 372.072 161.216 372.072C159.568 372.072 158.752 373.464 158.688 374.632H163.76ZM169.352 379.192C168.072 379.192 167.016 378.792 166.232 377.976L166.84 377.112C167.352 377.704 168.328 378.216 169.384 378.216C170.568 378.216 171.224 377.656 171.224 376.888C171.224 375.016 166.44 376.168 166.44 373.304C166.44 372.088 167.464 371.08 169.304 371.08C170.632 371.08 171.56 371.576 172.168 372.2L171.608 373.032C171.144 372.472 170.312 372.056 169.304 372.056C168.248 372.056 167.592 372.584 167.592 373.272C167.592 374.952 172.376 373.848 172.376 376.856C172.376 378.152 171.336 379.192 169.352 379.192Z" fill="#3D454D"/>
<path d="M75.3895 434.168C72.8275 434.168 71.8195 431.606 71.8195 429.338C71.8195 427.056 72.8275 424.522 75.3895 424.522C77.9375 424.522 78.9595 427.056 78.9595 429.338C78.9595 431.606 77.9375 434.168 75.3895 434.168ZM75.3895 433.132C77.1675 433.132 77.7695 431.2 77.7695 429.338C77.7695 427.476 77.1675 425.558 75.3895 425.558C73.6115 425.558 73.0095 427.476 73.0095 429.338C73.0095 431.2 73.6115 433.132 75.3895 433.132ZM87.3328 434.168C85.3168 434.168 83.9588 432.614 83.9588 430.612C83.9588 428.61 85.3168 427.07 87.3328 427.07C88.5648 427.07 89.2928 427.574 89.8108 428.246L89.1108 428.876C88.6628 428.26 88.0888 428.008 87.3888 428.008C85.9608 428.008 85.0508 429.114 85.0508 430.612C85.0508 432.11 85.9608 433.23 87.3888 433.23C88.0888 433.23 88.6628 432.95 89.1108 432.348L89.8108 432.992C89.2928 433.664 88.5648 434.168 87.3328 434.168ZM94.2501 434.168C92.1921 434.168 90.9041 432.572 90.9041 430.612C90.9041 428.652 92.1921 427.07 94.2501 427.07C96.3081 427.07 97.5961 428.652 97.5961 430.612C97.5961 432.572 96.3081 434.168 94.2501 434.168ZM94.2501 433.23C95.6921 433.23 96.4901 431.998 96.4901 430.612C96.4901 429.24 95.6921 428.008 94.2501 428.008C92.8081 428.008 92.0101 429.24 92.0101 430.612C92.0101 431.998 92.8081 433.23 94.2501 433.23ZM108.52 434H107.47V429.408C107.47 428.554 107.106 428.008 106.224 428.008C105.524 428.008 104.782 428.498 104.432 429.044V434H103.382V429.408C103.382 428.554 103.032 428.008 102.136 428.008C101.45 428.008 100.722 428.512 100.358 429.058V434H99.3078V427.238H100.358V428.218C100.652 427.784 101.548 427.07 102.556 427.07C103.578 427.07 104.166 427.63 104.362 428.33C104.74 427.714 105.65 427.07 106.63 427.07C107.862 427.07 108.52 427.756 108.52 429.114V434ZM113.946 434.168C113.022 434.168 112.224 433.72 111.664 432.978V436.576H110.614V427.238H111.664V428.246C112.154 427.56 112.994 427.07 113.946 427.07C115.724 427.07 116.956 428.414 116.956 430.612C116.956 432.796 115.724 434.168 113.946 434.168ZM113.68 433.23C115.038 433.23 115.85 432.11 115.85 430.612C115.85 429.114 115.038 428.008 113.68 428.008C112.854 428.008 112.028 428.498 111.664 429.086V432.138C112.028 432.726 112.854 433.23 113.68 433.23ZM119.676 434H118.626V427.238H119.676V428.316C120.222 427.616 121.006 427.084 121.93 427.084V428.162C121.804 428.148 121.678 428.134 121.524 428.134C120.866 428.134 119.984 428.666 119.676 429.212V434ZM126.201 434.168C124.143 434.168 122.855 432.572 122.855 430.612C122.855 428.652 124.143 427.07 126.201 427.07C128.259 427.07 129.547 428.652 129.547 430.612C129.547 432.572 128.259 434.168 126.201 434.168ZM126.201 433.23C127.643 433.23 128.441 431.998 128.441 430.612C128.441 429.24 127.643 428.008 126.201 428.008C124.759 428.008 123.961 429.24 123.961 430.612C123.961 431.998 124.759 433.23 126.201 433.23ZM132.309 432.166C132.673 432.754 133.499 433.23 134.339 433.23C135.697 433.23 136.509 432.124 136.509 430.626C136.509 429.128 135.697 428.008 134.339 428.008C133.499 428.008 132.673 428.512 132.309 429.1V432.166ZM132.309 434H131.259V424.662H132.309V428.26C132.855 427.518 133.681 427.07 134.591 427.07C136.369 427.07 137.601 428.456 137.601 430.626C137.601 432.824 136.355 434.168 134.591 434.168C133.639 434.168 132.813 433.678 132.309 432.992V434ZM144.59 434H143.54V433.23C142.994 433.846 142.21 434.168 141.3 434.168C140.166 434.168 138.948 433.398 138.948 431.928C138.948 430.402 140.152 429.702 141.3 429.702C142.224 429.702 142.994 429.996 143.54 430.612V429.394C143.54 428.498 142.812 427.98 141.832 427.98C141.02 427.98 140.362 428.26 139.76 428.918L139.27 428.19C139.998 427.434 140.866 427.07 141.972 427.07C143.414 427.07 144.59 427.714 144.59 429.352V434ZM141.692 433.412C142.42 433.412 143.134 433.132 143.54 432.572V431.284C143.134 430.738 142.42 430.458 141.692 430.458C140.698 430.458 140.012 431.074 140.012 431.928C140.012 432.796 140.698 433.412 141.692 433.412ZM152.322 434H151.286V429.576C151.286 428.372 150.67 428.008 149.76 428.008C148.934 428.008 148.164 428.512 147.758 429.058V434H146.708V427.238H147.758V428.218C148.234 427.644 149.158 427.07 150.18 427.07C151.58 427.07 152.322 427.784 152.322 429.254V434ZM156.155 434.168C155.147 434.168 154.643 433.594 154.643 432.586V428.162H153.523V427.238H154.643V425.39H155.707V427.238H157.079V428.162H155.707V432.362C155.707 432.866 155.931 433.23 156.379 433.23C156.687 433.23 156.953 433.09 157.093 432.936L157.401 433.734C157.135 433.986 156.757 434.168 156.155 434.168ZM161.614 434.168C159.598 434.168 158.156 432.726 158.156 430.612C158.156 428.652 159.556 427.07 161.488 427.07C163.532 427.07 164.736 428.666 164.736 430.696V430.962H159.276C159.36 432.236 160.242 433.3 161.698 433.3C162.482 433.3 163.252 432.992 163.798 432.432L164.302 433.118C163.616 433.79 162.706 434.168 161.614 434.168ZM163.7 430.178C163.686 429.184 163.014 427.938 161.474 427.938C160.032 427.938 159.318 429.156 159.262 430.178H163.7ZM168.593 434.168C167.473 434.168 166.549 433.818 165.863 433.104L166.395 432.348C166.843 432.866 167.697 433.314 168.621 433.314C169.657 433.314 170.231 432.824 170.231 432.152C170.231 430.514 166.045 431.522 166.045 429.016C166.045 427.952 166.941 427.07 168.551 427.07C169.713 427.07 170.525 427.504 171.057 428.05L170.567 428.778C170.161 428.288 169.433 427.924 168.551 427.924C167.627 427.924 167.053 428.386 167.053 428.988C167.053 430.458 171.239 429.492 171.239 432.124C171.239 433.258 170.329 434.168 168.593 434.168Z" fill="#50667C"/>
<path fill-rule="evenodd" clip-rule="evenodd" d="M142 284V288.999H144V281.999H112V275.998L98 275.995L98.0003 288.999H100V277.999H110V281.999H106V288.999H108V284H142ZM148 291.999H98.0003L102 325.999H144L148 291.999ZM146 293.998H100L104 323.999H142L146 293.998ZM110 301.998H136V303.997H110V301.998Z" fill="#03D8FF"/>
<path fill-rule="evenodd" clip-rule="evenodd" d="M142 284V288.999H144V281.999H112V275.998L98 275.995L98.0003 288.999H100V277.999H110V281.999H106V288.999H108V284H142ZM148 291.999H98.0003L102 325.999H144L148 291.999ZM146 293.998H100L104 323.999H142L146 293.998ZM110 301.998H136V303.997H110V301.998Z" fill="url(#paint1_linear_402_9788)"/>
<path opacity="0.7" fill-rule="evenodd" clip-rule="evenodd" d="M211.538 253.077H210.985C210.731 253.077 210.461 252.879 210.386 252.637L210.068 251.864C209.949 251.64 209.997 251.31 210.176 251.132L210.569 250.739C210.749 250.559 210.749 250.266 210.569 250.086L209.916 249.433C209.737 249.254 209.443 249.254 209.263 249.433L208.869 249.826C208.691 250.005 208.36 250.054 208.137 249.934L207.365 249.616C207.123 249.54 206.925 249.272 206.925 249.018V248.464C206.925 248.21 206.717 248.002 206.462 248.002H205.54C205.285 248.002 205.077 248.21 205.077 248.464V249.018C205.077 249.272 204.88 249.54 204.637 249.616L203.865 249.934C203.641 250.054 203.312 250.006 203.132 249.826L202.739 249.433C202.559 249.254 202.266 249.254 202.086 249.433L201.434 250.086C201.254 250.264 201.254 250.559 201.434 250.738L201.826 251.132C202.005 251.31 202.055 251.64 201.934 251.864L201.617 252.637C201.541 252.88 201.272 253.078 201.018 253.078L200.464 253.077C200.21 253.077 200.002 253.285 200.002 253.539V254.462C200.002 254.715 200.21 254.924 200.464 254.924H201.018C201.272 254.924 201.541 255.122 201.616 255.364L201.934 256.137C202.055 256.362 202.005 256.692 201.826 256.87L201.433 257.263C201.254 257.443 201.254 257.735 201.433 257.916L202.086 258.569C202.266 258.749 202.559 258.749 202.739 258.569L203.132 258.176C203.311 257.998 203.641 257.949 203.863 258.069L204.637 258.387C204.88 258.463 205.077 258.732 205.077 258.986V259.538C205.077 259.791 205.285 259.999 205.54 259.999H206.462C206.717 259.999 206.925 259.791 206.925 259.538V258.986C206.925 258.732 207.123 258.463 207.365 258.387L208.138 258.069C208.362 257.949 208.692 257.998 208.873 258.176L209.263 258.569C209.443 258.749 209.737 258.749 209.916 258.569L210.569 257.916C210.749 257.735 210.749 257.443 210.569 257.263L210.176 256.87C209.997 256.692 209.949 256.362 210.068 256.137L210.386 255.364C210.461 255.122 210.732 254.924 210.985 254.924H211.538C211.792 254.924 211.999 254.716 211.999 254.463V253.539C211.999 253.285 211.792 253.077 211.538 253.077ZM208.497 253.999C208.497 255.378 207.38 256.494 206.002 256.494C204.624 256.494 203.507 255.378 203.507 253.999C203.507 252.622 204.624 251.506 206.002 251.506C207.38 251.506 208.497 252.622 208.497 253.999Z" fill="#727272"/>
<path opacity="0.5" fill-rule="evenodd" clip-rule="evenodd" d="M219.996 253L217.5 255.995L215.005 253H219.996Z" fill="#A2A2A2"/>
<defs>
<linearGradient id="paint0_linear_402_9788" x1="296" y1="13" x2="296" y2="1" gradientUnits="userSpaceOnUse">
<stop stop-color="#EEEEEE"/>
<stop offset="1" stop-color="#ECECEC"/>
<stop offset="2" stop-color="#F4F4F4"/>
<stop offset="3" stop-color="white"/>
</linearGradient>
<linearGradient id="paint1_linear_402_9788" x1="123" y1="351.002" x2="173.005" y2="301.001" gradientUnits="userSpaceOnUse">
<stop stop-color="#3F89D6"/>
<stop offset="1" stop-color="#00BDD5"/>
</linearGradient>
</defs>
</svg>
