<svg width="335" height="467" viewBox="0 0 335 467" fill="none" xmlns="http://www.w3.org/2000/svg">
<mask id="path-1-outside-1_401_9684" maskUnits="userSpaceOnUse" x="34" y="0" width="263" height="14" fill="black">
<rect fill="white" x="34" width="263" height="14"/>
<path fill-rule="evenodd" clip-rule="evenodd" d="M46.917 8C46.441 10.8377 43.973 13 41 13C37.6863 13 35 10.3137 35 7C35 3.68629 37.6863 1 41 1C43.6124 1 45.8349 2.66962 46.6586 5H117.341C118.165 2.66962 120.388 1 123 1C125.612 1 127.835 2.66962 128.659 5H199.341C200.165 2.66962 202.388 1 205 1C207.612 1 209.835 2.66962 210.659 5H284.341C285.165 2.66962 287.388 1 290 1C293.314 1 296 3.68629 296 7C296 10.3137 293.314 13 290 13C287.027 13 284.559 10.8377 284.083 8H210.917C210.441 10.8377 207.973 13 205 13C202.027 13 199.559 10.8377 199.083 8H128.917C128.441 10.8377 125.973 13 123 13C120.027 13 117.559 10.8377 117.083 8H46.917Z"/>
</mask>
<path fill-rule="evenodd" clip-rule="evenodd" d="M46.917 8C46.441 10.8377 43.973 13 41 13C37.6863 13 35 10.3137 35 7C35 3.68629 37.6863 1 41 1C43.6124 1 45.8349 2.66962 46.6586 5H117.341C118.165 2.66962 120.388 1 123 1C125.612 1 127.835 2.66962 128.659 5H199.341C200.165 2.66962 202.388 1 205 1C207.612 1 209.835 2.66962 210.659 5H284.341C285.165 2.66962 287.388 1 290 1C293.314 1 296 3.68629 296 7C296 10.3137 293.314 13 290 13C287.027 13 284.559 10.8377 284.083 8H210.917C210.441 10.8377 207.973 13 205 13C202.027 13 199.559 10.8377 199.083 8H128.917C128.441 10.8377 125.973 13 123 13C120.027 13 117.559 10.8377 117.083 8H46.917Z" fill="url(#paint0_linear_401_9684)"/>
<path d="M46.917 8V7H46.0708L45.9308 7.83454L46.917 8ZM46.6586 5L45.7157 5.33325L45.9514 6H46.6586V5ZM117.341 5V6H118.049L118.284 5.33325L117.341 5ZM128.659 5L127.716 5.33325L127.951 6H128.659V5ZM199.341 5V6H200.049L200.284 5.33324L199.341 5ZM210.659 5L209.716 5.33324L209.951 6H210.659V5ZM284.341 5V6H285.049L285.284 5.33324L284.341 5ZM284.083 8L285.069 7.83455L284.929 7H284.083V8ZM210.917 8V7H210.071L209.931 7.83455L210.917 8ZM199.083 8L200.069 7.83455L199.929 7H199.083V8ZM128.917 8V7H128.071L127.931 7.83454L128.917 8ZM117.083 8L118.069 7.83454L117.929 7H117.083V8ZM41 14C44.4695 14 47.3477 11.4769 47.9033 8.16546L45.9308 7.83454C45.5342 10.1985 43.4765 12 41 12V14ZM34 7C34 10.866 37.134 14 41 14V12C38.2386 12 36 9.76142 36 7H34ZM41 0C37.134 0 34 3.13401 34 7H36C36 4.23858 38.2386 2 41 2V0ZM47.6014 4.66675C46.641 1.94932 44.0494 0 41 0V2C43.1755 2 45.0289 3.38991 45.7157 5.33325L47.6014 4.66675ZM46.6586 6H117.341V4H46.6586V6ZM123 0C119.951 0 117.359 1.94932 116.399 4.66675L118.284 5.33325C118.971 3.38991 120.825 2 123 2V0ZM129.601 4.66675C128.641 1.94932 126.049 0 123 0V2C125.175 2 127.029 3.38991 127.716 5.33325L129.601 4.66675ZM128.659 6H199.341V4H128.659V6ZM200.284 5.33324C200.971 3.38991 202.825 2 205 2V0C201.951 0 199.359 1.94932 198.399 4.66676L200.284 5.33324ZM205 2C207.175 2 209.029 3.38991 209.716 5.33324L211.601 4.66676C210.641 1.94932 208.049 0 205 0V2ZM210.659 6H284.341V4H210.659V6ZM290 0C286.951 0 284.359 1.94932 283.399 4.66676L285.284 5.33324C285.971 3.38991 287.825 2 290 2V0ZM297 7C297 3.13401 293.866 0 290 0V2C292.761 2 295 4.23857 295 7H297ZM290 14C293.866 14 297 10.866 297 7H295C295 9.76142 292.761 12 290 12V14ZM283.097 8.16545C283.652 11.4769 286.531 14 290 14V12C287.523 12 285.466 10.1985 285.069 7.83455L283.097 8.16545ZM284.083 7H210.917V9H284.083V7ZM209.931 7.83455C209.534 10.1985 207.477 12 205 12V14C208.469 14 211.348 11.4769 211.903 8.16545L209.931 7.83455ZM205 12C202.523 12 200.466 10.1985 200.069 7.83455L198.097 8.16545C198.652 11.4769 201.531 14 205 14V12ZM199.083 7H128.917V9H199.083V7ZM123 14C126.469 14 129.348 11.4769 129.903 8.16546L127.931 7.83454C127.534 10.1985 125.476 12 123 12V14ZM116.097 8.16546C116.652 11.4769 119.531 14 123 14V12C120.524 12 118.466 10.1985 118.069 7.83454L116.097 8.16546ZM117.083 7H46.917V9H117.083V7Z" fill="#DDDEDE" mask="url(#path-1-outside-1_401_9684)"/>
<rect x="41" y="5" width="76" height="3" fill="#3FBF5B"/>
<circle cx="41" cy="7" r="6" fill="#3FBF5B"/>
<circle cx="123" cy="7" r="4" fill="#3FBF5B"/>
<path d="M25.8465 40.168C24.2225 40.168 23.0325 39.552 22.2625 38.684L22.9485 37.802C23.5645 38.488 24.5725 39.132 25.8885 39.132C27.5545 39.132 28.0865 38.236 28.0865 37.522C28.0865 35.114 22.5565 36.444 22.5565 33.112C22.5565 31.572 23.9285 30.522 25.7625 30.522C27.1905 30.522 28.2965 30.998 29.0805 31.824L28.3805 32.678C27.6805 31.908 26.7005 31.558 25.6785 31.558C24.5585 31.558 23.7605 32.16 23.7605 33.042C23.7605 35.142 29.2905 33.938 29.2905 37.424C29.2905 38.782 28.3665 40.168 25.8465 40.168ZM34.0356 40.168C32.0336 40.168 30.5916 38.726 30.5916 36.612C30.5916 34.652 31.9916 33.07 33.9236 33.07C35.9676 33.07 37.1716 34.666 37.1716 36.696V36.962H31.6976C31.7816 38.236 32.6776 39.3 34.1336 39.3C34.9036 39.3 35.6876 38.992 36.2196 38.446L36.7236 39.132C36.0516 39.804 35.1416 40.168 34.0356 40.168ZM36.1356 36.192C36.1216 35.184 35.4496 33.938 33.9096 33.938C32.4676 33.938 31.7536 35.156 31.6976 36.192H36.1356ZM40.5803 40.168C39.5863 40.168 39.0823 39.594 39.0823 38.586V34.162H37.9623V33.238H39.0823V31.39H40.1323V33.238H41.5043V34.162H40.1323V38.362C40.1323 38.866 40.3563 39.23 40.8183 39.23C41.1123 39.23 41.3923 39.104 41.5323 38.95L41.8403 39.734C41.5743 39.986 41.1963 40.168 40.5803 40.168ZM52.2109 40H51.1609V39.048C50.6429 39.636 49.7609 40.168 48.7529 40.168C47.3389 40.168 46.5969 39.482 46.5969 38.012V33.238H47.6469V37.69C47.6469 38.88 48.2489 39.23 49.1589 39.23C49.9849 39.23 50.7689 38.754 51.1609 38.208V33.238H52.2109V40ZM57.6398 40.168C56.7158 40.168 55.9038 39.734 55.3578 38.978V42.576H54.3078V33.238H55.3578V34.246C55.8478 33.56 56.6878 33.07 57.6398 33.07C59.4178 33.07 60.6498 34.414 60.6498 36.612C60.6498 38.796 59.4178 40.168 57.6398 40.168ZM57.3738 39.23C58.7318 39.23 59.5438 38.11 59.5438 36.612C59.5438 35.114 58.7318 34.008 57.3738 34.008C56.5478 34.008 55.7218 34.498 55.3578 35.086V38.138C55.7218 38.726 56.5478 39.23 57.3738 39.23ZM23.4305 58H22.3805V57.23C21.8205 57.846 21.0505 58.168 20.1405 58.168C18.9925 58.168 17.7745 57.398 17.7745 55.928C17.7745 54.416 18.9925 53.702 20.1405 53.702C21.0645 53.702 21.8345 53.996 22.3805 54.626V53.408C22.3805 52.498 21.6525 51.98 20.6725 51.98C19.8605 51.98 19.2025 52.274 18.6005 52.918L18.1105 52.19C18.8385 51.434 19.7065 51.07 20.8125 51.07C22.2405 51.07 23.4305 51.714 23.4305 53.352V58ZM20.5185 57.412C21.2605 57.412 21.9745 57.132 22.3805 56.572V55.298C21.9745 54.738 21.2605 54.458 20.5185 54.458C19.5385 54.458 18.8525 55.074 18.8525 55.942C18.8525 56.796 19.5385 57.412 20.5185 57.412ZM28.5174 58.168C26.5014 58.168 25.1434 56.628 25.1434 54.612C25.1434 52.61 26.5014 51.07 28.5174 51.07C29.7494 51.07 30.4774 51.574 30.9954 52.246L30.2954 52.89C29.8474 52.274 29.2734 52.008 28.5734 52.008C27.1314 52.008 26.2354 53.114 26.2354 54.612C26.2354 56.11 27.1314 57.23 28.5734 57.23C29.2734 57.23 29.8474 56.95 30.2954 56.348L30.9954 56.992C30.4774 57.664 29.7494 58.168 28.5174 58.168ZM35.449 58.168C33.433 58.168 32.075 56.628 32.075 54.612C32.075 52.61 33.433 51.07 35.449 51.07C36.681 51.07 37.409 51.574 37.927 52.246L37.227 52.89C36.779 52.274 36.205 52.008 35.505 52.008C34.063 52.008 33.167 53.114 33.167 54.612C33.167 56.11 34.063 57.23 35.505 57.23C36.205 57.23 36.779 56.95 37.227 56.348L37.927 56.992C37.409 57.664 36.681 58.168 35.449 58.168ZM42.3526 58.168C40.2946 58.168 39.0066 56.572 39.0066 54.612C39.0066 52.652 40.2946 51.07 42.3526 51.07C44.4106 51.07 45.6986 52.652 45.6986 54.612C45.6986 56.572 44.4106 58.168 42.3526 58.168ZM42.3526 57.23C43.7946 57.23 44.5926 55.998 44.5926 54.612C44.5926 53.24 43.7946 52.008 42.3526 52.008C40.9106 52.008 40.0986 53.24 40.0986 54.612C40.0986 55.998 40.9106 57.23 42.3526 57.23ZM53.0244 58H51.9744V57.048C51.4564 57.636 50.5744 58.168 49.5664 58.168C48.1524 58.168 47.4104 57.482 47.4104 56.012V51.238H48.4604V55.69C48.4604 56.88 49.0624 57.23 49.9724 57.23C50.7984 57.23 51.5824 56.754 51.9744 56.208V51.238H53.0244V58ZM60.7353 58H59.6853V53.576C59.6853 52.386 59.0833 52.008 58.1733 52.008C57.3473 52.008 56.5633 52.512 56.1713 53.058V58H55.1213V51.238H56.1713V52.218C56.6473 51.658 57.5713 51.07 58.5793 51.07C59.9933 51.07 60.7353 51.784 60.7353 53.254V58ZM64.5402 58.168C63.5462 58.168 63.0422 57.594 63.0422 56.586V52.162H61.9222V51.238H63.0422V49.39H64.0922V51.238H65.4642V52.162H64.0922V56.362C64.0922 56.866 64.3162 57.23 64.7782 57.23C65.0722 57.23 65.3522 57.104 65.4922 56.95L65.8002 57.734C65.5342 57.986 65.1562 58.168 64.5402 58.168Z" fill="#CCCCCC"/>
<path d="M101.278 40.182C98.6177 40.182 96.4757 38.236 96.4757 35.338C96.4757 32.44 98.6177 30.508 101.278 30.508C102.93 30.508 104.078 31.236 104.904 32.258L103.98 32.832C103.392 32.076 102.398 31.544 101.278 31.544C99.2337 31.544 97.6797 33.112 97.6797 35.338C97.6797 37.55 99.2337 39.146 101.278 39.146C102.398 39.146 103.322 38.6 103.784 38.138V36.234H100.578V35.198H104.946V38.572C104.078 39.538 102.804 40.182 101.278 40.182ZM109.844 40.168C107.842 40.168 106.4 38.726 106.4 36.612C106.4 34.652 107.8 33.07 109.732 33.07C111.776 33.07 112.98 34.666 112.98 36.696V36.962H107.506C107.59 38.236 108.486 39.3 109.942 39.3C110.712 39.3 111.496 38.992 112.028 38.446L112.532 39.132C111.86 39.804 110.95 40.168 109.844 40.168ZM111.944 36.192C111.93 35.184 111.258 33.938 109.718 33.938C108.276 33.938 107.562 35.156 107.506 36.192H111.944ZM120.295 40H119.245V35.576C119.245 34.386 118.643 34.008 117.733 34.008C116.907 34.008 116.123 34.512 115.731 35.058V40H114.681V33.238H115.731V34.218C116.207 33.658 117.131 33.07 118.139 33.07C119.553 33.07 120.295 33.784 120.295 35.254V40ZM125.444 40.168C123.442 40.168 122 38.726 122 36.612C122 34.652 123.4 33.07 125.332 33.07C127.376 33.07 128.58 34.666 128.58 36.696V36.962H123.106C123.19 38.236 124.086 39.3 125.542 39.3C126.312 39.3 127.096 38.992 127.628 38.446L128.132 39.132C127.46 39.804 126.55 40.168 125.444 40.168ZM127.544 36.192C127.53 35.184 126.858 33.938 125.318 33.938C123.876 33.938 123.162 35.156 123.106 36.192H127.544ZM131.33 40H130.28V33.238H131.33V34.33C131.876 33.616 132.66 33.098 133.584 33.098V34.176C133.458 34.148 133.332 34.134 133.164 34.134C132.52 34.134 131.638 34.666 131.33 35.212V40ZM140.18 40H139.13V39.23C138.57 39.846 137.8 40.168 136.89 40.168C135.742 40.168 134.524 39.398 134.524 37.928C134.524 36.416 135.742 35.702 136.89 35.702C137.814 35.702 138.584 35.996 139.13 36.626V35.408C139.13 34.498 138.402 33.98 137.422 33.98C136.61 33.98 135.952 34.274 135.35 34.918L134.86 34.19C135.588 33.434 136.456 33.07 137.562 33.07C138.99 33.07 140.18 33.714 140.18 35.352V40ZM137.268 39.412C138.01 39.412 138.724 39.132 139.13 38.572V37.298C138.724 36.738 138.01 36.458 137.268 36.458C136.288 36.458 135.602 37.074 135.602 37.942C135.602 38.796 136.288 39.412 137.268 39.412ZM143.992 40.168C142.998 40.168 142.494 39.594 142.494 38.586V34.162H141.374V33.238H142.494V31.39H143.544V33.238H144.916V34.162H143.544V38.362C143.544 38.866 143.768 39.23 144.23 39.23C144.524 39.23 144.804 39.104 144.944 38.95L145.252 39.734C144.986 39.986 144.608 40.168 143.992 40.168ZM149.452 40.168C147.45 40.168 146.008 38.726 146.008 36.612C146.008 34.652 147.408 33.07 149.34 33.07C151.384 33.07 152.588 34.666 152.588 36.696V36.962H147.114C147.198 38.236 148.094 39.3 149.55 39.3C150.32 39.3 151.104 38.992 151.636 38.446L152.14 39.132C151.468 39.804 150.558 40.168 149.452 40.168ZM151.552 36.192C151.538 35.184 150.866 33.938 149.326 33.938C147.884 33.938 147.17 35.156 147.114 36.192H151.552ZM104.22 50.272C103.842 50.272 103.52 49.964 103.52 49.572C103.52 49.18 103.842 48.858 104.22 48.858C104.612 48.858 104.934 49.18 104.934 49.572C104.934 49.964 104.612 50.272 104.22 50.272ZM104.752 58H103.702V51.238H104.752V58ZM112.461 58H111.411V53.576C111.411 52.386 110.809 52.008 109.899 52.008C109.073 52.008 108.289 52.512 107.897 53.058V58H106.847V51.238H107.897V52.218C108.373 51.658 109.297 51.07 110.305 51.07C111.719 51.07 112.461 51.784 112.461 53.254V58ZM117.512 58H116.364L113.55 51.238H114.684L116.938 56.782L119.178 51.238H120.326L117.512 58ZM124.375 58.168C122.317 58.168 121.029 56.572 121.029 54.612C121.029 52.652 122.317 51.07 124.375 51.07C126.433 51.07 127.721 52.652 127.721 54.612C127.721 56.572 126.433 58.168 124.375 58.168ZM124.375 57.23C125.817 57.23 126.615 55.998 126.615 54.612C126.615 53.24 125.817 52.008 124.375 52.008C122.933 52.008 122.121 53.24 122.121 54.612C122.121 55.998 122.933 57.23 124.375 57.23ZM129.951 50.272C129.573 50.272 129.251 49.964 129.251 49.572C129.251 49.18 129.573 48.858 129.951 48.858C130.343 48.858 130.665 49.18 130.665 49.572C130.665 49.964 130.343 50.272 129.951 50.272ZM130.483 58H129.433V51.238H130.483V58ZM135.559 58.168C133.543 58.168 132.185 56.628 132.185 54.612C132.185 52.61 133.543 51.07 135.559 51.07C136.791 51.07 137.519 51.574 138.037 52.246L137.337 52.89C136.889 52.274 136.315 52.008 135.615 52.008C134.173 52.008 133.277 53.114 133.277 54.612C133.277 56.11 134.173 57.23 135.615 57.23C136.315 57.23 136.889 56.95 137.337 56.348L138.037 56.992C137.519 57.664 136.791 58.168 135.559 58.168ZM142.561 58.168C140.559 58.168 139.117 56.726 139.117 54.612C139.117 52.652 140.517 51.07 142.449 51.07C144.493 51.07 145.697 52.666 145.697 54.696V54.962H140.223C140.307 56.236 141.203 57.3 142.659 57.3C143.429 57.3 144.213 56.992 144.745 56.446L145.249 57.132C144.577 57.804 143.667 58.168 142.561 58.168ZM144.661 54.192C144.647 53.184 143.975 51.938 142.435 51.938C140.993 51.938 140.279 53.156 140.223 54.192H144.661Z" fill="#50667C"/>
<path d="M194.258 40H192.928L192.102 37.928H187.454L186.628 40H185.298L189.05 30.662H190.492L194.258 40ZM191.752 36.892L189.778 31.866L187.79 36.892H191.752ZM201.387 40H200.337V38.992C199.833 39.678 199.007 40.168 198.055 40.168C196.291 40.168 195.045 38.824 195.045 36.626C195.045 34.47 196.277 33.07 198.055 33.07C198.965 33.07 199.791 33.518 200.337 34.26V30.662H201.387V40ZM198.307 39.23C199.147 39.23 199.959 38.754 200.337 38.166V35.1C199.959 34.512 199.147 34.008 198.307 34.008C196.949 34.008 196.137 35.128 196.137 36.626C196.137 38.124 196.949 39.23 198.307 39.23ZM212.701 40H211.651V35.408C211.651 34.554 211.273 34.008 210.405 34.008C209.705 34.008 208.963 34.512 208.613 35.044V40H207.563V35.408C207.563 34.554 207.199 34.008 206.317 34.008C205.631 34.008 204.903 34.512 204.539 35.058V40H203.489V33.238H204.539V34.218C204.819 33.784 205.729 33.07 206.723 33.07C207.759 33.07 208.347 33.63 208.543 34.33C208.921 33.714 209.831 33.07 210.811 33.07C212.043 33.07 212.701 33.756 212.701 35.114V40ZM215.314 32.272C214.936 32.272 214.614 31.964 214.614 31.572C214.614 31.18 214.936 30.858 215.314 30.858C215.706 30.858 216.028 31.18 216.028 31.572C216.028 31.964 215.706 32.272 215.314 32.272ZM215.846 40H214.796V33.238H215.846V40ZM223.555 40H222.505V35.576C222.505 34.386 221.903 34.008 220.993 34.008C220.167 34.008 219.383 34.512 218.991 35.058V40H217.941V33.238H218.991V34.218C219.467 33.658 220.391 33.07 221.399 33.07C222.813 33.07 223.555 33.784 223.555 35.254V40ZM226.212 40.14C225.792 40.14 225.442 39.79 225.442 39.37C225.442 38.95 225.792 38.6 226.212 38.6C226.632 38.6 226.982 38.95 226.982 39.37C226.982 39.79 226.632 40.14 226.212 40.14Z" fill="#CCCCCC"/>
<path d="M265.815 40H264.653V32.314L261.475 40H260.999L257.835 32.314V40H256.673V30.662H258.339L261.237 37.69L264.149 30.662H265.815V40ZM273.229 40H272.179V39.23C271.619 39.846 270.849 40.168 269.939 40.168C268.791 40.168 267.573 39.398 267.573 37.928C267.573 36.416 268.791 35.702 269.939 35.702C270.863 35.702 271.633 35.996 272.179 36.626V35.408C272.179 34.498 271.451 33.98 270.471 33.98C269.659 33.98 269.001 34.274 268.399 34.918L267.909 34.19C268.637 33.434 269.505 33.07 270.611 33.07C272.039 33.07 273.229 33.714 273.229 35.352V40ZM270.317 39.412C271.059 39.412 271.773 39.132 272.179 38.572V37.298C271.773 36.738 271.059 36.458 270.317 36.458C269.337 36.458 268.651 37.074 268.651 37.942C268.651 38.796 269.337 39.412 270.317 39.412ZM276.384 40H275.334V33.238H276.384V34.33C276.93 33.616 277.714 33.098 278.638 33.098V34.176C278.512 34.148 278.386 34.134 278.218 34.134C277.574 34.134 276.692 34.666 276.384 35.212V40ZM285.905 40H284.561L282.125 36.962L281.005 38.068V40H279.955V30.662H281.005V36.836L284.561 33.238H285.891L282.895 36.304L285.905 40ZM290.158 40.168C288.156 40.168 286.714 38.726 286.714 36.612C286.714 34.652 288.114 33.07 290.046 33.07C292.09 33.07 293.294 34.666 293.294 36.696V36.962H287.82C287.904 38.236 288.8 39.3 290.256 39.3C291.026 39.3 291.81 38.992 292.342 38.446L292.846 39.132C292.174 39.804 291.264 40.168 290.158 40.168ZM292.258 36.192C292.244 35.184 291.572 33.938 290.032 33.938C288.59 33.938 287.876 35.156 287.82 36.192H292.258ZM296.702 40.168C295.708 40.168 295.204 39.594 295.204 38.586V34.162H294.084V33.238H295.204V31.39H296.254V33.238H297.626V34.162H296.254V38.362C296.254 38.866 296.478 39.23 296.94 39.23C297.234 39.23 297.514 39.104 297.654 38.95L297.962 39.734C297.696 39.986 297.318 40.168 296.702 40.168ZM302.442 40.168C301.518 40.168 300.706 39.734 300.16 38.978V42.576H299.11V33.238H300.16V34.246C300.65 33.56 301.49 33.07 302.442 33.07C304.22 33.07 305.452 34.414 305.452 36.612C305.452 38.796 304.22 40.168 302.442 40.168ZM302.176 39.23C303.534 39.23 304.346 38.11 304.346 36.612C304.346 35.114 303.534 34.008 302.176 34.008C301.35 34.008 300.524 34.498 300.16 35.086V38.138C300.524 38.726 301.35 39.23 302.176 39.23ZM308.171 40H307.121V30.662H308.171V40ZM315.544 40H314.494V39.23C313.934 39.846 313.164 40.168 312.254 40.168C311.106 40.168 309.888 39.398 309.888 37.928C309.888 36.416 311.106 35.702 312.254 35.702C313.178 35.702 313.948 35.996 314.494 36.626V35.408C314.494 34.498 313.766 33.98 312.786 33.98C311.974 33.98 311.316 34.274 310.714 34.918L310.224 34.19C310.952 33.434 311.82 33.07 312.926 33.07C314.354 33.07 315.544 33.714 315.544 35.352V40ZM312.632 39.412C313.374 39.412 314.088 39.132 314.494 38.572V37.298C314.088 36.738 313.374 36.458 312.632 36.458C311.652 36.458 310.966 37.074 310.966 37.942C310.966 38.796 311.652 39.412 312.632 39.412ZM320.631 40.168C318.615 40.168 317.257 38.628 317.257 36.612C317.257 34.61 318.615 33.07 320.631 33.07C321.863 33.07 322.591 33.574 323.109 34.246L322.409 34.89C321.961 34.274 321.387 34.008 320.687 34.008C319.245 34.008 318.349 35.114 318.349 36.612C318.349 38.11 319.245 39.23 320.687 39.23C321.387 39.23 321.961 38.95 322.409 38.348L323.109 38.992C322.591 39.664 321.863 40.168 320.631 40.168ZM327.632 40.168C325.63 40.168 324.188 38.726 324.188 36.612C324.188 34.652 325.588 33.07 327.52 33.07C329.564 33.07 330.768 34.666 330.768 36.696V36.962H325.294C325.378 38.236 326.274 39.3 327.73 39.3C328.5 39.3 329.284 38.992 329.816 38.446L330.32 39.132C329.648 39.804 328.738 40.168 327.632 40.168ZM329.732 36.192C329.718 35.184 329.046 33.938 327.506 33.938C326.064 33.938 325.35 35.156 325.294 36.192H329.732Z" fill="#CCCCCC"/>
<path fill-rule="evenodd" clip-rule="evenodd" d="M120.006 23.9999L123.5 20.0068L126.994 23.9999H120.006Z" fill="#3FBF5B"/>
<line x1="44.5" y1="70" x2="44.5" y2="199" stroke="#CCCCCC" stroke-dasharray="2 2"/>
<line x1="97" y1="123.5" x2="44" y2="123.5" stroke="#CCCCCC" stroke-dasharray="2 2"/>
<line x1="117" y1="70.5" x2="44" y2="70.5" stroke="#CCCCCC" stroke-dasharray="2 2"/>
<line x1="97" y1="149.5" x2="44" y2="149.5" stroke="#CCCCCC" stroke-dasharray="2 2"/>
<line x1="97" y1="174.5" x2="44" y2="174.5" stroke="#CCCCCC" stroke-dasharray="2 2"/>
<line x1="97" y1="199.5" x2="44" y2="199.5" stroke="#CCCCCC" stroke-dasharray="2 2"/>
<path d="M119.27 128H118.108V120.202L116.61 121.784L115.91 121.07L118.248 118.662H119.27V128ZM123.717 128.14C123.297 128.14 122.947 127.79 122.947 127.37C122.947 126.95 123.297 126.6 123.717 126.6C124.137 126.6 124.487 126.95 124.487 127.37C124.487 127.79 124.137 128.14 123.717 128.14ZM135.516 128.168C132.828 128.168 130.714 126.208 130.714 123.338C130.714 120.468 132.828 118.508 135.516 118.508C137.168 118.508 138.316 119.306 139.058 120.356L138.078 120.902C137.546 120.118 136.58 119.544 135.516 119.544C133.472 119.544 131.918 121.112 131.918 123.338C131.918 125.55 133.472 127.132 135.516 127.132C136.58 127.132 137.546 126.572 138.078 125.774L139.072 126.32C138.288 127.384 137.168 128.168 135.516 128.168ZM146.139 128H145.089V123.548C145.089 122.358 144.473 122.008 143.563 122.008C142.751 122.008 141.967 122.512 141.561 123.058V128H140.511V118.662H141.561V122.218C142.037 121.658 142.961 121.07 143.983 121.07C145.397 121.07 146.139 121.756 146.139 123.226V128ZM151.19 128.168C149.132 128.168 147.844 126.572 147.844 124.612C147.844 122.652 149.132 121.07 151.19 121.07C153.248 121.07 154.536 122.652 154.536 124.612C154.536 126.572 153.248 128.168 151.19 128.168ZM151.19 127.23C152.632 127.23 153.43 125.998 153.43 124.612C153.43 123.24 152.632 122.008 151.19 122.008C149.748 122.008 148.936 123.24 148.936 124.612C148.936 125.998 149.748 127.23 151.19 127.23ZM159.201 128.168C157.143 128.168 155.855 126.572 155.855 124.612C155.855 122.652 157.143 121.07 159.201 121.07C161.259 121.07 162.547 122.652 162.547 124.612C162.547 126.572 161.259 128.168 159.201 128.168ZM159.201 127.23C160.643 127.23 161.441 125.998 161.441 124.612C161.441 123.24 160.643 122.008 159.201 122.008C157.759 122.008 156.947 123.24 156.947 124.612C156.947 125.998 157.759 127.23 159.201 127.23ZM166.401 128.168C165.295 128.168 164.357 127.832 163.671 127.104L164.217 126.348C164.665 126.866 165.519 127.314 166.443 127.314C167.479 127.314 168.039 126.824 168.039 126.152C168.039 124.514 163.853 125.522 163.853 123.016C163.853 121.966 164.763 121.07 166.373 121.07C167.521 121.07 168.333 121.504 168.879 122.05L168.389 122.778C167.983 122.288 167.241 121.924 166.373 121.924C165.449 121.924 164.875 122.386 164.875 122.988C164.875 124.472 169.061 123.492 169.061 126.124C169.061 127.258 168.151 128.168 166.401 128.168ZM173.819 128.168C171.817 128.168 170.375 126.726 170.375 124.612C170.375 122.652 171.775 121.07 173.707 121.07C175.751 121.07 176.955 122.666 176.955 124.696V124.962H171.481C171.565 126.236 172.461 127.3 173.917 127.3C174.687 127.3 175.471 126.992 176.003 126.446L176.507 127.132C175.835 127.804 174.925 128.168 173.819 128.168ZM175.919 124.192C175.905 123.184 175.233 121.938 173.693 121.938C172.251 121.938 171.537 123.156 171.481 124.192H175.919ZM185.779 128H184.617V119.698H181.663V118.662H188.747V119.698H185.779V128ZM194.201 128H193.151V127.23C192.591 127.846 191.821 128.168 190.911 128.168C189.763 128.168 188.545 127.398 188.545 125.928C188.545 124.416 189.763 123.702 190.911 123.702C191.835 123.702 192.605 123.996 193.151 124.626V123.408C193.151 122.498 192.423 121.98 191.443 121.98C190.631 121.98 189.973 122.274 189.371 122.918L188.881 122.19C189.609 121.434 190.477 121.07 191.583 121.07C193.011 121.07 194.201 121.714 194.201 123.352V128ZM191.289 127.412C192.031 127.412 192.745 127.132 193.151 126.572V125.298C192.745 124.738 192.031 124.458 191.289 124.458C190.309 124.458 189.623 125.074 189.623 125.942C189.623 126.796 190.309 127.412 191.289 127.412ZM201.906 128H200.688L198.658 125.228L196.628 128H195.424L198.014 124.528L195.564 121.238H196.782L198.658 123.814L200.534 121.238H201.752L199.302 124.528L201.906 128ZM207.928 128H206.766V118.662H207.928V128ZM213.307 128H210.115V118.662H213.307C216.205 118.662 218.095 120.692 218.095 123.338C218.095 125.998 216.205 128 213.307 128ZM213.307 126.964C215.575 126.964 216.891 125.34 216.891 123.338C216.891 121.322 215.617 119.698 213.307 119.698H211.277V126.964H213.307Z" fill="#50667C"/>
<path d="M117.912 178.168C116.33 178.168 115.168 177.468 114.594 176.628L115.28 175.9C115.826 176.628 116.778 177.132 117.884 177.132C119.242 177.132 120.068 176.46 120.068 175.382C120.068 174.22 119.116 173.73 117.744 173.73C117.352 173.73 116.918 173.73 116.778 173.744V172.68C116.932 172.694 117.366 172.694 117.744 172.694C118.92 172.694 119.914 172.232 119.914 171.154C119.914 170.118 118.962 169.558 117.828 169.558C116.806 169.558 116.05 169.95 115.364 170.692L114.72 169.964C115.392 169.152 116.47 168.522 117.912 168.522C119.704 168.522 121.076 169.432 121.076 171.014C121.076 172.358 119.942 173.03 119.06 173.184C119.914 173.254 121.216 173.982 121.216 175.48C121.216 177.034 119.97 178.168 117.912 178.168ZM123.717 178.14C123.297 178.14 122.947 177.79 122.947 177.37C122.947 176.95 123.297 176.6 123.717 176.6C124.137 176.6 124.487 176.95 124.487 177.37C124.487 177.79 124.137 178.14 123.717 178.14ZM135.516 178.168C132.828 178.168 130.714 176.208 130.714 173.338C130.714 170.468 132.828 168.508 135.516 168.508C137.168 168.508 138.316 169.306 139.058 170.356L138.078 170.902C137.546 170.118 136.58 169.544 135.516 169.544C133.472 169.544 131.918 171.112 131.918 173.338C131.918 175.55 133.472 177.132 135.516 177.132C136.58 177.132 137.546 176.572 138.078 175.774L139.072 176.32C138.288 177.384 137.168 178.168 135.516 178.168ZM146.139 178H145.089V173.548C145.089 172.358 144.473 172.008 143.563 172.008C142.751 172.008 141.967 172.512 141.561 173.058V178H140.511V168.662H141.561V172.218C142.037 171.658 142.961 171.07 143.983 171.07C145.397 171.07 146.139 171.756 146.139 173.226V178ZM151.19 178.168C149.132 178.168 147.844 176.572 147.844 174.612C147.844 172.652 149.132 171.07 151.19 171.07C153.248 171.07 154.536 172.652 154.536 174.612C154.536 176.572 153.248 178.168 151.19 178.168ZM151.19 177.23C152.632 177.23 153.43 175.998 153.43 174.612C153.43 173.24 152.632 172.008 151.19 172.008C149.748 172.008 148.936 173.24 148.936 174.612C148.936 175.998 149.748 177.23 151.19 177.23ZM159.201 178.168C157.143 178.168 155.855 176.572 155.855 174.612C155.855 172.652 157.143 171.07 159.201 171.07C161.259 171.07 162.547 172.652 162.547 174.612C162.547 176.572 161.259 178.168 159.201 178.168ZM159.201 177.23C160.643 177.23 161.441 175.998 161.441 174.612C161.441 173.24 160.643 172.008 159.201 172.008C157.759 172.008 156.947 173.24 156.947 174.612C156.947 175.998 157.759 177.23 159.201 177.23ZM166.401 178.168C165.295 178.168 164.357 177.832 163.671 177.104L164.217 176.348C164.665 176.866 165.519 177.314 166.443 177.314C167.479 177.314 168.039 176.824 168.039 176.152C168.039 174.514 163.853 175.522 163.853 173.016C163.853 171.966 164.763 171.07 166.373 171.07C167.521 171.07 168.333 171.504 168.879 172.05L168.389 172.778C167.983 172.288 167.241 171.924 166.373 171.924C165.449 171.924 164.875 172.386 164.875 172.988C164.875 174.472 169.061 173.492 169.061 176.124C169.061 177.258 168.151 178.168 166.401 178.168ZM173.819 178.168C171.817 178.168 170.375 176.726 170.375 174.612C170.375 172.652 171.775 171.07 173.707 171.07C175.751 171.07 176.955 172.666 176.955 174.696V174.962H171.481C171.565 176.236 172.461 177.3 173.917 177.3C174.687 177.3 175.471 176.992 176.003 176.446L176.507 177.132C175.835 177.804 174.925 178.168 173.819 178.168ZM175.919 174.192C175.905 173.184 175.233 171.938 173.693 171.938C172.251 171.938 171.537 173.156 171.481 174.192H175.919ZM183.973 178.168C182.979 178.168 182.475 177.594 182.475 176.586V172.162H181.355V171.238H182.475V169.39H183.525V171.238H184.897V172.162H183.525V176.362C183.525 176.866 183.749 177.23 184.211 177.23C184.505 177.23 184.785 177.104 184.925 176.95L185.233 177.734C184.967 177.986 184.589 178.168 183.973 178.168ZM186.002 180.646L186.17 179.694C186.324 179.764 186.576 179.806 186.744 179.806C187.206 179.806 187.514 179.652 187.752 179.092L188.2 178.07L185.372 171.238H186.506L188.76 176.782L191 171.238H192.148L188.76 179.372C188.354 180.352 187.668 180.73 186.772 180.744C186.548 180.744 186.198 180.702 186.002 180.646ZM196.575 178.168C195.651 178.168 194.839 177.734 194.293 176.978V180.576H193.243V171.238H194.293V172.246C194.783 171.56 195.623 171.07 196.575 171.07C198.353 171.07 199.585 172.414 199.585 174.612C199.585 176.796 198.353 178.168 196.575 178.168ZM196.309 177.23C197.667 177.23 198.479 176.11 198.479 174.612C198.479 173.114 197.667 172.008 196.309 172.008C195.483 172.008 194.657 172.498 194.293 173.086V176.138C194.657 176.726 195.483 177.23 196.309 177.23ZM204.307 178.168C202.305 178.168 200.863 176.726 200.863 174.612C200.863 172.652 202.263 171.07 204.195 171.07C206.239 171.07 207.443 172.666 207.443 174.696V174.962H201.969C202.053 176.236 202.949 177.3 204.405 177.3C205.175 177.3 205.959 176.992 206.491 176.446L206.995 177.132C206.323 177.804 205.413 178.168 204.307 178.168ZM206.407 174.192C206.393 173.184 205.721 171.938 204.181 171.938C202.739 171.938 202.025 173.156 201.969 174.192H206.407ZM215.707 178.168C213.649 178.168 212.361 176.572 212.361 174.612C212.361 172.652 213.649 171.07 215.707 171.07C217.765 171.07 219.053 172.652 219.053 174.612C219.053 176.572 217.765 178.168 215.707 178.168ZM215.707 177.23C217.149 177.23 217.947 175.998 217.947 174.612C217.947 173.24 217.149 172.008 215.707 172.008C214.265 172.008 213.453 173.24 213.453 174.612C213.453 175.998 214.265 177.23 215.707 177.23ZM222.109 178H221.059V172.162H219.939V171.238H221.059V170.72C221.059 169.334 221.815 168.522 223.019 168.522C223.551 168.522 224.027 168.648 224.447 169.04L224.013 169.726C223.789 169.53 223.523 169.39 223.173 169.39C222.487 169.39 222.109 169.866 222.109 170.72V171.238H223.481V172.162H222.109V178ZM228.857 170.272C228.479 170.272 228.157 169.964 228.157 169.572C228.157 169.18 228.479 168.858 228.857 168.858C229.249 168.858 229.571 169.18 229.571 169.572C229.571 169.964 229.249 170.272 228.857 170.272ZM229.389 178H228.339V171.238H229.389V178ZM237.098 178H236.048V173.576C236.048 172.386 235.446 172.008 234.536 172.008C233.71 172.008 232.926 172.512 232.534 173.058V178H231.484V171.238H232.534V172.218C233.01 171.658 233.934 171.07 234.942 171.07C236.356 171.07 237.098 171.784 237.098 173.254V178ZM242.149 178H241.001L238.187 171.238H239.321L241.575 176.782L243.815 171.238H244.963L242.149 178ZM249.012 178.168C246.954 178.168 245.666 176.572 245.666 174.612C245.666 172.652 246.954 171.07 249.012 171.07C251.07 171.07 252.358 172.652 252.358 174.612C252.358 176.572 251.07 178.168 249.012 178.168ZM249.012 177.23C250.454 177.23 251.252 175.998 251.252 174.612C251.252 173.24 250.454 172.008 249.012 172.008C247.57 172.008 246.758 173.24 246.758 174.612C246.758 175.998 247.57 177.23 249.012 177.23ZM254.588 170.272C254.21 170.272 253.888 169.964 253.888 169.572C253.888 169.18 254.21 168.858 254.588 168.858C254.98 168.858 255.302 169.18 255.302 169.572C255.302 169.964 254.98 170.272 254.588 170.272ZM255.12 178H254.07V171.238H255.12V178ZM260.196 178.168C258.18 178.168 256.822 176.628 256.822 174.612C256.822 172.61 258.18 171.07 260.196 171.07C261.428 171.07 262.156 171.574 262.674 172.246L261.974 172.89C261.526 172.274 260.952 172.008 260.252 172.008C258.81 172.008 257.914 173.114 257.914 174.612C257.914 176.11 258.81 177.23 260.252 177.23C260.952 177.23 261.526 176.95 261.974 176.348L262.674 176.992C262.156 177.664 261.428 178.168 260.196 178.168ZM267.198 178.168C265.196 178.168 263.754 176.726 263.754 174.612C263.754 172.652 265.154 171.07 267.086 171.07C269.13 171.07 270.334 172.666 270.334 174.696V174.962H264.86C264.944 176.236 265.84 177.3 267.296 177.3C268.066 177.3 268.85 176.992 269.382 176.446L269.886 177.132C269.214 177.804 268.304 178.168 267.198 178.168ZM269.298 174.192C269.284 173.184 268.612 171.938 267.072 171.938C265.63 171.938 264.916 173.156 264.86 174.192H269.298Z" fill="#50667C"/>
<path d="M121.118 153H114.706V152.076C118.066 149.43 119.886 147.876 119.886 146.266C119.886 145.076 118.906 144.558 117.94 144.558C116.82 144.558 115.952 145.034 115.406 145.734L114.692 144.992C115.406 144.054 116.624 143.522 117.94 143.522C119.494 143.522 121.076 144.404 121.076 146.266C121.076 148.17 119.144 149.906 116.54 151.964H121.118V153ZM123.717 153.14C123.297 153.14 122.947 152.79 122.947 152.37C122.947 151.95 123.297 151.6 123.717 151.6C124.137 151.6 124.487 151.95 124.487 152.37C124.487 152.79 124.137 153.14 123.717 153.14ZM135.516 153.168C132.828 153.168 130.714 151.208 130.714 148.338C130.714 145.468 132.828 143.508 135.516 143.508C137.168 143.508 138.316 144.306 139.058 145.356L138.078 145.902C137.546 145.118 136.58 144.544 135.516 144.544C133.472 144.544 131.918 146.112 131.918 148.338C131.918 150.55 133.472 152.132 135.516 152.132C136.58 152.132 137.546 151.572 138.078 150.774L139.072 151.32C138.288 152.384 137.168 153.168 135.516 153.168ZM146.139 153H145.089V148.548C145.089 147.358 144.473 147.008 143.563 147.008C142.751 147.008 141.967 147.512 141.561 148.058V153H140.511V143.662H141.561V147.218C142.037 146.658 142.961 146.07 143.983 146.07C145.397 146.07 146.139 146.756 146.139 148.226V153ZM151.19 153.168C149.132 153.168 147.844 151.572 147.844 149.612C147.844 147.652 149.132 146.07 151.19 146.07C153.248 146.07 154.536 147.652 154.536 149.612C154.536 151.572 153.248 153.168 151.19 153.168ZM151.19 152.23C152.632 152.23 153.43 150.998 153.43 149.612C153.43 148.24 152.632 147.008 151.19 147.008C149.748 147.008 148.936 148.24 148.936 149.612C148.936 150.998 149.748 152.23 151.19 152.23ZM159.201 153.168C157.143 153.168 155.855 151.572 155.855 149.612C155.855 147.652 157.143 146.07 159.201 146.07C161.259 146.07 162.547 147.652 162.547 149.612C162.547 151.572 161.259 153.168 159.201 153.168ZM159.201 152.23C160.643 152.23 161.441 150.998 161.441 149.612C161.441 148.24 160.643 147.008 159.201 147.008C157.759 147.008 156.947 148.24 156.947 149.612C156.947 150.998 157.759 152.23 159.201 152.23ZM166.401 153.168C165.295 153.168 164.357 152.832 163.671 152.104L164.217 151.348C164.665 151.866 165.519 152.314 166.443 152.314C167.479 152.314 168.039 151.824 168.039 151.152C168.039 149.514 163.853 150.522 163.853 148.016C163.853 146.966 164.763 146.07 166.373 146.07C167.521 146.07 168.333 146.504 168.879 147.05L168.389 147.778C167.983 147.288 167.241 146.924 166.373 146.924C165.449 146.924 164.875 147.386 164.875 147.988C164.875 149.472 169.061 148.492 169.061 151.124C169.061 152.258 168.151 153.168 166.401 153.168ZM173.819 153.168C171.817 153.168 170.375 151.726 170.375 149.612C170.375 147.652 171.775 146.07 173.707 146.07C175.751 146.07 176.955 147.666 176.955 149.696V149.962H171.481C171.565 151.236 172.461 152.3 173.917 152.3C174.687 152.3 175.471 151.992 176.003 151.446L176.507 152.132C175.835 152.804 174.925 153.168 173.819 153.168ZM175.919 149.192C175.905 148.184 175.233 146.938 173.693 146.938C172.251 146.938 171.537 148.156 171.481 149.192H175.919ZM183.315 151.166C183.679 151.754 184.505 152.23 185.331 152.23C186.703 152.23 187.515 151.124 187.515 149.626C187.515 148.128 186.703 147.008 185.331 147.008C184.505 147.008 183.679 147.512 183.315 148.1V151.166ZM183.315 153H182.265V143.662H183.315V147.26C183.861 146.518 184.673 146.07 185.597 146.07C187.361 146.07 188.607 147.47 188.607 149.626C188.607 151.824 187.361 153.168 185.597 153.168C184.645 153.168 183.819 152.678 183.315 151.992V153ZM191.368 153H190.318V146.238H191.368V147.33C191.914 146.616 192.698 146.098 193.622 146.098V147.176C193.496 147.148 193.37 147.134 193.202 147.134C192.558 147.134 191.676 147.666 191.368 148.212V153ZM200.217 153H199.167V152.23C198.607 152.846 197.837 153.168 196.927 153.168C195.779 153.168 194.561 152.398 194.561 150.928C194.561 149.416 195.779 148.702 196.927 148.702C197.851 148.702 198.621 148.996 199.167 149.626V148.408C199.167 147.498 198.439 146.98 197.459 146.98C196.647 146.98 195.989 147.274 195.387 147.918L194.897 147.19C195.625 146.434 196.493 146.07 197.599 146.07C199.027 146.07 200.217 146.714 200.217 148.352V153ZM197.305 152.412C198.047 152.412 198.761 152.132 199.167 151.572V150.298C198.761 149.738 198.047 149.458 197.305 149.458C196.325 149.458 195.639 150.074 195.639 150.942C195.639 151.796 196.325 152.412 197.305 152.412ZM207.935 153H206.885V148.576C206.885 147.386 206.283 147.008 205.373 147.008C204.547 147.008 203.763 147.512 203.371 148.058V153H202.321V146.238H203.371V147.218C203.847 146.658 204.771 146.07 205.779 146.07C207.193 146.07 207.935 146.784 207.935 148.254V153ZM213.014 153.168C210.998 153.168 209.64 151.628 209.64 149.612C209.64 147.61 210.998 146.07 213.014 146.07C214.246 146.07 214.974 146.574 215.492 147.246L214.792 147.89C214.344 147.274 213.77 147.008 213.07 147.008C211.628 147.008 210.732 148.114 210.732 149.612C210.732 151.11 211.628 152.23 213.07 152.23C213.77 152.23 214.344 151.95 214.792 151.348L215.492 151.992C214.974 152.664 214.246 153.168 213.014 153.168ZM222.592 153H221.542V148.548C221.542 147.358 220.926 147.008 220.016 147.008C219.204 147.008 218.42 147.512 218.014 148.058V153H216.964V143.662H218.014V147.218C218.49 146.658 219.414 146.07 220.436 146.07C221.85 146.07 222.592 146.756 222.592 148.226V153Z" fill="#50667C"/>
<path d="M120.054 203H118.892V200.634H114.454V199.668L118.458 193.662H120.054V199.612H121.37V200.634H120.054V203ZM118.892 199.612V194.74L115.616 199.612H118.892ZM123.717 203.14C123.297 203.14 122.947 202.79 122.947 202.37C122.947 201.95 123.297 201.6 123.717 201.6C124.137 201.6 124.487 201.95 124.487 202.37C124.487 202.79 124.137 203.14 123.717 203.14ZM132.254 203H131.092V193.662H134.844C136.72 193.662 137.77 194.95 137.77 196.476C137.77 198.002 136.692 199.29 134.844 199.29H132.254V203ZM134.704 198.254C135.81 198.254 136.566 197.526 136.566 196.476C136.566 195.426 135.81 194.698 134.704 194.698H132.254V198.254H134.704ZM144.881 203H143.831V202.048C143.313 202.636 142.431 203.168 141.423 203.168C140.009 203.168 139.267 202.482 139.267 201.012V196.238H140.317V200.69C140.317 201.88 140.919 202.23 141.829 202.23C142.655 202.23 143.439 201.754 143.831 201.208V196.238H144.881V203ZM148.028 203H146.978V196.238H148.028V197.33C148.574 196.616 149.358 196.098 150.282 196.098V197.176C150.156 197.148 150.03 197.134 149.862 197.134C149.218 197.134 148.336 197.666 148.028 198.212V203ZM154.581 203.168C152.565 203.168 151.207 201.628 151.207 199.612C151.207 197.61 152.565 196.07 154.581 196.07C155.813 196.07 156.541 196.574 157.059 197.246L156.359 197.89C155.911 197.274 155.337 197.008 154.637 197.008C153.195 197.008 152.299 198.114 152.299 199.612C152.299 201.11 153.195 202.23 154.637 202.23C155.337 202.23 155.911 201.95 156.359 201.348L157.059 201.992C156.541 202.664 155.813 203.168 154.581 203.168ZM164.158 203H163.108V198.548C163.108 197.358 162.492 197.008 161.582 197.008C160.77 197.008 159.986 197.512 159.58 198.058V203H158.53V193.662H159.58V197.218C160.056 196.658 160.98 196.07 162.002 196.07C163.416 196.07 164.158 196.756 164.158 198.226V203ZM171.533 203H170.483V202.23C169.923 202.846 169.153 203.168 168.243 203.168C167.095 203.168 165.877 202.398 165.877 200.928C165.877 199.416 167.095 198.702 168.243 198.702C169.167 198.702 169.937 198.996 170.483 199.626V198.408C170.483 197.498 169.755 196.98 168.775 196.98C167.963 196.98 167.305 197.274 166.703 197.918L166.213 197.19C166.941 196.434 167.809 196.07 168.915 196.07C170.343 196.07 171.533 196.714 171.533 198.352V203ZM168.621 202.412C169.363 202.412 170.077 202.132 170.483 201.572V200.298C170.077 199.738 169.363 199.458 168.621 199.458C167.641 199.458 166.955 200.074 166.955 200.942C166.955 201.796 167.641 202.412 168.621 202.412ZM175.78 203.168C174.674 203.168 173.736 202.832 173.05 202.104L173.596 201.348C174.044 201.866 174.898 202.314 175.822 202.314C176.858 202.314 177.418 201.824 177.418 201.152C177.418 199.514 173.232 200.522 173.232 198.016C173.232 196.966 174.142 196.07 175.752 196.07C176.9 196.07 177.712 196.504 178.258 197.05L177.768 197.778C177.362 197.288 176.62 196.924 175.752 196.924C174.828 196.924 174.254 197.386 174.254 197.988C174.254 199.472 178.44 198.492 178.44 201.124C178.44 202.258 177.53 203.168 175.78 203.168ZM183.198 203.168C181.196 203.168 179.754 201.726 179.754 199.612C179.754 197.652 181.154 196.07 183.086 196.07C185.13 196.07 186.334 197.666 186.334 199.696V199.962H180.86C180.944 201.236 181.84 202.3 183.296 202.3C184.066 202.3 184.85 201.992 185.382 201.446L185.886 202.132C185.214 202.804 184.304 203.168 183.198 203.168ZM185.298 199.192C185.284 198.184 184.612 196.938 183.072 196.938C181.63 196.938 180.916 198.156 180.86 199.192H185.298ZM192.162 195.272C191.784 195.272 191.462 194.964 191.462 194.572C191.462 194.18 191.784 193.858 192.162 193.858C192.554 193.858 192.876 194.18 192.876 194.572C192.876 194.964 192.554 195.272 192.162 195.272ZM192.694 203H191.644V196.238H192.694V203ZM200.402 203H199.352V198.576C199.352 197.386 198.75 197.008 197.84 197.008C197.014 197.008 196.23 197.512 195.838 198.058V203H194.788V196.238H195.838V197.218C196.314 196.658 197.238 196.07 198.246 196.07C199.66 196.07 200.402 196.784 200.402 198.254V203ZM205.453 203H204.305L201.491 196.238H202.625L204.879 201.782L207.119 196.238H208.267L205.453 203ZM212.317 203.168C210.259 203.168 208.971 201.572 208.971 199.612C208.971 197.652 210.259 196.07 212.317 196.07C214.375 196.07 215.663 197.652 215.663 199.612C215.663 201.572 214.375 203.168 212.317 203.168ZM212.317 202.23C213.759 202.23 214.557 200.998 214.557 199.612C214.557 198.24 213.759 197.008 212.317 197.008C210.875 197.008 210.062 198.24 210.062 199.612C210.062 200.998 210.875 202.23 212.317 202.23ZM217.892 195.272C217.514 195.272 217.192 194.964 217.192 194.572C217.192 194.18 217.514 193.858 217.892 193.858C218.284 193.858 218.606 194.18 218.606 194.572C218.606 194.964 218.284 195.272 217.892 195.272ZM218.424 203H217.374V196.238H218.424V203ZM223.501 203.168C221.485 203.168 220.127 201.628 220.127 199.612C220.127 197.61 221.485 196.07 223.501 196.07C224.733 196.07 225.461 196.574 225.979 197.246L225.279 197.89C224.831 197.274 224.257 197.008 223.557 197.008C222.115 197.008 221.219 198.114 221.219 199.612C221.219 201.11 222.115 202.23 223.557 202.23C224.257 202.23 224.831 201.95 225.279 201.348L225.979 201.992C225.461 202.664 224.733 203.168 223.501 203.168ZM230.502 203.168C228.5 203.168 227.058 201.726 227.058 199.612C227.058 197.652 228.458 196.07 230.39 196.07C232.434 196.07 233.638 197.666 233.638 199.696V199.962H228.164C228.248 201.236 229.144 202.3 230.6 202.3C231.37 202.3 232.154 201.992 232.686 201.446L233.19 202.132C232.518 202.804 231.608 203.168 230.502 203.168ZM232.602 199.192C232.588 198.184 231.916 196.938 230.376 196.938C228.934 196.938 228.22 198.156 228.164 199.192H232.602ZM240.656 203.168C239.662 203.168 239.158 202.594 239.158 201.586V197.162H238.038V196.238H239.158V194.39H240.208V196.238H241.58V197.162H240.208V201.362C240.208 201.866 240.432 202.23 240.894 202.23C241.188 202.23 241.468 202.104 241.608 201.95L241.916 202.734C241.65 202.986 241.272 203.168 240.656 203.168ZM243.582 195.272C243.204 195.272 242.882 194.964 242.882 194.572C242.882 194.18 243.204 193.858 243.582 193.858C243.974 193.858 244.296 194.18 244.296 194.572C244.296 194.964 243.974 195.272 243.582 195.272ZM244.114 203H243.064V196.238H244.114V203ZM249.19 203.168C247.174 203.168 245.816 201.628 245.816 199.612C245.816 197.61 247.174 196.07 249.19 196.07C250.422 196.07 251.15 196.574 251.668 197.246L250.968 197.89C250.52 197.274 249.946 197.008 249.246 197.008C247.804 197.008 246.908 198.114 246.908 199.612C246.908 201.11 247.804 202.23 249.246 202.23C249.946 202.23 250.52 201.95 250.968 201.348L251.668 201.992C251.15 202.664 250.422 203.168 249.19 203.168ZM259.09 203H257.746L255.31 199.962L254.19 201.068V203H253.14V193.662H254.19V199.836L257.746 196.238H259.076L256.08 199.304L259.09 203ZM263.342 203.168C261.34 203.168 259.898 201.726 259.898 199.612C259.898 197.652 261.298 196.07 263.23 196.07C265.274 196.07 266.478 197.666 266.478 199.696V199.962H261.004C261.088 201.236 261.984 202.3 263.44 202.3C264.21 202.3 264.994 201.992 265.526 201.446L266.03 202.132C265.358 202.804 264.448 203.168 263.342 203.168ZM265.442 199.192C265.428 198.184 264.756 196.938 263.216 196.938C261.774 196.938 261.06 198.156 261.004 199.192H265.442ZM269.887 203.168C268.893 203.168 268.389 202.594 268.389 201.586V197.162H267.269V196.238H268.389V194.39H269.439V196.238H270.811V197.162H269.439V201.362C269.439 201.866 269.663 202.23 270.125 202.23C270.419 202.23 270.699 202.104 270.839 201.95L271.147 202.734C270.881 202.986 270.503 203.168 269.887 203.168ZM274.436 203.168C273.33 203.168 272.392 202.832 271.706 202.104L272.252 201.348C272.7 201.866 273.554 202.314 274.478 202.314C275.514 202.314 276.074 201.824 276.074 201.152C276.074 199.514 271.888 200.522 271.888 198.016C271.888 196.966 272.798 196.07 274.408 196.07C275.556 196.07 276.368 196.504 276.914 197.05L276.424 197.778C276.018 197.288 275.276 196.924 274.408 196.924C273.484 196.924 272.91 197.386 272.91 197.988C272.91 199.472 277.096 198.492 277.096 201.124C277.096 202.258 276.186 203.168 274.436 203.168Z" fill="#50667C"/>
<path d="M275 231.656H9.7139C8.7665 231.656 7.85682 232.326 7.85682 233.313V464C7.85682 464.987 8.76651 465.656 9.7139 465.656H275C275.947 465.656 276.857 464.987 276.857 464V233.313C276.857 232.326 275.947 231.656 275 231.656Z" fill="white" stroke="#CAD4DA"/>
<mask id="mask0_401_9684" style="mask-type:luminance" maskUnits="userSpaceOnUse" x="7" y="231" width="271" height="236">
<path d="M274.999 231.656H9.71353C8.76613 231.656 7.85645 232.326 7.85645 233.313V464C7.85645 464.987 8.76613 465.656 9.71353 465.656H274.999C275.947 465.656 276.856 464.987 276.856 464V233.313C276.856 232.326 275.947 231.656 274.999 231.656Z" fill="white" stroke="white"/>
</mask>
<g mask="url(#mask0_401_9684)">
<rect x="-1.64258" y="298.156" width="396" height="208" fill="#F5F7F8"/>
</g>
<g clip-path="url(#clip0_401_9684)">
<path d="M82.4794 342.312C79.9834 342.312 78.0204 340.492 78.0204 337.827C78.0204 335.162 79.9834 333.342 82.4794 333.342C84.0134 333.342 85.0794 334.083 85.7684 335.058L84.8584 335.565C84.3644 334.837 83.4674 334.304 82.4794 334.304C80.5814 334.304 79.1384 335.76 79.1384 337.827C79.1384 339.881 80.5814 341.35 82.4794 341.35C83.4674 341.35 84.3644 340.83 84.8584 340.089L85.7814 340.596C85.0534 341.584 84.0134 342.312 82.4794 342.312ZM92.3436 342.156H91.3686V338.022C91.3686 336.917 90.7966 336.592 89.9516 336.592C89.1976 336.592 88.4696 337.06 88.0926 337.567V342.156H87.1176V333.485H88.0926V336.787C88.5346 336.267 89.3926 335.721 90.3416 335.721C91.6546 335.721 92.3436 336.358 92.3436 337.723V342.156ZM97.0334 342.312C95.1224 342.312 93.9264 340.83 93.9264 339.01C93.9264 337.19 95.1224 335.721 97.0334 335.721C98.9444 335.721 100.14 337.19 100.14 339.01C100.14 340.83 98.9444 342.312 97.0334 342.312ZM97.0334 341.441C98.3724 341.441 99.1134 340.297 99.1134 339.01C99.1134 337.736 98.3724 336.592 97.0334 336.592C95.6944 336.592 94.9404 337.736 94.9404 339.01C94.9404 340.297 95.6944 341.441 97.0334 341.441ZM104.473 342.312C102.562 342.312 101.366 340.83 101.366 339.01C101.366 337.19 102.562 335.721 104.473 335.721C106.384 335.721 107.58 337.19 107.58 339.01C107.58 340.83 106.384 342.312 104.473 342.312ZM104.473 341.441C105.812 341.441 106.553 340.297 106.553 339.01C106.553 337.736 105.812 336.592 104.473 336.592C103.134 336.592 102.38 337.736 102.38 339.01C102.38 340.297 103.134 341.441 104.473 341.441ZM111.158 342.312C110.131 342.312 109.26 342 108.623 341.324L109.13 340.622C109.546 341.103 110.339 341.519 111.197 341.519C112.159 341.519 112.679 341.064 112.679 340.44C112.679 338.919 108.792 339.855 108.792 337.528C108.792 336.553 109.637 335.721 111.132 335.721C112.198 335.721 112.952 336.124 113.459 336.631L113.004 337.307C112.627 336.852 111.938 336.514 111.132 336.514C110.274 336.514 109.741 336.943 109.741 337.502C109.741 338.88 113.628 337.97 113.628 340.414C113.628 341.467 112.783 342.312 111.158 342.312ZM118.046 342.312C116.187 342.312 114.848 340.973 114.848 339.01C114.848 337.19 116.148 335.721 117.942 335.721C119.84 335.721 120.958 337.203 120.958 339.088V339.335H115.875C115.953 340.518 116.785 341.506 118.137 341.506C118.852 341.506 119.58 341.22 120.074 340.713L120.542 341.35C119.918 341.974 119.073 342.312 118.046 342.312ZM119.996 338.62C119.983 337.684 119.359 336.527 117.929 336.527C116.59 336.527 115.927 337.658 115.875 338.62H119.996ZM130.79 342.156H129.815V341.441C129.295 342.013 128.58 342.312 127.735 342.312C126.669 342.312 125.538 341.597 125.538 340.232C125.538 338.828 126.669 338.165 127.735 338.165C128.593 338.165 129.308 338.438 129.815 339.023V337.892C129.815 337.047 129.139 336.566 128.229 336.566C127.475 336.566 126.864 336.839 126.305 337.437L125.85 336.761C126.526 336.059 127.332 335.721 128.359 335.721C129.685 335.721 130.79 336.319 130.79 337.84V342.156ZM128.086 341.61C128.775 341.61 129.438 341.35 129.815 340.83V339.647C129.438 339.127 128.775 338.867 128.086 338.867C127.176 338.867 126.539 339.439 126.539 340.245C126.539 341.038 127.176 341.61 128.086 341.61ZM137.071 342.156H136.096V335.877H137.071V336.891C137.578 336.228 138.306 335.747 139.164 335.747V336.748C139.047 336.722 138.93 336.709 138.774 336.709C138.176 336.709 137.357 337.203 137.071 337.71V342.156ZM143.221 342.312C141.362 342.312 140.023 340.973 140.023 339.01C140.023 337.19 141.323 335.721 143.117 335.721C145.015 335.721 146.133 337.203 146.133 339.088V339.335H141.05C141.128 340.518 141.96 341.506 143.312 341.506C144.027 341.506 144.755 341.22 145.249 340.713L145.717 341.35C145.093 341.974 144.248 342.312 143.221 342.312ZM145.171 338.62C145.158 337.684 144.534 336.527 143.104 336.527C141.765 336.527 141.102 337.658 141.05 338.62H145.171ZM150.481 342.312C148.609 342.312 147.348 340.882 147.348 339.01C147.348 337.151 148.609 335.721 150.481 335.721C151.625 335.721 152.301 336.189 152.782 336.813L152.132 337.411C151.716 336.839 151.183 336.592 150.533 336.592C149.194 336.592 148.362 337.619 148.362 339.01C148.362 340.401 149.194 341.441 150.533 341.441C151.183 341.441 151.716 341.181 152.132 340.622L152.782 341.22C152.301 341.844 151.625 342.312 150.481 342.312ZM156.983 342.312C155.124 342.312 153.785 340.973 153.785 339.01C153.785 337.19 155.085 335.721 156.879 335.721C158.777 335.721 159.895 337.203 159.895 339.088V339.335H154.812C154.89 340.518 155.722 341.506 157.074 341.506C157.789 341.506 158.517 341.22 159.011 340.713L159.479 341.35C158.855 341.974 158.01 342.312 156.983 342.312ZM158.933 338.62C158.92 337.684 158.296 336.527 156.866 336.527C155.527 336.527 154.864 337.658 154.812 338.62H158.933ZM161.955 334.98C161.604 334.98 161.305 334.694 161.305 334.33C161.305 333.966 161.604 333.667 161.955 333.667C162.319 333.667 162.618 333.966 162.618 334.33C162.618 334.694 162.319 334.98 161.955 334.98ZM162.449 342.156H161.474V335.877H162.449V342.156ZM167.137 342.156H166.071L163.458 335.877H164.511L166.604 341.025L168.684 335.877H169.75L167.137 342.156ZM173.601 342.312C171.742 342.312 170.403 340.973 170.403 339.01C170.403 337.19 171.703 335.721 173.497 335.721C175.395 335.721 176.513 337.203 176.513 339.088V339.335H171.43C171.508 340.518 172.34 341.506 173.692 341.506C174.407 341.506 175.135 341.22 175.629 340.713L176.097 341.35C175.473 341.974 174.628 342.312 173.601 342.312ZM175.551 338.62C175.538 337.684 174.914 336.527 173.484 336.527C172.145 336.527 171.482 337.658 171.43 338.62H175.551ZM179.067 342.156H178.092V335.877H179.067V336.891C179.574 336.228 180.302 335.747 181.16 335.747V336.748C181.043 336.722 180.926 336.709 180.77 336.709C180.172 336.709 179.353 337.203 179.067 337.71V342.156Z" fill="#3FBF5B"/>
<g clip-path="url(#clip1_401_9684)">
<circle cx="49.8574" cy="337.656" r="10.5" stroke="#3FBF5B" stroke-width="2"/>
<path d="M51.0478 342.156H49.9688V334.915L48.5778 336.384L47.9278 335.721L50.0988 333.485H51.0478V342.156Z" fill="#3FBF5B"/>
</g>
</g>
<g clip-path="url(#clip2_401_9684)">
<path d="M82.4794 379.312C79.9834 379.312 78.0204 377.492 78.0204 374.827C78.0204 372.162 79.9834 370.342 82.4794 370.342C84.0134 370.342 85.0794 371.083 85.7684 372.058L84.8584 372.565C84.3644 371.837 83.4674 371.304 82.4794 371.304C80.5814 371.304 79.1384 372.76 79.1384 374.827C79.1384 376.881 80.5814 378.35 82.4794 378.35C83.4674 378.35 84.3644 377.83 84.8584 377.089L85.7814 377.596C85.0534 378.584 84.0134 379.312 82.4794 379.312ZM92.3436 379.156H91.3686V375.022C91.3686 373.917 90.7966 373.592 89.9516 373.592C89.1976 373.592 88.4696 374.06 88.0926 374.567V379.156H87.1176V370.485H88.0926V373.787C88.5346 373.267 89.3926 372.721 90.3416 372.721C91.6546 372.721 92.3436 373.358 92.3436 374.723V379.156ZM97.0334 379.312C95.1224 379.312 93.9264 377.83 93.9264 376.01C93.9264 374.19 95.1224 372.721 97.0334 372.721C98.9444 372.721 100.14 374.19 100.14 376.01C100.14 377.83 98.9444 379.312 97.0334 379.312ZM97.0334 378.441C98.3724 378.441 99.1134 377.297 99.1134 376.01C99.1134 374.736 98.3724 373.592 97.0334 373.592C95.6944 373.592 94.9404 374.736 94.9404 376.01C94.9404 377.297 95.6944 378.441 97.0334 378.441ZM104.473 379.312C102.562 379.312 101.366 377.83 101.366 376.01C101.366 374.19 102.562 372.721 104.473 372.721C106.384 372.721 107.58 374.19 107.58 376.01C107.58 377.83 106.384 379.312 104.473 379.312ZM104.473 378.441C105.812 378.441 106.553 377.297 106.553 376.01C106.553 374.736 105.812 373.592 104.473 373.592C103.134 373.592 102.38 374.736 102.38 376.01C102.38 377.297 103.134 378.441 104.473 378.441ZM111.158 379.312C110.131 379.312 109.26 379 108.623 378.324L109.13 377.622C109.546 378.103 110.339 378.519 111.197 378.519C112.159 378.519 112.679 378.064 112.679 377.44C112.679 375.919 108.792 376.855 108.792 374.528C108.792 373.553 109.637 372.721 111.132 372.721C112.198 372.721 112.952 373.124 113.459 373.631L113.004 374.307C112.627 373.852 111.938 373.514 111.132 373.514C110.274 373.514 109.741 373.943 109.741 374.502C109.741 375.88 113.628 374.97 113.628 377.414C113.628 378.467 112.783 379.312 111.158 379.312ZM118.046 379.312C116.187 379.312 114.848 377.973 114.848 376.01C114.848 374.19 116.148 372.721 117.942 372.721C119.84 372.721 120.958 374.203 120.958 376.088V376.335H115.875C115.953 377.518 116.785 378.506 118.137 378.506C118.852 378.506 119.58 378.22 120.074 377.713L120.542 378.35C119.918 378.974 119.073 379.312 118.046 379.312ZM119.996 375.62C119.983 374.684 119.359 373.527 117.929 373.527C116.59 373.527 115.927 374.658 115.875 375.62H119.996ZM130.79 379.156H129.815V378.441C129.295 379.013 128.58 379.312 127.735 379.312C126.669 379.312 125.538 378.597 125.538 377.232C125.538 375.828 126.669 375.165 127.735 375.165C128.593 375.165 129.308 375.438 129.815 376.023V374.892C129.815 374.047 129.139 373.566 128.229 373.566C127.475 373.566 126.864 373.839 126.305 374.437L125.85 373.761C126.526 373.059 127.332 372.721 128.359 372.721C129.685 372.721 130.79 373.319 130.79 374.84V379.156ZM128.086 378.61C128.775 378.61 129.438 378.35 129.815 377.83V376.647C129.438 376.127 128.775 375.867 128.086 375.867C127.176 375.867 126.539 376.439 126.539 377.245C126.539 378.038 127.176 378.61 128.086 378.61ZM137.071 377.453C137.409 377.999 138.176 378.441 138.943 378.441C140.217 378.441 140.971 377.414 140.971 376.023C140.971 374.632 140.217 373.592 138.943 373.592C138.176 373.592 137.409 374.06 137.071 374.606V377.453ZM137.071 379.156H136.096V370.485H137.071V373.826C137.578 373.137 138.332 372.721 139.19 372.721C140.828 372.721 141.985 374.021 141.985 376.023C141.985 378.064 140.828 379.312 139.19 379.312C138.306 379.312 137.539 378.857 137.071 378.22V379.156ZM144.549 379.156H143.574V372.877H144.549V373.891C145.056 373.228 145.784 372.747 146.642 372.747V373.748C146.525 373.722 146.408 373.709 146.252 373.709C145.654 373.709 144.835 374.203 144.549 374.71V379.156ZM152.766 379.156H151.791V378.441C151.271 379.013 150.556 379.312 149.711 379.312C148.645 379.312 147.514 378.597 147.514 377.232C147.514 375.828 148.645 375.165 149.711 375.165C150.569 375.165 151.284 375.438 151.791 376.023V374.892C151.791 374.047 151.115 373.566 150.205 373.566C149.451 373.566 148.84 373.839 148.281 374.437L147.826 373.761C148.502 373.059 149.308 372.721 150.335 372.721C151.661 372.721 152.766 373.319 152.766 374.84V379.156ZM150.062 378.61C150.751 378.61 151.414 378.35 151.791 377.83V376.647C151.414 376.127 150.751 375.867 150.062 375.867C149.152 375.867 148.515 376.439 148.515 377.245C148.515 378.038 149.152 378.61 150.062 378.61ZM159.933 379.156H158.958V375.048C158.958 373.943 158.399 373.592 157.554 373.592C156.787 373.592 156.059 374.06 155.695 374.567V379.156H154.72V372.877H155.695V373.787C156.137 373.267 156.995 372.721 157.931 372.721C159.244 372.721 159.933 373.384 159.933 374.749V379.156ZM164.649 379.312C162.777 379.312 161.516 377.882 161.516 376.01C161.516 374.151 162.777 372.721 164.649 372.721C165.793 372.721 166.469 373.189 166.95 373.813L166.3 374.411C165.884 373.839 165.351 373.592 164.701 373.592C163.362 373.592 162.53 374.619 162.53 376.01C162.53 377.401 163.362 378.441 164.701 378.441C165.351 378.441 165.884 378.181 166.3 377.622L166.95 378.22C166.469 378.844 165.793 379.312 164.649 379.312ZM173.543 379.156H172.568V375.022C172.568 373.917 171.996 373.592 171.151 373.592C170.397 373.592 169.669 374.06 169.292 374.567V379.156H168.317V370.485H169.292V373.787C169.734 373.267 170.592 372.721 171.541 372.721C172.854 372.721 173.543 373.358 173.543 374.723V379.156Z" fill="#A4A4A4"/>
<g clip-path="url(#clip3_401_9684)">
<circle cx="49.8574" cy="374.656" r="10.5" fill="url(#paint1_linear_401_9684)" stroke="#DDDEDE" stroke-width="2"/>
<path d="M52.6921 379.156H46.7381V378.298C49.8581 375.841 51.5481 374.398 51.5481 372.903C51.5481 371.798 50.6381 371.317 49.7411 371.317C48.7011 371.317 47.8951 371.759 47.3881 372.409L46.7251 371.72C47.3881 370.849 48.5191 370.355 49.7411 370.355C51.1841 370.355 52.6531 371.174 52.6531 372.903C52.6531 374.671 50.8591 376.283 48.4411 378.194H52.6921V379.156Z" fill="#CCCCCC"/>
</g>
</g>
<g clip-path="url(#clip4_401_9684)">
<path d="M82.4794 417.312C79.9834 417.312 78.0204 415.492 78.0204 412.827C78.0204 410.162 79.9834 408.342 82.4794 408.342C84.0134 408.342 85.0794 409.083 85.7684 410.058L84.8584 410.565C84.3644 409.837 83.4674 409.304 82.4794 409.304C80.5814 409.304 79.1384 410.76 79.1384 412.827C79.1384 414.881 80.5814 416.35 82.4794 416.35C83.4674 416.35 84.3644 415.83 84.8584 415.089L85.7814 415.596C85.0534 416.584 84.0134 417.312 82.4794 417.312ZM92.3436 417.156H91.3686V413.022C91.3686 411.917 90.7966 411.592 89.9516 411.592C89.1976 411.592 88.4696 412.06 88.0926 412.567V417.156H87.1176V408.485H88.0926V411.787C88.5346 411.267 89.3926 410.721 90.3416 410.721C91.6546 410.721 92.3436 411.358 92.3436 412.723V417.156ZM97.0334 417.312C95.1224 417.312 93.9264 415.83 93.9264 414.01C93.9264 412.19 95.1224 410.721 97.0334 410.721C98.9444 410.721 100.14 412.19 100.14 414.01C100.14 415.83 98.9444 417.312 97.0334 417.312ZM97.0334 416.441C98.3724 416.441 99.1134 415.297 99.1134 414.01C99.1134 412.736 98.3724 411.592 97.0334 411.592C95.6944 411.592 94.9404 412.736 94.9404 414.01C94.9404 415.297 95.6944 416.441 97.0334 416.441ZM104.473 417.312C102.562 417.312 101.366 415.83 101.366 414.01C101.366 412.19 102.562 410.721 104.473 410.721C106.384 410.721 107.58 412.19 107.58 414.01C107.58 415.83 106.384 417.312 104.473 417.312ZM104.473 416.441C105.812 416.441 106.553 415.297 106.553 414.01C106.553 412.736 105.812 411.592 104.473 411.592C103.134 411.592 102.38 412.736 102.38 414.01C102.38 415.297 103.134 416.441 104.473 416.441ZM111.158 417.312C110.131 417.312 109.26 417 108.623 416.324L109.13 415.622C109.546 416.103 110.339 416.519 111.197 416.519C112.159 416.519 112.679 416.064 112.679 415.44C112.679 413.919 108.792 414.855 108.792 412.528C108.792 411.553 109.637 410.721 111.132 410.721C112.198 410.721 112.952 411.124 113.459 411.631L113.004 412.307C112.627 411.852 111.938 411.514 111.132 411.514C110.274 411.514 109.741 411.943 109.741 412.502C109.741 413.88 113.628 412.97 113.628 415.414C113.628 416.467 112.783 417.312 111.158 417.312ZM118.046 417.312C116.187 417.312 114.848 415.973 114.848 414.01C114.848 412.19 116.148 410.721 117.942 410.721C119.84 410.721 120.958 412.203 120.958 414.088V414.335H115.875C115.953 415.518 116.785 416.506 118.137 416.506C118.852 416.506 119.58 416.22 120.074 415.713L120.542 416.35C119.918 416.974 119.073 417.312 118.046 417.312ZM119.996 413.62C119.983 412.684 119.359 411.527 117.929 411.527C116.59 411.527 115.927 412.658 115.875 413.62H119.996ZM127.475 417.312C126.552 417.312 126.084 416.779 126.084 415.843V411.735H125.044V410.877H126.084V409.161H127.059V410.877H128.333V411.735H127.059V415.635C127.059 416.103 127.267 416.441 127.696 416.441C127.969 416.441 128.229 416.324 128.359 416.181L128.645 416.909C128.398 417.143 128.047 417.312 127.475 417.312ZM134.936 417.156H133.961V413.022C133.961 411.917 133.389 411.592 132.544 411.592C131.79 411.592 131.062 412.06 130.685 412.567V417.156H129.71V408.485H130.685V411.787C131.127 411.267 131.985 410.721 132.934 410.721C134.247 410.721 134.936 411.358 134.936 412.723V417.156ZM139.717 417.312C137.858 417.312 136.519 415.973 136.519 414.01C136.519 412.19 137.819 410.721 139.613 410.721C141.511 410.721 142.629 412.203 142.629 414.088V414.335H137.546C137.624 415.518 138.456 416.506 139.808 416.506C140.523 416.506 141.251 416.22 141.745 415.713L142.213 416.35C141.589 416.974 140.744 417.312 139.717 417.312ZM141.667 413.62C141.654 412.684 141.03 411.527 139.6 411.527C138.261 411.527 137.598 412.658 137.546 413.62H141.667ZM149.146 417.312C148.223 417.312 147.755 416.779 147.755 415.843V411.735H146.715V410.877H147.755V409.161H148.73V410.877H150.004V411.735H148.73V415.635C148.73 416.103 148.938 416.441 149.367 416.441C149.64 416.441 149.9 416.324 150.03 416.181L150.316 416.909C150.069 417.143 149.718 417.312 149.146 417.312ZM151.03 419.613L151.186 418.729C151.329 418.794 151.563 418.833 151.719 418.833C152.148 418.833 152.434 418.69 152.655 418.17L153.071 417.221L150.445 410.877H151.498L153.591 416.025L155.671 410.877H156.737L153.591 418.43C153.214 419.34 152.577 419.691 151.745 419.704C151.537 419.704 151.212 419.665 151.03 419.613ZM160.848 417.312C159.99 417.312 159.236 416.909 158.729 416.207V419.548H157.754V410.877H158.729V411.813C159.184 411.176 159.964 410.721 160.848 410.721C162.499 410.721 163.643 411.969 163.643 414.01C163.643 416.038 162.499 417.312 160.848 417.312ZM160.601 416.441C161.862 416.441 162.616 415.401 162.616 414.01C162.616 412.619 161.862 411.592 160.601 411.592C159.834 411.592 159.067 412.047 158.729 412.593V415.427C159.067 415.973 159.834 416.441 160.601 416.441ZM168.028 417.312C166.169 417.312 164.83 415.973 164.83 414.01C164.83 412.19 166.13 410.721 167.924 410.721C169.822 410.721 170.94 412.203 170.94 414.088V414.335H165.857C165.935 415.518 166.767 416.506 168.119 416.506C168.834 416.506 169.562 416.22 170.056 415.713L170.524 416.35C169.9 416.974 169.055 417.312 168.028 417.312ZM169.978 413.62C169.965 412.684 169.341 411.527 167.911 411.527C166.572 411.527 165.909 412.658 165.857 413.62H169.978ZM178.614 417.312C176.703 417.312 175.507 415.83 175.507 414.01C175.507 412.19 176.703 410.721 178.614 410.721C180.525 410.721 181.721 412.19 181.721 414.01C181.721 415.83 180.525 417.312 178.614 417.312ZM178.614 416.441C179.953 416.441 180.694 415.297 180.694 414.01C180.694 412.736 179.953 411.592 178.614 411.592C177.275 411.592 176.521 412.736 176.521 414.01C176.521 415.297 177.275 416.441 178.614 416.441ZM184.558 417.156H183.583V411.735H182.543V410.877H183.583V410.396C183.583 409.109 184.285 408.355 185.403 408.355C185.897 408.355 186.339 408.472 186.729 408.836L186.326 409.473C186.118 409.291 185.871 409.161 185.546 409.161C184.909 409.161 184.558 409.603 184.558 410.396V410.877H185.832V411.735H184.558V417.156ZM190.824 409.98C190.473 409.98 190.174 409.694 190.174 409.33C190.174 408.966 190.473 408.667 190.824 408.667C191.188 408.667 191.487 408.966 191.487 409.33C191.487 409.694 191.188 409.98 190.824 409.98ZM191.318 417.156H190.343V410.877H191.318V417.156ZM198.476 417.156H197.501V413.048C197.501 411.943 196.942 411.592 196.097 411.592C195.33 411.592 194.602 412.06 194.238 412.567V417.156H193.263V410.877H194.238V411.787C194.68 411.267 195.538 410.721 196.474 410.721C197.787 410.721 198.476 411.384 198.476 412.749V417.156ZM203.166 417.156H202.1L199.487 410.877H200.54L202.633 416.025L204.713 410.877H205.779L203.166 417.156ZM209.539 417.312C207.628 417.312 206.432 415.83 206.432 414.01C206.432 412.19 207.628 410.721 209.539 410.721C211.45 410.721 212.646 412.19 212.646 414.01C212.646 415.83 211.45 417.312 209.539 417.312ZM209.539 416.441C210.878 416.441 211.619 415.297 211.619 414.01C211.619 412.736 210.878 411.592 209.539 411.592C208.2 411.592 207.446 412.736 207.446 414.01C207.446 415.297 208.2 416.441 209.539 416.441ZM214.717 409.98C214.366 409.98 214.067 409.694 214.067 409.33C214.067 408.966 214.366 408.667 214.717 408.667C215.081 408.667 215.38 408.966 215.38 409.33C215.38 409.694 215.081 409.98 214.717 409.98ZM215.211 417.156H214.236V410.877H215.211V417.156ZM219.925 417.312C218.053 417.312 216.792 415.882 216.792 414.01C216.792 412.151 218.053 410.721 219.925 410.721C221.069 410.721 221.745 411.189 222.226 411.813L221.576 412.411C221.16 411.839 220.627 411.592 219.977 411.592C218.638 411.592 217.806 412.619 217.806 414.01C217.806 415.401 218.638 416.441 219.977 416.441C220.627 416.441 221.16 416.181 221.576 415.622L222.226 416.22C221.745 416.844 221.069 417.312 219.925 417.312ZM226.426 417.312C224.567 417.312 223.228 415.973 223.228 414.01C223.228 412.19 224.528 410.721 226.322 410.721C228.22 410.721 229.338 412.203 229.338 414.088V414.335H224.255C224.333 415.518 225.165 416.506 226.517 416.506C227.232 416.506 227.96 416.22 228.454 415.713L228.922 416.35C228.298 416.974 227.453 417.312 226.426 417.312ZM228.376 413.62C228.363 412.684 227.739 411.527 226.309 411.527C224.97 411.527 224.307 412.658 224.255 413.62H228.376Z" fill="#A4A4A4"/>
<g clip-path="url(#clip5_401_9684)">
<circle cx="49.8574" cy="412.656" r="10.5" fill="url(#paint2_linear_401_9684)" stroke="#DDDEDE" stroke-width="2"/>
<path d="M49.6973 417.312C48.2283 417.312 47.1493 416.662 46.6163 415.882L47.2533 415.206C47.7603 415.882 48.6443 416.35 49.6713 416.35C50.9323 416.35 51.6993 415.726 51.6993 414.725C51.6993 413.646 50.8153 413.191 49.5413 413.191C49.1773 413.191 48.7743 413.191 48.6443 413.204V412.216C48.7873 412.229 49.1903 412.229 49.5413 412.229C50.6333 412.229 51.5563 411.8 51.5563 410.799C51.5563 409.837 50.6723 409.317 49.6193 409.317C48.6703 409.317 47.9683 409.681 47.3313 410.37L46.7333 409.694C47.3573 408.94 48.3583 408.355 49.6973 408.355C51.3613 408.355 52.6353 409.2 52.6353 410.669C52.6353 411.917 51.5823 412.541 50.7633 412.684C51.5563 412.749 52.7653 413.425 52.7653 414.816C52.7653 416.259 51.6083 417.312 49.6973 417.312Z" fill="#CCCCCC"/>
</g>
</g>
<rect x="7.35742" y="296" width="270" height="2" fill="#E3E5E6"/>
<rect x="8.35742" y="295" width="268" height="1" fill="#B1BBC2"/>
<path d="M33.8734 269.984C31.2134 269.984 29.0714 268.038 29.0714 265.14C29.0714 262.242 31.2134 260.31 33.8734 260.31C35.5254 260.31 36.6734 261.038 37.4994 262.06L36.5754 262.634C35.9874 261.878 34.9934 261.346 33.8734 261.346C31.8294 261.346 30.2754 262.914 30.2754 265.14C30.2754 267.352 31.8294 268.948 33.8734 268.948C34.9934 268.948 35.9174 268.402 36.3794 267.94V266.036H33.1734V265H37.5414V268.374C36.6734 269.34 35.3994 269.984 33.8734 269.984ZM42.4399 269.97C40.4379 269.97 38.9959 268.528 38.9959 266.414C38.9959 264.454 40.3959 262.872 42.3279 262.872C44.3719 262.872 45.5759 264.468 45.5759 266.498V266.764H40.1019C40.1859 268.038 41.0819 269.102 42.5379 269.102C43.3079 269.102 44.0919 268.794 44.6239 268.248L45.1279 268.934C44.4559 269.606 43.5459 269.97 42.4399 269.97ZM44.5399 265.994C44.5259 264.986 43.8539 263.74 42.3139 263.74C40.8719 263.74 40.1579 264.958 40.1019 265.994H44.5399ZM52.8906 269.802H51.8406V265.378C51.8406 264.188 51.2386 263.81 50.3286 263.81C49.5026 263.81 48.7186 264.314 48.3266 264.86V269.802H47.2766V263.04H48.3266V264.02C48.8026 263.46 49.7266 262.872 50.7346 262.872C52.1486 262.872 52.8906 263.586 52.8906 265.056V269.802ZM58.0395 269.97C56.0375 269.97 54.5955 268.528 54.5955 266.414C54.5955 264.454 55.9955 262.872 57.9275 262.872C59.9715 262.872 61.1755 264.468 61.1755 266.498V266.764H55.7015C55.7855 268.038 56.6815 269.102 58.1375 269.102C58.9075 269.102 59.6915 268.794 60.2235 268.248L60.7275 268.934C60.0555 269.606 59.1455 269.97 58.0395 269.97ZM60.1395 265.994C60.1255 264.986 59.4535 263.74 57.9135 263.74C56.4715 263.74 55.7575 264.958 55.7015 265.994H60.1395ZM63.9262 269.802H62.8762V263.04H63.9262V264.132C64.4722 263.418 65.2562 262.9 66.1802 262.9V263.978C66.0542 263.95 65.9282 263.936 65.7602 263.936C65.1162 263.936 64.2342 264.468 63.9262 265.014V269.802ZM72.7753 269.802H71.7253V269.032C71.1653 269.648 70.3953 269.97 69.4853 269.97C68.3373 269.97 67.1193 269.2 67.1193 267.73C67.1193 266.218 68.3373 265.504 69.4853 265.504C70.4093 265.504 71.1793 265.798 71.7253 266.428V265.21C71.7253 264.3 70.9973 263.782 70.0173 263.782C69.2053 263.782 68.5473 264.076 67.9453 264.72L67.4553 263.992C68.1833 263.236 69.0513 262.872 70.1573 262.872C71.5853 262.872 72.7753 263.516 72.7753 265.154V269.802ZM69.8633 269.214C70.6053 269.214 71.3193 268.934 71.7253 268.374V267.1C71.3193 266.54 70.6053 266.26 69.8633 266.26C68.8833 266.26 68.1973 266.876 68.1973 267.744C68.1973 268.598 68.8833 269.214 69.8633 269.214ZM76.5881 269.97C75.5941 269.97 75.0901 269.396 75.0901 268.388V263.964H73.9701V263.04H75.0901V261.192H76.1401V263.04H77.5121V263.964H76.1401V268.164C76.1401 268.668 76.3641 269.032 76.8261 269.032C77.1201 269.032 77.4001 268.906 77.5401 268.752L77.8481 269.536C77.5821 269.788 77.2041 269.97 76.5881 269.97ZM82.0473 269.97C80.0453 269.97 78.6033 268.528 78.6033 266.414C78.6033 264.454 80.0033 262.872 81.9353 262.872C83.9793 262.872 85.1833 264.468 85.1833 266.498V266.764H79.7093C79.7933 268.038 80.6893 269.102 82.1453 269.102C82.9153 269.102 83.6993 268.794 84.2313 268.248L84.7353 268.934C84.0633 269.606 83.1533 269.97 82.0473 269.97ZM84.1473 265.994C84.1333 264.986 83.4613 263.74 81.9213 263.74C80.4793 263.74 79.7653 264.958 79.7093 265.994H84.1473ZM95.7714 269.802H94.7214V269.032C94.1614 269.648 93.3914 269.97 92.4814 269.97C91.3334 269.97 90.1154 269.2 90.1154 267.73C90.1154 266.218 91.3334 265.504 92.4814 265.504C93.4054 265.504 94.1754 265.798 94.7214 266.428V265.21C94.7214 264.3 93.9934 263.782 93.0134 263.782C92.2014 263.782 91.5434 264.076 90.9414 264.72L90.4514 263.992C91.1794 263.236 92.0474 262.872 93.1534 262.872C94.5814 262.872 95.7714 263.516 95.7714 265.154V269.802ZM92.8594 269.214C93.6014 269.214 94.3154 268.934 94.7214 268.374V267.1C94.3154 266.54 93.6014 266.26 92.8594 266.26C91.8794 266.26 91.1934 266.876 91.1934 267.744C91.1934 268.598 91.8794 269.214 92.8594 269.214ZM103.49 269.802H102.44V265.378C102.44 264.188 101.838 263.81 100.928 263.81C100.102 263.81 99.3182 264.314 98.9262 264.86V269.802H97.8762V263.04H98.9262V264.02C99.4022 263.46 100.326 262.872 101.334 262.872C102.748 262.872 103.49 263.586 103.49 265.056V269.802ZM110.4 269.802H109.238V260.464H110.4V269.802ZM118.16 269.802H117.11V265.378C117.11 264.188 116.508 263.81 115.598 263.81C114.772 263.81 113.988 264.314 113.596 264.86V269.802H112.546V263.04H113.596V264.02C114.072 263.46 114.996 262.872 116.004 262.872C117.418 262.872 118.16 263.586 118.16 265.056V269.802ZM123.211 269.802H122.063L119.249 263.04H120.383L122.637 268.584L124.877 263.04H126.025L123.211 269.802ZM130.074 269.97C128.016 269.97 126.728 268.374 126.728 266.414C126.728 264.454 128.016 262.872 130.074 262.872C132.132 262.872 133.42 264.454 133.42 266.414C133.42 268.374 132.132 269.97 130.074 269.97ZM130.074 269.032C131.516 269.032 132.314 267.8 132.314 266.414C132.314 265.042 131.516 263.81 130.074 263.81C128.632 263.81 127.82 265.042 127.82 266.414C127.82 267.8 128.632 269.032 130.074 269.032ZM135.65 262.074C135.272 262.074 134.95 261.766 134.95 261.374C134.95 260.982 135.272 260.66 135.65 260.66C136.042 260.66 136.364 260.982 136.364 261.374C136.364 261.766 136.042 262.074 135.65 262.074ZM136.182 269.802H135.132V263.04H136.182V269.802ZM141.259 269.97C139.243 269.97 137.885 268.43 137.885 266.414C137.885 264.412 139.243 262.872 141.259 262.872C142.491 262.872 143.219 263.376 143.737 264.048L143.037 264.692C142.589 264.076 142.015 263.81 141.315 263.81C139.873 263.81 138.977 264.916 138.977 266.414C138.977 267.912 139.873 269.032 141.315 269.032C142.015 269.032 142.589 268.752 143.037 268.15L143.737 268.794C143.219 269.466 142.491 269.97 141.259 269.97ZM148.26 269.97C146.258 269.97 144.816 268.528 144.816 266.414C144.816 264.454 146.216 262.872 148.148 262.872C150.192 262.872 151.396 264.468 151.396 266.498V266.764H145.922C146.006 268.038 146.902 269.102 148.358 269.102C149.128 269.102 149.912 268.794 150.444 268.248L150.948 268.934C150.276 269.606 149.366 269.97 148.26 269.97ZM150.36 265.994C150.346 264.986 149.674 263.74 148.134 263.74C146.692 263.74 145.978 264.958 145.922 265.994H150.36Z" fill="#3D454C"/>
<defs>
<linearGradient id="paint0_linear_401_9684" x1="296" y1="13" x2="296" y2="1" gradientUnits="userSpaceOnUse">
<stop stop-color="#EEEEEE"/>
<stop offset="1" stop-color="#ECECEC"/>
<stop offset="2" stop-color="#F4F4F4"/>
<stop offset="3" stop-color="white"/>
</linearGradient>
<linearGradient id="paint1_linear_401_9684" x1="61.3574" y1="386.156" x2="61.3574" y2="363.156" gradientUnits="userSpaceOnUse">
<stop stop-color="#EEEEEE"/>
<stop offset="1" stop-color="#ECECEC"/>
<stop offset="2" stop-color="#F4F4F4"/>
<stop offset="3" stop-color="white"/>
</linearGradient>
<linearGradient id="paint2_linear_401_9684" x1="61.3574" y1="424.156" x2="61.3574" y2="401.156" gradientUnits="userSpaceOnUse">
<stop stop-color="#EEEEEE"/>
<stop offset="1" stop-color="#ECECEC"/>
<stop offset="2" stop-color="#F4F4F4"/>
<stop offset="3" stop-color="white"/>
</linearGradient>
<clipPath id="clip0_401_9684">
<rect width="127" height="24" fill="white" transform="translate(38.3574 326.156)"/>
</clipPath>
<clipPath id="clip1_401_9684">
<rect width="23" height="24" fill="white" transform="translate(38.3574 326.156)"/>
</clipPath>
<clipPath id="clip2_401_9684">
<rect width="142" height="24" fill="white" transform="translate(38.3574 363.156)"/>
</clipPath>
<clipPath id="clip3_401_9684">
<rect width="23" height="24" fill="white" transform="translate(38.3574 363.156)"/>
</clipPath>
<clipPath id="clip4_401_9684">
<rect width="208" height="24" fill="white" transform="translate(38.3574 401.156)"/>
</clipPath>
<clipPath id="clip5_401_9684">
<rect width="23" height="24" fill="white" transform="translate(38.3574 401.156)"/>
</clipPath>
</defs>
</svg>
