<svg width="1039" height="310" viewBox="0 0 1039 310" fill="none" xmlns="http://www.w3.org/2000/svg">
<path d="M65.4448 158.843H0V310H207.8V189.527H142.355C129.207 189.527 116.485 184.858 106.457 176.354L101.343 172.016C91.315 163.512 78.5935 158.843 65.4448 158.843Z" fill="#C7EA3C"/>
<path d="M276.258 189.688H207.8V310H415.6V214.761H347.141C335.843 214.761 324.813 211.313 315.527 204.877L307.872 199.572C298.586 193.136 287.557 189.688 276.258 189.688Z" fill="#90D61E"/>
<path d="M479.916 214.73H415.6V310H623.4V247.699H559.084C545.254 247.699 531.923 242.536 521.701 233.221L517.298 229.208C507.076 219.894 493.745 214.73 479.916 214.73Z" fill="#46C917"/>
<path d="M692.774 247.699H623.4V310H831.2V271.19H761.827C751.099 271.19 740.601 268.081 731.603 262.238L722.998 256.651C714 250.808 703.502 247.699 692.774 247.699Z" fill="#029367"/>
<path d="M917.011 271.19H831.2V310.001H1039V271.19H953.189H917.011Z" fill="#005C40"/>
<g opacity="0.25">
<path d="M65.4448 141.329H0V292.486H207.8V172.012H142.355C129.207 172.012 116.485 167.344 106.457 158.84L101.343 154.502C91.315 145.997 78.5935 141.329 65.4448 141.329Z" fill="#C7EA3C"/>
<path d="M276.258 172.173H207.8V292.486H415.6V197.247H347.141C335.843 197.247 324.813 193.798 315.527 187.363L307.872 182.058C298.586 175.622 287.557 172.173 276.258 172.173Z" fill="#90D61E"/>
<path d="M479.916 197.216H415.6V292.486H623.4V230.185H559.084C545.254 230.185 531.923 225.022 521.701 215.707L517.298 211.694C507.076 202.379 493.745 197.216 479.916 197.216Z" fill="#46C917"/>
<path d="M692.774 230.185H623.4V292.486H831.2V253.676H761.827C751.099 253.676 740.601 250.566 731.603 244.724L722.998 239.137C714 233.294 703.502 230.185 692.774 230.185Z" fill="#029367"/>
<path d="M917.011 253.676H831.2V292.486H1039V253.676H953.189H917.011Z" fill="#005C40"/>
</g>
<mask id="path-12-inside-1_392_11158" fill="white">
<path d="M0 0H207.8V310H0V0Z"/>
</mask>
<path d="M206.8 0V310H208.8V0H206.8ZM1 310V0H-1V310H1Z" fill="#DBDBDB" mask="url(#path-12-inside-1_392_11158)"/>
<path d="M17.7219 30H16.4292L20.1679 19.8182H21.4406L25.1792 30H23.8866L20.844 21.429H20.7645L17.7219 30ZM18.1991 26.0227H23.4094V27.1165H18.1991V26.0227ZM29.7084 30.1591C28.9925 30.1591 28.376 29.9901 27.8589 29.652C27.3419 29.3139 26.9442 28.8482 26.6657 28.255C26.3873 27.6617 26.2481 26.9839 26.2481 26.2216C26.2481 25.446 26.3907 24.7616 26.6757 24.1683C26.964 23.5717 27.3651 23.1061 27.8788 22.7713C28.3959 22.4332 28.9991 22.2642 29.6885 22.2642C30.2254 22.2642 30.7093 22.3636 31.1402 22.5625C31.5711 22.7614 31.924 23.0398 32.1991 23.3977C32.4742 23.7557 32.6449 24.1733 32.7112 24.6506H31.5379C31.4484 24.3026 31.2496 23.9943 30.9413 23.7259C30.6364 23.4541 30.2254 23.3182 29.7084 23.3182C29.251 23.3182 28.8499 23.4375 28.5052 23.6761C28.1639 23.9115 27.897 24.2446 27.7048 24.6754C27.5159 25.103 27.4214 25.6051 27.4214 26.1818C27.4214 26.7718 27.5142 27.2855 27.6998 27.723C27.8888 28.1605 28.1539 28.5002 28.4953 28.7422C28.84 28.9841 29.2443 29.1051 29.7084 29.1051C30.0133 29.1051 30.29 29.0521 30.5386 28.946C30.7872 28.84 30.9977 28.6875 31.17 28.4886C31.3424 28.2898 31.465 28.0511 31.5379 27.7727H32.7112C32.6449 28.2235 32.4809 28.6295 32.219 28.9908C31.9605 29.3487 31.6175 29.6338 31.1899 29.8459C30.7657 30.0547 30.2718 30.1591 29.7084 30.1591ZM39.6366 32.8636V28.8267H39.5372C39.451 28.9659 39.3284 29.1416 39.1693 29.3537C39.0102 29.5625 38.7832 29.7498 38.4882 29.9155C38.1932 30.0779 37.8005 30.1591 37.3099 30.1591C36.6736 30.1591 36.1118 29.9983 35.6246 29.6768C35.1373 29.352 34.7562 28.8946 34.4811 28.3047C34.206 27.7114 34.0684 27.0104 34.0684 26.2017C34.0684 25.3996 34.206 24.7036 34.4811 24.1136C34.7562 23.5237 35.139 23.0679 35.6295 22.7464C36.1201 22.425 36.6868 22.2642 37.3298 22.2642C37.827 22.2642 38.2197 22.3471 38.5081 22.5128C38.7997 22.6752 39.0218 22.8608 39.1743 23.0696C39.33 23.2751 39.451 23.4441 39.5372 23.5767H39.6764V22.3636H40.8099V32.8636H39.6366ZM37.469 29.1051C37.9397 29.1051 38.3374 28.9825 38.6622 28.7372C38.987 28.4886 39.2339 28.1456 39.403 27.7081C39.572 27.2673 39.6565 26.7585 39.6565 26.1818C39.6565 25.6117 39.5737 25.1129 39.4079 24.6854C39.2422 24.2545 38.997 23.9197 38.6721 23.6811C38.3473 23.4392 37.9463 23.3182 37.469 23.3182C36.9719 23.3182 36.5576 23.4458 36.2261 23.701C35.898 23.9529 35.6511 24.2959 35.4854 24.7301C35.3229 25.161 35.2417 25.6449 35.2417 26.1818C35.2417 26.7254 35.3246 27.2192 35.4903 27.6634C35.6594 28.1042 35.9079 28.4555 36.2361 28.7173C36.5675 28.9759 36.9785 29.1051 37.469 29.1051ZM47.7702 26.8778V22.3636H48.9434V30H47.7702V28.7074H47.6906C47.5116 29.0952 47.2332 29.425 46.8554 29.6967C46.4775 29.9652 46.0003 30.0994 45.4236 30.0994C44.9463 30.0994 44.522 29.995 44.1508 29.7862C43.7796 29.5741 43.488 29.2559 43.2758 28.8317C43.0637 28.4041 42.9577 27.8655 42.9577 27.2159V22.3636H44.1309V27.1364C44.1309 27.6932 44.2867 28.1373 44.5983 28.4688C44.9131 28.8002 45.3142 28.9659 45.8014 28.9659C46.0931 28.9659 46.3897 28.8913 46.6913 28.7422C46.9962 28.593 47.2515 28.3643 47.4569 28.0561C47.6657 27.7479 47.7702 27.3551 47.7702 26.8778ZM51.0924 30V22.3636H52.2657V30H51.0924ZM51.689 21.0909C51.4603 21.0909 51.2631 21.013 51.0974 20.8572C50.935 20.7015 50.8538 20.5142 50.8538 20.2955C50.8538 20.0767 50.935 19.8894 51.0974 19.7337C51.2631 19.5779 51.4603 19.5 51.689 19.5C51.9177 19.5 52.1133 19.5779 52.2757 19.7337C52.4414 19.8894 52.5242 20.0767 52.5242 20.2955C52.5242 20.5142 52.4414 20.7015 52.2757 20.8572C52.1133 21.013 51.9177 21.0909 51.689 21.0909ZM59.8238 24.0739L58.7698 24.3722C58.7035 24.1965 58.6057 24.0258 58.4765 23.8601C58.3505 23.6911 58.1782 23.5518 57.9594 23.4425C57.7407 23.3331 57.4606 23.2784 57.1192 23.2784C56.6519 23.2784 56.2625 23.3861 55.9509 23.6016C55.6427 23.8137 55.4885 24.0838 55.4885 24.4119C55.4885 24.7036 55.5946 24.9339 55.8067 25.103C56.0189 25.272 56.3503 25.4129 56.801 25.5256L57.9346 25.804C58.6173 25.9697 59.1261 26.2232 59.4608 26.5646C59.7956 26.9027 59.963 27.3385 59.963 27.8722C59.963 28.3097 59.837 28.7008 59.5851 29.0455C59.3366 29.3902 58.9885 29.6619 58.5411 29.8608C58.0937 30.0597 57.5733 30.1591 56.98 30.1591C56.2011 30.1591 55.5565 29.9901 55.0461 29.652C54.5357 29.3139 54.2125 28.8201 54.0766 28.1705L55.1903 27.892C55.2963 28.303 55.4968 28.6113 55.7918 28.8168C56.0901 29.0223 56.4796 29.125 56.9601 29.125C57.507 29.125 57.9412 29.009 58.2627 28.777C58.5875 28.5417 58.7499 28.2599 58.7499 27.9318C58.7499 27.6667 58.6571 27.4446 58.4715 27.2656C58.2859 27.0833 58.0009 26.9474 57.6164 26.858L56.3437 26.5597C55.6443 26.3939 55.1306 26.1371 54.8025 25.7891C54.4777 25.4377 54.3153 24.9986 54.3153 24.4716C54.3153 24.0407 54.4362 23.6596 54.6782 23.3281C54.9234 22.9967 55.2565 22.7365 55.6775 22.5476C56.1017 22.3587 56.5823 22.2642 57.1192 22.2642C57.8749 22.2642 58.4682 22.4299 58.8991 22.7614C59.3332 23.0928 59.6415 23.5303 59.8238 24.0739ZM61.7291 30V22.3636H62.9024V30H61.7291ZM62.3257 21.0909C62.097 21.0909 61.8998 21.013 61.7341 20.8572C61.5717 20.7015 61.4905 20.5142 61.4905 20.2955C61.4905 20.0767 61.5717 19.8894 61.7341 19.7337C61.8998 19.5779 62.097 19.5 62.3257 19.5C62.5544 19.5 62.75 19.5779 62.9124 19.7337C63.0781 19.8894 63.161 20.0767 63.161 20.2955C63.161 20.5142 63.0781 20.7015 62.9124 20.8572C62.75 21.013 62.5544 21.0909 62.3257 21.0909ZM68.3724 22.3636V23.358H64.415V22.3636H68.3724ZM65.5684 20.5341H66.7417V27.8125C66.7417 28.1439 66.7898 28.3925 66.8859 28.5582C66.9854 28.7206 67.1113 28.83 67.2638 28.8864C67.4195 28.9394 67.5836 28.9659 67.7559 28.9659C67.8852 28.9659 67.9913 28.9593 68.0741 28.946C68.157 28.9295 68.2233 28.9162 68.273 28.9062L68.5116 29.9602C68.4321 29.9901 68.3211 30.0199 68.1785 30.0497C68.036 30.0829 67.8554 30.0994 67.6366 30.0994C67.3052 30.0994 66.9804 30.0282 66.6622 29.8857C66.3473 29.7431 66.0855 29.526 65.8767 29.2344C65.6712 28.9427 65.5684 28.5748 65.5684 28.1307V20.5341ZM70.1373 30V22.3636H71.3106V30H70.1373ZM70.7339 21.0909C70.5052 21.0909 70.308 21.013 70.1423 20.8572C69.9799 20.7015 69.8987 20.5142 69.8987 20.2955C69.8987 20.0767 69.9799 19.8894 70.1423 19.7337C70.308 19.5779 70.5052 19.5 70.7339 19.5C70.9626 19.5 71.1582 19.5779 71.3206 19.7337C71.4863 19.8894 71.5692 20.0767 71.5692 20.2955C71.5692 20.5142 71.4863 20.7015 71.3206 20.8572C71.1582 21.013 70.9626 21.0909 70.7339 21.0909ZM76.5619 30.1591C75.8725 30.1591 75.2676 29.995 74.7472 29.6669C74.2302 29.3388 73.8258 28.8797 73.5342 28.2898C73.2458 27.6998 73.1017 27.0104 73.1017 26.2216C73.1017 25.4261 73.2458 24.7318 73.5342 24.1385C73.8258 23.5452 74.2302 23.0845 74.7472 22.7564C75.2676 22.4283 75.8725 22.2642 76.5619 22.2642C77.2513 22.2642 77.8545 22.4283 78.3715 22.7564C78.8919 23.0845 79.2963 23.5452 79.5846 24.1385C79.8763 24.7318 80.0221 25.4261 80.0221 26.2216C80.0221 27.0104 79.8763 27.6998 79.5846 28.2898C79.2963 28.8797 78.8919 29.3388 78.3715 29.6669C77.8545 29.995 77.2513 30.1591 76.5619 30.1591ZM76.5619 29.1051C77.0856 29.1051 77.5164 28.9709 77.8545 28.7024C78.1926 28.4339 78.4428 28.081 78.6052 27.6435C78.7676 27.206 78.8488 26.732 78.8488 26.2216C78.8488 25.7112 78.7676 25.2356 78.6052 24.7947C78.4428 24.3539 78.1926 23.9976 77.8545 23.7259C77.5164 23.4541 77.0856 23.3182 76.5619 23.3182C76.0382 23.3182 75.6073 23.4541 75.2693 23.7259C74.9312 23.9976 74.681 24.3539 74.5186 24.7947C74.3561 25.2356 74.2749 25.7112 74.2749 26.2216C74.2749 26.732 74.3561 27.206 74.5186 27.6435C74.681 28.081 74.9312 28.4339 75.2693 28.7024C75.6073 28.9709 76.0382 29.1051 76.5619 29.1051ZM82.9864 25.4062V30H81.8131V22.3636H82.9466V23.5568H83.0461C83.2251 23.169 83.4968 22.8575 83.8614 22.6222C84.226 22.3835 84.6966 22.2642 85.2733 22.2642C85.7904 22.2642 86.2428 22.3703 86.6306 22.5824C87.0184 22.7912 87.32 23.1094 87.5354 23.5369C87.7509 23.9612 87.8586 24.4981 87.8586 25.1477V30H86.6853V25.2273C86.6853 24.6274 86.5295 24.16 86.218 23.8253C85.9064 23.4872 85.4788 23.3182 84.9353 23.3182C84.5608 23.3182 84.226 23.3994 83.931 23.5618C83.6394 23.7242 83.409 23.9612 83.24 24.2727C83.0709 24.5843 82.9864 24.9621 82.9864 25.4062Z" fill="#212121"/>
<path d="M23.9261 72.2386C22.5966 72.2386 21.4176 72.0114 20.3892 71.5568C19.3665 71.0966 18.5597 70.4631 17.9688 69.6562C17.3778 68.8494 17.0767 67.9205 17.0653 66.8693H21.3097C21.3267 67.25 21.4489 67.5881 21.6761 67.8835C21.9034 68.1733 22.2131 68.4006 22.6051 68.5653C22.9972 68.7301 23.4432 68.8125 23.9432 68.8125C24.4432 68.8125 24.8835 68.7244 25.2642 68.5483C25.6506 68.3665 25.9517 68.1193 26.1676 67.8068C26.3835 67.4886 26.4886 67.125 26.483 66.7159C26.4886 66.3068 26.3722 65.9432 26.1335 65.625C25.8949 65.3068 25.5568 65.0597 25.1193 64.8835C24.6875 64.7074 24.1761 64.6193 23.5852 64.6193H21.8892V61.6193H23.5852C24.1023 61.6193 24.5568 61.5341 24.9489 61.3636C25.3466 61.1932 25.6563 60.9545 25.8778 60.6477C26.0994 60.3352 26.2074 59.9773 26.2017 59.5739C26.2074 59.1818 26.1136 58.8381 25.9205 58.5426C25.733 58.2415 25.4688 58.0085 25.1278 57.8438C24.7926 57.679 24.4034 57.5966 23.9602 57.5966C23.4943 57.5966 23.071 57.679 22.6903 57.8438C22.3153 58.0085 22.017 58.2415 21.7955 58.5426C21.5739 58.8437 21.4574 59.1932 21.446 59.5909H17.4148C17.4261 58.5511 17.7159 57.6364 18.2841 56.8466C18.8523 56.0511 19.625 55.429 20.6023 54.9801C21.5852 54.5312 22.7045 54.3068 23.9602 54.3068C25.2102 54.3068 26.3097 54.5256 27.2585 54.9631C28.2074 55.4006 28.946 55.9972 29.4744 56.7528C30.0028 57.5028 30.267 58.3523 30.267 59.3011C30.2727 60.2841 29.9517 61.0937 29.304 61.7301C28.6619 62.3665 27.8352 62.7585 26.8239 62.9062V63.0426C28.1761 63.2017 29.196 63.6392 29.8835 64.3551C30.5767 65.071 30.9205 65.9659 30.9148 67.0398C30.9148 68.0511 30.6165 68.9489 30.0199 69.733C29.429 70.5114 28.6051 71.125 27.5483 71.5739C26.4972 72.017 25.2898 72.2386 23.9261 72.2386ZM39.9766 72.2386C38.7038 72.2386 37.5732 72.0085 36.5845 71.5483C35.5959 71.0881 34.8146 70.4545 34.2408 69.6477C33.6726 68.8409 33.3771 67.9148 33.3544 66.8693H37.4453C37.4794 67.5114 37.7408 68.0284 38.2294 68.4205C38.718 68.8068 39.3004 69 39.9766 69C40.505 69 40.9737 68.8835 41.3828 68.6506C41.7919 68.4176 42.1129 68.0909 42.3459 67.6705C42.5788 67.2443 42.6925 66.7557 42.6868 66.2045C42.6925 65.642 42.576 65.1506 42.3374 64.7301C42.1044 64.3097 41.7805 63.983 41.3658 63.75C40.9567 63.5114 40.4851 63.392 39.951 63.392C39.4453 63.3864 38.9652 63.4972 38.5107 63.7244C38.0618 63.9517 37.7209 64.2614 37.4879 64.6534L33.7635 63.9545L34.522 54.5455H45.7209V57.946H37.9908L37.5902 62.0625H37.6925C37.9822 61.5795 38.4482 61.1818 39.0902 60.8693C39.7379 60.5511 40.4737 60.392 41.2976 60.392C42.343 60.392 43.2749 60.6364 44.093 61.125C44.9169 61.608 45.5646 62.2784 46.0362 63.1364C46.5135 63.9943 46.7521 64.9773 46.7521 66.0852C46.7521 67.2841 46.468 68.3466 45.8999 69.2727C45.3374 70.1989 44.5476 70.9261 43.5305 71.4545C42.5192 71.9773 41.3345 72.2386 39.9766 72.2386ZM56.2869 72.4261C54.7642 72.4261 53.4517 72.0653 52.3494 71.3438C51.2472 70.6165 50.3977 69.5739 49.8011 68.2159C49.2045 66.8523 48.9091 65.2131 48.9148 63.2983C48.9205 61.3835 49.2188 59.7585 49.8097 58.4233C50.4063 57.0824 51.2528 56.0625 52.3494 55.3636C53.4517 54.6591 54.7642 54.3068 56.2869 54.3068C57.8097 54.3068 59.1222 54.6591 60.2244 55.3636C61.3324 56.0625 62.1847 57.0824 62.7812 58.4233C63.3778 59.7642 63.6733 61.3892 63.6676 63.2983C63.6676 65.2187 63.3693 66.8608 62.7727 68.2244C62.1761 69.5881 61.3267 70.6307 60.2244 71.3523C59.1278 72.0682 57.8153 72.4261 56.2869 72.4261ZM56.2869 68.9744C57.196 68.9744 57.9318 68.5114 58.4943 67.5852C59.0568 66.6534 59.3352 65.2244 59.3295 63.2983C59.3295 62.0369 59.2017 60.9972 58.946 60.179C58.6903 59.3551 58.3352 58.7415 57.8807 58.3381C57.4261 57.9347 56.8949 57.733 56.2869 57.733C55.3835 57.733 54.6534 58.1903 54.0966 59.1051C53.5398 60.0142 53.2585 61.4119 53.2528 63.2983C53.2472 64.5767 53.3693 65.6364 53.6193 66.4773C53.875 67.3182 54.233 67.946 54.6932 68.3608C55.1534 68.7699 55.6847 68.9744 56.2869 68.9744Z" fill="#212121"/>
<mask id="path-16-inside-2_392_11158" fill="white">
<path d="M207.8 0H415.6V310H207.8V0Z"/>
</mask>
<path d="M414.6 0V310H416.6V0H414.6Z" fill="#DBDBDB" mask="url(#path-16-inside-2_392_11158)"/>
<path d="M225.905 30H224.613L228.351 19.8182H229.624L233.363 30H232.07L229.028 21.429H228.948L225.905 30ZM226.383 26.0227H231.593V27.1165H226.383V26.0227ZM237.892 30.1591C237.176 30.1591 236.56 29.9901 236.043 29.652C235.525 29.3139 235.128 28.8482 234.849 28.255C234.571 27.6617 234.432 26.9839 234.432 26.2216C234.432 25.446 234.574 24.7616 234.859 24.1683C235.148 23.5717 235.549 23.1061 236.062 22.7713C236.579 22.4332 237.183 22.2642 237.872 22.2642C238.409 22.2642 238.893 22.3636 239.324 22.5625C239.755 22.7614 240.108 23.0398 240.383 23.3977C240.658 23.7557 240.829 24.1733 240.895 24.6506H239.722C239.632 24.3026 239.433 23.9943 239.125 23.7259C238.82 23.4541 238.409 23.3182 237.892 23.3182C237.435 23.3182 237.034 23.4375 236.689 23.6761C236.347 23.9115 236.081 24.2446 235.888 24.6754C235.699 25.103 235.605 25.6051 235.605 26.1818C235.605 26.7718 235.698 27.2855 235.883 27.723C236.072 28.1605 236.338 28.5002 236.679 28.7422C237.024 28.9841 237.428 29.1051 237.892 29.1051C238.197 29.1051 238.474 29.0521 238.722 28.946C238.971 28.84 239.181 28.6875 239.354 28.4886C239.526 28.2898 239.649 28.0511 239.722 27.7727H240.895C240.829 28.2235 240.664 28.6295 240.403 28.9908C240.144 29.3487 239.801 29.6338 239.373 29.8459C238.949 30.0547 238.455 30.1591 237.892 30.1591ZM245.931 22.3636V23.358H241.974V22.3636H245.931ZM243.127 20.5341H244.3V27.8125C244.3 28.1439 244.348 28.3925 244.445 28.5582C244.544 28.7206 244.67 28.83 244.822 28.8864C244.978 28.9394 245.142 28.9659 245.315 28.9659C245.444 28.9659 245.55 28.9593 245.633 28.946C245.716 28.9295 245.782 28.9162 245.832 28.9062L246.07 29.9602C245.991 29.9901 245.88 30.0199 245.737 30.0497C245.595 30.0829 245.414 30.0994 245.195 30.0994C244.864 30.0994 244.539 30.0282 244.221 29.8857C243.906 29.7431 243.644 29.526 243.435 29.2344C243.23 28.9427 243.127 28.5748 243.127 28.1307V20.5341ZM247.696 30V22.3636H248.869V30H247.696ZM248.293 21.0909C248.064 21.0909 247.867 21.013 247.701 20.8572C247.539 20.7015 247.457 20.5142 247.457 20.2955C247.457 20.0767 247.539 19.8894 247.701 19.7337C247.867 19.5779 248.064 19.5 248.293 19.5C248.521 19.5 248.717 19.5779 248.879 19.7337C249.045 19.8894 249.128 20.0767 249.128 20.2955C249.128 20.5142 249.045 20.7015 248.879 20.8572C248.717 21.013 248.521 21.0909 248.293 21.0909ZM257.263 22.3636L254.439 30H253.245L250.422 22.3636H251.694L253.802 28.4489H253.882L255.99 22.3636H257.263ZM260.826 30.179C260.342 30.179 259.903 30.0878 259.508 29.9055C259.114 29.7199 258.801 29.4531 258.569 29.1051C258.337 28.7538 258.221 28.3295 258.221 27.8324C258.221 27.3949 258.307 27.0402 258.479 26.7685C258.652 26.4934 258.882 26.2779 259.17 26.1222C259.459 25.9664 259.777 25.8504 260.125 25.7741C260.476 25.6946 260.829 25.6316 261.184 25.5852C261.648 25.5256 262.024 25.4808 262.312 25.451C262.604 25.4179 262.816 25.3632 262.949 25.2869C263.085 25.2107 263.153 25.0781 263.153 24.8892V24.8494C263.153 24.3589 263.018 23.9777 262.75 23.706C262.485 23.4342 262.082 23.2983 261.542 23.2983C260.982 23.2983 260.543 23.4209 260.224 23.6662C259.906 23.9115 259.682 24.1733 259.553 24.4517L258.44 24.054C258.638 23.59 258.904 23.2287 259.235 22.9702C259.57 22.7083 259.934 22.526 260.329 22.4233C260.726 22.3172 261.118 22.2642 261.502 22.2642C261.747 22.2642 262.029 22.294 262.347 22.3537C262.669 22.41 262.979 22.5277 263.277 22.7067C263.579 22.8857 263.829 23.1558 264.028 23.517C264.226 23.8783 264.326 24.3622 264.326 24.9688V30H263.153V28.9659H263.093C263.013 29.1316 262.881 29.3089 262.695 29.4979C262.51 29.6868 262.263 29.8475 261.954 29.9801C261.646 30.1127 261.27 30.179 260.826 30.179ZM261.005 29.125C261.469 29.125 261.86 29.0339 262.178 28.8516C262.5 28.6693 262.742 28.4339 262.904 28.1456C263.07 27.8572 263.153 27.554 263.153 27.2358V26.1619C263.103 26.2216 262.994 26.2763 262.824 26.326C262.659 26.3724 262.467 26.4138 262.248 26.4503C262.032 26.4834 261.822 26.5133 261.616 26.5398C261.414 26.563 261.25 26.5829 261.124 26.5994C260.819 26.6392 260.534 26.7038 260.269 26.7933C260.007 26.8795 259.795 27.0104 259.633 27.1861C259.474 27.3584 259.394 27.5937 259.394 27.892C259.394 28.2997 259.545 28.608 259.847 28.8168C260.151 29.0223 260.538 29.125 261.005 29.125ZM269.788 22.3636V23.358H265.831V22.3636H269.788ZM266.984 20.5341H268.158V27.8125C268.158 28.1439 268.206 28.3925 268.302 28.5582C268.401 28.7206 268.527 28.83 268.68 28.8864C268.836 28.9394 269 28.9659 269.172 28.9659C269.301 28.9659 269.407 28.9593 269.49 28.946C269.573 28.9295 269.639 28.9162 269.689 28.9062L269.928 29.9602C269.848 29.9901 269.737 30.0199 269.595 30.0497C269.452 30.0829 269.271 30.0994 269.053 30.0994C268.721 30.0994 268.396 30.0282 268.078 29.8857C267.763 29.7431 267.502 29.526 267.293 29.2344C267.087 28.9427 266.984 28.5748 266.984 28.1307V20.5341ZM271.553 30V22.3636H272.727V30H271.553ZM272.15 21.0909C271.921 21.0909 271.724 21.013 271.558 20.8572C271.396 20.7015 271.315 20.5142 271.315 20.2955C271.315 20.0767 271.396 19.8894 271.558 19.7337C271.724 19.5779 271.921 19.5 272.15 19.5C272.379 19.5 272.574 19.5779 272.737 19.7337C272.902 19.8894 272.985 20.0767 272.985 20.2955C272.985 20.5142 272.902 20.7015 272.737 20.8572C272.574 21.013 272.379 21.0909 272.15 21.0909ZM277.978 30.1591C277.289 30.1591 276.684 29.995 276.163 29.6669C275.646 29.3388 275.242 28.8797 274.95 28.2898C274.662 27.6998 274.518 27.0104 274.518 26.2216C274.518 25.4261 274.662 24.7318 274.95 24.1385C275.242 23.5452 275.646 23.0845 276.163 22.7564C276.684 22.4283 277.289 22.2642 277.978 22.2642C278.667 22.2642 279.271 22.4283 279.788 22.7564C280.308 23.0845 280.712 23.5452 281.001 24.1385C281.292 24.7318 281.438 25.4261 281.438 26.2216C281.438 27.0104 281.292 27.6998 281.001 28.2898C280.712 28.8797 280.308 29.3388 279.788 29.6669C279.271 29.995 278.667 30.1591 277.978 30.1591ZM277.978 29.1051C278.502 29.1051 278.932 28.9709 279.271 28.7024C279.609 28.4339 279.859 28.081 280.021 27.6435C280.184 27.206 280.265 26.732 280.265 26.2216C280.265 25.7112 280.184 25.2356 280.021 24.7947C279.859 24.3539 279.609 23.9976 279.271 23.7259C278.932 23.4541 278.502 23.3182 277.978 23.3182C277.454 23.3182 277.023 23.4541 276.685 23.7259C276.347 23.9976 276.097 24.3539 275.935 24.7947C275.772 25.2356 275.691 25.7112 275.691 26.2216C275.691 26.732 275.772 27.206 275.935 27.6435C276.097 28.081 276.347 28.4339 276.685 28.7024C277.023 28.9709 277.454 29.1051 277.978 29.1051ZM284.402 25.4062V30H283.229V22.3636H284.363V23.5568H284.462C284.641 23.169 284.913 22.8575 285.277 22.6222C285.642 22.3835 286.113 22.2642 286.689 22.2642C287.206 22.2642 287.659 22.3703 288.047 22.5824C288.434 22.7912 288.736 23.1094 288.951 23.5369C289.167 23.9612 289.275 24.4981 289.275 25.1477V30H288.101V25.2273C288.101 24.6274 287.946 24.16 287.634 23.8253C287.322 23.4872 286.895 23.3182 286.351 23.3182C285.977 23.3182 285.642 23.3994 285.347 23.5618C285.055 23.7242 284.825 23.9612 284.656 24.2727C284.487 24.5843 284.402 24.9621 284.402 25.4062Z" fill="#212121"/>
<path d="M231.769 72.2386C230.496 72.2386 229.365 72.0085 228.377 71.5483C227.388 71.0881 226.607 70.4545 226.033 69.6477C225.465 68.8409 225.169 67.9148 225.146 66.8693H229.237C229.271 67.5114 229.533 68.0284 230.021 68.4205C230.51 68.8068 231.092 69 231.769 69C232.297 69 232.766 68.8835 233.175 68.6506C233.584 68.4176 233.905 68.0909 234.138 67.6705C234.371 67.2443 234.484 66.7557 234.479 66.2045C234.484 65.642 234.368 65.1506 234.129 64.7301C233.896 64.3097 233.573 63.983 233.158 63.75C232.749 63.5114 232.277 63.392 231.743 63.392C231.237 63.3864 230.757 63.4972 230.303 63.7244C229.854 63.9517 229.513 64.2614 229.28 64.6534L225.555 63.9545L226.314 54.5455H237.513V57.946H229.783L229.382 62.0625H229.484C229.774 61.5795 230.24 61.1818 230.882 60.8693C231.53 60.5511 232.266 60.392 233.09 60.392C234.135 60.392 235.067 60.6364 235.885 61.125C236.709 61.608 237.357 62.2784 237.828 63.1364C238.305 63.9943 238.544 64.9773 238.544 66.0852C238.544 67.2841 238.26 68.3466 237.692 69.2727C237.129 70.1989 236.34 70.9261 235.323 71.4545C234.311 71.9773 233.127 72.2386 231.769 72.2386Z" fill="#212121"/>
<mask id="path-20-inside-3_392_11158" fill="white">
<path d="M415.6 0H623.4V310H415.6V0Z"/>
</mask>
<path d="M622.4 0V310H624.4V0H622.4Z" fill="#DBDBDB" mask="url(#path-20-inside-3_392_11158)"/>
<path d="M433.175 30V19.8182H436.616C437.411 19.8182 438.064 19.9541 438.574 20.2259C439.085 20.4943 439.463 20.8639 439.708 21.3345C439.953 21.8052 440.076 22.3404 440.076 22.9403C440.076 23.5402 439.953 24.0722 439.708 24.5362C439.463 25.0002 439.087 25.3648 438.579 25.63C438.072 25.8918 437.424 26.0227 436.636 26.0227H433.851V24.9091H436.596C437.139 24.9091 437.577 24.8295 437.908 24.6705C438.243 24.5114 438.485 24.286 438.634 23.9943C438.787 23.6993 438.863 23.348 438.863 22.9403C438.863 22.5327 438.787 22.1764 438.634 21.8714C438.482 21.5665 438.238 21.3312 437.903 21.1655C437.569 20.9964 437.126 20.9119 436.576 20.9119H434.408V30H433.175ZM437.968 25.4261L440.474 30H439.042L436.576 25.4261H437.968ZM445.091 30.1591C444.355 30.1591 443.72 29.9967 443.187 29.6719C442.657 29.3438 442.247 28.8864 441.959 28.2997C441.674 27.7098 441.531 27.0237 441.531 26.2415C441.531 25.4593 441.674 24.7699 441.959 24.1733C442.247 23.5734 442.648 23.1061 443.162 22.7713C443.679 22.4332 444.282 22.2642 444.972 22.2642C445.369 22.2642 445.762 22.3305 446.15 22.4631C446.538 22.5956 446.891 22.8111 447.209 23.1094C447.527 23.4044 447.781 23.7955 447.97 24.2827C448.158 24.7699 448.253 25.3698 448.253 26.0824V26.5795H442.367V25.5653H447.06C447.06 25.1345 446.974 24.75 446.801 24.4119C446.632 24.0739 446.39 23.8071 446.075 23.6115C445.764 23.416 445.396 23.3182 444.972 23.3182C444.504 23.3182 444.1 23.4342 443.759 23.6662C443.421 23.8949 443.16 24.1932 442.978 24.5611C442.796 24.929 442.705 25.3234 442.705 25.7443V26.4205C442.705 26.9972 442.804 27.486 443.003 27.8871C443.205 28.2848 443.485 28.5881 443.843 28.7969C444.201 29.0024 444.617 29.1051 445.091 29.1051C445.399 29.1051 445.678 29.062 445.926 28.9759C446.178 28.8864 446.395 28.7538 446.578 28.5781C446.76 28.3991 446.901 28.1771 447 27.9119L448.134 28.2301C448.014 28.6146 447.814 28.9527 447.532 29.2443C447.25 29.5327 446.902 29.758 446.488 29.9205C446.074 30.0795 445.608 30.1591 445.091 30.1591ZM453.359 22.3636V23.358H449.401V22.3636H453.359ZM450.555 20.5341H451.728V27.8125C451.728 28.1439 451.776 28.3925 451.872 28.5582C451.972 28.7206 452.098 28.83 452.25 28.8864C452.406 28.9394 452.57 28.9659 452.742 28.9659C452.872 28.9659 452.978 28.9593 453.06 28.946C453.143 28.9295 453.21 28.9162 453.259 28.9062L453.498 29.9602C453.418 29.9901 453.307 30.0199 453.165 30.0497C453.022 30.0829 452.842 30.0994 452.623 30.0994C452.292 30.0994 451.967 30.0282 451.649 29.8857C451.334 29.7431 451.072 29.526 450.863 29.2344C450.658 28.9427 450.555 28.5748 450.555 28.1307V20.5341ZM458.243 30.1591C457.508 30.1591 456.873 29.9967 456.339 29.6719C455.809 29.3438 455.4 28.8864 455.111 28.2997C454.826 27.7098 454.684 27.0237 454.684 26.2415C454.684 25.4593 454.826 24.7699 455.111 24.1733C455.4 23.5734 455.801 23.1061 456.314 22.7713C456.831 22.4332 457.435 22.2642 458.124 22.2642C458.522 22.2642 458.915 22.3305 459.302 22.4631C459.69 22.5956 460.043 22.8111 460.361 23.1094C460.679 23.4044 460.933 23.7955 461.122 24.2827C461.311 24.7699 461.405 25.3698 461.405 26.0824V26.5795H455.519V25.5653H460.212C460.212 25.1345 460.126 24.75 459.954 24.4119C459.785 24.0739 459.543 23.8071 459.228 23.6115C458.916 23.416 458.548 23.3182 458.124 23.3182C457.657 23.3182 457.252 23.4342 456.911 23.6662C456.573 23.8949 456.313 24.1932 456.13 24.5611C455.948 24.929 455.857 25.3234 455.857 25.7443V26.4205C455.857 26.9972 455.956 27.486 456.155 27.8871C456.357 28.2848 456.638 28.5881 456.995 28.7969C457.353 29.0024 457.769 29.1051 458.243 29.1051C458.552 29.1051 458.83 29.062 459.079 28.9759C459.33 28.8864 459.548 28.7538 459.73 28.5781C459.912 28.3991 460.053 28.1771 460.152 27.9119L461.286 28.2301C461.167 28.6146 460.966 28.9527 460.684 29.2443C460.403 29.5327 460.055 29.758 459.64 29.9205C459.226 30.0795 458.76 30.1591 458.243 30.1591ZM464.363 25.4062V30H463.19V22.3636H464.324V23.5568H464.423C464.602 23.169 464.874 22.8575 465.238 22.6222C465.603 22.3835 466.074 22.2642 466.65 22.2642C467.167 22.2642 467.62 22.3703 468.008 22.5824C468.395 22.7912 468.697 23.1094 468.912 23.5369C469.128 23.9612 469.236 24.4981 469.236 25.1477V30H468.062V25.2273C468.062 24.6274 467.906 24.16 467.595 23.8253C467.283 23.4872 466.856 23.3182 466.312 23.3182C465.938 23.3182 465.603 23.3994 465.308 23.5618C465.016 23.7242 464.786 23.9612 464.617 24.2727C464.448 24.5843 464.363 24.9621 464.363 25.4062ZM474.701 22.3636V23.358H470.743V22.3636H474.701ZM471.897 20.5341H473.07V27.8125C473.07 28.1439 473.118 28.3925 473.214 28.5582C473.313 28.7206 473.439 28.83 473.592 28.8864C473.748 28.9394 473.912 28.9659 474.084 28.9659C474.213 28.9659 474.319 28.9593 474.402 28.946C474.485 28.9295 474.551 28.9162 474.601 28.9062L474.84 29.9602C474.76 29.9901 474.649 30.0199 474.507 30.0497C474.364 30.0829 474.184 30.0994 473.965 30.0994C473.633 30.0994 473.309 30.0282 472.99 29.8857C472.675 29.7431 472.414 29.526 472.205 29.2344C471.999 28.9427 471.897 28.5748 471.897 28.1307V20.5341ZM476.465 30V22.3636H477.639V30H476.465ZM477.062 21.0909C476.833 21.0909 476.636 21.013 476.47 20.8572C476.308 20.7015 476.227 20.5142 476.227 20.2955C476.227 20.0767 476.308 19.8894 476.47 19.7337C476.636 19.5779 476.833 19.5 477.062 19.5C477.291 19.5 477.486 19.5779 477.649 19.7337C477.814 19.8894 477.897 20.0767 477.897 20.2955C477.897 20.5142 477.814 20.7015 477.649 20.8572C477.486 21.013 477.291 21.0909 477.062 21.0909ZM482.89 30.1591C482.201 30.1591 481.596 29.995 481.075 29.6669C480.558 29.3388 480.154 28.8797 479.862 28.2898C479.574 27.6998 479.43 27.0104 479.43 26.2216C479.43 25.4261 479.574 24.7318 479.862 24.1385C480.154 23.5452 480.558 23.0845 481.075 22.7564C481.596 22.4283 482.201 22.2642 482.89 22.2642C483.579 22.2642 484.183 22.4283 484.7 22.7564C485.22 23.0845 485.624 23.5452 485.913 24.1385C486.204 24.7318 486.35 25.4261 486.35 26.2216C486.35 27.0104 486.204 27.6998 485.913 28.2898C485.624 28.8797 485.22 29.3388 484.7 29.6669C484.183 29.995 483.579 30.1591 482.89 30.1591ZM482.89 29.1051C483.414 29.1051 483.845 28.9709 484.183 28.7024C484.521 28.4339 484.771 28.081 484.933 27.6435C485.096 27.206 485.177 26.732 485.177 26.2216C485.177 25.7112 485.096 25.2356 484.933 24.7947C484.771 24.3539 484.521 23.9976 484.183 23.7259C483.845 23.4541 483.414 23.3182 482.89 23.3182C482.366 23.3182 481.935 23.4541 481.597 23.7259C481.259 23.9976 481.009 24.3539 480.847 24.7947C480.684 25.2356 480.603 25.7112 480.603 26.2216C480.603 26.732 480.684 27.206 480.847 27.6435C481.009 28.081 481.259 28.4339 481.597 28.7024C481.935 28.9709 482.366 29.1051 482.89 29.1051ZM489.315 25.4062V30H488.141V22.3636H489.275V23.5568H489.374C489.553 23.169 489.825 22.8575 490.19 22.6222C490.554 22.3835 491.025 22.2642 491.601 22.2642C492.119 22.2642 492.571 22.3703 492.959 22.5824C493.347 22.7912 493.648 23.1094 493.864 23.5369C494.079 23.9612 494.187 24.4981 494.187 25.1477V30H493.013V25.2273C493.013 24.6274 492.858 24.16 492.546 23.8253C492.235 23.4872 491.807 23.3182 491.263 23.3182C490.889 23.3182 490.554 23.3994 490.259 23.5618C489.967 23.7242 489.737 23.9612 489.568 24.2727C489.399 24.5843 489.315 24.9621 489.315 25.4062Z" fill="#212121"/>
<path d="M432.887 72V68.9659L439.253 63.392C439.73 62.9602 440.137 62.5653 440.472 62.2074C440.807 61.8437 441.063 61.4801 441.239 61.1165C441.415 60.7472 441.503 60.3466 441.503 59.9148C441.503 59.4318 441.398 59.0199 441.188 58.679C440.977 58.3324 440.688 58.0653 440.318 57.8778C439.949 57.6903 439.526 57.5966 439.048 57.5966C438.566 57.5966 438.142 57.696 437.779 57.8949C437.415 58.0881 437.131 58.3693 436.926 58.7386C436.727 59.108 436.628 59.5568 436.628 60.0852H432.631C432.631 58.8977 432.898 57.8722 433.432 57.0085C433.966 56.1449 434.716 55.4801 435.682 55.0142C436.654 54.5426 437.781 54.3068 439.066 54.3068C440.389 54.3068 441.54 54.5284 442.517 54.9716C443.494 55.4148 444.25 56.0341 444.784 56.8295C445.324 57.6193 445.594 58.5369 445.594 59.5824C445.594 60.2472 445.46 60.9062 445.193 61.5597C444.926 62.2131 444.446 62.9347 443.753 63.7244C443.066 64.5142 442.088 65.4602 440.821 66.5625L438.733 68.4886V68.5994H445.807V72H432.887Z" fill="#212121"/>
<mask id="path-24-inside-4_392_11158" fill="white">
<path d="M623.4 0H831.2V310H623.4V0Z"/>
</mask>
<path d="M830.2 0V310H832.2V0H830.2Z" fill="#DBDBDB" mask="url(#path-24-inside-4_392_11158)"/>
<path d="M640.669 30V19.8182H644.109C644.904 19.8182 645.557 19.9541 646.068 20.2259C646.578 20.4943 646.956 20.8639 647.201 21.3345C647.446 21.8052 647.569 22.3404 647.569 22.9403C647.569 23.5402 647.446 24.0722 647.201 24.5362C646.956 25.0002 646.58 25.3648 646.073 25.63C645.566 25.8918 644.918 26.0227 644.129 26.0227H641.345V24.9091H644.089C644.633 24.9091 645.07 24.8295 645.401 24.6705C645.736 24.5114 645.978 24.286 646.127 23.9943C646.28 23.6993 646.356 23.348 646.356 22.9403C646.356 22.5327 646.28 22.1764 646.127 21.8714C645.975 21.5665 645.731 21.3312 645.396 21.1655C645.062 20.9964 644.619 20.9119 644.069 20.9119H641.901V30H640.669ZM645.461 25.4261L647.967 30H646.535L644.069 25.4261H645.461ZM652.584 30.1591C651.848 30.1591 651.214 29.9967 650.68 29.6719C650.15 29.3438 649.74 28.8864 649.452 28.2997C649.167 27.7098 649.025 27.0237 649.025 26.2415C649.025 25.4593 649.167 24.7699 649.452 24.1733C649.74 23.5734 650.141 23.1061 650.655 22.7713C651.172 22.4332 651.775 22.2642 652.465 22.2642C652.863 22.2642 653.255 22.3305 653.643 22.4631C654.031 22.5956 654.384 22.8111 654.702 23.1094C655.02 23.4044 655.274 23.7955 655.463 24.2827C655.652 24.7699 655.746 25.3698 655.746 26.0824V26.5795H649.86V25.5653H654.553C654.553 25.1345 654.467 24.75 654.294 24.4119C654.125 24.0739 653.883 23.8071 653.569 23.6115C653.257 23.416 652.889 23.3182 652.465 23.3182C651.998 23.3182 651.593 23.4342 651.252 23.6662C650.914 23.8949 650.654 24.1932 650.471 24.5611C650.289 24.929 650.198 25.3234 650.198 25.7443V26.4205C650.198 26.9972 650.297 27.486 650.496 27.8871C650.698 28.2848 650.978 28.5881 651.336 28.7969C651.694 29.0024 652.11 29.1051 652.584 29.1051C652.892 29.1051 653.171 29.062 653.419 28.9759C653.671 28.8864 653.888 28.7538 654.071 28.5781C654.253 28.3991 654.394 28.1771 654.493 27.9119L655.627 28.2301C655.507 28.6146 655.307 28.9527 655.025 29.2443C654.743 29.5327 654.395 29.758 653.981 29.9205C653.567 30.0795 653.101 30.1591 652.584 30.1591ZM663.543 22.3636L660.719 30H659.526L656.702 22.3636H657.975L660.083 28.4489H660.162L662.27 22.3636H663.543ZM668.02 30.1591C667.284 30.1591 666.649 29.9967 666.116 29.6719C665.585 29.3438 665.176 28.8864 664.888 28.2997C664.603 27.7098 664.46 27.0237 664.46 26.2415C664.46 25.4593 664.603 24.7699 664.888 24.1733C665.176 23.5734 665.577 23.1061 666.091 22.7713C666.608 22.4332 667.211 22.2642 667.9 22.2642C668.298 22.2642 668.691 22.3305 669.079 22.4631C669.466 22.5956 669.819 22.8111 670.138 23.1094C670.456 23.4044 670.709 23.7955 670.898 24.2827C671.087 24.7699 671.182 25.3698 671.182 26.0824V26.5795H665.295V25.5653H669.988C669.988 25.1345 669.902 24.75 669.73 24.4119C669.561 24.0739 669.319 23.8071 669.004 23.6115C668.693 23.416 668.325 23.3182 667.9 23.3182C667.433 23.3182 667.029 23.4342 666.687 23.6662C666.349 23.8949 666.089 24.1932 665.907 24.5611C665.724 24.929 665.633 25.3234 665.633 25.7443V26.4205C665.633 26.9972 665.733 27.486 665.932 27.8871C666.134 28.2848 666.414 28.5881 666.772 28.7969C667.13 29.0024 667.546 29.1051 668.02 29.1051C668.328 29.1051 668.606 29.062 668.855 28.9759C669.107 28.8864 669.324 28.7538 669.506 28.5781C669.689 28.3991 669.829 28.1771 669.929 27.9119L671.062 28.2301C670.943 28.6146 670.742 28.9527 670.461 29.2443C670.179 29.5327 669.831 29.758 669.417 29.9205C669.002 30.0795 668.537 30.1591 668.02 30.1591ZM674.14 25.4062V30H672.966V22.3636H674.1V23.5568H674.199C674.378 23.169 674.65 22.8575 675.015 22.6222C675.379 22.3835 675.85 22.2642 676.427 22.2642C676.944 22.2642 677.396 22.3703 677.784 22.5824C678.172 22.7912 678.473 23.1094 678.689 23.5369C678.904 23.9612 679.012 24.4981 679.012 25.1477V30H677.839V25.2273C677.839 24.6274 677.683 24.16 677.371 23.8253C677.06 23.4872 676.632 23.3182 676.089 23.3182C675.714 23.3182 675.379 23.3994 675.084 23.5618C674.793 23.7242 674.562 23.9612 674.393 24.2727C674.224 24.5843 674.14 24.9621 674.14 25.4062ZM685.968 26.8778V22.3636H687.142V30H685.968V28.7074H685.889C685.71 29.0952 685.431 29.425 685.054 29.6967C684.676 29.9652 684.199 30.0994 683.622 30.0994C683.145 30.0994 682.72 29.995 682.349 29.7862C681.978 29.5741 681.686 29.2559 681.474 28.8317C681.262 28.4041 681.156 27.8655 681.156 27.2159V22.3636H682.329V27.1364C682.329 27.6932 682.485 28.1373 682.797 28.4688C683.111 28.8002 683.512 28.9659 684 28.9659C684.291 28.9659 684.588 28.8913 684.89 28.7422C685.194 28.593 685.45 28.3643 685.655 28.0561C685.864 27.7479 685.968 27.3551 685.968 26.8778ZM692.492 30.1591C691.757 30.1591 691.122 29.9967 690.588 29.6719C690.058 29.3438 689.649 28.8864 689.36 28.2997C689.075 27.7098 688.933 27.0237 688.933 26.2415C688.933 25.4593 689.075 24.7699 689.36 24.1733C689.649 23.5734 690.05 23.1061 690.563 22.7713C691.08 22.4332 691.684 22.2642 692.373 22.2642C692.771 22.2642 693.164 22.3305 693.551 22.4631C693.939 22.5956 694.292 22.8111 694.61 23.1094C694.928 23.4044 695.182 23.7955 695.371 24.2827C695.56 24.7699 695.654 25.3698 695.654 26.0824V26.5795H689.768V25.5653H694.461C694.461 25.1345 694.375 24.75 694.203 24.4119C694.034 24.0739 693.792 23.8071 693.477 23.6115C693.165 23.416 692.797 23.3182 692.373 23.3182C691.906 23.3182 691.501 23.4342 691.16 23.6662C690.822 23.8949 690.562 24.1932 690.379 24.5611C690.197 24.929 690.106 25.3234 690.106 25.7443V26.4205C690.106 26.9972 690.205 27.486 690.404 27.8871C690.606 28.2848 690.887 28.5881 691.244 28.7969C691.602 29.0024 692.018 29.1051 692.492 29.1051C692.801 29.1051 693.079 29.062 693.328 28.9759C693.579 28.8864 693.797 28.7538 693.979 28.5781C694.161 28.3991 694.302 28.1771 694.401 27.9119L695.535 28.2301C695.416 28.6146 695.215 28.9527 694.933 29.2443C694.652 29.5327 694.304 29.758 693.889 29.9205C693.475 30.0795 693.009 30.1591 692.492 30.1591Z" fill="#212121"/>
<path d="M647.906 72.4261C646.383 72.4261 645.071 72.0653 643.969 71.3438C642.866 70.6165 642.017 69.5739 641.42 68.2159C640.824 66.8523 640.528 65.2131 640.534 63.2983C640.54 61.3835 640.838 59.7585 641.429 58.4233C642.025 57.0824 642.872 56.0625 643.969 55.3636C645.071 54.6591 646.383 54.3068 647.906 54.3068C649.429 54.3068 650.741 54.6591 651.844 55.3636C652.952 56.0625 653.804 57.0824 654.4 58.4233C654.997 59.7642 655.292 61.3892 655.287 63.2983C655.287 65.2187 654.988 66.8608 654.392 68.2244C653.795 69.5881 652.946 70.6307 651.844 71.3523C650.747 72.0682 649.434 72.4261 647.906 72.4261ZM647.906 68.9744C648.815 68.9744 649.551 68.5114 650.113 67.5852C650.676 66.6534 650.954 65.2244 650.949 63.2983C650.949 62.0369 650.821 60.9972 650.565 60.179C650.309 59.3551 649.954 58.7415 649.5 58.3381C649.045 57.9347 648.514 57.733 647.906 57.733C647.003 57.733 646.273 58.1903 645.716 59.1051C645.159 60.0142 644.878 61.4119 644.872 63.2983C644.866 64.5767 644.988 65.6364 645.238 66.4773C645.494 67.3182 645.852 67.946 646.312 68.3608C646.773 68.7699 647.304 68.9744 647.906 68.9744ZM659.331 72.2472C658.717 72.2472 658.192 72.0312 657.754 71.5994C657.322 71.1676 657.109 70.6449 657.115 70.0312C657.109 69.429 657.322 68.9148 657.754 68.4886C658.192 68.0568 658.717 67.8409 659.331 67.8409C659.91 67.8409 660.422 68.0568 660.865 68.4886C661.314 68.9148 661.541 69.429 661.547 70.0312C661.541 70.4403 661.433 70.8125 661.223 71.1477C661.018 71.483 660.748 71.75 660.413 71.9489C660.084 72.1477 659.723 72.2472 659.331 72.2472ZM664.052 69.1023V65.8125L671.203 54.5455H674.126V59.0114H672.43L668.246 65.642V65.7784H678.601V69.1023H664.052ZM672.481 72V68.0966L672.567 66.6562V54.5455H676.513V72H672.481Z" fill="#212121"/>
<mask id="path-28-inside-5_392_11158" fill="white">
<path d="M831.2 0H1039V310H831.2V0Z"/>
</mask>
<path d="M1038 0V310H1040V0H1038Z" fill="#DBDBDB" mask="url(#path-28-inside-5_392_11158)"/>
<path d="M848.569 30V19.8182H852.009C852.805 19.8182 853.458 19.9541 853.968 20.2259C854.478 20.4943 854.856 20.8639 855.102 21.3345C855.347 21.8052 855.469 22.3404 855.469 22.9403C855.469 23.5402 855.347 24.0722 855.102 24.5362C854.856 25.0002 854.48 25.3648 853.973 25.63C853.466 25.8918 852.818 26.0227 852.029 26.0227H849.245V24.9091H851.989C852.533 24.9091 852.97 24.8295 853.302 24.6705C853.637 24.5114 853.879 24.286 854.028 23.9943C854.18 23.6993 854.256 23.348 854.256 22.9403C854.256 22.5327 854.18 22.1764 854.028 21.8714C853.875 21.5665 853.632 21.3312 853.297 21.1655C852.962 20.9964 852.52 20.9119 851.969 20.9119H849.802V30H848.569ZM853.362 25.4261L855.867 30H854.435L851.969 25.4261H853.362ZM860.485 30.1591C859.749 30.1591 859.114 29.9967 858.58 29.6719C858.05 29.3438 857.641 28.8864 857.352 28.2997C857.067 27.7098 856.925 27.0237 856.925 26.2415C856.925 25.4593 857.067 24.7699 857.352 24.1733C857.641 23.5734 858.042 23.1061 858.556 22.7713C859.073 22.4332 859.676 22.2642 860.365 22.2642C860.763 22.2642 861.156 22.3305 861.544 22.4631C861.931 22.5956 862.284 22.8111 862.602 23.1094C862.921 23.4044 863.174 23.7955 863.363 24.2827C863.552 24.7699 863.646 25.3698 863.646 26.0824V26.5795H857.76V25.5653H862.453C862.453 25.1345 862.367 24.75 862.195 24.4119C862.026 24.0739 861.784 23.8071 861.469 23.6115C861.157 23.416 860.789 23.3182 860.365 23.3182C859.898 23.3182 859.494 23.4342 859.152 23.6662C858.814 23.8949 858.554 24.1932 858.372 24.5611C858.189 24.929 858.098 25.3234 858.098 25.7443V26.4205C858.098 26.9972 858.198 27.486 858.396 27.8871C858.599 28.2848 858.879 28.5881 859.237 28.7969C859.595 29.0024 860.011 29.1051 860.485 29.1051C860.793 29.1051 861.071 29.062 861.32 28.9759C861.572 28.8864 861.789 28.7538 861.971 28.5781C862.153 28.3991 862.294 28.1771 862.394 27.9119L863.527 28.2301C863.408 28.6146 863.207 28.9527 862.926 29.2443C862.644 29.5327 862.296 29.758 861.882 29.9205C861.467 30.0795 861.002 30.1591 860.485 30.1591ZM865.59 30V19.8182H866.764V23.5767H866.863C866.949 23.4441 867.069 23.2751 867.221 23.0696C867.377 22.8608 867.599 22.6752 867.887 22.5128C868.179 22.3471 868.573 22.2642 869.07 22.2642C869.713 22.2642 870.28 22.425 870.771 22.7464C871.261 23.0679 871.644 23.5237 871.919 24.1136C872.194 24.7036 872.332 25.3996 872.332 26.2017C872.332 27.0104 872.194 27.7114 871.919 28.3047C871.644 28.8946 871.263 29.352 870.776 29.6768C870.289 29.9983 869.727 30.1591 869.09 30.1591C868.6 30.1591 868.207 30.0779 867.912 29.9155C867.617 29.7498 867.39 29.5625 867.231 29.3537C867.072 29.1416 866.949 28.9659 866.863 28.8267H866.724V30H865.59ZM866.744 26.1818C866.744 26.7585 866.828 27.2673 866.997 27.7081C867.166 28.1456 867.413 28.4886 867.738 28.7372C868.063 28.9825 868.461 29.1051 868.931 29.1051C869.422 29.1051 869.831 28.9759 870.159 28.7173C870.491 28.4555 870.739 28.1042 870.905 27.6634C871.074 27.2192 871.159 26.7254 871.159 26.1818C871.159 25.6449 871.076 25.161 870.91 24.7301C870.748 24.2959 870.501 23.9529 870.169 23.701C869.841 23.4458 869.428 23.3182 868.931 23.3182C868.454 23.3182 868.053 23.4392 867.728 23.6811C867.403 23.9197 867.158 24.2545 866.992 24.6854C866.827 25.1129 866.744 25.6117 866.744 26.1818ZM878.939 26.8778V22.3636H880.112V30H878.939V28.7074H878.86C878.681 29.0952 878.402 29.425 878.024 29.6967C877.646 29.9652 877.169 30.0994 876.593 30.0994C876.115 30.0994 875.691 29.995 875.32 29.7862C874.949 29.5741 874.657 29.2559 874.445 28.8317C874.233 28.4041 874.127 27.8655 874.127 27.2159V22.3636H875.3V27.1364C875.3 27.6932 875.456 28.1373 875.767 28.4688C876.082 28.8002 876.483 28.9659 876.97 28.9659C877.262 28.9659 877.559 28.8913 877.86 28.7422C878.165 28.593 878.42 28.3643 878.626 28.0561C878.835 27.7479 878.939 27.3551 878.939 26.8778ZM883.017 32.8636C882.818 32.8636 882.641 32.8471 882.485 32.8139C882.329 32.7841 882.222 32.7543 882.162 32.7244L882.46 31.6903C882.745 31.7633 882.997 31.7898 883.216 31.7699C883.435 31.75 883.629 31.6522 883.798 31.4766C883.97 31.3042 884.127 31.0241 884.27 30.6364L884.489 30.0398L881.665 22.3636H882.938L885.045 28.4489H885.125L887.233 22.3636H888.506L885.264 31.1136C885.118 31.508 884.938 31.8345 884.722 32.093C884.507 32.3549 884.257 32.5488 883.972 32.6747C883.69 32.8007 883.372 32.8636 883.017 32.8636ZM892.983 30.1591C892.247 30.1591 891.612 29.9967 891.078 29.6719C890.548 29.3438 890.139 28.8864 889.85 28.2997C889.565 27.7098 889.423 27.0237 889.423 26.2415C889.423 25.4593 889.565 24.7699 889.85 24.1733C890.139 23.5734 890.54 23.1061 891.054 22.7713C891.571 22.4332 892.174 22.2642 892.863 22.2642C893.261 22.2642 893.654 22.3305 894.042 22.4631C894.429 22.5956 894.782 22.8111 895.1 23.1094C895.419 23.4044 895.672 23.7955 895.861 24.2827C896.05 24.7699 896.145 25.3698 896.145 26.0824V26.5795H890.258V25.5653H894.951C894.951 25.1345 894.865 24.75 894.693 24.4119C894.524 24.0739 894.282 23.8071 893.967 23.6115C893.655 23.416 893.288 23.3182 892.863 23.3182C892.396 23.3182 891.992 23.4342 891.65 23.6662C891.312 23.8949 891.052 24.1932 890.87 24.5611C890.687 24.929 890.596 25.3234 890.596 25.7443V26.4205C890.596 26.9972 890.696 27.486 890.895 27.8871C891.097 28.2848 891.377 28.5881 891.735 28.7969C892.093 29.0024 892.509 29.1051 892.983 29.1051C893.291 29.1051 893.569 29.062 893.818 28.9759C894.07 28.8864 894.287 28.7538 894.469 28.5781C894.651 28.3991 894.792 28.1771 894.892 27.9119L896.025 28.2301C895.906 28.6146 895.705 28.9527 895.424 29.2443C895.142 29.5327 894.794 29.758 894.38 29.9205C893.965 30.0795 893.5 30.1591 892.983 30.1591ZM897.929 30V22.3636H899.063V23.517H899.142C899.282 23.1392 899.533 22.8326 899.898 22.5973C900.263 22.362 900.674 22.2443 901.131 22.2443C901.217 22.2443 901.325 22.246 901.454 22.2493C901.583 22.2526 901.681 22.2576 901.748 22.2642V23.4574C901.708 23.4474 901.617 23.4325 901.474 23.4126C901.335 23.3894 901.187 23.3778 901.032 23.3778C900.66 23.3778 900.329 23.4557 900.037 23.6115C899.749 23.764 899.52 23.9761 899.351 24.2479C899.185 24.5163 899.103 24.8229 899.103 25.1676V30H897.929Z" fill="#212121"/>
<path d="M855.706 72.4261C854.183 72.4261 852.871 72.0653 851.768 71.3438C850.666 70.6165 849.817 69.5739 849.22 68.2159C848.623 66.8523 848.328 65.2131 848.334 63.2983C848.339 61.3835 848.638 59.7585 849.229 58.4233C849.825 57.0824 850.672 56.0625 851.768 55.3636C852.871 54.6591 854.183 54.3068 855.706 54.3068C857.229 54.3068 858.541 54.6591 859.643 55.3636C860.751 56.0625 861.604 57.0824 862.2 58.4233C862.797 59.7642 863.092 61.3892 863.087 63.2983C863.087 65.2187 862.788 66.8608 862.192 68.2244C861.595 69.5881 860.746 70.6307 859.643 71.3523C858.547 72.0682 857.234 72.4261 855.706 72.4261ZM855.706 68.9744C856.615 68.9744 857.351 68.5114 857.913 67.5852C858.476 66.6534 858.754 65.2244 858.748 63.2983C858.748 62.0369 858.621 60.9972 858.365 60.179C858.109 59.3551 857.754 58.7415 857.3 58.3381C856.845 57.9347 856.314 57.733 855.706 57.733C854.802 57.733 854.072 58.1903 853.516 59.1051C852.959 60.0142 852.677 61.4119 852.672 63.2983C852.666 64.5767 852.788 65.6364 853.038 66.4773C853.294 67.3182 853.652 67.946 854.112 68.3608C854.572 68.7699 855.104 68.9744 855.706 68.9744ZM867.131 72.2472C866.517 72.2472 865.991 72.0312 865.554 71.5994C865.122 71.1676 864.909 70.6449 864.915 70.0312C864.909 69.429 865.122 68.9148 865.554 68.4886C865.991 68.0568 866.517 67.8409 867.131 67.8409C867.71 67.8409 868.222 68.0568 868.665 68.4886C869.114 68.9148 869.341 69.429 869.347 70.0312C869.341 70.4403 869.233 70.8125 869.023 71.1477C868.818 71.483 868.548 71.75 868.213 71.9489C867.883 72.1477 867.523 72.2472 867.131 72.2472ZM878.534 72.4261C877.011 72.4261 875.699 72.0653 874.597 71.3438C873.494 70.6165 872.645 69.5739 872.048 68.2159C871.452 66.8523 871.156 65.2131 871.162 63.2983C871.168 61.3835 871.466 59.7585 872.057 58.4233C872.653 57.0824 873.5 56.0625 874.597 55.3636C875.699 54.6591 877.011 54.3068 878.534 54.3068C880.057 54.3068 881.369 54.6591 882.472 55.3636C883.579 56.0625 884.432 57.0824 885.028 58.4233C885.625 59.7642 885.92 61.3892 885.915 63.2983C885.915 65.2187 885.616 66.8608 885.02 68.2244C884.423 69.5881 883.574 70.6307 882.472 71.3523C881.375 72.0682 880.062 72.4261 878.534 72.4261ZM878.534 68.9744C879.443 68.9744 880.179 68.5114 880.741 67.5852C881.304 66.6534 881.582 65.2244 881.577 63.2983C881.577 62.0369 881.449 60.9972 881.193 60.179C880.937 59.3551 880.582 58.7415 880.128 58.3381C879.673 57.9347 879.142 57.733 878.534 57.733C877.631 57.733 876.9 58.1903 876.344 59.1051C875.787 60.0142 875.506 61.4119 875.5 63.2983C875.494 64.5767 875.616 65.6364 875.866 66.4773C876.122 67.3182 876.48 67.946 876.94 68.3608C877.4 68.7699 877.932 68.9744 878.534 68.9744ZM895.149 72.2386C893.791 72.2386 892.578 72.0227 891.51 71.5909C890.447 71.1534 889.612 70.5625 889.004 69.8182C888.402 69.0682 888.101 68.2216 888.101 67.2784C888.101 66.5568 888.274 65.8949 888.621 65.2926C888.967 64.6903 889.436 64.1903 890.027 63.7926C890.623 63.3892 891.288 63.1307 892.021 63.017V62.8807C891.061 62.7045 890.274 62.2585 889.66 61.5426C889.052 60.8267 888.748 59.9886 888.748 59.0284C888.748 58.1193 889.024 57.3097 889.575 56.5994C890.132 55.8892 890.891 55.3295 891.851 54.9205C892.817 54.5114 893.916 54.3068 895.149 54.3068C896.382 54.3068 897.479 54.5114 898.439 54.9205C899.405 55.3295 900.163 55.8892 900.714 56.5994C901.271 57.3097 901.55 58.1193 901.55 59.0284C901.55 59.9943 901.24 60.8352 900.621 61.5511C900.007 62.2614 899.226 62.7045 898.277 62.8807V63.017C899.004 63.1307 899.663 63.3892 900.254 63.7926C900.851 64.1903 901.322 64.6903 901.669 65.2926C902.021 65.8949 902.197 66.5568 902.197 67.2784C902.197 68.2216 901.893 69.0682 901.285 69.8182C900.677 70.5625 899.842 71.1534 898.78 71.5909C897.723 72.0227 896.513 72.2386 895.149 72.2386ZM895.149 69.2472C895.666 69.2472 896.121 69.1506 896.513 68.9574C896.905 68.7585 897.212 68.483 897.433 68.1307C897.66 67.7784 897.774 67.3807 897.774 66.9375C897.774 66.483 897.66 66.0795 897.433 65.7273C897.206 65.375 896.893 65.0994 896.496 64.9006C896.104 64.696 895.655 64.5938 895.149 64.5938C894.649 64.5938 894.2 64.696 893.802 64.9006C893.405 65.0994 893.092 65.375 892.865 65.7273C892.638 66.0795 892.524 66.483 892.524 66.9375C892.524 67.3807 892.635 67.7784 892.856 68.1307C893.084 68.4773 893.393 68.75 893.785 68.9489C894.183 69.1477 894.638 69.2472 895.149 69.2472ZM895.149 61.6193C895.592 61.6193 895.984 61.5284 896.325 61.3466C896.672 61.1648 896.942 60.9119 897.135 60.5881C897.334 60.2642 897.433 59.8977 897.433 59.4886C897.433 59.0795 897.334 58.7188 897.135 58.4062C896.942 58.0938 896.675 57.8494 896.334 57.6733C895.993 57.4915 895.598 57.4006 895.149 57.4006C894.706 57.4006 894.311 57.4915 893.964 57.6733C893.618 57.8494 893.348 58.0938 893.155 58.4062C892.962 58.7188 892.865 59.0795 892.865 59.4886C892.865 59.8977 892.962 60.2642 893.155 60.5881C893.354 60.9062 893.626 61.1591 893.973 61.3466C894.32 61.5284 894.712 61.6193 895.149 61.6193Z" fill="#212121"/>
</svg>
