<svg width="421" height="512" viewBox="0 0 421 512" fill="none" xmlns="http://www.w3.org/2000/svg">
<mask id="path-1-outside-1_393_11321" maskUnits="userSpaceOnUse" x="34" y="0" width="263" height="14" fill="black">
<rect fill="white" x="34" width="263" height="14"/>
<path fill-rule="evenodd" clip-rule="evenodd" d="M46.917 8C46.441 10.8377 43.973 13 41 13C37.6863 13 35 10.3137 35 7C35 3.68629 37.6863 1 41 1C43.6124 1 45.8349 2.66962 46.6586 5H117.341C118.165 2.66962 120.388 1 123 1C125.612 1 127.835 2.66962 128.659 5H199.341C200.165 2.66962 202.388 1 205 1C207.612 1 209.835 2.66962 210.659 5H284.341C285.165 2.66962 287.388 1 290 1C293.314 1 296 3.68629 296 7C296 10.3137 293.314 13 290 13C287.027 13 284.559 10.8377 284.083 8H210.917C210.441 10.8377 207.973 13 205 13C202.027 13 199.559 10.8377 199.083 8H128.917C128.441 10.8377 125.973 13 123 13C120.027 13 117.559 10.8377 117.083 8H46.917Z"/>
</mask>
<path fill-rule="evenodd" clip-rule="evenodd" d="M46.917 8C46.441 10.8377 43.973 13 41 13C37.6863 13 35 10.3137 35 7C35 3.68629 37.6863 1 41 1C43.6124 1 45.8349 2.66962 46.6586 5H117.341C118.165 2.66962 120.388 1 123 1C125.612 1 127.835 2.66962 128.659 5H199.341C200.165 2.66962 202.388 1 205 1C207.612 1 209.835 2.66962 210.659 5H284.341C285.165 2.66962 287.388 1 290 1C293.314 1 296 3.68629 296 7C296 10.3137 293.314 13 290 13C287.027 13 284.559 10.8377 284.083 8H210.917C210.441 10.8377 207.973 13 205 13C202.027 13 199.559 10.8377 199.083 8H128.917C128.441 10.8377 125.973 13 123 13C120.027 13 117.559 10.8377 117.083 8H46.917Z" fill="url(#paint0_linear_393_11321)"/>
<path d="M46.917 8V7H46.0708L45.9308 7.83454L46.917 8ZM46.6586 5L45.7157 5.33325L45.9514 6H46.6586V5ZM117.341 5V6H118.049L118.284 5.33325L117.341 5ZM128.659 5L127.716 5.33325L127.951 6H128.659V5ZM199.341 5V6H200.049L200.284 5.33324L199.341 5ZM210.659 5L209.716 5.33324L209.951 6H210.659V5ZM284.341 5V6H285.049L285.284 5.33324L284.341 5ZM284.083 8L285.069 7.83455L284.929 7H284.083V8ZM210.917 8V7H210.071L209.931 7.83455L210.917 8ZM199.083 8L200.069 7.83455L199.929 7H199.083V8ZM128.917 8V7H128.071L127.931 7.83454L128.917 8ZM117.083 8L118.069 7.83454L117.929 7H117.083V8ZM41 14C44.4695 14 47.3477 11.4769 47.9033 8.16546L45.9308 7.83454C45.5342 10.1985 43.4765 12 41 12V14ZM34 7C34 10.866 37.134 14 41 14V12C38.2386 12 36 9.76142 36 7H34ZM41 0C37.134 0 34 3.13401 34 7H36C36 4.23858 38.2386 2 41 2V0ZM47.6014 4.66675C46.641 1.94932 44.0494 0 41 0V2C43.1755 2 45.0289 3.38991 45.7157 5.33325L47.6014 4.66675ZM46.6586 6H117.341V4H46.6586V6ZM123 0C119.951 0 117.359 1.94932 116.399 4.66675L118.284 5.33325C118.971 3.38991 120.825 2 123 2V0ZM129.601 4.66675C128.641 1.94932 126.049 0 123 0V2C125.175 2 127.029 3.38991 127.716 5.33325L129.601 4.66675ZM128.659 6H199.341V4H128.659V6ZM200.284 5.33324C200.971 3.38991 202.825 2 205 2V0C201.951 0 199.359 1.94932 198.399 4.66676L200.284 5.33324ZM205 2C207.175 2 209.029 3.38991 209.716 5.33324L211.601 4.66676C210.641 1.94932 208.049 0 205 0V2ZM210.659 6H284.341V4H210.659V6ZM290 0C286.951 0 284.359 1.94932 283.399 4.66676L285.284 5.33324C285.971 3.38991 287.825 2 290 2V0ZM297 7C297 3.13401 293.866 0 290 0V2C292.761 2 295 4.23857 295 7H297ZM290 14C293.866 14 297 10.866 297 7H295C295 9.76143 292.761 12 290 12V14ZM283.097 8.16545C283.652 11.4769 286.531 14 290 14V12C287.523 12 285.466 10.1985 285.069 7.83455L283.097 8.16545ZM284.083 7H210.917V9H284.083V7ZM209.931 7.83455C209.534 10.1985 207.477 12 205 12V14C208.469 14 211.348 11.4769 211.903 8.16545L209.931 7.83455ZM205 12C202.523 12 200.466 10.1985 200.069 7.83455L198.097 8.16545C198.652 11.4769 201.531 14 205 14V12ZM199.083 7H128.917V9H199.083V7ZM123 14C126.469 14 129.348 11.4769 129.903 8.16546L127.931 7.83454C127.534 10.1985 125.477 12 123 12V14ZM116.097 8.16546C116.652 11.4769 119.531 14 123 14V12C120.523 12 118.466 10.1985 118.069 7.83454L116.097 8.16546ZM117.083 7H46.917V9H117.083V7Z" fill="#DDDEDE" mask="url(#path-1-outside-1_393_11321)"/>
<circle cx="41" cy="7" r="4" fill="#3FBF5B"/>
<path d="M25.8465 40.168C24.2225 40.168 23.0325 39.552 22.2625 38.684L22.9485 37.802C23.5645 38.488 24.5725 39.132 25.8885 39.132C27.5545 39.132 28.0865 38.236 28.0865 37.522C28.0865 35.114 22.5565 36.444 22.5565 33.112C22.5565 31.572 23.9285 30.522 25.7625 30.522C27.1905 30.522 28.2965 30.998 29.0805 31.824L28.3805 32.678C27.6805 31.908 26.7005 31.558 25.6785 31.558C24.5585 31.558 23.7605 32.16 23.7605 33.042C23.7605 35.142 29.2905 33.938 29.2905 37.424C29.2905 38.782 28.3665 40.168 25.8465 40.168ZM34.0356 40.168C32.0336 40.168 30.5916 38.726 30.5916 36.612C30.5916 34.652 31.9916 33.07 33.9236 33.07C35.9676 33.07 37.1716 34.666 37.1716 36.696V36.962H31.6976C31.7816 38.236 32.6776 39.3 34.1336 39.3C34.9036 39.3 35.6876 38.992 36.2196 38.446L36.7236 39.132C36.0516 39.804 35.1416 40.168 34.0356 40.168ZM36.1356 36.192C36.1216 35.184 35.4496 33.938 33.9096 33.938C32.4676 33.938 31.7536 35.156 31.6976 36.192H36.1356ZM40.5803 40.168C39.5863 40.168 39.0823 39.594 39.0823 38.586V34.162H37.9623V33.238H39.0823V31.39H40.1323V33.238H41.5043V34.162H40.1323V38.362C40.1323 38.866 40.3563 39.23 40.8183 39.23C41.1123 39.23 41.3923 39.104 41.5323 38.95L41.8403 39.734C41.5743 39.986 41.1963 40.168 40.5803 40.168ZM52.2109 40H51.1609V39.048C50.6429 39.636 49.7609 40.168 48.7529 40.168C47.3389 40.168 46.5969 39.482 46.5969 38.012V33.238H47.6469V37.69C47.6469 38.88 48.2489 39.23 49.1589 39.23C49.9849 39.23 50.7689 38.754 51.1609 38.208V33.238H52.2109V40ZM57.6398 40.168C56.7158 40.168 55.9038 39.734 55.3578 38.978V42.576H54.3078V33.238H55.3578V34.246C55.8478 33.56 56.6878 33.07 57.6398 33.07C59.4178 33.07 60.6498 34.414 60.6498 36.612C60.6498 38.796 59.4178 40.168 57.6398 40.168ZM57.3738 39.23C58.7318 39.23 59.5438 38.11 59.5438 36.612C59.5438 35.114 58.7318 34.008 57.3738 34.008C56.5478 34.008 55.7218 34.498 55.3578 35.086V38.138C55.7218 38.726 56.5478 39.23 57.3738 39.23ZM23.4305 58H22.3805V57.23C21.8205 57.846 21.0505 58.168 20.1405 58.168C18.9925 58.168 17.7745 57.398 17.7745 55.928C17.7745 54.416 18.9925 53.702 20.1405 53.702C21.0645 53.702 21.8345 53.996 22.3805 54.626V53.408C22.3805 52.498 21.6525 51.98 20.6725 51.98C19.8605 51.98 19.2025 52.274 18.6005 52.918L18.1105 52.19C18.8385 51.434 19.7065 51.07 20.8125 51.07C22.2405 51.07 23.4305 51.714 23.4305 53.352V58ZM20.5185 57.412C21.2605 57.412 21.9745 57.132 22.3805 56.572V55.298C21.9745 54.738 21.2605 54.458 20.5185 54.458C19.5385 54.458 18.8525 55.074 18.8525 55.942C18.8525 56.796 19.5385 57.412 20.5185 57.412ZM28.5174 58.168C26.5014 58.168 25.1434 56.628 25.1434 54.612C25.1434 52.61 26.5014 51.07 28.5174 51.07C29.7494 51.07 30.4774 51.574 30.9954 52.246L30.2954 52.89C29.8474 52.274 29.2734 52.008 28.5734 52.008C27.1314 52.008 26.2354 53.114 26.2354 54.612C26.2354 56.11 27.1314 57.23 28.5734 57.23C29.2734 57.23 29.8474 56.95 30.2954 56.348L30.9954 56.992C30.4774 57.664 29.7494 58.168 28.5174 58.168ZM35.449 58.168C33.433 58.168 32.075 56.628 32.075 54.612C32.075 52.61 33.433 51.07 35.449 51.07C36.681 51.07 37.409 51.574 37.927 52.246L37.227 52.89C36.779 52.274 36.205 52.008 35.505 52.008C34.063 52.008 33.167 53.114 33.167 54.612C33.167 56.11 34.063 57.23 35.505 57.23C36.205 57.23 36.779 56.95 37.227 56.348L37.927 56.992C37.409 57.664 36.681 58.168 35.449 58.168ZM42.3526 58.168C40.2946 58.168 39.0066 56.572 39.0066 54.612C39.0066 52.652 40.2946 51.07 42.3526 51.07C44.4106 51.07 45.6986 52.652 45.6986 54.612C45.6986 56.572 44.4106 58.168 42.3526 58.168ZM42.3526 57.23C43.7946 57.23 44.5926 55.998 44.5926 54.612C44.5926 53.24 43.7946 52.008 42.3526 52.008C40.9106 52.008 40.0986 53.24 40.0986 54.612C40.0986 55.998 40.9106 57.23 42.3526 57.23ZM53.0244 58H51.9744V57.048C51.4564 57.636 50.5744 58.168 49.5664 58.168C48.1524 58.168 47.4104 57.482 47.4104 56.012V51.238H48.4604V55.69C48.4604 56.88 49.0624 57.23 49.9724 57.23C50.7984 57.23 51.5824 56.754 51.9744 56.208V51.238H53.0244V58ZM60.7353 58H59.6853V53.576C59.6853 52.386 59.0833 52.008 58.1733 52.008C57.3473 52.008 56.5633 52.512 56.1713 53.058V58H55.1213V51.238H56.1713V52.218C56.6473 51.658 57.5713 51.07 58.5793 51.07C59.9933 51.07 60.7353 51.784 60.7353 53.254V58ZM64.5402 58.168C63.5462 58.168 63.0422 57.594 63.0422 56.586V52.162H61.9222V51.238H63.0422V49.39H64.0922V51.238H65.4642V52.162H64.0922V56.362C64.0922 56.866 64.3162 57.23 64.7782 57.23C65.0722 57.23 65.3522 57.104 65.4922 56.95L65.8002 57.734C65.5342 57.986 65.1562 58.168 64.5402 58.168Z" fill="#50667C"/>
<path d="M101.278 40.182C98.6177 40.182 96.4757 38.236 96.4757 35.338C96.4757 32.44 98.6177 30.508 101.278 30.508C102.93 30.508 104.078 31.236 104.904 32.258L103.98 32.832C103.392 32.076 102.398 31.544 101.278 31.544C99.2337 31.544 97.6797 33.112 97.6797 35.338C97.6797 37.55 99.2337 39.146 101.278 39.146C102.398 39.146 103.322 38.6 103.784 38.138V36.234H100.578V35.198H104.946V38.572C104.078 39.538 102.804 40.182 101.278 40.182ZM109.844 40.168C107.842 40.168 106.4 38.726 106.4 36.612C106.4 34.652 107.8 33.07 109.732 33.07C111.776 33.07 112.98 34.666 112.98 36.696V36.962H107.506C107.59 38.236 108.486 39.3 109.942 39.3C110.712 39.3 111.496 38.992 112.028 38.446L112.532 39.132C111.86 39.804 110.95 40.168 109.844 40.168ZM111.944 36.192C111.93 35.184 111.258 33.938 109.718 33.938C108.276 33.938 107.562 35.156 107.506 36.192H111.944ZM120.295 40H119.245V35.576C119.245 34.386 118.643 34.008 117.733 34.008C116.907 34.008 116.123 34.512 115.731 35.058V40H114.681V33.238H115.731V34.218C116.207 33.658 117.131 33.07 118.139 33.07C119.553 33.07 120.295 33.784 120.295 35.254V40ZM125.444 40.168C123.442 40.168 122 38.726 122 36.612C122 34.652 123.4 33.07 125.332 33.07C127.376 33.07 128.58 34.666 128.58 36.696V36.962H123.106C123.19 38.236 124.086 39.3 125.542 39.3C126.312 39.3 127.096 38.992 127.628 38.446L128.132 39.132C127.46 39.804 126.55 40.168 125.444 40.168ZM127.544 36.192C127.53 35.184 126.858 33.938 125.318 33.938C123.876 33.938 123.162 35.156 123.106 36.192H127.544ZM131.33 40H130.28V33.238H131.33V34.33C131.876 33.616 132.66 33.098 133.584 33.098V34.176C133.458 34.148 133.332 34.134 133.164 34.134C132.52 34.134 131.638 34.666 131.33 35.212V40ZM140.18 40H139.13V39.23C138.57 39.846 137.8 40.168 136.89 40.168C135.742 40.168 134.524 39.398 134.524 37.928C134.524 36.416 135.742 35.702 136.89 35.702C137.814 35.702 138.584 35.996 139.13 36.626V35.408C139.13 34.498 138.402 33.98 137.422 33.98C136.61 33.98 135.952 34.274 135.35 34.918L134.86 34.19C135.588 33.434 136.456 33.07 137.562 33.07C138.99 33.07 140.18 33.714 140.18 35.352V40ZM137.268 39.412C138.01 39.412 138.724 39.132 139.13 38.572V37.298C138.724 36.738 138.01 36.458 137.268 36.458C136.288 36.458 135.602 37.074 135.602 37.942C135.602 38.796 136.288 39.412 137.268 39.412ZM143.992 40.168C142.998 40.168 142.494 39.594 142.494 38.586V34.162H141.374V33.238H142.494V31.39H143.544V33.238H144.916V34.162H143.544V38.362C143.544 38.866 143.768 39.23 144.23 39.23C144.524 39.23 144.804 39.104 144.944 38.95L145.252 39.734C144.986 39.986 144.608 40.168 143.992 40.168ZM149.452 40.168C147.45 40.168 146.008 38.726 146.008 36.612C146.008 34.652 147.408 33.07 149.34 33.07C151.384 33.07 152.588 34.666 152.588 36.696V36.962H147.114C147.198 38.236 148.094 39.3 149.55 39.3C150.32 39.3 151.104 38.992 151.636 38.446L152.14 39.132C151.468 39.804 150.558 40.168 149.452 40.168ZM151.552 36.192C151.538 35.184 150.866 33.938 149.326 33.938C147.884 33.938 147.17 35.156 147.114 36.192H151.552ZM104.22 50.272C103.842 50.272 103.52 49.964 103.52 49.572C103.52 49.18 103.842 48.858 104.22 48.858C104.612 48.858 104.934 49.18 104.934 49.572C104.934 49.964 104.612 50.272 104.22 50.272ZM104.752 58H103.702V51.238H104.752V58ZM112.461 58H111.411V53.576C111.411 52.386 110.809 52.008 109.899 52.008C109.073 52.008 108.289 52.512 107.897 53.058V58H106.847V51.238H107.897V52.218C108.373 51.658 109.297 51.07 110.305 51.07C111.719 51.07 112.461 51.784 112.461 53.254V58ZM117.512 58H116.364L113.55 51.238H114.684L116.938 56.782L119.178 51.238H120.326L117.512 58ZM124.375 58.168C122.317 58.168 121.029 56.572 121.029 54.612C121.029 52.652 122.317 51.07 124.375 51.07C126.433 51.07 127.721 52.652 127.721 54.612C127.721 56.572 126.433 58.168 124.375 58.168ZM124.375 57.23C125.817 57.23 126.615 55.998 126.615 54.612C126.615 53.24 125.817 52.008 124.375 52.008C122.933 52.008 122.121 53.24 122.121 54.612C122.121 55.998 122.933 57.23 124.375 57.23ZM129.951 50.272C129.573 50.272 129.251 49.964 129.251 49.572C129.251 49.18 129.573 48.858 129.951 48.858C130.343 48.858 130.665 49.18 130.665 49.572C130.665 49.964 130.343 50.272 129.951 50.272ZM130.483 58H129.433V51.238H130.483V58ZM135.559 58.168C133.543 58.168 132.185 56.628 132.185 54.612C132.185 52.61 133.543 51.07 135.559 51.07C136.791 51.07 137.519 51.574 138.037 52.246L137.337 52.89C136.889 52.274 136.315 52.008 135.615 52.008C134.173 52.008 133.277 53.114 133.277 54.612C133.277 56.11 134.173 57.23 135.615 57.23C136.315 57.23 136.889 56.95 137.337 56.348L138.037 56.992C137.519 57.664 136.791 58.168 135.559 58.168ZM142.561 58.168C140.559 58.168 139.117 56.726 139.117 54.612C139.117 52.652 140.517 51.07 142.449 51.07C144.493 51.07 145.697 52.666 145.697 54.696V54.962H140.223C140.307 56.236 141.203 57.3 142.659 57.3C143.429 57.3 144.213 56.992 144.745 56.446L145.249 57.132C144.577 57.804 143.667 58.168 142.561 58.168ZM144.661 54.192C144.647 53.184 143.975 51.938 142.435 51.938C140.993 51.938 140.279 53.156 140.223 54.192H144.661Z" fill="#CCCCCC"/>
<path d="M194.258 40H192.928L192.102 37.928H187.454L186.628 40H185.298L189.05 30.662H190.492L194.258 40ZM191.752 36.892L189.778 31.866L187.79 36.892H191.752ZM201.387 40H200.337V38.992C199.833 39.678 199.007 40.168 198.055 40.168C196.291 40.168 195.045 38.824 195.045 36.626C195.045 34.47 196.277 33.07 198.055 33.07C198.965 33.07 199.791 33.518 200.337 34.26V30.662H201.387V40ZM198.307 39.23C199.147 39.23 199.959 38.754 200.337 38.166V35.1C199.959 34.512 199.147 34.008 198.307 34.008C196.949 34.008 196.137 35.128 196.137 36.626C196.137 38.124 196.949 39.23 198.307 39.23ZM212.701 40H211.651V35.408C211.651 34.554 211.273 34.008 210.405 34.008C209.705 34.008 208.963 34.512 208.613 35.044V40H207.563V35.408C207.563 34.554 207.199 34.008 206.317 34.008C205.631 34.008 204.903 34.512 204.539 35.058V40H203.489V33.238H204.539V34.218C204.819 33.784 205.729 33.07 206.723 33.07C207.759 33.07 208.347 33.63 208.543 34.33C208.921 33.714 209.831 33.07 210.811 33.07C212.043 33.07 212.701 33.756 212.701 35.114V40ZM215.314 32.272C214.936 32.272 214.614 31.964 214.614 31.572C214.614 31.18 214.936 30.858 215.314 30.858C215.706 30.858 216.028 31.18 216.028 31.572C216.028 31.964 215.706 32.272 215.314 32.272ZM215.846 40H214.796V33.238H215.846V40ZM223.555 40H222.505V35.576C222.505 34.386 221.903 34.008 220.993 34.008C220.167 34.008 219.383 34.512 218.991 35.058V40H217.941V33.238H218.991V34.218C219.467 33.658 220.391 33.07 221.399 33.07C222.813 33.07 223.555 33.784 223.555 35.254V40ZM226.212 40.14C225.792 40.14 225.442 39.79 225.442 39.37C225.442 38.95 225.792 38.6 226.212 38.6C226.632 38.6 226.982 38.95 226.982 39.37C226.982 39.79 226.632 40.14 226.212 40.14Z" fill="#CCCCCC"/>
<path d="M265.815 40H264.653V32.314L261.475 40H260.999L257.835 32.314V40H256.673V30.662H258.339L261.237 37.69L264.149 30.662H265.815V40ZM273.229 40H272.179V39.23C271.619 39.846 270.849 40.168 269.939 40.168C268.791 40.168 267.573 39.398 267.573 37.928C267.573 36.416 268.791 35.702 269.939 35.702C270.863 35.702 271.633 35.996 272.179 36.626V35.408C272.179 34.498 271.451 33.98 270.471 33.98C269.659 33.98 269.001 34.274 268.399 34.918L267.909 34.19C268.637 33.434 269.505 33.07 270.611 33.07C272.039 33.07 273.229 33.714 273.229 35.352V40ZM270.317 39.412C271.059 39.412 271.773 39.132 272.179 38.572V37.298C271.773 36.738 271.059 36.458 270.317 36.458C269.337 36.458 268.651 37.074 268.651 37.942C268.651 38.796 269.337 39.412 270.317 39.412ZM276.384 40H275.334V33.238H276.384V34.33C276.93 33.616 277.714 33.098 278.638 33.098V34.176C278.512 34.148 278.386 34.134 278.218 34.134C277.574 34.134 276.692 34.666 276.384 35.212V40ZM285.905 40H284.561L282.125 36.962L281.005 38.068V40H279.955V30.662H281.005V36.836L284.561 33.238H285.891L282.895 36.304L285.905 40ZM290.158 40.168C288.156 40.168 286.714 38.726 286.714 36.612C286.714 34.652 288.114 33.07 290.046 33.07C292.09 33.07 293.294 34.666 293.294 36.696V36.962H287.82C287.904 38.236 288.8 39.3 290.256 39.3C291.026 39.3 291.81 38.992 292.342 38.446L292.846 39.132C292.174 39.804 291.264 40.168 290.158 40.168ZM292.258 36.192C292.244 35.184 291.572 33.938 290.032 33.938C288.59 33.938 287.876 35.156 287.82 36.192H292.258ZM296.702 40.168C295.708 40.168 295.204 39.594 295.204 38.586V34.162H294.084V33.238H295.204V31.39H296.254V33.238H297.626V34.162H296.254V38.362C296.254 38.866 296.478 39.23 296.94 39.23C297.234 39.23 297.514 39.104 297.654 38.95L297.962 39.734C297.696 39.986 297.318 40.168 296.702 40.168ZM302.442 40.168C301.518 40.168 300.706 39.734 300.16 38.978V42.576H299.11V33.238H300.16V34.246C300.65 33.56 301.49 33.07 302.442 33.07C304.22 33.07 305.452 34.414 305.452 36.612C305.452 38.796 304.22 40.168 302.442 40.168ZM302.176 39.23C303.534 39.23 304.346 38.11 304.346 36.612C304.346 35.114 303.534 34.008 302.176 34.008C301.35 34.008 300.524 34.498 300.16 35.086V38.138C300.524 38.726 301.35 39.23 302.176 39.23ZM308.171 40H307.121V30.662H308.171V40ZM315.544 40H314.494V39.23C313.934 39.846 313.164 40.168 312.254 40.168C311.106 40.168 309.888 39.398 309.888 37.928C309.888 36.416 311.106 35.702 312.254 35.702C313.178 35.702 313.948 35.996 314.494 36.626V35.408C314.494 34.498 313.766 33.98 312.786 33.98C311.974 33.98 311.316 34.274 310.714 34.918L310.224 34.19C310.952 33.434 311.82 33.07 312.926 33.07C314.354 33.07 315.544 33.714 315.544 35.352V40ZM312.632 39.412C313.374 39.412 314.088 39.132 314.494 38.572V37.298C314.088 36.738 313.374 36.458 312.632 36.458C311.652 36.458 310.966 37.074 310.966 37.942C310.966 38.796 311.652 39.412 312.632 39.412ZM320.631 40.168C318.615 40.168 317.257 38.628 317.257 36.612C317.257 34.61 318.615 33.07 320.631 33.07C321.863 33.07 322.591 33.574 323.109 34.246L322.409 34.89C321.961 34.274 321.387 34.008 320.687 34.008C319.245 34.008 318.349 35.114 318.349 36.612C318.349 38.11 319.245 39.23 320.687 39.23C321.387 39.23 321.961 38.95 322.409 38.348L323.109 38.992C322.591 39.664 321.863 40.168 320.631 40.168ZM327.632 40.168C325.63 40.168 324.188 38.726 324.188 36.612C324.188 34.652 325.588 33.07 327.52 33.07C329.564 33.07 330.768 34.666 330.768 36.696V36.962H325.294C325.378 38.236 326.274 39.3 327.73 39.3C328.5 39.3 329.284 38.992 329.816 38.446L330.32 39.132C329.648 39.804 328.738 40.168 327.632 40.168ZM329.732 36.192C329.718 35.184 329.046 33.938 327.506 33.938C326.064 33.938 325.35 35.156 325.294 36.192H329.732Z" fill="#CCCCCC"/>
<path fill-rule="evenodd" clip-rule="evenodd" d="M38.0061 23.9999L41.5 20.0068L44.994 23.9999H38.0061Z" fill="#3FBF5B"/>
<line x1="44.5" y1="70" x2="44.5" y2="199" stroke="#CCCCCC" stroke-dasharray="2 2"/>
<line x1="97" y1="123.5" x2="44" y2="123.5" stroke="#CCCCCC" stroke-dasharray="2 2"/>
<line x1="97" y1="149.5" x2="44" y2="149.5" stroke="#CCCCCC" stroke-dasharray="2 2"/>
<line x1="97" y1="174.5" x2="44" y2="174.5" stroke="#CCCCCC" stroke-dasharray="2 2"/>
<line x1="97" y1="199.5" x2="44" y2="199.5" stroke="#CCCCCC" stroke-dasharray="2 2"/>
<path d="M119.27 128H118.108V120.202L116.61 121.784L115.91 121.07L118.248 118.662H119.27V128ZM123.717 128.14C123.297 128.14 122.947 127.79 122.947 127.37C122.947 126.95 123.297 126.6 123.717 126.6C124.137 126.6 124.487 126.95 124.487 127.37C124.487 127.79 124.137 128.14 123.717 128.14ZM135.516 128.168C132.828 128.168 130.714 126.208 130.714 123.338C130.714 120.468 132.828 118.508 135.516 118.508C137.168 118.508 138.316 119.306 139.058 120.356L138.078 120.902C137.546 120.118 136.58 119.544 135.516 119.544C133.472 119.544 131.918 121.112 131.918 123.338C131.918 125.55 133.472 127.132 135.516 127.132C136.58 127.132 137.546 126.572 138.078 125.774L139.072 126.32C138.288 127.384 137.168 128.168 135.516 128.168ZM141.561 128H140.511V121.238H141.561V122.33C142.107 121.616 142.891 121.098 143.815 121.098V122.176C143.689 122.148 143.563 122.134 143.395 122.134C142.751 122.134 141.869 122.666 141.561 123.212V128ZM148.184 128.168C146.182 128.168 144.74 126.726 144.74 124.612C144.74 122.652 146.14 121.07 148.072 121.07C150.116 121.07 151.32 122.666 151.32 124.696V124.962H145.846C145.93 126.236 146.826 127.3 148.282 127.3C149.052 127.3 149.836 126.992 150.368 126.446L150.872 127.132C150.2 127.804 149.29 128.168 148.184 128.168ZM150.284 124.192C150.27 123.184 149.598 121.938 148.058 121.938C146.616 121.938 145.902 123.156 145.846 124.192H150.284ZM158.299 128H157.249V127.23C156.689 127.846 155.919 128.168 155.009 128.168C153.861 128.168 152.643 127.398 152.643 125.928C152.643 124.416 153.861 123.702 155.009 123.702C155.933 123.702 156.703 123.996 157.249 124.626V123.408C157.249 122.498 156.521 121.98 155.541 121.98C154.729 121.98 154.071 122.274 153.469 122.918L152.979 122.19C153.707 121.434 154.575 121.07 155.681 121.07C157.109 121.07 158.299 121.714 158.299 123.352V128ZM155.387 127.412C156.129 127.412 156.843 127.132 157.249 126.572V125.298C156.843 124.738 156.129 124.458 155.387 124.458C154.407 124.458 153.721 125.074 153.721 125.942C153.721 126.796 154.407 127.412 155.387 127.412ZM162.112 128.168C161.118 128.168 160.614 127.594 160.614 126.586V122.162H159.494V121.238H160.614V119.39H161.664V121.238H163.036V122.162H161.664V126.362C161.664 126.866 161.888 127.23 162.35 127.23C162.644 127.23 162.924 127.104 163.064 126.95L163.372 127.734C163.106 127.986 162.728 128.168 162.112 128.168ZM167.571 128.168C165.569 128.168 164.127 126.726 164.127 124.612C164.127 122.652 165.527 121.07 167.459 121.07C169.503 121.07 170.707 122.666 170.707 124.696V124.962H165.233C165.317 126.236 166.213 127.3 167.669 127.3C168.439 127.3 169.223 126.992 169.755 126.446L170.259 127.132C169.587 127.804 168.677 128.168 167.571 128.168ZM169.671 124.192C169.657 123.184 168.985 121.938 167.445 121.938C166.003 121.938 165.289 123.156 165.233 124.192H169.671ZM172.183 128.28H171.357L174.675 118.382H175.501L172.183 128.28ZM179.616 128.168C177.992 128.168 176.802 127.552 176.032 126.684L176.718 125.802C177.334 126.488 178.342 127.132 179.658 127.132C181.324 127.132 181.856 126.236 181.856 125.522C181.856 123.114 176.326 124.444 176.326 121.112C176.326 119.572 177.698 118.522 179.532 118.522C180.96 118.522 182.066 118.998 182.85 119.824L182.15 120.678C181.45 119.908 180.47 119.558 179.448 119.558C178.328 119.558 177.53 120.16 177.53 121.042C177.53 123.142 183.06 121.938 183.06 125.424C183.06 126.782 182.136 128.168 179.616 128.168ZM187.805 128.168C185.803 128.168 184.361 126.726 184.361 124.612C184.361 122.652 185.761 121.07 187.693 121.07C189.737 121.07 190.941 122.666 190.941 124.696V124.962H185.467C185.551 126.236 186.447 127.3 187.903 127.3C188.673 127.3 189.457 126.992 189.989 126.446L190.493 127.132C189.821 127.804 188.911 128.168 187.805 128.168ZM189.905 124.192C189.891 123.184 189.219 121.938 187.679 121.938C186.237 121.938 185.523 123.156 185.467 124.192H189.905ZM194.35 128.168C193.356 128.168 192.852 127.594 192.852 126.586V122.162H191.732V121.238H192.852V119.39H193.902V121.238H195.274V122.162H193.902V126.362C193.902 126.866 194.126 127.23 194.588 127.23C194.882 127.23 195.162 127.104 195.302 126.95L195.61 127.734C195.344 127.986 194.966 128.168 194.35 128.168ZM205.98 128H204.93V127.048C204.412 127.636 203.53 128.168 202.522 128.168C201.108 128.168 200.366 127.482 200.366 126.012V121.238H201.416V125.69C201.416 126.88 202.018 127.23 202.928 127.23C203.754 127.23 204.538 126.754 204.93 126.208V121.238H205.98V128ZM211.409 128.168C210.485 128.168 209.673 127.734 209.127 126.978V130.576H208.077V121.238H209.127V122.246C209.617 121.56 210.457 121.07 211.409 121.07C213.187 121.07 214.419 122.414 214.419 124.612C214.419 126.796 213.187 128.168 211.409 128.168ZM211.143 127.23C212.501 127.23 213.313 126.11 213.313 124.612C213.313 123.114 212.501 122.008 211.143 122.008C210.317 122.008 209.491 122.498 209.127 123.086V126.138C209.491 126.726 210.317 127.23 211.143 127.23ZM227.734 128H226.404L225.578 125.928H220.93L220.104 128H218.774L222.526 118.662H223.968L227.734 128ZM225.228 124.892L223.254 119.866L221.266 124.892H225.228ZM231.895 128.168C229.879 128.168 228.521 126.628 228.521 124.612C228.521 122.61 229.879 121.07 231.895 121.07C233.127 121.07 233.855 121.574 234.373 122.246L233.673 122.89C233.225 122.274 232.651 122.008 231.951 122.008C230.509 122.008 229.613 123.114 229.613 124.612C229.613 126.11 230.509 127.23 231.951 127.23C232.651 127.23 233.225 126.95 233.673 126.348L234.373 126.992C233.855 127.664 233.127 128.168 231.895 128.168ZM238.827 128.168C236.811 128.168 235.453 126.628 235.453 124.612C235.453 122.61 236.811 121.07 238.827 121.07C240.059 121.07 240.787 121.574 241.305 122.246L240.605 122.89C240.157 122.274 239.583 122.008 238.883 122.008C237.441 122.008 236.545 123.114 236.545 124.612C236.545 126.11 237.441 127.23 238.883 127.23C239.583 127.23 240.157 126.95 240.605 126.348L241.305 126.992C240.787 127.664 240.059 128.168 238.827 128.168ZM245.731 128.168C243.673 128.168 242.385 126.572 242.385 124.612C242.385 122.652 243.673 121.07 245.731 121.07C247.789 121.07 249.077 122.652 249.077 124.612C249.077 126.572 247.789 128.168 245.731 128.168ZM245.731 127.23C247.173 127.23 247.971 125.998 247.971 124.612C247.971 123.24 247.173 122.008 245.731 122.008C244.289 122.008 243.477 123.24 243.477 124.612C243.477 125.998 244.289 127.23 245.731 127.23ZM256.402 128H255.352V127.048C254.834 127.636 253.952 128.168 252.944 128.168C251.53 128.168 250.788 127.482 250.788 126.012V121.238H251.838V125.69C251.838 126.88 252.44 127.23 253.35 127.23C254.176 127.23 254.96 126.754 255.352 126.208V121.238H256.402V128ZM264.113 128H263.063V123.576C263.063 122.386 262.461 122.008 261.551 122.008C260.725 122.008 259.941 122.512 259.549 123.058V128H258.499V121.238H259.549V122.218C260.025 121.658 260.949 121.07 261.957 121.07C263.371 121.07 264.113 121.784 264.113 123.254V128ZM267.918 128.168C266.924 128.168 266.42 127.594 266.42 126.586V122.162H265.3V121.238H266.42V119.39H267.47V121.238H268.842V122.162H267.47V126.362C267.47 126.866 267.694 127.23 268.156 127.23C268.45 127.23 268.73 127.104 268.87 126.95L269.178 127.734C268.912 127.986 268.534 128.168 267.918 128.168Z" fill="#50667C"/>
<path d="M117.912 178.168C116.33 178.168 115.168 177.468 114.594 176.628L115.28 175.9C115.826 176.628 116.778 177.132 117.884 177.132C119.242 177.132 120.068 176.46 120.068 175.382C120.068 174.22 119.116 173.73 117.744 173.73C117.352 173.73 116.918 173.73 116.778 173.744V172.68C116.932 172.694 117.366 172.694 117.744 172.694C118.92 172.694 119.914 172.232 119.914 171.154C119.914 170.118 118.962 169.558 117.828 169.558C116.806 169.558 116.05 169.95 115.364 170.692L114.72 169.964C115.392 169.152 116.47 168.522 117.912 168.522C119.704 168.522 121.076 169.432 121.076 171.014C121.076 172.358 119.942 173.03 119.06 173.184C119.914 173.254 121.216 173.982 121.216 175.48C121.216 177.034 119.97 178.168 117.912 178.168ZM123.717 178.14C123.297 178.14 122.947 177.79 122.947 177.37C122.947 176.95 123.297 176.6 123.717 176.6C124.137 176.6 124.487 176.95 124.487 177.37C124.487 177.79 124.137 178.14 123.717 178.14ZM137.868 178H136.496L134.116 174.29H132.254V178H131.092V168.662H134.844C136.552 168.662 137.77 169.754 137.77 171.476C137.77 173.156 136.622 174.08 135.348 174.192L137.868 178ZM134.704 173.268C135.81 173.268 136.566 172.526 136.566 171.476C136.566 170.426 135.81 169.698 134.704 169.698H132.254V173.268H134.704ZM142.196 178.168C140.194 178.168 138.752 176.726 138.752 174.612C138.752 172.652 140.152 171.07 142.084 171.07C144.128 171.07 145.332 172.666 145.332 174.696V174.962H139.858C139.942 176.236 140.838 177.3 142.294 177.3C143.064 177.3 143.848 176.992 144.38 176.446L144.884 177.132C144.212 177.804 143.302 178.168 142.196 178.168ZM144.296 174.192C144.282 173.184 143.61 171.938 142.07 171.938C140.628 171.938 139.914 173.156 139.858 174.192H144.296ZM149.748 180.744C148.6 180.744 147.816 180.52 147.018 179.736L147.55 178.952C148.11 179.624 148.782 179.876 149.748 179.876C150.868 179.876 151.918 179.33 151.918 177.846V176.88C151.428 177.566 150.602 178.084 149.65 178.084C147.886 178.084 146.64 176.768 146.64 174.584C146.64 172.414 147.872 171.07 149.65 171.07C150.56 171.07 151.372 171.518 151.918 172.26V171.238H152.968V177.804C152.968 180.044 151.4 180.744 149.748 180.744ZM149.902 177.16C150.742 177.16 151.554 176.642 151.918 176.054V173.1C151.554 172.512 150.742 172.008 149.902 172.008C148.544 172.008 147.732 173.086 147.732 174.584C147.732 176.068 148.544 177.16 149.902 177.16ZM155.589 170.272C155.211 170.272 154.889 169.964 154.889 169.572C154.889 169.18 155.211 168.858 155.589 168.858C155.981 168.858 156.303 169.18 156.303 169.572C156.303 169.964 155.981 170.272 155.589 170.272ZM156.121 178H155.071V171.238H156.121V178ZM160.358 178.168C159.252 178.168 158.314 177.832 157.628 177.104L158.174 176.348C158.622 176.866 159.476 177.314 160.4 177.314C161.436 177.314 161.996 176.824 161.996 176.152C161.996 174.514 157.81 175.522 157.81 173.016C157.81 171.966 158.72 171.07 160.33 171.07C161.478 171.07 162.29 171.504 162.836 172.05L162.346 172.778C161.94 172.288 161.198 171.924 160.33 171.924C159.406 171.924 158.832 172.386 158.832 172.988C158.832 174.472 163.018 173.492 163.018 176.124C163.018 177.258 162.108 178.168 160.358 178.168ZM166.432 178.168C165.438 178.168 164.934 177.594 164.934 176.586V172.162H163.814V171.238H164.934V169.39H165.984V171.238H167.356V172.162H165.984V176.362C165.984 176.866 166.208 177.23 166.67 177.23C166.964 177.23 167.244 177.104 167.384 176.95L167.692 177.734C167.426 177.986 167.048 178.168 166.432 178.168ZM171.891 178.168C169.889 178.168 168.447 176.726 168.447 174.612C168.447 172.652 169.847 171.07 171.779 171.07C173.823 171.07 175.027 172.666 175.027 174.696V174.962H169.553C169.637 176.236 170.533 177.3 171.989 177.3C172.759 177.3 173.543 176.992 174.075 176.446L174.579 177.132C173.907 177.804 172.997 178.168 171.891 178.168ZM173.991 174.192C173.977 173.184 173.305 171.938 171.765 171.938C170.323 171.938 169.609 173.156 169.553 174.192H173.991ZM177.778 178H176.728V171.238H177.778V172.33C178.324 171.616 179.108 171.098 180.032 171.098V172.176C179.906 172.148 179.78 172.134 179.612 172.134C178.968 172.134 178.086 172.666 177.778 173.212V178ZM188.472 178H187.31V169.698H184.356V168.662H191.44V169.698H188.472V178ZM196.894 178H195.844V177.23C195.284 177.846 194.514 178.168 193.604 178.168C192.456 178.168 191.238 177.398 191.238 175.928C191.238 174.416 192.456 173.702 193.604 173.702C194.528 173.702 195.298 173.996 195.844 174.626V173.408C195.844 172.498 195.116 171.98 194.136 171.98C193.324 171.98 192.666 172.274 192.064 172.918L191.574 172.19C192.302 171.434 193.17 171.07 194.276 171.07C195.704 171.07 196.894 171.714 196.894 173.352V178ZM193.982 177.412C194.724 177.412 195.438 177.132 195.844 176.572V175.298C195.438 174.738 194.724 174.458 193.982 174.458C193.002 174.458 192.316 175.074 192.316 175.942C192.316 176.796 193.002 177.412 193.982 177.412ZM204.599 178H203.381L201.351 175.228L199.321 178H198.117L200.707 174.528L198.257 171.238H199.475L201.351 173.814L203.227 171.238H204.445L201.995 174.528L204.599 178ZM210.621 178H209.459V168.662H210.621V178ZM216.001 178H212.809V168.662H216.001C218.899 168.662 220.789 170.692 220.789 173.338C220.789 175.998 218.899 178 216.001 178ZM216.001 176.964C218.269 176.964 219.585 175.34 219.585 173.338C219.585 171.322 218.311 169.698 216.001 169.698H213.971V176.964H216.001ZM231.457 178H230.407V177.23C229.847 177.846 229.077 178.168 228.167 178.168C227.019 178.168 225.801 177.398 225.801 175.928C225.801 174.416 227.019 173.702 228.167 173.702C229.091 173.702 229.861 173.996 230.407 174.626V173.408C230.407 172.498 229.679 171.98 228.699 171.98C227.887 171.98 227.229 172.274 226.627 172.918L226.137 172.19C226.865 171.434 227.733 171.07 228.839 171.07C230.267 171.07 231.457 171.714 231.457 173.352V178ZM228.545 177.412C229.287 177.412 230.001 177.132 230.407 176.572V175.298C230.001 174.738 229.287 174.458 228.545 174.458C227.565 174.458 226.879 175.074 226.879 175.942C226.879 176.796 227.565 177.412 228.545 177.412ZM239.176 178H238.126V173.576C238.126 172.386 237.524 172.008 236.614 172.008C235.788 172.008 235.004 172.512 234.612 173.058V178H233.562V171.238H234.612V172.218C235.088 171.658 236.012 171.07 237.02 171.07C238.434 171.07 239.176 171.784 239.176 173.254V178ZM247.223 178H246.173V176.992C245.669 177.678 244.843 178.168 243.891 178.168C242.127 178.168 240.881 176.824 240.881 174.626C240.881 172.47 242.113 171.07 243.891 171.07C244.801 171.07 245.627 171.518 246.173 172.26V168.662H247.223V178ZM244.143 177.23C244.983 177.23 245.795 176.754 246.173 176.166V173.1C245.795 172.512 244.983 172.008 244.143 172.008C242.785 172.008 241.973 173.128 241.973 174.626C241.973 176.124 242.785 177.23 244.143 177.23ZM257.401 178.168C254.713 178.168 252.599 176.208 252.599 173.338C252.599 170.468 254.713 168.508 257.401 168.508C259.053 168.508 260.201 169.306 260.943 170.356L259.963 170.902C259.431 170.118 258.465 169.544 257.401 169.544C255.357 169.544 253.803 171.112 253.803 173.338C253.803 175.55 255.357 177.132 257.401 177.132C258.465 177.132 259.431 176.572 259.963 175.774L260.957 176.32C260.173 177.384 259.053 178.168 257.401 178.168ZM263.446 178H262.396V168.662H263.446V178ZM266.058 170.272C265.68 170.272 265.358 169.964 265.358 169.572C265.358 169.18 265.68 168.858 266.058 168.858C266.45 168.858 266.772 169.18 266.772 169.572C266.772 169.964 266.45 170.272 266.058 170.272ZM266.59 178H265.54V171.238H266.59V178ZM271.737 178.168C269.735 178.168 268.293 176.726 268.293 174.612C268.293 172.652 269.693 171.07 271.625 171.07C273.669 171.07 274.873 172.666 274.873 174.696V174.962H269.399C269.483 176.236 270.379 177.3 271.835 177.3C272.605 177.3 273.389 176.992 273.921 176.446L274.425 177.132C273.753 177.804 272.843 178.168 271.737 178.168ZM273.837 174.192C273.823 173.184 273.151 171.938 271.611 171.938C270.169 171.938 269.455 173.156 269.399 174.192H273.837ZM282.187 178H281.137V173.576C281.137 172.386 280.535 172.008 279.625 172.008C278.799 172.008 278.015 172.512 277.623 173.058V178H276.573V171.238H277.623V172.218C278.099 171.658 279.023 171.07 280.031 171.07C281.445 171.07 282.187 171.784 282.187 173.254V178ZM285.992 178.168C284.998 178.168 284.494 177.594 284.494 176.586V172.162H283.374V171.238H284.494V169.39H285.544V171.238H286.916V172.162H285.544V176.362C285.544 176.866 285.768 177.23 286.23 177.23C286.524 177.23 286.804 177.104 286.944 176.95L287.252 177.734C286.986 177.986 286.608 178.168 285.992 178.168ZM290.542 178.168C289.436 178.168 288.498 177.832 287.812 177.104L288.358 176.348C288.806 176.866 289.66 177.314 290.584 177.314C291.62 177.314 292.18 176.824 292.18 176.152C292.18 174.514 287.994 175.522 287.994 173.016C287.994 171.966 288.904 171.07 290.514 171.07C291.662 171.07 292.474 171.504 293.02 172.05L292.53 172.778C292.124 172.288 291.382 171.924 290.514 171.924C289.59 171.924 289.016 172.386 289.016 172.988C289.016 174.472 293.202 173.492 293.202 176.124C293.202 177.258 292.292 178.168 290.542 178.168Z" fill="#50667C"/>
<path d="M121.118 153H114.706V152.076C118.066 149.43 119.886 147.876 119.886 146.266C119.886 145.076 118.906 144.558 117.94 144.558C116.82 144.558 115.952 145.034 115.406 145.734L114.692 144.992C115.406 144.054 116.624 143.522 117.94 143.522C119.494 143.522 121.076 144.404 121.076 146.266C121.076 148.17 119.144 149.906 116.54 151.964H121.118V153ZM123.717 153.14C123.297 153.14 122.947 152.79 122.947 152.37C122.947 151.95 123.297 151.6 123.717 151.6C124.137 151.6 124.487 151.95 124.487 152.37C124.487 152.79 124.137 153.14 123.717 153.14ZM135.516 153.168C132.828 153.168 130.714 151.208 130.714 148.338C130.714 145.468 132.828 143.508 135.516 143.508C137.168 143.508 138.316 144.306 139.058 145.356L138.078 145.902C137.546 145.118 136.58 144.544 135.516 144.544C133.472 144.544 131.918 146.112 131.918 148.338C131.918 150.55 133.472 152.132 135.516 152.132C136.58 152.132 137.546 151.572 138.078 150.774L139.072 151.32C138.288 152.384 137.168 153.168 135.516 153.168ZM143.465 153.168C141.407 153.168 140.119 151.572 140.119 149.612C140.119 147.652 141.407 146.07 143.465 146.07C145.523 146.07 146.811 147.652 146.811 149.612C146.811 151.572 145.523 153.168 143.465 153.168ZM143.465 152.23C144.907 152.23 145.705 150.998 145.705 149.612C145.705 148.24 144.907 147.008 143.465 147.008C142.023 147.008 141.211 148.24 141.211 149.612C141.211 150.998 142.023 152.23 143.465 152.23ZM154.137 153H153.087V148.576C153.087 147.386 152.485 147.008 151.575 147.008C150.749 147.008 149.965 147.512 149.573 148.058V153H148.523V146.238H149.573V147.218C150.049 146.658 150.973 146.07 151.981 146.07C153.395 146.07 154.137 146.784 154.137 148.254V153ZM157.578 153H156.528V147.162H155.408V146.238H156.528V145.72C156.528 144.32 157.312 143.522 158.488 143.522C158.88 143.522 159.244 143.592 159.51 143.76L159.244 144.558C159.09 144.46 158.908 144.39 158.642 144.39C157.956 144.39 157.578 144.866 157.578 145.72V146.238H158.95V147.162H157.578V153ZM160.714 145.272C160.336 145.272 160.014 144.964 160.014 144.572C160.014 144.18 160.336 143.858 160.714 143.858C161.106 143.858 161.428 144.18 161.428 144.572C161.428 144.964 161.106 145.272 160.714 145.272ZM161.246 153H160.196V146.238H161.246V153ZM166.073 155.744C164.925 155.744 164.141 155.52 163.343 154.736L163.875 153.952C164.435 154.624 165.107 154.876 166.073 154.876C167.193 154.876 168.243 154.33 168.243 152.846V151.88C167.753 152.566 166.927 153.084 165.975 153.084C164.211 153.084 162.965 151.768 162.965 149.584C162.965 147.414 164.197 146.07 165.975 146.07C166.885 146.07 167.697 146.518 168.243 147.26V146.238H169.293V152.804C169.293 155.044 167.725 155.744 166.073 155.744ZM166.227 152.16C167.067 152.16 167.879 151.642 168.243 151.054V148.1C167.879 147.512 167.067 147.008 166.227 147.008C164.869 147.008 164.057 148.086 164.057 149.584C164.057 151.068 164.869 152.16 166.227 152.16ZM177.01 153H175.96V152.048C175.442 152.636 174.56 153.168 173.552 153.168C172.138 153.168 171.396 152.482 171.396 151.012V146.238H172.446V150.69C172.446 151.88 173.048 152.23 173.958 152.23C174.784 152.23 175.568 151.754 175.96 151.208V146.238H177.01V153ZM180.157 153H179.107V146.238H180.157V147.33C180.703 146.616 181.487 146.098 182.411 146.098V147.176C182.285 147.148 182.159 147.134 181.991 147.134C181.347 147.134 180.465 147.666 180.157 148.212V153ZM186.78 153.168C184.778 153.168 183.336 151.726 183.336 149.612C183.336 147.652 184.736 146.07 186.668 146.07C188.712 146.07 189.916 147.666 189.916 149.696V149.962H184.442C184.526 151.236 185.422 152.3 186.878 152.3C187.648 152.3 188.432 151.992 188.964 151.446L189.468 152.132C188.796 152.804 187.886 153.168 186.78 153.168ZM188.88 149.192C188.866 148.184 188.194 146.938 186.654 146.938C185.212 146.938 184.498 148.156 184.442 149.192H188.88ZM200.84 153H199.79V152.048C199.272 152.636 198.39 153.168 197.382 153.168C195.968 153.168 195.226 152.482 195.226 151.012V146.238H196.276V150.69C196.276 151.88 196.878 152.23 197.788 152.23C198.614 152.23 199.398 151.754 199.79 151.208V146.238H200.84V153ZM208.551 153H207.501V148.576C207.501 147.386 206.899 147.008 205.989 147.008C205.163 147.008 204.379 147.512 203.987 148.058V153H202.937V146.238H203.987V147.218C204.463 146.658 205.387 146.07 206.395 146.07C207.809 146.07 208.551 146.784 208.551 148.254V153ZM211.166 145.272C210.788 145.272 210.466 144.964 210.466 144.572C210.466 144.18 210.788 143.858 211.166 143.858C211.558 143.858 211.88 144.18 211.88 144.572C211.88 144.964 211.558 145.272 211.166 145.272ZM211.698 153H210.648V146.238H211.698V153ZM216.62 152.23C217.46 152.23 218.286 151.726 218.636 151.138V148.086C218.286 147.498 217.46 147.008 216.62 147.008C215.262 147.008 214.464 148.114 214.464 149.612C214.464 151.11 215.262 152.23 216.62 152.23ZM216.368 153.168C214.59 153.168 213.358 151.796 213.358 149.612C213.358 147.414 214.59 146.07 216.368 146.07C217.32 146.07 218.16 146.56 218.636 147.246V146.238H219.686V155.576H218.636V151.978C218.09 152.734 217.278 153.168 216.368 153.168ZM227.418 153H226.368V152.048C225.85 152.636 224.968 153.168 223.96 153.168C222.546 153.168 221.804 152.482 221.804 151.012V146.238H222.854V150.69C222.854 151.88 223.456 152.23 224.366 152.23C225.192 152.23 225.976 151.754 226.368 151.208V146.238H227.418V153ZM232.567 153.168C230.565 153.168 229.123 151.726 229.123 149.612C229.123 147.652 230.523 146.07 232.455 146.07C234.499 146.07 235.703 147.666 235.703 149.696V149.962H230.229C230.313 151.236 231.209 152.3 232.665 152.3C233.435 152.3 234.219 151.992 234.751 151.446L235.255 152.132C234.583 152.804 233.673 153.168 232.567 153.168ZM234.667 149.192C234.653 148.184 233.981 146.938 232.441 146.938C230.999 146.938 230.285 148.156 230.229 149.192H234.667ZM244.065 153.168C242.063 153.168 240.621 151.726 240.621 149.612C240.621 147.652 242.021 146.07 243.953 146.07C245.997 146.07 247.201 147.666 247.201 149.696V149.962H241.727C241.811 151.236 242.707 152.3 244.163 152.3C244.933 152.3 245.717 151.992 246.249 151.446L246.753 152.132C246.081 152.804 245.171 153.168 244.065 153.168ZM246.165 149.192C246.151 148.184 245.479 146.938 243.939 146.938C242.497 146.938 241.783 148.156 241.727 149.192H246.165ZM258.114 153H257.064V148.408C257.064 147.554 256.686 147.008 255.818 147.008C255.118 147.008 254.376 147.512 254.026 148.044V153H252.976V148.408C252.976 147.554 252.612 147.008 251.73 147.008C251.044 147.008 250.316 147.512 249.952 148.058V153H248.902V146.238H249.952V147.218C250.232 146.784 251.142 146.07 252.136 146.07C253.172 146.07 253.76 146.63 253.956 147.33C254.334 146.714 255.244 146.07 256.224 146.07C257.456 146.07 258.114 146.756 258.114 148.114V153ZM265.486 153H264.436V152.23C263.876 152.846 263.106 153.168 262.196 153.168C261.048 153.168 259.83 152.398 259.83 150.928C259.83 149.416 261.048 148.702 262.196 148.702C263.12 148.702 263.89 148.996 264.436 149.626V148.408C264.436 147.498 263.708 146.98 262.728 146.98C261.916 146.98 261.258 147.274 260.656 147.918L260.166 147.19C260.894 146.434 261.762 146.07 262.868 146.07C264.296 146.07 265.486 146.714 265.486 148.352V153ZM262.574 152.412C263.316 152.412 264.03 152.132 264.436 151.572V150.298C264.03 149.738 263.316 149.458 262.574 149.458C261.594 149.458 260.908 150.074 260.908 150.942C260.908 151.796 261.594 152.412 262.574 152.412ZM268.109 145.272C267.731 145.272 267.409 144.964 267.409 144.572C267.409 144.18 267.731 143.858 268.109 143.858C268.501 143.858 268.823 144.18 268.823 144.572C268.823 144.964 268.501 145.272 268.109 145.272ZM268.641 153H267.591V146.238H268.641V153ZM271.786 153H270.736V143.662H271.786V153Z" fill="#50667C"/>
<path d="M120.054 203H118.892V200.634H114.454V199.668L118.458 193.662H120.054V199.612H121.37V200.634H120.054V203ZM118.892 199.612V194.74L115.616 199.612H118.892ZM123.717 203.14C123.297 203.14 122.947 202.79 122.947 202.37C122.947 201.95 123.297 201.6 123.717 201.6C124.137 201.6 124.487 201.95 124.487 202.37C124.487 202.79 124.137 203.14 123.717 203.14ZM139.086 203H137.756L136.93 200.928H132.282L131.456 203H130.126L133.878 193.662H135.32L139.086 203ZM136.58 199.892L134.606 194.866L132.618 199.892H136.58ZM146.215 203H145.165V201.992C144.661 202.678 143.835 203.168 142.883 203.168C141.119 203.168 139.873 201.824 139.873 199.626C139.873 197.47 141.105 196.07 142.883 196.07C143.793 196.07 144.619 196.518 145.165 197.26V193.662H146.215V203ZM143.135 202.23C143.975 202.23 144.787 201.754 145.165 201.166V198.1C144.787 197.512 143.975 197.008 143.135 197.008C141.777 197.008 140.965 198.128 140.965 199.626C140.965 201.124 141.777 202.23 143.135 202.23ZM154.268 203H153.218V201.992C152.714 202.678 151.888 203.168 150.936 203.168C149.172 203.168 147.926 201.824 147.926 199.626C147.926 197.47 149.158 196.07 150.936 196.07C151.846 196.07 152.672 196.518 153.218 197.26V193.662H154.268V203ZM151.188 202.23C152.028 202.23 152.84 201.754 153.218 201.166V198.1C152.84 197.512 152.028 197.008 151.188 197.008C149.83 197.008 149.018 198.128 149.018 199.626C149.018 201.124 149.83 202.23 151.188 202.23ZM165.594 203H164.544V202.048C164.026 202.636 163.144 203.168 162.136 203.168C160.722 203.168 159.98 202.482 159.98 201.012V196.238H161.03V200.69C161.03 201.88 161.632 202.23 162.542 202.23C163.368 202.23 164.152 201.754 164.544 201.208V196.238H165.594V203ZM169.833 203.168C168.727 203.168 167.789 202.832 167.103 202.104L167.649 201.348C168.097 201.866 168.951 202.314 169.875 202.314C170.911 202.314 171.471 201.824 171.471 201.152C171.471 199.514 167.285 200.522 167.285 198.016C167.285 196.966 168.195 196.07 169.805 196.07C170.953 196.07 171.765 196.504 172.311 197.05L171.821 197.778C171.415 197.288 170.673 196.924 169.805 196.924C168.881 196.924 168.307 197.386 168.307 197.988C168.307 199.472 172.493 198.492 172.493 201.124C172.493 202.258 171.583 203.168 169.833 203.168ZM177.25 203.168C175.248 203.168 173.806 201.726 173.806 199.612C173.806 197.652 175.206 196.07 177.138 196.07C179.182 196.07 180.386 197.666 180.386 199.696V199.962H174.912C174.996 201.236 175.892 202.3 177.348 202.3C178.118 202.3 178.902 201.992 179.434 201.446L179.938 202.132C179.266 202.804 178.356 203.168 177.25 203.168ZM179.35 199.192C179.336 198.184 178.664 196.938 177.124 196.938C175.682 196.938 174.968 198.156 174.912 199.192H179.35ZM183.137 203H182.087V196.238H183.137V197.33C183.683 196.616 184.467 196.098 185.391 196.098V197.176C185.265 197.148 185.139 197.134 184.971 197.134C184.327 197.134 183.445 197.666 183.137 198.212V203ZM188.85 203.168C187.744 203.168 186.806 202.832 186.12 202.104L186.666 201.348C187.114 201.866 187.968 202.314 188.892 202.314C189.928 202.314 190.488 201.824 190.488 201.152C190.488 199.514 186.302 200.522 186.302 198.016C186.302 196.966 187.212 196.07 188.822 196.07C189.97 196.07 190.782 196.504 191.328 197.05L190.838 197.778C190.432 197.288 189.69 196.924 188.822 196.924C187.898 196.924 187.324 197.386 187.324 197.988C187.324 199.472 191.51 198.492 191.51 201.124C191.51 202.258 190.6 203.168 188.85 203.168Z" fill="#50667C"/>
<g filter="url(#filter0_d_393_11321)">
<path fill-rule="evenodd" clip-rule="evenodd" d="M11 232.3H402C403.104 232.3 404 232.882 404 233.6V493C404 493.718 403.104 494.3 402 494.3H11C9.89554 494.3 8.99979 493.718 8.99979 493V233.6C8.99979 232.882 9.89554 232.3 11 232.3Z" fill="white"/>
<path d="M402 231.8H11C10.3653 231.8 9.76749 231.967 9.31321 232.262C8.86372 232.554 8.49979 233.016 8.49979 233.6V493C8.49979 493.584 8.86372 494.046 9.31321 494.339C9.76749 494.634 10.3653 494.8 11 494.8H402C402.635 494.8 403.233 494.634 403.687 494.339C404.136 494.046 404.5 493.584 404.5 493V233.6C404.5 233.016 404.136 232.554 403.687 232.262C403.233 231.967 402.635 231.8 402 231.8Z" stroke="#CAD4DA"/>
</g>
<mask id="mask0_393_11321" style="mask-type:luminance" maskUnits="userSpaceOnUse" x="8" y="231" width="397" height="265">
<path d="M402 231.8H11C10.3653 231.8 9.76749 231.967 9.31321 232.262C8.86372 232.554 8.49979 233.016 8.49979 233.6V493C8.49979 493.584 8.86372 494.046 9.31321 494.339C9.76749 494.634 10.3653 494.8 11 494.8H402C402.635 494.8 403.233 494.634 403.687 494.339C404.136 494.046 404.5 493.584 404.5 493V233.6C404.5 233.016 404.136 232.554 403.687 232.262C403.233 231.967 402.635 231.8 402 231.8Z" fill="white" stroke="white"/>
</mask>
<g mask="url(#mask0_393_11321)">
<g filter="url(#filter1_di_393_11321)">
<path fill-rule="evenodd" clip-rule="evenodd" d="M8.93675 295.3H404.063V648.3H8.93675V295.3Z" fill="#F2F4F5" fill-opacity="0.7"/>
</g>
</g>
<rect x="31" y="429.3" width="351" height="35" rx="3" fill="#3FBF5B"/>
<rect x="31" y="429.3" width="351" height="35" rx="3" fill="url(#paint1_linear_393_11321)" style="mix-blend-mode:multiply"/>
<path d="M158.925 451.468C156.237 451.468 154.123 449.508 154.123 446.638C154.123 443.768 156.237 441.808 158.925 441.808C160.577 441.808 161.725 442.606 162.467 443.656L161.487 444.202C160.955 443.418 159.989 442.844 158.925 442.844C156.881 442.844 155.327 444.412 155.327 446.638C155.327 448.85 156.881 450.432 158.925 450.432C159.989 450.432 160.955 449.872 161.487 449.074L162.481 449.62C161.697 450.684 160.577 451.468 158.925 451.468ZM166.874 451.468C164.816 451.468 163.528 449.872 163.528 447.912C163.528 445.952 164.816 444.37 166.874 444.37C168.932 444.37 170.22 445.952 170.22 447.912C170.22 449.872 168.932 451.468 166.874 451.468ZM166.874 450.53C168.316 450.53 169.114 449.298 169.114 447.912C169.114 446.54 168.316 445.308 166.874 445.308C165.432 445.308 164.62 446.54 164.62 447.912C164.62 449.298 165.432 450.53 166.874 450.53ZM177.546 451.3H176.496V446.876C176.496 445.686 175.894 445.308 174.984 445.308C174.158 445.308 173.374 445.812 172.982 446.358V451.3H171.932V444.538H172.982V445.518C173.458 444.958 174.382 444.37 175.39 444.37C176.804 444.37 177.546 445.084 177.546 446.554V451.3ZM180.987 451.3H179.937V445.462H178.817V444.538H179.937V444.02C179.937 442.62 180.721 441.822 181.897 441.822C182.289 441.822 182.653 441.892 182.919 442.06L182.653 442.858C182.499 442.76 182.317 442.69 182.051 442.69C181.365 442.69 180.987 443.166 180.987 444.02V444.538H182.359V445.462H180.987V451.3ZM184.123 443.572C183.745 443.572 183.423 443.264 183.423 442.872C183.423 442.48 183.745 442.158 184.123 442.158C184.515 442.158 184.837 442.48 184.837 442.872C184.837 443.264 184.515 443.572 184.123 443.572ZM184.655 451.3H183.605V444.538H184.655V451.3ZM189.482 454.044C188.334 454.044 187.55 453.82 186.752 453.036L187.284 452.252C187.844 452.924 188.516 453.176 189.482 453.176C190.602 453.176 191.652 452.63 191.652 451.146V450.18C191.162 450.866 190.336 451.384 189.384 451.384C187.62 451.384 186.374 450.068 186.374 447.884C186.374 445.714 187.606 444.37 189.384 444.37C190.294 444.37 191.106 444.818 191.652 445.56V444.538H192.702V451.104C192.702 453.344 191.134 454.044 189.482 454.044ZM189.636 450.46C190.476 450.46 191.288 449.942 191.652 449.354V446.4C191.288 445.812 190.476 445.308 189.636 445.308C188.278 445.308 187.466 446.386 187.466 447.884C187.466 449.368 188.278 450.46 189.636 450.46ZM200.419 451.3H199.369V450.348C198.851 450.936 197.969 451.468 196.961 451.468C195.547 451.468 194.805 450.782 194.805 449.312V444.538H195.855V448.99C195.855 450.18 196.457 450.53 197.367 450.53C198.193 450.53 198.977 450.054 199.369 449.508V444.538H200.419V451.3ZM203.566 451.3H202.516V444.538H203.566V445.63C204.112 444.916 204.896 444.398 205.82 444.398V445.476C205.694 445.448 205.568 445.434 205.4 445.434C204.756 445.434 203.874 445.966 203.566 446.512V451.3ZM210.189 451.468C208.187 451.468 206.745 450.026 206.745 447.912C206.745 445.952 208.145 444.37 210.077 444.37C212.121 444.37 213.325 445.966 213.325 447.996V448.262H207.851C207.935 449.536 208.831 450.6 210.287 450.6C211.057 450.6 211.841 450.292 212.373 449.746L212.877 450.432C212.205 451.104 211.295 451.468 210.189 451.468ZM212.289 447.492C212.275 446.484 211.603 445.238 210.063 445.238C208.621 445.238 207.907 446.456 207.851 447.492H212.289ZM219.839 451.3H218.677V441.962H222.429C224.305 441.962 225.355 443.25 225.355 444.776C225.355 446.302 224.277 447.59 222.429 447.59H219.839V451.3ZM222.289 446.554C223.395 446.554 224.151 445.826 224.151 444.776C224.151 443.726 223.395 442.998 222.289 442.998H219.839V446.554H222.289ZM227.902 451.3H226.852V444.538H227.902V445.63C228.448 444.916 229.232 444.398 230.156 444.398V445.476C230.03 445.448 229.904 445.434 229.736 445.434C229.092 445.434 228.21 445.966 227.902 446.512V451.3ZM234.427 451.468C232.369 451.468 231.081 449.872 231.081 447.912C231.081 445.952 232.369 444.37 234.427 444.37C236.485 444.37 237.773 445.952 237.773 447.912C237.773 449.872 236.485 451.468 234.427 451.468ZM234.427 450.53C235.869 450.53 236.667 449.298 236.667 447.912C236.667 446.54 235.869 445.308 234.427 445.308C232.985 445.308 232.173 446.54 232.173 447.912C232.173 449.298 232.985 450.53 234.427 450.53ZM240.829 451.3H239.779V445.462H238.659V444.538H239.779V444.02C239.779 442.62 240.563 441.822 241.739 441.822C242.131 441.822 242.495 441.892 242.761 442.06L242.495 442.858C242.341 442.76 242.159 442.69 241.893 442.69C241.207 442.69 240.829 443.166 240.829 444.02V444.538H242.201V445.462H240.829V451.3ZM243.965 443.572C243.587 443.572 243.265 443.264 243.265 442.872C243.265 442.48 243.587 442.158 243.965 442.158C244.357 442.158 244.679 442.48 244.679 442.872C244.679 443.264 244.357 443.572 243.965 443.572ZM244.497 451.3H243.447V444.538H244.497V451.3ZM247.658 451.3H246.608V441.962H247.658V451.3ZM252.804 451.468C250.802 451.468 249.36 450.026 249.36 447.912C249.36 445.952 250.76 444.37 252.692 444.37C254.736 444.37 255.94 445.966 255.94 447.996V448.262H250.466C250.55 449.536 251.446 450.6 252.902 450.6C253.672 450.6 254.456 450.292 254.988 449.746L255.492 450.432C254.82 451.104 253.91 451.468 252.804 451.468ZM254.904 447.492C254.89 446.484 254.218 445.238 252.678 445.238C251.236 445.238 250.522 446.456 250.466 447.492H254.904Z" fill="white"/>
<path d="M34.093 377.3H33.014V368.629H34.093V377.3ZM41.2984 377.3H40.3234V373.192C40.3234 372.087 39.7644 371.736 38.9194 371.736C38.1524 371.736 37.4244 372.204 37.0604 372.711V377.3H36.0854V371.021H37.0604V371.931C37.5024 371.411 38.3604 370.865 39.2964 370.865C40.6094 370.865 41.2984 371.528 41.2984 372.893V377.3ZM46.3395 377.456C45.4815 377.456 44.7275 377.053 44.2205 376.351V379.692H43.2455V371.021H44.2205V371.957C44.6755 371.32 45.4555 370.865 46.3395 370.865C47.9905 370.865 49.1345 372.113 49.1345 374.154C49.1345 376.182 47.9905 377.456 46.3395 377.456ZM46.0925 376.585C47.3535 376.585 48.1075 375.545 48.1075 374.154C48.1075 372.763 47.3535 371.736 46.0925 371.736C45.3255 371.736 44.5585 372.191 44.2205 372.737V375.571C44.5585 376.117 45.3255 376.585 46.0925 376.585ZM55.898 377.3H54.923V376.416C54.442 376.962 53.623 377.456 52.687 377.456C51.374 377.456 50.685 376.819 50.685 375.454V371.021H51.66V375.155C51.66 376.26 52.219 376.585 53.064 376.585C53.831 376.585 54.559 376.143 54.923 375.636V371.021H55.898V377.3ZM59.4311 377.456C58.5081 377.456 58.0401 376.923 58.0401 375.987V371.879H57.0001V371.021H58.0401V369.305H59.0151V371.021H60.2891V371.879H59.0151V375.779C59.0151 376.247 59.2231 376.585 59.6521 376.585C59.9251 376.585 60.1851 376.468 60.3151 376.325L60.6011 377.053C60.3541 377.287 60.0031 377.456 59.4311 377.456ZM64.667 379.757L64.823 378.873C64.966 378.938 65.2 378.977 65.356 378.977C65.785 378.977 66.071 378.834 66.292 378.314L66.708 377.365L64.082 371.021H65.135L67.228 376.169L69.308 371.021H70.374L67.228 378.574C66.851 379.484 66.214 379.835 65.382 379.848C65.174 379.848 64.849 379.809 64.667 379.757ZM74.134 377.456C72.223 377.456 71.027 375.974 71.027 374.154C71.027 372.334 72.223 370.865 74.134 370.865C76.045 370.865 77.241 372.334 77.241 374.154C77.241 375.974 76.045 377.456 74.134 377.456ZM74.134 376.585C75.473 376.585 76.214 375.441 76.214 374.154C76.214 372.88 75.473 371.736 74.134 371.736C72.795 371.736 72.041 372.88 72.041 374.154C72.041 375.441 72.795 376.585 74.134 376.585ZM84.0435 377.3H83.0685V376.416C82.5875 376.962 81.7685 377.456 80.8325 377.456C79.5195 377.456 78.8305 376.819 78.8305 375.454V371.021H79.8055V375.155C79.8055 376.26 80.3645 376.585 81.2095 376.585C81.9765 376.585 82.7045 376.143 83.0685 375.636V371.021H84.0435V377.3ZM86.9656 377.3H85.9906V371.021H86.9656V372.035C87.4726 371.372 88.2006 370.891 89.0586 370.891V371.892C88.9416 371.866 88.8246 371.853 88.6686 371.853C88.0706 371.853 87.2516 372.347 86.9656 372.854V377.3ZM94.1142 370.124C93.7632 370.124 93.4642 369.838 93.4642 369.474C93.4642 369.11 93.7632 368.811 94.1142 368.811C94.4782 368.811 94.7772 369.11 94.7772 369.474C94.7772 369.838 94.4782 370.124 94.1142 370.124ZM94.6082 377.3H93.6332V371.021H94.6082V377.3ZM101.766 377.3H100.791V373.192C100.791 372.087 100.232 371.736 99.3871 371.736C98.6201 371.736 97.8921 372.204 97.5281 372.711V377.3H96.5531V371.021H97.5281V371.931C97.9701 371.411 98.8281 370.865 99.7641 370.865C101.077 370.865 101.766 371.528 101.766 372.893V377.3ZM104.961 377.3H103.986V371.879H102.946V371.021H103.986V370.54C103.986 369.253 104.688 368.499 105.806 368.499C106.3 368.499 106.742 368.616 107.132 368.98L106.729 369.617C106.521 369.435 106.274 369.305 105.949 369.305C105.312 369.305 104.961 369.747 104.961 370.54V371.021H106.235V371.879H104.961V377.3ZM110.138 377.456C108.227 377.456 107.031 375.974 107.031 374.154C107.031 372.334 108.227 370.865 110.138 370.865C112.049 370.865 113.245 372.334 113.245 374.154C113.245 375.974 112.049 377.456 110.138 377.456ZM110.138 376.585C111.477 376.585 112.218 375.441 112.218 374.154C112.218 372.88 111.477 371.736 110.138 371.736C108.799 371.736 108.045 372.88 108.045 374.154C108.045 375.441 108.799 376.585 110.138 376.585ZM115.809 377.3H114.834V371.021H115.809V372.035C116.316 371.372 117.044 370.891 117.902 370.891V371.892C117.785 371.866 117.668 371.853 117.512 371.853C116.914 371.853 116.095 372.347 115.809 372.854V377.3ZM127.679 377.3H126.704V373.036C126.704 372.243 126.353 371.736 125.547 371.736C124.897 371.736 124.208 372.204 123.883 372.698V377.3H122.908V373.036C122.908 372.243 122.57 371.736 121.751 371.736C121.114 371.736 120.438 372.204 120.1 372.711V377.3H119.125V371.021H120.1V371.931C120.36 371.528 121.205 370.865 122.128 370.865C123.09 370.865 123.636 371.385 123.818 372.035C124.169 371.463 125.014 370.865 125.924 370.865C127.068 370.865 127.679 371.502 127.679 372.763V377.3ZM134.525 377.3H133.55V376.585C133.03 377.157 132.315 377.456 131.47 377.456C130.404 377.456 129.273 376.741 129.273 375.376C129.273 373.972 130.404 373.309 131.47 373.309C132.328 373.309 133.043 373.582 133.55 374.167V373.036C133.55 372.191 132.874 371.71 131.964 371.71C131.21 371.71 130.599 371.983 130.04 372.581L129.585 371.905C130.261 371.203 131.067 370.865 132.094 370.865C133.42 370.865 134.525 371.463 134.525 372.984V377.3ZM131.821 376.754C132.51 376.754 133.173 376.494 133.55 375.974V374.791C133.173 374.271 132.51 374.011 131.821 374.011C130.911 374.011 130.274 374.583 130.274 375.389C130.274 376.182 130.911 376.754 131.821 376.754ZM138.066 377.456C137.143 377.456 136.675 376.923 136.675 375.987V371.879H135.635V371.021H136.675V369.305H137.65V371.021H138.924V371.879H137.65V375.779C137.65 376.247 137.858 376.585 138.287 376.585C138.56 376.585 138.82 376.468 138.95 376.325L139.236 377.053C138.989 377.287 138.638 377.456 138.066 377.456ZM140.782 370.124C140.431 370.124 140.132 369.838 140.132 369.474C140.132 369.11 140.431 368.811 140.782 368.811C141.146 368.811 141.445 369.11 141.445 369.474C141.445 369.838 141.146 370.124 140.782 370.124ZM141.276 377.3H140.301V371.021H141.276V377.3ZM145.964 377.456C144.053 377.456 142.857 375.974 142.857 374.154C142.857 372.334 144.053 370.865 145.964 370.865C147.875 370.865 149.071 372.334 149.071 374.154C149.071 375.974 147.875 377.456 145.964 377.456ZM145.964 376.585C147.303 376.585 148.044 375.441 148.044 374.154C148.044 372.88 147.303 371.736 145.964 371.736C144.625 371.736 143.871 372.88 143.871 374.154C143.871 375.441 144.625 376.585 145.964 376.585ZM155.874 377.3H154.899V373.192C154.899 372.087 154.34 371.736 153.495 371.736C152.728 371.736 152 372.204 151.636 372.711V377.3H150.661V371.021H151.636V371.931C152.078 371.411 152.936 370.865 153.872 370.865C155.185 370.865 155.874 371.528 155.874 372.893V377.3ZM158.341 377.43C157.951 377.43 157.626 377.105 157.626 376.715C157.626 376.325 157.951 376 158.341 376C158.731 376 159.056 376.325 159.056 376.715C159.056 377.105 158.731 377.43 158.341 377.43ZM167.808 377.3H166.729V373.634L163.31 368.629H164.571L167.262 372.659L169.953 368.629H171.214L167.808 373.634V377.3ZM173.399 377.456C171.488 377.456 170.292 375.974 170.292 374.154C170.292 372.334 171.488 370.865 173.399 370.865C175.31 370.865 176.506 372.334 176.506 374.154C176.506 375.974 175.31 377.456 173.399 377.456ZM173.399 376.585C174.738 376.585 175.479 375.441 175.479 374.154C175.479 372.88 174.738 371.736 173.399 371.736C172.06 371.736 171.306 372.88 171.306 374.154C171.306 375.441 172.06 376.585 173.399 376.585ZM183.308 377.3H182.333V376.416C181.852 376.962 181.033 377.456 180.097 377.456C178.784 377.456 178.095 376.819 178.095 375.454V371.021H179.07V375.155C179.07 376.26 179.629 376.585 180.474 376.585C181.241 376.585 181.969 376.143 182.333 375.636V371.021H183.308V377.3ZM186.23 377.3H185.255V371.021H186.23V372.035C186.737 371.372 187.465 370.891 188.323 370.891V371.892C188.206 371.866 188.089 371.853 187.933 371.853C187.335 371.853 186.516 372.347 186.23 372.854V377.3ZM198.423 377.3H197.448V376.364C196.98 377.001 196.213 377.456 195.329 377.456C193.691 377.456 192.534 376.208 192.534 374.167C192.534 372.165 193.678 370.865 195.329 370.865C196.174 370.865 196.941 371.281 197.448 371.97V368.629H198.423V377.3ZM195.563 376.585C196.343 376.585 197.097 376.143 197.448 375.597V372.75C197.097 372.204 196.343 371.736 195.563 371.736C194.302 371.736 193.548 372.776 193.548 374.167C193.548 375.558 194.302 376.585 195.563 376.585ZM205.276 377.3H204.301V376.585C203.781 377.157 203.066 377.456 202.221 377.456C201.155 377.456 200.024 376.741 200.024 375.376C200.024 373.972 201.155 373.309 202.221 373.309C203.079 373.309 203.794 373.582 204.301 374.167V373.036C204.301 372.191 203.625 371.71 202.715 371.71C201.961 371.71 201.35 371.983 200.791 372.581L200.336 371.905C201.012 371.203 201.818 370.865 202.845 370.865C204.171 370.865 205.276 371.463 205.276 372.984V377.3ZM202.572 376.754C203.261 376.754 203.924 376.494 204.301 375.974V374.791C203.924 374.271 203.261 374.011 202.572 374.011C201.662 374.011 201.025 374.583 201.025 375.389C201.025 376.182 201.662 376.754 202.572 376.754ZM208.817 377.456C207.894 377.456 207.426 376.923 207.426 375.987V371.879H206.386V371.021H207.426V369.305H208.401V371.021H209.675V371.879H208.401V375.779C208.401 376.247 208.609 376.585 209.038 376.585C209.311 376.585 209.571 376.468 209.701 376.325L209.987 377.053C209.74 377.287 209.389 377.456 208.817 377.456ZM215.953 377.3H214.978V376.585C214.458 377.157 213.743 377.456 212.898 377.456C211.832 377.456 210.701 376.741 210.701 375.376C210.701 373.972 211.832 373.309 212.898 373.309C213.756 373.309 214.471 373.582 214.978 374.167V373.036C214.978 372.191 214.302 371.71 213.392 371.71C212.638 371.71 212.027 371.983 211.468 372.581L211.013 371.905C211.689 371.203 212.495 370.865 213.522 370.865C214.848 370.865 215.953 371.463 215.953 372.984V377.3ZM213.249 376.754C213.938 376.754 214.601 376.494 214.978 375.974V374.791C214.601 374.271 213.938 374.011 213.249 374.011C212.339 374.011 211.702 374.583 211.702 375.389C211.702 376.182 212.339 376.754 213.249 376.754ZM227.668 377.3H226.693L225.055 372.256L223.417 377.3H222.442L220.44 371.021H221.454L222.988 376.026L224.639 371.021H225.471L227.122 376.026L228.656 371.021H229.67L227.668 377.3ZM231.287 370.124C230.936 370.124 230.637 369.838 230.637 369.474C230.637 369.11 230.936 368.811 231.287 368.811C231.651 368.811 231.95 369.11 231.95 369.474C231.95 369.838 231.651 370.124 231.287 370.124ZM231.781 377.3H230.806V371.021H231.781V377.3ZM234.701 377.3H233.726V368.629H234.701V377.3ZM237.621 377.3H236.646V368.629H237.621V377.3ZM243.892 375.597C244.23 376.143 244.997 376.585 245.764 376.585C247.038 376.585 247.792 375.558 247.792 374.167C247.792 372.776 247.038 371.736 245.764 371.736C244.997 371.736 244.23 372.204 243.892 372.75V375.597ZM243.892 377.3H242.917V368.629H243.892V371.97C244.399 371.281 245.153 370.865 246.011 370.865C247.649 370.865 248.806 372.165 248.806 374.167C248.806 376.208 247.649 377.456 246.011 377.456C245.127 377.456 244.36 377.001 243.892 376.364V377.3ZM253.229 377.456C251.37 377.456 250.031 376.117 250.031 374.154C250.031 372.334 251.331 370.865 253.125 370.865C255.023 370.865 256.141 372.347 256.141 374.232V374.479H251.058C251.136 375.662 251.968 376.65 253.32 376.65C254.035 376.65 254.763 376.364 255.257 375.857L255.725 376.494C255.101 377.118 254.256 377.456 253.229 377.456ZM255.179 373.764C255.166 372.828 254.542 371.671 253.112 371.671C251.773 371.671 251.11 372.802 251.058 373.764H255.179ZM265.973 377.3H264.998V376.585C264.478 377.157 263.763 377.456 262.918 377.456C261.852 377.456 260.721 376.741 260.721 375.376C260.721 373.972 261.852 373.309 262.918 373.309C263.776 373.309 264.491 373.582 264.998 374.167V373.036C264.998 372.191 264.322 371.71 263.412 371.71C262.658 371.71 262.047 371.983 261.488 372.581L261.033 371.905C261.709 371.203 262.515 370.865 263.542 370.865C264.868 370.865 265.973 371.463 265.973 372.984V377.3ZM263.269 376.754C263.958 376.754 264.621 376.494 264.998 375.974V374.791C264.621 374.271 263.958 374.011 263.269 374.011C262.359 374.011 261.722 374.583 261.722 375.389C261.722 376.182 262.359 376.754 263.269 376.754ZM273.14 377.3H272.165V376.416C271.684 376.962 270.865 377.456 269.929 377.456C268.616 377.456 267.927 376.819 267.927 375.454V371.021H268.902V375.155C268.902 376.26 269.461 376.585 270.306 376.585C271.073 376.585 271.801 376.143 272.165 375.636V371.021H273.14V377.3ZM276.673 377.456C275.75 377.456 275.282 376.923 275.282 375.987V371.879H274.242V371.021H275.282V369.305H276.257V371.021H277.531V371.879H276.257V375.779C276.257 376.247 276.465 376.585 276.894 376.585C277.167 376.585 277.427 376.468 277.557 376.325L277.843 377.053C277.596 377.287 277.245 377.456 276.673 377.456ZM281.652 377.456C279.741 377.456 278.545 375.974 278.545 374.154C278.545 372.334 279.741 370.865 281.652 370.865C283.563 370.865 284.759 372.334 284.759 374.154C284.759 375.974 283.563 377.456 281.652 377.456ZM281.652 376.585C282.991 376.585 283.732 375.441 283.732 374.154C283.732 372.88 282.991 371.736 281.652 371.736C280.313 371.736 279.559 372.88 279.559 374.154C279.559 375.441 280.313 376.585 281.652 376.585ZM294.902 377.3H293.927V373.036C293.927 372.243 293.576 371.736 292.77 371.736C292.12 371.736 291.431 372.204 291.106 372.698V377.3H290.131V373.036C290.131 372.243 289.793 371.736 288.974 371.736C288.337 371.736 287.661 372.204 287.323 372.711V377.3H286.348V371.021H287.323V371.931C287.583 371.528 288.428 370.865 289.351 370.865C290.313 370.865 290.859 371.385 291.041 372.035C291.392 371.463 292.237 370.865 293.147 370.865C294.291 370.865 294.902 371.502 294.902 372.763V377.3ZM301.748 377.3H300.773V376.585C300.253 377.157 299.538 377.456 298.693 377.456C297.627 377.456 296.496 376.741 296.496 375.376C296.496 373.972 297.627 373.309 298.693 373.309C299.551 373.309 300.266 373.582 300.773 374.167V373.036C300.773 372.191 300.097 371.71 299.187 371.71C298.433 371.71 297.822 371.983 297.263 372.581L296.808 371.905C297.484 371.203 298.29 370.865 299.317 370.865C300.643 370.865 301.748 371.463 301.748 372.984V377.3ZM299.044 376.754C299.733 376.754 300.396 376.494 300.773 375.974V374.791C300.396 374.271 299.733 374.011 299.044 374.011C298.134 374.011 297.497 374.583 297.497 375.389C297.497 376.182 298.134 376.754 299.044 376.754ZM305.289 377.456C304.366 377.456 303.898 376.923 303.898 375.987V371.879H302.858V371.021H303.898V369.305H304.873V371.021H306.147V371.879H304.873V375.779C304.873 376.247 305.081 376.585 305.51 376.585C305.783 376.585 306.043 376.468 306.173 376.325L306.459 377.053C306.212 377.287 305.861 377.456 305.289 377.456ZM308.005 370.124C307.654 370.124 307.355 369.838 307.355 369.474C307.355 369.11 307.654 368.811 308.005 368.811C308.369 368.811 308.668 369.11 308.668 369.474C308.668 369.838 308.369 370.124 308.005 370.124ZM308.499 377.3H307.524V371.021H308.499V377.3ZM313.213 377.456C311.341 377.456 310.08 376.026 310.08 374.154C310.08 372.295 311.341 370.865 313.213 370.865C314.357 370.865 315.033 371.333 315.514 371.957L314.864 372.555C314.448 371.983 313.915 371.736 313.265 371.736C311.926 371.736 311.094 372.763 311.094 374.154C311.094 375.545 311.926 376.585 313.265 376.585C313.915 376.585 314.448 376.325 314.864 375.766L315.514 376.364C315.033 376.988 314.357 377.456 313.213 377.456ZM321.781 377.3H320.806V376.585C320.286 377.157 319.571 377.456 318.726 377.456C317.66 377.456 316.529 376.741 316.529 375.376C316.529 373.972 317.66 373.309 318.726 373.309C319.584 373.309 320.299 373.582 320.806 374.167V373.036C320.806 372.191 320.13 371.71 319.22 371.71C318.466 371.71 317.855 371.983 317.296 372.581L316.841 371.905C317.517 371.203 318.323 370.865 319.35 370.865C320.676 370.865 321.781 371.463 321.781 372.984V377.3ZM319.077 376.754C319.766 376.754 320.429 376.494 320.806 375.974V374.791C320.429 374.271 319.766 374.011 319.077 374.011C318.167 374.011 317.53 374.583 317.53 375.389C317.53 376.182 318.167 376.754 319.077 376.754ZM324.711 377.3H323.736V368.629H324.711V377.3ZM327.631 377.3H326.656V368.629H327.631V377.3ZM329.225 379.757L329.381 378.873C329.524 378.938 329.758 378.977 329.914 378.977C330.343 378.977 330.629 378.834 330.85 378.314L331.266 377.365L328.64 371.021H329.693L331.786 376.169L333.866 371.021H334.932L331.786 378.574C331.409 379.484 330.772 379.835 329.94 379.848C329.732 379.848 329.407 379.809 329.225 379.757ZM341.289 377.456C340.262 377.456 339.391 377.144 338.754 376.468L339.261 375.766C339.677 376.247 340.47 376.663 341.328 376.663C342.29 376.663 342.81 376.208 342.81 375.584C342.81 374.063 338.923 374.999 338.923 372.672C338.923 371.697 339.768 370.865 341.263 370.865C342.329 370.865 343.083 371.268 343.59 371.775L343.135 372.451C342.758 371.996 342.069 371.658 341.263 371.658C340.405 371.658 339.872 372.087 339.872 372.646C339.872 374.024 343.759 373.114 343.759 375.558C343.759 376.611 342.914 377.456 341.289 377.456ZM350.244 377.3H349.269V376.585C348.749 377.157 348.034 377.456 347.189 377.456C346.123 377.456 344.992 376.741 344.992 375.376C344.992 373.972 346.123 373.309 347.189 373.309C348.047 373.309 348.762 373.582 349.269 374.167V373.036C349.269 372.191 348.593 371.71 347.683 371.71C346.929 371.71 346.318 371.983 345.759 372.581L345.304 371.905C345.98 371.203 346.786 370.865 347.813 370.865C349.139 370.865 350.244 371.463 350.244 372.984V377.3ZM347.54 376.754C348.229 376.754 348.892 376.494 349.269 375.974V374.791C348.892 374.271 348.229 374.011 347.54 374.011C346.63 374.011 345.993 374.583 345.993 375.389C345.993 376.182 346.63 376.754 347.54 376.754ZM354.942 377.3H353.876L351.263 371.021H352.316L354.409 376.169L356.489 371.021H357.555L354.942 377.3ZM361.406 377.456C359.547 377.456 358.208 376.117 358.208 374.154C358.208 372.334 359.508 370.865 361.302 370.865C363.2 370.865 364.318 372.347 364.318 374.232V374.479H359.235C359.313 375.662 360.145 376.65 361.497 376.65C362.212 376.65 362.94 376.364 363.434 375.857L363.902 376.494C363.278 377.118 362.433 377.456 361.406 377.456ZM363.356 373.764C363.343 372.828 362.719 371.671 361.289 371.671C359.95 371.671 359.287 372.802 359.235 373.764H363.356ZM371.422 377.3H370.447V376.364C369.979 377.001 369.212 377.456 368.328 377.456C366.69 377.456 365.533 376.208 365.533 374.167C365.533 372.165 366.677 370.865 368.328 370.865C369.173 370.865 369.94 371.281 370.447 371.97V368.629H371.422V377.3ZM368.562 376.585C369.342 376.585 370.096 376.143 370.447 375.597V372.75C370.096 372.204 369.342 371.736 368.562 371.736C367.301 371.736 366.547 372.776 366.547 374.167C366.547 375.558 367.301 376.585 368.562 376.585ZM37.876 401.3H36.901V400.585C36.381 401.157 35.666 401.456 34.821 401.456C33.755 401.456 32.624 400.741 32.624 399.376C32.624 397.972 33.755 397.309 34.821 397.309C35.679 397.309 36.394 397.582 36.901 398.167V397.036C36.901 396.191 36.225 395.71 35.315 395.71C34.561 395.71 33.95 395.983 33.391 396.581L32.936 395.905C33.612 395.203 34.418 394.865 35.445 394.865C36.771 394.865 37.876 395.463 37.876 396.984V401.3ZM35.172 400.754C35.861 400.754 36.524 400.494 36.901 399.974V398.791C36.524 398.271 35.861 398.011 35.172 398.011C34.262 398.011 33.625 398.583 33.625 399.389C33.625 400.182 34.262 400.754 35.172 400.754ZM41.8195 401.456C40.7925 401.456 39.9215 401.144 39.2845 400.468L39.7915 399.766C40.2075 400.247 41.0005 400.663 41.8585 400.663C42.8205 400.663 43.3405 400.208 43.3405 399.584C43.3405 398.063 39.4535 398.999 39.4535 396.672C39.4535 395.697 40.2985 394.865 41.7935 394.865C42.8595 394.865 43.6135 395.268 44.1205 395.775L43.6655 396.451C43.2885 395.996 42.5995 395.658 41.7935 395.658C40.9355 395.658 40.4025 396.087 40.4025 396.646C40.4025 398.024 44.2895 397.114 44.2895 399.558C44.2895 400.611 43.4445 401.456 41.8195 401.456ZM48.874 403.757L49.03 402.873C49.173 402.938 49.407 402.977 49.563 402.977C49.992 402.977 50.278 402.834 50.499 402.314L50.915 401.365L48.289 395.021H49.342L51.435 400.169L53.515 395.021H54.581L51.435 402.574C51.058 403.484 50.421 403.835 49.589 403.848C49.381 403.848 49.056 403.809 48.874 403.757ZM58.341 401.456C56.43 401.456 55.234 399.974 55.234 398.154C55.234 396.334 56.43 394.865 58.341 394.865C60.252 394.865 61.448 396.334 61.448 398.154C61.448 399.974 60.252 401.456 58.341 401.456ZM58.341 400.585C59.68 400.585 60.421 399.441 60.421 398.154C60.421 396.88 59.68 395.736 58.341 395.736C57.002 395.736 56.248 396.88 56.248 398.154C56.248 399.441 57.002 400.585 58.341 400.585ZM68.2505 401.3H67.2755V400.416C66.7945 400.962 65.9755 401.456 65.0395 401.456C63.7265 401.456 63.0375 400.819 63.0375 399.454V395.021H64.0125V399.155C64.0125 400.26 64.5715 400.585 65.4165 400.585C66.1835 400.585 66.9115 400.143 67.2755 399.636V395.021H68.2505V401.3ZM78.4502 401.3H77.4752V400.585C76.9552 401.157 76.2402 401.456 75.3952 401.456C74.3292 401.456 73.1982 400.741 73.1982 399.376C73.1982 397.972 74.3292 397.309 75.3952 397.309C76.2532 397.309 76.9682 397.582 77.4752 398.167V397.036C77.4752 396.191 76.7992 395.71 75.8892 395.71C75.1352 395.71 74.5242 395.983 73.9652 396.581L73.5102 395.905C74.1862 395.203 74.9922 394.865 76.0192 394.865C77.3452 394.865 78.4502 395.463 78.4502 396.984V401.3ZM75.7462 400.754C76.4352 400.754 77.0982 400.494 77.4752 399.974V398.791C77.0982 398.271 76.4352 398.011 75.7462 398.011C74.8362 398.011 74.1992 398.583 74.1992 399.389C74.1992 400.182 74.8362 400.754 75.7462 400.754ZM85.9297 401.3H84.9547V400.364C84.4867 401.001 83.7197 401.456 82.8357 401.456C81.1977 401.456 80.0407 400.208 80.0407 398.167C80.0407 396.165 81.1847 394.865 82.8357 394.865C83.6807 394.865 84.4477 395.281 84.9547 395.97V392.629H85.9297V401.3ZM83.0697 400.585C83.8497 400.585 84.6037 400.143 84.9547 399.597V396.75C84.6037 396.204 83.8497 395.736 83.0697 395.736C81.8087 395.736 81.0547 396.776 81.0547 398.167C81.0547 399.558 81.8087 400.585 83.0697 400.585ZM93.4072 401.3H92.4322V400.364C91.9642 401.001 91.1972 401.456 90.3132 401.456C88.6752 401.456 87.5182 400.208 87.5182 398.167C87.5182 396.165 88.6622 394.865 90.3132 394.865C91.1582 394.865 91.9252 395.281 92.4322 395.97V392.629H93.4072V401.3ZM90.5472 400.585C91.3272 400.585 92.0812 400.143 92.4322 399.597V396.75C92.0812 396.204 91.3272 395.736 90.5472 395.736C89.2862 395.736 88.5322 396.776 88.5322 398.167C88.5322 399.558 89.2862 400.585 90.5472 400.585ZM101.454 401.456C99.5433 401.456 98.3473 399.974 98.3473 398.154C98.3473 396.334 99.5433 394.865 101.454 394.865C103.365 394.865 104.561 396.334 104.561 398.154C104.561 399.974 103.365 401.456 101.454 401.456ZM101.454 400.585C102.793 400.585 103.534 399.441 103.534 398.154C103.534 396.88 102.793 395.736 101.454 395.736C100.115 395.736 99.3613 396.88 99.3613 398.154C99.3613 399.441 100.115 400.585 101.454 400.585ZM107.126 401.3H106.151V395.021H107.126V396.035C107.633 395.372 108.361 394.891 109.219 394.891V395.892C109.102 395.866 108.985 395.853 108.829 395.853C108.231 395.853 107.412 396.347 107.126 396.854V401.3ZM116.627 401.456C114.768 401.456 113.429 400.117 113.429 398.154C113.429 396.334 114.729 394.865 116.523 394.865C118.421 394.865 119.539 396.347 119.539 398.232V398.479H114.456C114.534 399.662 115.366 400.65 116.718 400.65C117.433 400.65 118.161 400.364 118.655 399.857L119.123 400.494C118.499 401.118 117.654 401.456 116.627 401.456ZM118.577 397.764C118.564 396.828 117.94 395.671 116.51 395.671C115.171 395.671 114.508 396.802 114.456 397.764H118.577ZM126.644 401.3H125.669V400.364C125.201 401.001 124.434 401.456 123.55 401.456C121.912 401.456 120.755 400.208 120.755 398.167C120.755 396.165 121.899 394.865 123.55 394.865C124.395 394.865 125.162 395.281 125.669 395.97V392.629H126.644V401.3ZM123.784 400.585C124.564 400.585 125.318 400.143 125.669 399.597V396.75C125.318 396.204 124.564 395.736 123.784 395.736C122.523 395.736 121.769 396.776 121.769 398.167C121.769 399.558 122.523 400.585 123.784 400.585ZM129.077 394.124C128.726 394.124 128.427 393.838 128.427 393.474C128.427 393.11 128.726 392.811 129.077 392.811C129.441 392.811 129.74 393.11 129.74 393.474C129.74 393.838 129.441 394.124 129.077 394.124ZM129.571 401.3H128.596V395.021H129.571V401.3ZM133.102 401.456C132.179 401.456 131.711 400.923 131.711 399.987V395.879H130.671V395.021H131.711V393.305H132.686V395.021H133.96V395.879H132.686V399.779C132.686 400.247 132.894 400.585 133.323 400.585C133.596 400.585 133.856 400.468 133.986 400.325L134.272 401.053C134.025 401.287 133.674 401.456 133.102 401.456ZM139.17 394.124C138.819 394.124 138.52 393.838 138.52 393.474C138.52 393.11 138.819 392.811 139.17 392.811C139.534 392.811 139.833 393.11 139.833 393.474C139.833 393.838 139.534 394.124 139.17 394.124ZM139.664 401.3H138.689V395.021H139.664V401.3ZM143.195 401.456C142.272 401.456 141.804 400.923 141.804 399.987V395.879H140.764V395.021H141.804V393.305H142.779V395.021H144.053V395.879H142.779V399.779C142.779 400.247 142.987 400.585 143.416 400.585C143.689 400.585 143.949 400.468 144.079 400.325L144.365 401.053C144.118 401.287 143.767 401.456 143.195 401.456ZM145.95 401.43C145.56 401.43 145.235 401.105 145.235 400.715C145.235 400.325 145.56 400 145.95 400C146.34 400 146.665 400.325 146.665 400.715C146.665 401.105 146.34 401.43 145.95 401.43Z" fill="#3D454D"/>
<path d="M36.116 339.468C34.492 339.468 33.302 338.852 32.532 337.984L33.218 337.102C33.834 337.788 34.842 338.432 36.158 338.432C37.824 338.432 38.356 337.536 38.356 336.822C38.356 334.414 32.826 335.744 32.826 332.412C32.826 330.872 34.198 329.822 36.032 329.822C37.46 329.822 38.566 330.298 39.35 331.124L38.65 331.978C37.95 331.208 36.97 330.858 35.948 330.858C34.828 330.858 34.03 331.46 34.03 332.342C34.03 334.442 39.56 333.238 39.56 336.724C39.56 338.082 38.636 339.468 36.116 339.468ZM44.3051 339.468C42.3031 339.468 40.8611 338.026 40.8611 335.912C40.8611 333.952 42.2611 332.37 44.1931 332.37C46.2371 332.37 47.4411 333.966 47.4411 335.996V336.262H41.9671C42.0511 337.536 42.9471 338.6 44.4031 338.6C45.1731 338.6 45.9571 338.292 46.4891 337.746L46.9931 338.432C46.3211 339.104 45.4111 339.468 44.3051 339.468ZM46.4051 335.492C46.3911 334.484 45.7191 333.238 44.1791 333.238C42.7371 333.238 42.0231 334.456 41.9671 335.492H46.4051ZM50.8498 339.468C49.8558 339.468 49.3518 338.894 49.3518 337.886V333.462H48.2318V332.538H49.3518V330.69H50.4018V332.538H51.7738V333.462H50.4018V337.662C50.4018 338.166 50.6258 338.53 51.0878 338.53C51.3818 338.53 51.6618 338.404 51.8018 338.25L52.1098 339.034C51.8438 339.286 51.4658 339.468 50.8498 339.468ZM62.4804 339.3H61.4304V338.348C60.9124 338.936 60.0304 339.468 59.0224 339.468C57.6084 339.468 56.8664 338.782 56.8664 337.312V332.538H57.9164V336.99C57.9164 338.18 58.5184 338.53 59.4284 338.53C60.2544 338.53 61.0384 338.054 61.4304 337.508V332.538H62.4804V339.3ZM67.9093 339.468C66.9853 339.468 66.1733 339.034 65.6273 338.278V341.876H64.5773V332.538H65.6273V333.546C66.1173 332.86 66.9573 332.37 67.9093 332.37C69.6873 332.37 70.9193 333.714 70.9193 335.912C70.9193 338.096 69.6873 339.468 67.9093 339.468ZM67.6433 338.53C69.0013 338.53 69.8133 337.41 69.8133 335.912C69.8133 334.414 69.0013 333.308 67.6433 333.308C66.8173 333.308 65.9913 333.798 65.6273 334.386V337.438C65.9913 338.026 66.8173 338.53 67.6433 338.53ZM84.2344 339.3H82.9044L82.0784 337.228H77.4304L76.6044 339.3H75.2744L79.0264 329.962H80.4684L84.2344 339.3ZM81.7284 336.192L79.7544 331.166L77.7664 336.192H81.7284ZM88.3953 339.468C86.3793 339.468 85.0213 337.928 85.0213 335.912C85.0213 333.91 86.3793 332.37 88.3953 332.37C89.6273 332.37 90.3553 332.874 90.8733 333.546L90.1733 334.19C89.7253 333.574 89.1513 333.308 88.4513 333.308C87.0093 333.308 86.1133 334.414 86.1133 335.912C86.1133 337.41 87.0093 338.53 88.4513 338.53C89.1513 338.53 89.7253 338.25 90.1733 337.648L90.8733 338.292C90.3553 338.964 89.6273 339.468 88.3953 339.468ZM95.3269 339.468C93.3109 339.468 91.9529 337.928 91.9529 335.912C91.9529 333.91 93.3109 332.37 95.3269 332.37C96.5589 332.37 97.2869 332.874 97.8049 333.546L97.1049 334.19C96.6569 333.574 96.0829 333.308 95.3829 333.308C93.9409 333.308 93.0449 334.414 93.0449 335.912C93.0449 337.41 93.9409 338.53 95.3829 338.53C96.0829 338.53 96.6569 338.25 97.1049 337.648L97.8049 338.292C97.2869 338.964 96.5589 339.468 95.3269 339.468ZM102.231 339.468C100.173 339.468 98.8846 337.872 98.8846 335.912C98.8846 333.952 100.173 332.37 102.231 332.37C104.289 332.37 105.577 333.952 105.577 335.912C105.577 337.872 104.289 339.468 102.231 339.468ZM102.231 338.53C103.673 338.53 104.471 337.298 104.471 335.912C104.471 334.54 103.673 333.308 102.231 333.308C100.789 333.308 99.9766 334.54 99.9766 335.912C99.9766 337.298 100.789 338.53 102.231 338.53ZM112.902 339.3H111.852V338.348C111.334 338.936 110.452 339.468 109.444 339.468C108.03 339.468 107.288 338.782 107.288 337.312V332.538H108.338V336.99C108.338 338.18 108.94 338.53 109.85 338.53C110.676 338.53 111.46 338.054 111.852 337.508V332.538H112.902V339.3ZM120.613 339.3H119.563V334.876C119.563 333.686 118.961 333.308 118.051 333.308C117.225 333.308 116.441 333.812 116.049 334.358V339.3H114.999V332.538H116.049V333.518C116.525 332.958 117.449 332.37 118.457 332.37C119.871 332.37 120.613 333.084 120.613 334.554V339.3ZM124.418 339.468C123.424 339.468 122.92 338.894 122.92 337.886V333.462H121.8V332.538H122.92V330.69H123.97V332.538H125.342V333.462H123.97V337.662C123.97 338.166 124.194 338.53 124.656 338.53C124.95 338.53 125.23 338.404 125.37 338.25L125.678 339.034C125.412 339.286 125.034 339.468 124.418 339.468Z" fill="#3D454C"/>
<path fill-rule="evenodd" clip-rule="evenodd" d="M380.012 260.416L378.884 259.288L375.5 262.673L372.115 259.288L370.987 260.416L374.372 263.801L370.987 267.185L372.115 268.313L375.5 264.929L378.884 268.313L380.012 267.185L376.628 263.801L380.012 260.416Z" fill="#A8B2BB"/>
<path opacity="0.5" fill-rule="evenodd" clip-rule="evenodd" d="M9.00256 295.3V294.3H403.995V295.3H9.00256Z" fill="#637785"/>
<rect x="84.5" y="257.8" width="295" height="11" rx="2.5" fill="url(#paint2_linear_393_11321)" stroke="#DDDEDE"/>
<path d="M85 260.3C85 259.195 85.8954 258.3 87 258.3H142.03V268.3H87C85.8954 268.3 85 267.404 85 266.3V260.3Z" fill="#3FBF5B"/>
<g clip-path="url(#clip0_393_11321)">
<rect x="32.5" y="252.8" width="43" height="20" rx="2.5" stroke="#3FBF5B"/>
<path d="M40.393 267.3H39.314V260.059L37.923 261.528L37.273 260.865L39.444 258.629H40.393V267.3ZM51.2568 267.3H50.2818V266.364C49.8138 267.001 49.0468 267.456 48.1628 267.456C46.5248 267.456 45.3678 266.208 45.3678 264.167C45.3678 262.165 46.5118 260.865 48.1628 260.865C49.0078 260.865 49.7748 261.281 50.2818 261.97V258.629H51.2568V267.3ZM48.3968 266.585C49.1768 266.585 49.9308 266.143 50.2818 265.597V262.75C49.9308 262.204 49.1768 261.736 48.3968 261.736C47.1358 261.736 46.3818 262.776 46.3818 264.167C46.3818 265.558 47.1358 266.585 48.3968 266.585ZM56.0434 267.456C54.1844 267.456 52.8454 266.117 52.8454 264.154C52.8454 262.334 54.1454 260.865 55.9394 260.865C57.8374 260.865 58.9554 262.347 58.9554 264.232V264.479H53.8724C53.9504 265.662 54.7824 266.65 56.1344 266.65C56.8494 266.65 57.5774 266.364 58.0714 265.857L58.5394 266.494C57.9154 267.118 57.0704 267.456 56.0434 267.456ZM57.9934 263.764C57.9804 262.828 57.3564 261.671 55.9264 261.671C54.5874 261.671 53.9244 262.802 53.8724 263.764H57.9934ZM68.5271 267.3H67.4481V265.103H63.3271V264.206L67.0451 258.629H68.5271V264.154H69.7491V265.103H68.5271V267.3ZM67.4481 264.154V259.63L64.4061 264.154H67.4481Z" fill="#3FBF5B"/>
</g>
<defs>
<filter id="filter0_d_393_11321" x="0" y="223.3" width="421" height="288" filterUnits="userSpaceOnUse" color-interpolation-filters="sRGB">
<feFlood flood-opacity="0" result="BackgroundImageFix"/>
<feColorMatrix in="SourceAlpha" type="matrix" values="0 0 0 0 0 0 0 0 0 0 0 0 0 0 0 0 0 0 127 0" result="hardAlpha"/>
<feOffset dx="4" dy="4"/>
<feGaussianBlur stdDeviation="6"/>
<feColorMatrix type="matrix" values="0 0 0 0 0 0 0 0 0 0 0 0 0 0 0 0 0 0 0.1 0"/>
<feBlend mode="normal" in2="BackgroundImageFix" result="effect1_dropShadow_393_11321"/>
<feBlend mode="normal" in="SourceGraphic" in2="effect1_dropShadow_393_11321" result="shape"/>
</filter>
<filter id="filter1_di_393_11321" x="8.93652" y="295.3" width="395.127" height="354" filterUnits="userSpaceOnUse" color-interpolation-filters="sRGB">
<feFlood flood-opacity="0" result="BackgroundImageFix"/>
<feColorMatrix in="SourceAlpha" type="matrix" values="0 0 0 0 0 0 0 0 0 0 0 0 0 0 0 0 0 0 127 0" result="hardAlpha"/>
<feOffset dy="1"/>
<feColorMatrix type="matrix" values="0 0 0 0 0.792157 0 0 0 0 0.815686 0 0 0 0 0.835294 0 0 0 0.75 0"/>
<feBlend mode="normal" in2="BackgroundImageFix" result="effect1_dropShadow_393_11321"/>
<feBlend mode="normal" in="SourceGraphic" in2="effect1_dropShadow_393_11321" result="shape"/>
<feColorMatrix in="SourceAlpha" type="matrix" values="0 0 0 0 0 0 0 0 0 0 0 0 0 0 0 0 0 0 127 0" result="hardAlpha"/>
<feOffset dy="2"/>
<feComposite in2="hardAlpha" operator="arithmetic" k2="-1" k3="1"/>
<feColorMatrix type="matrix" values="0 0 0 0 0 0 0 0 0 0 0 0 0 0 0 0 0 0 0.07 0"/>
<feBlend mode="normal" in2="shape" result="effect2_innerShadow_393_11321"/>
</filter>
<linearGradient id="paint0_linear_393_11321" x1="296" y1="13" x2="296" y2="1" gradientUnits="userSpaceOnUse">
<stop stop-color="#EEEEEE"/>
<stop offset="1" stop-color="#ECECEC"/>
<stop offset="2" stop-color="#F4F4F4"/>
<stop offset="3" stop-color="white"/>
</linearGradient>
<linearGradient id="paint1_linear_393_11321" x1="382" y1="464.3" x2="382" y2="429.3" gradientUnits="userSpaceOnUse">
<stop stop-opacity="0.15"/>
<stop offset="1" stop-color="white" stop-opacity="0.15"/>
</linearGradient>
<linearGradient id="paint2_linear_393_11321" x1="379" y1="268.3" x2="379" y2="258.3" gradientUnits="userSpaceOnUse">
<stop stop-color="#EEEEEE"/>
<stop offset="1" stop-color="#ECECEC"/>
<stop offset="2" stop-color="#F4F4F4"/>
<stop offset="3" stop-color="white"/>
</linearGradient>
<clipPath id="clip0_393_11321">
<rect width="42" height="24" fill="white" transform="translate(33 251.3)"/>
</clipPath>
</defs>
</svg>
