<svg width="437" height="430" viewBox="0 0 437 430" fill="none" xmlns="http://www.w3.org/2000/svg">
<g filter="url(#filter0_d_392_11209)">
<g filter="url(#filter1_d_392_11209)">
<path fill-rule="evenodd" clip-rule="evenodd" d="M21 17.9206H412C413.104 17.9206 414 18.7806 414 19.8411V403C414 404.06 413.104 404.921 412 404.921H21C19.8955 404.921 18.9998 404.06 18.9998 403V19.8411C18.9998 18.7806 19.8955 17.9206 21 17.9206Z" fill="white"/>
<path d="M412 17.4206H21C19.6387 17.4206 18.4998 18.4855 18.4998 19.8411V403C18.4998 404.356 19.6387 405.421 21 405.421H412C413.361 405.421 414.5 404.356 414.5 403V19.8411C414.5 18.4855 413.361 17.4206 412 17.4206Z" stroke="#CAD4DA"/>
</g>
<mask id="mask0_392_11209" style="mask-type:luminance" maskUnits="userSpaceOnUse" x="18" y="16" width="397" height="390">
<path d="M412 17.4206H21C19.6387 17.4206 18.4998 18.4855 18.4998 19.8411V403C18.4998 404.356 19.6387 405.421 21 405.421H412C413.361 405.421 414.5 404.356 414.5 403V19.8411C414.5 18.4855 413.361 17.4206 412 17.4206Z" fill="white" stroke="white"/>
</mask>
<g mask="url(#mask0_392_11209)">
<g filter="url(#filter2_di_392_11209)">
<path fill-rule="evenodd" clip-rule="evenodd" d="M11.9998 80.9203H420V433.921H11.9998V80.9203Z" fill="#F2F4F5" fill-opacity="0.7"/>
</g>
</g>
<mask id="path-5-outside-1_392_11209" maskUnits="userSpaceOnUse" x="85" y="237.92" width="263" height="14" fill="black">
<rect fill="white" x="85" y="237.92" width="263" height="14"/>
<path fill-rule="evenodd" clip-rule="evenodd" d="M97.917 245.92C97.441 248.758 94.973 250.92 92 250.92C88.6863 250.92 86 248.234 86 244.92C86 241.607 88.6863 238.92 92 238.92C94.6124 238.92 96.8349 240.59 97.6586 242.92H168.341C169.165 240.59 171.388 238.92 174 238.92C176.612 238.92 178.835 240.59 179.659 242.92H250.341C251.165 240.59 253.388 238.92 256 238.92C258.612 238.92 260.835 240.59 261.659 242.92H335.341C336.165 240.59 338.388 238.92 341 238.92C344.314 238.92 347 241.607 347 244.92C347 248.234 344.314 250.92 341 250.92C338.027 250.92 335.559 248.758 335.083 245.92H261.917C261.441 248.758 258.973 250.92 256 250.92C253.027 250.92 250.559 248.758 250.083 245.92H179.917C179.441 248.758 176.973 250.92 174 250.92C171.027 250.92 168.559 248.758 168.083 245.92H97.917Z"/>
</mask>
<path fill-rule="evenodd" clip-rule="evenodd" d="M97.917 245.92C97.441 248.758 94.973 250.92 92 250.92C88.6863 250.92 86 248.234 86 244.92C86 241.607 88.6863 238.92 92 238.92C94.6124 238.92 96.8349 240.59 97.6586 242.92H168.341C169.165 240.59 171.388 238.92 174 238.92C176.612 238.92 178.835 240.59 179.659 242.92H250.341C251.165 240.59 253.388 238.92 256 238.92C258.612 238.92 260.835 240.59 261.659 242.92H335.341C336.165 240.59 338.388 238.92 341 238.92C344.314 238.92 347 241.607 347 244.92C347 248.234 344.314 250.92 341 250.92C338.027 250.92 335.559 248.758 335.083 245.92H261.917C261.441 248.758 258.973 250.92 256 250.92C253.027 250.92 250.559 248.758 250.083 245.92H179.917C179.441 248.758 176.973 250.92 174 250.92C171.027 250.92 168.559 248.758 168.083 245.92H97.917Z" fill="url(#paint0_linear_392_11209)"/>
<path d="M97.917 245.92V244.92H97.0708L96.9308 245.755L97.917 245.92ZM97.6586 242.92L96.7157 243.254L96.9514 243.92H97.6586V242.92ZM168.341 242.92V243.92H169.049L169.284 243.254L168.341 242.92ZM179.659 242.92L178.716 243.254L178.951 243.92H179.659V242.92ZM250.341 242.92V243.92H251.049L251.284 243.254L250.341 242.92ZM261.659 242.92L260.716 243.254L260.951 243.92H261.659V242.92ZM335.341 242.92V243.92H336.049L336.284 243.254L335.341 242.92ZM335.083 245.92L336.069 245.755L335.929 244.92H335.083V245.92ZM261.917 245.92V244.92H261.071L260.931 245.755L261.917 245.92ZM250.083 245.92L251.069 245.755L250.929 244.92H250.083V245.92ZM179.917 245.92V244.92H179.071L178.931 245.755L179.917 245.92ZM168.083 245.92L169.069 245.755L168.929 244.92H168.083V245.92ZM92 251.92C95.4695 251.92 98.3477 249.397 98.9033 246.086L96.9308 245.755C96.5342 248.119 94.4765 249.92 92 249.92V251.92ZM85 244.92C85 248.786 88.134 251.92 92 251.92V249.92C89.2386 249.92 87 247.682 87 244.92H85ZM92 237.92C88.134 237.92 85 241.054 85 244.92H87C87 242.159 89.2386 239.92 92 239.92V237.92ZM98.6014 242.587C97.641 239.87 95.0494 237.92 92 237.92V239.92C94.1755 239.92 96.0289 241.31 96.7157 243.254L98.6014 242.587ZM97.6586 243.92H168.341V241.92H97.6586V243.92ZM174 237.92C170.951 237.92 168.359 239.87 167.399 242.587L169.284 243.254C169.971 241.31 171.825 239.92 174 239.92V237.92ZM180.601 242.587C179.641 239.87 177.049 237.92 174 237.92V239.92C176.175 239.92 178.029 241.31 178.716 243.254L180.601 242.587ZM179.659 243.92H250.341V241.92H179.659V243.92ZM251.284 243.254C251.971 241.31 253.825 239.92 256 239.92V237.92C252.951 237.92 250.359 239.87 249.399 242.587L251.284 243.254ZM256 239.92C258.175 239.92 260.029 241.31 260.716 243.254L262.601 242.587C261.641 239.87 259.049 237.92 256 237.92V239.92ZM261.659 243.92H335.341V241.92H261.659V243.92ZM341 237.92C337.951 237.92 335.359 239.87 334.399 242.587L336.284 243.254C336.971 241.31 338.825 239.92 341 239.92V237.92ZM348 244.92C348 241.054 344.866 237.92 341 237.92V239.92C343.761 239.92 346 242.159 346 244.92H348ZM341 251.92C344.866 251.92 348 248.786 348 244.92H346C346 247.682 343.761 249.92 341 249.92V251.92ZM334.097 246.086C334.652 249.397 337.531 251.92 341 251.92V249.92C338.523 249.92 336.466 248.119 336.069 245.755L334.097 246.086ZM335.083 244.92H261.917V246.92H335.083V244.92ZM260.931 245.755C260.534 248.119 258.477 249.92 256 249.92V251.92C259.469 251.92 262.348 249.397 262.903 246.086L260.931 245.755ZM256 249.92C253.523 249.92 251.466 248.119 251.069 245.755L249.097 246.086C249.652 249.397 252.531 251.92 256 251.92V249.92ZM250.083 244.92H179.917V246.92H250.083V244.92ZM174 251.92C177.469 251.92 180.348 249.397 180.903 246.086L178.931 245.755C178.534 248.119 176.477 249.92 174 249.92V251.92ZM167.097 246.086C167.652 249.397 170.531 251.92 174 251.92V249.92C171.523 249.92 169.466 248.119 169.069 245.755L167.097 246.086ZM168.083 244.92H97.917V246.92H168.083V244.92Z" fill="#DDDEDE" mask="url(#path-5-outside-1_392_11209)"/>
<circle cx="92" cy="244.92" r="4" fill="#3FBF5B"/>
<path d="M76.8465 278.088C75.2225 278.088 74.0325 277.472 73.2625 276.604L73.9485 275.722C74.5645 276.408 75.5725 277.052 76.8885 277.052C78.5545 277.052 79.0865 276.156 79.0865 275.442C79.0865 273.034 73.5565 274.364 73.5565 271.032C73.5565 269.492 74.9285 268.442 76.7625 268.442C78.1905 268.442 79.2965 268.918 80.0805 269.744L79.3805 270.598C78.6805 269.828 77.7005 269.478 76.6785 269.478C75.5585 269.478 74.7605 270.08 74.7605 270.962C74.7605 273.062 80.2905 271.858 80.2905 275.344C80.2905 276.702 79.3665 278.088 76.8465 278.088ZM85.0356 278.088C83.0336 278.088 81.5916 276.646 81.5916 274.532C81.5916 272.572 82.9916 270.99 84.9236 270.99C86.9676 270.99 88.1716 272.586 88.1716 274.616V274.882H82.6976C82.7816 276.156 83.6776 277.22 85.1336 277.22C85.9036 277.22 86.6876 276.912 87.2196 276.366L87.7236 277.052C87.0516 277.724 86.1416 278.088 85.0356 278.088ZM87.1356 274.112C87.1216 273.104 86.4496 271.858 84.9096 271.858C83.4676 271.858 82.7536 273.076 82.6976 274.112H87.1356ZM91.5803 278.088C90.5863 278.088 90.0823 277.514 90.0823 276.506V272.082H88.9623V271.158H90.0823V269.31H91.1323V271.158H92.5043V272.082H91.1323V276.282C91.1323 276.786 91.3563 277.15 91.8183 277.15C92.1123 277.15 92.3923 277.024 92.5323 276.87L92.8403 277.654C92.5743 277.906 92.1963 278.088 91.5803 278.088ZM103.211 277.92H102.161V276.968C101.643 277.556 100.761 278.088 99.7529 278.088C98.3389 278.088 97.5969 277.402 97.5969 275.932V271.158H98.6469V275.61C98.6469 276.8 99.2489 277.15 100.159 277.15C100.985 277.15 101.769 276.674 102.161 276.128V271.158H103.211V277.92ZM108.64 278.088C107.716 278.088 106.904 277.654 106.358 276.898V280.496H105.308V271.158H106.358V272.166C106.848 271.48 107.688 270.99 108.64 270.99C110.418 270.99 111.65 272.334 111.65 274.532C111.65 276.716 110.418 278.088 108.64 278.088ZM108.374 277.15C109.732 277.15 110.544 276.03 110.544 274.532C110.544 273.034 109.732 271.928 108.374 271.928C107.548 271.928 106.722 272.418 106.358 273.006V276.058C106.722 276.646 107.548 277.15 108.374 277.15ZM74.4305 295.92H73.3805V295.15C72.8205 295.766 72.0505 296.088 71.1405 296.088C69.9925 296.088 68.7745 295.318 68.7745 293.848C68.7745 292.336 69.9925 291.622 71.1405 291.622C72.0645 291.622 72.8345 291.916 73.3805 292.546V291.328C73.3805 290.418 72.6525 289.9 71.6725 289.9C70.8605 289.9 70.2025 290.194 69.6005 290.838L69.1105 290.11C69.8385 289.354 70.7065 288.99 71.8125 288.99C73.2405 288.99 74.4305 289.634 74.4305 291.272V295.92ZM71.5185 295.332C72.2605 295.332 72.9745 295.052 73.3805 294.492V293.218C72.9745 292.658 72.2605 292.378 71.5185 292.378C70.5385 292.378 69.8525 292.994 69.8525 293.862C69.8525 294.716 70.5385 295.332 71.5185 295.332ZM79.5174 296.088C77.5014 296.088 76.1434 294.548 76.1434 292.532C76.1434 290.53 77.5014 288.99 79.5174 288.99C80.7494 288.99 81.4774 289.494 81.9954 290.166L81.2954 290.81C80.8474 290.194 80.2734 289.928 79.5734 289.928C78.1314 289.928 77.2354 291.034 77.2354 292.532C77.2354 294.03 78.1314 295.15 79.5734 295.15C80.2734 295.15 80.8474 294.87 81.2954 294.268L81.9954 294.912C81.4774 295.584 80.7494 296.088 79.5174 296.088ZM86.449 296.088C84.433 296.088 83.075 294.548 83.075 292.532C83.075 290.53 84.433 288.99 86.449 288.99C87.681 288.99 88.409 289.494 88.927 290.166L88.227 290.81C87.779 290.194 87.205 289.928 86.505 289.928C85.063 289.928 84.167 291.034 84.167 292.532C84.167 294.03 85.063 295.15 86.505 295.15C87.205 295.15 87.779 294.87 88.227 294.268L88.927 294.912C88.409 295.584 87.681 296.088 86.449 296.088ZM93.3526 296.088C91.2946 296.088 90.0066 294.492 90.0066 292.532C90.0066 290.572 91.2946 288.99 93.3526 288.99C95.4106 288.99 96.6986 290.572 96.6986 292.532C96.6986 294.492 95.4106 296.088 93.3526 296.088ZM93.3526 295.15C94.7946 295.15 95.5926 293.918 95.5926 292.532C95.5926 291.16 94.7946 289.928 93.3526 289.928C91.9106 289.928 91.0986 291.16 91.0986 292.532C91.0986 293.918 91.9106 295.15 93.3526 295.15ZM104.024 295.92H102.974V294.968C102.456 295.556 101.574 296.088 100.566 296.088C99.1524 296.088 98.4104 295.402 98.4104 293.932V289.158H99.4604V293.61C99.4604 294.8 100.062 295.15 100.972 295.15C101.798 295.15 102.582 294.674 102.974 294.128V289.158H104.024V295.92ZM111.735 295.92H110.685V291.496C110.685 290.306 110.083 289.928 109.173 289.928C108.347 289.928 107.563 290.432 107.171 290.978V295.92H106.121V289.158H107.171V290.138C107.647 289.578 108.571 288.99 109.579 288.99C110.993 288.99 111.735 289.704 111.735 291.174V295.92ZM115.54 296.088C114.546 296.088 114.042 295.514 114.042 294.506V290.082H112.922V289.158H114.042V287.31H115.092V289.158H116.464V290.082H115.092V294.282C115.092 294.786 115.316 295.15 115.778 295.15C116.072 295.15 116.352 295.024 116.492 294.87L116.8 295.654C116.534 295.906 116.156 296.088 115.54 296.088Z" fill="#50667C"/>
<path d="M152.278 278.102C149.618 278.102 147.476 276.156 147.476 273.258C147.476 270.36 149.618 268.428 152.278 268.428C153.93 268.428 155.078 269.156 155.904 270.178L154.98 270.752C154.392 269.996 153.398 269.464 152.278 269.464C150.234 269.464 148.68 271.032 148.68 273.258C148.68 275.47 150.234 277.066 152.278 277.066C153.398 277.066 154.322 276.52 154.784 276.058V274.154H151.578V273.118H155.946V276.492C155.078 277.458 153.804 278.102 152.278 278.102ZM160.844 278.088C158.842 278.088 157.4 276.646 157.4 274.532C157.4 272.572 158.8 270.99 160.732 270.99C162.776 270.99 163.98 272.586 163.98 274.616V274.882H158.506C158.59 276.156 159.486 277.22 160.942 277.22C161.712 277.22 162.496 276.912 163.028 276.366L163.532 277.052C162.86 277.724 161.95 278.088 160.844 278.088ZM162.944 274.112C162.93 273.104 162.258 271.858 160.718 271.858C159.276 271.858 158.562 273.076 158.506 274.112H162.944ZM171.295 277.92H170.245V273.496C170.245 272.306 169.643 271.928 168.733 271.928C167.907 271.928 167.123 272.432 166.731 272.978V277.92H165.681V271.158H166.731V272.138C167.207 271.578 168.131 270.99 169.139 270.99C170.553 270.99 171.295 271.704 171.295 273.174V277.92ZM176.444 278.088C174.442 278.088 173 276.646 173 274.532C173 272.572 174.4 270.99 176.332 270.99C178.376 270.99 179.58 272.586 179.58 274.616V274.882H174.106C174.19 276.156 175.086 277.22 176.542 277.22C177.312 277.22 178.096 276.912 178.628 276.366L179.132 277.052C178.46 277.724 177.55 278.088 176.444 278.088ZM178.544 274.112C178.53 273.104 177.858 271.858 176.318 271.858C174.876 271.858 174.162 273.076 174.106 274.112H178.544ZM182.33 277.92H181.28V271.158H182.33V272.25C182.876 271.536 183.66 271.018 184.584 271.018V272.096C184.458 272.068 184.332 272.054 184.164 272.054C183.52 272.054 182.638 272.586 182.33 273.132V277.92ZM191.18 277.92H190.13V277.15C189.57 277.766 188.8 278.088 187.89 278.088C186.742 278.088 185.524 277.318 185.524 275.848C185.524 274.336 186.742 273.622 187.89 273.622C188.814 273.622 189.584 273.916 190.13 274.546V273.328C190.13 272.418 189.402 271.9 188.422 271.9C187.61 271.9 186.952 272.194 186.35 272.838L185.86 272.11C186.588 271.354 187.456 270.99 188.562 270.99C189.99 270.99 191.18 271.634 191.18 273.272V277.92ZM188.268 277.332C189.01 277.332 189.724 277.052 190.13 276.492V275.218C189.724 274.658 189.01 274.378 188.268 274.378C187.288 274.378 186.602 274.994 186.602 275.862C186.602 276.716 187.288 277.332 188.268 277.332ZM194.992 278.088C193.998 278.088 193.494 277.514 193.494 276.506V272.082H192.374V271.158H193.494V269.31H194.544V271.158H195.916V272.082H194.544V276.282C194.544 276.786 194.768 277.15 195.23 277.15C195.524 277.15 195.804 277.024 195.944 276.87L196.252 277.654C195.986 277.906 195.608 278.088 194.992 278.088ZM200.452 278.088C198.45 278.088 197.008 276.646 197.008 274.532C197.008 272.572 198.408 270.99 200.34 270.99C202.384 270.99 203.588 272.586 203.588 274.616V274.882H198.114C198.198 276.156 199.094 277.22 200.55 277.22C201.32 277.22 202.104 276.912 202.636 276.366L203.14 277.052C202.468 277.724 201.558 278.088 200.452 278.088ZM202.552 274.112C202.538 273.104 201.866 271.858 200.326 271.858C198.884 271.858 198.17 273.076 198.114 274.112H202.552ZM155.22 288.192C154.842 288.192 154.52 287.884 154.52 287.492C154.52 287.1 154.842 286.778 155.22 286.778C155.612 286.778 155.934 287.1 155.934 287.492C155.934 287.884 155.612 288.192 155.22 288.192ZM155.752 295.92H154.702V289.158H155.752V295.92ZM163.461 295.92H162.411V291.496C162.411 290.306 161.809 289.928 160.899 289.928C160.073 289.928 159.289 290.432 158.897 290.978V295.92H157.847V289.158H158.897V290.138C159.373 289.578 160.297 288.99 161.305 288.99C162.719 288.99 163.461 289.704 163.461 291.174V295.92ZM168.512 295.92H167.364L164.55 289.158H165.684L167.938 294.702L170.178 289.158H171.326L168.512 295.92ZM175.375 296.088C173.317 296.088 172.029 294.492 172.029 292.532C172.029 290.572 173.317 288.99 175.375 288.99C177.433 288.99 178.721 290.572 178.721 292.532C178.721 294.492 177.433 296.088 175.375 296.088ZM175.375 295.15C176.817 295.15 177.615 293.918 177.615 292.532C177.615 291.16 176.817 289.928 175.375 289.928C173.933 289.928 173.121 291.16 173.121 292.532C173.121 293.918 173.933 295.15 175.375 295.15ZM180.951 288.192C180.573 288.192 180.251 287.884 180.251 287.492C180.251 287.1 180.573 286.778 180.951 286.778C181.343 286.778 181.665 287.1 181.665 287.492C181.665 287.884 181.343 288.192 180.951 288.192ZM181.483 295.92H180.433V289.158H181.483V295.92ZM186.559 296.088C184.543 296.088 183.185 294.548 183.185 292.532C183.185 290.53 184.543 288.99 186.559 288.99C187.791 288.99 188.519 289.494 189.037 290.166L188.337 290.81C187.889 290.194 187.315 289.928 186.615 289.928C185.173 289.928 184.277 291.034 184.277 292.532C184.277 294.03 185.173 295.15 186.615 295.15C187.315 295.15 187.889 294.87 188.337 294.268L189.037 294.912C188.519 295.584 187.791 296.088 186.559 296.088ZM193.561 296.088C191.559 296.088 190.117 294.646 190.117 292.532C190.117 290.572 191.517 288.99 193.449 288.99C195.493 288.99 196.697 290.586 196.697 292.616V292.882H191.223C191.307 294.156 192.203 295.22 193.659 295.22C194.429 295.22 195.213 294.912 195.745 294.366L196.249 295.052C195.577 295.724 194.667 296.088 193.561 296.088ZM195.661 292.112C195.647 291.104 194.975 289.858 193.435 289.858C191.993 289.858 191.279 291.076 191.223 292.112H195.661Z" fill="#CCCCCC"/>
<path d="M245.258 277.92H243.928L243.102 275.848H238.454L237.628 277.92H236.298L240.05 268.582H241.492L245.258 277.92ZM242.752 274.812L240.778 269.786L238.79 274.812H242.752ZM252.387 277.92H251.337V276.912C250.833 277.598 250.007 278.088 249.055 278.088C247.291 278.088 246.045 276.744 246.045 274.546C246.045 272.39 247.277 270.99 249.055 270.99C249.965 270.99 250.791 271.438 251.337 272.18V268.582H252.387V277.92ZM249.307 277.15C250.147 277.15 250.959 276.674 251.337 276.086V273.02C250.959 272.432 250.147 271.928 249.307 271.928C247.949 271.928 247.137 273.048 247.137 274.546C247.137 276.044 247.949 277.15 249.307 277.15ZM263.701 277.92H262.651V273.328C262.651 272.474 262.273 271.928 261.405 271.928C260.705 271.928 259.963 272.432 259.613 272.964V277.92H258.563V273.328C258.563 272.474 258.199 271.928 257.317 271.928C256.631 271.928 255.903 272.432 255.539 272.978V277.92H254.489V271.158H255.539V272.138C255.819 271.704 256.729 270.99 257.723 270.99C258.759 270.99 259.347 271.55 259.543 272.25C259.921 271.634 260.831 270.99 261.811 270.99C263.043 270.99 263.701 271.676 263.701 273.034V277.92ZM266.314 270.192C265.936 270.192 265.614 269.884 265.614 269.492C265.614 269.1 265.936 268.778 266.314 268.778C266.706 268.778 267.028 269.1 267.028 269.492C267.028 269.884 266.706 270.192 266.314 270.192ZM266.846 277.92H265.796V271.158H266.846V277.92ZM274.555 277.92H273.505V273.496C273.505 272.306 272.903 271.928 271.993 271.928C271.167 271.928 270.383 272.432 269.991 272.978V277.92H268.941V271.158H269.991V272.138C270.467 271.578 271.391 270.99 272.399 270.99C273.813 270.99 274.555 271.704 274.555 273.174V277.92ZM277.212 278.06C276.792 278.06 276.442 277.71 276.442 277.29C276.442 276.87 276.792 276.52 277.212 276.52C277.632 276.52 277.982 276.87 277.982 277.29C277.982 277.71 277.632 278.06 277.212 278.06Z" fill="#CCCCCC"/>
<path d="M316.815 277.92H315.653V270.234L312.475 277.92H311.999L308.835 270.234V277.92H307.673V268.582H309.339L312.237 275.61L315.149 268.582H316.815V277.92ZM324.229 277.92H323.179V277.15C322.619 277.766 321.849 278.088 320.939 278.088C319.791 278.088 318.573 277.318 318.573 275.848C318.573 274.336 319.791 273.622 320.939 273.622C321.863 273.622 322.633 273.916 323.179 274.546V273.328C323.179 272.418 322.451 271.9 321.471 271.9C320.659 271.9 320.001 272.194 319.399 272.838L318.909 272.11C319.637 271.354 320.505 270.99 321.611 270.99C323.039 270.99 324.229 271.634 324.229 273.272V277.92ZM321.317 277.332C322.059 277.332 322.773 277.052 323.179 276.492V275.218C322.773 274.658 322.059 274.378 321.317 274.378C320.337 274.378 319.651 274.994 319.651 275.862C319.651 276.716 320.337 277.332 321.317 277.332ZM327.384 277.92H326.334V271.158H327.384V272.25C327.93 271.536 328.714 271.018 329.638 271.018V272.096C329.512 272.068 329.386 272.054 329.218 272.054C328.574 272.054 327.692 272.586 327.384 273.132V277.92ZM336.905 277.92H335.561L333.125 274.882L332.005 275.988V277.92H330.955V268.582H332.005V274.756L335.561 271.158H336.891L333.895 274.224L336.905 277.92ZM341.158 278.088C339.156 278.088 337.714 276.646 337.714 274.532C337.714 272.572 339.114 270.99 341.046 270.99C343.09 270.99 344.294 272.586 344.294 274.616V274.882H338.82C338.904 276.156 339.8 277.22 341.256 277.22C342.026 277.22 342.81 276.912 343.342 276.366L343.846 277.052C343.174 277.724 342.264 278.088 341.158 278.088ZM343.258 274.112C343.244 273.104 342.572 271.858 341.032 271.858C339.59 271.858 338.876 273.076 338.82 274.112H343.258ZM347.702 278.088C346.708 278.088 346.204 277.514 346.204 276.506V272.082H345.084V271.158H346.204V269.31H347.254V271.158H348.626V272.082H347.254V276.282C347.254 276.786 347.478 277.15 347.94 277.15C348.234 277.15 348.514 277.024 348.654 276.87L348.962 277.654C348.696 277.906 348.318 278.088 347.702 278.088ZM353.442 278.088C352.518 278.088 351.706 277.654 351.16 276.898V280.496H350.11V271.158H351.16V272.166C351.65 271.48 352.49 270.99 353.442 270.99C355.22 270.99 356.452 272.334 356.452 274.532C356.452 276.716 355.22 278.088 353.442 278.088ZM353.176 277.15C354.534 277.15 355.346 276.03 355.346 274.532C355.346 273.034 354.534 271.928 353.176 271.928C352.35 271.928 351.524 272.418 351.16 273.006V276.058C351.524 276.646 352.35 277.15 353.176 277.15ZM359.171 277.92H358.121V268.582H359.171V277.92ZM366.544 277.92H365.494V277.15C364.934 277.766 364.164 278.088 363.254 278.088C362.106 278.088 360.888 277.318 360.888 275.848C360.888 274.336 362.106 273.622 363.254 273.622C364.178 273.622 364.948 273.916 365.494 274.546V273.328C365.494 272.418 364.766 271.9 363.786 271.9C362.974 271.9 362.316 272.194 361.714 272.838L361.224 272.11C361.952 271.354 362.82 270.99 363.926 270.99C365.354 270.99 366.544 271.634 366.544 273.272V277.92ZM363.632 277.332C364.374 277.332 365.088 277.052 365.494 276.492V275.218C365.088 274.658 364.374 274.378 363.632 274.378C362.652 274.378 361.966 274.994 361.966 275.862C361.966 276.716 362.652 277.332 363.632 277.332ZM371.631 278.088C369.615 278.088 368.257 276.548 368.257 274.532C368.257 272.53 369.615 270.99 371.631 270.99C372.863 270.99 373.591 271.494 374.109 272.166L373.409 272.81C372.961 272.194 372.387 271.928 371.687 271.928C370.245 271.928 369.349 273.034 369.349 274.532C369.349 276.03 370.245 277.15 371.687 277.15C372.387 277.15 372.961 276.87 373.409 276.268L374.109 276.912C373.591 277.584 372.863 278.088 371.631 278.088ZM378.632 278.088C376.63 278.088 375.188 276.646 375.188 274.532C375.188 272.572 376.588 270.99 378.52 270.99C380.564 270.99 381.768 272.586 381.768 274.616V274.882H376.294C376.378 276.156 377.274 277.22 378.73 277.22C379.5 277.22 380.284 276.912 380.816 276.366L381.32 277.052C380.648 277.724 379.738 278.088 378.632 278.088ZM380.732 274.112C380.718 273.104 380.046 271.858 378.506 271.858C377.064 271.858 376.35 273.076 376.294 274.112H380.732Z" fill="#CCCCCC"/>
<path fill-rule="evenodd" clip-rule="evenodd" d="M89.0061 261.92L92.5 257.927L95.994 261.92H89.0061Z" fill="#3FBF5B"/>
<rect x="43" y="339.921" width="351" height="35" rx="3" fill="#3FBF5B"/>
<rect x="43" y="339.921" width="351" height="35" rx="3" fill="url(#paint1_linear_392_11209)" style="mix-blend-mode:soft-light"/>
<path d="M175.644 362.089C174.02 362.089 172.83 361.473 172.06 360.605L172.746 359.723C173.362 360.409 174.37 361.053 175.686 361.053C177.352 361.053 177.884 360.157 177.884 359.443C177.884 357.035 172.354 358.365 172.354 355.033C172.354 353.493 173.726 352.443 175.56 352.443C176.988 352.443 178.094 352.919 178.878 353.745L178.178 354.599C177.478 353.829 176.498 353.479 175.476 353.479C174.356 353.479 173.558 354.081 173.558 354.963C173.558 357.063 179.088 355.859 179.088 359.345C179.088 360.703 178.164 362.089 175.644 362.089ZM183.833 362.089C181.831 362.089 180.389 360.647 180.389 358.533C180.389 356.573 181.789 354.991 183.721 354.991C185.765 354.991 186.969 356.587 186.969 358.617V358.883H181.495C181.579 360.157 182.475 361.221 183.931 361.221C184.701 361.221 185.485 360.913 186.017 360.367L186.521 361.053C185.849 361.725 184.939 362.089 183.833 362.089ZM185.933 358.113C185.919 357.105 185.247 355.859 183.707 355.859C182.265 355.859 181.551 357.077 181.495 358.113H185.933ZM190.378 362.089C189.384 362.089 188.88 361.515 188.88 360.507V356.083H187.76V355.159H188.88V353.311H189.93V355.159H191.302V356.083H189.93V360.283C189.93 360.787 190.154 361.151 190.616 361.151C190.91 361.151 191.19 361.025 191.33 360.871L191.638 361.655C191.372 361.907 190.994 362.089 190.378 362.089ZM202.009 361.921H200.959V360.969C200.441 361.557 199.559 362.089 198.551 362.089C197.137 362.089 196.395 361.403 196.395 359.933V355.159H197.445V359.611C197.445 360.801 198.047 361.151 198.957 361.151C199.783 361.151 200.567 360.675 200.959 360.129V355.159H202.009V361.921ZM207.438 362.089C206.514 362.089 205.702 361.655 205.156 360.899V364.497H204.106V355.159H205.156V356.167C205.646 355.481 206.486 354.991 207.438 354.991C209.216 354.991 210.448 356.335 210.448 358.533C210.448 360.717 209.216 362.089 207.438 362.089ZM207.172 361.151C208.53 361.151 209.342 360.031 209.342 358.533C209.342 357.035 208.53 355.929 207.172 355.929C206.346 355.929 205.52 356.419 205.156 357.007V360.059C205.52 360.647 206.346 361.151 207.172 361.151ZM221.005 361.921H219.955V361.151C219.395 361.767 218.625 362.089 217.715 362.089C216.567 362.089 215.349 361.319 215.349 359.849C215.349 358.337 216.567 357.623 217.715 357.623C218.639 357.623 219.409 357.917 219.955 358.547V357.329C219.955 356.419 219.227 355.901 218.247 355.901C217.435 355.901 216.777 356.195 216.175 356.839L215.685 356.111C216.413 355.355 217.281 354.991 218.387 354.991C219.815 354.991 221.005 355.635 221.005 357.273V361.921ZM218.093 361.333C218.835 361.333 219.549 361.053 219.955 360.493V359.219C219.549 358.659 218.835 358.379 218.093 358.379C217.113 358.379 216.427 358.995 216.427 359.863C216.427 360.717 217.113 361.333 218.093 361.333ZM226.092 362.089C224.076 362.089 222.718 360.549 222.718 358.533C222.718 356.531 224.076 354.991 226.092 354.991C227.324 354.991 228.052 355.495 228.57 356.167L227.87 356.811C227.422 356.195 226.848 355.929 226.148 355.929C224.706 355.929 223.81 357.035 223.81 358.533C223.81 360.031 224.706 361.151 226.148 361.151C226.848 361.151 227.422 360.871 227.87 360.269L228.57 360.913C228.052 361.585 227.324 362.089 226.092 362.089ZM233.023 362.089C231.007 362.089 229.649 360.549 229.649 358.533C229.649 356.531 231.007 354.991 233.023 354.991C234.255 354.991 234.983 355.495 235.501 356.167L234.801 356.811C234.353 356.195 233.779 355.929 233.079 355.929C231.637 355.929 230.741 357.035 230.741 358.533C230.741 360.031 231.637 361.151 233.079 361.151C233.779 361.151 234.353 360.871 234.801 360.269L235.501 360.913C234.983 361.585 234.255 362.089 233.023 362.089ZM239.927 362.089C237.869 362.089 236.581 360.493 236.581 358.533C236.581 356.573 237.869 354.991 239.927 354.991C241.985 354.991 243.273 356.573 243.273 358.533C243.273 360.493 241.985 362.089 239.927 362.089ZM239.927 361.151C241.369 361.151 242.167 359.919 242.167 358.533C242.167 357.161 241.369 355.929 239.927 355.929C238.485 355.929 237.673 357.161 237.673 358.533C237.673 359.919 238.485 361.151 239.927 361.151ZM250.599 361.921H249.549V360.969C249.031 361.557 248.149 362.089 247.141 362.089C245.727 362.089 244.985 361.403 244.985 359.933V355.159H246.035V359.611C246.035 360.801 246.637 361.151 247.547 361.151C248.373 361.151 249.157 360.675 249.549 360.129V355.159H250.599V361.921ZM258.31 361.921H257.26V357.497C257.26 356.307 256.658 355.929 255.748 355.929C254.922 355.929 254.138 356.433 253.746 356.979V361.921H252.696V355.159H253.746V356.139C254.222 355.579 255.146 354.991 256.154 354.991C257.568 354.991 258.31 355.705 258.31 357.175V361.921ZM262.114 362.089C261.12 362.089 260.616 361.515 260.616 360.507V356.083H259.496V355.159H260.616V353.311H261.666V355.159H263.038V356.083H261.666V360.283C261.666 360.787 261.89 361.151 262.352 361.151C262.646 361.151 262.926 361.025 263.066 360.871L263.374 361.655C263.108 361.907 262.73 362.089 262.114 362.089Z" fill="white"/>
<path d="M46.238 117.92H45.159V110.211H42.416V109.249H48.994V110.211H46.238V117.92ZM51.634 118.076C49.723 118.076 48.527 116.594 48.527 114.774C48.527 112.954 49.723 111.485 51.634 111.485C53.545 111.485 54.741 112.954 54.741 114.774C54.741 116.594 53.545 118.076 51.634 118.076ZM51.634 117.205C52.973 117.205 53.714 116.061 53.714 114.774C53.714 113.5 52.973 112.356 51.634 112.356C50.295 112.356 49.541 113.5 49.541 114.774C49.541 116.061 50.295 117.205 51.634 117.205ZM64.895 117.92H63.92V117.036C63.439 117.582 62.62 118.076 61.684 118.076C60.371 118.076 59.682 117.439 59.682 116.074V111.641H60.657V115.775C60.657 116.88 61.216 117.205 62.061 117.205C62.828 117.205 63.556 116.763 63.92 116.256V111.641H64.895V117.92ZM68.8312 118.076C67.8042 118.076 66.9332 117.764 66.2962 117.088L66.8032 116.386C67.2192 116.867 68.0122 117.283 68.8702 117.283C69.8322 117.283 70.3522 116.828 70.3522 116.204C70.3522 114.683 66.4652 115.619 66.4652 113.292C66.4652 112.317 67.3102 111.485 68.8052 111.485C69.8712 111.485 70.6252 111.888 71.1322 112.395L70.6772 113.071C70.3002 112.616 69.6112 112.278 68.8052 112.278C67.9472 112.278 67.4142 112.707 67.4142 113.266C67.4142 114.644 71.3012 113.734 71.3012 116.178C71.3012 117.231 70.4562 118.076 68.8312 118.076ZM75.7192 118.076C73.8602 118.076 72.5212 116.737 72.5212 114.774C72.5212 112.954 73.8212 111.485 75.6152 111.485C77.5132 111.485 78.6312 112.967 78.6312 114.852V115.099H73.5482C73.6262 116.282 74.4582 117.27 75.8102 117.27C76.5252 117.27 77.2532 116.984 77.7472 116.477L78.2152 117.114C77.5912 117.738 76.7462 118.076 75.7192 118.076ZM77.6692 114.384C77.6562 113.448 77.0322 112.291 75.6022 112.291C74.2632 112.291 73.6002 113.422 73.5482 114.384H77.6692ZM87.7089 118.076C85.2129 118.076 83.2499 116.256 83.2499 113.591C83.2499 110.926 85.2129 109.106 87.7089 109.106C89.2429 109.106 90.3089 109.847 90.9979 110.822L90.0879 111.329C89.5939 110.601 88.6969 110.068 87.7089 110.068C85.8109 110.068 84.3679 111.524 84.3679 113.591C84.3679 115.645 85.8109 117.114 87.7089 117.114C88.6969 117.114 89.5939 116.594 90.0879 115.853L91.0109 116.36C90.2829 117.348 89.2429 118.076 87.7089 118.076ZM95.0901 118.076C93.1791 118.076 91.9831 116.594 91.9831 114.774C91.9831 112.954 93.1791 111.485 95.0901 111.485C97.0011 111.485 98.1971 112.954 98.1971 114.774C98.1971 116.594 97.0011 118.076 95.0901 118.076ZM95.0901 117.205C96.4291 117.205 97.1701 116.061 97.1701 114.774C97.1701 113.5 96.4291 112.356 95.0901 112.356C93.7511 112.356 92.9971 113.5 92.9971 114.774C92.9971 116.061 93.7511 117.205 95.0901 117.205ZM100.762 117.92H99.7865V111.641H100.762V112.655C101.269 111.992 101.997 111.511 102.855 111.511V112.512C102.738 112.486 102.621 112.473 102.465 112.473C101.867 112.473 101.048 112.967 100.762 113.474V117.92ZM107.172 118.076C106.314 118.076 105.56 117.673 105.053 116.971V120.312H104.078V111.641H105.053V112.577C105.508 111.94 106.288 111.485 107.172 111.485C108.823 111.485 109.967 112.733 109.967 114.774C109.967 116.802 108.823 118.076 107.172 118.076ZM106.925 117.205C108.186 117.205 108.94 116.165 108.94 114.774C108.94 113.383 108.186 112.356 106.925 112.356C106.158 112.356 105.391 112.811 105.053 113.357V116.191C105.391 116.737 106.158 117.205 106.925 117.205ZM112.765 117.92H111.79V112.499H110.75V111.641H111.79V111.16C111.79 109.873 112.492 109.119 113.61 109.119C114.104 109.119 114.546 109.236 114.936 109.6L114.533 110.237C114.325 110.055 114.078 109.925 113.753 109.925C113.116 109.925 112.765 110.367 112.765 111.16V111.641H114.039V112.499H112.765V117.92ZM117.942 118.076C116.031 118.076 114.835 116.594 114.835 114.774C114.835 112.954 116.031 111.485 117.942 111.485C119.853 111.485 121.049 112.954 121.049 114.774C121.049 116.594 119.853 118.076 117.942 118.076ZM117.942 117.205C119.281 117.205 120.022 116.061 120.022 114.774C120.022 113.5 119.281 112.356 117.942 112.356C116.603 112.356 115.849 113.5 115.849 114.774C115.849 116.061 116.603 117.205 117.942 117.205ZM123.613 117.92H122.638V109.249H123.613V117.92ZM131.083 117.92H130.108V116.984C129.64 117.621 128.873 118.076 127.989 118.076C126.351 118.076 125.194 116.828 125.194 114.787C125.194 112.785 126.338 111.485 127.989 111.485C128.834 111.485 129.601 111.901 130.108 112.59V109.249H131.083V117.92ZM128.223 117.205C129.003 117.205 129.757 116.763 130.108 116.217V113.37C129.757 112.824 129.003 112.356 128.223 112.356C126.962 112.356 126.208 113.396 126.208 114.787C126.208 116.178 126.962 117.205 128.223 117.205ZM135.87 118.076C134.011 118.076 132.672 116.737 132.672 114.774C132.672 112.954 133.972 111.485 135.766 111.485C137.664 111.485 138.782 112.967 138.782 114.852V115.099H133.699C133.777 116.282 134.609 117.27 135.961 117.27C136.676 117.27 137.404 116.984 137.898 116.477L138.366 117.114C137.742 117.738 136.897 118.076 135.87 118.076ZM137.82 114.384C137.807 113.448 137.183 112.291 135.753 112.291C134.414 112.291 133.751 113.422 133.699 114.384H137.82ZM141.336 117.92H140.361V111.641H141.336V112.655C141.843 111.992 142.571 111.511 143.429 111.511V112.512C143.312 112.486 143.195 112.473 143.039 112.473C142.441 112.473 141.622 112.967 141.336 113.474V117.92ZM144.886 117.608C144.886 118.401 144.418 119.142 143.82 119.571L143.339 119.168C143.755 118.895 144.132 118.388 144.184 117.959C144.158 117.972 144.067 117.985 144.002 117.985C143.638 117.985 143.378 117.712 143.378 117.322C143.378 116.945 143.677 116.62 144.067 116.62C144.496 116.62 144.886 116.984 144.886 117.608ZM149.569 120.377L149.725 119.493C149.868 119.558 150.102 119.597 150.258 119.597C150.687 119.597 150.973 119.454 151.194 118.934L151.61 117.985L148.984 111.641H150.037L152.13 116.789L154.21 111.641H155.276L152.13 119.194C151.753 120.104 151.116 120.455 150.284 120.468C150.076 120.468 149.751 120.429 149.569 120.377ZM159.036 118.076C157.125 118.076 155.929 116.594 155.929 114.774C155.929 112.954 157.125 111.485 159.036 111.485C160.947 111.485 162.143 112.954 162.143 114.774C162.143 116.594 160.947 118.076 159.036 118.076ZM159.036 117.205C160.375 117.205 161.116 116.061 161.116 114.774C161.116 113.5 160.375 112.356 159.036 112.356C157.697 112.356 156.943 113.5 156.943 114.774C156.943 116.061 157.697 117.205 159.036 117.205ZM168.946 117.92H167.971V117.036C167.49 117.582 166.671 118.076 165.735 118.076C164.422 118.076 163.733 117.439 163.733 116.074V111.641H164.708V115.775C164.708 116.88 165.267 117.205 166.112 117.205C166.879 117.205 167.607 116.763 167.971 116.256V111.641H168.946V117.92ZM179.458 117.92H178.483V113.812C178.483 112.707 177.924 112.356 177.079 112.356C176.312 112.356 175.584 112.824 175.22 113.331V117.92H174.245V111.641H175.22V112.551C175.662 112.031 176.52 111.485 177.456 111.485C178.769 111.485 179.458 112.148 179.458 113.513V117.92ZM184.239 118.076C182.38 118.076 181.041 116.737 181.041 114.774C181.041 112.954 182.341 111.485 184.135 111.485C186.033 111.485 187.151 112.967 187.151 114.852V115.099H182.068C182.146 116.282 182.978 117.27 184.33 117.27C185.045 117.27 185.773 116.984 186.267 116.477L186.735 117.114C186.111 117.738 185.266 118.076 184.239 118.076ZM186.189 114.384C186.176 113.448 185.552 112.291 184.122 112.291C182.783 112.291 182.12 113.422 182.068 114.384H186.189ZM191.564 118.076C189.705 118.076 188.366 116.737 188.366 114.774C188.366 112.954 189.666 111.485 191.46 111.485C193.358 111.485 194.476 112.967 194.476 114.852V115.099H189.393C189.471 116.282 190.303 117.27 191.655 117.27C192.37 117.27 193.098 116.984 193.592 116.477L194.06 117.114C193.436 117.738 192.591 118.076 191.564 118.076ZM193.514 114.384C193.501 113.448 192.877 112.291 191.447 112.291C190.108 112.291 189.445 113.422 189.393 114.384H193.514ZM201.58 117.92H200.605V116.984C200.137 117.621 199.37 118.076 198.486 118.076C196.848 118.076 195.691 116.828 195.691 114.787C195.691 112.785 196.835 111.485 198.486 111.485C199.331 111.485 200.098 111.901 200.605 112.59V109.249H201.58V117.92ZM198.72 117.205C199.5 117.205 200.254 116.763 200.605 116.217V113.37C200.254 112.824 199.5 112.356 198.72 112.356C197.459 112.356 196.705 113.396 196.705 114.787C196.705 116.178 197.459 117.205 198.72 117.205ZM208.47 118.076C207.547 118.076 207.079 117.543 207.079 116.607V112.499H206.039V111.641H207.079V109.925H208.054V111.641H209.328V112.499H208.054V116.399C208.054 116.867 208.262 117.205 208.691 117.205C208.964 117.205 209.224 117.088 209.354 116.945L209.64 117.673C209.393 117.907 209.042 118.076 208.47 118.076ZM213.448 118.076C211.537 118.076 210.341 116.594 210.341 114.774C210.341 112.954 211.537 111.485 213.448 111.485C215.359 111.485 216.555 112.954 216.555 114.774C216.555 116.594 215.359 118.076 213.448 118.076ZM213.448 117.205C214.787 117.205 215.528 116.061 215.528 114.774C215.528 113.5 214.787 112.356 213.448 112.356C212.109 112.356 211.355 113.5 211.355 114.774C211.355 116.061 212.109 117.205 213.448 117.205ZM224.265 118.076C222.393 118.076 221.132 116.646 221.132 114.774C221.132 112.915 222.393 111.485 224.265 111.485C225.409 111.485 226.085 111.953 226.566 112.577L225.916 113.175C225.5 112.603 224.967 112.356 224.317 112.356C222.978 112.356 222.146 113.383 222.146 114.774C222.146 116.165 222.978 117.205 224.317 117.205C224.967 117.205 225.5 116.945 225.916 116.386L226.566 116.984C226.085 117.608 225.409 118.076 224.265 118.076ZM230.676 118.076C228.765 118.076 227.569 116.594 227.569 114.774C227.569 112.954 228.765 111.485 230.676 111.485C232.587 111.485 233.783 112.954 233.783 114.774C233.783 116.594 232.587 118.076 230.676 118.076ZM230.676 117.205C232.015 117.205 232.756 116.061 232.756 114.774C232.756 113.5 232.015 112.356 230.676 112.356C229.337 112.356 228.583 113.5 228.583 114.774C228.583 116.061 229.337 117.205 230.676 117.205ZM240.585 117.92H239.61V113.812C239.61 112.707 239.051 112.356 238.206 112.356C237.439 112.356 236.711 112.824 236.347 113.331V117.92H235.372V111.641H236.347V112.551C236.789 112.031 237.647 111.485 238.583 111.485C239.896 111.485 240.585 112.148 240.585 113.513V117.92ZM243.781 117.92H242.806V112.499H241.766V111.641H242.806V111.16C242.806 109.86 243.534 109.119 244.626 109.119C244.99 109.119 245.328 109.184 245.575 109.34L245.328 110.081C245.185 109.99 245.016 109.925 244.769 109.925C244.132 109.925 243.781 110.367 243.781 111.16V111.641H245.055V112.499H243.781V117.92ZM246.693 110.744C246.342 110.744 246.043 110.458 246.043 110.094C246.043 109.73 246.342 109.431 246.693 109.431C247.057 109.431 247.356 109.73 247.356 110.094C247.356 110.458 247.057 110.744 246.693 110.744ZM247.187 117.92H246.212V111.641H247.187V117.92ZM251.669 120.468C250.603 120.468 249.875 120.26 249.134 119.532L249.628 118.804C250.148 119.428 250.772 119.662 251.669 119.662C252.709 119.662 253.684 119.155 253.684 117.777V116.88C253.229 117.517 252.462 117.998 251.578 117.998C249.94 117.998 248.783 116.776 248.783 114.748C248.783 112.733 249.927 111.485 251.578 111.485C252.423 111.485 253.177 111.901 253.684 112.59V111.641H254.659V117.738C254.659 119.818 253.203 120.468 251.669 120.468ZM251.812 117.14C252.592 117.14 253.346 116.659 253.684 116.113V113.37C253.346 112.824 252.592 112.356 251.812 112.356C250.551 112.356 249.797 113.357 249.797 114.748C249.797 116.126 250.551 117.14 251.812 117.14ZM261.825 117.92H260.85V117.036C260.369 117.582 259.55 118.076 258.614 118.076C257.301 118.076 256.612 117.439 256.612 116.074V111.641H257.587V115.775C257.587 116.88 258.146 117.205 258.991 117.205C259.758 117.205 260.486 116.763 260.85 116.256V111.641H261.825V117.92ZM264.747 117.92H263.772V111.641H264.747V112.655C265.254 111.992 265.982 111.511 266.84 111.511V112.512C266.723 112.486 266.606 112.473 266.45 112.473C265.852 112.473 265.033 112.967 264.747 113.474V117.92ZM270.897 118.076C269.038 118.076 267.699 116.737 267.699 114.774C267.699 112.954 268.999 111.485 270.793 111.485C272.691 111.485 273.809 112.967 273.809 114.852V115.099H268.726C268.804 116.282 269.636 117.27 270.988 117.27C271.703 117.27 272.431 116.984 272.925 116.477L273.393 117.114C272.769 117.738 271.924 118.076 270.897 118.076ZM272.847 114.384C272.834 113.448 272.21 112.291 270.78 112.291C269.441 112.291 268.778 113.422 268.726 114.384H272.847ZM278.389 120.377L278.545 119.493C278.688 119.558 278.922 119.597 279.078 119.597C279.507 119.597 279.793 119.454 280.014 118.934L280.43 117.985L277.804 111.641H278.857L280.95 116.789L283.03 111.641H284.096L280.95 119.194C280.573 120.104 279.936 120.455 279.104 120.468C278.896 120.468 278.571 120.429 278.389 120.377ZM287.856 118.076C285.945 118.076 284.749 116.594 284.749 114.774C284.749 112.954 285.945 111.485 287.856 111.485C289.767 111.485 290.963 112.954 290.963 114.774C290.963 116.594 289.767 118.076 287.856 118.076ZM287.856 117.205C289.195 117.205 289.936 116.061 289.936 114.774C289.936 113.5 289.195 112.356 287.856 112.356C286.517 112.356 285.763 113.5 285.763 114.774C285.763 116.061 286.517 117.205 287.856 117.205ZM297.765 117.92H296.79V117.036C296.309 117.582 295.49 118.076 294.554 118.076C293.241 118.076 292.552 117.439 292.552 116.074V111.641H293.527V115.775C293.527 116.88 294.086 117.205 294.931 117.205C295.698 117.205 296.426 116.763 296.79 116.256V111.641H297.765V117.92ZM300.687 117.92H299.712V111.641H300.687V112.655C301.194 111.992 301.922 111.511 302.78 111.511V112.512C302.663 112.486 302.546 112.473 302.39 112.473C301.792 112.473 300.973 112.967 300.687 113.474V117.92ZM312.568 117.92H311.593V117.036C311.112 117.582 310.293 118.076 309.357 118.076C308.044 118.076 307.355 117.439 307.355 116.074V111.641H308.33V115.775C308.33 116.88 308.889 117.205 309.734 117.205C310.501 117.205 311.229 116.763 311.593 116.256V111.641H312.568V117.92ZM316.504 118.076C315.477 118.076 314.606 117.764 313.969 117.088L314.476 116.386C314.892 116.867 315.685 117.283 316.543 117.283C317.505 117.283 318.025 116.828 318.025 116.204C318.025 114.683 314.138 115.619 314.138 113.292C314.138 112.317 314.983 111.485 316.478 111.485C317.544 111.485 318.298 111.888 318.805 112.395L318.35 113.071C317.973 112.616 317.284 112.278 316.478 112.278C315.62 112.278 315.087 112.707 315.087 113.266C315.087 114.644 318.974 113.734 318.974 116.178C318.974 117.231 318.129 118.076 316.504 118.076ZM323.392 118.076C321.533 118.076 320.194 116.737 320.194 114.774C320.194 112.954 321.494 111.485 323.288 111.485C325.186 111.485 326.304 112.967 326.304 114.852V115.099H321.221C321.299 116.282 322.131 117.27 323.483 117.27C324.198 117.27 324.926 116.984 325.42 116.477L325.888 117.114C325.264 117.738 324.419 118.076 323.392 118.076ZM325.342 114.384C325.329 113.448 324.705 112.291 323.275 112.291C321.936 112.291 321.273 113.422 321.221 114.384H325.342ZM328.858 117.92H327.883V111.641H328.858V112.655C329.365 111.992 330.093 111.511 330.951 111.511V112.512C330.834 112.486 330.717 112.473 330.561 112.473C329.963 112.473 329.144 112.967 328.858 113.474V117.92ZM337.387 117.92H336.412V113.812C336.412 112.707 335.853 112.356 335.008 112.356C334.241 112.356 333.513 112.824 333.149 113.331V117.92H332.174V111.641H333.149V112.551C333.591 112.031 334.449 111.485 335.385 111.485C336.698 111.485 337.387 112.148 337.387 113.513V117.92ZM344.235 117.92H343.26V117.205C342.74 117.777 342.025 118.076 341.18 118.076C340.114 118.076 338.983 117.361 338.983 115.996C338.983 114.592 340.114 113.929 341.18 113.929C342.038 113.929 342.753 114.202 343.26 114.787V113.656C343.26 112.811 342.584 112.33 341.674 112.33C340.92 112.33 340.309 112.603 339.75 113.201L339.295 112.525C339.971 111.823 340.777 111.485 341.804 111.485C343.13 111.485 344.235 112.083 344.235 113.604V117.92ZM341.531 117.374C342.22 117.374 342.883 117.114 343.26 116.594V115.411C342.883 114.891 342.22 114.631 341.531 114.631C340.621 114.631 339.984 115.203 339.984 116.009C339.984 116.802 340.621 117.374 341.531 117.374ZM354.744 117.92H353.769V113.656C353.769 112.863 353.418 112.356 352.612 112.356C351.962 112.356 351.273 112.824 350.948 113.318V117.92H349.973V113.656C349.973 112.863 349.635 112.356 348.816 112.356C348.179 112.356 347.503 112.824 347.165 113.331V117.92H346.19V111.641H347.165V112.551C347.425 112.148 348.27 111.485 349.193 111.485C350.155 111.485 350.701 112.005 350.883 112.655C351.234 112.083 352.079 111.485 352.989 111.485C354.133 111.485 354.744 112.122 354.744 113.383V117.92ZM359.523 118.076C357.664 118.076 356.325 116.737 356.325 114.774C356.325 112.954 357.625 111.485 359.419 111.485C361.317 111.485 362.435 112.967 362.435 114.852V115.099H357.352C357.43 116.282 358.262 117.27 359.614 117.27C360.329 117.27 361.057 116.984 361.551 116.477L362.019 117.114C361.395 117.738 360.55 118.076 359.523 118.076ZM361.473 114.384C361.46 113.448 360.836 112.291 359.406 112.291C358.067 112.291 357.404 113.422 357.352 114.384H361.473ZM372.267 117.92H371.292V117.205C370.772 117.777 370.057 118.076 369.212 118.076C368.146 118.076 367.015 117.361 367.015 115.996C367.015 114.592 368.146 113.929 369.212 113.929C370.07 113.929 370.785 114.202 371.292 114.787V113.656C371.292 112.811 370.616 112.33 369.706 112.33C368.952 112.33 368.341 112.603 367.782 113.201L367.327 112.525C368.003 111.823 368.809 111.485 369.836 111.485C371.162 111.485 372.267 112.083 372.267 113.604V117.92ZM369.563 117.374C370.252 117.374 370.915 117.114 371.292 116.594V115.411C370.915 114.891 370.252 114.631 369.563 114.631C368.653 114.631 368.016 115.203 368.016 116.009C368.016 116.802 368.653 117.374 369.563 117.374ZM379.434 117.92H378.459V113.812C378.459 112.707 377.9 112.356 377.055 112.356C376.288 112.356 375.56 112.824 375.196 113.331V117.92H374.221V111.641H375.196V112.551C375.638 112.031 376.496 111.485 377.432 111.485C378.745 111.485 379.434 112.148 379.434 113.513V117.92ZM386.906 117.92H385.931V116.984C385.463 117.621 384.696 118.076 383.812 118.076C382.174 118.076 381.017 116.828 381.017 114.787C381.017 112.785 382.161 111.485 383.812 111.485C384.657 111.485 385.424 111.901 385.931 112.59V109.249H386.906V117.92ZM384.046 117.205C384.826 117.205 385.58 116.763 385.931 116.217V113.37C385.58 112.824 384.826 112.356 384.046 112.356C382.785 112.356 382.031 113.396 382.031 114.787C382.031 116.178 382.785 117.205 384.046 117.205ZM45.718 142.076C43.807 142.076 42.611 140.594 42.611 138.774C42.611 136.954 43.807 135.485 45.718 135.485C47.629 135.485 48.825 136.954 48.825 138.774C48.825 140.594 47.629 142.076 45.718 142.076ZM45.718 141.205C47.057 141.205 47.798 140.061 47.798 138.774C47.798 137.5 47.057 136.356 45.718 136.356C44.379 136.356 43.625 137.5 43.625 138.774C43.625 140.061 44.379 141.205 45.718 141.205ZM51.3895 141.92H50.4145V135.641H51.3895V136.655C51.8965 135.992 52.6245 135.511 53.4825 135.511V136.512C53.3655 136.486 53.2485 136.473 53.0925 136.473C52.4945 136.473 51.6755 136.967 51.3895 137.474V141.92ZM57.2275 144.468C56.1615 144.468 55.4335 144.26 54.6925 143.532L55.1865 142.804C55.7065 143.428 56.3305 143.662 57.2275 143.662C58.2675 143.662 59.2425 143.155 59.2425 141.777V140.88C58.7875 141.517 58.0205 141.998 57.1365 141.998C55.4985 141.998 54.3415 140.776 54.3415 138.748C54.3415 136.733 55.4855 135.485 57.1365 135.485C57.9815 135.485 58.7355 135.901 59.2425 136.59V135.641H60.2175V141.738C60.2175 143.818 58.7615 144.468 57.2275 144.468ZM57.3705 141.14C58.1505 141.14 58.9045 140.659 59.2425 140.113V137.37C58.9045 136.824 58.1505 136.356 57.3705 136.356C56.1095 136.356 55.3555 137.357 55.3555 138.748C55.3555 140.126 56.1095 141.14 57.3705 141.14ZM67.0713 141.92H66.0963V141.205C65.5763 141.777 64.8613 142.076 64.0163 142.076C62.9503 142.076 61.8193 141.361 61.8193 139.996C61.8193 138.592 62.9503 137.929 64.0163 137.929C64.8743 137.929 65.5893 138.202 66.0963 138.787V137.656C66.0963 136.811 65.4203 136.33 64.5103 136.33C63.7563 136.33 63.1453 136.603 62.5863 137.201L62.1313 136.525C62.8073 135.823 63.6133 135.485 64.6403 135.485C65.9663 135.485 67.0713 136.083 67.0713 137.604V141.92ZM64.3673 141.374C65.0563 141.374 65.7193 141.114 66.0963 140.594V139.411C65.7193 138.891 65.0563 138.631 64.3673 138.631C63.4573 138.631 62.8203 139.203 62.8203 140.009C62.8203 140.802 63.4573 141.374 64.3673 141.374ZM74.2388 141.92H73.2638V137.812C73.2638 136.707 72.7048 136.356 71.8598 136.356C71.0928 136.356 70.3648 136.824 70.0008 137.331V141.92H69.0258V135.641H70.0008V136.551C70.4428 136.031 71.3008 135.485 72.2368 135.485C73.5498 135.485 74.2388 136.148 74.2388 137.513V141.92ZM76.6669 134.744C76.3159 134.744 76.0169 134.458 76.0169 134.094C76.0169 133.73 76.3159 133.431 76.6669 133.431C77.0309 133.431 77.3299 133.73 77.3299 134.094C77.3299 134.458 77.0309 134.744 76.6669 134.744ZM77.1609 141.92H76.1859V135.641H77.1609V141.92ZM83.5909 141.92H78.8069V141.166L82.2649 136.499H78.8069V135.641H83.5389V136.382L80.0549 141.075H83.5909V141.92ZM90.1387 141.92H89.1637V141.205C88.6437 141.777 87.9287 142.076 87.0837 142.076C86.0177 142.076 84.8867 141.361 84.8867 139.996C84.8867 138.592 86.0177 137.929 87.0837 137.929C87.9417 137.929 88.6567 138.202 89.1637 138.787V137.656C89.1637 136.811 88.4877 136.33 87.5777 136.33C86.8237 136.33 86.2127 136.603 85.6537 137.201L85.1987 136.525C85.8747 135.823 86.6807 135.485 87.7077 135.485C89.0337 135.485 90.1387 136.083 90.1387 137.604V141.92ZM87.4347 141.374C88.1237 141.374 88.7867 141.114 89.1637 140.594V139.411C88.7867 138.891 88.1237 138.631 87.4347 138.631C86.5247 138.631 85.8877 139.203 85.8877 140.009C85.8877 140.802 86.5247 141.374 87.4347 141.374ZM93.6792 142.076C92.7562 142.076 92.2882 141.543 92.2882 140.607V136.499H91.2482V135.641H92.2882V133.925H93.2632V135.641H94.5372V136.499H93.2632V140.399C93.2632 140.867 93.4712 141.205 93.9002 141.205C94.1732 141.205 94.4332 141.088 94.5632 140.945L94.8492 141.673C94.6022 141.907 94.2512 142.076 93.6792 142.076ZM96.3955 134.744C96.0445 134.744 95.7455 134.458 95.7455 134.094C95.7455 133.73 96.0445 133.431 96.3955 133.431C96.7595 133.431 97.0585 133.73 97.0585 134.094C97.0585 134.458 96.7595 134.744 96.3955 134.744ZM96.8895 141.92H95.9145V135.641H96.8895V141.92ZM101.577 142.076C99.6664 142.076 98.4704 140.594 98.4704 138.774C98.4704 136.954 99.6664 135.485 101.577 135.485C103.488 135.485 104.684 136.954 104.684 138.774C104.684 140.594 103.488 142.076 101.577 142.076ZM101.577 141.205C102.916 141.205 103.657 140.061 103.657 138.774C103.657 137.5 102.916 136.356 101.577 136.356C100.238 136.356 99.4844 137.5 99.4844 138.774C99.4844 140.061 100.238 141.205 101.577 141.205ZM111.487 141.92H110.512V137.812C110.512 136.707 109.953 136.356 109.108 136.356C108.341 136.356 107.613 136.824 107.249 137.331V141.92H106.274V135.641H107.249V136.551C107.691 136.031 108.549 135.485 109.485 135.485C110.798 135.485 111.487 136.148 111.487 137.513V141.92ZM113.954 142.05C113.564 142.05 113.239 141.725 113.239 141.335C113.239 140.945 113.564 140.62 113.954 140.62C114.344 140.62 114.669 140.945 114.669 141.335C114.669 141.725 114.344 142.05 113.954 142.05ZM46.615 166.92H45.536V163.254L42.117 158.249H43.378L46.069 162.279L48.76 158.249H50.021L46.615 163.254V166.92ZM52.2053 167.076C50.2943 167.076 49.0983 165.594 49.0983 163.774C49.0983 161.954 50.2943 160.485 52.2053 160.485C54.1163 160.485 55.3123 161.954 55.3123 163.774C55.3123 165.594 54.1163 167.076 52.2053 167.076ZM52.2053 166.205C53.5443 166.205 54.2853 165.061 54.2853 163.774C54.2853 162.5 53.5443 161.356 52.2053 161.356C50.8663 161.356 50.1123 162.5 50.1123 163.774C50.1123 165.061 50.8663 166.205 52.2053 166.205ZM62.1148 166.92H61.1398V166.036C60.6588 166.582 59.8398 167.076 58.9038 167.076C57.5908 167.076 56.9018 166.439 56.9018 165.074V160.641H57.8768V164.775C57.8768 165.88 58.4358 166.205 59.2808 166.205C60.0478 166.205 60.7758 165.763 61.1398 165.256V160.641H62.1148V166.92ZM72.3145 166.92H71.3395V166.205C70.8195 166.777 70.1045 167.076 69.2595 167.076C68.1935 167.076 67.0625 166.361 67.0625 164.996C67.0625 163.592 68.1935 162.929 69.2595 162.929C70.1175 162.929 70.8325 163.202 71.3395 163.787V162.656C71.3395 161.811 70.6635 161.33 69.7535 161.33C68.9995 161.33 68.3885 161.603 67.8295 162.201L67.3745 161.525C68.0505 160.823 68.8565 160.485 69.8835 160.485C71.2095 160.485 72.3145 161.083 72.3145 162.604V166.92ZM69.6105 166.374C70.2995 166.374 70.9625 166.114 71.3395 165.594V164.411C70.9625 163.891 70.2995 163.631 69.6105 163.631C68.7005 163.631 68.0635 164.203 68.0635 165.009C68.0635 165.802 68.7005 166.374 69.6105 166.374ZM75.2439 166.92H74.2689V158.249H75.2439V166.92ZM79.1779 167.076C78.1509 167.076 77.2799 166.764 76.6429 166.088L77.1499 165.386C77.5659 165.867 78.3589 166.283 79.2169 166.283C80.1789 166.283 80.6989 165.828 80.6989 165.204C80.6989 163.683 76.8119 164.619 76.8119 162.292C76.8119 161.317 77.6569 160.485 79.1519 160.485C80.2179 160.485 80.9719 160.888 81.4789 161.395L81.0239 162.071C80.6469 161.616 79.9579 161.278 79.1519 161.278C78.2939 161.278 77.7609 161.707 77.7609 162.266C77.7609 163.644 81.6479 162.734 81.6479 165.178C81.6479 166.231 80.8029 167.076 79.1779 167.076ZM85.9748 167.076C84.0638 167.076 82.8678 165.594 82.8678 163.774C82.8678 161.954 84.0638 160.485 85.9748 160.485C87.8858 160.485 89.0818 161.954 89.0818 163.774C89.0818 165.594 87.8858 167.076 85.9748 167.076ZM85.9748 166.205C87.3138 166.205 88.0548 165.061 88.0548 163.774C88.0548 162.5 87.3138 161.356 85.9748 161.356C84.6358 161.356 83.8818 162.5 83.8818 163.774C83.8818 165.061 84.6358 166.205 85.9748 166.205ZM99.2359 166.92H98.2609V162.812C98.2609 161.707 97.7019 161.356 96.8569 161.356C96.0899 161.356 95.3619 161.824 94.9979 162.331V166.92H94.0229V160.641H94.9979V161.551C95.4399 161.031 96.2979 160.485 97.2339 160.485C98.5469 160.485 99.2359 161.148 99.2359 162.513V166.92ZM104.017 167.076C102.158 167.076 100.819 165.737 100.819 163.774C100.819 161.954 102.119 160.485 103.913 160.485C105.811 160.485 106.929 161.967 106.929 163.852V164.099H101.846C101.924 165.282 102.756 166.27 104.108 166.27C104.823 166.27 105.551 165.984 106.045 165.477L106.513 166.114C105.889 166.738 105.044 167.076 104.017 167.076ZM105.967 163.384C105.954 162.448 105.33 161.291 103.9 161.291C102.561 161.291 101.898 162.422 101.846 163.384H105.967ZM111.342 167.076C109.483 167.076 108.144 165.737 108.144 163.774C108.144 161.954 109.444 160.485 111.238 160.485C113.136 160.485 114.254 161.967 114.254 163.852V164.099H109.171C109.249 165.282 110.081 166.27 111.433 166.27C112.148 166.27 112.876 165.984 113.37 165.477L113.838 166.114C113.214 166.738 112.369 167.076 111.342 167.076ZM113.292 163.384C113.279 162.448 112.655 161.291 111.225 161.291C109.886 161.291 109.223 162.422 109.171 163.384H113.292ZM121.358 166.92H120.383V165.984C119.915 166.621 119.148 167.076 118.264 167.076C116.626 167.076 115.469 165.828 115.469 163.787C115.469 161.785 116.613 160.485 118.264 160.485C119.109 160.485 119.876 160.901 120.383 161.59V158.249H121.358V166.92ZM118.498 166.205C119.278 166.205 120.032 165.763 120.383 165.217V162.37C120.032 161.824 119.278 161.356 118.498 161.356C117.237 161.356 116.483 162.396 116.483 163.787C116.483 165.178 117.237 166.205 118.498 166.205ZM128.249 167.076C127.326 167.076 126.858 166.543 126.858 165.607V161.499H125.818V160.641H126.858V158.925H127.833V160.641H129.107V161.499H127.833V165.399C127.833 165.867 128.041 166.205 128.47 166.205C128.743 166.205 129.003 166.088 129.133 165.945L129.419 166.673C129.172 166.907 128.821 167.076 128.249 167.076ZM133.227 167.076C131.316 167.076 130.12 165.594 130.12 163.774C130.12 161.954 131.316 160.485 133.227 160.485C135.138 160.485 136.334 161.954 136.334 163.774C136.334 165.594 135.138 167.076 133.227 167.076ZM133.227 166.205C134.566 166.205 135.307 165.061 135.307 163.774C135.307 162.5 134.566 161.356 133.227 161.356C131.888 161.356 131.134 162.5 131.134 163.774C131.134 165.061 131.888 166.205 133.227 166.205ZM144.109 167.076C142.25 167.076 140.911 165.737 140.911 163.774C140.911 161.954 142.211 160.485 144.005 160.485C145.903 160.485 147.021 161.967 147.021 163.852V164.099H141.938C142.016 165.282 142.848 166.27 144.2 166.27C144.915 166.27 145.643 165.984 146.137 165.477L146.605 166.114C145.981 166.738 145.136 167.076 144.109 167.076ZM146.059 163.384C146.046 162.448 145.422 161.291 143.992 161.291C142.653 161.291 141.99 162.422 141.938 163.384H146.059ZM153.813 166.92H152.838V162.812C152.838 161.707 152.279 161.356 151.434 161.356C150.667 161.356 149.939 161.824 149.575 162.331V166.92H148.6V160.641H149.575V161.551C150.017 161.031 150.875 160.485 151.811 160.485C153.124 160.485 153.813 161.148 153.813 162.513V166.92ZM157.346 167.076C156.423 167.076 155.955 166.543 155.955 165.607V161.499H154.915V160.641H155.955V158.925H156.93V160.641H158.204V161.499H156.93V165.399C156.93 165.867 157.138 166.205 157.567 166.205C157.84 166.205 158.1 166.088 158.23 165.945L158.516 166.673C158.269 166.907 157.918 167.076 157.346 167.076ZM162.415 167.076C160.556 167.076 159.217 165.737 159.217 163.774C159.217 161.954 160.517 160.485 162.311 160.485C164.209 160.485 165.327 161.967 165.327 163.852V164.099H160.244C160.322 165.282 161.154 166.27 162.506 166.27C163.221 166.27 163.949 165.984 164.443 165.477L164.911 166.114C164.287 166.738 163.442 167.076 162.415 167.076ZM164.365 163.384C164.352 162.448 163.728 161.291 162.298 161.291C160.959 161.291 160.296 162.422 160.244 163.384H164.365ZM167.882 166.92H166.907V160.641H167.882V161.655C168.389 160.992 169.117 160.511 169.975 160.511V161.512C169.858 161.486 169.741 161.473 169.585 161.473C168.987 161.473 168.168 161.967 167.882 162.474V166.92ZM174.198 169.377L174.354 168.493C174.497 168.558 174.731 168.597 174.887 168.597C175.316 168.597 175.602 168.454 175.823 167.934L176.239 166.985L173.613 160.641H174.666L176.759 165.789L178.839 160.641H179.905L176.759 168.194C176.382 169.104 175.745 169.455 174.913 169.468C174.705 169.468 174.38 169.429 174.198 169.377ZM183.665 167.076C181.754 167.076 180.558 165.594 180.558 163.774C180.558 161.954 181.754 160.485 183.665 160.485C185.576 160.485 186.772 161.954 186.772 163.774C186.772 165.594 185.576 167.076 183.665 167.076ZM183.665 166.205C185.004 166.205 185.745 165.061 185.745 163.774C185.745 162.5 185.004 161.356 183.665 161.356C182.326 161.356 181.572 162.5 181.572 163.774C181.572 165.061 182.326 166.205 183.665 166.205ZM193.575 166.92H192.6V166.036C192.119 166.582 191.3 167.076 190.364 167.076C189.051 167.076 188.362 166.439 188.362 165.074V160.641H189.337V164.775C189.337 165.88 189.896 166.205 190.741 166.205C191.508 166.205 192.236 165.763 192.6 165.256V160.641H193.575V166.92ZM196.497 166.92H195.522V160.641H196.497V161.655C197.004 160.992 197.732 160.511 198.59 160.511V161.512C198.473 161.486 198.356 161.473 198.2 161.473C197.602 161.473 196.783 161.967 196.497 162.474V166.92ZM204.412 166.92H203.437V161.499H202.397V160.641H203.437V160.16C203.437 158.86 204.165 158.119 205.257 158.119C205.621 158.119 205.959 158.184 206.206 158.34L205.959 159.081C205.816 158.99 205.647 158.925 205.4 158.925C204.763 158.925 204.412 159.367 204.412 160.16V160.641H205.686V161.499H204.412V166.92ZM207.324 159.744C206.973 159.744 206.674 159.458 206.674 159.094C206.674 158.73 206.973 158.431 207.324 158.431C207.688 158.431 207.987 158.73 207.987 159.094C207.987 159.458 207.688 159.744 207.324 159.744ZM207.818 166.92H206.843V160.641H207.818V166.92ZM211.768 167.076C210.741 167.076 209.87 166.764 209.233 166.088L209.74 165.386C210.156 165.867 210.949 166.283 211.807 166.283C212.769 166.283 213.289 165.828 213.289 165.204C213.289 163.683 209.402 164.619 209.402 162.292C209.402 161.317 210.247 160.485 211.742 160.485C212.808 160.485 213.562 160.888 214.069 161.395L213.614 162.071C213.237 161.616 212.548 161.278 211.742 161.278C210.884 161.278 210.351 161.707 210.351 162.266C210.351 163.644 214.238 162.734 214.238 165.178C214.238 166.231 213.393 167.076 211.768 167.076ZM218.591 167.076C216.719 167.076 215.458 165.646 215.458 163.774C215.458 161.915 216.719 160.485 218.591 160.485C219.735 160.485 220.411 160.953 220.892 161.577L220.242 162.175C219.826 161.603 219.293 161.356 218.643 161.356C217.304 161.356 216.472 162.383 216.472 163.774C216.472 165.165 217.304 166.205 218.643 166.205C219.293 166.205 219.826 165.945 220.242 165.386L220.892 165.984C220.411 166.608 219.735 167.076 218.591 167.076ZM227.159 166.92H226.184V166.205C225.664 166.777 224.949 167.076 224.104 167.076C223.038 167.076 221.907 166.361 221.907 164.996C221.907 163.592 223.038 162.929 224.104 162.929C224.962 162.929 225.677 163.202 226.184 163.787V162.656C226.184 161.811 225.508 161.33 224.598 161.33C223.844 161.33 223.233 161.603 222.674 162.201L222.219 161.525C222.895 160.823 223.701 160.485 224.728 160.485C226.054 160.485 227.159 161.083 227.159 162.604V166.92ZM224.455 166.374C225.144 166.374 225.807 166.114 226.184 165.594V164.411C225.807 163.891 225.144 163.631 224.455 163.631C223.545 163.631 222.908 164.203 222.908 165.009C222.908 165.802 223.545 166.374 224.455 166.374ZM230.089 166.92H229.114V158.249H230.089V166.92ZM240.91 166.92H239.935V165.984C239.467 166.621 238.7 167.076 237.816 167.076C236.178 167.076 235.021 165.828 235.021 163.787C235.021 161.785 236.165 160.485 237.816 160.485C238.661 160.485 239.428 160.901 239.935 161.59V158.249H240.91V166.92ZM238.05 166.205C238.83 166.205 239.584 165.763 239.935 165.217V162.37C239.584 161.824 238.83 161.356 238.05 161.356C236.789 161.356 236.035 162.396 236.035 163.787C236.035 165.178 236.789 166.205 238.05 166.205ZM247.764 166.92H246.789V166.205C246.269 166.777 245.554 167.076 244.709 167.076C243.643 167.076 242.512 166.361 242.512 164.996C242.512 163.592 243.643 162.929 244.709 162.929C245.567 162.929 246.282 163.202 246.789 163.787V162.656C246.789 161.811 246.113 161.33 245.203 161.33C244.449 161.33 243.838 161.603 243.279 162.201L242.824 161.525C243.5 160.823 244.306 160.485 245.333 160.485C246.659 160.485 247.764 161.083 247.764 162.604V166.92ZM245.06 166.374C245.749 166.374 246.412 166.114 246.789 165.594V164.411C246.412 163.891 245.749 163.631 245.06 163.631C244.15 163.631 243.513 164.203 243.513 165.009C243.513 165.802 244.15 166.374 245.06 166.374ZM251.304 167.076C250.381 167.076 249.913 166.543 249.913 165.607V161.499H248.873V160.641H249.913V158.925H250.888V160.641H252.162V161.499H250.888V165.399C250.888 165.867 251.096 166.205 251.525 166.205C251.798 166.205 252.058 166.088 252.188 165.945L252.474 166.673C252.227 166.907 251.876 167.076 251.304 167.076ZM258.44 166.92H257.465V166.205C256.945 166.777 256.23 167.076 255.385 167.076C254.319 167.076 253.188 166.361 253.188 164.996C253.188 163.592 254.319 162.929 255.385 162.929C256.243 162.929 256.958 163.202 257.465 163.787V162.656C257.465 161.811 256.789 161.33 255.879 161.33C255.125 161.33 254.514 161.603 253.955 162.201L253.5 161.525C254.176 160.823 254.982 160.485 256.009 160.485C257.335 160.485 258.44 161.083 258.44 162.604V166.92ZM255.736 166.374C256.425 166.374 257.088 166.114 257.465 165.594V164.411C257.088 163.891 256.425 163.631 255.736 163.631C254.826 163.631 254.189 164.203 254.189 165.009C254.189 165.802 254.826 166.374 255.736 166.374ZM268.647 166.92H267.672V166.205C267.152 166.777 266.437 167.076 265.592 167.076C264.526 167.076 263.395 166.361 263.395 164.996C263.395 163.592 264.526 162.929 265.592 162.929C266.45 162.929 267.165 163.202 267.672 163.787V162.656C267.672 161.811 266.996 161.33 266.086 161.33C265.332 161.33 264.721 161.603 264.162 162.201L263.707 161.525C264.383 160.823 265.189 160.485 266.216 160.485C267.542 160.485 268.647 161.083 268.647 162.604V166.92ZM265.943 166.374C266.632 166.374 267.295 166.114 267.672 165.594V164.411C267.295 163.891 266.632 163.631 265.943 163.631C265.033 163.631 264.396 164.203 264.396 165.009C264.396 165.802 265.033 166.374 265.943 166.374ZM275.815 166.92H274.84V162.812C274.84 161.707 274.281 161.356 273.436 161.356C272.669 161.356 271.941 161.824 271.577 162.331V166.92H270.602V160.641H271.577V161.551C272.019 161.031 272.877 160.485 273.813 160.485C275.126 160.485 275.815 161.148 275.815 162.513V166.92ZM283.287 166.92H282.312V165.984C281.844 166.621 281.077 167.076 280.193 167.076C278.555 167.076 277.398 165.828 277.398 163.787C277.398 161.785 278.542 160.485 280.193 160.485C281.038 160.485 281.805 160.901 282.312 161.59V158.249H283.287V166.92ZM280.427 166.205C281.207 166.205 281.961 165.763 282.312 165.217V162.37C281.961 161.824 281.207 161.356 280.427 161.356C279.166 161.356 278.412 162.396 278.412 163.787C278.412 165.178 279.166 166.205 280.427 166.205ZM293.804 166.92H292.829V162.812C292.829 161.707 292.27 161.356 291.425 161.356C290.658 161.356 289.93 161.824 289.566 162.331V166.92H288.591V160.641H289.566V161.551C290.008 161.031 290.866 160.485 291.802 160.485C293.115 160.485 293.804 161.148 293.804 162.513V166.92ZM298.585 167.076C296.726 167.076 295.387 165.737 295.387 163.774C295.387 161.954 296.687 160.485 298.481 160.485C300.379 160.485 301.497 161.967 301.497 163.852V164.099H296.414C296.492 165.282 297.324 166.27 298.676 166.27C299.391 166.27 300.119 165.984 300.613 165.477L301.081 166.114C300.457 166.738 299.612 167.076 298.585 167.076ZM300.535 163.384C300.522 162.448 299.898 161.291 298.468 161.291C297.129 161.291 296.466 162.422 296.414 163.384H300.535ZM305.846 167.076C303.974 167.076 302.713 165.646 302.713 163.774C302.713 161.915 303.974 160.485 305.846 160.485C306.99 160.485 307.666 160.953 308.147 161.577L307.497 162.175C307.081 161.603 306.548 161.356 305.898 161.356C304.559 161.356 303.727 162.383 303.727 163.774C303.727 165.165 304.559 166.205 305.898 166.205C306.548 166.205 307.081 165.945 307.497 165.386L308.147 165.984C307.666 166.608 306.99 167.076 305.846 167.076ZM312.347 167.076C310.488 167.076 309.149 165.737 309.149 163.774C309.149 161.954 310.449 160.485 312.243 160.485C314.141 160.485 315.259 161.967 315.259 163.852V164.099H310.176C310.254 165.282 311.086 166.27 312.438 166.27C313.153 166.27 313.881 165.984 314.375 165.477L314.843 166.114C314.219 166.738 313.374 167.076 312.347 167.076ZM314.297 163.384C314.284 162.448 313.66 161.291 312.23 161.291C310.891 161.291 310.228 162.422 310.176 163.384H314.297ZM318.827 167.076C317.8 167.076 316.929 166.764 316.292 166.088L316.799 165.386C317.215 165.867 318.008 166.283 318.866 166.283C319.828 166.283 320.348 165.828 320.348 165.204C320.348 163.683 316.461 164.619 316.461 162.292C316.461 161.317 317.306 160.485 318.801 160.485C319.867 160.485 320.621 160.888 321.128 161.395L320.673 162.071C320.296 161.616 319.607 161.278 318.801 161.278C317.943 161.278 317.41 161.707 317.41 162.266C317.41 163.644 321.297 162.734 321.297 165.178C321.297 166.231 320.452 167.076 318.827 167.076ZM324.87 167.076C323.843 167.076 322.972 166.764 322.335 166.088L322.842 165.386C323.258 165.867 324.051 166.283 324.909 166.283C325.871 166.283 326.391 165.828 326.391 165.204C326.391 163.683 322.504 164.619 322.504 162.292C322.504 161.317 323.349 160.485 324.844 160.485C325.91 160.485 326.664 160.888 327.171 161.395L326.716 162.071C326.339 161.616 325.65 161.278 324.844 161.278C323.986 161.278 323.453 161.707 323.453 162.266C323.453 163.644 327.34 162.734 327.34 165.178C327.34 166.231 326.495 167.076 324.87 167.076ZM333.825 166.92H332.85V166.205C332.33 166.777 331.615 167.076 330.77 167.076C329.704 167.076 328.573 166.361 328.573 164.996C328.573 163.592 329.704 162.929 330.77 162.929C331.628 162.929 332.343 163.202 332.85 163.787V162.656C332.85 161.811 332.174 161.33 331.264 161.33C330.51 161.33 329.899 161.603 329.34 162.201L328.885 161.525C329.561 160.823 330.367 160.485 331.394 160.485C332.72 160.485 333.825 161.083 333.825 162.604V166.92ZM331.121 166.374C331.81 166.374 332.473 166.114 332.85 165.594V164.411C332.473 163.891 331.81 163.631 331.121 163.631C330.211 163.631 329.574 164.203 329.574 165.009C329.574 165.802 330.211 166.374 331.121 166.374ZM336.755 166.92H335.78V160.641H336.755V161.655C337.262 160.992 337.99 160.511 338.848 160.511V161.512C338.731 161.486 338.614 161.473 338.458 161.473C337.86 161.473 337.041 161.967 336.755 162.474V166.92ZM339.72 169.377L339.876 168.493C340.019 168.558 340.253 168.597 340.409 168.597C340.838 168.597 341.124 168.454 341.345 167.934L341.761 166.985L339.135 160.641H340.188L342.281 165.789L344.361 160.641H345.427L342.281 168.194C341.904 169.104 341.267 169.455 340.435 169.468C340.227 169.468 339.902 169.429 339.72 169.377ZM45.744 191.076C43.872 191.076 42.611 189.646 42.611 187.774C42.611 185.915 43.872 184.485 45.744 184.485C46.888 184.485 47.564 184.953 48.045 185.577L47.395 186.175C46.979 185.603 46.446 185.356 45.796 185.356C44.457 185.356 43.625 186.383 43.625 187.774C43.625 189.165 44.457 190.205 45.796 190.205C46.446 190.205 46.979 189.945 47.395 189.386L48.045 189.984C47.564 190.608 46.888 191.076 45.744 191.076ZM50.3865 190.92H49.4115V184.641H50.3865V185.655C50.8935 184.992 51.6215 184.511 52.4795 184.511V185.512C52.3625 185.486 52.2455 185.473 52.0895 185.473C51.4915 185.473 50.6725 185.967 50.3865 186.474V190.92ZM56.5365 191.076C54.6775 191.076 53.3385 189.737 53.3385 187.774C53.3385 185.954 54.6385 184.485 56.4325 184.485C58.3305 184.485 59.4485 185.967 59.4485 187.852V188.099H54.3655C54.4435 189.282 55.2755 190.27 56.6275 190.27C57.3425 190.27 58.0705 189.984 58.5645 189.477L59.0325 190.114C58.4085 190.738 57.5635 191.076 56.5365 191.076ZM58.4865 187.384C58.4735 186.448 57.8495 185.291 56.4195 185.291C55.0805 185.291 54.4175 186.422 54.3655 187.384H58.4865ZM66.5527 190.92H65.5777V189.984C65.1097 190.621 64.3427 191.076 63.4587 191.076C61.8207 191.076 60.6637 189.828 60.6637 187.787C60.6637 185.785 61.8077 184.485 63.4587 184.485C64.3037 184.485 65.0707 184.901 65.5777 185.59V182.249H66.5527V190.92ZM63.6927 190.205C64.4727 190.205 65.2267 189.763 65.5777 189.217V186.37C65.2267 185.824 64.4727 185.356 63.6927 185.356C62.4317 185.356 61.6777 186.396 61.6777 187.787C61.6777 189.178 62.4317 190.205 63.6927 190.205ZM71.3393 191.076C69.4803 191.076 68.1413 189.737 68.1413 187.774C68.1413 185.954 69.4413 184.485 71.2353 184.485C73.1333 184.485 74.2513 185.967 74.2513 187.852V188.099H69.1683C69.2463 189.282 70.0783 190.27 71.4303 190.27C72.1453 190.27 72.8733 189.984 73.3673 189.477L73.8353 190.114C73.2113 190.738 72.3663 191.076 71.3393 191.076ZM73.2893 187.384C73.2763 186.448 72.6523 185.291 71.2223 185.291C69.8833 185.291 69.2203 186.422 69.1683 187.384H73.2893ZM81.0435 190.92H80.0685V186.812C80.0685 185.707 79.5095 185.356 78.6645 185.356C77.8975 185.356 77.1695 185.824 76.8055 186.331V190.92H75.8305V184.641H76.8055V185.551C77.2475 185.031 78.1055 184.485 79.0415 184.485C80.3545 184.485 81.0435 185.148 81.0435 186.513V190.92ZM84.5766 191.076C83.6536 191.076 83.1856 190.543 83.1856 189.607V185.499H82.1456V184.641H83.1856V182.925H84.1606V184.641H85.4346V185.499H84.1606V189.399C84.1606 189.867 84.3686 190.205 84.7976 190.205C85.0706 190.205 85.3306 190.088 85.4606 189.945L85.7466 190.673C85.4996 190.907 85.1486 191.076 84.5766 191.076ZM87.2929 183.744C86.9419 183.744 86.6429 183.458 86.6429 183.094C86.6429 182.73 86.9419 182.431 87.2929 182.431C87.6569 182.431 87.9559 182.73 87.9559 183.094C87.9559 183.458 87.6569 183.744 87.2929 183.744ZM87.7869 190.92H86.8119V184.641H87.7869V190.92ZM94.6328 190.92H93.6578V190.205C93.1378 190.777 92.4228 191.076 91.5778 191.076C90.5118 191.076 89.3808 190.361 89.3808 188.996C89.3808 187.592 90.5118 186.929 91.5778 186.929C92.4358 186.929 93.1508 187.202 93.6578 187.787V186.656C93.6578 185.811 92.9818 185.33 92.0718 185.33C91.3178 185.33 90.7068 185.603 90.1478 186.201L89.6928 185.525C90.3688 184.823 91.1748 184.485 92.2018 184.485C93.5278 184.485 94.6328 185.083 94.6328 186.604V190.92ZM91.9288 190.374C92.6178 190.374 93.2808 190.114 93.6578 189.594V188.411C93.2808 187.891 92.6178 187.631 91.9288 187.631C91.0188 187.631 90.3818 188.203 90.3818 189.009C90.3818 189.802 91.0188 190.374 91.9288 190.374ZM97.5623 190.92H96.5873V182.249H97.5623V190.92ZM101.496 191.076C100.469 191.076 99.5982 190.764 98.9612 190.088L99.4682 189.386C99.8842 189.867 100.677 190.283 101.535 190.283C102.497 190.283 103.017 189.828 103.017 189.204C103.017 187.683 99.1302 188.619 99.1302 186.292C99.1302 185.317 99.9752 184.485 101.47 184.485C102.536 184.485 103.29 184.888 103.797 185.395L103.342 186.071C102.965 185.616 102.276 185.278 101.47 185.278C100.612 185.278 100.079 185.707 100.079 186.266C100.079 187.644 103.966 186.734 103.966 189.178C103.966 190.231 103.121 191.076 101.496 191.076ZM110.488 191.076C109.565 191.076 109.097 190.543 109.097 189.607V185.499H108.057V184.641H109.097V182.925H110.072V184.641H111.346V185.499H110.072V189.399C110.072 189.867 110.28 190.205 110.709 190.205C110.982 190.205 111.242 190.088 111.372 189.945L111.658 190.673C111.411 190.907 111.06 191.076 110.488 191.076ZM115.466 191.076C113.555 191.076 112.359 189.594 112.359 187.774C112.359 185.954 113.555 184.485 115.466 184.485C117.377 184.485 118.573 185.954 118.573 187.774C118.573 189.594 117.377 191.076 115.466 191.076ZM115.466 190.205C116.805 190.205 117.546 189.061 117.546 187.774C117.546 186.5 116.805 185.356 115.466 185.356C114.127 185.356 113.373 186.5 113.373 187.774C113.373 189.061 114.127 190.205 115.466 190.205ZM123.995 183.744C123.644 183.744 123.345 183.458 123.345 183.094C123.345 182.73 123.644 182.431 123.995 182.431C124.359 182.431 124.658 182.73 124.658 183.094C124.658 183.458 124.359 183.744 123.995 183.744ZM124.489 190.92H123.514V184.641H124.489V190.92ZM128.423 191.076C127.396 191.076 126.525 190.764 125.888 190.088L126.395 189.386C126.811 189.867 127.604 190.283 128.462 190.283C129.424 190.283 129.944 189.828 129.944 189.204C129.944 187.683 126.057 188.619 126.057 186.292C126.057 185.317 126.902 184.485 128.397 184.485C129.463 184.485 130.217 184.888 130.724 185.395L130.269 186.071C129.892 185.616 129.203 185.278 128.397 185.278C127.539 185.278 127.006 185.707 127.006 186.266C127.006 187.644 130.893 186.734 130.893 189.178C130.893 190.231 130.048 191.076 128.423 191.076ZM134.466 191.076C133.439 191.076 132.568 190.764 131.931 190.088L132.438 189.386C132.854 189.867 133.647 190.283 134.505 190.283C135.467 190.283 135.987 189.828 135.987 189.204C135.987 187.683 132.1 188.619 132.1 186.292C132.1 185.317 132.945 184.485 134.44 184.485C135.506 184.485 136.26 184.888 136.767 185.395L136.312 186.071C135.935 185.616 135.246 185.278 134.44 185.278C133.582 185.278 133.049 185.707 133.049 186.266C133.049 187.644 136.936 186.734 136.936 189.178C136.936 190.231 136.091 191.076 134.466 191.076ZM143.733 190.92H142.758V190.036C142.277 190.582 141.458 191.076 140.522 191.076C139.209 191.076 138.52 190.439 138.52 189.074V184.641H139.495V188.775C139.495 189.88 140.054 190.205 140.899 190.205C141.666 190.205 142.394 189.763 142.758 189.256V184.641H143.733V190.92ZM148.514 191.076C146.655 191.076 145.316 189.737 145.316 187.774C145.316 185.954 146.616 184.485 148.41 184.485C150.308 184.485 151.426 185.967 151.426 187.852V188.099H146.343C146.421 189.282 147.253 190.27 148.605 190.27C149.32 190.27 150.048 189.984 150.542 189.477L151.01 190.114C150.386 190.738 149.541 191.076 148.514 191.076ZM150.464 187.384C150.451 186.448 149.827 185.291 148.397 185.291C147.058 185.291 146.395 186.422 146.343 187.384H150.464ZM161.258 190.92H160.283V190.205C159.763 190.777 159.048 191.076 158.203 191.076C157.137 191.076 156.006 190.361 156.006 188.996C156.006 187.592 157.137 186.929 158.203 186.929C159.061 186.929 159.776 187.202 160.283 187.787V186.656C160.283 185.811 159.607 185.33 158.697 185.33C157.943 185.33 157.332 185.603 156.773 186.201L156.318 185.525C156.994 184.823 157.8 184.485 158.827 184.485C160.153 184.485 161.258 185.083 161.258 186.604V190.92ZM158.554 190.374C159.243 190.374 159.906 190.114 160.283 189.594V188.411C159.906 187.891 159.243 187.631 158.554 187.631C157.644 187.631 157.007 188.203 157.007 189.009C157.007 189.802 157.644 190.374 158.554 190.374ZM168.425 190.92H167.45V186.812C167.45 185.707 166.891 185.356 166.046 185.356C165.279 185.356 164.551 185.824 164.187 186.331V190.92H163.212V184.641H164.187V185.551C164.629 185.031 165.487 184.485 166.423 184.485C167.736 184.485 168.425 185.148 168.425 186.513V190.92ZM175.897 190.92H174.922V189.984C174.454 190.621 173.687 191.076 172.803 191.076C171.165 191.076 170.008 189.828 170.008 187.787C170.008 185.785 171.152 184.485 172.803 184.485C173.648 184.485 174.415 184.901 174.922 185.59V182.249H175.897V190.92ZM173.037 190.205C173.817 190.205 174.571 189.763 174.922 189.217V186.37C174.571 185.824 173.817 185.356 173.037 185.356C171.776 185.356 171.022 186.396 171.022 187.787C171.022 189.178 171.776 190.205 173.037 190.205ZM183.191 191.076C182.164 191.076 181.293 190.764 180.656 190.088L181.163 189.386C181.579 189.867 182.372 190.283 183.23 190.283C184.192 190.283 184.712 189.828 184.712 189.204C184.712 187.683 180.825 188.619 180.825 186.292C180.825 185.317 181.67 184.485 183.165 184.485C184.231 184.485 184.985 184.888 185.492 185.395L185.037 186.071C184.66 185.616 183.971 185.278 183.165 185.278C182.307 185.278 181.774 185.707 181.774 186.266C181.774 187.644 185.661 186.734 185.661 189.178C185.661 190.231 184.816 191.076 183.191 191.076ZM186.894 193.377L187.05 192.493C187.193 192.558 187.427 192.597 187.583 192.597C188.012 192.597 188.298 192.454 188.519 191.934L188.935 190.985L186.309 184.641H187.362L189.455 189.789L191.535 184.641H192.601L189.455 192.194C189.078 193.104 188.441 193.455 187.609 193.468C187.401 193.468 187.076 193.429 186.894 193.377ZM198.831 190.92H197.856V186.812C197.856 185.707 197.297 185.356 196.452 185.356C195.685 185.356 194.957 185.824 194.593 186.331V190.92H193.618V184.641H194.593V185.551C195.035 185.031 195.893 184.485 196.829 184.485C198.142 184.485 198.831 185.148 198.831 186.513V190.92ZM203.547 191.076C201.675 191.076 200.414 189.646 200.414 187.774C200.414 185.915 201.675 184.485 203.547 184.485C204.691 184.485 205.367 184.953 205.848 185.577L205.198 186.175C204.782 185.603 204.249 185.356 203.599 185.356C202.26 185.356 201.428 186.383 201.428 187.774C201.428 189.165 202.26 190.205 203.599 190.205C204.249 190.205 204.782 189.945 205.198 189.386L205.848 189.984C205.367 190.608 204.691 191.076 203.547 191.076ZM212.44 190.92H211.465V186.786C211.465 185.681 210.893 185.356 210.048 185.356C209.294 185.356 208.566 185.824 208.189 186.331V190.92H207.214V182.249H208.189V185.551C208.631 185.031 209.489 184.485 210.438 184.485C211.751 184.485 212.44 185.122 212.44 186.487V190.92ZM215.362 190.92H214.387V184.641H215.362V185.655C215.869 184.992 216.597 184.511 217.455 184.511V185.512C217.338 185.486 217.221 185.473 217.065 185.473C216.467 185.473 215.648 185.967 215.362 186.474V190.92ZM221.421 191.076C219.51 191.076 218.314 189.594 218.314 187.774C218.314 185.954 219.51 184.485 221.421 184.485C223.332 184.485 224.528 185.954 224.528 187.774C224.528 189.594 223.332 191.076 221.421 191.076ZM221.421 190.205C222.76 190.205 223.501 189.061 223.501 187.774C223.501 186.5 222.76 185.356 221.421 185.356C220.082 185.356 219.328 186.5 219.328 187.774C219.328 189.061 220.082 190.205 221.421 190.205ZM231.331 190.92H230.356V186.812C230.356 185.707 229.797 185.356 228.952 185.356C228.185 185.356 227.457 185.824 227.093 186.331V190.92H226.118V184.641H227.093V185.551C227.535 185.031 228.393 184.485 229.329 184.485C230.642 184.485 231.331 185.148 231.331 186.513V190.92ZM233.759 183.744C233.408 183.744 233.109 183.458 233.109 183.094C233.109 182.73 233.408 182.431 233.759 182.431C234.123 182.431 234.422 182.73 234.422 183.094C234.422 183.458 234.123 183.744 233.759 183.744ZM234.253 190.92H233.278V184.641H234.253V190.92ZM240.683 190.92H235.899V190.166L239.357 185.499H235.899V184.641H240.631V185.382L237.147 190.075H240.683V190.92ZM245.163 191.076C243.304 191.076 241.965 189.737 241.965 187.774C241.965 185.954 243.265 184.485 245.059 184.485C246.957 184.485 248.075 185.967 248.075 187.852V188.099H242.992C243.07 189.282 243.902 190.27 245.254 190.27C245.969 190.27 246.697 189.984 247.191 189.477L247.659 190.114C247.035 190.738 246.19 191.076 245.163 191.076ZM247.113 187.384C247.1 186.448 246.476 185.291 245.046 185.291C243.707 185.291 243.044 186.422 242.992 187.384H247.113ZM252.655 193.377L252.811 192.493C252.954 192.558 253.188 192.597 253.344 192.597C253.773 192.597 254.059 192.454 254.28 191.934L254.696 190.985L252.07 184.641H253.123L255.216 189.789L257.296 184.641H258.362L255.216 192.194C254.839 193.104 254.202 193.455 253.37 193.468C253.162 193.468 252.837 193.429 252.655 193.377ZM262.122 191.076C260.211 191.076 259.015 189.594 259.015 187.774C259.015 185.954 260.211 184.485 262.122 184.485C264.033 184.485 265.229 185.954 265.229 187.774C265.229 189.594 264.033 191.076 262.122 191.076ZM262.122 190.205C263.461 190.205 264.202 189.061 264.202 187.774C264.202 186.5 263.461 185.356 262.122 185.356C260.783 185.356 260.029 186.5 260.029 187.774C260.029 189.061 260.783 190.205 262.122 190.205ZM272.032 190.92H271.057V190.036C270.576 190.582 269.757 191.076 268.821 191.076C267.508 191.076 266.819 190.439 266.819 189.074V184.641H267.794V188.775C267.794 189.88 268.353 190.205 269.198 190.205C269.965 190.205 270.693 189.763 271.057 189.256V184.641H272.032V190.92ZM274.954 190.92H273.979V184.641H274.954V185.655C275.461 184.992 276.189 184.511 277.047 184.511V185.512C276.93 185.486 276.813 185.473 276.657 185.473C276.059 185.473 275.24 185.967 274.954 186.474V190.92ZM282.102 183.744C281.751 183.744 281.452 183.458 281.452 183.094C281.452 182.73 281.751 182.431 282.102 182.431C282.466 182.431 282.765 182.73 282.765 183.094C282.765 183.458 282.466 183.744 282.102 183.744ZM282.596 190.92H281.621V184.641H282.596V190.92ZM289.754 190.92H288.779V186.812C288.779 185.707 288.22 185.356 287.375 185.356C286.608 185.356 285.88 185.824 285.516 186.331V190.92H284.541V184.641H285.516V185.551C285.958 185.031 286.816 184.485 287.752 184.485C289.065 184.485 289.754 185.148 289.754 186.513V190.92ZM294.445 190.92H293.379L290.766 184.641H291.819L293.912 189.789L295.992 184.641H297.058L294.445 190.92ZM300.818 191.076C298.907 191.076 297.711 189.594 297.711 187.774C297.711 185.954 298.907 184.485 300.818 184.485C302.729 184.485 303.925 185.954 303.925 187.774C303.925 189.594 302.729 191.076 300.818 191.076ZM300.818 190.205C302.157 190.205 302.898 189.061 302.898 187.774C302.898 186.5 302.157 185.356 300.818 185.356C299.479 185.356 298.725 186.5 298.725 187.774C298.725 189.061 299.479 190.205 300.818 190.205ZM305.995 183.744C305.644 183.744 305.345 183.458 305.345 183.094C305.345 182.73 305.644 182.431 305.995 182.431C306.359 182.431 306.658 182.73 306.658 183.094C306.658 183.458 306.359 183.744 305.995 183.744ZM306.489 190.92H305.514V184.641H306.489V190.92ZM311.203 191.076C309.331 191.076 308.07 189.646 308.07 187.774C308.07 185.915 309.331 184.485 311.203 184.485C312.347 184.485 313.023 184.953 313.504 185.577L312.854 186.175C312.438 185.603 311.905 185.356 311.255 185.356C309.916 185.356 309.084 186.383 309.084 187.774C309.084 189.165 309.916 190.205 311.255 190.205C311.905 190.205 312.438 189.945 312.854 189.386L313.504 189.984C313.023 190.608 312.347 191.076 311.203 191.076ZM317.705 191.076C315.846 191.076 314.507 189.737 314.507 187.774C314.507 185.954 315.807 184.485 317.601 184.485C319.499 184.485 320.617 185.967 320.617 187.852V188.099H315.534C315.612 189.282 316.444 190.27 317.796 190.27C318.511 190.27 319.239 189.984 319.733 189.477L320.201 190.114C319.577 190.738 318.732 191.076 317.705 191.076ZM319.655 187.384C319.642 186.448 319.018 185.291 317.588 185.291C316.249 185.291 315.586 186.422 315.534 187.384H319.655ZM324.185 191.076C323.158 191.076 322.287 190.764 321.65 190.088L322.157 189.386C322.573 189.867 323.366 190.283 324.224 190.283C325.186 190.283 325.706 189.828 325.706 189.204C325.706 187.683 321.819 188.619 321.819 186.292C321.819 185.317 322.664 184.485 324.159 184.485C325.225 184.485 325.979 184.888 326.486 185.395L326.031 186.071C325.654 185.616 324.965 185.278 324.159 185.278C323.301 185.278 322.768 185.707 322.768 186.266C322.768 187.644 326.655 186.734 326.655 189.178C326.655 190.231 325.81 191.076 324.185 191.076ZM328.759 191.05C328.369 191.05 328.044 190.725 328.044 190.335C328.044 189.945 328.369 189.62 328.759 189.62C329.149 189.62 329.474 189.945 329.474 190.335C329.474 190.725 329.149 191.05 328.759 191.05Z" fill="#3D454D"/>
<path fill-rule="evenodd" clip-rule="evenodd" d="M390.012 46.0363L388.884 44.9082L385.5 48.2926L382.115 44.9082L380.987 46.0363L384.372 49.4207L380.987 52.8052L382.115 53.9333L385.5 50.5488L388.884 53.9333L390.012 52.8052L386.628 49.4207L390.012 46.0363Z" fill="#A8B2BB"/>
<path opacity="0.5" fill-rule="evenodd" clip-rule="evenodd" d="M19.0026 80.9204V79.9204H413.995V80.9204H19.0026Z" fill="#637785"/>
<path d="M53.234 54.9204H52.072V47.2344L48.894 54.9204H48.418L45.254 47.2344V54.9204H44.092V45.5824H45.758L48.656 52.6104L51.568 45.5824H53.234V54.9204ZM58.4223 55.0884C56.4203 55.0884 54.9783 53.6464 54.9783 51.5324C54.9783 49.5724 56.3783 47.9904 58.3103 47.9904C60.3543 47.9904 61.5583 49.5864 61.5583 51.6164V51.8824H56.0843C56.1683 53.1564 57.0643 54.2204 58.5203 54.2204C59.2903 54.2204 60.0743 53.9124 60.6063 53.3664L61.1103 54.0524C60.4383 54.7244 59.5283 55.0884 58.4223 55.0884ZM60.5223 51.1124C60.5083 50.1044 59.8363 48.8584 58.2963 48.8584C56.8543 48.8584 56.1403 50.0764 56.0843 51.1124H60.5223ZM66.311 55.0884C64.309 55.0884 62.867 53.6464 62.867 51.5324C62.867 49.5724 64.267 47.9904 66.199 47.9904C68.243 47.9904 69.447 49.5864 69.447 51.6164V51.8824H63.973C64.057 53.1564 64.953 54.2204 66.409 54.2204C67.179 54.2204 67.963 53.9124 68.495 53.3664L68.999 54.0524C68.327 54.7244 67.417 55.0884 66.311 55.0884ZM68.411 51.1124C68.397 50.1044 67.725 48.8584 66.185 48.8584C64.743 48.8584 64.029 50.0764 63.973 51.1124H68.411ZM72.8557 55.0884C71.8617 55.0884 71.3577 54.5144 71.3577 53.5064V49.0824H70.2377V48.1584H71.3577V46.3104H72.4077V48.1584H73.7797V49.0824H72.4077V53.2824C72.4077 53.7864 72.6317 54.1504 73.0937 54.1504C73.3877 54.1504 73.6677 54.0244 73.8077 53.8704L74.1157 54.6544C73.8497 54.9064 73.4717 55.0884 72.8557 55.0884ZM83.3383 55.0884C80.6503 55.0884 78.5363 53.1284 78.5363 50.2584C78.5363 47.3884 80.6503 45.4284 83.3383 45.4284C84.9903 45.4284 86.1383 46.2264 86.8803 47.2764L85.9003 47.8224C85.3683 47.0384 84.4023 46.4644 83.3383 46.4644C81.2943 46.4644 79.7403 48.0324 79.7403 50.2584C79.7403 52.4704 81.2943 54.0524 83.3383 54.0524C84.4023 54.0524 85.3683 53.4924 85.9003 52.6944L86.8943 53.2404C86.1103 54.3044 84.9903 55.0884 83.3383 55.0884ZM91.2872 55.0884C89.2292 55.0884 87.9412 53.4924 87.9412 51.5324C87.9412 49.5724 89.2292 47.9904 91.2872 47.9904C93.3452 47.9904 94.6332 49.5724 94.6332 51.5324C94.6332 53.4924 93.3452 55.0884 91.2872 55.0884ZM91.2872 54.1504C92.7292 54.1504 93.5272 52.9184 93.5272 51.5324C93.5272 50.1604 92.7292 48.9284 91.2872 48.9284C89.8452 48.9284 89.0332 50.1604 89.0332 51.5324C89.0332 52.9184 89.8452 54.1504 91.2872 54.1504ZM97.3949 54.9204H96.3449V48.1584H97.3949V49.2504C97.9409 48.5364 98.7249 48.0184 99.6489 48.0184V49.0964C99.5229 49.0684 99.3969 49.0544 99.2289 49.0544C98.5849 49.0544 97.7029 49.5864 97.3949 50.1324V54.9204ZM104.298 55.0884C103.374 55.0884 102.562 54.6544 102.016 53.8984V57.4964H100.966V48.1584H102.016V49.1664C102.506 48.4804 103.346 47.9904 104.298 47.9904C106.076 47.9904 107.308 49.3344 107.308 51.5324C107.308 53.7164 106.076 55.0884 104.298 55.0884ZM104.032 54.1504C105.39 54.1504 106.202 53.0304 106.202 51.5324C106.202 50.0344 105.39 48.9284 104.032 48.9284C103.206 48.9284 102.38 49.4184 102.016 50.0064V53.0584C102.38 53.6464 103.206 54.1504 104.032 54.1504ZM110.322 54.9204H109.272V49.0824H108.152V48.1584H109.272V47.6404C109.272 46.2544 110.028 45.4424 111.232 45.4424C111.764 45.4424 112.24 45.5684 112.66 45.9604L112.226 46.6464C112.002 46.4504 111.736 46.3104 111.386 46.3104C110.7 46.3104 110.322 46.7864 110.322 47.6404V48.1584H111.694V49.0824H110.322V54.9204ZM115.897 55.0884C113.839 55.0884 112.551 53.4924 112.551 51.5324C112.551 49.5724 113.839 47.9904 115.897 47.9904C117.955 47.9904 119.243 49.5724 119.243 51.5324C119.243 53.4924 117.955 55.0884 115.897 55.0884ZM115.897 54.1504C117.339 54.1504 118.137 52.9184 118.137 51.5324C118.137 50.1604 117.339 48.9284 115.897 48.9284C114.455 48.9284 113.643 50.1604 113.643 51.5324C113.643 52.9184 114.455 54.1504 115.897 54.1504ZM122.004 54.9204H120.954V45.5824H122.004V54.9204ZM130.049 54.9204H128.999V53.9124C128.495 54.5984 127.669 55.0884 126.717 55.0884C124.953 55.0884 123.707 53.7444 123.707 51.5464C123.707 49.3904 124.939 47.9904 126.717 47.9904C127.627 47.9904 128.453 48.4384 128.999 49.1804V45.5824H130.049V54.9204ZM126.969 54.1504C127.809 54.1504 128.621 53.6744 128.999 53.0864V50.0204C128.621 49.4324 127.809 48.9284 126.969 48.9284C125.611 48.9284 124.799 50.0484 124.799 51.5464C124.799 53.0444 125.611 54.1504 126.969 54.1504ZM135.204 55.0884C133.202 55.0884 131.76 53.6464 131.76 51.5324C131.76 49.5724 133.16 47.9904 135.092 47.9904C137.136 47.9904 138.34 49.5864 138.34 51.6164V51.8824H132.866C132.95 53.1564 133.846 54.2204 135.302 54.2204C136.072 54.2204 136.856 53.9124 137.388 53.3664L137.892 54.0524C137.22 54.7244 136.31 55.0884 135.204 55.0884ZM137.304 51.1124C137.29 50.1044 136.618 48.8584 135.078 48.8584C133.636 48.8584 132.922 50.0764 132.866 51.1124H137.304ZM141.09 54.9204H140.04V48.1584H141.09V49.2504C141.636 48.5364 142.42 48.0184 143.344 48.0184V49.0964C143.218 49.0684 143.092 49.0544 142.924 49.0544C142.28 49.0544 141.398 49.5864 141.09 50.1324V54.9204Z" fill="#3D454C"/>
</g>
<defs>
<filter id="filter0_d_392_11209" x="0" y="0.92041" width="437" height="429" filterUnits="userSpaceOnUse" color-interpolation-filters="sRGB">
<feFlood flood-opacity="0" result="BackgroundImageFix"/>
<feColorMatrix in="SourceAlpha" type="matrix" values="0 0 0 0 0 0 0 0 0 0 0 0 0 0 0 0 0 0 127 0" result="hardAlpha"/>
<feOffset dx="2" dy="4"/>
<feGaussianBlur stdDeviation="10"/>
<feComposite in2="hardAlpha" operator="out"/>
<feColorMatrix type="matrix" values="0 0 0 0 0 0 0 0 0 0 0 0 0 0 0 0 0 0 0.25 0"/>
<feBlend mode="normal" in2="BackgroundImageFix" result="effect1_dropShadow_392_11209"/>
<feBlend mode="normal" in="SourceGraphic" in2="effect1_dropShadow_392_11209" result="shape"/>
</filter>
<filter id="filter1_d_392_11209" x="18" y="16.9204" width="397" height="393" filterUnits="userSpaceOnUse" color-interpolation-filters="sRGB">
<feFlood flood-opacity="0" result="BackgroundImageFix"/>
<feColorMatrix in="SourceAlpha" type="matrix" values="0 0 0 0 0 0 0 0 0 0 0 0 0 0 0 0 0 0 127 0" result="hardAlpha"/>
<feOffset dy="4"/>
<feColorMatrix type="matrix" values="0 0 0 0 0 0 0 0 0 0 0 0 0 0 0 0 0 0 0.3 0"/>
<feBlend mode="normal" in2="BackgroundImageFix" result="effect1_dropShadow_392_11209"/>
<feBlend mode="normal" in="SourceGraphic" in2="effect1_dropShadow_392_11209" result="shape"/>
</filter>
<filter id="filter2_di_392_11209" x="12" y="80.9204" width="408" height="354" filterUnits="userSpaceOnUse" color-interpolation-filters="sRGB">
<feFlood flood-opacity="0" result="BackgroundImageFix"/>
<feColorMatrix in="SourceAlpha" type="matrix" values="0 0 0 0 0 0 0 0 0 0 0 0 0 0 0 0 0 0 127 0" result="hardAlpha"/>
<feOffset dy="1"/>
<feColorMatrix type="matrix" values="0 0 0 0 0.792157 0 0 0 0 0.815686 0 0 0 0 0.835294 0 0 0 0.75 0"/>
<feBlend mode="normal" in2="BackgroundImageFix" result="effect1_dropShadow_392_11209"/>
<feBlend mode="normal" in="SourceGraphic" in2="effect1_dropShadow_392_11209" result="shape"/>
<feColorMatrix in="SourceAlpha" type="matrix" values="0 0 0 0 0 0 0 0 0 0 0 0 0 0 0 0 0 0 127 0" result="hardAlpha"/>
<feOffset dy="2"/>
<feComposite in2="hardAlpha" operator="arithmetic" k2="-1" k3="1"/>
<feColorMatrix type="matrix" values="0 0 0 0 0 0 0 0 0 0 0 0 0 0 0 0 0 0 0.07 0"/>
<feBlend mode="normal" in2="shape" result="effect2_innerShadow_392_11209"/>
</filter>
<linearGradient id="paint0_linear_392_11209" x1="347" y1="250.92" x2="347" y2="238.92" gradientUnits="userSpaceOnUse">
<stop stop-color="#EEEEEE"/>
<stop offset="1" stop-color="#ECECEC"/>
<stop offset="2" stop-color="#F4F4F4"/>
<stop offset="3" stop-color="white"/>
</linearGradient>
<linearGradient id="paint1_linear_392_11209" x1="394" y1="374.921" x2="394" y2="339.921" gradientUnits="userSpaceOnUse">
<stop stop-opacity="0.15"/>
<stop offset="1" stop-color="white" stop-opacity="0.15"/>
</linearGradient>
</defs>
</svg>
