<svg width="211" height="66" viewBox="0 0 211 66" fill="none" xmlns="http://www.w3.org/2000/svg">
<path fill-rule="evenodd" clip-rule="evenodd" d="M22.3311 5.917C23.9391 5.917 25.2901 4.567 25.2901 2.958C25.2901 1.297 23.9391 0 22.3311 0C20.6701 0 19.3721 1.297 19.3721 2.958C19.3721 4.567 20.6701 5.917 22.3311 5.917Z" fill="#3554E3"/>
<mask id="mask0_210_3155" style="mask-type:luminance" maskUnits="userSpaceOnUse" x="202" y="29" width="9" height="9">
<path fill-rule="evenodd" clip-rule="evenodd" d="M202.265 29.0625H210.203V37.0035H202.265V29.0625Z" fill="white"/>
</mask>
<g mask="url(#mask0_210_3155)">
<path fill-rule="evenodd" clip-rule="evenodd" d="M206.21 29.0625C203.978 29.0625 202.265 30.8285 202.265 33.0595C202.265 35.2915 203.978 37.0035 206.21 37.0035C208.441 37.0035 210.204 35.2915 210.204 33.0595C210.204 30.8285 208.441 29.0625 206.21 29.0625Z" fill="#3554E3"/>
</g>
<path fill-rule="evenodd" clip-rule="evenodd" d="M178.095 18.3681C178.045 18.7831 177.526 20.5491 177.11 22.0011C175.709 20.9631 175.086 19.2501 175.086 17.4341C175.086 15.6171 176.123 14.6831 176.955 14.6831C177.161 14.6831 177.628 14.7871 177.941 15.1501C178.407 15.7221 178.459 16.9161 178.095 18.3681ZM173.115 30.4611C171.712 31.7581 170.104 32.4331 168.338 32.4331C165.588 32.4331 163.98 30.7721 163.98 28.2811C163.98 27.5541 164.136 26.5681 164.342 25.7901C164.809 24.2321 165.226 22.7791 165.693 21.0151C166.419 18.4721 167.405 16.6041 168.651 15.3581C169.481 14.5801 170.362 14.1131 171.402 13.9051C170.883 14.9431 170.622 16.6561 170.622 17.8491C170.622 20.7041 171.608 22.8841 173.581 24.8551C174.204 25.4781 174.93 25.9981 175.761 26.4651C175.033 28.1251 174.153 29.4741 173.115 30.4611ZM54.6617 20.6511C54.2457 22.3641 53.9876 23.1951 53.4166 25.2201C52.4817 28.5931 50.8727 32.4331 46.6697 32.4331C42.4137 32.4331 40.5447 29.0591 41.9456 24.2321C42.2057 23.3501 42.4666 22.2091 42.8806 20.9631C43.6087 18.3681 44.7477 16.4481 46.3066 15.2551C47.8116 14.1131 49.2636 13.8531 50.2517 13.8531C52.0667 13.8531 53.4166 14.3721 54.1936 15.3581C55.0766 16.5521 55.2826 18.4721 54.6617 20.6511ZM113.266 20.8071C114.459 16.6561 117.106 13.8021 121.103 13.8021C123.543 13.8021 125.1 15.4101 124.58 17.6941C124.268 19.1471 123.491 20.0811 122.401 20.7041C121.103 21.4821 119.182 21.8461 116.535 21.8461H113.007C113.057 21.5341 113.161 21.1711 113.266 20.8071ZM200.8 19.8101C200.074 18.5141 198.62 16.4371 198.414 15.3471C198.363 15.0361 198.258 14.4651 199.192 13.3751C200.023 12.4411 199.866 11.0411 198.933 10.2101C198.102 9.48314 196.598 9.53513 195.87 10.4181L184.301 24.1781C183.265 24.1621 181.802 24.0141 181.262 23.8181C181.833 21.7411 182.352 19.9261 182.456 19.4061C183.337 15.7221 182.352 13.5421 181.416 12.3471C180.326 10.9991 178.718 10.2211 176.955 10.2211C176.123 10.2211 175.344 10.4281 174.567 10.7911C174.254 9.90913 173.581 9.33814 172.335 9.33814C170.727 9.33814 169.117 9.59714 167.405 10.5841C165.64 11.5691 163.772 13.2821 161.282 16.1881L154.171 24.6481C154.151 24.6721 154.138 24.6991 154.118 24.7221L149.289 30.4611C147.783 32.2241 147.211 32.3811 146.693 32.3811C146.073 32.3811 145.397 31.8621 145.397 31.0321C145.397 30.4611 145.551 29.7861 145.864 29.0591C147.576 25.0631 150.014 20.0811 152.092 15.2551C152.559 14.1651 152.454 13.1791 151.521 12.5561L148.562 10.7391L149.237 9.96113C150.014 9.02613 150.014 7.62513 149.08 6.84714C148.147 6.01614 146.745 6.06813 145.864 7.10613L134.533 20.5091C134.521 20.5231 134.506 20.5331 134.492 20.5491L133.463 21.7761L133.096 22.2091C133.09 22.2171 133.086 22.2251 133.079 22.2321L130.704 25.0631C125.41 31.1351 121.882 32.4331 117.782 32.4331C115.239 32.4331 113.369 31.7581 112.436 30.4611C111.657 29.4221 111.449 27.9701 111.761 26.3081H116.535C119.961 26.3081 122.608 25.7381 124.633 24.5971C126.708 23.4021 128.108 21.4821 128.887 18.9391C129.198 17.7461 129.302 16.5521 129.094 15.4101C128.574 11.5691 124.839 9.33814 121.311 9.33814C119.234 9.33814 117.21 9.64913 115.341 10.6351C113.369 11.6221 111.397 13.3351 109.165 15.9811L106.395 19.2701C106.384 19.2821 106.371 19.2911 106.361 19.3031L96.6546 30.8231C95.7726 31.8101 95.0446 32.3811 94.2656 32.3811C93.7986 32.3811 93.4367 32.1741 93.1757 31.8621C92.8657 31.4461 92.7617 30.8231 92.9697 30.1491L97.4336 13.8021H102.518C103.764 13.8021 104.75 12.8141 104.75 11.5691C104.75 10.3761 103.764 9.33814 102.518 9.33814H98.6777L99.9237 4.82214C100.286 3.63014 99.5606 2.43514 98.3666 2.07214C97.1726 1.76114 95.9786 2.48814 95.6156 3.63014L94.1116 9.07913C93.1757 11.8291 92.1386 13.1261 88.8687 17.0181L87.7696 18.3251C87.7556 18.3411 87.7386 18.3511 87.7256 18.3681L82.6386 24.3891L80.3557 26.9831C80.1467 25.2711 79.4196 23.4021 77.3437 19.8731C76.6187 18.5761 75.1637 16.5001 74.9576 15.4101C74.9066 15.0981 74.8017 14.5271 75.7356 13.4371C76.5667 12.5041 76.4096 11.1031 75.4766 10.2721C74.6456 9.54513 73.1406 9.59714 72.4137 10.4801L66.0876 18.0041C66.0506 18.0401 66.0096 18.0691 65.9756 18.1081L60.2156 24.9601C59.0737 26.2571 58.1387 27.2951 57.2047 28.1251L57.6716 26.6211C58.2947 24.3891 58.5527 23.5071 58.9697 21.8461C59.4366 20.1331 59.5926 18.5241 59.4366 17.0181C59.2286 15.3061 58.6566 13.8531 57.7236 12.6071C56.5816 11.1541 54.3496 9.39014 50.2516 9.39014C48.8496 9.39014 46.9296 9.70114 44.9046 10.8441C44.6466 10.3761 44.1777 10.0141 43.6576 9.85714C42.4667 9.49314 41.2206 10.1681 40.8556 11.3621C40.3886 12.8671 38.8847 15.6171 36.9137 18.0061L31.2036 24.8041C31.2027 24.8051 31.2026 24.8051 31.2016 24.8061L27.3596 29.3711C26.3716 30.5131 25.0756 32.2771 23.8296 32.2771L29.1226 13.0231C29.2796 12.4001 29.3306 12.0891 29.3306 11.8811C29.3306 10.7391 28.3456 9.75414 27.0466 9.75414C26.4237 9.75414 25.7506 10.0141 25.3336 10.5321L13.9696 24.0251C13.9476 24.0521 13.9336 24.0831 13.9116 24.1101L8.25765 30.8231C7.37665 31.8101 6.64965 32.3811 5.86965 32.3811C5.40365 32.3811 5.04065 32.1741 4.78065 31.8621C4.46965 31.4461 4.36565 30.8231 4.57365 30.1491L9.03665 13.8021H14.1216C15.3676 13.8021 16.3536 12.8141 16.3536 11.5691C16.3536 10.3761 15.3676 9.33814 14.1216 9.33814H10.2816L11.5276 4.82214C11.8906 3.63014 11.1646 2.43514 9.97065 2.07214C8.77765 1.76114 7.58265 2.48814 7.22065 3.63014L5.71565 9.07913L2.18565 21.8971L0.264649 28.9551C-0.303351 30.9791 0.0586491 33.0041 1.19965 34.5601C2.28965 36.0141 4.00265 36.8451 5.86965 36.8451C8.77765 36.8451 10.5416 34.9241 11.7876 33.5231L17.2486 27.0221C17.2626 27.0081 17.2776 26.9981 17.2906 26.9831L22.1686 21.1711C20.8706 25.8931 19.3146 31.6541 19.3146 31.6541C19.2097 32.0691 19.1076 32.8471 19.1076 33.2641C19.1076 34.9751 20.4046 36.8961 23.1546 36.8961C26.6847 36.8961 28.8126 34.5601 31.4586 31.3941L34.6676 27.5681C34.6716 27.5631 34.6776 27.5581 34.6816 27.5541L37.1716 24.5971C31.9816 43.3831 31.2036 45.9781 31.2036 46.0291C30.8916 47.2231 31.5667 48.4181 32.7607 48.7811C32.9687 48.8321 33.1756 48.8321 33.3836 48.8321C34.3686 48.8321 35.2527 48.2101 35.5117 47.2231C35.5117 47.1721 36.1347 44.8371 39.2467 33.8351C41.0647 36.0651 44.1777 36.8451 46.8256 36.8451C52.1707 36.8451 57.1006 34.9751 63.5366 27.9181L65.7437 25.2811L71.4286 18.5241C71.7906 19.3031 72.2076 20.0811 73.5036 22.1571C75.7356 25.9451 75.9436 26.9831 75.9436 28.1771C75.9436 29.2151 75.4766 30.2541 74.6976 31.0321C74.1266 31.6021 73.1406 32.4331 71.3236 32.4331C69.6636 32.4331 68.2636 31.6541 67.8466 31.2911C66.8616 30.5131 65.4606 30.7211 64.7337 31.7061C63.9537 32.6921 64.1617 34.0941 65.0956 34.8201C66.0836 35.5981 68.7306 36.8961 71.3236 36.8961C73.3996 36.8961 75.4246 36.5331 77.8636 35.0801C80.0426 33.6791 82.3786 31.3941 85.9076 27.3981L85.9866 27.3061C86.0476 27.2501 86.1136 27.2031 86.1706 27.1391L90.5816 21.8971L88.6607 28.9551C88.0897 30.9791 88.4547 33.0041 89.5966 34.5601C90.6866 36.0141 92.3987 36.8451 94.2656 36.8451C97.1726 36.8451 98.9376 34.9241 100.184 33.5231L105.129 27.6361C105.159 27.6061 105.194 27.5861 105.223 27.5541L107.557 24.7521C106.727 27.9181 107.194 30.9281 108.855 33.1591C110.153 34.8721 112.695 36.8961 117.782 36.8961C120.842 36.8961 123.387 36.2731 125.877 34.9751C128.627 33.5751 130.963 31.4991 133.869 28.1771L137.71 23.6101C137.735 23.5821 137.751 23.5491 137.774 23.5191L145.76 14.0601L147.264 14.9431C145.656 18.7831 143.632 22.9871 141.763 27.2421C141.244 28.4361 140.725 29.9421 140.725 31.4991C140.725 32.9521 141.192 34.2491 142.075 35.2361C143.061 36.2731 144.514 36.8961 146.073 36.8961C149.133 36.8961 151.002 35.3391 154.426 31.2391L157.401 27.6951C157.414 27.6811 157.428 27.6731 157.441 27.6581L159.242 25.5021L160.087 24.4971C160.087 24.5441 160.085 24.5501 160.035 24.7001C159.154 27.6581 159.308 31.0321 161.229 33.6791C162.785 35.7551 165.38 36.8961 168.338 36.8961C171.245 36.8961 173.944 35.8051 176.123 33.7301C177.68 32.2771 178.979 30.3561 179.912 28.0731C181.885 28.5931 183.129 28.6961 184.688 28.6961C185.829 28.6961 186.969 28.1771 187.491 27.5541L192.783 21.1711C192.958 20.9611 193.082 20.7341 193.168 20.5021L194.885 18.4621C195.247 19.2401 195.664 20.0181 196.96 22.0951C199.192 25.8831 199.4 26.9211 199.4 28.1151C199.4 29.1521 198.933 30.1911 198.154 30.9701C197.583 31.5401 196.598 32.3711 194.781 32.3711C193.119 32.3711 191.719 31.5921 191.303 31.2281C190.317 30.4501 188.916 30.6581 188.19 31.6431C187.41 32.6301 187.618 34.0311 188.552 34.7581C189.539 35.5361 192.186 36.8341 194.781 36.8341C196.856 36.8341 198.95 36.5811 201.319 35.0171C204.837 32.0361 203.811 26.9211 203.811 26.9211C203.603 25.2091 202.877 23.3401 200.8 19.8101Z" fill="#3554E3"/>
<path fill-rule="evenodd" clip-rule="evenodd" d="M58.6588 62.9512L59.0988 60.8242C58.7878 60.2782 58.4478 60.0602 58.0518 60.0602C57.0478 60.0602 56.1268 61.3202 56.1268 62.5952C56.1268 63.4502 56.4918 63.8662 57.0718 63.8662C57.6198 63.8662 58.1588 63.5392 58.6588 62.9512ZM55.7578 62.6602C55.7578 61.0312 56.8868 59.7402 58.0568 59.7402C58.5548 59.7402 58.9268 60.0142 59.1488 60.4302H59.1828L59.3458 59.8462H59.6478L58.7978 64.0822H58.4928L58.5888 63.4072H58.5548C58.1188 63.8612 57.5748 64.1872 56.9928 64.1872C56.2478 64.1872 55.7578 63.6532 55.7578 62.6602Z" fill="#3554E3"/>
<mask id="mask1_210_3155" style="mask-type:luminance" maskUnits="userSpaceOnUse" x="64" y="59" width="4" height="7">
<path fill-rule="evenodd" clip-rule="evenodd" d="M64.0254 59.7402H67.9154V66H64.0254V59.7402Z" fill="white"/>
</mask>
<g mask="url(#mask1_210_3155)">
<path fill-rule="evenodd" clip-rule="evenodd" d="M66.9264 62.9512L67.3664 60.8242C67.0544 60.2782 66.7154 60.0602 66.3194 60.0602C65.3154 60.0602 64.3934 61.3202 64.3934 62.5952C64.3934 63.4502 64.7594 63.8662 65.3394 63.8662C65.8074 63.8662 66.4244 63.5392 66.9264 62.9512ZM66.8564 63.3912H66.8374C66.4024 63.8452 65.8424 64.1872 65.2604 64.1872C64.5154 64.1872 64.0254 63.6532 64.0254 62.6602C64.0254 61.0312 65.1544 59.7402 66.3244 59.7402C66.8224 59.7402 67.1944 60.0142 67.4164 60.4302H67.4494L67.6134 59.8462H67.9154L66.6844 66.0002H66.3214L66.6294 64.4612L66.8564 63.3912Z" fill="#3554E3"/>
</g>
<path fill-rule="evenodd" clip-rule="evenodd" d="M75.2493 64.0822H74.9433L75.0383 63.3912H75.0033C74.4893 63.8382 74.0103 64.1872 73.4963 64.1872C72.7723 64.1872 72.4873 63.7682 72.4873 63.1512C72.4873 62.9422 72.5053 62.8242 72.5583 62.5802L73.1043 59.8462H73.4683L72.9253 62.5312C72.8733 62.7852 72.8533 62.9092 72.8533 63.0782C72.8533 63.5962 73.0743 63.8612 73.6053 63.8612C73.9783 63.8612 74.4763 63.5912 75.1073 62.9712L75.7333 59.8462H76.0983L75.2493 64.0822Z" fill="#3554E3"/>
<path fill-rule="evenodd" clip-rule="evenodd" d="M81.2222 58.7443L82.6132 57.4653L82.8562 57.7643L81.4092 58.9673L81.2222 58.7443ZM81.2982 59.8463H81.6612L80.8122 64.0823H80.4482L81.2982 59.8463Z" fill="#3554E3"/>
<path fill-rule="evenodd" clip-rule="evenodd" d="M99.6808 61.6917C99.7148 61.5247 99.7327 61.3727 99.7327 61.1867C99.7327 60.6177 99.4827 60.0537 98.7617 60.0537C98.0137 60.0537 97.2808 60.7297 97.0538 61.6917H99.6808ZM98.7957 59.7407C99.7127 59.7407 100.07 60.3717 100.07 61.2407C100.07 61.5397 100.005 61.8117 99.9497 61.9827H96.9958C96.7668 63.3107 97.4168 63.8757 98.2628 63.8757C98.6367 63.8757 99.0157 63.6867 99.3217 63.4657L99.4827 63.7297C99.1447 63.9767 98.6918 64.1877 98.2057 64.1877C97.2247 64.1877 96.5938 63.5767 96.5938 62.4417C96.5938 60.8337 97.7077 59.7407 98.7957 59.7407Z" fill="#3554E3"/>
<path fill-rule="evenodd" clip-rule="evenodd" d="M105.2 59.8457H105.505L105.41 60.5207H105.445C105.915 60.0737 106.44 59.7407 106.856 59.7407C107.555 59.7407 107.803 60.1497 107.833 60.6237C108.419 60.0577 108.96 59.7407 109.377 59.7407C110.084 59.7407 110.37 60.1587 110.37 60.7757C110.37 60.9857 110.352 61.1037 110.3 61.3467L109.753 64.0817H109.389L109.932 61.3967C109.984 61.1417 110.004 61.0187 110.004 60.8497C110.004 60.3317 109.783 60.0657 109.267 60.0657C108.995 60.0657 108.449 60.3357 107.861 60.9567L107.232 64.0817H106.87L107.413 61.3967C107.465 61.1417 107.483 61.0187 107.483 60.8497C107.483 60.3317 107.263 60.0657 106.75 60.0657C106.475 60.0657 105.929 60.3357 105.342 60.9567L104.715 64.0817H104.351L105.2 59.8457Z" fill="#3554E3"/>
<mask id="mask2_210_3155" style="mask-type:luminance" maskUnits="userSpaceOnUse" x="114" y="59" width="5" height="8">
<path fill-rule="evenodd" clip-rule="evenodd" d="M114.487 59.7407H118.76V66.0003H114.487V59.7407Z" fill="white"/>
</mask>
<g mask="url(#mask2_210_3155)">
<path fill-rule="evenodd" clip-rule="evenodd" d="M115.879 60.8567L115.419 63.1347C115.731 63.6667 116.067 63.8667 116.466 63.8667C117.47 63.8667 118.392 62.6067 118.392 61.3337C118.392 60.4847 118.025 60.0607 117.445 60.0607C116.978 60.0607 116.36 60.3887 115.879 60.8567ZM115.143 64.4607L114.852 66.0007H114.487L115.719 59.8457H116.025L115.933 60.4487H115.966C116.418 60.0807 116.941 59.7407 117.525 59.7407C118.27 59.7407 118.76 60.2827 118.76 61.2677C118.76 62.8967 117.63 64.1877 116.46 64.1877C115.966 64.1877 115.585 63.9007 115.346 63.5047H115.327L115.143 64.4607Z" fill="#3554E3"/>
</g>
<path fill-rule="evenodd" clip-rule="evenodd" d="M124.074 58.5323C124.074 58.3003 124.255 58.1353 124.445 58.1353C124.609 58.1353 124.741 58.2543 124.741 58.4383C124.741 58.6593 124.562 58.8203 124.372 58.8203C124.207 58.8203 124.074 58.7043 124.074 58.5323ZM123.96 59.8453H124.323L123.472 64.0823H123.109L123.96 59.8453Z" fill="#3554E3"/>
<path fill-rule="evenodd" clip-rule="evenodd" d="M131.773 61.6917C131.806 61.5247 131.825 61.3727 131.825 61.1867C131.825 60.6177 131.574 60.0537 130.854 60.0537C130.105 60.0537 129.372 60.7297 129.146 61.6917H131.773ZM130.887 59.7407C131.804 59.7407 132.162 60.3717 132.162 61.2407C132.162 61.5397 132.096 61.8117 132.042 61.9827H129.087C128.859 63.3107 129.509 63.8757 130.354 63.8757C130.728 63.8757 131.108 63.6867 131.414 63.4657L131.574 63.7297C131.237 63.9767 130.784 64.1877 130.297 64.1877C129.317 64.1877 128.685 63.5767 128.685 62.4417C128.685 60.8337 129.8 59.7407 130.887 59.7407Z" fill="#3554E3"/>
<path fill-rule="evenodd" clip-rule="evenodd" d="M136.029 63.8597L139.195 60.1617H137.034L137.102 59.8457H139.726L139.695 60.0697L136.529 63.7667H139.015L138.946 64.0827H135.998L136.029 63.8597Z" fill="#3554E3"/>
<path fill-rule="evenodd" clip-rule="evenodd" d="M146.357 62.9512L146.798 60.8242C146.486 60.2782 146.147 60.0602 145.751 60.0602C144.747 60.0602 143.825 61.3202 143.825 62.5952C143.825 63.4502 144.19 63.8662 144.77 63.8662C145.318 63.8662 145.858 63.5392 146.357 62.9512ZM143.456 62.6602C143.456 61.0312 144.585 59.7402 145.755 59.7402C146.253 59.7402 146.625 60.0142 146.848 60.4302H146.881L147.044 59.8462H147.346L146.496 64.0822H146.192L146.287 63.4072H146.253C145.817 63.8612 145.273 64.1872 144.691 64.1872C143.947 64.1872 143.456 63.6532 143.456 62.6602Z" fill="#3554E3"/>
</svg>
