<svg width="375" height="667" viewBox="0 0 375 667" fill="none" xmlns="http://www.w3.org/2000/svg">
<rect width="375" height="667" fill="white"/>
<rect width="375" height="334" fill="url(#paint0_linear_0_10823)"/>
<path d="M122.453 394C122.068 394 121.786 393.911 121.609 393.734C121.432 393.557 121.344 393.276 121.344 392.891V375.656C121.344 375.271 121.432 374.995 121.609 374.828C121.786 374.651 122.068 374.562 122.453 374.562H127.953C130.203 374.562 131.859 375 132.922 375.875C133.984 376.74 134.516 377.938 134.516 379.469C134.516 380.385 134.229 381.229 133.656 382C133.083 382.771 132.365 383.333 131.5 383.688L131.531 383.797C132.26 383.943 132.906 384.24 133.469 384.688C134.042 385.135 134.484 385.682 134.797 386.328C135.12 386.974 135.281 387.651 135.281 388.359C135.281 390.182 134.703 391.578 133.547 392.547C132.391 393.516 130.656 394 128.344 394H122.453ZM127.531 382.297C128.344 382.297 128.974 382.104 129.422 381.719C129.88 381.323 130.109 380.823 130.109 380.219C130.109 378.844 129.266 378.156 127.578 378.156H125.625V382.297H127.531ZM128.344 390.359C129.146 390.359 129.771 390.167 130.219 389.781C130.667 389.385 130.891 388.828 130.891 388.109C130.891 387.401 130.63 386.865 130.109 386.5C129.599 386.135 128.859 385.953 127.891 385.953H125.625V390.359H128.344ZM139.203 377.078C138.62 377.078 138.193 377.005 137.922 376.859C137.661 376.714 137.531 376.49 137.531 376.188V373.953C137.531 373.651 137.667 373.427 137.938 373.281C138.208 373.125 138.63 373.047 139.203 373.047H139.969C140.542 373.047 140.964 373.125 141.234 373.281C141.505 373.427 141.641 373.651 141.641 373.953V376.188C141.641 376.49 141.505 376.714 141.234 376.859C140.974 377.005 140.552 377.078 139.969 377.078H139.203ZM139.203 394.047C138.089 394.047 137.531 393.755 137.531 393.172V380.297C137.531 380.005 137.667 379.786 137.938 379.641C138.208 379.495 138.63 379.422 139.203 379.422H139.969C140.542 379.422 140.964 379.495 141.234 379.641C141.505 379.786 141.641 380.005 141.641 380.297V393.172C141.641 393.755 141.083 394.047 139.969 394.047H139.203ZM151.688 394.234C149.25 394.234 147.432 393.583 146.234 392.281C145.036 390.969 144.438 389.151 144.438 386.828C144.438 384.214 145.036 382.297 146.234 381.078C147.432 379.859 149.083 379.25 151.188 379.25C152.583 379.25 153.724 379.568 154.609 380.203C155.505 380.839 156.156 381.693 156.562 382.766C156.979 383.839 157.188 385.052 157.188 386.406C157.188 386.562 157.094 386.771 156.906 387.031C156.729 387.292 156.526 387.526 156.297 387.734C156.068 387.943 155.891 388.047 155.766 388.047H148.688C148.781 389.109 149.094 389.865 149.625 390.312C150.167 390.75 150.917 390.969 151.875 390.969C152.396 390.969 152.865 390.911 153.281 390.797C153.708 390.672 154.161 390.51 154.641 390.312C154.932 390.177 155.13 390.109 155.234 390.109C155.422 390.109 155.625 390.245 155.844 390.516C156.073 390.776 156.266 391.078 156.422 391.422C156.589 391.766 156.672 392.031 156.672 392.219C156.672 392.646 156.38 393.01 155.797 393.312C155.224 393.615 154.542 393.844 153.75 394C152.969 394.156 152.281 394.234 151.688 394.234ZM153.188 385.312C153.188 384.458 153.021 383.776 152.688 383.266C152.354 382.745 151.854 382.484 151.188 382.484C149.812 382.484 148.979 383.427 148.688 385.312H153.188ZM161.656 394.047C160.552 394.047 160 393.755 160 393.172V384.359C160 383.026 159.911 381.917 159.734 381.031C159.682 380.75 159.656 380.552 159.656 380.438C159.656 380.229 159.849 380.062 160.234 379.938C160.63 379.802 161.073 379.703 161.562 379.641C162.062 379.578 162.464 379.547 162.766 379.547C163.089 379.547 163.312 379.667 163.438 379.906C163.573 380.146 163.693 380.495 163.797 380.953L163.891 381.359C164.328 380.776 164.911 380.281 165.641 379.875C166.38 379.458 167.172 379.25 168.016 379.25C169.411 379.25 170.443 379.615 171.109 380.344C171.776 381.073 172.109 382.203 172.109 383.734V393.172C172.109 393.755 171.547 394.047 170.422 394.047H169.656C168.552 394.047 168 393.755 168 393.172V384.359C168 383.797 167.865 383.37 167.594 383.078C167.333 382.786 166.906 382.641 166.312 382.641C165.812 382.641 165.37 382.807 164.984 383.141C164.599 383.474 164.307 383.844 164.109 384.25V393.172C164.109 393.755 163.547 394.047 162.422 394.047H161.656ZM180.016 394.047C179.578 394.047 179.224 394.005 178.953 393.922C178.693 393.839 178.526 393.688 178.453 393.469L174.047 380.531C174.036 380.469 174.016 380.385 173.984 380.281C173.953 380.167 173.938 380.083 173.938 380.031C173.938 379.823 174.073 379.672 174.344 379.578C174.615 379.474 175.042 379.422 175.625 379.422H176.531C176.979 379.422 177.339 379.469 177.609 379.562C177.88 379.646 178.047 379.792 178.109 380L179.734 385.125C179.786 385.312 179.948 385.99 180.219 387.156L180.516 388.484H180.641C180.964 386.849 181.219 385.729 181.406 385.125L183.047 380C183.109 379.792 183.271 379.646 183.531 379.562C183.802 379.469 184.161 379.422 184.609 379.422H185.297C185.87 379.422 186.286 379.474 186.547 379.578C186.818 379.672 186.953 379.823 186.953 380.031C186.953 380.198 186.927 380.365 186.875 380.531L182.453 393.469C182.391 393.677 182.224 393.828 181.953 393.922C181.693 394.005 181.344 394.047 180.906 394.047H180.016ZM195.625 394.234C193.188 394.234 191.37 393.583 190.172 392.281C188.974 390.969 188.375 389.151 188.375 386.828C188.375 384.214 188.974 382.297 190.172 381.078C191.37 379.859 193.021 379.25 195.125 379.25C196.521 379.25 197.661 379.568 198.547 380.203C199.443 380.839 200.094 381.693 200.5 382.766C200.917 383.839 201.125 385.052 201.125 386.406C201.125 386.562 201.031 386.771 200.844 387.031C200.667 387.292 200.464 387.526 200.234 387.734C200.005 387.943 199.828 388.047 199.703 388.047H192.625C192.719 389.109 193.031 389.865 193.562 390.312C194.104 390.75 194.854 390.969 195.812 390.969C196.333 390.969 196.802 390.911 197.219 390.797C197.646 390.672 198.099 390.51 198.578 390.312C198.87 390.177 199.068 390.109 199.172 390.109C199.359 390.109 199.562 390.245 199.781 390.516C200.01 390.776 200.203 391.078 200.359 391.422C200.526 391.766 200.609 392.031 200.609 392.219C200.609 392.646 200.318 393.01 199.734 393.312C199.161 393.615 198.479 393.844 197.688 394C196.906 394.156 196.219 394.234 195.625 394.234ZM197.125 385.312C197.125 384.458 196.958 383.776 196.625 383.266C196.292 382.745 195.792 382.484 195.125 382.484C193.75 382.484 192.917 383.427 192.625 385.312H197.125ZM205.594 394.047C204.49 394.047 203.938 393.755 203.938 393.172V384.359C203.938 383.026 203.849 381.917 203.672 381.031C203.62 380.75 203.594 380.552 203.594 380.438C203.594 380.229 203.786 380.062 204.172 379.938C204.568 379.802 205.01 379.703 205.5 379.641C206 379.578 206.401 379.547 206.703 379.547C207.026 379.547 207.25 379.667 207.375 379.906C207.51 380.146 207.63 380.495 207.734 380.953L207.828 381.359C208.266 380.776 208.849 380.281 209.578 379.875C210.318 379.458 211.109 379.25 211.953 379.25C213.349 379.25 214.38 379.615 215.047 380.344C215.714 381.073 216.047 382.203 216.047 383.734V393.172C216.047 393.755 215.484 394.047 214.359 394.047H213.594C212.49 394.047 211.938 393.755 211.938 393.172V384.359C211.938 383.797 211.802 383.37 211.531 383.078C211.271 382.786 210.844 382.641 210.25 382.641C209.75 382.641 209.307 382.807 208.922 383.141C208.536 383.474 208.245 383.844 208.047 384.25V393.172C208.047 393.755 207.484 394.047 206.359 394.047H205.594ZM220.984 377.078C220.401 377.078 219.974 377.005 219.703 376.859C219.443 376.714 219.312 376.49 219.312 376.188V373.953C219.312 373.651 219.448 373.427 219.719 373.281C219.99 373.125 220.411 373.047 220.984 373.047H221.75C222.323 373.047 222.745 373.125 223.016 373.281C223.286 373.427 223.422 373.651 223.422 373.953V376.188C223.422 376.49 223.286 376.714 223.016 376.859C222.755 377.005 222.333 377.078 221.75 377.078H220.984ZM220.984 394.047C219.87 394.047 219.312 393.755 219.312 393.172V380.297C219.312 380.005 219.448 379.786 219.719 379.641C219.99 379.495 220.411 379.422 220.984 379.422H221.75C222.323 379.422 222.745 379.495 223.016 379.641C223.286 379.786 223.422 380.005 223.422 380.297V393.172C223.422 393.755 222.865 394.047 221.75 394.047H220.984ZM231.422 394.234C230.411 394.234 229.51 393.943 228.719 393.359C227.938 392.766 227.323 391.906 226.875 390.781C226.438 389.646 226.219 388.292 226.219 386.719C226.219 385.208 226.448 383.891 226.906 382.766C227.365 381.641 228.031 380.776 228.906 380.172C229.792 379.557 230.849 379.25 232.078 379.25C233.182 379.25 234.125 379.536 234.906 380.109V373.953C234.906 373.349 235.464 373.047 236.578 373.047H237.359C237.932 373.047 238.349 373.125 238.609 373.281C238.88 373.427 239.016 373.651 239.016 373.953V389.094C239.016 389.958 239.036 390.63 239.078 391.109C239.13 391.589 239.198 392.062 239.281 392.531C239.333 392.812 239.359 393.01 239.359 393.125C239.359 393.333 239.161 393.505 238.766 393.641C238.38 393.776 237.938 393.875 237.438 393.938C236.948 394 236.552 394.031 236.25 394.031C235.927 394.031 235.698 393.906 235.562 393.656C235.438 393.406 235.323 393.042 235.219 392.562L235.125 392.141C234.792 392.755 234.297 393.26 233.641 393.656C232.984 394.042 232.245 394.234 231.422 394.234ZM232.641 390.859C233.516 390.859 234.271 390.312 234.906 389.219V383.016C234.25 382.661 233.604 382.484 232.969 382.484C231.24 382.484 230.375 383.896 230.375 386.719C230.375 389.479 231.13 390.859 232.641 390.859ZM248.688 394.234C246.49 394.234 244.812 393.589 243.656 392.297C242.51 391.005 241.938 389.146 241.938 386.719C241.938 384.302 242.51 382.453 243.656 381.172C244.812 379.891 246.49 379.25 248.688 379.25C250.885 379.25 252.552 379.891 253.688 381.172C254.833 382.443 255.406 384.292 255.406 386.719C255.406 389.146 254.833 391.005 253.688 392.297C252.552 393.589 250.885 394.234 248.688 394.234ZM248.688 390.969C249.562 390.969 250.203 390.615 250.609 389.906C251.026 389.198 251.234 388.135 251.234 386.719C251.234 385.312 251.026 384.255 250.609 383.547C250.203 382.839 249.562 382.484 248.688 382.484C246.958 382.484 246.094 383.896 246.094 386.719C246.094 388.125 246.302 389.188 246.719 389.906C247.146 390.615 247.802 390.969 248.688 390.969Z" fill="#436FA2"/>
<path opacity="0.7" d="M90.5469 437V425.022H89.0527V430.202H82.4785V425.022H80.9844V437H82.4785V431.546H89.0527V437H90.5469ZM95.2451 435.921C94.2075 435.921 93.5186 435.381 93.5186 434.56C93.5186 433.746 94.1826 433.231 95.3447 433.157L97.6523 433.016V433.721C97.6523 434.966 96.6064 435.921 95.2451 435.921ZM94.9214 437.149C96.0835 437.149 97.1792 436.502 97.6938 435.514H97.7271V437H99.0967V431.032C99.0967 429.313 97.8184 428.218 95.793 428.218C93.751 428.218 92.4727 429.363 92.373 430.857H93.7676C93.9502 430.011 94.6475 429.488 95.7598 429.488C96.9551 429.488 97.6523 430.119 97.6523 431.173V431.895L95.1787 432.036C93.1865 432.152 92.0493 433.082 92.0493 434.56C92.0493 436.112 93.2031 437.149 94.9214 437.149ZM100.666 437H107.107V435.813H102.334V435.788L107.082 429.421V428.367H100.674V429.554H105.447V429.579L100.666 435.971V437ZM113.009 440.229C114.569 440.229 115.283 439.623 116.022 437.606L119.417 428.367H117.898L115.507 435.556H115.482L113.092 428.367H111.548L114.735 437.008L114.536 437.614C114.204 438.619 113.756 439.009 112.951 439.009C112.768 439.009 112.544 439 112.386 438.967V440.179C112.544 440.212 112.834 440.229 113.009 440.229ZM124.041 437H125.485V431.621C125.485 430.401 126.215 429.596 127.336 429.596C127.685 429.596 127.992 429.637 128.108 429.679V428.276C127.992 428.259 127.776 428.218 127.527 428.218C126.514 428.218 125.717 428.824 125.435 429.778H125.402V428.367H124.041V437ZM132.333 429.471C133.694 429.471 134.599 430.5 134.632 431.945H129.942C130.034 430.509 130.98 429.471 132.333 429.471ZM134.599 434.526C134.358 435.34 133.553 435.896 132.458 435.896C130.905 435.896 129.934 434.809 129.934 433.157V433.074H136.126V432.526C136.126 429.911 134.69 428.218 132.358 428.218C129.976 428.218 128.448 430.036 128.448 432.717C128.448 435.431 129.951 437.149 132.424 437.149C134.309 437.149 135.77 436.037 136.019 434.526H134.599ZM144.759 431.198C144.577 429.646 143.29 428.218 141.132 428.218C138.75 428.218 137.164 429.961 137.164 432.684C137.164 435.464 138.758 437.149 141.148 437.149C143.107 437.149 144.552 435.938 144.776 434.219H143.356C143.107 435.257 142.335 435.879 141.157 435.879C139.663 435.879 138.633 434.692 138.633 432.684C138.633 430.725 139.646 429.488 141.14 429.488C142.41 429.488 143.141 430.26 143.348 431.198H144.759ZM146.179 437H147.623V428.367H146.179V437ZM146.901 426.832C147.407 426.832 147.806 426.425 147.806 425.927C147.806 425.42 147.407 425.022 146.901 425.022C146.403 425.022 145.996 425.42 145.996 425.927C145.996 426.425 146.403 426.832 146.901 426.832ZM153.865 437.149C156.073 437.149 157.534 435.398 157.534 432.684C157.534 429.978 156.065 428.218 153.89 428.218C152.67 428.218 151.666 428.824 151.126 429.812H151.093V425.022H149.648V437H151.026V435.539H151.06C151.616 436.535 152.604 437.149 153.865 437.149ZM153.583 429.488C155.11 429.488 156.057 430.725 156.057 432.684C156.057 434.659 155.11 435.879 153.583 435.879C152.122 435.879 151.084 434.609 151.084 432.684C151.084 430.766 152.122 429.488 153.583 429.488ZM162.465 429.471C163.826 429.471 164.731 430.5 164.764 431.945H160.074C160.166 430.509 161.112 429.471 162.465 429.471ZM164.731 434.526C164.49 435.34 163.685 435.896 162.589 435.896C161.037 435.896 160.066 434.809 160.066 433.157V433.074H166.258V432.526C166.258 429.911 164.822 428.218 162.49 428.218C160.107 428.218 158.58 430.036 158.58 432.717C158.58 435.431 160.083 437.149 162.556 437.149C164.44 437.149 165.901 436.037 166.15 434.526H164.731ZM175.397 428.218C174.144 428.218 173.14 428.857 172.608 429.828H172.575V428.367H171.206V439.88H172.65V435.597H172.683C173.198 436.543 174.194 437.149 175.431 437.149C177.605 437.149 179.091 435.39 179.091 432.684C179.091 429.978 177.597 428.218 175.397 428.218ZM175.115 435.879C173.638 435.879 172.642 434.609 172.642 432.684C172.642 430.766 173.638 429.488 175.115 429.488C176.651 429.488 177.614 430.733 177.614 432.684C177.614 434.643 176.651 435.879 175.115 435.879ZM183.399 435.921C182.362 435.921 181.673 435.381 181.673 434.56C181.673 433.746 182.337 433.231 183.499 433.157L185.807 433.016V433.721C185.807 434.966 184.761 435.921 183.399 435.921ZM183.076 437.149C184.238 437.149 185.333 436.502 185.848 435.514H185.881V437H187.251V431.032C187.251 429.313 185.973 428.218 183.947 428.218C181.905 428.218 180.627 429.363 180.527 430.857H181.922C182.104 430.011 182.802 429.488 183.914 429.488C185.109 429.488 185.807 430.119 185.807 431.173V431.895L183.333 432.036C181.341 432.152 180.204 433.082 180.204 434.56C180.204 436.112 181.357 437.149 183.076 437.149ZM192.597 435.796C191.111 435.796 190.14 434.584 190.14 432.65C190.14 430.716 191.111 429.488 192.597 429.488C194.099 429.488 195.104 430.75 195.104 432.65C195.104 434.551 194.099 435.796 192.597 435.796ZM192.646 440.254C195.029 440.254 196.548 438.884 196.548 436.826V428.367H195.17V429.82H195.145C194.572 428.815 193.56 428.218 192.339 428.218C190.106 428.218 188.662 429.944 188.662 432.65C188.662 435.332 190.106 437.066 192.306 437.066C193.518 437.066 194.539 436.452 195.07 435.514H195.104V436.875C195.104 438.162 194.199 439.025 192.705 439.025C191.625 439.025 190.771 438.502 190.488 437.714H189.002C189.243 439.183 190.746 440.254 192.646 440.254ZM202.01 437.149C204.392 437.149 206.002 435.431 206.002 432.684C206.002 429.928 204.392 428.218 202.01 428.218C199.619 428.218 198.009 429.928 198.009 432.684C198.009 435.431 199.619 437.149 202.01 437.149ZM202.01 435.879C200.482 435.879 199.478 434.717 199.478 432.684C199.478 430.65 200.482 429.488 202.01 429.488C203.537 429.488 204.533 430.65 204.533 432.684C204.533 434.717 203.537 435.879 202.01 435.879ZM207.314 430.75C207.314 431.995 208.103 432.75 209.729 433.14L211.099 433.472C212.087 433.713 212.427 434.07 212.427 434.692C212.427 435.473 211.705 435.971 210.535 435.971C209.364 435.971 208.7 435.498 208.526 434.51H207.082C207.248 436.128 208.509 437.149 210.535 437.149C212.46 437.149 213.88 436.087 213.88 434.584C213.88 433.348 213.249 432.667 211.506 432.244L210.136 431.912C209.173 431.679 208.733 431.272 208.733 430.675C208.733 429.919 209.431 429.396 210.485 429.396C211.547 429.396 212.211 429.953 212.319 430.857H213.697C213.639 429.33 212.377 428.218 210.485 428.218C208.617 428.218 207.314 429.272 207.314 430.75ZM221.716 435.921C220.678 435.921 219.989 435.381 219.989 434.56C219.989 433.746 220.653 433.231 221.815 433.157L224.123 433.016V433.721C224.123 434.966 223.077 435.921 221.716 435.921ZM221.392 437.149C222.554 437.149 223.65 436.502 224.165 435.514H224.198V437H225.567V431.032C225.567 429.313 224.289 428.218 222.264 428.218C220.222 428.218 218.943 429.363 218.844 430.857H220.238C220.421 430.011 221.118 429.488 222.23 429.488C223.426 429.488 224.123 430.119 224.123 431.173V431.895L221.649 432.036C219.657 432.152 218.52 433.082 218.52 434.56C218.52 436.112 219.674 437.149 221.392 437.149ZM238.06 431.198C237.877 429.646 236.591 428.218 234.433 428.218C232.05 428.218 230.465 429.961 230.465 432.684C230.465 435.464 232.059 437.149 234.449 437.149C236.408 437.149 237.853 435.938 238.077 434.219H236.657C236.408 435.257 235.636 435.879 234.458 435.879C232.963 435.879 231.934 434.692 231.934 432.684C231.934 430.725 232.947 429.488 234.441 429.488C235.711 429.488 236.441 430.26 236.649 431.198H238.06ZM246.494 428.367H245.049V433.439C245.049 434.908 244.203 435.871 242.8 435.871C241.463 435.871 240.808 435.116 240.808 433.713V428.367H239.363V433.97C239.363 435.929 240.467 437.149 242.352 437.149C243.68 437.149 244.576 436.593 245.091 435.597H245.124V437H246.494V428.367ZM251.217 435.921C250.179 435.921 249.49 435.381 249.49 434.56C249.49 433.746 250.154 433.231 251.316 433.157L253.624 433.016V433.721C253.624 434.966 252.578 435.921 251.217 435.921ZM250.893 437.149C252.055 437.149 253.151 436.502 253.666 435.514H253.699V437H255.068V431.032C255.068 429.313 253.79 428.218 251.765 428.218C249.723 428.218 248.444 429.363 248.345 430.857H249.739C249.922 430.011 250.619 429.488 251.731 429.488C252.927 429.488 253.624 430.119 253.624 431.173V431.895L251.15 432.036C249.158 432.152 248.021 433.082 248.021 434.56C248.021 436.112 249.175 437.149 250.893 437.149ZM256.978 437H258.422V425.022H256.978V437ZM263.626 428.218C261.41 428.218 259.949 429.969 259.949 432.684C259.949 435.39 261.41 437.149 263.593 437.149C264.813 437.149 265.818 436.543 266.357 435.556H266.391V439.88H267.835V428.367H266.457V429.828H266.424C265.868 428.832 264.88 428.218 263.626 428.218ZM263.884 435.879C262.373 435.879 261.427 434.651 261.427 432.684C261.427 430.708 262.373 429.488 263.884 429.488C265.361 429.488 266.391 430.758 266.391 432.684C266.391 434.609 265.361 435.879 263.884 435.879ZM276.808 428.367H275.364V433.439C275.364 434.908 274.517 435.871 273.114 435.871C271.778 435.871 271.122 435.116 271.122 433.713V428.367H269.678V433.97C269.678 435.929 270.782 437.149 272.666 437.149C273.994 437.149 274.891 436.593 275.405 435.597H275.438V437H276.808V428.367ZM278.759 437H280.203V428.367H278.759V437ZM279.481 426.832C279.987 426.832 280.386 426.425 280.386 425.927C280.386 425.42 279.987 425.022 279.481 425.022C278.983 425.022 278.576 425.42 278.576 425.927C278.576 426.425 278.983 426.832 279.481 426.832ZM285.615 429.471C286.977 429.471 287.881 430.5 287.915 431.945H283.225C283.316 430.509 284.262 429.471 285.615 429.471ZM287.881 434.526C287.641 435.34 286.835 435.896 285.74 435.896C284.188 435.896 283.216 434.809 283.216 433.157V433.074H289.409V432.526C289.409 429.911 287.973 428.218 285.64 428.218C283.258 428.218 281.73 430.036 281.73 432.717C281.73 435.431 283.233 437.149 285.707 437.149C287.591 437.149 289.052 436.037 289.301 434.526H287.881ZM290.87 437H292.314V431.621C292.314 430.401 293.044 429.596 294.165 429.596C294.514 429.596 294.821 429.637 294.937 429.679V428.276C294.821 428.259 294.605 428.218 294.356 428.218C293.343 428.218 292.546 428.824 292.264 429.778H292.231V428.367H290.87V437ZM88.5298 453.218C87.2764 453.218 86.272 453.857 85.7407 454.828H85.7075V453.367H84.3379V464.88H85.7822V460.597H85.8154C86.3301 461.543 87.3262 462.149 88.563 462.149C90.7378 462.149 92.2236 460.39 92.2236 457.684C92.2236 454.978 90.7295 453.218 88.5298 453.218ZM88.2476 460.879C86.77 460.879 85.7739 459.609 85.7739 457.684C85.7739 455.766 86.77 454.488 88.2476 454.488C89.7832 454.488 90.7461 455.733 90.7461 457.684C90.7461 459.643 89.7832 460.879 88.2476 460.879ZM97.146 454.471C98.5073 454.471 99.4121 455.5 99.4453 456.945H94.7554C94.8467 455.509 95.793 454.471 97.146 454.471ZM99.4121 459.526C99.1714 460.34 98.3662 460.896 97.2705 460.896C95.7183 460.896 94.7471 459.809 94.7471 458.157V458.074H100.939V457.526C100.939 454.911 99.5034 453.218 97.1709 453.218C94.7886 453.218 93.2612 455.036 93.2612 457.717C93.2612 460.431 94.7637 462.149 97.2373 462.149C99.1216 462.149 100.583 461.037 100.832 459.526H99.4121ZM102.4 462H103.845V456.621C103.845 455.401 104.575 454.596 105.696 454.596C106.044 454.596 106.352 454.637 106.468 454.679V453.276C106.352 453.259 106.136 453.218 105.887 453.218C104.874 453.218 104.077 453.824 103.795 454.778H103.762V453.367H102.4V462ZM107.497 455.75C107.497 456.995 108.286 457.75 109.913 458.14L111.282 458.472C112.27 458.713 112.61 459.07 112.61 459.692C112.61 460.473 111.888 460.971 110.718 460.971C109.547 460.971 108.883 460.498 108.709 459.51H107.265C107.431 461.128 108.692 462.149 110.718 462.149C112.644 462.149 114.063 461.087 114.063 459.584C114.063 458.348 113.432 457.667 111.689 457.244L110.319 456.912C109.356 456.679 108.917 456.272 108.917 455.675C108.917 454.919 109.614 454.396 110.668 454.396C111.73 454.396 112.395 454.953 112.502 455.857H113.88C113.822 454.33 112.561 453.218 110.668 453.218C108.8 453.218 107.497 454.272 107.497 455.75ZM119.143 462.149C121.525 462.149 123.136 460.431 123.136 457.684C123.136 454.928 121.525 453.218 119.143 453.218C116.752 453.218 115.142 454.928 115.142 457.684C115.142 460.431 116.752 462.149 119.143 462.149ZM119.143 460.879C117.616 460.879 116.611 459.717 116.611 457.684C116.611 455.65 117.616 454.488 119.143 454.488C120.67 454.488 121.667 455.65 121.667 457.684C121.667 459.717 120.67 460.879 119.143 460.879ZM124.597 462H126.041V456.92C126.041 455.459 126.929 454.496 128.291 454.496C129.619 454.496 130.274 455.26 130.274 456.654V462H131.719V456.397C131.719 454.438 130.623 453.218 128.73 453.218C127.394 453.218 126.473 453.815 125.991 454.745H125.958V453.367H124.597V462ZM136.409 460.921C135.371 460.921 134.682 460.381 134.682 459.56C134.682 458.746 135.346 458.231 136.508 458.157L138.816 458.016V458.721C138.816 459.966 137.77 460.921 136.409 460.921ZM136.085 462.149C137.247 462.149 138.343 461.502 138.857 460.514H138.891V462H140.26V456.032C140.26 454.313 138.982 453.218 136.957 453.218C134.915 453.218 133.636 454.363 133.537 455.857H134.931C135.114 455.011 135.811 454.488 136.923 454.488C138.119 454.488 138.816 455.119 138.816 456.173V456.895L136.342 457.036C134.35 457.152 133.213 458.082 133.213 459.56C133.213 461.112 134.367 462.149 136.085 462.149ZM148.852 462.149C150.097 462.149 151.084 461.535 151.641 460.539H151.666V462H153.043V450.022H151.599V454.77H151.566C151.051 453.824 150.055 453.218 148.818 453.218C146.644 453.218 145.158 454.978 145.158 457.684C145.158 460.39 146.652 462.149 148.852 462.149ZM149.125 454.488C150.611 454.488 151.607 455.758 151.607 457.684C151.607 459.618 150.611 460.879 149.125 460.879C147.598 460.879 146.635 459.643 146.635 457.684C146.635 455.733 147.598 454.488 149.125 454.488ZM158.456 454.471C159.817 454.471 160.722 455.5 160.755 456.945H156.065C156.156 455.509 157.103 454.471 158.456 454.471ZM160.722 459.526C160.481 460.34 159.676 460.896 158.58 460.896C157.028 460.896 156.057 459.809 156.057 458.157V458.074H162.249V457.526C162.249 454.911 160.813 453.218 158.48 453.218C156.098 453.218 154.571 455.036 154.571 457.717C154.571 460.431 156.073 462.149 158.547 462.149C160.431 462.149 161.892 461.037 162.141 459.526H160.722ZM163.561 455.75C163.561 456.995 164.349 457.75 165.976 458.14L167.346 458.472C168.333 458.713 168.674 459.07 168.674 459.692C168.674 460.473 167.952 460.971 166.781 460.971C165.611 460.971 164.947 460.498 164.772 459.51H163.328C163.494 461.128 164.756 462.149 166.781 462.149C168.707 462.149 170.126 461.087 170.126 459.584C170.126 458.348 169.496 457.667 167.752 457.244L166.383 456.912C165.42 456.679 164.98 456.272 164.98 455.675C164.98 454.919 165.677 454.396 166.731 454.396C167.794 454.396 168.458 454.953 168.566 455.857H169.944C169.886 454.33 168.624 453.218 166.731 453.218C164.864 453.218 163.561 454.272 163.561 455.75ZM174.899 462.149C176.145 462.149 177.132 461.535 177.688 460.539H177.713V462H179.091V450.022H177.647V454.77H177.614C177.099 453.824 176.103 453.218 174.866 453.218C172.691 453.218 171.206 454.978 171.206 457.684C171.206 460.39 172.7 462.149 174.899 462.149ZM175.173 454.488C176.659 454.488 177.655 455.758 177.655 457.684C177.655 459.618 176.659 460.879 175.173 460.879C173.646 460.879 172.683 459.643 172.683 457.684C172.683 455.733 173.646 454.488 175.173 454.488ZM184.503 454.471C185.865 454.471 186.77 455.5 186.803 456.945H182.113C182.204 455.509 183.15 454.471 184.503 454.471ZM186.77 459.526C186.529 460.34 185.724 460.896 184.628 460.896C183.076 460.896 182.104 459.809 182.104 458.157V458.074H188.297V457.526C188.297 454.911 186.861 453.218 184.528 453.218C182.146 453.218 180.619 455.036 180.619 457.717C180.619 460.431 182.121 462.149 184.595 462.149C186.479 462.149 187.94 461.037 188.189 459.526H186.77ZM193.709 451.284V453.367H192.422V454.554H193.709V459.759C193.709 461.419 194.323 462.066 195.909 462.066C196.249 462.066 196.647 462.042 196.822 462V460.788C196.722 460.805 196.39 460.83 196.224 460.83C195.485 460.83 195.153 460.473 195.153 459.684V454.554H196.83V453.367H195.153V451.284H193.709ZM205.463 453.367H204.019V458.439C204.019 459.908 203.172 460.871 201.769 460.871C200.433 460.871 199.777 460.116 199.777 458.713V453.367H198.333V458.97C198.333 460.929 199.437 462.149 201.321 462.149C202.649 462.149 203.545 461.593 204.06 460.597H204.093V462H205.463V453.367ZM211.29 451.284V453.367H210.003V454.554H211.29V459.759C211.29 461.419 211.904 462.066 213.49 462.066C213.83 462.066 214.229 462.042 214.403 462V460.788C214.303 460.805 213.971 460.83 213.805 460.83C213.066 460.83 212.734 460.473 212.734 459.684V454.554H214.411V453.367H212.734V451.284H211.29ZM219.167 454.471C220.529 454.471 221.434 455.5 221.467 456.945H216.777C216.868 455.509 217.814 454.471 219.167 454.471ZM221.434 459.526C221.193 460.34 220.388 460.896 219.292 460.896C217.74 460.896 216.769 459.809 216.769 458.157V458.074H222.961V457.526C222.961 454.911 221.525 453.218 219.192 453.218C216.81 453.218 215.283 455.036 215.283 457.717C215.283 460.431 216.785 462.149 219.259 462.149C221.143 462.149 222.604 461.037 222.853 459.526H221.434ZM224.497 462H225.941V450.022H224.497V462ZM231.353 454.471C232.714 454.471 233.619 455.5 233.652 456.945H228.962C229.054 455.509 230 454.471 231.353 454.471ZM233.619 459.526C233.378 460.34 232.573 460.896 231.478 460.896C229.925 460.896 228.954 459.809 228.954 458.157V458.074H235.146V457.526C235.146 454.911 233.71 453.218 231.378 453.218C228.996 453.218 227.468 455.036 227.468 457.717C227.468 460.431 228.971 462.149 231.444 462.149C233.329 462.149 234.79 461.037 235.039 459.526H233.619ZM231.951 452.122L233.893 449.632H232.308L230.83 452.122H231.951ZM237.072 462H238.517V454.554H240.276V453.367H238.508V452.413C238.508 451.558 238.882 451.143 239.662 451.143C239.903 451.143 240.144 451.167 240.318 451.192V450.022C240.11 449.989 239.762 449.956 239.438 449.956C237.844 449.956 237.072 450.744 237.072 452.404V453.367H235.869V454.554H237.072V462ZM244.933 462.149C247.315 462.149 248.926 460.431 248.926 457.684C248.926 454.928 247.315 453.218 244.933 453.218C242.542 453.218 240.932 454.928 240.932 457.684C240.932 460.431 242.542 462.149 244.933 462.149ZM244.933 460.879C243.406 460.879 242.401 459.717 242.401 457.684C242.401 455.65 243.406 454.488 244.933 454.488C246.46 454.488 247.457 455.65 247.457 457.684C247.457 459.717 246.46 460.879 244.933 460.879ZM250.387 462H251.831V456.92C251.831 455.459 252.719 454.496 254.081 454.496C255.409 454.496 256.064 455.26 256.064 456.654V462H257.509V456.397C257.509 454.438 256.413 453.218 254.521 453.218C253.184 453.218 252.263 453.815 251.781 454.745H251.748V453.367H250.387V462ZM262.929 462.149C265.312 462.149 266.922 460.431 266.922 457.684C266.922 454.928 265.312 453.218 262.929 453.218C260.539 453.218 258.928 454.928 258.928 457.684C258.928 460.431 260.539 462.149 262.929 462.149ZM262.929 460.879C261.402 460.879 260.397 459.717 260.397 457.684C260.397 455.65 261.402 454.488 262.929 454.488C264.457 454.488 265.453 455.65 265.453 457.684C265.453 459.717 264.457 460.879 262.929 460.879ZM268.873 464.382L270.01 460.157H268.474L267.669 464.382H268.873ZM278.319 454.471C279.68 454.471 280.585 455.5 280.618 456.945H275.928C276.02 455.509 276.966 454.471 278.319 454.471ZM280.585 459.526C280.344 460.34 279.539 460.896 278.443 460.896C276.891 460.896 275.92 459.809 275.92 458.157V458.074H282.112V457.526C282.112 454.911 280.676 453.218 278.344 453.218C275.961 453.218 274.434 455.036 274.434 457.717C274.434 460.431 275.937 462.149 278.41 462.149C280.294 462.149 281.755 461.037 282.004 459.526H280.585ZM283.573 462H285.018V456.92C285.018 455.459 285.906 454.496 287.267 454.496C288.595 454.496 289.251 455.26 289.251 456.654V462H290.695V456.397C290.695 454.438 289.6 453.218 287.707 453.218C286.371 453.218 285.449 453.815 284.968 454.745H284.935V453.367H283.573V462ZM87.8076 487H89.252V481.588C89.252 480.393 90.082 479.496 91.2275 479.496C92.2983 479.496 92.9956 480.177 92.9956 481.214V487H94.4399V481.513C94.4399 480.343 95.2451 479.496 96.3906 479.496C97.5278 479.496 98.1836 480.193 98.1836 481.372V487H99.6279V481.04C99.6279 479.33 98.5239 478.218 96.814 478.218C95.6021 478.218 94.5894 478.832 94.1079 479.861H94.0747C93.7012 478.815 92.8296 478.218 91.6509 478.218C90.4888 478.218 89.6089 478.832 89.2021 479.745H89.1689V478.367H87.8076V487ZM101.545 487H102.99V478.367H101.545V487ZM102.268 476.832C102.774 476.832 103.172 476.425 103.172 475.927C103.172 475.42 102.774 475.022 102.268 475.022C101.77 475.022 101.363 475.42 101.363 475.927C101.363 476.425 101.77 476.832 102.268 476.832ZM104.94 487H106.385V481.92C106.385 480.459 107.273 479.496 108.634 479.496C109.962 479.496 110.618 480.26 110.618 481.654V487H112.062V481.397C112.062 479.438 110.967 478.218 109.074 478.218C107.738 478.218 106.816 478.815 106.335 479.745H106.302V478.367H104.94V487ZM120.994 478.367H119.55V483.439C119.55 484.908 118.703 485.871 117.3 485.871C115.964 485.871 115.308 485.116 115.308 483.713V478.367H113.864V483.97C113.864 485.929 114.968 487.149 116.852 487.149C118.18 487.149 119.077 486.593 119.591 485.597H119.625V487H120.994V478.367ZM123.335 476.284V478.367H122.048V479.554H123.335V484.759C123.335 486.419 123.949 487.066 125.535 487.066C125.875 487.066 126.273 487.042 126.448 487V485.788C126.348 485.805 126.016 485.83 125.85 485.83C125.111 485.83 124.779 485.473 124.779 484.684V479.554H126.456V478.367H124.779V476.284H123.335ZM131.329 487.149C133.711 487.149 135.321 485.431 135.321 482.684C135.321 479.928 133.711 478.218 131.329 478.218C128.938 478.218 127.328 479.928 127.328 482.684C127.328 485.431 128.938 487.149 131.329 487.149ZM131.329 485.879C129.801 485.879 128.797 484.717 128.797 482.684C128.797 480.65 129.801 479.488 131.329 479.488C132.856 479.488 133.852 480.65 133.852 482.684C133.852 484.717 132.856 485.879 131.329 485.879ZM136.633 480.75C136.633 481.995 137.421 482.75 139.048 483.14L140.418 483.472C141.406 483.713 141.746 484.07 141.746 484.692C141.746 485.473 141.024 485.971 139.854 485.971C138.683 485.971 138.019 485.498 137.845 484.51H136.4C136.566 486.128 137.828 487.149 139.854 487.149C141.779 487.149 143.199 486.087 143.199 484.584C143.199 483.348 142.568 482.667 140.825 482.244L139.455 481.912C138.492 481.679 138.052 481.272 138.052 480.675C138.052 479.919 138.75 479.396 139.804 479.396C140.866 479.396 141.53 479.953 141.638 480.857H143.016C142.958 479.33 141.696 478.218 139.804 478.218C137.936 478.218 136.633 479.272 136.633 480.75ZM145.921 487.083C146.453 487.083 146.868 486.668 146.868 486.137C146.868 485.605 146.453 485.19 145.921 485.19C145.39 485.19 144.975 485.605 144.975 486.137C144.975 486.668 145.39 487.083 145.921 487.083ZM151.317 483.788C151.458 485.854 153.201 487.199 155.816 487.199C158.497 487.199 160.24 485.813 160.24 483.597C160.24 481.903 159.252 480.907 156.754 480.359L155.426 480.069C153.791 479.712 153.151 479.064 153.151 478.118C153.151 476.898 154.305 476.167 155.799 476.167C157.36 476.167 158.397 476.973 158.53 478.284H160.024C159.958 476.25 158.231 474.823 155.841 474.823C153.359 474.823 151.616 476.209 151.616 478.185C151.616 479.886 152.653 480.974 155.052 481.497L156.38 481.787C158.041 482.152 158.705 482.816 158.705 483.821C158.705 485 157.526 485.854 155.899 485.854C154.181 485.854 152.985 485.074 152.811 483.788H151.317ZM161.842 487H163.287V478.367H161.842V487ZM162.564 476.832C163.071 476.832 163.469 476.425 163.469 475.927C163.469 475.42 163.071 475.022 162.564 475.022C162.066 475.022 161.66 475.42 161.66 475.927C161.66 476.425 162.066 476.832 162.564 476.832ZM165.237 487H166.682V481.92C166.682 480.459 167.57 479.496 168.931 479.496C170.259 479.496 170.915 480.26 170.915 481.654V487H172.359V481.397C172.359 479.438 171.264 478.218 169.371 478.218C168.035 478.218 167.113 478.815 166.632 479.745H166.599V478.367H165.237V487ZM178.153 476.284V478.367H176.867V479.554H178.153V484.759C178.153 486.419 178.768 487.066 180.353 487.066C180.693 487.066 181.092 487.042 181.266 487V485.788C181.167 485.805 180.834 485.83 180.668 485.83C179.93 485.83 179.598 485.473 179.598 484.684V479.554H181.274V478.367H179.598V476.284H178.153ZM186.147 487.149C188.529 487.149 190.14 485.431 190.14 482.684C190.14 479.928 188.529 478.218 186.147 478.218C183.756 478.218 182.146 479.928 182.146 482.684C182.146 485.431 183.756 487.149 186.147 487.149ZM186.147 485.879C184.62 485.879 183.615 484.717 183.615 482.684C183.615 480.65 184.62 479.488 186.147 479.488C187.674 479.488 188.67 480.65 188.67 482.684C188.67 484.717 187.674 485.879 186.147 485.879ZM193.12 482.202V475.022H191.675V487H193.12V483.746L193.925 482.982L197.129 487H198.806L194.946 482.094L198.689 478.367H196.938L193.12 482.202ZM202.898 479.471C204.259 479.471 205.164 480.5 205.197 481.945H200.507C200.599 480.509 201.545 479.471 202.898 479.471ZM205.164 484.526C204.923 485.34 204.118 485.896 203.022 485.896C201.47 485.896 200.499 484.809 200.499 483.157V483.074H206.691V482.526C206.691 479.911 205.255 478.218 202.923 478.218C200.541 478.218 199.013 480.036 199.013 482.717C199.013 485.431 200.516 487.149 202.989 487.149C204.874 487.149 206.334 486.037 206.583 484.526H205.164ZM208.152 487H209.597V481.92C209.597 480.459 210.485 479.496 211.846 479.496C213.174 479.496 213.83 480.26 213.83 481.654V487H215.274V481.397C215.274 479.438 214.179 478.218 212.286 478.218C210.95 478.218 210.028 478.815 209.547 479.745H209.514V478.367H208.152V487ZM221.326 490.229C222.886 490.229 223.6 489.623 224.339 487.606L227.734 478.367H226.215L223.824 485.556H223.799L221.409 478.367H219.865L223.052 487.008L222.853 487.614C222.521 488.619 222.073 489.009 221.268 489.009C221.085 489.009 220.861 489 220.703 488.967V490.179C220.861 490.212 221.151 490.229 221.326 490.229ZM232.208 480.75C232.208 481.995 232.997 482.75 234.624 483.14L235.993 483.472C236.981 483.713 237.321 484.07 237.321 484.692C237.321 485.473 236.599 485.971 235.429 485.971C234.258 485.971 233.594 485.498 233.42 484.51H231.976C232.142 486.128 233.403 487.149 235.429 487.149C237.354 487.149 238.774 486.087 238.774 484.584C238.774 483.348 238.143 482.667 236.4 482.244L235.03 481.912C234.067 481.679 233.627 481.272 233.627 480.675C233.627 479.919 234.325 479.396 235.379 479.396C236.441 479.396 237.105 479.953 237.213 480.857H238.591C238.533 479.33 237.271 478.218 235.379 478.218C233.511 478.218 232.208 479.272 232.208 480.75ZM240.351 487H241.795V478.367H240.351V487ZM241.073 476.832C241.58 476.832 241.978 476.425 241.978 475.927C241.978 475.42 241.58 475.022 241.073 475.022C240.575 475.022 240.168 475.42 240.168 475.927C240.168 476.425 240.575 476.832 241.073 476.832ZM243.746 487H245.19V481.92C245.19 480.459 246.079 479.496 247.44 479.496C248.768 479.496 249.424 480.26 249.424 481.654V487H250.868V481.397C250.868 479.438 249.772 478.218 247.88 478.218C246.543 478.218 245.622 478.815 245.141 479.745H245.107V478.367H243.746V487ZM256.662 487H258.106V479.554H259.866V478.367H258.098V477.413C258.098 476.558 258.472 476.143 259.252 476.143C259.493 476.143 259.733 476.167 259.908 476.192V475.022C259.7 474.989 259.352 474.956 259.028 474.956C257.434 474.956 256.662 475.744 256.662 477.404V478.367H255.458V479.554H256.662V487ZM261.435 487H262.879V478.367H261.435V487ZM262.157 476.832C262.664 476.832 263.062 476.425 263.062 475.927C263.062 475.42 262.664 475.022 262.157 475.022C261.659 475.022 261.252 475.42 261.252 475.927C261.252 476.425 261.659 476.832 262.157 476.832ZM264.905 487H266.349V475.022H264.905V487ZM271.147 485.921C270.109 485.921 269.42 485.381 269.42 484.56C269.42 483.746 270.084 483.231 271.247 483.157L273.554 483.016V483.721C273.554 484.966 272.508 485.921 271.147 485.921ZM270.823 487.149C271.985 487.149 273.081 486.502 273.596 485.514H273.629V487H274.999V481.032C274.999 479.313 273.72 478.218 271.695 478.218C269.653 478.218 268.375 479.363 268.275 480.857H269.669C269.852 480.011 270.549 479.488 271.662 479.488C272.857 479.488 273.554 480.119 273.554 481.173V481.895L271.081 482.036C269.088 482.152 267.951 483.082 267.951 484.56C267.951 486.112 269.105 487.149 270.823 487.149ZM276.684 480.75C276.684 481.995 277.472 482.75 279.099 483.14L280.469 483.472C281.457 483.713 281.797 484.07 281.797 484.692C281.797 485.473 281.075 485.971 279.904 485.971C278.734 485.971 278.07 485.498 277.896 484.51H276.451C276.617 486.128 277.879 487.149 279.904 487.149C281.83 487.149 283.25 486.087 283.25 484.584C283.25 483.348 282.619 482.667 280.875 482.244L279.506 481.912C278.543 481.679 278.103 481.272 278.103 480.675C278.103 479.919 278.8 479.396 279.854 479.396C280.917 479.396 281.581 479.953 281.689 480.857H283.067C283.009 479.33 281.747 478.218 279.854 478.218C277.987 478.218 276.684 479.272 276.684 480.75ZM285.972 487.083C286.503 487.083 286.918 486.668 286.918 486.137C286.918 485.605 286.503 485.19 285.972 485.19C285.441 485.19 285.026 485.605 285.026 486.137C285.026 486.668 285.441 487.083 285.972 487.083Z" fill="#436FA2"/>
<path fill-rule="evenodd" clip-rule="evenodd" d="M8 587C8 584.239 10.2386 582 13 582H363C365.761 582 368 584.239 368 587V633C368 635.761 365.761 638 363 638H13C10.2386 638 8 635.761 8 633V587Z" fill="#4C77A5"/>
<path d="M155.755 617C155.49 617 155.297 616.939 155.175 616.817C155.053 616.696 154.992 616.502 154.992 616.237V604.389C154.992 604.124 155.053 603.934 155.175 603.819C155.297 603.698 155.49 603.637 155.755 603.637H162.748C162.949 603.637 163.092 603.712 163.178 603.862C163.271 604.013 163.317 604.256 163.317 604.593V605.173C163.317 605.509 163.271 605.753 163.178 605.903C163.092 606.054 162.949 606.129 162.748 606.129H157.936V608.9H162.232C162.433 608.9 162.576 608.976 162.662 609.126C162.755 609.276 162.802 609.52 162.802 609.856V610.447C162.802 610.784 162.755 611.027 162.662 611.178C162.576 611.328 162.433 611.403 162.232 611.403H157.936V614.497H162.759C162.959 614.497 163.103 614.572 163.188 614.723C163.282 614.873 163.328 615.113 163.328 615.442V616.044C163.328 616.381 163.282 616.624 163.188 616.774C163.103 616.925 162.959 617 162.759 617H155.755ZM176.262 606.859C177.214 606.859 177.916 607.11 178.367 607.611C178.826 608.113 179.055 608.89 179.055 609.942V616.431C179.055 616.832 178.668 617.032 177.895 617.032H177.368C176.609 617.032 176.229 616.832 176.229 616.431V610.372C176.229 609.985 176.14 609.692 175.961 609.491C175.789 609.291 175.499 609.19 175.091 609.19C174.733 609.19 174.428 609.301 174.178 609.523C173.934 609.738 173.737 609.989 173.587 610.275V616.431C173.587 616.832 173.204 617.032 172.438 617.032H171.9C171.141 617.032 170.762 616.832 170.762 616.431V610.372C170.762 609.985 170.672 609.692 170.493 609.491C170.321 609.291 170.035 609.19 169.634 609.19C169.29 609.19 168.986 609.305 168.721 609.534C168.463 609.763 168.266 610.018 168.13 610.297V616.431C168.13 616.832 167.743 617.032 166.97 617.032H166.443C165.684 617.032 165.305 616.832 165.305 616.431V610.372C165.305 609.455 165.244 608.693 165.122 608.084C165.086 607.891 165.068 607.755 165.068 607.676C165.068 607.533 165.201 607.418 165.466 607.332C165.738 607.239 166.042 607.171 166.379 607.128C166.723 607.085 166.998 607.063 167.206 607.063C167.428 607.063 167.582 607.146 167.668 607.311C167.761 607.475 167.843 607.715 167.915 608.03L167.979 608.31C168.28 607.901 168.681 607.558 169.183 607.278C169.684 606.999 170.225 606.859 170.805 606.859C171.464 606.859 171.997 606.978 172.405 607.214C172.821 607.45 173.125 607.815 173.318 608.31C173.641 607.901 174.063 607.558 174.586 607.278C175.109 606.999 175.667 606.859 176.262 606.859ZM182.804 620.942C182.41 620.942 182.12 620.889 181.934 620.781C181.747 620.681 181.654 620.527 181.654 620.319V610.372C181.654 609.799 181.636 609.352 181.601 609.029C181.572 608.7 181.533 608.385 181.482 608.084C181.447 607.891 181.429 607.755 181.429 607.676C181.429 607.533 181.561 607.418 181.826 607.332C182.091 607.239 182.392 607.171 182.729 607.128C183.072 607.085 183.348 607.063 183.556 607.063C183.785 607.063 183.942 607.149 184.028 607.321C184.121 607.486 184.204 607.726 184.275 608.041L184.329 608.288C184.551 607.866 184.888 607.522 185.339 607.257C185.797 606.992 186.313 606.859 186.886 606.859C187.58 606.859 188.196 607.06 188.733 607.461C189.271 607.862 189.689 608.453 189.99 609.233C190.298 610.007 190.452 610.934 190.452 612.016C190.452 613.054 190.295 613.96 189.979 614.733C189.664 615.507 189.206 616.105 188.604 616.527C188.003 616.95 187.28 617.161 186.435 617.161C185.711 617.161 185.056 616.961 184.469 616.56V620.319C184.469 620.527 184.376 620.681 184.189 620.781C184.01 620.889 183.724 620.942 183.33 620.942H182.804ZM185.812 614.916C186.993 614.916 187.584 613.949 187.584 612.016C187.584 610.118 187.072 609.169 186.048 609.169C185.446 609.169 184.92 609.545 184.469 610.297V614.551C184.913 614.794 185.36 614.916 185.812 614.916ZM197.059 617.161C195.383 617.161 194.133 616.714 193.31 615.818C192.486 614.916 192.074 613.666 192.074 612.069C192.074 610.272 192.486 608.954 193.31 608.116C194.133 607.278 195.268 606.859 196.715 606.859C197.674 606.859 198.459 607.078 199.067 607.515C199.683 607.951 200.131 608.539 200.41 609.276C200.697 610.014 200.84 610.848 200.84 611.779C200.84 611.887 200.775 612.03 200.646 612.209C200.525 612.388 200.385 612.549 200.228 612.692C200.07 612.836 199.948 612.907 199.862 612.907H194.996C195.061 613.638 195.275 614.157 195.641 614.465C196.013 614.766 196.529 614.916 197.188 614.916C197.546 614.916 197.868 614.877 198.154 614.798C198.448 614.712 198.759 614.601 199.089 614.465C199.289 614.372 199.425 614.325 199.497 614.325C199.626 614.325 199.766 614.418 199.916 614.604C200.074 614.784 200.206 614.991 200.313 615.228C200.428 615.464 200.485 615.646 200.485 615.775C200.485 616.069 200.285 616.32 199.884 616.527C199.49 616.735 199.021 616.893 198.477 617C197.939 617.107 197.467 617.161 197.059 617.161ZM198.09 611.027C198.09 610.44 197.975 609.971 197.746 609.62C197.517 609.262 197.173 609.083 196.715 609.083C195.77 609.083 195.197 609.731 194.996 611.027H198.09ZM202.655 617C202.576 617 202.494 616.918 202.408 616.753C202.322 616.581 202.247 616.381 202.183 616.151C202.125 615.915 202.097 615.715 202.097 615.55C202.097 615.428 202.115 615.339 202.15 615.281L206.533 609.244H202.978C202.777 609.244 202.63 609.169 202.537 609.019C202.451 608.868 202.408 608.625 202.408 608.288V607.966C202.408 607.629 202.451 607.386 202.537 607.235C202.63 607.085 202.777 607.01 202.978 607.01H209.734C209.799 607.01 209.874 607.096 209.96 607.268C210.053 607.432 210.132 607.633 210.196 607.869C210.261 608.105 210.293 608.31 210.293 608.481C210.293 608.618 210.271 608.714 210.229 608.771L205.889 614.766H209.788C209.989 614.766 210.135 614.841 210.229 614.991C210.322 615.142 210.368 615.385 210.368 615.722V616.044C210.368 616.381 210.322 616.624 210.229 616.774C210.135 616.925 209.989 617 209.788 617H202.655ZM214.558 617.161C213.584 617.161 212.868 616.907 212.409 616.398C211.958 615.883 211.732 615.202 211.732 614.357C211.732 613.72 211.865 613.147 212.13 612.639C212.395 612.123 212.932 611.69 213.741 611.339C214.55 610.988 215.707 610.812 217.211 610.812V610.179C217.211 609.806 217.093 609.531 216.856 609.352C216.62 609.173 216.244 609.083 215.729 609.083C215.299 609.083 214.93 609.13 214.622 609.223C214.314 609.309 213.981 609.427 213.623 609.577C213.437 609.663 213.322 609.706 213.279 609.706C213.15 609.706 213.007 609.609 212.85 609.416C212.699 609.223 212.567 609.001 212.452 608.75C212.338 608.499 212.28 608.31 212.28 608.181C212.28 607.959 212.438 607.747 212.753 607.547C213.075 607.339 213.516 607.174 214.074 607.053C214.633 606.924 215.252 606.859 215.933 606.859C217.365 606.859 218.407 607.146 219.059 607.719C219.71 608.285 220.036 609.062 220.036 610.05V613.627C220.036 614.221 220.05 614.683 220.079 615.013C220.115 615.342 220.161 615.668 220.219 615.99C220.255 616.184 220.272 616.32 220.272 616.398C220.272 616.542 220.136 616.66 219.864 616.753C219.599 616.846 219.295 616.914 218.951 616.957C218.607 617 218.332 617.021 218.124 617.021C217.902 617.021 217.741 616.928 217.641 616.742C217.548 616.549 217.472 616.287 217.415 615.958C217.408 615.915 217.401 615.872 217.394 615.829C217.386 615.786 217.376 615.743 217.361 615.7C217.29 615.836 217.136 616.019 216.899 616.248C216.67 616.477 216.355 616.688 215.954 616.882C215.553 617.068 215.088 617.161 214.558 617.161ZM215.492 614.916C215.85 614.916 216.187 614.805 216.502 614.583C216.817 614.354 217.053 614.064 217.211 613.713V612.66C215.428 612.66 214.536 613.129 214.536 614.067C214.536 614.318 214.618 614.522 214.783 614.68C214.955 614.837 215.191 614.916 215.492 614.916ZM223.678 617.032C222.919 617.032 222.539 616.832 222.539 616.431V610.372C222.539 609.455 222.478 608.693 222.356 608.084C222.321 607.891 222.303 607.755 222.303 607.676C222.303 607.533 222.435 607.418 222.7 607.332C222.972 607.239 223.277 607.171 223.613 607.128C223.957 607.085 224.233 607.063 224.44 607.063C224.662 607.063 224.816 607.146 224.902 607.311C224.995 607.475 225.078 607.715 225.149 608.03L225.214 608.31C225.457 607.866 225.737 607.515 226.052 607.257C226.374 606.992 226.786 606.859 227.287 606.859C227.702 606.859 227.989 606.967 228.146 607.182C228.304 607.389 228.383 607.626 228.383 607.891C228.383 608.034 228.358 608.238 228.308 608.503C228.257 608.761 228.186 608.99 228.093 609.19C228 609.391 227.896 609.491 227.781 609.491C227.702 609.491 227.584 609.47 227.427 609.427C227.212 609.369 227.029 609.341 226.879 609.341C226.528 609.341 226.22 609.441 225.955 609.642C225.697 609.835 225.5 610.053 225.364 610.297V616.431C225.364 616.832 224.978 617.032 224.204 617.032H223.678Z" fill="white"/>
<g opacity="0.5">
<path d="M43.0918 541H44.3838L40.7471 531.136H39.5303L35.8936 541H37.1855L38.1768 538.177H42.1006L43.0918 541ZM40.1182 532.633H40.1592L41.7383 537.131H38.5391L40.1182 532.633ZM45.3887 541H46.5781V531.136H45.3887V541ZM56.9619 536.222C56.8115 534.943 55.752 533.768 53.9746 533.768C52.0127 533.768 50.707 535.203 50.707 537.445C50.707 539.735 52.0195 541.123 53.9883 541.123C55.6016 541.123 56.791 540.125 56.9756 538.71H55.8066C55.6016 539.564 54.9658 540.077 53.9951 540.077C52.7646 540.077 51.917 539.1 51.917 537.445C51.917 535.832 52.751 534.813 53.9814 534.813C55.0273 534.813 55.6289 535.449 55.7998 536.222H56.9619ZM61.0156 541.123C62.9775 541.123 64.3037 539.708 64.3037 537.445C64.3037 535.176 62.9775 533.768 61.0156 533.768C59.0469 533.768 57.7207 535.176 57.7207 537.445C57.7207 539.708 59.0469 541.123 61.0156 541.123ZM61.0156 540.077C59.7578 540.077 58.9307 539.12 58.9307 537.445C58.9307 535.771 59.7578 534.813 61.0156 534.813C62.2734 534.813 63.0938 535.771 63.0938 537.445C63.0938 539.12 62.2734 540.077 61.0156 540.077ZM65.5068 541H66.6963V536.816C66.6963 535.613 67.4277 534.82 68.5488 534.82C69.6426 534.82 70.1826 535.449 70.1826 536.598V541H71.3721V536.386C71.3721 534.772 70.4697 533.768 68.9111 533.768C67.8105 533.768 67.0518 534.26 66.6553 535.025H66.6279V533.891H65.5068V541ZM73.2725 532.175V533.891H72.2129V534.868H73.2725V539.154C73.2725 540.521 73.7783 541.055 75.084 541.055C75.3643 541.055 75.6924 541.034 75.8359 541V540.002C75.7539 540.016 75.4805 540.036 75.3438 540.036C74.7354 540.036 74.4619 539.742 74.4619 539.093V534.868H75.8428V533.891H74.4619V532.175H73.2725ZM77.1758 541H78.3652V533.891H77.1758V541ZM77.7705 532.626C78.1875 532.626 78.5156 532.291 78.5156 531.881C78.5156 531.464 78.1875 531.136 77.7705 531.136C77.3604 531.136 77.0254 531.464 77.0254 531.881C77.0254 532.291 77.3604 532.626 77.7705 532.626ZM79.9717 541H81.1611V536.816C81.1611 535.613 81.8926 534.82 83.0137 534.82C84.1074 534.82 84.6475 535.449 84.6475 536.598V541H85.8369V536.386C85.8369 534.772 84.9346 533.768 83.376 533.768C82.2754 533.768 81.5166 534.26 81.1201 535.025H81.0928V533.891H79.9717V541ZM93.1924 533.891H92.0029V538.067C92.0029 539.277 91.3057 540.07 90.1504 540.07C89.0498 540.07 88.5098 539.448 88.5098 538.293V533.891H87.3203V538.505C87.3203 540.118 88.2295 541.123 89.7812 541.123C90.875 541.123 91.6133 540.665 92.0371 539.845H92.0645V541H93.1924V533.891ZM97.082 540.111C96.2275 540.111 95.6602 539.667 95.6602 538.99C95.6602 538.32 96.207 537.896 97.1641 537.835L99.0645 537.719V538.3C99.0645 539.325 98.2031 540.111 97.082 540.111ZM96.8154 541.123C97.7725 541.123 98.6748 540.59 99.0986 539.776H99.126V541H100.254V536.085C100.254 534.67 99.2012 533.768 97.5332 533.768C95.8516 533.768 94.7988 534.711 94.7168 535.941H95.8652C96.0156 535.244 96.5898 534.813 97.5059 534.813C98.4902 534.813 99.0645 535.333 99.0645 536.201V536.796L97.0273 536.912C95.3867 537.008 94.4502 537.773 94.4502 538.99C94.4502 540.269 95.4004 541.123 96.8154 541.123ZM101.765 541H102.954V536.57C102.954 535.565 103.556 534.902 104.479 534.902C104.766 534.902 105.019 534.937 105.114 534.971V533.815C105.019 533.802 104.841 533.768 104.636 533.768C103.802 533.768 103.146 534.267 102.913 535.053H102.886V533.891H101.765V541ZM106.215 542.962L107.151 539.482H105.887L105.224 542.962H106.215ZM113.488 540.111C112.634 540.111 112.066 539.667 112.066 538.99C112.066 538.32 112.613 537.896 113.57 537.835L115.471 537.719V538.3C115.471 539.325 114.609 540.111 113.488 540.111ZM113.222 541.123C114.179 541.123 115.081 540.59 115.505 539.776H115.532V541H116.66V536.085C116.66 534.67 115.607 533.768 113.939 533.768C112.258 533.768 111.205 534.711 111.123 535.941H112.271C112.422 535.244 112.996 534.813 113.912 534.813C114.896 534.813 115.471 535.333 115.471 536.201V536.796L113.434 536.912C111.793 537.008 110.856 537.773 110.856 538.99C110.856 540.269 111.807 541.123 113.222 541.123ZM124.077 536.222C123.927 534.943 122.867 533.768 121.09 533.768C119.128 533.768 117.822 535.203 117.822 537.445C117.822 539.735 119.135 541.123 121.104 541.123C122.717 541.123 123.906 540.125 124.091 538.71H122.922C122.717 539.564 122.081 540.077 121.11 540.077C119.88 540.077 119.032 539.1 119.032 537.445C119.032 535.832 119.866 534.813 121.097 534.813C122.143 534.813 122.744 535.449 122.915 536.222H124.077ZM128.035 534.8C129.156 534.8 129.901 535.647 129.929 536.837H126.066C126.142 535.654 126.921 534.8 128.035 534.8ZM129.901 538.963C129.703 539.633 129.04 540.091 128.138 540.091C126.859 540.091 126.06 539.195 126.06 537.835V537.767H131.159V537.315C131.159 535.162 129.977 533.768 128.056 533.768C126.094 533.768 124.836 535.265 124.836 537.473C124.836 539.708 126.073 541.123 128.11 541.123C129.662 541.123 130.865 540.207 131.07 538.963H129.901ZM135.814 533.768C134.782 533.768 133.955 534.294 133.518 535.094H133.49V533.891H132.362V543.372H133.552V539.845H133.579C134.003 540.624 134.823 541.123 135.842 541.123C137.633 541.123 138.856 539.674 138.856 537.445C138.856 535.217 137.626 533.768 135.814 533.768ZM135.582 540.077C134.365 540.077 133.545 539.031 133.545 537.445C133.545 535.866 134.365 534.813 135.582 534.813C136.847 534.813 137.64 535.839 137.64 537.445C137.64 539.059 136.847 540.077 135.582 540.077ZM140.442 532.175V533.891H139.383V534.868H140.442V539.154C140.442 540.521 140.948 541.055 142.254 541.055C142.534 541.055 142.862 541.034 143.006 541V540.002C142.924 540.016 142.65 540.036 142.514 540.036C141.905 540.036 141.632 539.742 141.632 539.093V534.868H143.013V533.891H141.632V532.175H140.442ZM146.492 540.111C145.638 540.111 145.07 539.667 145.07 538.99C145.07 538.32 145.617 537.896 146.574 537.835L148.475 537.719V538.3C148.475 539.325 147.613 540.111 146.492 540.111ZM146.226 541.123C147.183 541.123 148.085 540.59 148.509 539.776H148.536V541H149.664V536.085C149.664 534.67 148.611 533.768 146.943 533.768C145.262 533.768 144.209 534.711 144.127 535.941H145.275C145.426 535.244 146 534.813 146.916 534.813C147.9 534.813 148.475 535.333 148.475 536.201V536.796L146.438 536.912C144.797 537.008 143.86 537.773 143.86 538.99C143.86 540.269 144.811 541.123 146.226 541.123ZM151.052 535.853C151.052 536.878 151.701 537.5 153.041 537.821L154.169 538.095C154.982 538.293 155.263 538.587 155.263 539.1C155.263 539.742 154.668 540.152 153.704 540.152C152.74 540.152 152.193 539.763 152.05 538.949H150.86C150.997 540.282 152.036 541.123 153.704 541.123C155.29 541.123 156.459 540.248 156.459 539.011C156.459 537.992 155.939 537.432 154.504 537.083L153.376 536.81C152.583 536.618 152.221 536.283 152.221 535.791C152.221 535.169 152.795 534.738 153.663 534.738C154.538 534.738 155.085 535.196 155.174 535.941H156.309C156.261 534.684 155.222 533.768 153.663 533.768C152.125 533.768 151.052 534.636 151.052 535.853ZM160.567 541H161.757V536.816C161.757 535.613 162.488 534.82 163.609 534.82C164.703 534.82 165.243 535.449 165.243 536.598V541H166.433V536.386C166.433 534.772 165.53 533.768 163.972 533.768C162.871 533.768 162.112 534.26 161.716 535.025H161.688V533.891H160.567V541ZM173.788 533.891H172.599V538.067C172.599 539.277 171.901 540.07 170.746 540.07C169.646 540.07 169.105 539.448 169.105 538.293V533.891H167.916V538.505C167.916 540.118 168.825 541.123 170.377 541.123C171.471 541.123 172.209 540.665 172.633 539.845H172.66V541H173.788V533.891ZM178.184 534.8C179.305 534.8 180.05 535.647 180.077 536.837H176.215C176.29 535.654 177.069 534.8 178.184 534.8ZM180.05 538.963C179.852 539.633 179.188 540.091 178.286 540.091C177.008 540.091 176.208 539.195 176.208 537.835V537.767H181.308V537.315C181.308 535.162 180.125 533.768 178.204 533.768C176.242 533.768 174.984 535.265 174.984 537.473C174.984 539.708 176.222 541.123 178.259 541.123C179.811 541.123 181.014 540.207 181.219 538.963H180.05ZM182.388 535.853C182.388 536.878 183.037 537.5 184.377 537.821L185.505 538.095C186.318 538.293 186.599 538.587 186.599 539.1C186.599 539.742 186.004 540.152 185.04 540.152C184.076 540.152 183.529 539.763 183.386 538.949H182.196C182.333 540.282 183.372 541.123 185.04 541.123C186.626 541.123 187.795 540.248 187.795 539.011C187.795 537.992 187.275 537.432 185.84 537.083L184.712 536.81C183.919 536.618 183.557 536.283 183.557 535.791C183.557 535.169 184.131 534.738 184.999 534.738C185.874 534.738 186.421 535.196 186.51 535.941H187.645C187.597 534.684 186.558 533.768 184.999 533.768C183.461 533.768 182.388 534.636 182.388 535.853ZM189.415 532.175V533.891H188.355V534.868H189.415V539.154C189.415 540.521 189.921 541.055 191.227 541.055C191.507 541.055 191.835 541.034 191.979 541V540.002C191.896 540.016 191.623 540.036 191.486 540.036C190.878 540.036 190.604 539.742 190.604 539.093V534.868H191.985V533.891H190.604V532.175H189.415ZM193.257 541H194.446V536.57C194.446 535.565 195.048 534.902 195.971 534.902C196.258 534.902 196.511 534.937 196.606 534.971V533.815C196.511 533.802 196.333 533.768 196.128 533.768C195.294 533.768 194.638 534.267 194.405 535.053H194.378V533.891H193.257V541ZM199.785 540.111C198.931 540.111 198.363 539.667 198.363 538.99C198.363 538.32 198.91 537.896 199.867 537.835L201.768 537.719V538.3C201.768 539.325 200.906 540.111 199.785 540.111ZM199.519 541.123C200.476 541.123 201.378 540.59 201.802 539.776H201.829V541H202.957V536.085C202.957 534.67 201.904 533.768 200.236 533.768C198.555 533.768 197.502 534.711 197.42 535.941H198.568C198.719 535.244 199.293 534.813 200.209 534.813C201.193 534.813 201.768 535.333 201.768 536.201V536.796L199.73 536.912C198.09 537.008 197.153 537.773 197.153 538.99C197.153 540.269 198.104 541.123 199.519 541.123ZM207.523 531.136V541H208.754V537.479H211.03C212.883 537.479 214.202 536.174 214.202 534.301C214.202 532.435 212.896 531.136 211.044 531.136H207.523ZM208.754 532.229H210.723C212.138 532.229 212.938 532.995 212.938 534.301C212.938 535.613 212.131 536.386 210.723 536.386H208.754V532.229ZM218.037 541.123C219.999 541.123 221.325 539.708 221.325 537.445C221.325 535.176 219.999 533.768 218.037 533.768C216.068 533.768 214.742 535.176 214.742 537.445C214.742 539.708 216.068 541.123 218.037 541.123ZM218.037 540.077C216.779 540.077 215.952 539.12 215.952 537.445C215.952 535.771 216.779 534.813 218.037 534.813C219.295 534.813 220.115 535.771 220.115 537.445C220.115 539.12 219.295 540.077 218.037 540.077ZM222.59 541H223.779V531.136H222.59V541ZM225.447 541H226.637V533.891H225.447V541ZM226.514 532.865L228.113 530.814H226.808L225.591 532.865H226.514ZM228.626 532.175V533.891H227.566V534.868H228.626V539.154C228.626 540.521 229.132 541.055 230.438 541.055C230.718 541.055 231.046 541.034 231.189 541V540.002C231.107 540.016 230.834 540.036 230.697 540.036C230.089 540.036 229.815 539.742 229.815 539.093V534.868H231.196V533.891H229.815V532.175H228.626ZM232.529 541H233.719V533.891H232.529V541ZM233.124 532.626C233.541 532.626 233.869 532.291 233.869 531.881C233.869 531.464 233.541 531.136 233.124 531.136C232.714 531.136 232.379 531.464 232.379 531.881C232.379 532.291 232.714 532.626 233.124 532.626ZM241.231 536.222C241.081 534.943 240.021 533.768 238.244 533.768C236.282 533.768 234.977 535.203 234.977 537.445C234.977 539.735 236.289 541.123 238.258 541.123C239.871 541.123 241.061 540.125 241.245 538.71H240.076C239.871 539.564 239.235 540.077 238.265 540.077C237.034 540.077 236.187 539.1 236.187 537.445C236.187 535.832 237.021 534.813 238.251 534.813C239.297 534.813 239.898 535.449 240.069 536.222H241.231ZM244.684 540.111C243.829 540.111 243.262 539.667 243.262 538.99C243.262 538.32 243.809 537.896 244.766 537.835L246.666 537.719V538.3C246.666 539.325 245.805 540.111 244.684 540.111ZM244.417 541.123C245.374 541.123 246.276 540.59 246.7 539.776H246.728V541H247.855V536.085C247.855 534.67 246.803 533.768 245.135 533.768C243.453 533.768 242.4 534.711 242.318 535.941H243.467C243.617 535.244 244.191 534.813 245.107 534.813C246.092 534.813 246.666 535.333 246.666 536.201V536.796L244.629 536.912C242.988 537.008 242.052 537.773 242.052 538.99C242.052 540.269 243.002 541.123 244.417 541.123ZM254.931 541.123C255.956 541.123 256.77 540.617 257.228 539.797H257.248V541H258.383V531.136H257.193V535.046H257.166C256.742 534.267 255.922 533.768 254.903 533.768C253.112 533.768 251.889 535.217 251.889 537.445C251.889 539.674 253.119 541.123 254.931 541.123ZM255.156 534.813C256.38 534.813 257.2 535.859 257.2 537.445C257.2 539.038 256.38 540.077 255.156 540.077C253.898 540.077 253.105 539.059 253.105 537.445C253.105 535.839 253.898 534.813 255.156 534.813ZM262.84 534.8C263.961 534.8 264.706 535.647 264.733 536.837H260.871C260.946 535.654 261.726 534.8 262.84 534.8ZM264.706 538.963C264.508 539.633 263.845 540.091 262.942 540.091C261.664 540.091 260.864 539.195 260.864 537.835V537.767H265.964V537.315C265.964 535.162 264.781 533.768 262.86 533.768C260.898 533.768 259.641 535.265 259.641 537.473C259.641 539.708 260.878 541.123 262.915 541.123C264.467 541.123 265.67 540.207 265.875 538.963H264.706ZM270.223 531.136V541H271.453V537.479H273.729C275.582 537.479 276.901 536.174 276.901 534.301C276.901 532.435 275.596 531.136 273.743 531.136H270.223ZM271.453 532.229H273.422C274.837 532.229 275.637 532.995 275.637 534.301C275.637 535.613 274.83 536.386 273.422 536.386H271.453V532.229ZM278.132 541H279.321V536.57C279.321 535.565 279.923 534.902 280.846 534.902C281.133 534.902 281.386 534.937 281.481 534.971V533.815C281.386 533.802 281.208 533.768 281.003 533.768C280.169 533.768 279.513 534.267 279.28 535.053H279.253V533.891H278.132V541ZM282.514 541H283.703V533.891H282.514V541ZM283.108 532.626C283.525 532.626 283.854 532.291 283.854 531.881C283.854 531.464 283.525 531.136 283.108 531.136C282.698 531.136 282.363 531.464 282.363 531.881C282.363 532.291 282.698 532.626 283.108 532.626ZM291.141 533.891H289.903L287.935 539.735H287.907L285.945 533.891H284.694L287.312 541H288.529L291.141 533.891ZM294.285 540.111C293.431 540.111 292.863 539.667 292.863 538.99C292.863 538.32 293.41 537.896 294.367 537.835L296.268 537.719V538.3C296.268 539.325 295.406 540.111 294.285 540.111ZM294.019 541.123C294.976 541.123 295.878 540.59 296.302 539.776H296.329V541H297.457V536.085C297.457 534.67 296.404 533.768 294.736 533.768C293.055 533.768 292.002 534.711 291.92 535.941H293.068C293.219 535.244 293.793 534.813 294.709 534.813C295.693 534.813 296.268 535.333 296.268 536.201V536.796L294.23 536.912C292.59 537.008 291.653 537.773 291.653 538.99C291.653 540.269 292.604 541.123 294.019 541.123ZM304.874 536.222C304.724 534.943 303.664 533.768 301.887 533.768C299.925 533.768 298.619 535.203 298.619 537.445C298.619 539.735 299.932 541.123 301.9 541.123C303.514 541.123 304.703 540.125 304.888 538.71H303.719C303.514 539.564 302.878 540.077 301.907 540.077C300.677 540.077 299.829 539.1 299.829 537.445C299.829 535.832 300.663 534.813 301.894 534.813C302.939 534.813 303.541 535.449 303.712 536.222H304.874ZM306.043 541H307.232V533.891H306.043V541ZM306.638 532.626C307.055 532.626 307.383 532.291 307.383 531.881C307.383 531.464 307.055 531.136 306.638 531.136C306.228 531.136 305.893 531.464 305.893 531.881C305.893 532.291 306.228 532.626 306.638 532.626ZM311.532 541.123C312.558 541.123 313.371 540.617 313.829 539.797H313.85V541H314.984V531.136H313.795V535.046H313.768C313.344 534.267 312.523 533.768 311.505 533.768C309.714 533.768 308.49 535.217 308.49 537.445C308.49 539.674 309.721 541.123 311.532 541.123ZM311.758 534.813C312.981 534.813 313.802 535.859 313.802 537.445C313.802 539.038 312.981 540.077 311.758 540.077C310.5 540.077 309.707 539.059 309.707 537.445C309.707 535.839 310.5 534.813 311.758 534.813ZM318.936 540.111C318.081 540.111 317.514 539.667 317.514 538.99C317.514 538.32 318.061 537.896 319.018 537.835L320.918 537.719V538.3C320.918 539.325 320.057 540.111 318.936 540.111ZM318.669 541.123C319.626 541.123 320.528 540.59 320.952 539.776H320.979V541H322.107V536.085C322.107 534.67 321.055 533.768 319.387 533.768C317.705 533.768 316.652 534.711 316.57 535.941H317.719C317.869 535.244 318.443 534.813 319.359 534.813C320.344 534.813 320.918 535.333 320.918 536.201V536.796L318.881 536.912C317.24 537.008 316.304 537.773 316.304 538.99C316.304 540.269 317.254 541.123 318.669 541.123ZM326.312 541.123C327.337 541.123 328.15 540.617 328.608 539.797H328.629V541H329.764V531.136H328.574V535.046H328.547C328.123 534.267 327.303 533.768 326.284 533.768C324.493 533.768 323.27 535.217 323.27 537.445C323.27 539.674 324.5 541.123 326.312 541.123ZM326.537 534.813C327.761 534.813 328.581 535.859 328.581 537.445C328.581 539.038 327.761 540.077 326.537 540.077C325.279 540.077 324.486 539.059 324.486 537.445C324.486 535.839 325.279 534.813 326.537 534.813ZM334.836 543.659C336.121 543.659 336.709 543.16 337.317 541.499L340.113 533.891H338.862L336.894 539.811H336.873L334.904 533.891H333.633L336.258 541.007L336.094 541.506C335.82 542.333 335.451 542.654 334.788 542.654C334.638 542.654 334.453 542.647 334.323 542.62V543.618C334.453 543.646 334.692 543.659 334.836 543.659ZM129.149 561V552.243H132.26V551.136H124.809V552.243H127.919V561H129.149ZM134.379 554.8C135.5 554.8 136.245 555.647 136.272 556.837H132.41C132.485 555.654 133.265 554.8 134.379 554.8ZM136.245 558.963C136.047 559.633 135.384 560.091 134.481 560.091C133.203 560.091 132.403 559.195 132.403 557.835V557.767H137.503V557.315C137.503 555.162 136.32 553.768 134.399 553.768C132.438 553.768 131.18 555.265 131.18 557.473C131.18 559.708 132.417 561.123 134.454 561.123C136.006 561.123 137.209 560.207 137.414 558.963H136.245ZM134.871 552.865L136.471 550.814H135.165L133.948 552.865H134.871ZM138.706 561H139.896V556.57C139.896 555.565 140.497 554.902 141.42 554.902C141.707 554.902 141.96 554.937 142.056 554.971V553.815C141.96 553.802 141.782 553.768 141.577 553.768C140.743 553.768 140.087 554.267 139.854 555.053H139.827V553.891H138.706V561ZM143.026 561H144.216V556.543C144.216 555.559 144.899 554.82 145.843 554.82C146.725 554.82 147.299 555.381 147.299 556.235V561H148.488V556.481C148.488 555.518 149.151 554.82 150.095 554.82C151.031 554.82 151.571 555.395 151.571 556.365V561H152.761V556.092C152.761 554.684 151.852 553.768 150.443 553.768C149.445 553.768 148.611 554.273 148.215 555.121H148.188C147.88 554.26 147.162 553.768 146.191 553.768C145.234 553.768 144.51 554.273 144.175 555.025H144.147V553.891H143.026V561ZM154.34 561H155.529V553.891H154.34V561ZM154.935 552.626C155.352 552.626 155.68 552.291 155.68 551.881C155.68 551.464 155.352 551.136 154.935 551.136C154.524 551.136 154.189 551.464 154.189 551.881C154.189 552.291 154.524 552.626 154.935 552.626ZM157.136 561H158.325V556.816C158.325 555.613 159.057 554.82 160.178 554.82C161.271 554.82 161.812 555.449 161.812 556.598V561H163.001V556.386C163.001 554.772 162.099 553.768 160.54 553.768C159.439 553.768 158.681 554.26 158.284 555.025H158.257V553.891H157.136V561ZM167.465 561.123C169.427 561.123 170.753 559.708 170.753 557.445C170.753 555.176 169.427 553.768 167.465 553.768C165.496 553.768 164.17 555.176 164.17 557.445C164.17 559.708 165.496 561.123 167.465 561.123ZM167.465 560.077C166.207 560.077 165.38 559.12 165.38 557.445C165.38 555.771 166.207 554.813 167.465 554.813C168.723 554.813 169.543 555.771 169.543 557.445C169.543 559.12 168.723 560.077 167.465 560.077ZM171.833 555.853C171.833 556.878 172.482 557.5 173.822 557.821L174.95 558.095C175.764 558.293 176.044 558.587 176.044 559.1C176.044 559.742 175.449 560.152 174.485 560.152C173.521 560.152 172.975 559.763 172.831 558.949H171.642C171.778 560.282 172.817 561.123 174.485 561.123C176.071 561.123 177.24 560.248 177.24 559.011C177.24 557.992 176.721 557.432 175.285 557.083L174.157 556.81C173.364 556.618 173.002 556.283 173.002 555.791C173.002 555.169 173.576 554.738 174.444 554.738C175.319 554.738 175.866 555.196 175.955 555.941H177.09C177.042 554.684 176.003 553.768 174.444 553.768C172.906 553.768 171.833 554.636 171.833 555.853ZM184.042 561.123C185.067 561.123 185.881 560.617 186.339 559.797H186.359V561H187.494V551.136H186.305V555.046H186.277C185.854 554.267 185.033 553.768 184.015 553.768C182.224 553.768 181 555.217 181 557.445C181 559.674 182.23 561.123 184.042 561.123ZM184.268 554.813C185.491 554.813 186.312 555.859 186.312 557.445C186.312 559.038 185.491 560.077 184.268 560.077C183.01 560.077 182.217 559.059 182.217 557.445C182.217 555.839 183.01 554.813 184.268 554.813ZM191.951 554.8C193.072 554.8 193.817 555.647 193.845 556.837H189.982C190.058 555.654 190.837 554.8 191.951 554.8ZM193.817 558.963C193.619 559.633 192.956 560.091 192.054 560.091C190.775 560.091 189.976 559.195 189.976 557.835V557.767H195.075V557.315C195.075 555.162 193.893 553.768 191.972 553.768C190.01 553.768 188.752 555.265 188.752 557.473C188.752 559.708 189.989 561.123 192.026 561.123C193.578 561.123 194.781 560.207 194.986 558.963H193.817ZM196.34 561H197.529V551.136H196.34V561ZM201.713 558.354C201.829 560.057 203.265 561.164 205.418 561.164C207.626 561.164 209.062 560.022 209.062 558.197C209.062 556.803 208.248 555.982 206.19 555.531L205.097 555.292C203.75 554.998 203.224 554.465 203.224 553.686C203.224 552.681 204.174 552.079 205.404 552.079C206.689 552.079 207.544 552.742 207.653 553.822H208.884C208.829 552.147 207.407 550.972 205.438 550.972C203.395 550.972 201.959 552.113 201.959 553.74C201.959 555.142 202.813 556.037 204.789 556.468L205.883 556.707C207.25 557.008 207.797 557.555 207.797 558.382C207.797 559.353 206.826 560.057 205.486 560.057C204.071 560.057 203.087 559.414 202.943 558.354H201.713ZM213.17 554.8C214.291 554.8 215.036 555.647 215.063 556.837H211.201C211.276 555.654 212.056 554.8 213.17 554.8ZM215.036 558.963C214.838 559.633 214.175 560.091 213.272 560.091C211.994 560.091 211.194 559.195 211.194 557.835V557.767H216.294V557.315C216.294 555.162 215.111 553.768 213.19 553.768C211.229 553.768 209.971 555.265 209.971 557.473C209.971 559.708 211.208 561.123 213.245 561.123C214.797 561.123 216 560.207 216.205 558.963H215.036ZM217.497 561H218.687V556.57C218.687 555.565 219.288 554.902 220.211 554.902C220.498 554.902 220.751 554.937 220.847 554.971V553.815C220.751 553.802 220.573 553.768 220.368 553.768C219.534 553.768 218.878 554.267 218.646 555.053H218.618V553.891H217.497V561ZM227.648 553.891H226.411L224.442 559.735H224.415L222.453 553.891H221.202L223.82 561H225.037L227.648 553.891ZM228.646 561H229.836V553.891H228.646V561ZM229.241 552.626C229.658 552.626 229.986 552.291 229.986 551.881C229.986 551.464 229.658 551.136 229.241 551.136C228.831 551.136 228.496 551.464 228.496 551.881C228.496 552.291 228.831 552.626 229.241 552.626ZM237.349 556.222C237.198 554.943 236.139 553.768 234.361 553.768C232.399 553.768 231.094 555.203 231.094 557.445C231.094 559.735 232.406 561.123 234.375 561.123C235.988 561.123 237.178 560.125 237.362 558.71H236.193C235.988 559.564 235.353 560.077 234.382 560.077C233.151 560.077 232.304 559.1 232.304 557.445C232.304 555.832 233.138 554.813 234.368 554.813C235.414 554.813 236.016 555.449 236.187 556.222H237.349ZM238.518 561H239.707V553.891H238.518V561ZM239.112 552.626C239.529 552.626 239.857 552.291 239.857 551.881C239.857 551.464 239.529 551.136 239.112 551.136C238.702 551.136 238.367 551.464 238.367 551.881C238.367 552.291 238.702 552.626 239.112 552.626ZM244.26 561.123C246.222 561.123 247.548 559.708 247.548 557.445C247.548 555.176 246.222 553.768 244.26 553.768C242.291 553.768 240.965 555.176 240.965 557.445C240.965 559.708 242.291 561.123 244.26 561.123ZM244.26 560.077C243.002 560.077 242.175 559.12 242.175 557.445C242.175 555.771 243.002 554.813 244.26 554.813C245.518 554.813 246.338 555.771 246.338 557.445C246.338 559.12 245.518 560.077 244.26 560.077ZM249.756 561.068C250.193 561.068 250.535 560.727 250.535 560.289C250.535 559.852 250.193 559.51 249.756 559.51C249.318 559.51 248.977 559.852 248.977 560.289C248.977 560.727 249.318 561.068 249.756 561.068Z" fill="#9B9B9B"/>
<path d="M206.566 543.529H330.598V544.35H206.566V543.529Z" fill="#9B9B9B"/>
<path d="M124.467 563.529H247.972V564.35H124.467V563.529Z" fill="#9B9B9B"/>
</g>
<g opacity="0.5">
<path d="M131.571 654.781H130.402C130.327 655.766 129.67 656.374 128.645 656.374C127.62 656.374 126.963 655.752 126.963 654.891C126.963 654.173 127.278 653.742 128.064 653.257C129.007 652.689 129.438 652.081 129.424 651.179V650.55H128.228V650.994C128.228 651.712 127.989 652.088 127.121 652.607C126.252 653.134 125.692 653.893 125.692 654.952C125.692 656.374 126.868 657.44 128.597 657.44C130.504 657.44 131.502 656.265 131.571 654.781ZM128.741 648.95C129.185 648.95 129.52 648.608 129.52 648.171C129.52 647.727 129.185 647.392 128.741 647.392C128.303 647.392 127.961 647.727 127.961 648.171C127.961 648.608 128.303 648.95 128.741 648.95ZM132.911 645.136V655H134.141V651.479H136.417C138.27 651.479 139.589 650.174 139.589 648.301C139.589 646.435 138.284 645.136 136.431 645.136H132.911ZM134.141 646.229H136.11C137.525 646.229 138.325 646.995 138.325 648.301C138.325 649.613 137.518 650.386 136.11 650.386H134.141V646.229ZM143.329 648.8C144.45 648.8 145.195 649.647 145.222 650.837H141.36C141.435 649.654 142.214 648.8 143.329 648.8ZM145.195 652.963C144.997 653.633 144.333 654.091 143.431 654.091C142.153 654.091 141.353 653.195 141.353 651.835V651.767H146.453V651.315C146.453 649.162 145.27 647.768 143.349 647.768C141.387 647.768 140.129 649.265 140.129 651.473C140.129 653.708 141.367 655.123 143.404 655.123C144.956 655.123 146.159 654.207 146.364 652.963H145.195ZM147.656 655H148.845V650.57C148.845 649.565 149.447 648.902 150.37 648.902C150.657 648.902 150.91 648.937 151.005 648.971V647.815C150.91 647.802 150.732 647.768 150.527 647.768C149.693 647.768 149.037 648.267 148.804 649.053H148.777V647.891H147.656V655ZM154.328 655.123C155.353 655.123 156.166 654.617 156.624 653.797H156.645V655H157.78V645.136H156.59V649.046H156.563C156.139 648.267 155.319 647.768 154.3 647.768C152.509 647.768 151.286 649.217 151.286 651.445C151.286 653.674 152.516 655.123 154.328 655.123ZM154.553 648.813C155.777 648.813 156.597 649.859 156.597 651.445C156.597 653.038 155.777 654.077 154.553 654.077C153.295 654.077 152.502 653.059 152.502 651.445C152.502 649.839 153.295 648.813 154.553 648.813ZM159.448 655H160.637V647.891H159.448V655ZM160.042 646.626C160.459 646.626 160.788 646.291 160.788 645.881C160.788 645.464 160.459 645.136 160.042 645.136C159.632 645.136 159.297 645.464 159.297 645.881C159.297 646.291 159.632 646.626 160.042 646.626ZM162.121 649.853C162.121 650.878 162.77 651.5 164.11 651.821L165.238 652.095C166.051 652.293 166.332 652.587 166.332 653.1C166.332 653.742 165.737 654.152 164.773 654.152C163.809 654.152 163.262 653.763 163.119 652.949H161.929C162.066 654.282 163.105 655.123 164.773 655.123C166.359 655.123 167.528 654.248 167.528 653.011C167.528 651.992 167.008 651.432 165.573 651.083L164.445 650.81C163.652 650.618 163.29 650.283 163.29 649.791C163.29 649.169 163.864 648.738 164.732 648.738C165.607 648.738 166.154 649.196 166.243 649.941H167.377C167.33 648.684 166.29 647.768 164.732 647.768C163.194 647.768 162.121 648.636 162.121 649.853ZM169.148 646.175V647.891H168.088V648.868H169.148V653.154C169.148 654.521 169.654 655.055 170.959 655.055C171.24 655.055 171.568 655.034 171.711 655V654.002C171.629 654.016 171.356 654.036 171.219 654.036C170.611 654.036 170.337 653.742 170.337 653.093V648.868H171.718V647.891H170.337V646.175H169.148ZM175.635 648.8C176.756 648.8 177.501 649.647 177.529 650.837H173.666C173.742 649.654 174.521 648.8 175.635 648.8ZM177.501 652.963C177.303 653.633 176.64 654.091 175.738 654.091C174.459 654.091 173.66 653.195 173.66 651.835V651.767H178.759V651.315C178.759 649.162 177.577 647.768 175.656 647.768C173.694 647.768 172.436 649.265 172.436 651.473C172.436 653.708 173.673 655.123 175.71 655.123C177.262 655.123 178.465 654.207 178.67 652.963H177.501ZM183.216 646.175V647.891H182.157V648.868H183.216V653.154C183.216 654.521 183.722 655.055 185.028 655.055C185.308 655.055 185.636 655.034 185.78 655V654.002C185.698 654.016 185.424 654.036 185.288 654.036C184.679 654.036 184.406 653.742 184.406 653.093V648.868H185.787V647.891H184.406V646.175H183.216ZM192.896 647.891H191.707V652.067C191.707 653.277 191.009 654.07 189.854 654.07C188.753 654.07 188.213 653.448 188.213 652.293V647.891H187.024V652.505C187.024 654.118 187.933 655.123 189.485 655.123C190.579 655.123 191.317 654.665 191.741 653.845H191.768V655H192.896V647.891ZM197.695 646.175V647.891H196.635V648.868H197.695V653.154C197.695 654.521 198.201 655.055 199.506 655.055C199.787 655.055 200.115 655.034 200.258 655V654.002C200.176 654.016 199.903 654.036 199.766 654.036C199.158 654.036 198.884 653.742 198.884 653.093V648.868H200.265V647.891H198.884V646.175H197.695ZM204.182 648.8C205.303 648.8 206.048 649.647 206.076 650.837H202.213C202.289 649.654 203.068 648.8 204.182 648.8ZM206.048 652.963C205.85 653.633 205.187 654.091 204.285 654.091C203.006 654.091 202.207 653.195 202.207 651.835V651.767H207.306V651.315C207.306 649.162 206.124 647.768 204.203 647.768C202.241 647.768 200.983 649.265 200.983 651.473C200.983 653.708 202.22 655.123 204.257 655.123C205.809 655.123 207.012 654.207 207.217 652.963H206.048ZM208.571 655H209.76V645.136H208.571V655ZM214.217 648.8C215.338 648.8 216.083 649.647 216.111 650.837H212.249C212.324 649.654 213.103 648.8 214.217 648.8ZM216.083 652.963C215.885 653.633 215.222 654.091 214.32 654.091C213.041 654.091 212.242 653.195 212.242 651.835V651.767H217.341V651.315C217.341 649.162 216.159 647.768 214.238 647.768C212.276 647.768 211.018 649.265 211.018 651.473C211.018 653.708 212.255 655.123 214.292 655.123C215.844 655.123 217.047 654.207 217.252 652.963H216.083ZM214.709 646.865L216.309 644.814H215.003L213.787 646.865H214.709ZM218.927 655H220.117V648.868H221.566V647.891H220.11V647.104C220.11 646.4 220.417 646.059 221.06 646.059C221.258 646.059 221.457 646.079 221.6 646.1V645.136C221.429 645.108 221.142 645.081 220.875 645.081C219.563 645.081 218.927 645.73 218.927 647.098V647.891H217.936V648.868H218.927V655ZM225.401 655.123C227.363 655.123 228.689 653.708 228.689 651.445C228.689 649.176 227.363 647.768 225.401 647.768C223.432 647.768 222.106 649.176 222.106 651.445C222.106 653.708 223.432 655.123 225.401 655.123ZM225.401 654.077C224.143 654.077 223.316 653.12 223.316 651.445C223.316 649.771 224.143 648.813 225.401 648.813C226.659 648.813 227.479 649.771 227.479 651.445C227.479 653.12 226.659 654.077 225.401 654.077ZM229.892 655H231.082V650.816C231.082 649.613 231.813 648.82 232.934 648.82C234.028 648.82 234.568 649.449 234.568 650.598V655H235.757V650.386C235.757 648.772 234.855 647.768 233.296 647.768C232.196 647.768 231.437 648.26 231.04 649.025H231.013V647.891H229.892V655ZM240.221 655.123C242.183 655.123 243.509 653.708 243.509 651.445C243.509 649.176 242.183 647.768 240.221 647.768C238.252 647.768 236.926 649.176 236.926 651.445C236.926 653.708 238.252 655.123 240.221 655.123ZM240.221 654.077C238.963 654.077 238.136 653.12 238.136 651.445C238.136 649.771 238.963 648.813 240.221 648.813C241.479 648.813 242.299 649.771 242.299 651.445C242.299 653.12 241.479 654.077 240.221 654.077ZM244.323 647.713H245.492C245.567 646.735 246.223 646.127 247.255 646.127C248.274 646.127 248.93 646.749 248.93 647.597C248.93 648.328 248.623 648.759 247.83 649.244C246.893 649.805 246.456 650.42 246.462 651.322V651.951H247.659V651.507C247.659 650.789 247.905 650.406 248.773 649.894C249.648 649.367 250.202 648.608 250.202 647.535C250.202 646.127 249.026 645.061 247.303 645.061C245.382 645.061 244.398 646.243 244.323 647.713ZM247.064 655.068C247.508 655.068 247.843 654.727 247.843 654.289C247.843 653.845 247.508 653.51 247.064 653.51C246.626 653.51 246.285 653.845 246.285 654.289C246.285 654.727 246.626 655.068 247.064 655.068Z" fill="#9B9B9B"/>
<path d="M125.104 657.529H250.79V658.35H125.104V657.529Z" fill="#9B9B9B"/>
</g>
<path fill-rule="evenodd" clip-rule="evenodd" d="M152.734 86C140.209 86 130.057 96.152 130.057 108.678V178.086C130.057 181.242 130.704 184.245 131.869 186.976C131.869 186.976 132.18 187.613 132.78 187.078C134.484 185.532 136.488 183.918 136.488 183.918C150.9 172.33 168.993 165.949 187.438 165.949H187.44C205.885 165.949 223.978 172.33 238.39 183.918C238.39 183.918 240.511 185.629 242.245 187.211C242.245 187.211 242.58 187.548 242.906 187.16C242.906 187.16 242.976 187.061 243.022 186.949C244.175 184.226 244.821 181.23 244.821 178.086V108.678C244.821 96.152 234.669 86 222.143 86H152.734ZM175.389 104.822C175.386 104.809 175.393 104.797 175.393 104.783C175.38 104.765 175.366 104.744 175.366 104.72C175.366 104.702 175.373 104.682 175.383 104.666V104.664C175.69 104.178 176.638 102.814 178.047 101.994C178.167 101.924 178.289 101.859 178.412 101.801C178.464 101.776 178.516 101.754 178.569 101.731C178.659 101.69 178.746 101.654 178.838 101.619C178.893 101.599 178.948 101.58 179.003 101.561C179.14 101.517 179.28 101.477 179.422 101.445C179.601 101.407 179.78 101.377 179.968 101.362C179.968 101.362 180.387 101.3 181.076 101.245H181.078C181.143 101.238 181.208 101.235 181.276 101.228C181.327 101.225 181.377 101.22 181.428 101.217C181.507 101.213 181.585 101.205 181.669 101.201C181.752 101.197 181.841 101.191 181.931 101.188C181.981 101.183 182.031 101.182 182.083 101.18C182.21 101.173 182.34 101.166 182.473 101.162C182.5 101.162 182.53 101.159 182.557 101.159C182.682 101.156 182.811 101.153 182.942 101.15C182.981 101.15 183.018 101.15 183.057 101.148C183.186 101.147 183.315 101.147 183.446 101.147H183.535H183.615C183.767 101.147 183.919 101.15 184.074 101.153C184.106 101.153 184.136 101.155 184.166 101.155C184.281 101.156 184.399 101.159 184.517 101.166C189.016 101.357 192.942 102.246 192.942 102.246C192.942 102.246 194.266 102.49 195.852 103.223H195.854C196.018 103.298 196.196 103.377 196.364 103.465C196.364 103.465 197.627 104.016 197.998 104.522C198.003 104.528 198.008 104.53 198.01 104.534C198.013 104.537 198.016 104.541 198.018 104.543C198.022 104.548 198.016 104.557 198.015 104.563C198.032 104.607 198.045 104.656 198.033 104.707C198.005 104.83 197.888 104.926 197.768 104.904C193.815 104.621 190.526 104.49 187.417 104.49C183.813 104.49 179.965 104.66 175.657 105.012C175.649 105.014 175.643 105.014 175.635 105.014C175.52 105.014 175.418 104.936 175.389 104.822ZM166.862 111.211C166.809 111.119 166.823 111.004 166.892 110.922C166.899 110.912 167.848 109.803 169.491 108.412C169.526 108.381 169.573 108.359 169.621 108.354C175.713 107.578 181.702 107.186 187.417 107.186C192.747 107.186 198.332 107.527 204.018 108.202C204.069 108.209 204.116 108.229 204.152 108.26C205.479 109.377 206.364 110.324 206.719 110.723C206.789 110.768 206.836 110.848 206.836 110.938C206.834 111.08 206.719 111.178 206.574 111.193C206.554 111.195 206.547 111.191 206.534 111.191C200.086 110.289 193.653 109.832 187.417 109.832C180.688 109.832 173.86 110.34 167.124 111.34C167.11 111.342 167.096 111.344 167.084 111.344C166.992 111.344 166.907 111.293 166.862 111.211ZM164.834 117.035C164.776 116.978 164.747 116.897 164.76 116.816C164.867 116.049 165.02 115.301 165.221 114.535C165.246 114.438 165.326 114.366 165.426 114.348C172.76 113.141 180.158 112.527 187.417 112.527C194.399 112.527 201.463 113.081 208.416 114.172C208.512 114.186 208.59 114.256 208.62 114.351C208.841 115.117 209.006 115.842 209.12 116.568C209.138 116.603 209.148 116.643 209.148 116.683C209.148 116.824 209.034 116.94 208.893 116.94H208.879C208.866 116.94 208.852 116.938 208.839 116.935C201.7 115.768 194.493 115.174 187.417 115.174C180.061 115.174 172.537 115.825 165.054 117.104C165.039 117.105 165.026 117.107 165.012 117.107C164.946 117.107 164.881 117.082 164.834 117.035ZM164.53 122.531C164.473 122.485 164.438 122.412 164.438 122.338C164.432 121.577 164.444 120.84 164.47 120.148C164.475 120.029 164.563 119.93 164.68 119.908C172.283 118.557 179.934 117.869 187.417 117.869C194.593 117.869 201.929 118.5 209.221 119.742C209.34 119.762 209.428 119.863 209.435 119.983C209.463 120.727 209.475 121.463 209.467 122.172C209.465 122.246 209.432 122.316 209.375 122.365C209.317 122.412 209.244 122.435 209.168 122.42C201.887 121.156 194.569 120.515 187.417 120.515C179.948 120.515 172.319 121.213 164.739 122.586C164.723 122.59 164.707 122.59 164.692 122.59C164.633 122.59 164.577 122.568 164.53 122.531ZM164.811 127.916C164.754 127.873 164.717 127.806 164.712 127.736C164.651 127.055 164.594 126.34 164.547 125.586C164.542 125.459 164.63 125.344 164.757 125.32C172.315 123.92 179.938 123.211 187.417 123.211C194.563 123.211 201.866 123.863 209.127 125.15C209.253 125.174 209.345 125.289 209.335 125.418C209.286 126.166 209.226 126.885 209.159 127.565C209.153 127.637 209.116 127.701 209.059 127.744C209.003 127.787 208.932 127.805 208.86 127.791C201.69 126.509 194.475 125.86 187.417 125.86C180.01 125.86 172.473 126.566 165.012 127.965C164.997 127.966 164.981 127.969 164.966 127.969C164.911 127.969 164.856 127.949 164.811 127.916ZM165.483 133.271C165.428 133.231 165.393 133.172 165.383 133.104L165.063 130.944C165.041 130.809 165.131 130.68 165.266 130.654C172.635 129.26 180.086 128.552 187.417 128.552C194.379 128.552 201.497 129.201 208.569 130.477C208.704 130.502 208.796 130.627 208.776 130.764C208.589 132.088 208.444 132.877 208.444 132.885C208.419 133.024 208.292 133.115 208.147 133.09C201.221 131.836 194.247 131.201 187.417 131.201C179.983 131.201 165.815 133.297 165.672 133.319C165.66 133.321 165.648 133.322 165.635 133.322C165.58 133.322 165.528 133.304 165.483 133.271ZM164.39 138.883C164.333 138.846 164.293 138.787 164.28 138.721C164.127 137.963 164.031 137.235 163.999 136.553C163.992 136.427 164.076 136.317 164.201 136.291C179.057 133.189 194.608 133.105 209.592 136.086C209.714 136.11 209.799 136.219 209.797 136.344C209.78 136.993 209.694 137.721 209.544 138.51C209.532 138.577 209.493 138.635 209.436 138.674C209.38 138.712 209.309 138.724 209.244 138.712C194.551 135.766 179.245 135.836 164.582 138.919C164.565 138.924 164.547 138.926 164.53 138.926C164.479 138.926 164.43 138.912 164.39 138.883ZM165.83 143.877L165.136 141.845C165.112 141.777 165.119 141.701 165.156 141.637C165.192 141.573 165.253 141.53 165.325 141.513C179.474 138.569 194.252 138.487 208.522 141.321C208.594 141.334 208.657 141.381 208.692 141.443C208.729 141.508 208.737 141.584 208.714 141.655L207.998 143.698C207.958 143.816 207.834 143.887 207.709 143.863C193.895 141.158 179.672 141.26 166.124 144.044C166.106 144.049 166.089 144.05 166.073 144.05C165.966 144.05 165.867 143.982 165.83 143.877ZM168.91 148.955C168.593 148.909 167.763 148.619 166.915 146.973C166.88 146.902 166.88 146.819 166.912 146.746C166.948 146.674 167.014 146.624 167.092 146.605C173.77 145.262 180.61 144.581 187.417 144.581C193.84 144.581 200.352 145.205 206.774 146.434C206.852 146.449 206.918 146.498 206.956 146.57C206.991 146.641 206.991 146.724 206.956 146.794C206.337 148.073 205.716 148.594 205.307 148.805C205.257 148.83 205.197 148.841 205.145 148.83C199.213 147.766 193.249 147.227 187.417 147.227C181.333 147.227 175.136 147.809 168.995 148.955C168.979 148.957 168.963 148.959 168.948 148.959C168.936 148.959 168.924 148.957 168.91 148.955ZM171.24 153.754C171.006 153.035 170.754 152.379 170.467 151.75C170.434 151.68 170.436 151.596 170.474 151.528C170.51 151.457 170.577 151.408 170.654 151.394C176.266 150.418 181.907 149.922 187.417 149.922C192.627 149.922 197.938 150.359 203.199 151.219C203.279 151.232 203.348 151.281 203.386 151.351C203.423 151.422 203.424 151.508 203.391 151.578C203.11 152.182 202.85 152.836 202.604 153.581C202.565 153.698 202.442 153.766 202.323 153.75C197.384 152.967 192.369 152.571 187.417 152.571C182.183 152.571 176.837 153.027 171.526 153.928C171.51 153.93 171.497 153.932 171.483 153.932C171.374 153.932 171.274 153.861 171.24 153.754ZM172.235 159.134C172.176 159.088 172.143 159.017 172.141 158.944C172.128 158.215 172.073 157.525 171.971 156.836C171.95 156.699 172.043 156.57 172.18 156.549C177.276 155.697 182.403 155.264 187.417 155.264C192.155 155.264 196.938 155.635 201.633 156.365C201.7 156.375 201.76 156.412 201.802 156.467C201.84 156.522 201.856 156.588 201.847 156.657C201.735 157.365 201.669 158.072 201.645 158.758C201.643 158.831 201.61 158.9 201.553 158.947C201.498 158.992 201.43 159.016 201.352 159.002C196.739 158.279 192.049 157.912 187.417 157.912C182.487 157.912 177.448 158.341 172.44 159.189C172.427 159.191 172.41 159.194 172.398 159.194C172.338 159.194 172.281 159.172 172.235 159.134ZM167.997 165.315C167.952 165.193 168.002 165.058 168.116 164.998C169.601 164.209 170.69 163.27 171.352 162.206C171.39 162.147 171.453 162.104 171.522 162.092C176.819 161.105 182.166 160.608 187.417 160.608C192.268 160.608 197.229 161.036 202.161 161.885C202.237 161.898 202.303 161.945 202.338 162.01C202.895 162.986 203.788 163.853 204.989 164.587C205.09 164.621 205.165 164.717 205.165 164.831C205.165 164.971 205.05 165.086 204.908 165.086H204.897C204.88 165.086 204.862 165.084 204.845 165.08C192.844 162.543 180.365 162.654 168.294 165.473C168.274 165.477 168.254 165.479 168.235 165.479C168.132 165.479 168.034 165.414 167.997 165.315ZM187.363 168.596C168.111 168.613 149.561 175.692 135.129 188.528L133.966 189.572L133.8 189.737C133.401 190.115 133.79 190.553 133.79 190.553C134.1 191.021 134.429 191.48 134.773 191.924C134.773 191.924 135.011 192.322 135.378 191.97L135.745 191.619C149.805 178.558 167.916 171.364 187.146 171.291H187.363H187.507H187.724C206.955 171.364 225.065 178.558 239.125 191.619L239.492 191.97C239.859 192.322 240.098 191.924 240.098 191.924C240.441 191.48 240.77 191.021 241.08 190.553C241.08 190.553 241.47 190.115 241.07 189.737L240.904 189.572L239.742 188.528C225.309 175.692 206.76 168.613 187.507 168.596H187.363ZM187.507 173.938H187.363H187.23C168.768 173.991 150.962 181.113 137.471 193.639L137.363 193.749L137.186 193.921C136.902 194.205 137.145 194.552 137.145 194.552C137.586 194.968 138.043 195.367 138.516 195.747C138.516 195.747 138.824 196.079 139.215 195.707L139.605 195.333C152.535 183.454 169.455 176.717 187.106 176.633H187.361H187.51H187.764C205.415 176.717 222.335 183.454 235.265 195.333L235.656 195.707C236.047 196.079 236.354 195.747 236.354 195.747C236.828 195.367 237.285 194.968 237.725 194.552C237.725 194.552 237.968 194.205 237.684 193.921L237.506 193.749L237.4 193.639C223.908 181.113 206.102 173.991 187.64 173.938H187.507ZM187.509 179.281H187.362H187.23C170.477 179.332 154.258 185.689 141.841 196.882L141.524 197.193C141.206 197.503 141.467 197.767 141.467 197.767C142.07 198.113 142.694 198.433 143.331 198.725C143.331 198.725 143.601 198.896 144.075 198.474L144.404 198.179C156.289 187.759 171.334 182.035 187.19 181.976H187.36H187.511H187.681C203.537 182.035 218.581 187.759 230.467 198.179L230.795 198.474C231.269 198.896 231.539 198.725 231.539 198.725C232.177 198.433 232.799 198.113 233.404 197.767C233.404 197.767 233.664 197.503 233.347 197.193L233.029 196.882C220.612 185.689 204.393 179.332 187.64 179.281H187.509ZM187.511 184.622H187.36H187.229C172.565 184.671 158.495 189.835 147.264 199.216C147.221 199.254 147.179 199.289 147.137 199.324L146.823 199.579C146.383 199.943 146.887 199.995 146.887 199.995C147.601 200.187 148.33 200.341 149.07 200.462C149.205 200.484 149.34 200.504 149.475 200.525C149.856 200.584 150.242 200.275 150.242 200.275C150.315 200.214 150.386 200.154 150.458 200.093L150.615 199.972C161.007 191.89 173.878 187.411 187.021 187.318H187.362H187.509H187.849C200.992 187.411 213.863 191.89 224.256 199.972L224.412 200.093C224.484 200.154 224.556 200.214 224.627 200.275C224.627 200.275 225.015 200.584 225.395 200.525C225.531 200.504 225.667 200.484 225.801 200.462C226.541 200.341 227.269 200.187 227.983 199.995C227.983 199.995 228.487 199.943 228.047 199.579L227.734 199.324C227.691 199.289 227.649 199.254 227.606 199.216C216.375 189.835 202.306 184.671 187.641 184.622H187.511ZM187.507 189.965H187.363H187.021C175.183 190.05 163.89 193.744 154.225 200.584C153.959 200.771 154.257 200.763 154.257 200.763H158.601C158.601 200.763 158.737 200.8 158.999 200.641C167.505 195.468 177.254 192.697 187.231 192.659H187.362H187.509H187.639C197.616 192.697 207.365 195.468 215.871 200.641C216.133 200.8 216.269 200.763 216.269 200.763H220.613C220.613 200.763 220.911 200.771 220.645 200.584C210.981 193.744 199.687 190.05 187.849 189.965H187.507ZM187.51 195.306H187.361H187.189C179.27 195.343 171.684 197.156 164.586 200.621C164.34 200.74 164.615 200.763 164.615 200.763H170.68C171.086 200.763 171.316 200.669 171.316 200.669L171.585 200.572C176.412 198.95 181.421 198.087 186.492 198.005L187.363 198.008H187.507L188.378 198.005C193.449 198.087 198.458 198.95 203.286 200.572L203.554 200.669C203.554 200.669 203.784 200.763 204.191 200.763H210.255C210.255 200.763 210.531 200.74 210.285 200.621C203.187 197.156 195.6 195.343 187.682 195.306H187.51ZM230.664 230.15C229.401 230.882 228.466 231.834 227.854 233.002L227.622 231.754C227.42 230.884 227.201 230.215 226.949 229.751C226.703 229.283 226.26 229.053 225.628 229.053C225.057 229.053 224.299 229.111 223.358 229.232C222.416 229.346 221.578 229.531 220.847 229.777C220.114 230.027 219.747 230.345 219.747 230.744C219.747 230.961 219.796 231.338 219.894 231.872C220.035 232.707 220.235 234.136 220.325 235.037C220.412 235.937 220.458 237.182 220.458 238.766V266.273C220.458 266.847 220.713 267.277 221.228 267.564C221.745 267.851 222.548 267.994 223.637 267.994H225.091C226.18 267.994 226.977 267.851 227.482 267.564C227.986 267.277 228.241 266.847 228.241 266.273V255.876C229.864 256.984 231.677 257.539 233.676 257.539C236.013 257.539 238.014 256.954 239.677 255.785C241.341 254.619 242.609 252.965 243.48 250.826C244.35 248.687 244.785 246.182 244.785 243.311C244.785 240.322 244.365 237.751 243.525 235.601C242.681 233.453 241.52 231.824 240.032 230.716C238.548 229.607 236.845 229.049 234.923 229.049C233.34 229.049 231.918 229.414 230.664 230.15ZM228.241 250.32V238.559C229.487 236.476 230.943 235.439 232.606 235.439C235.438 235.439 236.856 238.06 236.856 243.311C236.856 248.654 235.223 251.329 231.953 251.329C230.708 251.329 229.468 250.994 228.241 250.32ZM198.839 229.572C197.294 229.916 196.079 230.372 195.2 230.937C194.32 231.502 193.877 232.091 193.877 232.707C193.877 233.062 194.035 233.585 194.355 234.279C194.672 234.97 195.042 235.588 195.469 236.122C195.893 236.656 196.286 236.924 196.641 236.924C196.76 236.924 197.078 236.804 197.591 236.566C198.582 236.152 199.503 235.82 200.354 235.571C201.204 235.326 202.227 235.199 203.414 235.199C204.839 235.199 205.88 235.449 206.535 235.941C207.186 236.437 207.514 237.2 207.514 238.23V239.982C203.354 239.982 200.155 240.468 197.919 241.439C195.678 242.411 194.196 243.601 193.462 245.017C192.73 246.434 192.365 248.025 192.365 249.785C192.365 252.122 192.993 254 194.25 255.415C195.508 256.829 197.481 257.539 200.176 257.539C201.642 257.539 202.929 257.277 204.04 256.751C205.147 256.228 206.023 255.648 206.669 255.015C207.308 254.381 207.733 253.876 207.931 253.498C207.969 253.616 207.998 253.736 208.02 253.853C208.04 253.972 208.156 254.496 208.182 254.613C208.382 255.552 208.553 256.243 208.819 256.767C209.086 257.293 209.528 257.552 210.14 257.552C210.715 257.552 211.477 257.492 212.429 257.377C213.378 257.26 214.226 257.068 214.969 256.812C215.71 256.554 216.083 256.228 216.083 255.829C216.083 255.613 216.032 255.236 215.934 254.703C215.778 253.812 215.549 252.509 215.459 251.6C215.372 250.687 215.325 249.408 215.325 247.766V237.875C215.325 235.139 214.426 232.988 212.622 231.412C210.821 229.836 207.94 229.049 203.979 229.049C202.097 229.049 200.385 229.224 198.839 229.572ZM200.815 250.677C200.348 250.241 200.116 249.677 200.116 248.982C200.116 246.39 202.585 245.092 207.514 245.092V248.003C207.077 248.974 206.424 249.771 205.555 250.396C204.678 251.018 203.752 251.329 202.758 251.329C201.929 251.329 201.278 251.109 200.815 250.677ZM183.905 230.178L180.156 244.461L179.519 246.865L179.247 245.616C179.104 245.13 179.022 244.808 178.999 244.643L175.53 230.178C175.448 229.811 175.134 229.532 174.587 229.342C174.038 229.15 173.358 229.049 172.544 229.049H171.266C169.398 229.049 168.393 229.425 168.253 230.178L164.809 244.31C164.586 245.102 164.363 245.953 164.141 246.865L163.866 245.738C163.743 245.172 163.643 244.746 163.561 244.461L159.877 230.178C159.774 229.771 159.404 229.482 158.765 229.31C158.126 229.138 157.073 229.049 155.611 229.049C153.359 229.049 152.233 229.519 152.233 230.453C152.233 230.756 152.27 231.029 152.352 231.275L159.143 256.429C159.348 257.18 160.352 257.554 162.16 257.554H164.809C165.6 257.554 166.273 257.458 166.823 257.265C167.369 257.072 167.682 256.792 167.764 256.429L170.841 243.609L171.481 241.201C171.723 242.259 171.914 243.039 172.058 243.548L175.377 256.429C175.563 257.18 176.544 257.554 178.33 257.554H180.981C181.771 257.554 182.443 257.458 182.989 257.267C183.535 257.072 183.862 256.792 183.966 256.429L190.328 231.275C190.409 230.786 190.454 230.515 190.454 230.453C190.454 229.519 189.335 229.049 187.102 229.049C185.215 229.049 184.15 229.425 183.905 230.178ZM135.14 230.073C133.693 230.759 132.581 231.749 131.799 233.046C131.014 234.343 130.625 235.892 130.625 237.695C130.625 239.32 130.92 240.659 131.514 241.72C132.112 242.78 132.835 243.583 133.685 244.14C134.535 244.697 135.526 245.193 136.652 245.624L137.516 245.953C138.388 246.29 139.06 246.578 139.537 246.814C140.01 247.055 140.403 247.353 140.706 247.721C141.017 248.088 141.169 248.55 141.169 249.103C141.169 249.834 140.913 250.392 140.397 250.765C139.882 251.144 139.122 251.329 138.11 251.329C137.299 251.329 136.576 251.23 135.942 251.033C135.308 250.835 134.644 250.578 133.95 250.259C133.358 249.984 132.972 249.845 132.793 249.845C132.456 249.845 132.067 250.087 131.621 250.572C131.174 251.058 130.792 251.628 130.474 252.281C130.161 252.935 130 253.482 130 253.913C130 254.628 130.441 255.262 131.323 255.815C132.203 256.37 133.32 256.794 134.665 257.091C136.013 257.39 137.369 257.539 138.736 257.539C140.893 257.539 142.755 257.161 144.318 256.412C145.885 255.658 147.071 254.599 147.885 253.232C148.694 251.863 149.103 250.279 149.103 248.478C149.103 246.578 148.68 245.06 147.839 243.92C146.997 242.78 145.885 241.867 144.499 241.169C144.239 241.052 143.577 240.775 142.509 240.341C141.576 239.982 140.854 239.675 140.34 239.42C139.825 239.16 139.394 238.834 139.046 238.437C138.701 238.043 138.526 237.568 138.526 237.011C138.526 235.786 139.455 235.169 141.319 235.169C142.05 235.169 142.699 235.244 143.265 235.392C143.829 235.543 144.419 235.746 145.035 236.002C145.487 236.182 145.764 236.267 145.865 236.267C146.178 236.267 146.518 236.012 146.875 235.496C147.231 234.982 147.533 234.386 147.78 233.715C148.026 233.042 148.151 232.507 148.151 232.109C148.151 231.415 147.731 230.844 146.888 230.388C146.047 229.931 145.013 229.595 143.784 229.375C142.556 229.162 141.379 229.049 140.25 229.049C138.289 229.049 136.585 229.392 135.14 230.073Z" fill="white"/>
<defs>
<linearGradient id="paint0_linear_0_10823" x1="187.5" y1="501" x2="519.274" y2="128.5" gradientUnits="userSpaceOnUse">
<stop stop-color="#38B9C1"/>
<stop offset="1" stop-color="#386097"/>
</linearGradient>
</defs>
</svg>
