<svg width="508" height="480" viewBox="0 0 508 480" fill="none" xmlns="http://www.w3.org/2000/svg">
<mask id="mask0_109_3443" style="mask-type:alpha" maskUnits="userSpaceOnUse" x="0" y="0" width="508" height="480">
<rect width="508" height="480" rx="35" fill="#3081D0"/>
</mask>
<g mask="url(#mask0_109_3443)">
<rect x="226" y="140" width="146" height="175" rx="5" fill="#3081D0"/>
<path d="M226 155H372V310C372 312.761 369.761 315 367 315H231C228.239 315 226 312.761 226 310V155Z" fill="#D6E7F7" stroke="#3081D0"/>
<circle cx="234.5" cy="264.5" r="2.5" fill="#DEE7EE"/>
<circle cx="241.5" cy="147.5" r="2.5" fill="#DEE7EE"/>
<circle cx="248.5" cy="147.5" r="2.5" fill="#DEE7EE"/>
<path d="M286.679 193.26C285.342 193.26 284.32 192.896 283.613 192.168C282.666 191.276 282.192 189.989 282.192 188.309C282.192 186.595 282.666 185.309 283.613 184.45C284.32 183.722 285.342 183.358 286.679 183.358C288.017 183.358 289.039 183.722 289.745 184.45C290.689 185.309 291.161 186.595 291.161 188.309C291.161 189.989 290.689 191.276 289.745 192.168C289.039 192.896 288.017 193.26 286.679 193.26ZM288.527 190.747C288.979 190.175 289.206 189.363 289.206 188.309C289.206 187.26 288.977 186.449 288.52 185.878C288.067 185.302 287.454 185.015 286.679 185.015C285.905 185.015 285.287 185.3 284.826 185.872C284.365 186.443 284.134 187.255 284.134 188.309C284.134 189.363 284.365 190.175 284.826 190.747C285.287 191.318 285.905 191.604 286.679 191.604C287.454 191.604 288.07 191.318 288.527 190.747ZM298.525 186.824C299.084 187.42 299.363 188.296 299.363 189.452C299.363 190.67 299.088 191.599 298.538 192.238C297.992 192.877 297.287 193.197 296.424 193.197C295.874 193.197 295.417 193.059 295.053 192.784C294.854 192.632 294.659 192.41 294.469 192.118V195.723H292.679V186.081H294.412V187.103C294.606 186.803 294.814 186.566 295.034 186.392C295.436 186.083 295.914 185.929 296.468 185.929C297.277 185.929 297.962 186.227 298.525 186.824ZM297.497 189.541C297.497 189.007 297.374 188.535 297.128 188.125C296.887 187.715 296.494 187.509 295.948 187.509C295.292 187.509 294.841 187.82 294.596 188.442C294.469 188.772 294.405 189.191 294.405 189.699C294.405 190.503 294.619 191.068 295.046 191.394C295.3 191.584 295.601 191.68 295.948 191.68C296.451 191.68 296.834 191.485 297.097 191.096C297.363 190.706 297.497 190.188 297.497 189.541ZM306.816 190.969C306.769 191.379 306.556 191.796 306.175 192.219C305.582 192.892 304.753 193.229 303.686 193.229C302.806 193.229 302.03 192.945 301.357 192.378C300.684 191.811 300.348 190.888 300.348 189.61C300.348 188.413 300.65 187.494 301.255 186.855C301.865 186.216 302.654 185.897 303.623 185.897C304.199 185.897 304.717 186.005 305.178 186.221C305.639 186.437 306.02 186.777 306.321 187.243C306.592 187.653 306.767 188.129 306.848 188.671C306.894 188.988 306.913 189.445 306.905 190.042H302.169C302.195 190.736 302.413 191.223 302.823 191.502C303.073 191.675 303.373 191.762 303.725 191.762C304.097 191.762 304.4 191.656 304.632 191.445C304.759 191.331 304.871 191.172 304.969 190.969H306.816ZM305.026 188.849C304.996 188.37 304.85 188.009 304.588 187.763C304.33 187.514 304.008 187.389 303.623 187.389C303.204 187.389 302.878 187.52 302.645 187.782C302.417 188.045 302.273 188.4 302.214 188.849H305.026ZM311.603 187.42C310.989 187.42 310.568 187.681 310.34 188.201C310.221 188.476 310.162 188.827 310.162 189.255V193H308.359V186.094H310.105V187.103C310.338 186.748 310.558 186.492 310.765 186.335C311.137 186.056 311.609 185.916 312.18 185.916C312.896 185.916 313.48 186.104 313.932 186.481C314.389 186.853 314.618 187.473 314.618 188.341V193H312.764V188.792C312.764 188.428 312.716 188.148 312.618 187.954C312.441 187.598 312.102 187.42 311.603 187.42ZM285.575 206.648C286.036 206.648 286.411 206.597 286.698 206.496C287.244 206.301 287.517 205.939 287.517 205.41C287.517 205.101 287.382 204.862 287.111 204.693C286.84 204.528 286.415 204.382 285.835 204.255L284.845 204.033C283.872 203.813 283.199 203.574 282.826 203.315C282.196 202.884 281.881 202.209 281.881 201.291C281.881 200.453 282.185 199.757 282.795 199.202C283.404 198.648 284.299 198.371 285.48 198.371C286.466 198.371 287.306 198.633 288 199.158C288.698 199.678 289.064 200.436 289.098 201.43H287.219C287.185 200.867 286.94 200.467 286.483 200.23C286.178 200.074 285.799 199.996 285.346 199.996C284.843 199.996 284.441 200.097 284.14 200.3C283.84 200.503 283.69 200.787 283.69 201.151C283.69 201.485 283.838 201.735 284.134 201.9C284.324 202.01 284.731 202.139 285.353 202.287L286.965 202.674C287.672 202.844 288.205 203.07 288.565 203.354C289.123 203.794 289.403 204.431 289.403 205.264C289.403 206.119 289.075 206.83 288.419 207.397C287.767 207.96 286.844 208.241 285.651 208.241C284.432 208.241 283.474 207.964 282.776 207.41C282.077 206.851 281.728 206.085 281.728 205.112H283.594C283.654 205.539 283.77 205.859 283.944 206.07C284.261 206.455 284.805 206.648 285.575 206.648ZM296.17 208L295.085 202.96L293.986 208H292.107L290.165 201.081H292.107L293.187 206.045L294.183 201.081H296.018L297.071 206.064L298.15 201.081H300.036L298.03 208H296.17ZM301.516 201.83C301.994 201.221 302.815 200.916 303.978 200.916C304.736 200.916 305.409 201.066 305.997 201.367C306.585 201.667 306.879 202.234 306.879 203.068V206.242C306.879 206.462 306.884 206.728 306.892 207.042C306.905 207.278 306.941 207.439 307 207.524C307.059 207.609 307.148 207.678 307.267 207.733V208H305.299C305.244 207.86 305.206 207.729 305.185 207.606C305.163 207.484 305.146 207.344 305.134 207.188C304.884 207.458 304.596 207.689 304.27 207.879C303.881 208.104 303.441 208.216 302.95 208.216C302.324 208.216 301.805 208.038 301.395 207.683C300.989 207.323 300.786 206.815 300.786 206.159C300.786 205.309 301.114 204.693 301.769 204.312C302.129 204.105 302.658 203.957 303.356 203.868L303.972 203.792C304.306 203.749 304.546 203.696 304.689 203.633C304.948 203.523 305.077 203.351 305.077 203.119C305.077 202.835 304.977 202.64 304.778 202.535C304.584 202.425 304.296 202.37 303.915 202.37C303.488 202.37 303.185 202.475 303.007 202.687C302.88 202.844 302.796 203.055 302.753 203.322H301.008C301.046 202.717 301.215 202.219 301.516 201.83ZM302.861 206.692C303.031 206.832 303.238 206.902 303.483 206.902C303.873 206.902 304.23 206.788 304.556 206.559C304.886 206.331 305.058 205.914 305.07 205.309V204.636C304.956 204.708 304.84 204.767 304.721 204.813C304.607 204.856 304.448 204.896 304.245 204.934L303.839 205.01C303.458 205.078 303.185 205.16 303.02 205.258C302.741 205.423 302.601 205.679 302.601 206.026C302.601 206.335 302.688 206.557 302.861 206.692ZM314.504 201.824C315.062 202.42 315.342 203.296 315.342 204.452C315.342 205.67 315.067 206.599 314.516 207.238C313.971 207.877 313.266 208.197 312.403 208.197C311.853 208.197 311.395 208.059 311.032 207.784C310.833 207.632 310.638 207.41 310.448 207.118V210.723H308.658V201.081H310.39V202.103C310.585 201.803 310.792 201.566 311.012 201.392C311.415 201.083 311.893 200.929 312.447 200.929C313.255 200.929 313.941 201.227 314.504 201.824ZM313.475 204.541C313.475 204.007 313.353 203.535 313.107 203.125C312.866 202.715 312.472 202.509 311.927 202.509C311.271 202.509 310.82 202.82 310.575 203.442C310.448 203.772 310.384 204.191 310.384 204.699C310.384 205.503 310.598 206.068 311.025 206.394C311.279 206.584 311.58 206.68 311.927 206.68C312.43 206.68 312.813 206.485 313.075 206.096C313.342 205.706 313.475 205.188 313.475 204.541Z" fill="#89969F"/>
<rect x="422" y="58" width="146" height="111" rx="5" fill="url(#paint0_linear_109_3443)"/>
<path d="M423 74H567V164C567 166.209 565.209 168 563 168H427C424.791 168 423 166.209 423 164V74Z" fill="#D6E7F7" stroke="#3081D0" stroke-width="2"/>
<circle cx="430.5" cy="65.5" r="2.5" fill="#DEE7EE"/>
<circle cx="437.5" cy="65.5" r="2.5" fill="#DEE7EE"/>
<circle cx="444.5" cy="65.5" r="2.5" fill="#DEE7EE"/>
<path d="M453.685 123.302C452.987 123.941 452.094 124.26 451.007 124.26C449.661 124.26 448.603 123.829 447.833 122.965C447.063 122.098 446.678 120.909 446.678 119.398C446.678 117.764 447.116 116.506 447.992 115.621C448.753 114.851 449.722 114.466 450.899 114.466C452.473 114.466 453.624 114.982 454.352 116.015C454.754 116.594 454.97 117.176 454.999 117.76H453.044C452.917 117.312 452.754 116.973 452.556 116.745C452.2 116.338 451.673 116.135 450.975 116.135C450.264 116.135 449.703 116.423 449.293 116.999C448.882 117.57 448.677 118.38 448.677 119.43C448.677 120.479 448.893 121.266 449.325 121.791C449.76 122.312 450.313 122.572 450.981 122.572C451.667 122.572 452.189 122.347 452.549 121.899C452.748 121.658 452.913 121.296 453.044 120.813H454.98C454.811 121.833 454.379 122.663 453.685 123.302ZM460.028 118.75C459.3 118.75 458.811 118.987 458.561 119.461C458.422 119.728 458.352 120.139 458.352 120.693V124H456.53V117.081H458.257V118.287C458.536 117.826 458.779 117.511 458.987 117.341C459.325 117.058 459.765 116.916 460.307 116.916C460.341 116.916 460.368 116.918 460.389 116.922C460.415 116.922 460.468 116.924 460.548 116.929V118.782C460.434 118.77 460.332 118.761 460.243 118.757C460.155 118.753 460.083 118.75 460.028 118.75ZM467.754 121.969C467.707 122.379 467.493 122.796 467.112 123.219C466.52 123.892 465.691 124.229 464.624 124.229C463.744 124.229 462.967 123.945 462.295 123.378C461.622 122.811 461.285 121.888 461.285 120.61C461.285 119.413 461.588 118.494 462.193 117.855C462.802 117.216 463.592 116.897 464.561 116.897C465.136 116.897 465.655 117.005 466.116 117.221C466.577 117.437 466.958 117.777 467.258 118.243C467.529 118.653 467.705 119.129 467.785 119.671C467.832 119.988 467.851 120.445 467.842 121.042H463.107C463.132 121.736 463.35 122.223 463.761 122.502C464.011 122.675 464.311 122.762 464.662 122.762C465.035 122.762 465.337 122.656 465.57 122.445C465.697 122.331 465.809 122.172 465.906 121.969H467.754ZM465.963 119.849C465.934 119.37 465.788 119.009 465.525 118.763C465.267 118.514 464.946 118.389 464.561 118.389C464.142 118.389 463.816 118.52 463.583 118.782C463.355 119.045 463.211 119.4 463.151 119.849H465.963ZM469.544 117.83C470.023 117.221 470.844 116.916 472.007 116.916C472.765 116.916 473.438 117.066 474.026 117.367C474.614 117.667 474.908 118.234 474.908 119.068V122.242C474.908 122.462 474.912 122.728 474.921 123.042C474.934 123.278 474.97 123.439 475.029 123.524C475.088 123.609 475.177 123.678 475.295 123.733V124H473.328C473.273 123.86 473.235 123.729 473.213 123.606C473.192 123.484 473.175 123.344 473.163 123.188C472.913 123.458 472.625 123.689 472.299 123.879C471.91 124.104 471.47 124.216 470.979 124.216C470.353 124.216 469.834 124.038 469.424 123.683C469.018 123.323 468.814 122.815 468.814 122.159C468.814 121.309 469.142 120.693 469.798 120.312C470.158 120.105 470.687 119.957 471.385 119.868L472.001 119.792C472.335 119.749 472.574 119.696 472.718 119.633C472.976 119.523 473.105 119.351 473.105 119.119C473.105 118.835 473.006 118.64 472.807 118.535C472.612 118.425 472.325 118.37 471.944 118.37C471.516 118.37 471.214 118.475 471.036 118.687C470.909 118.844 470.825 119.055 470.782 119.322H469.037C469.075 118.717 469.244 118.219 469.544 117.83ZM470.89 122.692C471.059 122.832 471.267 122.902 471.512 122.902C471.901 122.902 472.259 122.788 472.585 122.559C472.915 122.331 473.086 121.914 473.099 121.309V120.636C472.985 120.708 472.868 120.767 472.75 120.813C472.636 120.856 472.477 120.896 472.274 120.934L471.868 121.01C471.487 121.078 471.214 121.16 471.049 121.258C470.77 121.423 470.63 121.679 470.63 122.026C470.63 122.335 470.717 122.557 470.89 122.692ZM479.905 122.711V124.063L479.048 124.095C478.193 124.125 477.609 123.977 477.296 123.651C477.093 123.444 476.991 123.124 476.991 122.692V118.433H476.026V117.145H476.991V115.215H478.781V117.145H479.905V118.433H478.781V122.089C478.781 122.373 478.817 122.551 478.889 122.623C478.961 122.69 479.181 122.724 479.549 122.724C479.604 122.724 479.661 122.724 479.721 122.724C479.784 122.72 479.845 122.716 479.905 122.711ZM487.205 121.969C487.159 122.379 486.945 122.796 486.564 123.219C485.972 123.892 485.142 124.229 484.076 124.229C483.196 124.229 482.419 123.945 481.746 123.378C481.073 122.811 480.737 121.888 480.737 120.61C480.737 119.413 481.04 118.494 481.645 117.855C482.254 117.216 483.043 116.897 484.012 116.897C484.588 116.897 485.106 117.005 485.568 117.221C486.029 117.437 486.41 117.777 486.71 118.243C486.981 118.653 487.157 119.129 487.237 119.671C487.284 119.988 487.303 120.445 487.294 121.042H482.559C482.584 121.736 482.802 122.223 483.213 122.502C483.462 122.675 483.763 122.762 484.114 122.762C484.486 122.762 484.789 122.656 485.022 122.445C485.149 122.331 485.261 122.172 485.358 121.969H487.205ZM485.415 119.849C485.386 119.37 485.24 119.009 484.977 118.763C484.719 118.514 484.397 118.389 484.012 118.389C483.593 118.389 483.268 118.52 483.035 118.782C482.806 119.045 482.662 119.4 482.603 119.849H485.415ZM492.831 117.83C493.309 117.221 494.13 116.916 495.294 116.916C496.051 116.916 496.724 117.066 497.312 117.367C497.901 117.667 498.195 118.234 498.195 119.068V122.242C498.195 122.462 498.199 122.728 498.207 123.042C498.22 123.278 498.256 123.439 498.315 123.524C498.375 123.609 498.463 123.678 498.582 123.733V124H496.614C496.559 123.86 496.521 123.729 496.5 123.606C496.479 123.484 496.462 123.344 496.449 123.188C496.199 123.458 495.912 123.689 495.586 123.879C495.197 124.104 494.756 124.216 494.266 124.216C493.639 124.216 493.121 124.038 492.71 123.683C492.304 123.323 492.101 122.815 492.101 122.159C492.101 121.309 492.429 120.693 493.085 120.312C493.445 120.105 493.974 119.957 494.672 119.868L495.288 119.792C495.622 119.749 495.861 119.696 496.005 119.633C496.263 119.523 496.392 119.351 496.392 119.119C496.392 118.835 496.293 118.64 496.094 118.535C495.899 118.425 495.611 118.37 495.23 118.37C494.803 118.37 494.5 118.475 494.323 118.687C494.196 118.844 494.111 119.055 494.069 119.322H492.323C492.361 118.717 492.531 118.219 492.831 117.83ZM494.177 122.692C494.346 122.832 494.553 122.902 494.799 122.902C495.188 122.902 495.546 122.788 495.872 122.559C496.202 122.331 496.373 121.914 496.386 121.309V120.636C496.271 120.708 496.155 120.767 496.037 120.813C495.922 120.856 495.764 120.896 495.56 120.934L495.154 121.01C494.773 121.078 494.5 121.16 494.335 121.258C494.056 121.423 493.916 121.679 493.916 122.026C493.916 122.335 494.003 122.557 494.177 122.692ZM506.01 119.563H504.156C504.122 119.305 504.035 119.072 503.896 118.865C503.693 118.585 503.377 118.446 502.95 118.446C502.341 118.446 501.924 118.748 501.7 119.354C501.581 119.675 501.522 120.103 501.522 120.636C501.522 121.144 501.581 121.552 501.7 121.861C501.915 122.436 502.322 122.724 502.918 122.724C503.341 122.724 503.642 122.61 503.82 122.381C503.997 122.153 504.105 121.857 504.143 121.493H505.991C505.948 122.043 505.749 122.563 505.394 123.054C504.827 123.846 503.987 124.241 502.874 124.241C501.761 124.241 500.942 123.911 500.417 123.251C499.893 122.591 499.63 121.734 499.63 120.68C499.63 119.491 499.92 118.566 500.5 117.906C501.08 117.246 501.879 116.916 502.899 116.916C503.767 116.916 504.476 117.111 505.026 117.5C505.58 117.889 505.908 118.577 506.01 119.563ZM513.463 119.563H511.609C511.575 119.305 511.488 119.072 511.349 118.865C511.146 118.585 510.83 118.446 510.403 118.446C509.794 118.446 509.377 118.748 509.153 119.354C509.034 119.675 508.975 120.103 508.975 120.636C508.975 121.144 509.034 121.552 509.153 121.861C509.368 122.436 509.775 122.724 510.371 122.724C510.794 122.724 511.095 122.61 511.273 122.381C511.45 122.153 511.558 121.857 511.596 121.493H513.444C513.401 122.043 513.202 122.563 512.847 123.054C512.28 123.846 511.44 124.241 510.327 124.241C509.214 124.241 508.395 123.911 507.87 123.251C507.346 122.591 507.083 121.734 507.083 120.68C507.083 119.491 507.373 118.566 507.953 117.906C508.533 117.246 509.332 116.916 510.352 116.916C511.22 116.916 511.929 117.111 512.479 117.5C513.033 117.889 513.361 118.577 513.463 119.563ZM520.7 117.957C521.284 118.689 521.576 119.555 521.576 120.553C521.576 121.569 521.284 122.438 520.7 123.162C520.116 123.882 519.229 124.241 518.04 124.241C516.851 124.241 515.964 123.882 515.38 123.162C514.796 122.438 514.504 121.569 514.504 120.553C514.504 119.555 514.796 118.689 515.38 117.957C515.964 117.225 516.851 116.859 518.04 116.859C519.229 116.859 520.116 117.225 520.7 117.957ZM518.034 118.389C517.505 118.389 517.096 118.577 516.809 118.954C516.525 119.326 516.383 119.859 516.383 120.553C516.383 121.247 516.525 121.783 516.809 122.159C517.096 122.536 517.505 122.724 518.034 122.724C518.563 122.724 518.969 122.536 519.252 122.159C519.536 121.783 519.678 121.247 519.678 120.553C519.678 119.859 519.536 119.326 519.252 118.954C518.969 118.577 518.563 118.389 518.034 118.389ZM527.531 123.022C527.514 123.044 527.471 123.107 527.404 123.213C527.336 123.319 527.256 123.412 527.162 123.492C526.879 123.746 526.604 123.92 526.337 124.013C526.075 124.106 525.766 124.152 525.411 124.152C524.386 124.152 523.697 123.784 523.341 123.048C523.142 122.642 523.043 122.043 523.043 121.251V117.081H524.896V121.251C524.896 121.645 524.943 121.941 525.036 122.14C525.201 122.491 525.525 122.667 526.007 122.667C526.625 122.667 527.048 122.417 527.277 121.918C527.395 121.647 527.454 121.29 527.454 120.845V117.081H529.289V124H527.531V123.022ZM534.514 118.42C533.9 118.42 533.479 118.681 533.251 119.201C533.132 119.476 533.073 119.827 533.073 120.255V124H531.27V117.094H533.016V118.103C533.249 117.748 533.469 117.492 533.676 117.335C534.048 117.056 534.52 116.916 535.092 116.916C535.807 116.916 536.391 117.104 536.844 117.481C537.301 117.853 537.529 118.473 537.529 119.341V124H535.676V119.792C535.676 119.428 535.627 119.148 535.53 118.954C535.352 118.598 535.013 118.42 534.514 118.42ZM542.589 122.711V124.063L541.732 124.095C540.877 124.125 540.293 123.977 539.98 123.651C539.777 123.444 539.675 123.124 539.675 122.692V118.433H538.711V117.145H539.675V115.215H541.465V117.145H542.589V118.433H541.465V122.089C541.465 122.373 541.501 122.551 541.573 122.623C541.645 122.69 541.865 122.724 542.234 122.724C542.289 122.724 542.346 122.724 542.405 122.724C542.468 122.72 542.53 122.716 542.589 122.711Z" fill="#3081D0"/>
<rect x="422" y="185" width="146" height="88" rx="5" fill="#3081D0"/>
<path d="M422 200H568V268C568 270.761 565.761 273 563 273H427C424.239 273 422 270.761 422 268V200Z" fill="#D6E7F7" stroke="#3081D0"/>
<circle cx="430.5" cy="192.5" r="2.5" fill="#DEE7EE"/>
<circle cx="437.5" cy="192.5" r="2.5" fill="#DEE7EE"/>
<circle cx="444.5" cy="192.5" r="2.5" fill="#DEE7EE"/>
<path d="M477.353 228.644H479.308V236.318H483.942V238H477.353V228.644ZM491.141 231.957C491.725 232.689 492.017 233.555 492.017 234.553C492.017 235.569 491.725 236.438 491.141 237.162C490.557 237.882 489.671 238.241 488.482 238.241C487.292 238.241 486.406 237.882 485.822 237.162C485.238 236.438 484.946 235.569 484.946 234.553C484.946 233.555 485.238 232.689 485.822 231.957C486.406 231.225 487.292 230.859 488.482 230.859C489.671 230.859 490.557 231.225 491.141 231.957ZM488.475 232.389C487.946 232.389 487.538 232.577 487.25 232.954C486.967 233.326 486.825 233.859 486.825 234.553C486.825 235.247 486.967 235.783 487.25 236.159C487.538 236.536 487.946 236.724 488.475 236.724C489.004 236.724 489.41 236.536 489.694 236.159C489.978 235.783 490.119 235.247 490.119 234.553C490.119 233.859 489.978 233.326 489.694 232.954C489.41 232.577 489.004 232.389 488.475 232.389ZM495.49 239.212C495.685 239.377 496.013 239.46 496.474 239.46C497.126 239.46 497.562 239.242 497.782 238.806C497.926 238.527 497.998 238.057 497.998 237.397V236.953C497.824 237.249 497.638 237.471 497.439 237.619C497.079 237.894 496.612 238.032 496.036 238.032C495.147 238.032 494.437 237.721 493.903 237.099C493.374 236.472 493.11 235.626 493.11 234.56C493.11 233.531 493.366 232.668 493.878 231.97C494.39 231.267 495.116 230.916 496.055 230.916C496.402 230.916 496.705 230.969 496.963 231.075C497.403 231.257 497.758 231.591 498.029 232.078V231.081H499.788V237.645C499.788 238.537 499.637 239.21 499.337 239.663C498.821 240.442 497.83 240.831 496.366 240.831C495.482 240.831 494.76 240.658 494.202 240.311C493.643 239.964 493.334 239.445 493.275 238.755H495.243C495.293 238.967 495.376 239.119 495.49 239.212ZM495.186 235.639C495.431 236.223 495.871 236.515 496.506 236.515C496.929 236.515 497.287 236.356 497.579 236.039C497.871 235.717 498.017 235.207 498.017 234.509C498.017 233.853 497.877 233.354 497.598 233.011C497.323 232.668 496.952 232.497 496.487 232.497C495.852 232.497 495.414 232.795 495.173 233.392C495.046 233.709 494.982 234.1 494.982 234.566C494.982 234.968 495.05 235.326 495.186 235.639ZM503.559 231.081V238H501.724V231.081H503.559ZM503.559 228.586V230.256H501.724V228.586H503.559ZM508.79 232.42C508.177 232.42 507.756 232.681 507.527 233.201C507.409 233.476 507.349 233.827 507.349 234.255V238H505.547V231.094H507.292V232.103C507.525 231.748 507.745 231.492 507.952 231.335C508.325 231.056 508.797 230.916 509.368 230.916C510.083 230.916 510.667 231.104 511.12 231.481C511.577 231.853 511.805 232.473 511.805 233.341V238H509.952V233.792C509.952 233.428 509.903 233.148 509.806 232.954C509.628 232.598 509.29 232.42 508.79 232.42Z" fill="#89969F"/>
<rect x="422" y="289" width="146" height="175" rx="5" fill="url(#paint1_linear_109_3443)"/>
<path d="M422 304H568V459C568 461.761 565.761 464 563 464H427C424.239 464 422 461.761 422 459V304Z" fill="#D6E7F7" stroke="#3081D0"/>
<circle cx="430.5" cy="296.5" r="2.5" fill="#DEE7EE"/>
<circle cx="437.5" cy="296.5" r="2.5" fill="#DEE7EE"/>
<circle cx="444.5" cy="296.5" r="2.5" fill="#DEE7EE"/>
<path d="M464.675 342H460.645V332.644H464.675C465.255 332.652 465.737 332.72 466.123 332.847C466.779 333.062 467.31 333.458 467.716 334.034C468.042 334.499 468.264 335.003 468.382 335.544C468.501 336.086 468.56 336.602 468.56 337.093C468.56 338.337 468.31 339.391 467.811 340.254C467.134 341.418 466.089 342 464.675 342ZM466.129 335.03C465.828 334.522 465.234 334.269 464.345 334.269H462.543V340.375H464.345C465.268 340.375 465.911 339.92 466.275 339.01C466.474 338.511 466.573 337.916 466.573 337.227C466.573 336.274 466.425 335.542 466.129 335.03ZM470.37 335.83C470.848 335.221 471.669 334.916 472.833 334.916C473.59 334.916 474.263 335.066 474.851 335.367C475.44 335.667 475.734 336.234 475.734 337.068V340.242C475.734 340.462 475.738 340.728 475.746 341.042C475.759 341.278 475.795 341.439 475.854 341.524C475.914 341.609 476.003 341.678 476.121 341.733V342H474.153C474.098 341.86 474.06 341.729 474.039 341.606C474.018 341.484 474.001 341.344 473.988 341.188C473.739 341.458 473.451 341.689 473.125 341.879C472.736 342.104 472.295 342.216 471.805 342.216C471.178 342.216 470.66 342.038 470.249 341.683C469.843 341.323 469.64 340.815 469.64 340.159C469.64 339.309 469.968 338.693 470.624 338.312C470.984 338.105 471.513 337.957 472.211 337.868L472.827 337.792C473.161 337.749 473.4 337.696 473.544 337.633C473.802 337.523 473.931 337.351 473.931 337.119C473.931 336.835 473.832 336.64 473.633 336.535C473.438 336.425 473.15 336.37 472.769 336.37C472.342 336.37 472.039 336.475 471.862 336.687C471.735 336.844 471.65 337.055 471.608 337.322H469.862C469.9 336.717 470.07 336.219 470.37 335.83ZM471.716 340.692C471.885 340.832 472.092 340.902 472.338 340.902C472.727 340.902 473.085 340.788 473.411 340.559C473.741 340.331 473.912 339.914 473.925 339.309V338.636C473.81 338.708 473.694 338.767 473.576 338.813C473.461 338.856 473.303 338.896 473.1 338.934L472.693 339.01C472.312 339.078 472.039 339.16 471.874 339.258C471.595 339.423 471.455 339.679 471.455 340.026C471.455 340.335 471.542 340.557 471.716 340.692ZM482.33 335.398C482.872 335.745 483.183 336.342 483.263 337.188H481.454C481.428 336.956 481.363 336.772 481.257 336.636C481.058 336.391 480.72 336.268 480.241 336.268C479.848 336.268 479.567 336.329 479.397 336.452C479.232 336.575 479.15 336.719 479.15 336.884C479.15 337.091 479.239 337.241 479.416 337.334C479.594 337.432 480.222 337.599 481.302 337.836C482.021 338.005 482.56 338.261 482.92 338.604C483.276 338.951 483.453 339.385 483.453 339.905C483.453 340.591 483.197 341.152 482.685 341.587C482.178 342.019 481.39 342.235 480.324 342.235C479.236 342.235 478.432 342.006 477.912 341.549C477.396 341.088 477.137 340.502 477.137 339.791H478.972C479.01 340.113 479.093 340.341 479.219 340.477C479.444 340.718 479.858 340.838 480.464 340.838C480.819 340.838 481.101 340.785 481.308 340.68C481.519 340.574 481.625 340.415 481.625 340.204C481.625 340 481.541 339.846 481.371 339.74C481.202 339.634 480.574 339.452 479.486 339.194C478.703 339 478.151 338.756 477.829 338.464C477.508 338.177 477.347 337.762 477.347 337.22C477.347 336.581 477.597 336.033 478.096 335.576C478.6 335.115 479.306 334.884 480.216 334.884C481.079 334.884 481.784 335.056 482.33 335.398ZM491.268 337.938V342H489.421V337.792C489.421 337.419 489.358 337.119 489.231 336.89C489.066 336.569 488.752 336.408 488.291 336.408C487.813 336.408 487.449 336.569 487.199 336.89C486.954 337.208 486.831 337.662 486.831 338.255V342H485.028V332.675H486.831V335.982C487.094 335.58 487.396 335.301 487.739 335.145C488.086 334.984 488.45 334.903 488.831 334.903C489.258 334.903 489.645 334.977 489.992 335.125C490.344 335.274 490.631 335.5 490.856 335.805C491.046 336.063 491.162 336.329 491.205 336.604C491.247 336.875 491.268 337.32 491.268 337.938ZM496.938 342.184C496.366 342.184 495.907 342.07 495.56 341.841C495.353 341.706 495.128 341.469 494.887 341.13V342H493.116V332.656H494.919V335.982C495.147 335.661 495.399 335.415 495.674 335.246C496 335.035 496.415 334.929 496.918 334.929C497.828 334.929 498.539 335.257 499.051 335.913C499.568 336.569 499.826 337.415 499.826 338.452C499.826 339.527 499.572 340.417 499.064 341.124C498.556 341.831 497.847 342.184 496.938 342.184ZM497.928 338.642C497.928 338.151 497.864 337.745 497.737 337.423C497.496 336.814 497.052 336.509 496.404 336.509C495.748 336.509 495.298 336.808 495.052 337.404C494.925 337.722 494.862 338.132 494.862 338.636C494.862 339.228 494.993 339.719 495.255 340.108C495.518 340.498 495.918 340.692 496.455 340.692C496.921 340.692 497.282 340.504 497.541 340.127C497.799 339.751 497.928 339.256 497.928 338.642ZM507.114 335.957C507.698 336.689 507.99 337.555 507.99 338.553C507.99 339.569 507.698 340.438 507.114 341.162C506.53 341.882 505.643 342.241 504.454 342.241C503.265 342.241 502.378 341.882 501.794 341.162C501.21 340.438 500.918 339.569 500.918 338.553C500.918 337.555 501.21 336.689 501.794 335.957C502.378 335.225 503.265 334.859 504.454 334.859C505.643 334.859 506.53 335.225 507.114 335.957ZM504.448 336.389C503.919 336.389 503.51 336.577 503.223 336.954C502.939 337.326 502.797 337.859 502.797 338.553C502.797 339.247 502.939 339.783 503.223 340.159C503.51 340.536 503.919 340.724 504.448 340.724C504.977 340.724 505.383 340.536 505.666 340.159C505.95 339.783 506.092 339.247 506.092 338.553C506.092 337.859 505.95 337.326 505.666 336.954C505.383 336.577 504.977 336.389 504.448 336.389ZM509.768 335.83C510.246 335.221 511.067 334.916 512.231 334.916C512.988 334.916 513.661 335.066 514.249 335.367C514.837 335.667 515.132 336.234 515.132 337.068V340.242C515.132 340.462 515.136 340.728 515.144 341.042C515.157 341.278 515.193 341.439 515.252 341.524C515.311 341.609 515.4 341.678 515.519 341.733V342H513.551C513.496 341.86 513.458 341.729 513.437 341.606C513.416 341.484 513.399 341.344 513.386 341.188C513.136 341.458 512.849 341.689 512.523 341.879C512.133 342.104 511.693 342.216 511.202 342.216C510.576 342.216 510.058 342.038 509.647 341.683C509.241 341.323 509.038 340.815 509.038 340.159C509.038 339.309 509.366 338.693 510.022 338.312C510.381 338.105 510.91 337.957 511.609 337.868L512.224 337.792C512.559 337.749 512.798 337.696 512.942 337.633C513.2 337.523 513.329 337.351 513.329 337.119C513.329 336.835 513.229 336.64 513.031 336.535C512.836 336.425 512.548 336.37 512.167 336.37C511.74 336.37 511.437 336.475 511.26 336.687C511.133 336.844 511.048 337.055 511.006 337.322H509.26C509.298 336.717 509.467 336.219 509.768 335.83ZM511.114 340.692C511.283 340.832 511.49 340.902 511.736 340.902C512.125 340.902 512.482 340.788 512.808 340.559C513.138 340.331 513.31 339.914 513.322 339.309V338.636C513.208 338.708 513.092 338.767 512.973 338.813C512.859 338.856 512.7 338.896 512.497 338.934L512.091 339.01C511.71 339.078 511.437 339.16 511.272 339.258C510.993 339.423 510.853 339.679 510.853 340.026C510.853 340.335 510.94 340.557 511.114 340.692ZM520.439 336.75C519.711 336.75 519.222 336.987 518.973 337.461C518.833 337.728 518.763 338.139 518.763 338.693V342H516.941V335.081H518.668V336.287C518.947 335.826 519.191 335.511 519.398 335.341C519.737 335.058 520.177 334.916 520.718 334.916C520.752 334.916 520.78 334.918 520.801 334.922C520.826 334.922 520.879 334.924 520.96 334.929V336.782C520.845 336.77 520.744 336.761 520.655 336.757C520.566 336.753 520.494 336.75 520.439 336.75ZM528.54 332.656V342H526.781V341.042C526.523 341.452 526.229 341.75 525.899 341.937C525.569 342.123 525.158 342.216 524.667 342.216C523.859 342.216 523.178 341.89 522.624 341.238C522.073 340.582 521.798 339.742 521.798 338.718C521.798 337.538 522.069 336.609 522.611 335.932C523.157 335.255 523.885 334.916 524.794 334.916C525.213 334.916 525.586 335.009 525.912 335.195C526.237 335.377 526.502 335.631 526.705 335.957V332.656H528.54ZM523.665 338.585C523.665 339.224 523.791 339.734 524.045 340.115C524.295 340.5 524.676 340.692 525.188 340.692C525.7 340.692 526.089 340.502 526.356 340.121C526.623 339.74 526.756 339.247 526.756 338.642C526.756 337.796 526.542 337.191 526.115 336.827C525.852 336.607 525.548 336.497 525.201 336.497C524.672 336.497 524.282 336.698 524.033 337.1C523.787 337.497 523.665 337.993 523.665 338.585Z" fill="#3081D0"/>
<path d="M464.027 365.563V364.688C464.853 364.607 465.428 364.474 465.754 364.288C466.08 364.097 466.323 363.651 466.484 362.948H467.385V372H466.167V365.563H464.027ZM471.347 370.616H472.674V372H471.347V370.616ZM482.4 366.617C482.933 366.617 483.348 366.543 483.644 366.395C484.11 366.162 484.342 365.743 484.342 365.138C484.342 364.529 484.095 364.118 483.6 363.907C483.321 363.788 482.906 363.729 482.356 363.729H480.102V366.617H482.4ZM482.825 370.921C483.6 370.921 484.152 370.697 484.482 370.248C484.689 369.965 484.793 369.622 484.793 369.22C484.793 368.543 484.491 368.081 483.885 367.836C483.564 367.705 483.139 367.639 482.61 367.639H480.102V370.921H482.825ZM478.864 362.675H482.87C483.962 362.675 484.738 363.001 485.199 363.653C485.47 364.038 485.606 364.482 485.606 364.986C485.606 365.574 485.439 366.056 485.104 366.433C484.931 366.632 484.681 366.814 484.355 366.979C484.833 367.161 485.191 367.366 485.428 367.595C485.847 368.001 486.056 368.562 486.056 369.277C486.056 369.878 485.868 370.422 485.491 370.908C484.929 371.636 484.034 372 482.806 372H478.864V362.675ZM488.507 370.191C488.507 370.521 488.628 370.781 488.869 370.972C489.11 371.162 489.396 371.257 489.726 371.257C490.128 371.257 490.517 371.164 490.894 370.978C491.529 370.669 491.846 370.163 491.846 369.461V368.541C491.707 368.629 491.527 368.703 491.307 368.763C491.087 368.822 490.871 368.864 490.659 368.89L489.967 368.979C489.553 369.034 489.242 369.12 489.034 369.239C488.683 369.438 488.507 369.755 488.507 370.191ZM491.275 367.88C491.537 367.847 491.713 367.736 491.802 367.55C491.853 367.449 491.878 367.303 491.878 367.112C491.878 366.723 491.738 366.442 491.459 366.268C491.184 366.09 490.788 366.001 490.272 366.001C489.675 366.001 489.252 366.162 489.003 366.484C488.863 366.662 488.772 366.926 488.73 367.277H487.663C487.684 366.439 487.955 365.858 488.476 365.532C489 365.202 489.608 365.037 490.297 365.037C491.097 365.037 491.747 365.189 492.246 365.494C492.741 365.798 492.989 366.272 492.989 366.916V370.832C492.989 370.951 493.012 371.046 493.059 371.118C493.109 371.19 493.213 371.226 493.37 371.226C493.42 371.226 493.478 371.223 493.541 371.219C493.605 371.211 493.672 371.2 493.744 371.188V372.032C493.566 372.083 493.431 372.114 493.338 372.127C493.245 372.14 493.118 372.146 492.957 372.146C492.564 372.146 492.278 372.006 492.1 371.727C492.007 371.579 491.941 371.369 491.903 371.099C491.671 371.403 491.336 371.668 490.9 371.892C490.465 372.116 489.984 372.229 489.46 372.229C488.829 372.229 488.313 372.038 487.911 371.657C487.513 371.272 487.314 370.792 487.314 370.216C487.314 369.586 487.511 369.097 487.904 368.75C488.298 368.403 488.814 368.189 489.453 368.109L491.275 367.88ZM495.116 362.675H496.259V372H495.116V362.675ZM499.072 370.191C499.072 370.521 499.192 370.781 499.433 370.972C499.675 371.162 499.96 371.257 500.29 371.257C500.692 371.257 501.082 371.164 501.458 370.978C502.093 370.669 502.41 370.163 502.41 369.461V368.541C502.271 368.629 502.091 368.703 501.871 368.763C501.651 368.822 501.435 368.864 501.223 368.89L500.532 368.979C500.117 369.034 499.806 369.12 499.598 369.239C499.247 369.438 499.072 369.755 499.072 370.191ZM501.839 367.88C502.102 367.847 502.277 367.736 502.366 367.55C502.417 367.449 502.442 367.303 502.442 367.112C502.442 366.723 502.303 366.442 502.023 366.268C501.748 366.09 501.353 366.001 500.836 366.001C500.24 366.001 499.816 366.162 499.567 366.484C499.427 366.662 499.336 366.926 499.294 367.277H498.227C498.248 366.439 498.519 365.858 499.04 365.532C499.565 365.202 500.172 365.037 500.862 365.037C501.661 365.037 502.311 365.189 502.81 365.494C503.305 365.798 503.553 366.272 503.553 366.916V370.832C503.553 370.951 503.576 371.046 503.623 371.118C503.674 371.19 503.777 371.226 503.934 371.226C503.985 371.226 504.042 371.223 504.105 371.219C504.169 371.211 504.236 371.2 504.308 371.188V372.032C504.131 372.083 503.995 372.114 503.902 372.127C503.809 372.14 503.682 372.146 503.521 372.146C503.128 372.146 502.842 372.006 502.664 371.727C502.571 371.579 502.506 371.369 502.468 371.099C502.235 371.403 501.901 371.668 501.465 371.892C501.029 372.116 500.548 372.229 500.024 372.229C499.393 372.229 498.877 372.038 498.475 371.657C498.077 371.272 497.878 370.792 497.878 370.216C497.878 369.586 498.075 369.097 498.469 368.75C498.862 368.403 499.378 368.189 500.017 368.109L501.839 367.88ZM505.649 365.202H506.734V366.167C507.056 365.769 507.396 365.483 507.756 365.31C508.116 365.136 508.516 365.049 508.956 365.049C509.921 365.049 510.572 365.386 510.911 366.059C511.097 366.427 511.19 366.954 511.19 367.639V372H510.028V367.715C510.028 367.301 509.967 366.966 509.844 366.712C509.641 366.289 509.273 366.078 508.74 366.078C508.469 366.078 508.247 366.105 508.073 366.16C507.76 366.253 507.485 366.439 507.248 366.719C507.058 366.943 506.933 367.176 506.874 367.417C506.819 367.654 506.791 367.995 506.791 368.439V372H505.649V365.202ZM515.723 365.005C516.489 365.005 517.111 365.191 517.589 365.563C518.072 365.936 518.362 366.577 518.459 367.487H517.348C517.28 367.068 517.126 366.721 516.885 366.446C516.644 366.167 516.256 366.027 515.723 366.027C514.995 366.027 514.475 366.382 514.162 367.093C513.959 367.555 513.857 368.124 513.857 368.801C513.857 369.482 514.001 370.056 514.289 370.521C514.576 370.986 515.029 371.219 515.647 371.219C516.121 371.219 516.495 371.075 516.771 370.788C517.05 370.496 517.242 370.098 517.348 369.594H518.459C518.332 370.496 518.015 371.156 517.507 371.575C516.999 371.989 516.349 372.197 515.558 372.197C514.669 372.197 513.961 371.873 513.432 371.226C512.903 370.574 512.638 369.761 512.638 368.788C512.638 367.595 512.928 366.666 513.508 366.001C514.088 365.337 514.826 365.005 515.723 365.005ZM522.649 365.049C523.132 365.049 523.599 365.164 524.052 365.392C524.505 365.616 524.85 365.908 525.087 366.268C525.315 366.611 525.468 367.011 525.544 367.468C525.612 367.781 525.645 368.28 525.645 368.966H520.662C520.684 369.656 520.847 370.21 521.151 370.629C521.456 371.044 521.928 371.251 522.567 371.251C523.163 371.251 523.64 371.054 523.995 370.661C524.198 370.432 524.342 370.168 524.427 369.867H525.55C525.521 370.117 525.421 370.396 525.252 370.705C525.087 371.01 524.901 371.259 524.693 371.454C524.346 371.793 523.917 372.021 523.405 372.14C523.13 372.207 522.819 372.241 522.472 372.241C521.625 372.241 520.908 371.934 520.32 371.321C519.732 370.703 519.437 369.84 519.437 368.731C519.437 367.639 519.734 366.753 520.326 366.071C520.919 365.39 521.693 365.049 522.649 365.049ZM524.471 368.058C524.425 367.563 524.317 367.167 524.147 366.871C523.834 366.321 523.312 366.046 522.579 366.046C522.055 366.046 521.615 366.236 521.259 366.617C520.904 366.994 520.715 367.474 520.694 368.058H524.471ZM465.716 387C465.758 386.217 465.919 385.536 466.198 384.956C466.482 384.376 467.032 383.849 467.849 383.375L469.067 382.671C469.613 382.354 469.996 382.083 470.216 381.858C470.563 381.507 470.737 381.105 470.737 380.652C470.737 380.123 470.578 379.704 470.261 379.396C469.943 379.082 469.52 378.926 468.991 378.926C468.208 378.926 467.667 379.222 467.366 379.814C467.206 380.132 467.117 380.572 467.1 381.135H465.938C465.951 380.343 466.097 379.698 466.376 379.199C466.871 378.319 467.745 377.878 468.998 377.878C470.039 377.878 470.798 378.16 471.276 378.723C471.759 379.285 472 379.912 472 380.602C472 381.329 471.744 381.951 471.232 382.468C470.936 382.768 470.405 383.132 469.639 383.56L468.769 384.042C468.354 384.271 468.029 384.488 467.792 384.696C467.368 385.064 467.102 385.472 466.992 385.921H471.956V387H465.716ZM473.874 385.616H475.2V387H473.874V385.616ZM481.423 377.675H482.686V385.889H487.408V387H481.423V377.675ZM491.554 380.049C492.037 380.049 492.504 380.164 492.957 380.392C493.41 380.616 493.755 380.908 493.992 381.268C494.22 381.611 494.373 382.011 494.449 382.468C494.517 382.781 494.55 383.28 494.55 383.966H489.567C489.589 384.656 489.752 385.21 490.056 385.629C490.361 386.044 490.833 386.251 491.472 386.251C492.068 386.251 492.544 386.054 492.9 385.661C493.103 385.432 493.247 385.168 493.332 384.867H494.455C494.426 385.117 494.326 385.396 494.157 385.705C493.992 386.01 493.806 386.259 493.598 386.454C493.251 386.793 492.822 387.021 492.31 387.14C492.035 387.207 491.724 387.241 491.377 387.241C490.53 387.241 489.813 386.934 489.225 386.321C488.636 385.703 488.342 384.84 488.342 383.731C488.342 382.639 488.639 381.753 489.231 381.071C489.823 380.39 490.598 380.049 491.554 380.049ZM493.376 383.058C493.329 382.563 493.222 382.167 493.052 381.871C492.739 381.321 492.217 381.046 491.484 381.046C490.96 381.046 490.52 381.236 490.164 381.617C489.809 381.994 489.62 382.474 489.599 383.058H493.376ZM496.735 380.202L498.55 385.737L500.448 380.202H501.699L499.134 387H497.915L495.408 380.202H496.735ZM505.724 380.049C506.206 380.049 506.674 380.164 507.127 380.392C507.58 380.616 507.924 380.908 508.161 381.268C508.39 381.611 508.542 382.011 508.618 382.468C508.686 382.781 508.72 383.28 508.72 383.966H503.737C503.758 384.656 503.921 385.21 504.226 385.629C504.531 386.044 505.002 386.251 505.641 386.251C506.238 386.251 506.714 386.054 507.07 385.661C507.273 385.432 507.417 385.168 507.501 384.867H508.625C508.595 385.117 508.496 385.396 508.326 385.705C508.161 386.01 507.975 386.259 507.768 386.454C507.421 386.793 506.991 387.021 506.479 387.14C506.204 387.207 505.893 387.241 505.546 387.241C504.7 387.241 503.983 386.934 503.394 386.321C502.806 385.703 502.512 384.84 502.512 383.731C502.512 382.639 502.808 381.753 503.401 381.071C503.993 380.39 504.768 380.049 505.724 380.049ZM507.546 383.058C507.499 382.563 507.391 382.167 507.222 381.871C506.909 381.321 506.386 381.046 505.654 381.046C505.129 381.046 504.689 381.236 504.334 381.617C503.978 381.994 503.79 382.474 503.769 383.058H507.546ZM510.378 377.675H511.52V387H510.378V377.675ZM516.86 387C516.903 386.217 517.063 385.536 517.343 384.956C517.626 384.376 518.176 383.849 518.993 383.375L520.212 382.671C520.758 382.354 521.141 382.083 521.361 381.858C521.708 381.507 521.881 381.105 521.881 380.652C521.881 380.123 521.723 379.704 521.405 379.396C521.088 379.082 520.665 378.926 520.136 378.926C519.353 378.926 518.811 379.222 518.511 379.814C518.35 380.132 518.261 380.572 518.244 381.135H517.082C517.095 380.343 517.241 379.698 517.52 379.199C518.016 378.319 518.889 377.878 520.142 377.878C521.183 377.878 521.943 378.16 522.421 378.723C522.903 379.285 523.144 379.912 523.144 380.602C523.144 381.329 522.888 381.951 522.376 382.468C522.08 382.768 521.549 383.132 520.783 383.56L519.913 384.042C519.499 384.271 519.173 384.488 518.936 384.696C518.513 385.064 518.246 385.472 518.136 385.921H523.1V387H516.86ZM468.216 402.248C467.142 402.248 466.361 401.953 465.874 401.365C465.392 400.773 465.151 400.053 465.151 399.207H466.344C466.395 399.795 466.505 400.223 466.674 400.489C466.97 400.967 467.506 401.207 468.28 401.207C468.881 401.207 469.363 401.046 469.727 400.724C470.091 400.403 470.273 399.988 470.273 399.48C470.273 398.854 470.081 398.416 469.695 398.166C469.315 397.916 468.784 397.792 468.102 397.792C468.026 397.792 467.948 397.794 467.867 397.798C467.791 397.798 467.713 397.8 467.632 397.804V396.795C467.751 396.808 467.85 396.816 467.931 396.82C468.011 396.825 468.098 396.827 468.191 396.827C468.618 396.827 468.97 396.759 469.245 396.624C469.727 396.387 469.968 395.963 469.968 395.354C469.968 394.901 469.808 394.552 469.486 394.307C469.164 394.061 468.79 393.938 468.362 393.938C467.601 393.938 467.074 394.192 466.782 394.7C466.621 394.979 466.53 395.377 466.509 395.894H465.379C465.379 395.216 465.514 394.641 465.785 394.167C466.251 393.321 467.07 392.897 468.242 392.897C469.169 392.897 469.886 393.105 470.394 393.52C470.902 393.93 471.155 394.527 471.155 395.31C471.155 395.868 471.005 396.321 470.705 396.668C470.519 396.884 470.277 397.053 469.981 397.176C470.459 397.307 470.832 397.561 471.098 397.938C471.369 398.31 471.505 398.767 471.505 399.309C471.505 400.176 471.219 400.883 470.648 401.429C470.076 401.975 469.266 402.248 468.216 402.248ZM473.403 400.616H474.73V402H473.403V400.616ZM487.51 392.675V393.786H484.367V402H483.085V393.786H479.943V392.675H487.51ZM489.396 395.202V399.715C489.396 400.062 489.451 400.345 489.561 400.565C489.764 400.972 490.143 401.175 490.697 401.175C491.492 401.175 492.034 400.819 492.322 400.108C492.478 399.728 492.557 399.205 492.557 398.541V395.202H493.699V402H492.62L492.633 400.997C492.485 401.255 492.301 401.473 492.081 401.651C491.645 402.006 491.116 402.184 490.494 402.184C489.525 402.184 488.865 401.86 488.513 401.213C488.323 400.866 488.228 400.403 488.228 399.823V395.202H489.396ZM495.935 393.304H497.09V395.202H498.175V396.135H497.09V400.572C497.09 400.809 497.17 400.967 497.331 401.048C497.42 401.094 497.568 401.118 497.775 401.118C497.83 401.118 497.89 401.118 497.953 401.118C498.017 401.113 498.091 401.107 498.175 401.099V402C498.044 402.038 497.907 402.066 497.763 402.083C497.623 402.099 497.471 402.108 497.306 402.108C496.772 402.108 496.411 401.972 496.22 401.702C496.03 401.427 495.935 401.071 495.935 400.635V396.135H495.014V395.202H495.935V393.304ZM502.239 401.264C502.996 401.264 503.515 400.978 503.794 400.407C504.077 399.831 504.219 399.192 504.219 398.49C504.219 397.855 504.118 397.339 503.914 396.941C503.593 396.315 503.038 396.001 502.251 396.001C501.553 396.001 501.045 396.268 500.728 396.801C500.411 397.334 500.252 397.978 500.252 398.731C500.252 399.455 500.411 400.058 500.728 400.54C501.045 401.022 501.549 401.264 502.239 401.264ZM502.283 395.005C503.159 395.005 503.9 395.297 504.505 395.881C505.11 396.465 505.412 397.324 505.412 398.458C505.412 399.554 505.146 400.46 504.613 401.175C504.079 401.89 503.252 402.248 502.131 402.248C501.196 402.248 500.453 401.932 499.903 401.302C499.353 400.667 499.078 399.816 499.078 398.75C499.078 397.607 499.367 396.698 499.947 396.021C500.527 395.343 501.306 395.005 502.283 395.005ZM507.026 395.202H508.111V396.376C508.2 396.147 508.418 395.87 508.765 395.544C509.112 395.214 509.512 395.049 509.965 395.049C509.986 395.049 510.022 395.051 510.072 395.056C510.123 395.06 510.21 395.068 510.333 395.081V396.287C510.265 396.274 510.202 396.266 510.142 396.262C510.087 396.257 510.026 396.255 509.958 396.255C509.383 396.255 508.94 396.442 508.632 396.814C508.323 397.182 508.168 397.607 508.168 398.09V402H507.026V395.202ZM511.54 395.233H512.701V402H511.54V395.233ZM511.54 392.675H512.701V393.97H511.54V392.675ZM515.527 400.191C515.527 400.521 515.647 400.781 515.889 400.972C516.13 401.162 516.415 401.257 516.746 401.257C517.148 401.257 517.537 401.164 517.914 400.978C518.548 400.669 518.866 400.163 518.866 399.461V398.541C518.726 398.629 518.546 398.703 518.326 398.763C518.106 398.822 517.89 398.864 517.679 398.89L516.987 398.979C516.572 399.034 516.261 399.12 516.054 399.239C515.702 399.438 515.527 399.755 515.527 400.191ZM518.294 397.88C518.557 397.847 518.732 397.736 518.821 397.55C518.872 397.449 518.897 397.303 518.897 397.112C518.897 396.723 518.758 396.442 518.478 396.268C518.203 396.09 517.808 396.001 517.291 396.001C516.695 396.001 516.272 396.162 516.022 396.484C515.882 396.662 515.791 396.926 515.749 397.277H514.683C514.704 396.439 514.975 395.858 515.495 395.532C516.02 395.202 516.627 395.037 517.317 395.037C518.117 395.037 518.766 395.189 519.266 395.494C519.761 395.798 520.008 396.272 520.008 396.916V400.832C520.008 400.951 520.032 401.046 520.078 401.118C520.129 401.19 520.233 401.226 520.389 401.226C520.44 401.226 520.497 401.223 520.561 401.219C520.624 401.211 520.692 401.2 520.764 401.188V402.032C520.586 402.083 520.45 402.114 520.357 402.127C520.264 402.14 520.137 402.146 519.977 402.146C519.583 402.146 519.297 402.006 519.12 401.727C519.026 401.579 518.961 401.369 518.923 401.099C518.69 401.403 518.356 401.668 517.92 401.892C517.484 402.116 517.004 402.229 516.479 402.229C515.848 402.229 515.332 402.038 514.93 401.657C514.532 401.272 514.333 400.792 514.333 400.216C514.333 399.586 514.53 399.097 514.924 398.75C515.317 398.403 515.834 398.189 516.473 398.109L518.294 397.88ZM522.136 392.675H523.278V402H522.136V392.675Z" fill="#89969F"/>
<rect x="235" y="275" width="128" height="20" rx="10" fill="#89969F"/>
<path d="M283.637 278.675H284.9V286.889H289.623V288H283.637V278.675ZM293.635 287.264C294.393 287.264 294.911 286.978 295.191 286.407C295.474 285.831 295.616 285.192 295.616 284.49C295.616 283.855 295.514 283.339 295.311 282.941C294.99 282.315 294.435 282.001 293.648 282.001C292.95 282.001 292.442 282.268 292.125 282.801C291.807 283.334 291.649 283.978 291.649 284.731C291.649 285.455 291.807 286.058 292.125 286.54C292.442 287.022 292.946 287.264 293.635 287.264ZM293.68 281.005C294.556 281.005 295.296 281.297 295.901 281.881C296.507 282.465 296.809 283.324 296.809 284.458C296.809 285.554 296.543 286.46 296.009 287.175C295.476 287.89 294.649 288.248 293.527 288.248C292.592 288.248 291.85 287.932 291.299 287.302C290.749 286.667 290.474 285.816 290.474 284.75C290.474 283.607 290.764 282.698 291.344 282.021C291.924 281.343 292.702 281.005 293.68 281.005ZM300.79 281.081C301.323 281.081 301.789 281.212 302.187 281.475C302.402 281.623 302.622 281.839 302.847 282.122V281.265H303.9V287.448C303.9 288.311 303.773 288.992 303.52 289.492C303.046 290.414 302.151 290.875 300.834 290.875C300.102 290.875 299.487 290.71 298.987 290.38C298.488 290.055 298.209 289.542 298.149 288.844H299.311C299.366 289.149 299.476 289.384 299.641 289.549C299.899 289.803 300.306 289.93 300.86 289.93C301.736 289.93 302.309 289.621 302.58 289.003C302.741 288.639 302.815 287.989 302.802 287.054C302.574 287.401 302.299 287.659 301.977 287.829C301.655 287.998 301.23 288.083 300.701 288.083C299.965 288.083 299.319 287.822 298.765 287.302C298.215 286.777 297.94 285.912 297.94 284.706C297.94 283.567 298.217 282.679 298.771 282.04C299.33 281.401 300.003 281.081 300.79 281.081ZM302.847 284.572C302.847 283.73 302.673 283.106 302.326 282.7C301.979 282.293 301.537 282.09 301 282.09C300.195 282.09 299.645 282.467 299.349 283.22C299.193 283.622 299.114 284.149 299.114 284.801C299.114 285.567 299.269 286.151 299.578 286.553C299.891 286.951 300.31 287.149 300.834 287.149C301.655 287.149 302.233 286.779 302.567 286.039C302.754 285.62 302.847 285.131 302.847 284.572ZM305.844 281.233H307.005V288H305.844V281.233ZM305.844 278.675H307.005V279.97H305.844V278.675ZM308.955 281.202H310.04V282.167C310.362 281.769 310.703 281.483 311.062 281.31C311.422 281.136 311.822 281.049 312.262 281.049C313.227 281.049 313.878 281.386 314.217 282.059C314.403 282.427 314.496 282.954 314.496 283.639V288H313.335V283.715C313.335 283.301 313.273 282.966 313.151 282.712C312.947 282.289 312.579 282.078 312.046 282.078C311.775 282.078 311.553 282.105 311.38 282.16C311.066 282.253 310.791 282.439 310.554 282.719C310.364 282.943 310.239 283.176 310.18 283.417C310.125 283.654 310.097 283.995 310.097 284.439V288H308.955V281.202Z" fill="white"/>
<rect x="235" y="245" width="128" height="20" rx="10" fill="#89969F"/>
<path d="M257.895 248.421C259.076 248.421 259.992 248.732 260.643 249.354C261.295 249.977 261.657 250.683 261.729 251.475H260.497C260.358 250.874 260.078 250.398 259.66 250.046C259.245 249.695 258.661 249.52 257.908 249.52C256.989 249.52 256.247 249.843 255.68 250.491C255.117 251.134 254.835 252.122 254.835 253.455C254.835 254.547 255.089 255.433 255.597 256.115C256.109 256.792 256.871 257.13 257.882 257.13C258.813 257.13 259.522 256.773 260.009 256.058C260.267 255.681 260.459 255.186 260.586 254.572H261.818C261.708 255.554 261.344 256.377 260.726 257.042C259.985 257.841 258.987 258.241 257.73 258.241C256.647 258.241 255.737 257.913 255 257.257C254.031 256.39 253.547 255.05 253.547 253.239C253.547 251.864 253.911 250.736 254.639 249.856C255.426 248.9 256.511 248.421 257.895 248.421ZM263.456 251.202H264.542V252.376C264.631 252.147 264.849 251.87 265.196 251.544C265.543 251.214 265.942 251.049 266.395 251.049C266.416 251.049 266.452 251.051 266.503 251.056C266.554 251.06 266.641 251.068 266.763 251.081V252.287C266.696 252.274 266.632 252.266 266.573 252.262C266.518 252.257 266.457 252.255 266.389 252.255C265.813 252.255 265.371 252.442 265.062 252.814C264.753 253.182 264.599 253.607 264.599 254.09V258H263.456V251.202ZM270.801 251.049C271.284 251.049 271.751 251.164 272.204 251.392C272.657 251.616 273.002 251.908 273.239 252.268C273.467 252.611 273.62 253.011 273.696 253.468C273.764 253.781 273.797 254.28 273.797 254.966H268.815C268.836 255.656 268.999 256.21 269.303 256.629C269.608 257.044 270.08 257.251 270.719 257.251C271.316 257.251 271.792 257.054 272.147 256.661C272.35 256.432 272.494 256.168 272.579 255.867H273.702C273.673 256.117 273.573 256.396 273.404 256.705C273.239 257.01 273.053 257.259 272.845 257.454C272.498 257.793 272.069 258.021 271.557 258.14C271.282 258.207 270.971 258.241 270.624 258.241C269.777 258.241 269.06 257.934 268.472 257.321C267.884 256.703 267.589 255.84 267.589 254.731C267.589 253.639 267.886 252.753 268.478 252.071C269.071 251.39 269.845 251.049 270.801 251.049ZM272.623 254.058C272.577 253.563 272.469 253.167 272.299 252.871C271.986 252.321 271.464 252.046 270.732 252.046C270.207 252.046 269.767 252.236 269.411 252.617C269.056 252.994 268.867 253.474 268.846 254.058H272.623ZM276.299 256.191C276.299 256.521 276.42 256.781 276.661 256.972C276.902 257.162 277.188 257.257 277.518 257.257C277.92 257.257 278.309 257.164 278.686 256.978C279.321 256.669 279.638 256.163 279.638 255.461V254.541C279.499 254.629 279.319 254.703 279.099 254.763C278.879 254.822 278.663 254.864 278.451 254.89L277.759 254.979C277.345 255.034 277.033 255.12 276.826 255.239C276.475 255.438 276.299 255.755 276.299 256.191ZM279.067 253.88C279.329 253.847 279.505 253.736 279.594 253.55C279.644 253.449 279.67 253.303 279.67 253.112C279.67 252.723 279.53 252.442 279.251 252.268C278.976 252.09 278.58 252.001 278.064 252.001C277.467 252.001 277.044 252.162 276.794 252.484C276.655 252.662 276.564 252.926 276.521 253.277H275.455C275.476 252.439 275.747 251.858 276.268 251.532C276.792 251.202 277.4 251.037 278.089 251.037C278.889 251.037 279.539 251.189 280.038 251.494C280.533 251.798 280.781 252.272 280.781 252.916V256.832C280.781 256.951 280.804 257.046 280.851 257.118C280.901 257.19 281.005 257.226 281.162 257.226C281.212 257.226 281.269 257.223 281.333 257.219C281.396 257.211 281.464 257.2 281.536 257.188V258.032C281.358 258.083 281.223 258.114 281.13 258.127C281.037 258.14 280.91 258.146 280.749 258.146C280.355 258.146 280.07 258.006 279.892 257.727C279.799 257.579 279.733 257.369 279.695 257.099C279.463 257.403 279.128 257.668 278.692 257.892C278.256 258.116 277.776 258.229 277.251 258.229C276.621 258.229 276.105 258.038 275.703 257.657C275.305 257.272 275.106 256.792 275.106 256.216C275.106 255.586 275.303 255.097 275.696 254.75C276.09 254.403 276.606 254.189 277.245 254.109L279.067 253.88ZM283.105 249.304H284.26V251.202H285.346V252.135H284.26V256.572C284.26 256.809 284.34 256.967 284.501 257.048C284.59 257.094 284.738 257.118 284.946 257.118C285.001 257.118 285.06 257.118 285.123 257.118C285.187 257.113 285.261 257.107 285.346 257.099V258C285.214 258.038 285.077 258.066 284.933 258.083C284.793 258.099 284.641 258.108 284.476 258.108C283.943 258.108 283.581 257.972 283.39 257.702C283.2 257.427 283.105 257.071 283.105 256.635V252.135H282.184V251.202H283.105V249.304ZM289.542 251.049C290.025 251.049 290.492 251.164 290.945 251.392C291.398 251.616 291.743 251.908 291.98 252.268C292.208 252.611 292.361 253.011 292.437 253.468C292.504 253.781 292.538 254.28 292.538 254.966H287.555C287.577 255.656 287.739 256.21 288.044 256.629C288.349 257.044 288.821 257.251 289.46 257.251C290.056 257.251 290.532 257.054 290.888 256.661C291.091 256.432 291.235 256.168 291.32 255.867H292.443C292.413 256.117 292.314 256.396 292.145 256.705C291.98 257.01 291.793 257.259 291.586 257.454C291.239 257.793 290.81 258.021 290.298 258.14C290.022 258.207 289.711 258.241 289.364 258.241C288.518 258.241 287.801 257.934 287.213 257.321C286.624 256.703 286.33 255.84 286.33 254.731C286.33 253.639 286.626 252.753 287.219 252.071C287.811 251.39 288.586 251.049 289.542 251.049ZM291.364 254.058C291.317 253.563 291.21 253.167 291.04 252.871C290.727 252.321 290.204 252.046 289.472 252.046C288.948 252.046 288.508 252.236 288.152 252.617C287.797 252.994 287.608 253.474 287.587 254.058H291.364ZM298.875 256.191C298.875 256.521 298.996 256.781 299.237 256.972C299.478 257.162 299.764 257.257 300.094 257.257C300.496 257.257 300.885 257.164 301.262 256.978C301.896 256.669 302.214 256.163 302.214 255.461V254.541C302.074 254.629 301.894 254.703 301.674 254.763C301.454 254.822 301.238 254.864 301.027 254.89L300.335 254.979C299.92 255.034 299.609 255.12 299.402 255.239C299.051 255.438 298.875 255.755 298.875 256.191ZM301.643 253.88C301.905 253.847 302.081 253.736 302.169 253.55C302.22 253.449 302.246 253.303 302.246 253.112C302.246 252.723 302.106 252.442 301.827 252.268C301.552 252.09 301.156 252.001 300.64 252.001C300.043 252.001 299.62 252.162 299.37 252.484C299.23 252.662 299.139 252.926 299.097 253.277H298.031C298.052 252.439 298.323 251.858 298.843 251.532C299.368 251.202 299.975 251.037 300.665 251.037C301.465 251.037 302.114 251.189 302.614 251.494C303.109 251.798 303.356 252.272 303.356 252.916V256.832C303.356 256.951 303.38 257.046 303.426 257.118C303.477 257.19 303.581 257.226 303.737 257.226C303.788 257.226 303.845 257.223 303.909 257.219C303.972 257.211 304.04 257.2 304.112 257.188V258.032C303.934 258.083 303.799 258.114 303.706 258.127C303.612 258.14 303.485 258.146 303.325 258.146C302.931 258.146 302.645 258.006 302.468 257.727C302.375 257.579 302.309 257.369 302.271 257.099C302.038 257.403 301.704 257.668 301.268 257.892C300.832 258.116 300.352 258.229 299.827 258.229C299.197 258.229 298.68 258.038 298.278 257.657C297.88 257.272 297.682 256.792 297.682 256.216C297.682 255.586 297.878 255.097 298.272 254.75C298.665 254.403 299.182 254.189 299.821 254.109L301.643 253.88ZM308.074 251.005C308.839 251.005 309.462 251.191 309.94 251.563C310.422 251.936 310.712 252.577 310.809 253.487H309.699C309.631 253.068 309.476 252.721 309.235 252.446C308.994 252.167 308.607 252.027 308.074 252.027C307.346 252.027 306.825 252.382 306.512 253.093C306.309 253.555 306.207 254.124 306.207 254.801C306.207 255.482 306.351 256.056 306.639 256.521C306.927 256.986 307.38 257.219 307.997 257.219C308.471 257.219 308.846 257.075 309.121 256.788C309.4 256.496 309.593 256.098 309.699 255.594H310.809C310.682 256.496 310.365 257.156 309.857 257.575C309.349 257.989 308.7 258.197 307.908 258.197C307.02 258.197 306.311 257.873 305.782 257.226C305.253 256.574 304.989 255.761 304.989 254.788C304.989 253.595 305.278 252.666 305.858 252.001C306.438 251.337 307.176 251.005 308.074 251.005ZM314.79 251.005C315.556 251.005 316.178 251.191 316.656 251.563C317.139 251.936 317.429 252.577 317.526 253.487H316.415C316.347 253.068 316.193 252.721 315.952 252.446C315.711 252.167 315.323 252.027 314.79 252.027C314.062 252.027 313.542 252.382 313.229 253.093C313.026 253.555 312.924 254.124 312.924 254.801C312.924 255.482 313.068 256.056 313.356 256.521C313.643 256.986 314.096 257.219 314.714 257.219C315.188 257.219 315.563 257.075 315.838 256.788C316.117 256.496 316.309 256.098 316.415 255.594H317.526C317.399 256.496 317.082 257.156 316.574 257.575C316.066 257.989 315.417 258.197 314.625 258.197C313.736 258.197 313.028 257.873 312.499 257.226C311.97 256.574 311.705 255.761 311.705 254.788C311.705 253.595 311.995 252.666 312.575 252.001C313.155 251.337 313.893 251.005 314.79 251.005ZM321.583 257.264C322.341 257.264 322.859 256.978 323.138 256.407C323.422 255.831 323.564 255.192 323.564 254.49C323.564 253.855 323.462 253.339 323.259 252.941C322.937 252.315 322.383 252.001 321.596 252.001C320.897 252.001 320.39 252.268 320.072 252.801C319.755 253.334 319.596 253.978 319.596 254.731C319.596 255.455 319.755 256.058 320.072 256.54C320.39 257.022 320.893 257.264 321.583 257.264ZM321.627 251.005C322.503 251.005 323.244 251.297 323.849 251.881C324.454 252.465 324.757 253.324 324.757 254.458C324.757 255.554 324.49 256.46 323.957 257.175C323.424 257.89 322.597 258.248 321.475 258.248C320.54 258.248 319.797 257.932 319.247 257.302C318.697 256.667 318.422 255.816 318.422 254.75C318.422 253.607 318.712 252.698 319.292 252.021C319.871 251.343 320.65 251.005 321.627 251.005ZM327.481 251.202V255.715C327.481 256.062 327.536 256.345 327.646 256.565C327.849 256.972 328.228 257.175 328.782 257.175C329.578 257.175 330.119 256.819 330.407 256.108C330.564 255.728 330.642 255.205 330.642 254.541V251.202H331.785V258H330.705L330.718 256.997C330.57 257.255 330.386 257.473 330.166 257.651C329.73 258.006 329.201 258.184 328.579 258.184C327.61 258.184 326.95 257.86 326.599 257.213C326.408 256.866 326.313 256.403 326.313 255.823V251.202H327.481ZM333.791 251.202H334.877V252.167C335.198 251.769 335.539 251.483 335.899 251.31C336.258 251.136 336.658 251.049 337.098 251.049C338.063 251.049 338.715 251.386 339.053 252.059C339.24 252.427 339.333 252.954 339.333 253.639V258H338.171V253.715C338.171 253.301 338.11 252.966 337.987 252.712C337.784 252.289 337.416 252.078 336.883 252.078C336.612 252.078 336.39 252.105 336.216 252.16C335.903 252.253 335.628 252.439 335.391 252.719C335.2 252.943 335.076 253.176 335.016 253.417C334.961 253.654 334.934 253.995 334.934 254.439V258H333.791V251.202ZM341.473 249.304H342.628V251.202H343.714V252.135H342.628V256.572C342.628 256.809 342.708 256.967 342.869 257.048C342.958 257.094 343.106 257.118 343.314 257.118C343.369 257.118 343.428 257.118 343.491 257.118C343.555 257.113 343.629 257.107 343.714 257.099V258C343.582 258.038 343.445 258.066 343.301 258.083C343.161 258.099 343.009 258.108 342.844 258.108C342.311 258.108 341.949 257.972 341.758 257.702C341.568 257.427 341.473 257.071 341.473 256.635V252.135H340.552V251.202H341.473V249.304Z" fill="white"/>
<g clip-path="url(#clip0_109_3443)">
<path d="M377 206H383.456C388.979 206 393.456 201.523 393.456 196V125C393.456 119.477 397.933 115 403.456 115H409.5" stroke="#FF7D3A"/>
<circle r="2.5" transform="matrix(1 0 0 -1 379.5 205.5)" fill="white" stroke="#89969F"/>
<path fill-rule="evenodd" clip-rule="evenodd" d="M408 112V118L411 115L408 112Z" fill="#89969F"/>
</g>
<g clip-path="url(#clip1_109_3443)">
<path d="M377 262H383.456C388.979 262 393.456 266.477 393.456 272V374C393.456 379.523 397.933 384 403.456 384H409.5" stroke="#FF7D3A"/>
<circle cx="379.5" cy="262.5" r="2.5" fill="white" stroke="#89969F"/>
<path fill-rule="evenodd" clip-rule="evenodd" d="M408 387V381L411 384L408 387Z" fill="#89969F"/>
</g>
<g clip-path="url(#clip2_109_3443)">
<path d="M378 235.5H410.917" stroke="#89969F" stroke-linecap="square"/>
<circle r="2.5" transform="matrix(1 0 0 -1 379.5 235.5)" fill="white" stroke="#89969F"/>
<path fill-rule="evenodd" clip-rule="evenodd" d="M409 233V238L412 235.5L409 233Z" fill="#89969F"/>
</g>
</g>
<defs>
<linearGradient id="paint0_linear_109_3443" x1="495" y1="224.5" x2="601.958" y2="83.8171" gradientUnits="userSpaceOnUse">
<stop stop-color="#3081D0"/>
<stop offset="1" stop-color="#482F9B"/>
</linearGradient>
<linearGradient id="paint1_linear_109_3443" x1="495" y1="551.5" x2="667.166" y2="407.864" gradientUnits="userSpaceOnUse">
<stop stop-color="#3081D0"/>
<stop offset="1" stop-color="#482F9B"/>
</linearGradient>
<clipPath id="clip0_109_3443">
<rect width="34" height="96" fill="white" transform="matrix(1 0 0 -1 377 208)"/>
</clipPath>
<clipPath id="clip1_109_3443">
<rect width="34" height="127" fill="white" transform="translate(377 260)"/>
</clipPath>
<clipPath id="clip2_109_3443">
<rect width="35" height="13" fill="white" transform="matrix(1 0 0 -1 377 242)"/>
</clipPath>
</defs>
</svg>
