<svg width="542" height="296" viewBox="0 0 542 296" fill="none" xmlns="http://www.w3.org/2000/svg">
<mask id="mask0_109_5585" style="mask-type:alpha" maskUnits="userSpaceOnUse" x="0" y="22" width="508" height="240">
<rect y="22" width="508" height="240" rx="35" fill="#3FBF5B"/>
</mask>
<g mask="url(#mask0_109_5585)">
<path fill-rule="evenodd" clip-rule="evenodd" d="M756.862 -35.1073L640.911 397.627L199.483 279.347L315.434 -153.388L756.862 -35.1073Z" fill="white"/>
<path fill-rule="evenodd" clip-rule="evenodd" d="M442.062 19.2693L433.003 53.0767L291.012 15.0303L300.071 -18.7771L442.062 19.2693Z" fill="#FAFCFD" stroke="#E1E2E3"/>
<path d="M310.081 3.74521C310.137 3.53675 310.154 3.34404 310.131 3.1671C310.113 2.98717 310.042 2.81045 309.918 2.63693C309.798 2.46451 309.615 2.28179 309.368 2.08877C309.126 1.89685 308.811 1.68317 308.423 1.44773C308.017 1.19864 307.657 0.946738 307.344 0.692035C307.032 0.433244 306.777 0.165662 306.58 -0.11071C306.382 -0.387083 306.252 -0.678231 306.19 -0.984155C306.127 -1.29008 306.142 -1.61676 306.235 -1.96421C306.328 -2.31165 306.486 -2.61336 306.708 -2.86933C306.93 -3.1253 307.203 -3.32601 307.526 -3.47146C307.855 -3.6199 308.222 -3.7056 308.627 -3.72856C309.032 -3.75152 309.463 -3.70166 309.921 -3.57899C310.591 -3.39937 311.125 -3.11837 311.522 -2.73599C311.924 -2.35661 312.193 -1.92764 312.327 -1.44907C312.463 -0.974602 312.468 -0.504373 312.344 -0.0383892L311.166 -0.353825C311.256 -0.689006 311.264 -1.00452 311.19 -1.30037C311.117 -1.60031 310.955 -1.86274 310.704 -2.08766C310.455 -2.31666 310.107 -2.49086 309.661 -2.61024C309.24 -2.72305 308.876 -2.75279 308.568 -2.69946C308.26 -2.64613 308.01 -2.52921 307.817 -2.34871C307.628 -2.16712 307.496 -1.93735 307.422 -1.65939C307.372 -1.47136 307.364 -1.28928 307.401 -1.11314C307.442 -0.939996 307.529 -0.765569 307.661 -0.58986C307.798 -0.413057 307.982 -0.234425 308.214 -0.0539631C308.45 0.127594 308.739 0.318753 309.079 0.519516C309.548 0.798394 309.942 1.075 310.263 1.34934C310.584 1.62368 310.833 1.90298 311.011 2.18723C311.194 2.4685 311.306 2.76344 311.346 3.07206C311.391 3.37769 311.367 3.70423 311.274 4.05167C311.176 4.41547 311.015 4.7248 310.789 4.97968C310.563 5.23455 310.285 5.42953 309.955 5.56462C309.625 5.6997 309.253 5.77299 308.838 5.78449C308.428 5.79299 307.988 5.73427 307.518 5.60831C307.106 5.49769 306.714 5.33149 306.344 5.1097C305.978 4.88901 305.663 4.6204 305.397 4.30387C305.135 3.98844 304.951 3.63685 304.845 3.2491C304.744 2.85835 304.753 2.4402 304.872 1.99466L306.05 2.31009C305.967 2.61666 305.956 2.89619 306.015 3.14868C306.076 3.39709 306.189 3.6202 306.355 3.81803C306.525 4.01696 306.732 4.18621 306.975 4.3258C307.223 4.46239 307.49 4.56902 307.776 4.64569C308.189 4.75631 308.554 4.79273 308.871 4.75495C309.188 4.71716 309.448 4.61171 309.652 4.43858C309.86 4.26655 310.003 4.03543 310.081 3.74521ZM314.723 7.53871C314.261 7.41495 313.863 7.22502 313.528 6.96893C313.199 6.70984 312.938 6.40109 312.745 6.04268C312.556 5.68535 312.442 5.29132 312.404 4.86058C312.366 4.42984 312.41 3.98148 312.535 3.51549L312.604 3.25797C312.748 2.71841 312.957 2.25948 313.229 1.88118C313.502 1.49878 313.815 1.19713 314.168 0.976203C314.521 0.75528 314.891 0.615747 315.279 0.557604C315.667 0.499461 316.047 0.520224 316.419 0.619893C316.893 0.746944 317.28 0.938222 317.579 1.19373C317.883 1.45033 318.106 1.75535 318.248 2.1088C318.391 2.45816 318.462 2.84533 318.462 3.2703C318.463 3.69119 318.402 4.13462 318.277 4.6006L318.14 5.10951L313.186 3.78205L313.434 2.85621L317.254 3.87974L317.277 3.7939C317.34 3.49521 317.355 3.19265 317.323 2.88622C317.295 2.58088 317.193 2.30817 317.017 2.06808C316.84 1.82798 316.558 1.65591 316.169 1.55186C315.912 1.48286 315.66 1.47452 315.414 1.52683C315.168 1.57506 314.94 1.68464 314.728 1.85558C314.515 2.02651 314.325 2.25376 314.157 2.53733C313.989 2.8209 313.851 3.16297 313.744 3.56355L313.675 3.82107C313.591 4.13581 313.554 4.44366 313.566 4.74462C313.582 5.04258 313.646 5.31825 313.758 5.57162C313.874 5.82609 314.037 6.0449 314.246 6.22806C314.459 6.41232 314.721 6.54607 315.032 6.62931C315.433 6.73664 315.794 6.7458 316.116 6.65677C316.437 6.56775 316.739 6.41423 317.021 6.19622L317.562 6.92592C317.36 7.10422 317.123 7.26191 316.85 7.39897C316.577 7.53603 316.262 7.62261 315.906 7.65871C315.555 7.69591 315.16 7.65591 314.723 7.53871ZM321.231 3.40773L319.112 11.3172L317.972 11.0116L320.433 1.82683L321.475 2.10612L321.231 3.40773ZM325.169 6.59197L325.134 6.72072C325.005 7.20306 324.828 7.63531 324.603 8.01749C324.379 8.39558 324.116 8.7063 323.814 8.94963C323.517 9.19406 323.186 9.35736 322.822 9.43952C322.458 9.52168 322.07 9.50745 321.657 9.39683C321.236 9.28402 320.883 9.11486 320.597 8.88935C320.312 8.66385 320.092 8.38813 319.938 8.0622C319.785 7.73627 319.69 7.36925 319.655 6.96113C319.624 6.55412 319.646 6.11104 319.722 5.63192L319.906 4.9452C320.087 4.46784 320.296 4.05307 320.535 3.70089C320.774 3.34871 321.041 3.06526 321.335 2.85054C321.634 2.63283 321.962 2.49515 322.319 2.43752C322.678 2.37579 323.065 2.40079 323.482 2.51251C323.899 2.62422 324.247 2.8051 324.526 3.05513C324.807 3.30107 325.017 3.60281 325.158 3.96034C325.299 4.31788 325.368 4.7199 325.367 5.16641C325.371 5.60992 325.305 6.08511 325.169 6.59197ZM323.994 6.41515L324.029 6.28639C324.117 5.95529 324.166 5.63533 324.174 5.32649C324.183 5.01357 324.144 4.72702 324.056 4.46686C323.973 4.20371 323.836 3.97866 323.646 3.79171C323.456 3.60067 323.206 3.46352 322.895 3.38028C322.609 3.30362 322.346 3.28586 322.107 3.327C321.873 3.36925 321.659 3.45445 321.467 3.58261C321.276 3.70668 321.105 3.8624 320.954 4.04977C320.809 4.23414 320.683 4.43271 320.578 4.64547L320.152 6.2335C320.157 6.54153 320.2 6.84198 320.279 7.13484C320.359 7.42361 320.501 7.67852 320.705 7.89956C320.91 8.11652 321.198 8.27483 321.57 8.3745C321.876 8.45665 322.157 8.46393 322.412 8.39636C322.672 8.3258 322.903 8.19728 323.106 8.01079C323.314 7.82541 323.491 7.59691 323.638 7.32532C323.787 7.04963 323.905 6.74624 323.994 6.41515ZM330.267 4.46203L330.034 5.33269L326.447 4.37159L326.681 3.50094L330.267 4.46203ZM328.327 2.21368L329.461 2.51762L327.692 9.1211C327.631 9.34592 327.621 9.52486 327.66 9.65793C327.698 9.791 327.768 9.89072 327.868 9.95708C327.969 10.0234 328.083 10.0736 328.209 10.1076C328.303 10.1327 328.404 10.1509 328.51 10.1619C328.622 10.1699 328.706 10.1749 328.762 10.1769L328.521 11.1044C328.423 11.1089 328.297 11.1037 328.144 11.0888C327.993 11.0791 327.815 11.0468 327.611 10.9921C327.333 10.9176 327.092 10.794 326.889 10.6212C326.685 10.4484 326.549 10.2146 326.479 9.91984C326.414 9.62209 326.441 9.25249 326.559 8.81103L328.327 2.21368ZM332.83 5.14876L331.053 11.7829L329.912 11.4773L331.69 4.84318L332.83 5.14876ZM332.076 3.06048C332.125 2.87654 332.222 2.736 332.366 2.63886C332.514 2.54281 332.699 2.52436 332.92 2.5835C333.136 2.64155 333.285 2.74927 333.365 2.90665C333.45 3.06513 333.468 3.23634 333.418 3.42028C333.371 3.59604 333.272 3.7314 333.119 3.82635C332.972 3.91831 332.79 3.93527 332.573 3.87722C332.352 3.81808 332.201 3.71186 332.12 3.55856C332.043 3.40227 332.029 3.23625 332.076 3.06048ZM335.594 13.1311C335.132 13.0074 334.734 12.8174 334.399 12.5613C334.07 12.3023 333.809 11.9935 333.616 11.6351C333.427 11.2778 333.313 10.8837 333.275 10.453C333.238 10.0223 333.281 9.57389 333.406 9.1079L333.475 8.85039C333.619 8.31083 333.828 7.85189 334.1 7.47359C334.373 7.0912 334.686 6.78954 335.039 6.56862C335.392 6.34769 335.762 6.20816 336.15 6.15002C336.538 6.09187 336.918 6.11264 337.29 6.21231C337.764 6.33936 338.151 6.53063 338.451 6.78614C338.754 7.04274 338.977 7.34776 339.119 7.70121C339.262 8.05058 339.333 8.43774 339.333 8.86272C339.335 9.2836 339.273 9.72703 339.148 10.193L339.011 10.7019L334.057 9.37446L334.305 8.44863L338.125 9.47215L338.148 9.38631C338.211 9.08762 338.226 8.78506 338.194 8.47863C338.167 8.17329 338.064 7.90058 337.888 7.66049C337.711 7.42039 337.429 7.24832 337.04 7.14427C336.783 7.07527 336.531 7.06693 336.285 7.11924C336.04 7.16747 335.811 7.27705 335.599 7.44799C335.386 7.61892 335.196 7.84617 335.028 8.12974C334.86 8.41331 334.723 8.75538 334.615 9.15597L334.546 9.41348C334.462 9.72823 334.425 10.0361 334.437 10.337C334.453 10.635 334.518 10.9107 334.629 11.164C334.745 11.4185 334.908 11.6373 335.117 11.8205C335.331 12.0047 335.593 12.1385 335.903 12.2217C336.304 12.3291 336.665 12.3382 336.987 12.2492C337.309 12.1602 337.61 12.0066 337.892 11.7886L338.433 12.5183C338.232 12.6966 337.994 12.8543 337.721 12.9914C337.448 13.1284 337.133 13.215 336.778 13.2511C336.426 13.2883 336.031 13.2483 335.594 13.1311ZM342.085 9.04142L340.661 14.3573L339.52 14.0517L341.298 7.4176L342.377 7.70675L342.085 9.04142ZM341.384 10.7264L340.861 10.5667C340.987 10.1141 341.159 9.71103 341.376 9.35746C341.595 8.99981 341.855 8.70804 342.156 8.48215C342.457 8.25626 342.797 8.11055 343.173 8.04504C343.551 7.97543 343.961 7.99977 344.402 8.11806C344.713 8.2013 344.987 8.32293 345.225 8.48296C345.463 8.63889 345.653 8.83662 345.795 9.07612C345.937 9.31563 346.022 9.59677 346.049 9.91955C346.076 10.2423 346.034 10.6122 345.923 11.0291L344.738 15.4498L343.604 15.1459L344.773 10.7804C344.867 10.4329 344.882 10.1391 344.819 9.89886C344.76 9.65973 344.637 9.46468 344.45 9.31371C344.264 9.15866 344.028 9.04279 343.742 8.96612C343.406 8.87631 343.11 8.86056 342.854 8.91886C342.597 8.97716 342.374 9.09247 342.183 9.26479C341.992 9.43712 341.83 9.64995 341.696 9.9033C341.568 10.1537 341.464 10.428 341.384 10.7264ZM345.849 11.2527L345.027 11.282C345.128 10.9193 345.281 10.5857 345.485 10.2812C345.694 9.97774 345.943 9.7248 346.234 9.52234C346.529 9.32097 346.86 9.18848 347.228 9.12486C347.597 9.05715 347.991 9.0797 348.412 9.19252C348.768 9.2878 349.07 9.41915 349.319 9.58654C349.572 9.75504 349.766 9.96257 349.901 10.2092C350.042 10.4528 350.121 10.7389 350.138 11.0677C350.155 11.3965 350.107 11.7693 349.996 12.1863L348.828 16.5457L347.687 16.2401L348.859 11.8684C348.958 11.4964 348.976 11.1924 348.912 10.9562C348.854 10.7171 348.729 10.5282 348.539 10.3895C348.353 10.2478 348.115 10.1381 347.825 10.0603C347.576 9.99348 347.343 9.97726 347.128 10.0116C346.913 10.046 346.72 10.1213 346.549 10.2374C346.378 10.3496 346.233 10.4924 346.112 10.6659C345.995 10.8404 345.908 11.0361 345.849 11.2527ZM353.062 7.58624L354.202 7.89182L352.024 16.022L351.581 17.2833L350.538 17.004L353.062 7.58624ZM357.064 15.1383L357.03 15.2671C356.901 15.7494 356.723 16.1817 356.498 16.5638C356.274 16.9419 356.011 17.2526 355.71 17.496C355.408 17.7393 355.075 17.9021 354.711 17.9842C354.348 18.0664 353.959 18.0521 353.547 17.9415C353.126 17.8287 352.775 17.6581 352.494 17.4296C352.219 17.1981 352.01 16.9164 351.866 16.5845C351.723 16.2525 351.638 15.8749 351.611 15.4515C351.589 15.0293 351.618 14.5683 351.699 14.0688L351.85 13.5047C352.031 13.0273 352.237 12.6115 352.467 12.2571C352.702 11.9038 352.965 11.6193 353.255 11.4034C353.546 11.1835 353.868 11.0442 354.221 10.9855C354.575 10.9227 354.961 10.9471 355.378 11.0588C355.795 11.1706 356.143 11.3514 356.422 11.6015C356.702 11.8474 356.91 12.1486 357.047 12.505C357.188 12.8626 357.26 13.2651 357.262 13.7127C357.266 14.1563 357.2 14.6314 357.064 15.1383ZM355.889 14.9615L355.924 14.8327C356.013 14.5016 356.065 14.1828 356.082 13.8761C356.099 13.5654 356.07 13.2816 355.994 13.0247C355.92 12.7637 355.789 12.5403 355.602 12.3545C355.417 12.1645 355.162 12.0263 354.839 11.9398C354.553 11.8631 354.291 11.8453 354.052 11.8865C353.817 11.9287 353.604 12.0139 353.412 12.1421C353.221 12.2662 353.05 12.4219 352.899 12.6092C352.753 12.7936 352.627 12.9922 352.522 13.205L352.126 14.6826C352.115 14.9863 352.147 15.2907 352.223 15.5958C352.304 15.8979 352.447 16.1662 352.652 16.4006C352.86 16.6361 353.15 16.8037 353.522 16.9033C353.829 16.9855 354.107 16.9943 354.357 16.9297C354.611 16.8621 354.836 16.736 355.03 16.5514C355.228 16.3679 355.398 16.1399 355.542 15.8672C355.685 15.5945 355.801 15.2926 355.889 14.9615ZM360.228 13.6071L358.73 19.1989L357.595 18.895L359.373 12.2609L360.477 12.5566L360.228 13.6071ZM362.59 13.0833L362.301 14.1363C362.212 14.0906 362.126 14.0543 362.041 14.0272C361.961 13.9971 361.869 13.9678 361.762 13.9393C361.501 13.8692 361.259 13.8482 361.037 13.8763C360.814 13.9044 360.614 13.9734 360.436 14.0833C360.257 14.1932 360.1 14.3394 359.963 14.5219C359.832 14.7014 359.722 14.9084 359.633 15.143L359.264 15.2415C359.372 14.8409 359.511 14.4753 359.683 14.1446C359.859 13.8149 360.067 13.5377 360.307 13.3128C360.548 13.0839 360.817 12.9283 361.115 12.846C361.419 12.7608 361.75 12.7664 362.11 12.8627C362.192 12.8846 362.283 12.9201 362.384 12.969C362.486 13.0138 362.554 13.0519 362.59 13.0833ZM364.448 20.8626C363.986 20.7388 363.588 20.5489 363.254 20.2928C362.924 20.0337 362.663 19.725 362.47 19.3665C362.281 19.0092 362.168 18.6152 362.13 18.1845C362.092 17.7537 362.135 17.3053 362.26 16.8394L362.329 16.5818C362.474 16.0423 362.682 15.5834 362.954 15.205C363.228 14.8227 363.541 14.521 363.893 14.3001C364.246 14.0792 364.616 13.9396 365.004 13.8815C365.392 13.8233 365.772 13.8441 366.144 13.9438C366.618 14.0708 367.005 14.2621 367.305 14.5176C367.608 14.7742 367.831 15.0792 367.973 15.4327C368.116 15.782 368.188 16.1692 368.188 16.5942C368.189 17.0151 368.127 17.4585 368.002 17.9245L367.866 18.4334L362.912 17.1059L363.16 16.1801L366.979 17.2036L367.002 17.1178C367.065 16.8191 367.08 16.5165 367.048 16.2101C367.021 15.9048 366.919 15.632 366.742 15.3919C366.565 15.1519 366.283 14.9798 365.895 14.8757C365.637 14.8067 365.385 14.7984 365.139 14.8507C364.894 14.8989 364.665 15.0085 364.453 15.1794C364.241 15.3504 364.05 15.5776 363.882 15.8612C363.714 16.1448 363.577 16.4868 363.47 16.8874L363.401 17.1449C363.316 17.4597 363.28 17.7675 363.291 18.0685C363.308 18.3665 363.372 18.6421 363.483 18.8955C363.599 19.15 363.762 19.3688 363.971 19.5519C364.185 19.7362 364.447 19.8699 364.758 19.9532C365.158 20.0605 365.519 20.0697 365.841 19.9806C366.163 19.8916 366.465 19.7381 366.746 19.5201L367.287 20.2498C367.086 20.4281 366.849 20.5858 366.575 20.7228C366.302 20.8599 365.987 20.9465 365.632 20.9826C365.28 21.0198 364.885 20.9798 364.448 20.8626ZM377.478 23.2236L377.228 24.1555L371.385 22.5899L371.603 21.7744L375.4 19.3023C375.867 18.9981 376.236 18.7333 376.507 18.5079C376.783 18.2795 376.989 18.0654 377.126 17.8655C377.268 17.6626 377.37 17.4446 377.433 17.2116C377.512 16.9173 377.521 16.6352 377.462 16.3653C377.408 16.0923 377.284 15.8531 377.089 15.6476C376.895 15.4421 376.632 15.295 376.301 15.2063C375.904 15.1001 375.552 15.089 375.245 15.1731C374.943 15.2543 374.69 15.4143 374.486 15.6531C374.281 15.8919 374.132 16.1891 374.036 16.5448L372.902 16.2408C373.037 15.738 373.27 15.3078 373.603 14.95C373.935 14.5922 374.351 14.3487 374.85 14.2196C375.35 14.0863 375.917 14.1046 376.551 14.2743C377.115 14.4255 377.57 14.6549 377.917 14.9625C378.265 15.266 378.497 15.6261 378.613 16.0428C378.735 16.4565 378.731 16.9024 378.603 17.3807C378.533 17.6423 378.417 17.8959 378.255 18.1416C378.098 18.3843 377.906 18.6177 377.679 18.8418C377.457 19.0669 377.209 19.2809 376.936 19.4836C376.666 19.6875 376.384 19.8834 376.088 20.0714L373.002 22.0243L377.478 23.2236ZM385.433 20.8076L385.068 22.1687C384.872 22.9004 384.641 23.5001 384.376 23.9678C384.11 24.4355 383.814 24.7898 383.486 25.0307C383.159 25.2715 382.803 25.4149 382.418 25.4608C382.039 25.5037 381.632 25.4671 381.199 25.351C380.856 25.259 380.55 25.1312 380.283 24.9676C380.016 24.804 379.791 24.5969 379.608 24.3465C379.431 24.093 379.302 23.7911 379.22 23.4407C379.139 23.0904 379.114 22.685 379.145 22.2246C379.177 21.7642 379.271 21.2418 379.427 20.6573L379.792 19.2961C379.988 18.5644 380.218 17.9688 380.481 17.5093C380.748 17.0508 381.045 16.7052 381.37 16.4726C381.696 16.2358 382.049 16.098 382.427 16.0592C382.809 16.0215 383.215 16.0602 383.645 16.1752C383.992 16.2683 384.299 16.3966 384.567 16.5602C384.839 16.7208 385.065 16.9238 385.245 17.169C385.425 17.4102 385.555 17.7034 385.633 18.0486C385.717 18.3908 385.743 18.7901 385.713 19.2464C385.683 19.7026 385.589 20.223 385.433 20.8076ZM383.878 22.0471L384.343 20.3119C384.451 19.9113 384.52 19.5532 384.552 19.2376C384.589 18.919 384.592 18.6393 384.56 18.3986C384.528 18.1578 384.461 17.9514 384.358 17.7793C384.259 17.6082 384.128 17.468 383.965 17.3585C383.807 17.246 383.617 17.1601 383.396 17.101C383.127 17.0287 382.874 17.0157 382.638 17.0621C382.403 17.1043 382.185 17.2146 381.984 17.3929C381.787 17.5723 381.605 17.8279 381.437 18.1597C381.269 18.4915 381.118 18.9088 380.983 19.4116L380.518 21.1468C380.411 21.5474 380.339 21.907 380.302 22.2256C380.268 22.5453 380.269 22.8302 380.303 23.0802C380.337 23.3261 380.403 23.5386 380.5 23.7179C380.596 23.8971 380.723 24.045 380.88 24.1615C381.043 24.2751 381.232 24.361 381.449 24.419C381.727 24.4935 381.984 24.5055 382.221 24.4551C382.458 24.4047 382.676 24.2857 382.875 24.0981C383.08 23.9075 383.264 23.6437 383.429 23.3067C383.595 22.9657 383.745 22.5458 383.878 22.0471ZM391.638 18.396L389.233 27.3723L388.099 27.0684L390.125 19.5084L387.614 19.7295L387.889 18.7055L391.461 18.3484L391.638 18.396ZM398.845 27.3585C398.699 27.9021 398.449 28.3301 398.093 28.6423C397.743 28.9516 397.327 29.1468 396.845 29.228C396.368 29.3103 395.861 29.2797 395.326 29.1362C394.79 28.9927 394.334 28.7654 393.958 28.4542C393.581 28.143 393.318 27.7659 393.17 27.3231C393.022 26.8761 393.021 26.3808 393.167 25.8372C393.262 25.4815 393.417 25.1746 393.631 24.9165C393.849 24.6553 394.113 24.4478 394.422 24.2939C394.734 24.1411 395.078 24.0514 395.453 24.0248C395.834 23.9953 396.232 24.0364 396.649 24.1481C397.197 24.2949 397.657 24.532 398.029 24.8596C398.402 25.1831 398.662 25.5616 398.809 25.9952C398.96 26.4299 398.972 26.8843 398.845 27.3585ZM397.711 27.0284C397.8 26.6973 397.806 26.3859 397.731 26.0941C397.657 25.7982 397.51 25.5443 397.291 25.3322C397.072 25.1201 396.793 24.9687 396.454 24.8777C396.106 24.7847 395.787 24.7757 395.495 24.8508C395.207 24.9271 394.959 25.0754 394.751 25.2956C394.544 25.5118 394.397 25.7855 394.308 26.1166C394.216 26.4599 394.204 26.7723 394.274 27.0537C394.348 27.3321 394.494 27.5707 394.713 27.7694C394.936 27.9651 395.224 28.11 395.575 28.2042C395.927 28.2984 396.246 28.3161 396.534 28.2573C396.822 28.1944 397.066 28.0605 397.266 27.8554C397.47 27.6474 397.619 27.3717 397.711 27.0284ZM399.758 23.1149C399.642 23.5482 399.423 23.9079 399.101 24.194C398.779 24.4801 398.393 24.6702 397.943 24.7642C397.493 24.8583 397.016 24.8379 396.513 24.7032C396.003 24.5663 395.574 24.3441 395.227 24.0364C394.884 23.7299 394.647 23.3728 394.515 22.9651C394.383 22.5574 394.375 22.1369 394.491 21.7037C394.631 21.1845 394.861 20.7732 395.184 20.4696C395.51 20.1672 395.897 19.973 396.345 19.8871C396.793 19.8013 397.27 19.8262 397.777 19.962C398.288 20.0989 398.716 20.3166 399.061 20.6149C399.406 20.9133 399.642 21.2745 399.77 21.6985C399.901 22.1236 399.897 22.5958 399.758 23.1149ZM398.619 22.8294C398.699 22.531 398.706 22.2503 398.641 21.9875C398.576 21.7246 398.448 21.4977 398.258 21.3066C398.07 21.1115 397.826 20.974 397.528 20.894C397.229 20.8141 396.951 20.8073 396.692 20.8738C396.438 20.9373 396.217 21.0665 396.029 21.2614C395.845 21.4575 395.711 21.7129 395.627 22.0276C395.545 22.3342 395.534 22.6184 395.596 22.8801C395.661 23.143 395.789 23.3679 395.98 23.5548C396.171 23.7418 396.416 23.8752 396.714 23.9552C397.012 24.0352 397.289 24.0413 397.544 23.9738C397.802 23.9073 398.026 23.7766 398.214 23.5816C398.402 23.3867 398.537 23.1359 398.619 22.8294Z" fill="#50667C"/>
<path fill-rule="evenodd" clip-rule="evenodd" d="M420.888 30.6777L427.649 32.4895L423.362 34.9643L420.888 30.6777Z" fill="#6B8299"/>
<path d="M538.521 -4.57795L314.426 -64.624C313.359 -64.9098 312.262 -64.2767 311.976 -63.2097L303.953 -33.266C303.667 -32.1991 304.3 -31.1024 305.367 -30.8166L529.462 29.2295C530.529 29.5153 531.626 28.8822 531.911 27.8152L539.935 -2.12846C540.221 -3.19539 539.588 -4.29206 538.521 -4.57795Z" fill="white" stroke="#D0D5DC"/>
<path d="M468.728 47.8054C468.998 47.8776 469.262 47.8893 469.521 47.8402C469.779 47.7912 470.008 47.6904 470.206 47.5377C470.406 47.3809 470.549 47.1806 470.637 46.9367L471.716 47.2259C471.59 47.6128 471.359 47.943 471.023 48.2166C470.692 48.4871 470.303 48.6741 469.854 48.7774C469.407 48.8766 468.949 48.8633 468.479 48.7373C467.98 48.6037 467.568 48.3992 467.243 48.1237C466.922 47.8494 466.68 47.5261 466.517 47.1538C466.358 46.7826 466.271 46.3823 466.254 45.953C466.243 45.5206 466.297 45.0817 466.416 44.6362L466.485 44.3786C466.605 43.9331 466.777 43.528 467.002 43.1632C467.232 42.7955 467.508 42.4907 467.832 42.2487C468.159 42.0079 468.53 41.8488 468.945 41.7716C469.364 41.6955 469.823 41.7243 470.322 41.8579C470.841 41.997 471.266 42.2249 471.598 42.5415C471.93 42.854 472.158 43.2217 472.281 43.6447C472.41 44.0646 472.423 44.5062 472.32 44.9695L471.241 44.6804C471.294 44.401 471.283 44.1329 471.207 43.876C471.135 43.6203 471.003 43.3963 470.809 43.2042C470.62 43.009 470.375 42.871 470.072 42.7899C469.725 42.6968 469.414 42.688 469.139 42.7634C468.87 42.8359 468.635 42.97 468.434 43.1658C468.237 43.3585 468.071 43.5877 467.934 43.8533C467.802 44.1159 467.698 44.3924 467.62 44.6826L467.551 44.9401C467.473 45.2303 467.425 45.5241 467.407 45.8215C467.388 46.1189 467.416 46.4001 467.489 46.6651C467.567 46.9313 467.704 47.165 467.9 47.3664C468.1 47.5649 468.377 47.7112 468.728 47.8054ZM472.998 46.3405L473.036 46.1995C473.164 45.7212 473.352 45.2964 473.601 44.9248C473.85 44.5492 474.146 44.2452 474.489 44.0129C474.833 43.7764 475.213 43.6242 475.63 43.5563C476.048 43.4843 476.488 43.5101 476.95 43.6339C477.416 43.7588 477.812 43.9569 478.138 44.2282C478.469 44.4966 478.724 44.8191 478.904 45.1957C479.088 45.5694 479.195 45.9813 479.223 46.4314C479.253 46.8774 479.203 47.3395 479.075 47.8177L479.037 47.9588C478.909 48.437 478.721 48.8619 478.472 49.2334C478.224 49.6049 477.926 49.9084 477.578 50.1438C477.235 50.3761 476.855 50.5283 476.437 50.6003C476.024 50.6694 475.585 50.6414 475.119 50.5166C474.653 50.3917 474.256 50.1957 473.929 49.9284C473.603 49.6571 473.348 49.3345 473.163 48.9609C472.984 48.5842 472.879 48.1729 472.85 47.7269C472.82 47.2809 472.87 46.8188 472.998 46.3405ZM474.17 46.5034L474.132 46.6444C474.044 46.9755 473.999 47.2986 473.997 47.6138C473.997 47.9248 474.045 48.2135 474.14 48.48C474.239 48.7475 474.39 48.9784 474.592 49.1727C474.795 49.363 475.054 49.5003 475.369 49.5846C475.679 49.6679 475.968 49.6773 476.235 49.613C476.507 49.5458 476.751 49.4205 476.966 49.2373C477.182 49.0541 477.368 48.8278 477.523 48.5584C477.684 48.286 477.808 47.9843 477.897 47.6532L477.935 47.5122C478.022 47.1852 478.064 46.8656 478.06 46.5535C478.061 46.2384 478.012 45.947 477.913 45.6795C477.819 45.409 477.671 45.1765 477.469 44.9822C477.271 44.789 477.015 44.6502 476.7 44.5659C476.389 44.4826 476.098 44.4746 475.826 44.5419C475.558 44.6103 475.314 44.7376 475.093 44.9238C474.877 45.107 474.691 45.3353 474.535 45.6088C474.379 45.8782 474.258 46.1764 474.17 46.5034ZM482.143 46.5698L480.719 51.8857L479.578 51.5801L481.356 44.946L482.435 45.2351L482.143 46.5698ZM481.442 48.2548L480.92 48.0951C481.045 47.6425 481.217 47.2394 481.434 46.8858C481.653 46.5282 481.913 46.2364 482.214 46.0105C482.516 45.7846 482.855 45.6389 483.232 45.5734C483.61 45.5038 484.019 45.5282 484.461 45.6464C484.771 45.7297 485.046 45.8513 485.283 46.0113C485.522 46.1673 485.712 46.365 485.854 46.6045C485.995 46.844 486.08 47.1252 486.107 47.4479C486.135 47.7707 486.093 48.1406 485.981 48.5575L484.796 52.9782L483.662 52.6743L484.832 48.3088C484.925 47.9613 484.94 47.6675 484.877 47.4272C484.819 47.1881 484.696 46.9931 484.508 46.8421C484.322 46.687 484.086 46.5712 483.8 46.4945C483.465 46.4047 483.169 46.3889 482.912 46.4472C482.656 46.5055 482.432 46.6209 482.241 46.7932C482.05 46.9655 481.888 47.1783 481.755 47.4317C481.626 47.682 481.522 47.9564 481.442 48.2548ZM485.908 48.7811L485.085 48.8104C485.187 48.4477 485.34 48.1141 485.544 47.8095C485.752 47.5061 486.002 47.2532 486.293 47.0507C486.587 46.8494 486.919 46.7169 487.286 46.6532C487.655 46.5855 488.05 46.6081 488.471 46.7209C488.826 46.8162 489.128 46.9475 489.377 47.1149C489.63 47.2834 489.824 47.491 489.959 47.7375C490.1 47.9811 490.179 48.2673 490.196 48.5961C490.213 48.9249 490.166 49.2977 490.054 49.7146L488.886 54.074L487.745 53.7685L488.917 49.3968C489.017 49.0248 489.034 48.7208 488.971 48.4846C488.912 48.2455 488.787 48.0566 488.597 47.9179C488.411 47.7762 488.174 47.6664 487.883 47.5887C487.634 47.5219 487.402 47.5056 487.187 47.54C486.971 47.5744 486.778 47.6496 486.607 47.7658C486.437 47.8779 486.291 48.0207 486.17 48.1942C486.053 48.3688 485.966 48.5644 485.908 48.7811ZM493.173 49.4792L491.054 57.3886L489.913 57.0831L492.374 47.8983L493.416 48.1776L493.173 49.4792ZM497.11 52.6634L497.076 52.7922C496.947 53.2745 496.769 53.7067 496.544 54.0889C496.32 54.467 496.058 54.7777 495.756 55.0211C495.458 55.2655 495.127 55.4288 494.764 55.511C494.4 55.5931 494.012 55.5789 493.599 55.4683C493.178 55.3555 492.824 55.1863 492.539 54.9608C492.253 54.7353 492.033 54.4596 491.88 54.1336C491.726 53.8077 491.632 53.4407 491.596 53.0326C491.565 52.6256 491.588 52.1825 491.663 51.7034L491.847 51.0166C492.028 50.5393 492.238 50.1245 492.477 49.7723C492.716 49.4201 492.982 49.1367 493.276 48.922C493.575 48.7043 493.904 48.5666 494.261 48.509C494.619 48.4472 495.007 48.4722 495.424 48.5839C495.841 48.6957 496.189 48.8765 496.468 49.1266C496.748 49.3725 496.958 49.6742 497.099 50.0318C497.24 50.3893 497.31 50.7913 497.308 51.2378C497.312 51.6814 497.246 52.1565 497.11 52.6634ZM495.935 52.4866L495.97 52.3578C496.059 52.0267 496.107 51.7068 496.115 51.3979C496.125 51.085 496.085 50.7985 495.997 50.5383C495.915 50.2751 495.778 50.0501 495.587 49.8631C495.397 49.6721 495.147 49.535 494.836 49.4517C494.55 49.3751 494.288 49.3573 494.049 49.3984C493.814 49.4407 493.601 49.5259 493.409 49.654C493.218 49.7781 493.047 49.9338 492.896 50.1212C492.75 50.3056 492.624 50.5041 492.519 50.7169L492.094 52.3049C492.099 52.613 492.141 52.9134 492.22 53.2063C492.301 53.495 492.443 53.75 492.646 53.971C492.851 54.188 493.139 54.3463 493.511 54.4459C493.818 54.5281 494.098 54.5354 494.353 54.4678C494.613 54.3972 494.845 54.2687 495.048 54.0822C495.255 53.8968 495.433 53.6683 495.58 53.3968C495.728 53.1211 495.847 52.8177 495.935 52.4866ZM501.869 56.3372L502.785 52.9221C502.855 52.6605 502.862 52.4194 502.808 52.1988C502.758 51.9752 502.643 51.7823 502.463 51.6202C502.283 51.4581 502.04 51.3359 501.733 51.2538C501.447 51.1771 501.183 51.1588 500.94 51.1988C500.701 51.24 500.499 51.3238 500.333 51.4504C500.172 51.5781 500.067 51.7339 500.018 51.9178L498.883 51.6139C498.947 51.3768 499.071 51.1582 499.256 50.958C499.441 50.7579 499.673 50.5945 499.953 50.4678C500.237 50.3381 500.556 50.2614 500.908 50.2375C501.266 50.2107 501.645 50.2509 502.046 50.3583C502.528 50.4875 502.931 50.6832 503.255 50.9452C503.583 51.2084 503.807 51.5335 503.927 51.9204C504.052 52.3044 504.048 52.7437 503.916 53.2383L503.088 56.3285C503.028 56.5492 502.984 56.7892 502.954 57.0484C502.928 57.3087 502.93 57.5391 502.959 57.7398L502.933 57.8379L501.75 57.5208C501.727 57.3747 501.729 57.1889 501.754 56.9635C501.781 56.734 501.819 56.5253 501.869 56.3372ZM502.84 53.5019L502.638 54.3023L501.492 53.9951C501.169 53.9086 500.873 53.8579 500.606 53.8431C500.339 53.8243 500.106 53.843 499.907 53.8991C499.708 53.9553 499.543 54.049 499.411 54.1803C499.281 54.3074 499.188 54.4732 499.134 54.6776C499.078 54.886 499.074 55.0887 499.122 55.2856C499.17 55.4824 499.274 55.6571 499.435 55.8097C499.601 55.9593 499.823 56.0713 500.1 56.1458C500.448 56.2389 500.774 56.2475 501.079 56.1715C501.384 56.0955 501.643 55.9721 501.855 55.8012C502.072 55.6313 502.213 55.4479 502.279 55.2509L502.617 55.9264C502.542 56.0904 502.414 56.2597 502.231 56.4342C502.049 56.6087 501.825 56.7635 501.561 56.8987C501.302 57.0309 501.011 57.1214 500.687 57.1704C500.368 57.2163 500.028 57.1911 499.669 57.0947C499.219 56.9742 498.848 56.7807 498.556 56.514C498.268 56.2484 498.069 55.9433 497.96 55.5986C497.856 55.2509 497.853 54.8931 497.952 54.5253C498.047 54.1696 498.201 53.8756 498.412 53.643C498.624 53.4064 498.885 53.2332 499.195 53.1234C499.506 53.0096 499.858 52.955 500.251 52.9595C500.644 52.9641 501.068 53.0271 501.521 53.1487L502.84 53.5019ZM507.117 52.9657L505.618 58.5575L504.484 58.2536L506.262 51.6194L507.365 51.9151L507.117 52.9657ZM509.478 52.4419L509.19 53.4948C509.101 53.4492 509.014 53.4128 508.93 53.3857C508.85 53.3557 508.757 53.3264 508.651 53.2979C508.389 53.2278 508.147 53.2068 507.925 53.2349C507.703 53.263 507.503 53.332 507.324 53.4419C507.146 53.5518 506.988 53.698 506.852 53.8805C506.721 54.0599 506.61 54.267 506.521 54.5016L506.153 54.6001C506.26 54.1995 506.4 53.8339 506.572 53.5031C506.748 53.1735 506.956 52.8963 507.196 52.6714C507.437 52.4424 507.706 52.2868 508.004 52.2046C508.307 52.1194 508.639 52.1249 508.998 52.2213C509.08 52.2432 509.172 52.2786 509.272 52.3275C509.374 52.3724 509.443 52.4105 509.478 52.4419ZM512.71 59.2419L513.625 55.8267C513.695 55.5651 513.703 55.324 513.648 55.1034C513.598 54.8798 513.483 54.687 513.303 54.5248C513.123 54.3627 512.88 54.2406 512.574 54.1584C512.287 54.0817 512.023 54.0634 511.78 54.1035C511.541 54.1446 511.339 54.2285 511.174 54.355C511.012 54.4827 510.907 54.6385 510.858 54.8224L509.724 54.5185C509.787 54.2814 509.911 54.0628 510.096 53.8627C510.281 53.6625 510.514 53.4991 510.793 53.3724C511.077 53.2427 511.396 53.166 511.748 53.1421C512.106 53.1153 512.485 53.1556 512.886 53.2629C513.368 53.3921 513.771 53.5878 514.095 53.8499C514.424 54.1131 514.647 54.4381 514.767 54.8251C514.892 55.209 514.888 55.6483 514.756 56.1429L513.928 59.2331C513.869 59.4538 513.824 59.6938 513.794 59.953C513.768 60.2133 513.77 60.4438 513.799 60.6444L513.773 60.7425L512.59 60.4255C512.568 60.2793 512.569 60.0936 512.595 59.8682C512.621 59.6387 512.659 59.4299 512.71 59.2419ZM513.68 56.4066L513.478 57.2069L512.332 56.8997C512.009 56.8132 511.714 56.7625 511.446 56.7478C511.179 56.7289 510.947 56.7476 510.748 56.8038C510.548 56.86 510.383 56.9537 510.252 57.0849C510.121 57.2121 510.029 57.3778 509.974 57.5822C509.918 57.7907 509.914 57.9933 509.962 58.1902C510.01 58.3871 510.114 58.5618 510.275 58.7144C510.441 58.8639 510.663 58.976 510.941 59.0504C511.288 59.1435 511.614 59.1521 511.92 59.0761C512.225 59.0002 512.483 58.8767 512.696 58.7058C512.912 58.536 513.053 58.3525 513.119 58.1555L513.457 58.831C513.383 58.995 513.254 59.1643 513.072 59.3388C512.889 59.5133 512.666 59.6682 512.402 59.8033C512.143 59.9355 511.851 60.0261 511.527 60.075C511.208 60.121 510.869 60.0957 510.509 59.9994C510.059 59.8789 509.688 59.6853 509.396 59.4186C509.108 59.1531 508.91 58.8479 508.8 58.5032C508.696 58.1556 508.694 57.7978 508.792 57.4299C508.888 57.0743 509.041 56.7802 509.252 56.5477C509.465 56.311 509.726 56.1378 510.035 56.0281C510.346 55.9142 510.698 55.8596 511.091 55.8642C511.484 55.8687 511.908 55.9318 512.362 56.0534L513.68 56.4066ZM517.957 55.8703L516.459 61.4621L515.324 61.1582L517.102 54.5241L518.206 54.8198L517.957 55.8703ZM520.319 55.3465L520.03 56.3995C519.941 56.3538 519.855 56.3175 519.77 56.2904C519.69 56.2603 519.597 56.231 519.491 56.2025C519.23 56.1324 518.988 56.1114 518.765 56.1395C518.543 56.1676 518.343 56.2366 518.165 56.3465C517.986 56.4564 517.829 56.6026 517.692 56.7851C517.561 56.9646 517.451 57.1716 517.361 57.4062L516.993 57.5047C517.101 57.1041 517.24 56.7385 517.412 56.4078C517.588 56.0781 517.796 55.8009 518.036 55.576C518.277 55.3471 518.546 55.1915 518.844 55.1092C519.148 55.024 519.479 55.0296 519.839 55.1259C519.92 55.1479 520.012 55.1833 520.113 55.2322C520.214 55.277 520.283 55.3151 520.319 55.3465ZM525.566 63.035C525.836 63.1073 526.1 63.1189 526.358 63.0699C526.617 63.0208 526.845 62.92 527.044 62.7673C527.244 62.6105 527.387 62.4102 527.474 62.1663L528.554 62.4555C528.428 62.8424 528.197 63.1727 527.861 63.4462C527.53 63.7168 527.14 63.9037 526.692 64.007C526.245 64.1063 525.786 64.0929 525.316 63.967C524.818 63.8333 524.406 63.6288 524.081 63.3534C523.76 63.079 523.518 62.7557 523.355 62.3834C523.196 62.0122 523.108 61.612 523.092 61.1826C523.081 60.7503 523.135 60.3113 523.254 59.8658L523.323 59.6083C523.443 59.1627 523.615 58.7576 523.839 58.3929C524.069 58.0251 524.346 57.7203 524.669 57.4783C524.997 57.2375 525.368 57.0785 525.783 57.0013C526.202 56.9252 526.661 56.9539 527.16 57.0876C527.679 57.2267 528.104 57.4545 528.435 57.7711C528.768 58.0836 528.996 58.4514 529.119 58.8743C529.247 59.2942 529.26 59.7359 529.158 60.1991L528.079 59.91C528.132 59.6307 528.121 59.3625 528.045 59.1057C527.973 58.8499 527.84 58.6259 527.647 58.4338C527.458 58.2387 527.212 58.1006 526.91 58.0195C526.562 57.9264 526.252 57.9176 525.977 57.9931C525.708 58.0655 525.473 58.1996 525.271 58.3954C525.075 58.5881 524.909 58.8173 524.772 59.0829C524.64 59.3456 524.535 59.622 524.458 59.9122L524.389 60.1697C524.311 60.4599 524.263 60.7537 524.244 61.0511C524.226 61.3485 524.254 61.6297 524.327 61.8947C524.405 62.1609 524.542 62.3947 524.737 62.5961C524.938 62.7945 525.214 62.9408 525.566 63.035ZM529.836 61.5701L529.874 61.4291C530.002 60.9509 530.19 60.526 530.438 60.1545C530.688 59.7789 530.984 59.4749 531.327 59.2425C531.671 59.006 532.051 58.8538 532.468 58.7859C532.886 58.7139 533.326 58.7398 533.788 58.8635C534.254 58.9884 534.65 59.1865 534.976 59.4578C535.307 59.7262 535.562 60.0487 535.741 60.4254C535.926 60.799 536.033 61.2109 536.061 61.661C536.09 62.107 536.041 62.5691 535.913 63.0474L535.875 63.1884C535.747 63.6666 535.559 64.0915 535.31 64.463C535.062 64.8346 534.763 65.138 534.416 65.3734C534.073 65.6058 533.693 65.758 533.275 65.83C532.862 65.899 532.423 65.8711 531.957 65.7462C531.491 65.6213 531.094 65.4253 530.767 65.158C530.441 64.8867 530.186 64.5642 530.001 64.1905C529.822 63.8138 529.717 63.4025 529.688 62.9565C529.658 62.5105 529.708 62.0484 529.836 61.5701ZM531.008 61.7331L530.97 61.8741C530.881 62.2052 530.836 62.5283 530.835 62.8434C530.835 63.1544 530.883 63.4432 530.978 63.7096C531.077 63.9771 531.227 64.2081 531.429 64.4024C531.633 64.5926 531.892 64.7299 532.206 64.8142C532.517 64.8975 532.806 64.907 533.073 64.8427C533.345 64.7754 533.589 64.6502 533.804 64.467C534.02 64.2838 534.205 64.0575 534.361 63.7881C534.521 63.5157 534.646 63.2139 534.735 62.8828L534.772 62.7418C534.86 62.4148 534.902 62.0952 534.898 61.7831C534.899 61.468 534.85 61.1767 534.751 60.9091C534.657 60.6386 534.509 60.4062 534.307 60.2119C534.109 60.0186 533.853 59.8798 533.538 59.7955C533.227 59.7123 532.936 59.7043 532.664 59.7716C532.396 59.8399 532.151 59.9672 531.931 60.1534C531.715 60.3366 531.529 60.5649 531.372 60.8384C531.217 61.1078 531.095 61.4061 531.008 61.7331ZM538.961 61.8992L537.563 67.117L536.429 66.813L538.206 60.1789L539.279 60.4664L538.961 61.8992ZM538.249 63.4762L537.782 63.3313C537.908 62.8787 538.087 62.4778 538.321 62.1286C538.556 61.7753 538.83 61.4874 539.144 61.2648C539.458 61.0422 539.799 60.897 540.168 60.8293C540.541 60.7586 540.929 60.777 541.329 60.8843C541.656 60.9719 541.938 61.0957 542.176 61.2558C542.415 61.4117 542.6 61.6104 542.733 61.8518C542.869 62.0943 542.945 62.3819 542.961 62.7148C542.978 63.0436 542.928 63.4266 542.811 63.864L541.646 68.2111L540.506 67.9056L541.674 63.5462C541.767 63.1987 541.79 62.9071 541.744 62.6712C541.699 62.4313 541.591 62.238 541.42 62.0914C541.25 61.9408 541.022 61.8271 540.736 61.7504C540.454 61.6749 540.18 61.6651 539.915 61.7212C539.655 61.7784 539.413 61.8888 539.189 62.0524C538.97 62.217 538.777 62.4217 538.611 62.6662C538.45 62.9078 538.329 63.1778 538.249 63.4762ZM543.481 68.0588C543.533 67.8667 543.635 67.7211 543.789 67.622C543.948 67.52 544.141 67.4997 544.37 67.561C544.599 67.6223 544.755 67.7363 544.837 67.903C544.925 68.0666 544.943 68.2445 544.891 68.4366C544.841 68.6247 544.737 68.7677 544.579 68.8656C544.426 68.9646 544.234 68.9835 544.006 68.9222C543.777 68.8608 543.618 68.7483 543.531 68.5847C543.447 68.4221 543.431 68.2468 543.481 68.0588ZM544.938 62.6464C544.989 62.4543 545.092 62.3087 545.246 62.2097C545.404 62.1077 545.598 62.0873 545.827 62.1486C546.056 62.21 546.212 62.324 546.294 62.4906C546.382 62.6543 546.4 62.8322 546.348 63.0243C546.298 63.2123 546.194 63.3553 546.036 63.4533C545.883 63.5523 545.691 63.5711 545.462 63.5098C545.233 63.4485 545.075 63.336 544.988 63.1723C544.904 63.0098 544.888 62.8345 544.938 62.6464Z" fill="#50667C"/>
<path d="M460.112 34.9762L452.384 32.9056C450.784 32.4768 449.139 33.4265 448.71 35.0269L446.639 42.7543C446.211 44.3547 447.16 45.9997 448.761 46.4286L456.488 48.4991C458.089 48.9279 459.734 47.9782 460.162 46.3778L462.233 38.6504C462.662 37.05 461.712 35.405 460.112 34.9762Z" fill="black"/>
<path d="M459.499 35.3296L452.738 33.5179C451.137 33.0891 449.492 34.0388 449.063 35.6392L447.252 42.4007C446.823 44.0011 447.773 45.6461 449.373 46.0749L456.135 47.8867C457.735 48.3155 459.38 47.3658 459.809 45.7654L461.621 39.0039C462.049 37.4035 461.1 35.7585 459.499 35.3296Z" fill="url(#paint0_linear_109_5585)" stroke="#CCCCCC"/>
<path d="M325.944 79.7774L324.979 79.5186L286.156 224.407L287.122 224.666L325.944 79.7774Z" fill="#EDEDED"/>
<path d="M409.014 102.036L408.048 101.777L369.225 246.666L370.191 246.925L409.014 102.036Z" fill="#EDEDED"/>
<path d="M492.084 124.294L491.118 124.035L452.295 268.924L453.261 269.183L492.084 124.294Z" fill="#EDEDED"/>
<path fill-rule="evenodd" clip-rule="evenodd" d="M618.693 312.475L618.434 313.441L287.122 224.666L287.38 223.7L618.693 312.475Z" fill="#EDEDED"/>
<path d="M274.156 233.47L277.015 234.237C277.543 234.378 277.976 234.591 278.314 234.875C278.652 235.158 278.902 235.491 279.062 235.872C279.224 236.247 279.306 236.659 279.31 237.108C279.32 237.56 279.262 238.024 279.134 238.5C279.006 238.977 278.825 239.408 278.591 239.794C278.363 240.181 278.084 240.5 277.755 240.75C277.427 240.993 277.046 241.154 276.611 241.23C276.177 241.307 275.695 241.275 275.167 241.133L272.308 240.367L274.156 233.47ZM273.78 239.705L274.968 240.024C275.438 240.15 275.837 240.191 276.166 240.148C276.503 240.101 276.785 239.99 277.011 239.816C277.245 239.637 277.431 239.407 277.568 239.126C277.714 238.841 277.833 238.524 277.926 238.177C278.02 237.829 278.074 237.498 278.089 237.185C278.112 236.867 278.066 236.575 277.951 236.309C277.844 236.039 277.655 235.802 277.385 235.599C277.124 235.391 276.758 235.224 276.288 235.098L275.099 234.779L273.78 239.705ZM281.127 235.338L282.334 235.662L280.486 242.559L279.279 242.235L281.127 235.338ZM282.555 233.526L283.859 233.875L282.117 234.889L281.315 234.674L282.555 233.526ZM285.66 236.553L286.945 236.897L287.753 244.506L286.459 244.159L286.301 242.16L283.548 241.422L282.412 243.074L281.166 242.741L285.66 236.553ZM284.122 240.593L286.228 241.157L285.989 237.915L285.96 237.907L284.122 240.593ZM292.388 239.701C292.62 239.764 292.85 239.805 293.079 239.825C293.309 239.845 293.522 239.833 293.72 239.789C293.925 239.748 294.107 239.672 294.268 239.563C294.434 239.456 294.565 239.305 294.658 239.109L295.557 239.35L293.745 246.111L292.538 245.788L293.816 241.016L292.155 240.571L292.388 239.701Z" fill="#939393"/>
<path d="M291.39 73.6243L286.772 72.3872C286.929 71.8286 287.195 71.3755 287.572 71.0276C287.948 70.6798 288.406 70.4126 288.946 70.226C289.208 70.1237 289.478 70.0304 289.756 69.9461C290.036 69.8554 290.298 69.7499 290.545 69.6295C290.791 69.5091 291.005 69.3664 291.187 69.2013C291.371 69.0297 291.502 68.8128 291.579 68.5505C291.612 68.4282 291.63 68.2951 291.634 68.1512C291.647 68.0026 291.626 67.8592 291.574 67.7208C291.523 67.576 291.434 67.4452 291.306 67.3282C291.181 67.2048 290.999 67.1112 290.76 67.0474C290.541 66.9887 290.346 66.9846 290.174 67.0351C290.009 67.0808 289.862 67.1689 289.73 67.2993C289.607 67.425 289.495 67.5848 289.395 67.7788C289.301 67.9745 289.219 68.1906 289.148 68.4271L288.047 68.1321C288.147 67.7586 288.288 67.427 288.469 67.1374C288.658 66.843 288.884 66.6067 289.146 66.4283C289.407 66.25 289.697 66.1344 290.015 66.0815C290.341 66.0239 290.694 66.046 291.074 66.1478C291.486 66.2583 291.812 66.4182 292.053 66.6276C292.294 66.837 292.47 67.0672 292.582 67.3181C292.701 67.5708 292.763 67.829 292.768 68.0926C292.775 68.3499 292.749 68.588 292.691 68.8069C292.618 69.0774 292.511 69.3109 292.368 69.5074C292.226 69.7039 292.059 69.8765 291.867 70.0253C291.677 70.1677 291.471 70.292 291.25 70.3982C291.028 70.5044 290.802 70.5993 290.573 70.6828C290.344 70.7662 290.116 70.8432 289.89 70.9138C289.664 70.9844 289.451 71.0585 289.251 71.1359C289.057 71.2152 288.881 71.306 288.722 71.4084C288.565 71.5044 288.444 71.6205 288.36 71.7565L291.654 72.6391L291.39 73.6243ZM296.296 67.5472C296.779 67.6766 297.142 67.8945 297.384 68.201C297.635 68.5028 297.797 68.85 297.871 69.2426C297.954 69.6304 297.969 70.0382 297.916 70.4659C297.87 70.8952 297.795 71.3031 297.692 71.6895C297.588 72.0759 297.449 72.4665 297.274 72.8614C297.106 73.258 296.888 73.6068 296.621 73.908C296.362 74.2044 296.048 74.4239 295.678 74.5665C295.317 74.7043 294.895 74.7085 294.412 74.5791C293.929 74.4497 293.562 74.2341 293.312 73.9324C293.07 73.6259 292.907 73.2787 292.825 72.8908C292.751 72.4982 292.737 72.0872 292.783 71.6579C292.835 71.2302 292.913 70.8232 293.017 70.4368C293.12 70.0504 293.256 69.659 293.424 69.2624C293.599 68.8675 293.816 68.5218 294.075 68.2254C294.342 67.9243 294.656 67.7048 295.018 67.5669C295.387 67.4243 295.813 67.4178 296.296 67.5472ZM294.658 73.6615C294.896 73.7253 295.114 73.7112 295.311 73.6191C295.51 73.5206 295.686 73.3675 295.838 73.1598C295.998 72.9474 296.14 72.6887 296.263 72.3835C296.387 72.0783 296.496 71.7486 296.591 71.3944C296.685 71.0403 296.755 70.7035 296.799 70.384C296.845 70.0581 296.852 69.7631 296.819 69.499C296.793 69.2365 296.717 69.0161 296.592 68.8378C296.469 68.653 296.289 68.5287 296.05 68.4648C295.806 68.3992 295.584 68.4157 295.385 68.5143C295.194 68.6081 295.019 68.7612 294.858 68.9736C294.704 69.1877 294.565 69.4473 294.442 69.7525C294.321 70.0512 294.213 70.3777 294.118 70.7319C294.023 71.086 293.952 71.4261 293.907 71.752C293.861 72.0778 293.851 72.372 293.877 72.6344C293.912 72.8921 293.987 73.1125 294.104 73.2956C294.229 73.474 294.413 73.5959 294.658 73.6615ZM301.664 68.9853C302.147 69.1148 302.509 69.3327 302.751 69.6392C303.002 69.9409 303.164 70.2881 303.238 70.6807C303.321 71.0686 303.336 71.4764 303.283 71.904C303.237 72.3334 303.163 72.7413 303.059 73.1277C302.955 73.514 302.816 73.9047 302.641 74.2995C302.473 74.6961 302.255 75.045 301.988 75.3461C301.729 75.6426 301.415 75.8621 301.046 76.0046C300.684 76.1425 300.262 76.1467 299.779 76.0173C299.296 75.8879 298.93 75.6723 298.679 75.3705C298.437 75.064 298.275 74.7169 298.192 74.329C298.118 73.9364 298.104 73.5254 298.15 73.096C298.202 72.6684 298.28 72.2613 298.384 71.875C298.487 71.4886 298.623 71.0971 298.792 70.7005C298.967 70.3056 299.183 69.96 299.442 69.6636C299.709 69.3624 300.024 69.1429 300.385 69.0051C300.754 68.8625 301.181 68.8559 301.664 68.9853ZM300.025 75.0997C300.263 75.1635 300.481 75.1494 300.678 75.0573C300.877 74.9587 301.053 74.8056 301.205 74.598C301.366 74.3856 301.508 74.1268 301.631 73.8216C301.754 73.5165 301.863 73.1868 301.958 72.8326C302.053 72.4784 302.122 72.1416 302.166 71.8222C302.212 71.4963 302.219 71.2013 302.186 70.9371C302.16 70.6747 302.084 70.4543 301.96 70.2759C301.837 70.0911 301.656 69.9668 301.418 69.903C301.173 69.8374 300.951 69.8539 300.752 69.9524C300.561 70.0462 300.386 70.1993 300.225 70.4117C300.071 70.6258 299.933 70.8855 299.81 71.1907C299.688 71.4894 299.58 71.8159 299.485 72.17C299.39 72.5242 299.32 72.8642 299.274 73.1901C299.228 73.516 299.218 73.8102 299.244 74.0726C299.279 74.3303 299.354 74.5507 299.471 74.7338C299.596 74.9121 299.781 75.0341 300.025 75.0997ZM303.514 75.4753L304.856 75.835L304.507 77.139C304.393 77.5366 304.181 77.8386 303.871 78.0453C303.56 78.2519 303.201 78.3421 302.794 78.3158L302.952 77.7266C303.178 77.732 303.368 77.6552 303.521 77.496C303.679 77.345 303.782 77.1657 303.831 76.9579L303.164 76.7793L303.514 75.4753ZM309.719 71.1439C310.202 71.2733 310.565 71.4912 310.807 71.7977C311.058 72.0995 311.22 72.4466 311.294 72.8392C311.377 73.2271 311.391 73.6349 311.339 74.0625C311.293 74.4919 311.218 74.8998 311.115 75.2862C311.011 75.6725 310.872 76.0632 310.697 76.458C310.529 76.8546 310.311 77.2035 310.044 77.5047C309.785 77.8011 309.471 78.0206 309.101 78.1631C308.74 78.301 308.318 78.3052 307.835 78.1758C307.352 78.0464 306.985 77.8308 306.735 77.529C306.493 77.2226 306.33 76.8754 306.248 76.4875C306.174 76.0949 306.16 75.6839 306.206 75.2545C306.258 74.8269 306.336 74.4199 306.44 74.0335C306.543 73.6471 306.679 73.2556 306.847 72.859C307.022 72.4642 307.239 72.1185 307.498 71.8221C307.765 71.5209 308.079 71.3014 308.441 71.1636C308.81 71.021 309.236 71.0144 309.719 71.1439ZM308.081 77.2582C308.319 77.322 308.537 77.3079 308.734 77.2158C308.933 77.1173 309.109 76.9642 309.261 76.7565C309.421 76.5441 309.563 76.2853 309.686 75.9801C309.81 75.675 309.919 75.3453 310.014 74.9911C310.108 74.6369 310.178 74.3001 310.222 73.9807C310.268 73.6548 310.275 73.3598 310.242 73.0956C310.216 72.8332 310.14 72.6128 310.015 72.4345C309.892 72.2497 309.712 72.1253 309.473 72.0615C309.229 71.9959 309.007 72.0124 308.808 72.1109C308.617 72.2048 308.441 72.3579 308.281 72.5702C308.127 72.7843 307.988 73.044 307.865 73.3492C307.744 73.6479 307.636 73.9744 307.541 74.3285C307.446 74.6827 307.375 75.0227 307.33 75.3486C307.284 75.6745 307.274 75.9687 307.3 76.2311C307.335 76.4888 307.41 76.7092 307.527 76.8923C307.651 77.0706 307.836 77.1926 308.081 77.2582ZM315.087 72.582C315.569 72.7114 315.932 72.9294 316.174 73.2359C316.425 73.5376 316.587 73.8848 316.661 74.2774C316.744 74.6653 316.759 75.073 316.706 75.5007C316.66 75.9301 316.585 76.338 316.482 76.7243C316.378 77.1107 316.239 77.5013 316.064 77.8962C315.896 78.2928 315.678 78.6417 315.411 78.9428C315.152 79.2392 314.838 79.4587 314.469 79.6013C314.107 79.7392 313.685 79.7434 313.202 79.614C312.719 79.4846 312.353 79.269 312.102 78.9672C311.86 78.6607 311.698 78.3135 311.615 77.9257C311.541 77.5331 311.527 77.1221 311.573 76.6927C311.625 76.265 311.703 75.858 311.807 75.4716C311.91 75.0853 312.046 74.6938 312.215 74.2972C312.39 73.9023 312.606 73.5567 312.865 73.2602C313.132 72.9591 313.447 72.7396 313.808 72.6017C314.177 72.4592 314.604 72.4526 315.087 72.582ZM313.448 78.6963C313.686 78.7602 313.904 78.746 314.101 78.654C314.3 78.5554 314.476 78.4023 314.628 78.1947C314.789 77.9823 314.931 77.7235 315.054 77.4183C315.177 77.1131 315.286 76.7835 315.381 76.4293C315.476 76.0751 315.545 75.7383 315.589 75.4188C315.635 75.093 315.642 74.7979 315.609 74.5338C315.583 74.2714 315.507 74.051 315.383 73.8726C315.26 73.6878 315.079 73.5635 314.841 73.4997C314.596 73.4341 314.374 73.4506 314.175 73.5491C313.984 73.6429 313.809 73.796 313.648 74.0084C313.494 74.2225 313.356 74.4821 313.233 74.7873C313.111 75.0861 313.003 75.4125 312.908 75.7667C312.813 76.1209 312.743 76.4609 312.697 76.7868C312.651 77.1127 312.641 77.4068 312.667 77.6693C312.702 77.927 312.777 78.1474 312.894 78.3304C313.019 78.5088 313.204 78.6308 313.448 78.6963ZM320.454 74.0202C320.937 74.1496 321.299 74.3675 321.542 74.674C321.792 74.9758 321.954 75.323 322.029 75.7156C322.111 76.1034 322.126 76.5112 322.074 76.9389C322.028 77.3683 321.953 77.7761 321.849 78.1625C321.746 78.5489 321.607 78.9395 321.432 79.3344C321.263 79.731 321.046 80.0798 320.779 80.381C320.52 80.6774 320.206 80.8969 319.836 81.0395C319.475 81.1773 319.053 81.1815 318.57 81.0521C318.087 80.9227 317.72 80.7071 317.47 80.4054C317.227 80.0989 317.065 79.7517 316.983 79.3638C316.908 78.9712 316.894 78.5602 316.94 78.1309C316.993 77.7032 317.071 77.2962 317.174 76.9098C317.278 76.5234 317.414 76.132 317.582 75.7354C317.757 75.3405 317.974 74.9948 318.233 74.6984C318.5 74.3973 318.814 74.1778 319.175 74.0399C319.545 73.8974 319.971 73.8908 320.454 74.0202ZM318.816 80.1345C319.054 80.1983 319.272 80.1842 319.469 80.0921C319.668 79.9936 319.843 79.8405 319.996 79.6328C320.156 79.4204 320.298 79.1617 320.421 78.8565C320.544 78.5513 320.653 78.2216 320.748 77.8674C320.843 77.5133 320.913 77.1765 320.957 76.857C321.003 76.5311 321.009 76.2361 320.976 75.972C320.95 75.7095 320.875 75.4892 320.75 75.3108C320.627 75.126 320.446 75.0017 320.208 74.9378C319.963 74.8722 319.741 74.8887 319.542 74.9873C319.352 75.0811 319.176 75.2342 319.016 75.4466C318.862 75.6607 318.723 75.9203 318.6 76.2255C318.478 76.5242 318.37 76.8507 318.275 77.2049C318.18 77.559 318.11 77.8991 318.064 78.225C318.018 78.5508 318.008 78.845 318.035 79.1074C318.069 79.3651 318.145 79.5855 318.261 79.7686C318.386 79.947 318.571 80.0689 318.816 80.1345ZM323.802 74.9174L321.954 81.8141L323.374 82.1946L324.671 77.3553L324.69 77.3605L325.084 82.6527L326.253 82.9659L329.253 78.5312L329.272 78.5364L327.962 83.424L329.382 83.8044L331.23 76.9077L329.096 76.3357L326.299 80.6695L326.279 80.6643L325.937 75.4894L323.802 74.9174ZM333.376 81.0026L330.003 83.9707L331.703 84.4262L333.878 82.4519L334.745 85.2415L336.552 85.7255L335.112 81.4781L338.206 78.777L336.545 78.3318L334.554 80.1589L333.792 77.5942L332.034 77.1231L333.376 81.0026ZM339.008 78.9918L337.16 85.8885L338.58 86.269L339.817 81.6518L339.837 81.657L341.468 87.0428L342.985 87.4492L344.833 80.5525L343.413 80.172L342.173 84.7988L342.154 84.7936L340.515 79.3956L339.008 78.9918Z" fill="#939393"/>
<path d="M274.961 117.01C275.192 117.073 275.423 117.114 275.652 117.134C275.882 117.154 276.095 117.142 276.293 117.098C276.498 117.056 276.68 116.981 276.84 116.872C277.007 116.765 277.137 116.614 277.231 116.418L278.13 116.659L276.318 123.42L275.11 123.097L276.389 118.325L274.728 117.88L274.961 117.01ZM282.838 117.775C283.321 117.905 283.683 118.123 283.926 118.429C284.176 118.731 284.338 119.078 284.413 119.471C284.495 119.858 284.51 120.266 284.457 120.694C284.411 121.123 284.337 121.531 284.233 121.918C284.13 122.304 283.99 122.695 283.816 123.089C283.647 123.486 283.429 123.835 283.162 124.136C282.904 124.432 282.589 124.652 282.22 124.794C281.859 124.932 281.436 124.937 280.953 124.807C280.471 124.678 280.104 124.462 279.853 124.16C279.611 123.854 279.449 123.507 279.366 123.119C279.292 122.726 279.278 122.315 279.324 121.886C279.376 121.458 279.454 121.051 279.558 120.665C279.662 120.278 279.798 119.887 279.966 119.49C280.141 119.096 280.358 118.75 280.616 118.453C280.883 118.152 281.198 117.933 281.559 117.795C281.928 117.652 282.355 117.646 282.838 117.775ZM281.199 123.89C281.438 123.953 281.655 123.939 281.853 123.847C282.052 123.749 282.227 123.596 282.379 123.388C282.54 123.175 282.682 122.917 282.805 122.612C282.928 122.306 283.037 121.977 283.132 121.622C283.227 121.268 283.296 120.931 283.341 120.612C283.386 120.286 283.393 119.991 283.36 119.727C283.334 119.465 283.258 119.244 283.134 119.066C283.011 118.881 282.83 118.757 282.592 118.693C282.347 118.627 282.125 118.644 281.926 118.742C281.736 118.836 281.56 118.989 281.399 119.202C281.245 119.416 281.107 119.675 280.984 119.981C280.862 120.279 280.754 120.606 280.659 120.96C280.564 121.314 280.494 121.654 280.448 121.98C280.402 122.306 280.392 122.6 280.419 122.862C280.453 123.12 280.529 123.341 280.645 123.524C280.77 123.702 280.955 123.824 281.199 123.89ZM288.205 119.213C288.688 119.343 289.051 119.561 289.293 119.867C289.543 120.169 289.706 120.516 289.78 120.909C289.862 121.297 289.877 121.704 289.825 122.132C289.779 122.561 289.704 122.969 289.6 123.356C289.497 123.742 289.358 124.133 289.183 124.528C289.014 124.924 288.797 125.273 288.53 125.574C288.271 125.871 287.957 126.09 287.587 126.233C287.226 126.371 286.804 126.375 286.321 126.245C285.838 126.116 285.471 125.9 285.221 125.599C284.978 125.292 284.816 124.945 284.734 124.557C284.659 124.164 284.645 123.753 284.691 123.324C284.744 122.896 284.822 122.489 284.925 122.103C285.029 121.717 285.165 121.325 285.333 120.929C285.508 120.534 285.725 120.188 285.984 119.892C286.251 119.59 286.565 119.371 286.926 119.233C287.296 119.091 287.722 119.084 288.205 119.213ZM286.567 125.328C286.805 125.392 287.023 125.377 287.22 125.285C287.419 125.187 287.594 125.034 287.747 124.826C287.907 124.614 288.049 124.355 288.172 124.05C288.295 123.744 288.404 123.415 288.499 123.061C288.594 122.706 288.664 122.37 288.708 122.05C288.754 121.724 288.76 121.429 288.728 121.165C288.701 120.903 288.626 120.682 288.501 120.504C288.378 120.319 288.197 120.195 287.959 120.131C287.714 120.065 287.493 120.082 287.294 120.18C287.103 120.274 286.927 120.427 286.767 120.64C286.613 120.854 286.474 121.113 286.351 121.419C286.23 121.717 286.121 122.044 286.026 122.398C285.932 122.752 285.861 123.092 285.815 123.418C285.769 123.744 285.76 124.038 285.786 124.301C285.82 124.558 285.896 124.779 286.012 124.962C286.137 125.14 286.322 125.262 286.567 125.328ZM290.055 125.703L291.398 126.063L291.048 127.367C290.935 127.765 290.723 128.067 290.412 128.273C290.101 128.48 289.742 128.57 289.335 128.544L289.493 127.955C289.719 127.96 289.909 127.883 290.062 127.724C290.22 127.573 290.323 127.394 290.372 127.186L289.706 127.007L290.055 125.703ZM296.261 121.372C296.744 121.501 297.106 121.719 297.348 122.026C297.599 122.327 297.761 122.675 297.836 123.067C297.918 123.455 297.933 123.863 297.88 124.291C297.834 124.72 297.76 125.128 297.656 125.514C297.553 125.901 297.413 126.291 297.239 126.686C297.07 127.083 296.852 127.432 296.585 127.733C296.327 128.029 296.012 128.249 295.643 128.391C295.282 128.529 294.859 128.533 294.376 128.404C293.893 128.274 293.527 128.059 293.276 127.757C293.034 127.451 292.872 127.103 292.789 126.716C292.715 126.323 292.701 125.912 292.747 125.483C292.799 125.055 292.877 124.648 292.981 124.262C293.085 123.875 293.22 123.484 293.389 123.087C293.564 122.692 293.781 122.347 294.039 122.05C294.306 121.749 294.621 121.529 294.982 121.392C295.351 121.249 295.778 121.242 296.261 121.372ZM294.622 127.486C294.861 127.55 295.078 127.536 295.276 127.444C295.474 127.345 295.65 127.192 295.802 126.985C295.963 126.772 296.105 126.513 296.228 126.208C296.351 125.903 296.46 125.573 296.555 125.219C296.65 124.865 296.719 124.528 296.764 124.209C296.809 123.883 296.816 123.588 296.783 123.324C296.757 123.061 296.681 122.841 296.557 122.662C296.434 122.478 296.253 122.353 296.015 122.29C295.77 122.224 295.548 122.24 295.349 122.339C295.159 122.433 294.983 122.586 294.822 122.798C294.668 123.012 294.53 123.272 294.407 123.577C294.285 123.876 294.177 124.202 294.082 124.557C293.987 124.911 293.917 125.251 293.871 125.577C293.825 125.903 293.815 126.197 293.842 126.459C293.876 126.717 293.952 126.937 294.068 127.12C294.193 127.299 294.378 127.421 294.622 127.486ZM301.628 122.81C302.111 122.939 302.474 123.157 302.716 123.464C302.966 123.766 303.129 124.113 303.203 124.505C303.285 124.893 303.3 125.301 303.248 125.729C303.202 126.158 303.127 126.566 303.023 126.952C302.92 127.339 302.781 127.729 302.606 128.124C302.437 128.521 302.22 128.87 301.953 129.171C301.694 129.467 301.38 129.687 301.01 129.829C300.649 129.967 300.227 129.971 299.744 129.842C299.261 129.713 298.894 129.497 298.644 129.195C298.401 128.889 298.239 128.542 298.157 128.154C298.082 127.761 298.068 127.35 298.114 126.921C298.167 126.493 298.245 126.086 298.348 125.7C298.452 125.313 298.588 124.922 298.756 124.525C298.931 124.13 299.148 123.785 299.407 123.488C299.674 123.187 299.988 122.968 300.349 122.83C300.719 122.687 301.145 122.681 301.628 122.81ZM299.99 128.924C300.228 128.988 300.446 128.974 300.643 128.882C300.842 128.783 301.017 128.63 301.17 128.423C301.33 128.21 301.472 127.952 301.595 127.646C301.718 127.341 301.827 127.011 301.922 126.657C302.017 126.303 302.087 125.966 302.131 125.647C302.177 125.321 302.183 125.026 302.151 124.762C302.124 124.499 302.049 124.279 301.924 124.101C301.801 123.916 301.62 123.792 301.382 123.728C301.137 123.662 300.916 123.679 300.717 123.777C300.526 123.871 300.35 124.024 300.19 124.236C300.036 124.451 299.897 124.71 299.774 125.015C299.653 125.314 299.544 125.641 299.449 125.995C299.355 126.349 299.284 126.689 299.238 127.015C299.192 127.341 299.183 127.635 299.209 127.897C299.243 128.155 299.319 128.375 299.435 128.558C299.56 128.737 299.745 128.859 299.99 128.924ZM306.995 124.248C307.478 124.378 307.841 124.596 308.083 124.902C308.334 125.204 308.496 125.551 308.57 125.944C308.653 126.331 308.668 126.739 308.615 127.167C308.569 127.596 308.494 128.004 308.391 128.391C308.287 128.777 308.148 129.168 307.973 129.562C307.805 129.959 307.587 130.308 307.32 130.609C307.061 130.905 306.747 131.125 306.377 131.267C306.016 131.405 305.594 131.41 305.111 131.28C304.628 131.151 304.261 130.935 304.011 130.633C303.769 130.327 303.606 129.98 303.524 129.592C303.45 129.199 303.436 128.788 303.482 128.359C303.534 127.931 303.612 127.524 303.716 127.138C303.819 126.751 303.955 126.36 304.123 125.963C304.298 125.569 304.515 125.223 304.774 124.926C305.041 124.625 305.355 124.406 305.717 124.268C306.086 124.125 306.512 124.119 306.995 124.248ZM305.357 130.363C305.595 130.426 305.813 130.412 306.01 130.32C306.209 130.222 306.385 130.069 306.537 129.861C306.697 129.648 306.839 129.39 306.962 129.085C307.086 128.779 307.195 128.45 307.29 128.095C307.384 127.741 307.454 127.404 307.498 127.085C307.544 126.759 307.551 126.464 307.518 126.2C307.492 125.938 307.416 125.717 307.291 125.539C307.168 125.354 306.988 125.23 306.749 125.166C306.505 125.1 306.283 125.117 306.084 125.215C305.893 125.309 305.718 125.462 305.557 125.675C305.403 125.889 305.264 126.148 305.141 126.454C305.02 126.752 304.912 127.079 304.817 127.433C304.722 127.787 304.651 128.127 304.606 128.453C304.56 128.779 304.55 129.073 304.576 129.335C304.611 129.593 304.686 129.814 304.803 129.997C304.927 130.175 305.112 130.297 305.357 130.363ZM310.344 125.145L308.496 132.042L309.916 132.423L311.212 127.583L311.232 127.589L311.625 132.881L312.794 133.194L315.794 128.759L315.813 128.764L314.504 133.652L315.924 134.032L317.772 127.136L315.637 126.564L312.84 130.898L312.821 130.892L312.478 125.717L310.344 125.145ZM319.917 131.231L316.544 134.199L318.244 134.654L320.419 132.68L321.287 135.47L323.093 135.953L321.653 131.706L324.748 129.005L323.087 128.56L321.096 130.387L320.334 127.822L318.576 127.351L319.917 131.231ZM325.55 129.22L323.702 136.117L325.121 136.497L326.359 131.88L326.378 131.885L328.01 137.271L329.526 137.677L331.374 130.781L329.954 130.4L328.714 135.027L328.695 135.022L327.056 129.624L325.55 129.22Z" fill="#939393"/>
<path d="M268.367 165.806L271.863 166.743L271.599 167.729L268.924 167.012L268.115 168.638L268.129 168.662C268.322 168.535 268.543 168.459 268.79 168.436C269.046 168.408 269.287 168.424 269.513 168.484C269.847 168.574 270.131 168.712 270.364 168.899C270.599 169.079 270.779 169.296 270.904 169.551C271.031 169.799 271.102 170.073 271.118 170.374C271.14 170.677 271.109 170.989 271.022 171.311C270.95 171.582 270.83 171.85 270.662 172.116C270.502 172.376 270.294 172.6 270.037 172.787C269.788 172.968 269.495 173.097 269.157 173.172C268.821 173.241 268.447 173.22 268.035 173.11C267.707 173.022 267.413 172.894 267.154 172.728C266.899 172.57 266.689 172.376 266.523 172.145C266.357 171.915 266.243 171.656 266.182 171.371C266.129 171.08 266.141 170.763 266.22 170.418L267.321 170.713C267.255 171.089 267.304 171.406 267.47 171.664C267.637 171.916 267.901 172.09 268.262 172.187C268.493 172.249 268.7 172.263 268.882 172.229C269.064 172.195 269.221 172.123 269.354 172.013C269.493 171.906 269.606 171.767 269.693 171.597C269.786 171.429 269.861 171.242 269.916 171.036C269.966 170.849 269.988 170.665 269.981 170.484C269.976 170.296 269.939 170.124 269.871 169.968C269.802 169.811 269.695 169.672 269.548 169.55C269.408 169.429 269.228 169.34 269.009 169.281C268.777 169.219 268.546 169.205 268.316 169.24C268.094 169.271 267.906 169.393 267.752 169.607L266.651 169.312L268.367 165.806ZM275.267 167.511C275.75 167.64 276.113 167.858 276.355 168.164C276.606 168.466 276.768 168.813 276.842 169.206C276.925 169.594 276.94 170.002 276.887 170.429C276.841 170.859 276.766 171.267 276.663 171.653C276.559 172.039 276.42 172.43 276.245 172.825C276.077 173.221 275.859 173.57 275.592 173.871C275.333 174.168 275.019 174.387 274.649 174.53C274.288 174.668 273.866 174.672 273.383 174.543C272.9 174.413 272.533 174.198 272.283 173.896C272.041 173.589 271.878 173.242 271.796 172.854C271.722 172.462 271.708 172.051 271.754 171.621C271.806 171.194 271.884 170.787 271.988 170.4C272.091 170.014 272.227 169.622 272.395 169.226C272.57 168.831 272.787 168.485 273.046 168.189C273.313 167.888 273.627 167.668 273.989 167.53C274.358 167.388 274.784 167.381 275.267 167.511ZM273.629 173.625C273.867 173.689 274.085 173.675 274.282 173.582C274.481 173.484 274.657 173.331 274.809 173.123C274.969 172.911 275.111 172.652 275.234 172.347C275.358 172.042 275.467 171.712 275.562 171.358C275.656 171.004 275.726 170.667 275.77 170.347C275.816 170.021 275.823 169.726 275.79 169.462C275.764 169.2 275.688 168.98 275.563 168.801C275.44 168.616 275.26 168.492 275.021 168.428C274.777 168.363 274.555 168.379 274.356 168.478C274.165 168.571 273.99 168.725 273.829 168.937C273.675 169.151 273.537 169.411 273.413 169.716C273.292 170.015 273.184 170.341 273.089 170.695C272.994 171.049 272.923 171.389 272.878 171.715C272.832 172.041 272.822 172.335 272.848 172.598C272.883 172.855 272.958 173.076 273.075 173.259C273.2 173.437 273.384 173.559 273.629 173.625ZM277.117 174.001L278.46 174.36L278.11 175.664C277.997 176.062 277.785 176.364 277.474 176.57C277.163 176.777 276.805 176.867 276.398 176.841L276.555 176.252C276.782 176.257 276.971 176.18 277.124 176.021C277.282 175.87 277.386 175.691 277.434 175.483L276.768 175.305L277.117 174.001ZM283.323 169.669C283.806 169.798 284.169 170.016 284.411 170.323C284.661 170.625 284.824 170.972 284.898 171.364C284.98 171.752 284.995 172.16 284.943 172.588C284.897 173.017 284.822 173.425 284.718 173.811C284.615 174.198 284.476 174.588 284.301 174.983C284.132 175.38 283.915 175.729 283.648 176.03C283.389 176.326 283.075 176.546 282.705 176.688C282.344 176.826 281.922 176.83 281.439 176.701C280.956 176.572 280.589 176.356 280.339 176.054C280.096 175.748 279.934 175.401 279.852 175.013C279.777 174.62 279.763 174.209 279.809 173.78C279.862 173.352 279.94 172.945 280.043 172.559C280.147 172.172 280.283 171.781 280.451 171.384C280.626 170.989 280.843 170.644 281.102 170.347C281.369 170.046 281.683 169.827 282.044 169.689C282.414 169.546 282.84 169.54 283.323 169.669ZM281.685 175.783C281.923 175.847 282.141 175.833 282.338 175.741C282.537 175.642 282.712 175.489 282.865 175.282C283.025 175.069 283.167 174.811 283.29 174.505C283.413 174.2 283.522 173.871 283.617 173.516C283.712 173.162 283.782 172.825 283.826 172.506C283.872 172.18 283.878 171.885 283.846 171.621C283.819 171.358 283.744 171.138 283.619 170.96C283.496 170.775 283.315 170.651 283.077 170.587C282.832 170.521 282.611 170.538 282.412 170.636C282.221 170.73 282.045 170.883 281.885 171.095C281.731 171.31 281.592 171.569 281.469 171.874C281.348 172.173 281.239 172.5 281.144 172.854C281.05 173.208 280.979 173.548 280.933 173.874C280.887 174.2 280.878 174.494 280.904 174.756C280.938 175.014 281.014 175.234 281.13 175.417C281.255 175.596 281.44 175.718 281.685 175.783ZM288.69 171.107C289.173 171.237 289.536 171.455 289.778 171.761C290.029 172.063 290.191 172.41 290.265 172.803C290.348 173.19 290.362 173.598 290.31 174.026C290.264 174.455 290.189 174.863 290.086 175.25C289.982 175.636 289.843 176.027 289.668 176.421C289.5 176.818 289.282 177.167 289.015 177.468C288.756 177.764 288.442 177.984 288.072 178.127C287.711 178.264 287.289 178.269 286.806 178.139C286.323 178.01 285.956 177.794 285.706 177.492C285.464 177.186 285.301 176.839 285.219 176.451C285.145 176.058 285.131 175.647 285.177 175.218C285.229 174.79 285.307 174.383 285.411 173.997C285.514 173.61 285.65 173.219 285.818 172.822C285.993 172.428 286.21 172.082 286.469 171.785C286.736 171.484 287.05 171.265 287.412 171.127C287.781 170.984 288.207 170.978 288.69 171.107ZM287.052 177.222C287.29 177.285 287.508 177.271 287.705 177.179C287.904 177.081 288.08 176.928 288.232 176.72C288.392 176.507 288.534 176.249 288.657 175.944C288.781 175.638 288.89 175.309 288.985 174.954C289.079 174.6 289.149 174.264 289.193 173.944C289.239 173.618 289.246 173.323 289.213 173.059C289.187 172.797 289.111 172.576 288.986 172.398C288.863 172.213 288.683 172.089 288.444 172.025C288.2 171.959 287.978 171.976 287.779 172.074C287.588 172.168 287.412 172.321 287.252 172.534C287.098 172.748 286.959 173.007 286.836 173.313C286.715 173.611 286.607 173.938 286.512 174.292C286.417 174.646 286.346 174.986 286.301 175.312C286.255 175.638 286.245 175.932 286.271 176.194C286.306 176.452 286.381 176.673 286.498 176.856C286.622 177.034 286.807 177.156 287.052 177.222ZM294.058 172.545C294.541 172.675 294.903 172.893 295.145 173.199C295.396 173.501 295.558 173.848 295.632 174.241C295.715 174.629 295.73 175.036 295.677 175.464C295.631 175.893 295.557 176.301 295.453 176.688C295.349 177.074 295.21 177.465 295.035 177.86C294.867 178.256 294.649 178.605 294.382 178.906C294.123 179.203 293.809 179.422 293.44 179.565C293.078 179.703 292.656 179.707 292.173 179.577C291.69 179.448 291.324 179.232 291.073 178.931C290.831 178.624 290.669 178.277 290.586 177.889C290.512 177.496 290.498 177.085 290.544 176.656C290.596 176.228 290.674 175.821 290.778 175.435C290.881 175.049 291.017 174.657 291.186 174.261C291.361 173.866 291.577 173.52 291.836 173.224C292.103 172.922 292.418 172.703 292.779 172.565C293.148 172.423 293.575 172.416 294.058 172.545ZM292.419 178.66C292.657 178.724 292.875 178.709 293.072 178.617C293.271 178.519 293.447 178.366 293.599 178.158C293.76 177.946 293.902 177.687 294.025 177.382C294.148 177.077 294.257 176.747 294.352 176.393C294.447 176.038 294.516 175.702 294.56 175.382C294.606 175.056 294.613 174.761 294.58 174.497C294.554 174.235 294.478 174.014 294.354 173.836C294.231 173.651 294.05 173.527 293.812 173.463C293.567 173.397 293.345 173.414 293.146 173.512C292.955 173.606 292.78 173.759 292.619 173.972C292.465 174.186 292.327 174.446 292.204 174.751C292.082 175.049 291.974 175.376 291.879 175.73C291.784 176.084 291.714 176.424 291.668 176.75C291.622 177.076 291.612 177.37 291.638 177.633C291.673 177.89 291.748 178.111 291.865 178.294C291.99 178.472 292.175 178.594 292.419 178.66ZM297.406 173.443L295.558 180.339L296.978 180.72L298.275 175.881L298.294 175.886L298.688 181.178L299.856 181.491L302.856 177.056L302.876 177.062L301.566 181.949L302.986 182.33L304.834 175.433L302.699 174.861L299.902 179.195L299.883 179.19L299.541 174.015L297.406 173.443ZM306.98 179.528L303.606 182.496L305.306 182.951L307.482 180.977L308.349 183.767L310.155 184.251L308.716 180.003L311.81 177.302L310.149 176.857L308.158 178.684L307.396 176.119L305.638 175.648L306.98 179.528ZM312.612 177.517L310.764 184.414L312.184 184.794L313.421 180.177L313.44 180.182L315.072 185.568L316.588 185.974L318.436 179.078L317.016 178.697L315.777 183.324L315.757 183.319L314.119 177.921L312.612 177.517Z" fill="#939393"/>
<path fill-rule="evenodd" clip-rule="evenodd" d="M286.184 223.722C286.184 223.722 344.509 230.726 373.884 229.279C403.259 227.833 447.59 216.935 468.531 212.194C489.472 207.452 545.084 189.224 563.576 185.897C582.067 182.569 608.545 180.347 650.856 188.578C647.75 200.169 617.641 312.536 617.641 312.536L286.184 223.722Z" fill="url(#paint1_linear_109_5585)" fill-opacity="0.09"/>
<path d="M286.443 222.756C286.443 222.756 344.509 230.726 373.884 229.279C403.259 227.833 447.59 216.935 468.531 212.194C489.472 207.452 535.615 189.793 563.576 185.897C591.537 182.001 630.571 183.143 650.856 188.578" stroke="url(#paint2_linear_109_5585)" stroke-linecap="square"/>
<path d="M467.884 214.608C469.484 215.037 471.13 214.087 471.558 212.487C471.987 210.887 471.037 209.242 469.437 208.813C467.837 208.384 466.192 209.334 465.763 210.934C465.334 212.535 466.284 214.18 467.884 214.608Z" fill="white"/>
<path d="M467.496 216.057C469.896 216.7 472.364 215.276 473.007 212.875C473.65 210.475 472.226 208.007 469.825 207.364C467.425 206.721 464.957 208.145 464.314 210.546C463.671 212.946 465.095 215.414 467.496 216.057Z" stroke="white" stroke-width="3"/>
<path d="M467.884 214.608C469.484 215.037 471.13 214.087 471.558 212.487C471.987 210.887 471.037 209.242 469.437 208.813C467.837 208.384 466.192 209.334 465.763 210.934C465.334 212.535 466.284 214.18 467.884 214.608Z" stroke="#47B9D6" stroke-width="2"/>
<path d="M373.237 231.694C374.837 232.123 376.482 231.173 376.911 229.573C377.34 227.973 376.39 226.328 374.79 225.899C373.189 225.47 371.544 226.42 371.116 228.02C370.687 229.62 371.637 231.266 373.237 231.694Z" fill="white"/>
<path d="M372.849 233.143C375.249 233.786 377.717 232.362 378.36 229.961C379.003 227.561 377.579 225.093 375.178 224.45C372.778 223.807 370.31 225.231 369.667 227.632C369.024 230.032 370.448 232.5 372.849 233.143Z" stroke="white" stroke-width="3"/>
<path d="M373.237 231.694C374.837 232.123 376.482 231.173 376.911 229.573C377.34 227.973 376.39 226.328 374.79 225.899C373.189 225.47 371.544 226.42 371.116 228.02C370.687 229.62 371.637 231.266 373.237 231.694Z" stroke="#47B9D6" stroke-width="2"/>
<path d="M285.767 225.856C287.368 226.285 289.013 225.336 289.442 223.735C289.87 222.135 288.921 220.49 287.32 220.061C285.72 219.632 284.075 220.582 283.646 222.182C283.217 223.783 284.167 225.428 285.767 225.856Z" fill="white"/>
<path d="M285.379 227.305C287.78 227.949 290.247 226.524 290.891 224.123C291.534 221.723 290.109 219.255 287.709 218.612C285.308 217.969 282.84 219.393 282.197 221.794C281.554 224.195 282.979 226.662 285.379 227.305Z" stroke="white" stroke-width="3"/>
<path d="M285.767 225.856C287.368 226.285 289.013 225.336 289.442 223.735C289.87 222.135 288.921 220.49 287.32 220.061C285.72 219.632 284.075 220.582 283.646 222.182C283.217 223.783 284.167 225.428 285.767 225.856Z" stroke="#47B9D6" stroke-width="2"/>
<path d="M286.443 222.756C286.443 222.756 354.963 214.892 377.249 216.722C399.534 218.552 441.069 229.682 463.355 231.512C485.64 233.342 528.488 224.118 554.189 224.793C579.89 225.468 637.915 236.874 637.915 236.874" stroke="url(#paint3_linear_109_5585)" stroke-linecap="square"/>
<path d="M462.708 233.927C464.308 234.356 465.953 233.406 466.382 231.806C466.811 230.205 465.861 228.56 464.261 228.131C462.66 227.703 461.015 228.652 460.586 230.253C460.158 231.853 461.107 233.498 462.708 233.927Z" fill="white"/>
<path d="M462.319 235.376C464.72 236.019 467.188 234.594 467.831 232.194C468.474 229.793 467.049 227.326 464.649 226.683C462.248 226.039 459.781 227.464 459.137 229.864C458.494 232.265 459.919 234.733 462.319 235.376Z" stroke="white" stroke-width="3"/>
<path d="M462.708 233.927C464.308 234.356 465.953 233.406 466.382 231.806C466.811 230.205 465.861 228.56 464.261 228.131C462.66 227.703 461.015 228.652 460.586 230.253C460.158 231.853 461.107 233.498 462.708 233.927Z" stroke="#FF835F" stroke-width="2"/>
<path d="M376.602 219.137C378.202 219.566 379.847 218.616 380.276 217.016C380.705 215.415 379.755 213.77 378.155 213.341C376.554 212.913 374.909 213.862 374.48 215.463C374.051 217.063 375.001 218.708 376.602 219.137Z" fill="white"/>
<path d="M376.213 220.586C378.614 221.229 381.081 219.804 381.725 217.404C382.368 215.003 380.943 212.536 378.543 211.892C376.142 211.249 373.675 212.674 373.031 215.074C372.388 217.475 373.813 219.943 376.213 220.586Z" stroke="white" stroke-width="3"/>
<path d="M376.602 219.137C378.202 219.566 379.847 218.616 380.276 217.016C380.705 215.415 379.755 213.77 378.155 213.341C376.554 212.913 374.909 213.862 374.48 215.463C374.051 217.063 375.001 218.708 376.602 219.137Z" stroke="#FF835F" stroke-width="2"/>
<path d="M285.767 225.856C287.368 226.285 289.013 225.336 289.442 223.735C289.87 222.135 288.921 220.49 287.32 220.061C285.72 219.632 284.075 220.582 283.646 222.182C283.217 223.783 284.167 225.428 285.767 225.856Z" fill="white"/>
<path d="M285.379 227.305C287.78 227.949 290.247 226.524 290.891 224.123C291.534 221.723 290.109 219.255 287.709 218.612C285.308 217.969 282.84 219.393 282.197 221.794C281.554 224.195 282.979 226.662 285.379 227.305Z" stroke="white" stroke-width="3"/>
<path d="M285.767 225.856C287.368 226.285 289.013 225.336 289.442 223.735C289.87 222.135 288.921 220.49 287.32 220.061C285.72 219.632 284.075 220.582 283.646 222.182C283.217 223.783 284.167 225.428 285.767 225.856Z" stroke="#FF835F" stroke-width="2"/>
<path d="M387.917 66.443L387.679 67.3316L383.316 66.1624L383.554 65.2738L387.917 66.443ZM385.745 57.981L383.536 66.2215L382.444 65.9288L384.652 57.6883L385.745 57.981ZM388.361 62.4794L388.123 63.3679L384.336 62.3534L384.574 61.4648L388.361 62.4794ZM389.831 59.0759L389.591 59.9701L385.284 58.8161L385.524 57.9218L389.831 59.0759ZM394.369 62.5605L395.32 62.8153L393.714 68.809C393.569 69.3485 393.336 69.7795 393.015 70.102C392.694 70.4244 392.311 70.6312 391.866 70.7222C391.424 70.8181 390.948 70.7977 390.439 70.6613C390.228 70.6046 389.988 70.504 389.719 70.3592C389.453 70.2192 389.204 70.0331 388.971 69.8008C388.741 69.5733 388.569 69.3028 388.455 68.9891L389.17 68.5136C389.344 68.8918 389.554 69.1786 389.801 69.3742C390.052 69.5708 390.315 69.7059 390.59 69.7798C390.922 69.8687 391.226 69.8833 391.501 69.8235C391.775 69.7637 392.012 69.6288 392.21 69.419C392.41 69.2139 392.558 68.934 392.653 68.5793L393.912 63.8818L394.369 62.5605ZM389.314 64.5606L389.345 64.4417C389.471 63.9738 389.639 63.564 389.851 63.2122C390.067 62.8577 390.316 62.5705 390.597 62.3507C390.882 62.1319 391.194 61.9888 391.531 61.9215C391.87 61.8505 392.226 61.865 392.599 61.9651C392.984 62.0682 393.302 62.2261 393.552 62.4388C393.807 62.6487 394 62.9087 394.132 63.2189C394.268 63.5263 394.346 63.8749 394.367 64.2647C394.388 64.6544 394.36 65.0818 394.284 65.5467L394.145 66.0674C393.983 66.5053 393.794 66.8873 393.577 67.2134C393.364 67.5405 393.122 67.8031 392.85 68.0013C392.583 68.2006 392.285 68.3292 391.958 68.3871C391.632 68.4414 391.275 68.4164 390.886 68.3123C390.52 68.2142 390.209 68.0479 389.952 67.8133C389.7 67.5797 389.505 67.2951 389.368 66.9592C389.232 66.6234 389.158 66.2517 389.146 65.844C389.138 65.4336 389.194 65.0058 389.314 64.5606ZM390.393 64.7223L390.361 64.8411C390.279 65.1467 390.232 65.4416 390.221 65.7257C390.213 66.0107 390.246 66.2723 390.32 66.5105C390.397 66.7496 390.522 66.9549 390.695 67.1265C390.868 67.2943 391.096 67.4161 391.379 67.4919C391.726 67.5849 392.033 67.5882 392.299 67.5017C392.564 67.4152 392.796 67.2689 392.993 67.0628C393.193 66.8577 393.369 66.6238 393.52 66.3611L393.886 64.9971C393.9 64.7784 393.889 64.5612 393.854 64.3456C393.824 64.1271 393.761 63.9242 393.665 63.7369C393.575 63.5468 393.443 63.3802 393.271 63.2371C393.1 63.094 392.882 62.987 392.617 62.9162C392.331 62.8394 392.067 62.8336 391.827 62.8987C391.592 62.9611 391.381 63.0783 391.193 63.2505C391.01 63.4198 390.851 63.6318 390.714 63.8862C390.581 64.138 390.474 64.4166 390.393 64.7223ZM397.699 64.4842L396.316 69.6458L395.269 69.3653L396.91 63.2414L397.929 63.5144L397.699 64.4842ZM399.879 64.0006L399.613 64.9726C399.531 64.9305 399.451 64.8969 399.373 64.8719C399.299 64.8441 399.213 64.8171 399.115 64.7908C398.874 64.7261 398.651 64.7067 398.445 64.7326C398.24 64.7586 398.055 64.8223 397.891 64.9237C397.726 65.0252 397.581 65.1601 397.455 65.3286C397.334 65.4942 397.232 65.6854 397.149 65.9019L396.81 65.9928C396.909 65.6231 397.038 65.2855 397.196 64.9803C397.359 64.676 397.551 64.4201 397.772 64.2125C397.994 64.0011 398.243 63.8575 398.518 63.7816C398.798 63.7029 399.104 63.7081 399.436 63.797C399.512 63.8173 399.596 63.8499 399.689 63.8951C399.783 63.9365 399.846 63.9717 399.879 64.0006ZM401.595 71.1815C401.168 71.0673 400.801 70.8919 400.492 70.6556C400.188 70.4164 399.947 70.1314 399.769 69.8006C399.594 69.4707 399.49 69.107 399.454 68.7094C399.419 68.3118 399.46 67.8979 399.575 67.4678L399.639 67.2301C399.772 66.732 399.964 66.3084 400.216 65.9592C400.468 65.6062 400.757 65.3277 401.083 65.1238C401.408 64.9199 401.75 64.7911 402.108 64.7374C402.466 64.6837 402.817 64.7029 403.16 64.7949C403.598 64.9122 403.955 65.0887 404.232 65.3246C404.512 65.5615 404.717 65.843 404.848 66.1693C404.98 66.4918 405.046 66.8492 405.046 67.2414C405.048 67.6299 404.99 68.0393 404.875 68.4694L404.749 68.9392L400.176 67.7138L400.405 66.8592L403.931 67.804L403.952 67.7248C404.01 67.449 404.024 67.1698 403.995 66.8869C403.969 66.6051 403.875 66.3533 403.712 66.1317C403.549 65.9101 403.288 65.7512 402.93 65.6552C402.692 65.5915 402.46 65.5838 402.232 65.6321C402.006 65.6766 401.795 65.7778 401.599 65.9355C401.403 66.0933 401.228 66.3031 401.072 66.5648C400.917 66.8266 400.79 67.1424 400.691 67.5121L400.628 67.7498C400.55 68.0404 400.516 68.3245 400.527 68.6023C400.542 68.8774 400.601 69.1319 400.704 69.3657C400.811 69.6006 400.961 69.8026 401.154 69.9717C401.352 70.1418 401.593 70.2652 401.88 70.3421C402.25 70.4411 402.583 70.4496 402.88 70.3674C403.177 70.2852 403.456 70.1435 403.716 69.9423L404.215 70.6159C404.029 70.7804 403.81 70.926 403.558 71.0525C403.306 71.179 403.016 71.259 402.687 71.2923C402.363 71.3266 401.998 71.2897 401.595 71.1815ZM409.231 71.3654C409.271 71.2145 409.275 71.0658 409.241 70.9193C409.213 70.77 409.111 70.6153 408.935 70.4551C408.764 70.292 408.488 70.1168 408.105 69.9294C407.785 69.7667 407.5 69.5995 407.251 69.4275C407.006 69.2567 406.806 69.0756 406.65 68.8845C406.499 68.6943 406.398 68.4912 406.347 68.2753C406.295 68.0593 406.304 67.825 406.371 67.5721C406.436 67.3307 406.55 67.1165 406.713 66.9298C406.88 66.744 407.084 66.5944 407.325 66.481C407.569 66.3686 407.844 66.3026 408.148 66.2831C408.453 66.2636 408.777 66.2998 409.12 66.3918C409.611 66.5232 410.006 66.7222 410.307 66.9888C410.607 67.2554 410.811 67.5587 410.918 67.8988C411.026 68.2351 411.033 68.5787 410.939 68.9296L409.892 68.649C409.938 68.4792 409.931 68.3015 409.871 68.1157C409.817 67.9272 409.707 67.7543 409.543 67.5971C409.383 67.4409 409.165 67.3259 408.889 67.2521C408.599 67.1742 408.351 67.1563 408.146 67.1983C407.945 67.2376 407.785 67.314 407.666 67.4276C407.55 67.5422 407.472 67.675 407.432 67.8259C407.401 67.9391 407.393 68.046 407.406 68.1467C407.424 68.2446 407.474 68.3449 407.556 68.4477C407.639 68.5467 407.764 68.653 407.932 68.7667C408.099 68.8804 408.318 69.0077 408.588 69.1487C409.059 69.3964 409.436 69.6429 409.718 69.8883C410 70.1337 410.189 70.3928 410.286 70.6654C410.383 70.938 410.387 71.2385 410.299 71.5667C410.228 71.8346 410.105 72.0647 409.932 72.257C409.763 72.4503 409.551 72.5998 409.297 72.7054C409.047 72.8082 408.764 72.866 408.449 72.8787C408.139 72.8887 407.805 72.8456 407.447 72.7496C406.907 72.605 406.476 72.3865 406.154 72.0939C405.832 71.8014 405.616 71.4766 405.506 71.1194C405.395 70.7622 405.385 70.4138 405.476 70.0742L406.529 70.3563C406.467 70.6471 406.489 70.8976 406.595 71.1079C406.701 71.3143 406.854 71.4827 407.054 71.613C407.254 71.7396 407.462 71.8317 407.677 71.8893C407.964 71.9662 408.214 71.9926 408.426 71.9687C408.643 71.9458 408.82 71.882 408.957 71.7772C409.094 71.6725 409.186 71.5352 409.231 71.3654ZM411.743 70.5705L411.778 70.4403C411.896 69.9989 412.07 69.6067 412.299 69.2637C412.53 68.917 412.803 68.6364 413.12 68.4219C413.437 68.2036 413.788 68.0631 414.173 68.0004C414.559 67.934 414.965 67.9579 415.391 68.0721C415.821 68.1874 416.187 68.3702 416.488 68.6207C416.793 68.8684 417.029 69.1661 417.195 69.5138C417.365 69.8587 417.463 70.2389 417.489 70.6544C417.517 71.0661 417.471 71.4927 417.353 71.9341L417.318 72.0643C417.2 72.5057 417.026 72.8979 416.796 73.2409C416.567 73.5838 416.292 73.8639 415.971 74.0812C415.654 74.2957 415.303 74.4362 414.918 74.5027C414.536 74.5664 414.131 74.5406 413.701 74.4253C413.271 74.3101 412.905 74.1291 412.603 73.8824C412.302 73.6319 412.066 73.3342 411.896 72.9893C411.73 72.6416 411.634 72.2619 411.606 71.8502C411.579 71.4385 411.625 71.012 411.743 70.5705ZM412.825 70.7209L412.79 70.8511C412.708 71.1567 412.667 71.4549 412.666 71.7458C412.666 72.0329 412.709 72.2994 412.797 72.5454C412.889 72.7923 413.028 73.0055 413.214 73.1849C413.402 73.3605 413.641 73.4872 413.931 73.5651C414.218 73.6419 414.485 73.6507 414.731 73.5913C414.982 73.5292 415.207 73.4136 415.406 73.2445C415.605 73.0754 415.777 72.8665 415.92 72.6178C416.068 72.3664 416.183 72.0878 416.265 71.7822L416.3 71.652C416.381 71.3502 416.42 71.0552 416.416 70.7671C416.417 70.4762 416.372 70.2073 416.28 69.9603C416.193 69.7106 416.057 69.4961 415.87 69.3167C415.688 69.1383 415.451 69.0102 415.16 68.9324C414.874 68.8555 414.605 68.8482 414.354 68.9103C414.106 68.9734 413.881 69.0909 413.677 69.2627C413.478 69.4319 413.306 69.6426 413.162 69.8951C413.018 70.1438 412.906 70.419 412.825 70.7209ZM421.83 74.7412C421.87 74.5902 421.873 74.4415 421.84 74.2951C421.811 74.1458 421.709 73.9911 421.534 73.8308C421.363 73.6678 421.086 73.4926 420.704 73.3052C420.384 73.1425 420.099 72.9752 419.85 72.8033C419.604 72.6324 419.404 72.4514 419.249 72.2602C419.098 72.0701 418.996 71.867 418.945 71.6511C418.894 71.4351 418.902 71.2007 418.97 70.9479C419.034 70.7064 419.148 70.4923 419.312 70.3056C419.479 70.1198 419.683 69.9702 419.923 69.8568C420.168 69.7443 420.442 69.6784 420.747 69.6588C421.051 69.6393 421.375 69.6756 421.719 69.7676C422.209 69.899 422.605 70.098 422.905 70.3646C423.206 70.6312 423.41 70.9345 423.517 71.2746C423.625 71.6109 423.632 71.9545 423.538 72.3054L422.491 72.0248C422.536 71.855 422.529 71.6772 422.47 71.4915C422.415 71.3029 422.306 71.1301 422.142 70.9729C421.981 70.8167 421.763 70.7017 421.488 70.6278C421.198 70.55 420.95 70.5321 420.744 70.5741C420.544 70.6134 420.384 70.6898 420.264 70.8034C420.149 70.918 420.071 71.0508 420.03 71.2017C420 71.3149 419.991 71.4218 420.005 71.5225C420.023 71.6204 420.073 71.7207 420.155 71.8235C420.237 71.9225 420.362 72.0288 420.53 72.1425C420.698 72.2562 420.917 72.3835 421.186 72.5245C421.658 72.7721 422.034 73.0187 422.316 73.2641C422.598 73.5095 422.788 73.7685 422.885 74.0412C422.981 74.3138 422.986 74.6142 422.898 74.9425C422.826 75.2104 422.704 75.4405 422.531 75.6328C422.362 75.8261 422.15 75.9755 421.895 76.0811C421.645 76.184 421.363 76.2418 421.048 76.2545C420.738 76.2645 420.404 76.2214 420.045 76.1254C419.506 75.9808 419.075 75.7622 418.753 75.4697C418.431 75.1772 418.215 74.8523 418.104 74.4952C417.994 74.138 417.984 73.7896 418.075 73.45L419.128 73.7321C419.066 74.0229 419.088 74.2734 419.193 74.4836C419.3 74.6901 419.453 74.8585 419.652 74.9888C419.853 75.1154 420.061 75.2075 420.276 75.2651C420.563 75.3419 420.812 75.3684 421.025 75.3445C421.241 75.3216 421.418 75.2578 421.555 75.153C421.693 75.0482 421.784 74.911 421.83 74.7412Z" fill="#FF835F"/>
<path fill-rule="evenodd" clip-rule="evenodd" d="M371.708 55.8053C372.508 56.0197 373.146 56.5381 373.53 57.203C373.914 57.8679 374.044 58.6792 373.83 59.4794C373.615 60.2796 373.097 60.9171 372.432 61.3011C371.767 61.685 370.956 61.8152 370.155 61.6008C369.355 61.3864 368.718 60.8679 368.334 60.203C367.95 59.5381 367.82 58.7267 368.034 57.9265C368.248 57.1262 368.767 56.4887 369.432 56.1049C370.097 55.721 370.908 55.5908 371.708 55.8053Z" stroke="#FF835F" stroke-width="2"/>
<path d="M313.638 37.6248L311.43 45.8653L310.338 45.5726L312.546 37.3321L313.638 37.6248ZM315.596 41.8193L314.305 46.6357L313.258 46.3552L314.899 40.2313L315.89 40.4967L315.596 41.8193ZM314.939 43.275L314.508 43.1413C314.624 42.7235 314.789 42.3534 315.005 42.0311C315.222 41.705 315.475 41.4392 315.765 41.2337C316.054 41.0282 316.369 40.8942 316.71 40.8317C317.055 40.7665 317.412 40.7834 317.782 40.8825C318.084 40.9633 318.344 41.0776 318.564 41.2254C318.784 41.3693 318.955 41.5527 319.077 41.7755C319.203 41.9994 319.274 42.2649 319.288 42.5722C319.304 42.8756 319.258 43.2292 319.15 43.633L318.075 47.6457L317.022 47.3636L318.1 43.3396C318.186 43.0189 318.208 42.7496 318.165 42.5319C318.123 42.3105 318.023 42.1321 317.865 41.9968C317.709 41.8577 317.498 41.7527 317.234 41.682C316.974 41.6122 316.721 41.6032 316.477 41.655C316.236 41.7078 316.013 41.8097 315.807 41.9607C315.604 42.1127 315.426 42.3016 315.273 42.5273C315.124 42.7504 315.013 42.9996 314.939 43.275ZM325.273 43.0111L326.224 43.2659L324.618 49.2595C324.474 49.7991 324.241 50.2301 323.92 50.5525C323.599 50.875 323.216 51.0817 322.771 51.1728C322.329 51.2686 321.853 51.2483 321.344 51.1118C321.132 51.0552 320.892 50.9545 320.624 50.8098C320.358 50.6698 320.109 50.4837 319.876 50.2514C319.645 50.0239 319.473 49.7533 319.359 49.4397L320.075 48.9642C320.249 49.3424 320.459 49.6292 320.706 49.8248C320.956 50.0213 321.219 50.1565 321.495 50.2303C321.827 50.3193 322.13 50.3339 322.405 50.2741C322.68 50.2143 322.916 50.0794 323.114 49.8696C323.315 49.6645 323.462 49.3846 323.557 49.0299L324.816 44.3323L325.273 43.0111ZM320.218 45.0111L320.25 44.8923C320.375 44.4244 320.544 44.0146 320.755 43.6628C320.972 43.3083 321.221 43.0211 321.502 42.8013C321.787 42.5824 322.098 42.4394 322.436 42.3721C322.774 42.3011 323.13 42.3156 323.504 42.4157C323.889 42.5188 324.206 42.6767 324.457 42.8894C324.712 43.0993 324.905 43.3593 325.036 43.6695C325.172 43.9768 325.251 44.3254 325.272 44.7152C325.293 45.105 325.265 45.5324 325.189 45.9973L325.049 46.518C324.888 46.9559 324.698 47.3378 324.482 47.6639C324.269 47.9911 324.026 48.2537 323.755 48.4519C323.487 48.6511 323.19 48.7797 322.863 48.8377C322.537 48.8919 322.18 48.867 321.791 48.7628C321.425 48.6648 321.114 48.4985 320.857 48.2639C320.604 48.0303 320.41 47.7456 320.273 47.4098C320.137 47.074 320.062 46.7022 320.05 46.2946C320.043 45.8842 320.099 45.4564 320.218 45.0111ZM321.297 45.1728L321.265 45.2917C321.183 45.5973 321.137 45.8922 321.125 46.1762C321.118 46.4613 321.151 46.7229 321.224 46.961C321.302 47.2002 321.427 47.4055 321.599 47.5771C321.773 47.7449 322.001 47.8667 322.284 47.9425C322.631 48.0355 322.937 48.0388 323.203 47.9523C323.469 47.8658 323.7 47.7195 323.897 47.5134C324.098 47.3083 324.274 47.0744 324.425 46.8116L324.79 45.4476C324.804 45.229 324.794 45.0118 324.759 44.7961C324.728 44.5777 324.665 44.3748 324.57 44.1875C324.479 43.9974 324.348 43.8308 324.176 43.6877C324.004 43.5445 323.786 43.4376 323.522 43.3668C323.235 43.29 322.972 43.2841 322.732 43.3493C322.497 43.4116 322.286 43.5289 322.098 43.701C321.915 43.8704 321.755 44.0823 321.618 44.3368C321.486 44.5885 321.379 44.8672 321.297 45.1728ZM328.604 44.9347L327.221 50.0964L326.174 49.8158L327.815 43.692L328.833 43.965L328.604 44.9347ZM330.784 44.4512L330.517 45.4232C330.435 45.381 330.355 45.3475 330.277 45.3225C330.204 45.2947 330.118 45.2677 330.02 45.2414C329.778 45.1767 329.555 45.1573 329.35 45.1832C329.145 45.2091 328.96 45.2728 328.795 45.3743C328.631 45.4758 328.485 45.6107 328.359 45.7791C328.238 45.9448 328.136 46.1359 328.054 46.3525L327.714 46.4434C327.813 46.0736 327.942 45.7361 328.101 45.4308C328.263 45.1266 328.455 44.8706 328.677 44.6631C328.899 44.4517 329.148 44.3081 329.423 44.2322C329.703 44.1535 330.009 44.1586 330.341 44.2476C330.416 44.2678 330.501 44.3005 330.594 44.3457C330.688 44.3871 330.751 44.4222 330.784 44.4512ZM332.499 51.6321C332.073 51.5178 331.705 51.3425 331.397 51.1061C331.093 50.867 330.852 50.582 330.673 50.2511C330.499 49.9213 330.394 49.5576 330.359 49.16C330.324 48.7624 330.364 48.3485 330.479 47.9183L330.543 47.6806C330.677 47.1826 330.869 46.759 331.12 46.4097C331.373 46.0568 331.662 45.7783 331.987 45.5744C332.313 45.3705 332.655 45.2417 333.013 45.188C333.371 45.1343 333.722 45.1535 334.065 45.2455C334.503 45.3628 334.86 45.5393 335.136 45.7752C335.416 46.012 335.622 46.2936 335.753 46.6199C335.885 46.9424 335.951 47.2997 335.951 47.692C335.952 48.0805 335.895 48.4898 335.78 48.92L335.654 49.3897L331.081 48.1644L331.31 47.3098L334.836 48.2546L334.857 48.1753C334.915 47.8996 334.929 47.6203 334.9 47.3375C334.874 47.0556 334.78 46.8039 334.617 46.5823C334.454 46.3606 334.193 46.2018 333.834 46.1058C333.597 46.0421 333.364 46.0344 333.137 46.0827C332.911 46.1272 332.7 46.2283 332.504 46.3861C332.308 46.5439 332.132 46.7537 331.977 47.0154C331.822 47.2772 331.695 47.5929 331.596 47.9627L331.532 48.2004C331.454 48.491 331.421 48.7751 331.431 49.0529C331.446 49.328 331.506 49.5824 331.609 49.8163C331.716 50.0512 331.866 50.2532 332.059 50.4223C332.256 50.5923 332.498 50.7158 332.785 50.7926C333.155 50.8917 333.488 50.9002 333.785 50.818C334.082 50.7358 334.361 50.5941 334.621 50.3929L335.12 51.0664C334.934 51.231 334.715 51.3766 334.463 51.5031C334.211 51.6296 333.92 51.7095 333.592 51.7429C333.267 51.7772 332.903 51.7403 332.499 51.6321ZM340.136 51.816C340.176 51.6651 340.18 51.5164 340.146 51.3699C340.117 51.2206 340.015 51.0659 339.84 50.9056C339.669 50.7426 339.392 50.5674 339.01 50.38C338.69 50.2173 338.405 50.05 338.156 49.8781C337.91 49.7072 337.71 49.5262 337.555 49.335C337.404 49.1449 337.303 48.9418 337.251 48.7259C337.2 48.5099 337.208 48.2755 337.276 48.0227C337.341 47.7812 337.455 47.5671 337.618 47.3804C337.785 47.1946 337.989 47.045 338.229 46.9316C338.474 46.8191 338.748 46.7532 339.053 46.7336C339.357 46.7141 339.681 46.7504 340.025 46.8424C340.515 46.9738 340.911 47.1728 341.211 47.4394C341.512 47.706 341.716 48.0093 341.823 48.3494C341.931 48.6857 341.938 49.0293 341.844 49.3802L340.797 49.0996C340.842 48.9298 340.835 48.752 340.776 48.5663C340.721 48.3777 340.612 48.2049 340.448 48.0477C340.287 47.8915 340.07 47.7765 339.794 47.7027C339.504 47.6248 339.256 47.6069 339.05 47.6489C338.85 47.6882 338.69 47.7646 338.57 47.8782C338.455 47.9928 338.377 48.1256 338.336 48.2765C338.306 48.3897 338.297 48.4966 338.311 48.5973C338.329 48.6952 338.379 48.7955 338.461 48.8983C338.543 48.9973 338.669 49.1036 338.836 49.2173C339.004 49.331 339.223 49.4583 339.492 49.5993C339.964 49.8469 340.34 50.0935 340.622 50.3389C340.904 50.5843 341.094 50.8433 341.191 51.116C341.287 51.3886 341.292 51.689 341.204 52.0173C341.132 52.2852 341.01 52.5153 340.837 52.7076C340.668 52.9009 340.456 53.0503 340.201 53.156C339.951 53.2588 339.669 53.3166 339.354 53.3293C339.044 53.3393 338.71 53.2962 338.351 53.2002C337.812 53.0556 337.381 52.837 337.059 52.5445C336.737 52.252 336.521 51.9272 336.41 51.57C336.3 51.2128 336.29 50.8644 336.381 50.5248L337.434 50.8069C337.372 51.0977 337.394 51.3482 337.499 51.5584C337.606 51.7649 337.759 51.9333 337.958 52.0636C338.159 52.1902 338.367 52.2823 338.582 52.3399C338.869 52.4167 339.118 52.4432 339.331 52.4193C339.547 52.3964 339.724 52.3326 339.862 52.2278C339.999 52.1231 340.09 51.9858 340.136 51.816ZM342.648 51.0211L342.683 50.8909C342.801 50.4495 342.975 50.0573 343.204 49.7143C343.434 49.3676 343.708 49.087 344.024 48.8725C344.341 48.6542 344.692 48.5137 345.077 48.451C345.463 48.3845 345.869 48.4084 346.296 48.5227C346.726 48.6379 347.091 48.8208 347.392 49.0713C347.698 49.319 347.933 49.6167 348.099 49.9644C348.27 50.3093 348.368 50.6895 348.394 51.105C348.421 51.5167 348.376 51.9432 348.257 52.3847L348.223 52.5149C348.104 52.9563 347.93 53.3485 347.701 53.6915C347.472 54.0344 347.196 54.3145 346.875 54.5318C346.559 54.7463 346.208 54.8868 345.822 54.9532C345.441 55.017 345.035 54.9912 344.605 54.8759C344.175 54.7607 343.809 54.5797 343.507 54.333C343.206 54.0825 342.971 53.7848 342.8 53.4399C342.635 53.0922 342.538 52.7125 342.511 52.3008C342.484 51.8891 342.529 51.4625 342.648 51.0211ZM343.73 51.1715L343.695 51.3016C343.613 51.6073 343.571 51.9055 343.57 52.1964C343.57 52.4835 343.614 52.75 343.702 52.996C343.793 53.2429 343.932 53.4561 344.119 53.6355C344.306 53.8111 344.545 53.9378 344.836 54.0156C345.123 54.0925 345.389 54.1012 345.636 54.0419C345.887 53.9798 346.112 53.8642 346.311 53.6951C346.51 53.526 346.681 53.3171 346.825 53.0684C346.973 52.8169 347.088 52.5384 347.17 52.2328L347.205 52.1026C347.286 51.8008 347.324 51.5058 347.32 51.2177C347.322 50.9268 347.276 50.6579 347.185 50.4109C347.098 50.1612 346.961 49.9467 346.775 49.7673C346.592 49.5889 346.356 49.4608 346.065 49.383C345.778 49.3061 345.509 49.2988 345.258 49.3609C345.011 49.424 344.785 49.5415 344.581 49.7133C344.382 49.8824 344.211 50.0932 344.066 50.3457C343.923 50.5944 343.81 50.8696 343.73 51.1715ZM352.734 55.1918C352.775 55.0408 352.778 54.8921 352.745 54.7456C352.716 54.5964 352.614 54.4416 352.438 54.2814C352.268 54.1184 351.991 53.9432 351.609 53.7558C351.288 53.5931 351.003 53.4258 350.754 53.2539C350.509 53.083 350.309 52.902 350.154 52.7108C350.002 52.5206 349.901 52.3176 349.85 52.1016C349.798 51.8857 349.807 51.6513 349.874 51.3985C349.939 51.157 350.053 50.9429 350.216 50.7561C350.383 50.5704 350.587 50.4208 350.828 50.3073C351.072 50.1949 351.347 50.1289 351.651 50.1094C351.956 50.0899 352.28 50.1261 352.623 50.2181C353.114 50.3496 353.509 50.5486 353.81 50.8152C354.11 51.0817 354.314 51.3851 354.421 51.7251C354.529 52.0614 354.536 52.405 354.442 52.7559L353.395 52.4754C353.441 52.3056 353.434 52.1278 353.374 51.942C353.32 51.7535 353.21 51.5806 353.046 51.4234C352.886 51.2672 352.668 51.1522 352.393 51.0784C352.102 51.0006 351.854 50.9827 351.649 51.0247C351.448 51.064 351.288 51.1404 351.169 51.254C351.053 51.3686 350.975 51.5013 350.935 51.6523C350.904 51.7655 350.896 51.8724 350.909 51.9731C350.928 52.071 350.978 52.1713 351.059 52.2741C351.142 52.373 351.267 52.4794 351.435 52.5931C351.602 52.7067 351.821 52.8341 352.091 52.9751C352.562 53.2227 352.939 53.4693 353.221 53.7147C353.503 53.9601 353.692 54.2191 353.789 54.4917C353.886 54.7644 353.89 55.0648 353.802 55.3931C353.731 55.661 353.608 55.8911 353.436 56.0833C353.266 56.2766 353.055 56.4261 352.8 56.5317C352.55 56.6346 352.267 56.6924 351.953 56.7051C351.643 56.715 351.308 56.672 350.95 56.5759C350.41 56.4314 349.98 56.2128 349.658 55.9203C349.336 55.6278 349.119 55.3029 349.009 54.9457C348.898 54.5885 348.888 54.2402 348.979 53.9006L350.032 54.1827C349.97 54.4735 349.992 54.724 350.098 54.9342C350.204 55.1407 350.357 55.3091 350.557 55.4394C350.757 55.5659 350.965 55.658 351.18 55.7157C351.467 55.7925 351.717 55.819 351.93 55.7951C352.146 55.7722 352.323 55.7083 352.46 55.6036C352.597 55.4988 352.689 55.3615 352.734 55.1918Z" fill="#47B9D6"/>
<path fill-rule="evenodd" clip-rule="evenodd" d="M299.523 35.4278C300.323 35.6422 300.96 36.1607 301.344 36.8256C301.728 37.4904 301.858 38.3018 301.644 39.102C301.43 39.9022 300.911 40.5397 300.246 40.9236C299.581 41.3075 298.77 41.4378 297.97 41.2234C297.169 41.009 296.532 40.4905 296.148 39.8256C295.764 39.1606 295.634 38.3492 295.848 37.5491C296.063 36.7488 296.581 36.1113 297.246 35.7275C297.911 35.3436 298.722 35.2134 299.523 35.4278Z" fill="white" stroke="#47B9D6" stroke-width="2"/>
</g>
<defs>
<linearGradient id="paint0_linear_109_5585" x1="452.754" y1="46.9808" x2="456.118" y2="34.4238" gradientUnits="userSpaceOnUse">
<stop stop-color="#F8F8F8"/>
<stop offset="1" stop-color="#FEFEFE"/>
</linearGradient>
<linearGradient id="paint1_linear_109_5585" x1="480.343" y1="206.62" x2="485.83" y2="238.703" gradientUnits="userSpaceOnUse">
<stop stop-color="#00A3FF"/>
<stop offset="1" stop-color="#D7FFFA"/>
</linearGradient>
<linearGradient id="paint2_linear_109_5585" x1="303.169" y1="160.336" x2="637.553" y2="236.614" gradientUnits="userSpaceOnUse">
<stop stop-color="#4A90E2"/>
<stop offset="1" stop-color="#86F2FD"/>
</linearGradient>
<linearGradient id="paint3_linear_109_5585" x1="634.389" y1="273.926" x2="242.702" y2="253.712" gradientUnits="userSpaceOnUse">
<stop stop-color="#FFB9B6"/>
<stop offset="1" stop-color="#FF1B12"/>
</linearGradient>
</defs>
</svg>
