<svg width="542" height="251" viewBox="0 0 542 251" fill="none" xmlns="http://www.w3.org/2000/svg">
<mask id="mask0_110_2555" style="mask-type:alpha" maskUnits="userSpaceOnUse" x="0" y="11" width="508" height="240">
<rect y="11" width="508" height="240" rx="35" fill="url(#paint0_linear_110_2555)"/>
</mask>
<g mask="url(#mask0_110_2555)">
<path d="M260.41 202.08V203H255.893V202.08H260.41ZM256.121 194.469V203H254.99V194.469H256.121ZM259.812 198.137V199.057H255.893V198.137H259.812ZM260.352 194.469V195.395H255.893V194.469H260.352ZM262.73 198.014V203H261.646V196.66H262.672L262.73 198.014ZM262.473 199.59L262.021 199.572C262.025 199.139 262.09 198.738 262.215 198.371C262.34 198 262.516 197.678 262.742 197.404C262.969 197.131 263.238 196.92 263.551 196.771C263.867 196.619 264.217 196.543 264.6 196.543C264.912 196.543 265.193 196.586 265.443 196.672C265.693 196.754 265.906 196.887 266.082 197.07C266.262 197.254 266.398 197.492 266.492 197.785C266.586 198.074 266.633 198.428 266.633 198.846V203H265.543V198.834C265.543 198.502 265.494 198.236 265.396 198.037C265.299 197.834 265.156 197.688 264.969 197.598C264.781 197.504 264.551 197.457 264.277 197.457C264.008 197.457 263.762 197.514 263.539 197.627C263.32 197.74 263.131 197.896 262.971 198.096C262.814 198.295 262.691 198.523 262.602 198.781C262.516 199.035 262.473 199.305 262.473 199.59ZM270.91 203.117C270.469 203.117 270.068 203.043 269.709 202.895C269.354 202.742 269.047 202.529 268.789 202.256C268.535 201.982 268.34 201.658 268.203 201.283C268.066 200.908 267.998 200.498 267.998 200.053V199.807C267.998 199.291 268.074 198.832 268.227 198.43C268.379 198.023 268.586 197.68 268.848 197.398C269.109 197.117 269.406 196.904 269.738 196.76C270.07 196.615 270.414 196.543 270.77 196.543C271.223 196.543 271.613 196.621 271.941 196.777C272.273 196.934 272.545 197.152 272.756 197.434C272.967 197.711 273.123 198.039 273.225 198.418C273.326 198.793 273.377 199.203 273.377 199.648V200.135H268.643V199.25H272.293V199.168C272.277 198.887 272.219 198.613 272.117 198.348C272.02 198.082 271.863 197.863 271.648 197.691C271.434 197.52 271.141 197.434 270.77 197.434C270.523 197.434 270.297 197.486 270.09 197.592C269.883 197.693 269.705 197.846 269.557 198.049C269.408 198.252 269.293 198.5 269.211 198.793C269.129 199.086 269.088 199.424 269.088 199.807V200.053C269.088 200.354 269.129 200.637 269.211 200.902C269.297 201.164 269.42 201.395 269.58 201.594C269.744 201.793 269.941 201.949 270.172 202.062C270.406 202.176 270.672 202.232 270.969 202.232C271.352 202.232 271.676 202.154 271.941 201.998C272.207 201.842 272.439 201.633 272.639 201.371L273.295 201.893C273.158 202.1 272.984 202.297 272.773 202.484C272.562 202.672 272.303 202.824 271.994 202.941C271.689 203.059 271.328 203.117 270.91 203.117Z" fill="white"/>
<path d="M331.121 194.469V203H329.99V194.469H331.121ZM334.695 198.307V199.232H330.875V198.307H334.695ZM335.275 194.469V195.395H330.875V194.469H335.275ZM338.961 203.117C338.52 203.117 338.119 203.043 337.76 202.895C337.404 202.742 337.098 202.529 336.84 202.256C336.586 201.982 336.391 201.658 336.254 201.283C336.117 200.908 336.049 200.498 336.049 200.053V199.807C336.049 199.291 336.125 198.832 336.277 198.43C336.43 198.023 336.637 197.68 336.898 197.398C337.16 197.117 337.457 196.904 337.789 196.76C338.121 196.615 338.465 196.543 338.82 196.543C339.273 196.543 339.664 196.621 339.992 196.777C340.324 196.934 340.596 197.152 340.807 197.434C341.018 197.711 341.174 198.039 341.275 198.418C341.377 198.793 341.428 199.203 341.428 199.648V200.135H336.693V199.25H340.344V199.168C340.328 198.887 340.27 198.613 340.168 198.348C340.07 198.082 339.914 197.863 339.699 197.691C339.484 197.52 339.191 197.434 338.82 197.434C338.574 197.434 338.348 197.486 338.141 197.592C337.934 197.693 337.756 197.846 337.607 198.049C337.459 198.252 337.344 198.5 337.262 198.793C337.18 199.086 337.139 199.424 337.139 199.807V200.053C337.139 200.354 337.18 200.637 337.262 200.902C337.348 201.164 337.471 201.395 337.631 201.594C337.795 201.793 337.992 201.949 338.223 202.062C338.457 202.176 338.723 202.232 339.02 202.232C339.402 202.232 339.727 202.154 339.992 201.998C340.258 201.842 340.49 201.633 340.689 201.371L341.346 201.893C341.209 202.1 341.035 202.297 340.824 202.484C340.613 202.672 340.354 202.824 340.045 202.941C339.74 203.059 339.379 203.117 338.961 203.117ZM342.688 194H343.777V201.77L343.684 203H342.688V194ZM348.061 199.777V199.9C348.061 200.361 348.006 200.789 347.896 201.184C347.787 201.574 347.627 201.914 347.416 202.203C347.205 202.492 346.947 202.717 346.643 202.877C346.338 203.037 345.988 203.117 345.594 203.117C345.191 203.117 344.838 203.049 344.533 202.912C344.232 202.771 343.979 202.57 343.771 202.309C343.564 202.047 343.398 201.73 343.273 201.359C343.152 200.988 343.068 200.57 343.021 200.105V199.566C343.068 199.098 343.152 198.678 343.273 198.307C343.398 197.936 343.564 197.619 343.771 197.357C343.979 197.092 344.232 196.891 344.533 196.754C344.834 196.613 345.184 196.543 345.582 196.543C345.98 196.543 346.334 196.621 346.643 196.777C346.951 196.93 347.209 197.148 347.416 197.434C347.627 197.719 347.787 198.061 347.896 198.459C348.006 198.854 348.061 199.293 348.061 199.777ZM346.971 199.9V199.777C346.971 199.461 346.941 199.164 346.883 198.887C346.824 198.605 346.73 198.359 346.602 198.148C346.473 197.934 346.303 197.766 346.092 197.645C345.881 197.52 345.621 197.457 345.312 197.457C345.039 197.457 344.801 197.504 344.598 197.598C344.398 197.691 344.229 197.818 344.088 197.979C343.947 198.135 343.832 198.314 343.742 198.518C343.656 198.717 343.592 198.924 343.549 199.139V200.551C343.611 200.824 343.713 201.088 343.854 201.342C343.998 201.592 344.189 201.797 344.428 201.957C344.67 202.117 344.969 202.197 345.324 202.197C345.617 202.197 345.867 202.139 346.074 202.021C346.285 201.9 346.455 201.734 346.584 201.523C346.717 201.312 346.814 201.068 346.877 200.791C346.939 200.514 346.971 200.217 346.971 199.9Z" fill="white"/>
<path d="M404.348 194.469H405.443L408.238 201.424L411.027 194.469H412.129L408.66 203H407.805L404.348 194.469ZM403.99 194.469H404.957L405.115 199.672V203H403.99V194.469ZM411.514 194.469H412.48V203H411.355V199.672L411.514 194.469ZM418.041 201.916V198.652C418.041 198.402 417.99 198.186 417.889 198.002C417.791 197.814 417.643 197.67 417.443 197.568C417.244 197.467 416.998 197.416 416.705 197.416C416.432 197.416 416.191 197.463 415.984 197.557C415.781 197.65 415.621 197.773 415.504 197.926C415.391 198.078 415.334 198.242 415.334 198.418H414.25C414.25 198.191 414.309 197.967 414.426 197.744C414.543 197.521 414.711 197.32 414.93 197.141C415.152 196.957 415.418 196.812 415.727 196.707C416.039 196.598 416.387 196.543 416.77 196.543C417.23 196.543 417.637 196.621 417.988 196.777C418.344 196.934 418.621 197.17 418.82 197.486C419.023 197.799 419.125 198.191 419.125 198.664V201.617C419.125 201.828 419.143 202.053 419.178 202.291C419.217 202.529 419.273 202.734 419.348 202.906V203H418.217C418.162 202.875 418.119 202.709 418.088 202.502C418.057 202.291 418.041 202.096 418.041 201.916ZM418.229 199.156L418.24 199.918H417.145C416.836 199.918 416.561 199.943 416.318 199.994C416.076 200.041 415.873 200.113 415.709 200.211C415.545 200.309 415.42 200.432 415.334 200.58C415.248 200.725 415.205 200.895 415.205 201.09C415.205 201.289 415.25 201.471 415.34 201.635C415.43 201.799 415.564 201.93 415.744 202.027C415.928 202.121 416.152 202.168 416.418 202.168C416.75 202.168 417.043 202.098 417.297 201.957C417.551 201.816 417.752 201.645 417.9 201.441C418.053 201.238 418.135 201.041 418.146 200.85L418.609 201.371C418.582 201.535 418.508 201.717 418.387 201.916C418.266 202.115 418.104 202.307 417.9 202.49C417.701 202.67 417.463 202.82 417.186 202.941C416.912 203.059 416.604 203.117 416.26 203.117C415.83 203.117 415.453 203.033 415.129 202.865C414.809 202.697 414.559 202.473 414.379 202.191C414.203 201.906 414.115 201.588 414.115 201.236C414.115 200.896 414.182 200.598 414.314 200.34C414.447 200.078 414.639 199.861 414.889 199.689C415.139 199.514 415.439 199.381 415.791 199.291C416.143 199.201 416.535 199.156 416.969 199.156H418.229ZM421.914 197.656V203H420.83V196.66H421.885L421.914 197.656ZM423.895 196.625L423.889 197.633C423.799 197.613 423.713 197.602 423.631 197.598C423.553 197.59 423.463 197.586 423.361 197.586C423.111 197.586 422.891 197.625 422.699 197.703C422.508 197.781 422.346 197.891 422.213 198.031C422.08 198.172 421.975 198.34 421.896 198.535C421.822 198.727 421.773 198.938 421.75 199.168L421.445 199.344C421.445 198.961 421.482 198.602 421.557 198.266C421.635 197.93 421.754 197.633 421.914 197.375C422.074 197.113 422.277 196.91 422.523 196.766C422.773 196.617 423.07 196.543 423.414 196.543C423.492 196.543 423.582 196.553 423.684 196.572C423.785 196.588 423.855 196.605 423.895 196.625Z" fill="white"/>
<path d="M485.148 195.225L482.324 203H481.17L484.422 194.469H485.166L485.148 195.225ZM487.516 203L484.686 195.225L484.668 194.469H485.412L488.676 203H487.516ZM487.369 199.842V200.768H482.576V199.842H487.369ZM489.648 194H490.738V201.77L490.645 203H489.648V194ZM495.021 199.777V199.9C495.021 200.361 494.967 200.789 494.857 201.184C494.748 201.574 494.588 201.914 494.377 202.203C494.166 202.492 493.908 202.717 493.604 202.877C493.299 203.037 492.949 203.117 492.555 203.117C492.152 203.117 491.799 203.049 491.494 202.912C491.193 202.771 490.939 202.57 490.732 202.309C490.525 202.047 490.359 201.73 490.234 201.359C490.113 200.988 490.029 200.57 489.982 200.105V199.566C490.029 199.098 490.113 198.678 490.234 198.307C490.359 197.936 490.525 197.619 490.732 197.357C490.939 197.092 491.193 196.891 491.494 196.754C491.795 196.613 492.145 196.543 492.543 196.543C492.941 196.543 493.295 196.621 493.604 196.777C493.912 196.93 494.17 197.148 494.377 197.434C494.588 197.719 494.748 198.061 494.857 198.459C494.967 198.854 495.021 199.293 495.021 199.777ZM493.932 199.9V199.777C493.932 199.461 493.902 199.164 493.844 198.887C493.785 198.605 493.691 198.359 493.562 198.148C493.434 197.934 493.264 197.766 493.053 197.645C492.842 197.52 492.582 197.457 492.273 197.457C492 197.457 491.762 197.504 491.559 197.598C491.359 197.691 491.189 197.818 491.049 197.979C490.908 198.135 490.793 198.314 490.703 198.518C490.617 198.717 490.553 198.924 490.51 199.139V200.551C490.572 200.824 490.674 201.088 490.814 201.342C490.959 201.592 491.15 201.797 491.389 201.957C491.631 202.117 491.93 202.197 492.285 202.197C492.578 202.197 492.828 202.139 493.035 202.021C493.246 201.9 493.416 201.734 493.545 201.523C493.678 201.312 493.775 201.068 493.838 200.791C493.9 200.514 493.932 200.217 493.932 199.9ZM497.477 197.656V203H496.393V196.66H497.447L497.477 197.656ZM499.457 196.625L499.451 197.633C499.361 197.613 499.275 197.602 499.193 197.598C499.115 197.59 499.025 197.586 498.924 197.586C498.674 197.586 498.453 197.625 498.262 197.703C498.07 197.781 497.908 197.891 497.775 198.031C497.643 198.172 497.537 198.34 497.459 198.535C497.385 198.727 497.336 198.938 497.312 199.168L497.008 199.344C497.008 198.961 497.045 198.602 497.119 198.266C497.197 197.93 497.316 197.633 497.477 197.375C497.637 197.113 497.84 196.91 498.086 196.766C498.336 196.617 498.633 196.543 498.977 196.543C499.055 196.543 499.145 196.553 499.246 196.572C499.348 196.588 499.418 196.605 499.457 196.625Z" fill="white"/>
<path d="M263.5 64.5H262.5V184.5H263.5V64.5Z" fill="#D8D8D8" stroke="#8398A6"/>
<path d="M339 65V184" stroke="#ABBBC3" stroke-linecap="square" stroke-dasharray="3 3"/>
<path d="M414 65V185" stroke="#ABBBC3" stroke-linecap="square" stroke-dasharray="3 3"/>
<path fill-rule="evenodd" clip-rule="evenodd" d="M263.014 171.552L263.037 93.7913L338.914 77L339.014 160.751L263.014 171.552Z" fill="url(#paint1_linear_110_2555)" fill-opacity="0.2"/>
<path d="M264.513 93.5L340.788 76.5" stroke="#33ACD8" stroke-linecap="square"/>
<path d="M263.015 97C265.232 97 267.029 95.2091 267.029 93C267.029 90.7909 265.232 89 263.015 89C260.797 89 259 90.7909 259 93C259 95.2091 260.797 97 263.015 97Z" fill="white"/>
<path d="M263.015 99C266.336 99 269.029 96.3137 269.029 93C269.029 89.6863 266.336 87 263.015 87C259.693 87 257 89.6863 257 93C257 96.3137 259.693 99 263.015 99Z" stroke="white" stroke-width="4"/>
<path d="M263.015 97C265.232 97 267.029 95.2091 267.029 93C267.029 90.7909 265.232 89 263.015 89C260.797 89 259 90.7909 259 93C259 95.2091 260.797 97 263.015 97Z" stroke="#33ACD8" stroke-width="3"/>
<path fill-rule="evenodd" clip-rule="evenodd" d="M339 162.076V76L415 83.0744V149.386L339 162.076Z" fill="url(#paint2_linear_110_2555)" fill-opacity="0.2"/>
<path d="M340.788 75.5L416.06 83.0002" stroke="#33ACD8" stroke-linecap="square"/>
<path d="M339.287 80C341.504 80 343.301 78.2091 343.301 76C343.301 73.7909 341.504 72 339.287 72C337.069 72 335.272 73.7909 335.272 76C335.272 78.2091 337.069 80 339.287 80Z" fill="white"/>
<path d="M339.287 82C342.608 82 345.301 79.3137 345.301 76C345.301 72.6863 342.608 70 339.287 70C335.965 70 333.272 72.6863 333.272 76C333.272 79.3137 335.965 82 339.287 82Z" stroke="white" stroke-width="4"/>
<path d="M339.287 80C341.504 80 343.301 78.2091 343.301 76C343.301 73.7909 341.504 72 339.287 72C337.069 72 335.272 73.7909 335.272 76C335.272 78.2091 337.069 80 339.287 80Z" stroke="#33ACD8" stroke-width="3"/>
<path fill-rule="evenodd" clip-rule="evenodd" d="M263 184.807L263.023 170.494L338.9 161L339 185L263 184.807Z" fill="url(#paint3_linear_110_2555)"/>
<path d="M262.85 171.831L339.785 161.5" stroke="#5D748B" stroke-linecap="square"/>
<path d="M263.015 176C265.232 176 267.029 174.209 267.029 172C267.029 169.791 265.232 168 263.015 168C260.797 168 259 169.791 259 172C259 174.209 260.797 176 263.015 176Z" fill="white"/>
<path d="M263.015 178C266.336 178 269.029 175.314 269.029 172C269.029 168.686 266.336 166 263.015 166C259.693 166 257 168.686 257 172C257 175.314 259.693 178 263.015 178Z" stroke="white" stroke-width="4"/>
<path d="M263.015 176C265.232 176 267.029 174.209 267.029 172C267.029 169.791 265.232 168 263.015 168C260.797 168 259 169.791 259 172C259 174.209 260.797 176 263.015 176Z" stroke="#5D748B" stroke-width="3"/>
<path fill-rule="evenodd" clip-rule="evenodd" d="M339 185V160.981L415 149V185H339Z" fill="url(#paint4_linear_110_2555)"/>
<path d="M339.785 161.5L415.034 149.873" stroke="#5D748B" stroke-linecap="square"/>
<path d="M339.287 166C341.504 166 343.301 164.209 343.301 162C343.301 159.791 341.504 158 339.287 158C337.069 158 335.272 159.791 335.272 162C335.272 164.209 337.069 166 339.287 166Z" fill="white"/>
<path d="M339.287 168C342.608 168 345.301 165.314 345.301 162C345.301 158.686 342.608 156 339.287 156C335.965 156 333.272 158.686 333.272 162C333.272 165.314 335.965 168 339.287 168Z" stroke="white" stroke-width="4"/>
<path d="M339.287 166C341.504 166 343.301 164.209 343.301 162C343.301 159.791 341.504 158 339.287 158C337.069 158 335.272 159.791 335.272 162C335.272 164.209 337.069 166 339.287 166Z" stroke="#5D748B" stroke-width="3"/>
<path fill-rule="evenodd" clip-rule="evenodd" d="M415 184.802L415.023 150L490.898 161.007L491 185L415 184.802Z" fill="url(#paint5_linear_110_2555)"/>
<path fill-rule="evenodd" clip-rule="evenodd" d="M415 149.429L415.023 83.5679L490.898 76L491 160L415 149.429Z" fill="url(#paint6_linear_110_2555)" fill-opacity="0.2"/>
<path fill-rule="evenodd" clip-rule="evenodd" d="M491 185V160.99L567 141V185H491Z" fill="url(#paint7_linear_110_2555)"/>
<path fill-rule="evenodd" clip-rule="evenodd" d="M491 162V76L567 112.63V141.605L491 162Z" fill="url(#paint8_linear_110_2555)" fill-opacity="0.2"/>
<path d="M415.943 150.168L490.657 161.029" stroke="#5D748B" stroke-linecap="square"/>
<path d="M489.5 161.5L565.5 141.811" stroke="#5D748B" stroke-linecap="square"/>
<path d="M414.5 83.2735L490.5 76.5" stroke="#33ACD8" stroke-linecap="square"/>
<path d="M490.5 75.5L565.5 112.808" stroke="#33ACD8" stroke-linecap="square"/>
<path d="M491 64V184" stroke="#ABBBC3" stroke-linecap="square" stroke-dasharray="3 3"/>
<path d="M415 154C417.209 154 419 152.209 419 150C419 147.791 417.209 146 415 146C412.791 146 411 147.791 411 150C411 152.209 412.791 154 415 154Z" fill="white"/>
<path d="M415 156C418.314 156 421 153.314 421 150C421 146.686 418.314 144 415 144C411.686 144 409 146.686 409 150C409 153.314 411.686 156 415 156Z" stroke="white" stroke-width="4"/>
<path d="M415 154C417.209 154 419 152.209 419 150C419 147.791 417.209 146 415 146C412.791 146 411 147.791 411 150C411 152.209 412.791 154 415 154Z" stroke="#5D748B" stroke-width="3"/>
<path d="M415 87C417.209 87 419 85.2091 419 83C419 80.7909 417.209 79 415 79C412.791 79 411 80.7909 411 83C411 85.2091 412.791 87 415 87Z" fill="white"/>
<path d="M415 89C418.314 89 421 86.3137 421 83C421 79.6863 418.314 77 415 77C411.686 77 409 79.6863 409 83C409 86.3137 411.686 89 415 89Z" stroke="white" stroke-width="4"/>
<path d="M415 87C417.209 87 419 85.2091 419 83C419 80.7909 417.209 79 415 79C412.791 79 411 80.7909 411 83C411 85.2091 412.791 87 415 87Z" stroke="#33ACD8" stroke-width="3"/>
<path d="M492 80C494.209 80 496 78.2091 496 76C496 73.7909 494.209 72 492 72C489.791 72 488 73.7909 488 76C488 78.2091 489.791 80 492 80Z" fill="white"/>
<path d="M492 82C495.314 82 498 79.3137 498 76C498 72.6863 495.314 70 492 70C488.686 70 486 72.6863 486 76C486 79.3137 488.686 82 492 82Z" stroke="white" stroke-width="4"/>
<path d="M492 80C494.209 80 496 78.2091 496 76C496 73.7909 494.209 72 492 72C489.791 72 488 73.7909 488 76C488 78.2091 489.791 80 492 80Z" stroke="#33ACD8" stroke-width="3"/>
<path d="M491 166C493.209 166 495 164.209 495 162C495 159.791 493.209 158 491 158C488.791 158 487 159.791 487 162C487 164.209 488.791 166 491 166Z" fill="white"/>
<path d="M491 168C494.314 168 497 165.314 497 162C497 158.686 494.314 156 491 156C487.686 156 485 158.686 485 162C485 165.314 487.686 168 491 168Z" stroke="white" stroke-width="4"/>
<path d="M491 166C493.209 166 495 164.209 495 162C495 159.791 493.209 158 491 158C488.791 158 487 159.791 487 162C487 164.209 488.791 166 491 166Z" stroke="#5D748B" stroke-width="3"/>
</g>
<defs>
<linearGradient id="paint0_linear_110_2555" x1="170.5" y1="226" x2="470.5" y2="21.5" gradientUnits="userSpaceOnUse">
<stop stop-color="#477FE5"/>
<stop offset="1" stop-color="#4366A7"/>
</linearGradient>
<linearGradient id="paint1_linear_110_2555" x1="301.014" y1="77" x2="301.014" y2="171.552" gradientUnits="userSpaceOnUse">
<stop stop-color="white" stop-opacity="0.227157"/>
<stop offset="1" stop-color="#33ACD8"/>
</linearGradient>
<linearGradient id="paint2_linear_110_2555" x1="377" y1="76" x2="377" y2="162.076" gradientUnits="userSpaceOnUse">
<stop stop-color="white" stop-opacity="0.227157"/>
<stop offset="1" stop-color="#33ACD8"/>
</linearGradient>
<linearGradient id="paint3_linear_110_2555" x1="301" y1="161" x2="301" y2="184.775" gradientUnits="userSpaceOnUse">
<stop stop-color="#B6D0FF" stop-opacity="0.1"/>
<stop offset="1" stop-color="#5D748B" stop-opacity="0.2"/>
</linearGradient>
<linearGradient id="paint4_linear_110_2555" x1="377" y1="149" x2="377" y2="184.662" gradientUnits="userSpaceOnUse">
<stop stop-color="#B6D0FF" stop-opacity="0.1"/>
<stop offset="1" stop-color="#5D748B" stop-opacity="0.2"/>
</linearGradient>
<linearGradient id="paint5_linear_110_2555" x1="453" y1="150" x2="453" y2="184.671" gradientUnits="userSpaceOnUse">
<stop stop-color="#B6D0FF" stop-opacity="0.1"/>
<stop offset="1" stop-color="#5D748B" stop-opacity="0.2"/>
</linearGradient>
<linearGradient id="paint6_linear_110_2555" x1="453" y1="76" x2="453" y2="158.021" gradientUnits="userSpaceOnUse">
<stop stop-color="white" stop-opacity="0.227157"/>
<stop offset="1" stop-color="#33ACD8"/>
</linearGradient>
<linearGradient id="paint7_linear_110_2555" x1="529" y1="141" x2="529" y2="184.587" gradientUnits="userSpaceOnUse">
<stop stop-color="#B6D0FF" stop-opacity="0.1"/>
<stop offset="1" stop-color="#5D748B" stop-opacity="0.2"/>
</linearGradient>
<linearGradient id="paint8_linear_110_2555" x1="529" y1="76" x2="529" y2="159.974" gradientUnits="userSpaceOnUse">
<stop stop-color="white" stop-opacity="0.227157"/>
<stop offset="1" stop-color="#33ACD8"/>
</linearGradient>
</defs>
</svg>
