<svg width="77" height="24" viewBox="0 0 77 24" fill="none" xmlns="http://www.w3.org/2000/svg">
<path fill-rule="evenodd" clip-rule="evenodd" d="M7.46359 3.68557C8.5837 3.85046 9.19573 4.42207 9.3954 5.71585L13.4994 5.71585C13.4994 4.52544 12.6292 1.7081 10.2017 0.615274C8.72976 -0.0105619 7.18702 -0.110994 5.62306 0.100239C4.26379 0.283851 3.02444 0.766224 1.94838 1.67438C-0.358527 3.62135 -0.608642 8.50261 3.08637 9.83766C3.81167 10.0997 4.75876 10.3066 5.70231 10.5127C6.85728 10.7649 8.00693 11.016 8.73796 11.3658C9.18106 11.5778 9.49 11.9093 9.53025 12.4413C9.57528 13.0372 9.22237 13.6158 8.59698 13.9262C7.81948 14.3121 6.97773 14.3467 6.1769 14.1365C5.37606 13.9262 4.44951 13.1533 4.3724 11.9656C4.3724 11.9656 0.0828006 11.9337 0.00229381 11.9458C0.00229381 11.9767 0.00175268 12.0122 0.00119608 12.0487C6.61114e-05 12.1229 -0.00112765 12.2012 0.0020131 12.2543C0.141356 14.6161 1.2625 16.2705 3.34756 17.2432C9.77264 19.8391 14.0795 16.1123 13.9644 11.981C13.9038 10.4162 13.3447 8.05704 7.28802 6.97467C7.23778 6.96323 7.17782 6.9506 7.11007 6.93633C6.23512 6.75202 4.0609 6.29402 4.74237 4.60459C5.20268 3.46343 6.84017 3.60015 7.46359 3.68557ZM17.9918 0L13.3847 0.0193307L18.7283 17.519L22.2872 17.519L25.9335 8.04026L29.5851 17.519H33.1448L38.4083 0.0193307L33.8671 0L30.8245 10.0608L27.7593 0L24.0899 0L21.0549 10.0608L17.9918 0ZM46.7318 4.3886C44.1742 4.3886 42.101 6.53081 42.101 9.17339C42.101 11.816 44.1742 13.9582 46.7318 13.9582C49.2893 13.9582 51.3626 11.816 51.3626 9.17339C51.3626 6.53081 49.2893 4.3886 46.7318 4.3886ZM52.1429 0.300501L55.8667 0.290956L55.8667 17.8306L52.1449 17.8437C52.1449 17.8437 51.4775 16.7935 51.439 16.7013L51.4378 16.7023C51.3553 16.7693 49.4262 18.3363 45.9256 18.0732C44.8001 18.1238 39.5664 16.9522 38.138 11.3923C37.4662 9.11487 37.8833 6.07018 39.3638 3.90735C40.7217 1.98603 42.4688 0.706313 44.9791 0.16756C48.5861 -0.480644 51.439 1.37871 51.439 1.37871L52.1429 0.300501ZM67.6087 0.00166309C70.1928 -0.0462557 72.1799 0.948785 73.4951 2.02431C75.0086 3.31735 75.9842 4.85657 76.5065 6.75287C77.7158 11.4392 75.1913 15.5595 72.3544 17.162C70.4674 18.3943 66.5617 19.1835 63.268 17.089V23.9426H58.7832L58.7764 0.298406L62.4462 0.298406L63.268 1.29952C64.8458 0.343887 66.1861 0.0645135 67.6087 0.00166309ZM63.2865 9.2421C63.2865 11.9141 65.3595 14.0802 67.9168 14.0802C70.4741 14.0802 72.5471 11.9141 72.5471 9.2421C72.5471 6.57006 70.4741 4.40395 67.9168 4.40395C65.3595 4.40395 63.2865 6.57006 63.2865 9.2421Z" fill="white"/>
</svg>
