<?xml version="1.0" encoding="UTF-8"?>
<svg width="26px" height="17px" viewBox="0 0 26 17" version="1.1" xmlns="http://www.w3.org/2000/svg" xmlns:xlink="http://www.w3.org/1999/xlink">
    <title>logo-TN</title>
    <defs>
        <polygon id="path-1" points="11.2370845 15.5391121 25.7976173 15.5391121 25.7976173 5.08987315 11.2370845 5.08987315 11.2370845 15.5391121"></polygon>
        <polygon id="path-3" points="20.057394 15.5391121 5.46789382 15.5391121 5.46789382 9.67109937 20.057394 9.67109937 20.057394 15.5391121"></polygon>
    </defs>
    <g id="Symbols" stroke="none" stroke-width="1" fill="none" fill-rule="evenodd">
        <g id="logo-TN" transform="translate(0.000000, 0.074070)">
            <path d="M3.62877778,15.53926 C3.98655556,15.53926 4.26655556,15.2318076 4.23322222,14.8762579 L3.75618519,9.79681818 L3.66988889,8.65950317 C3.64322222,8.30765328 3.92211111,8.0079704 4.27507407,8.0079704 L5.41655556,8.0079704 L9.08544444,8.0079704 C9.43877778,8.0079704 9.7172963,7.70754757 9.69062963,7.35569767 L9.52877778,5.21536998 L9.44285185,4.07805497 C9.41618519,3.72620507 9.6947037,3.42615222 10.048037,3.42615222 L11.1895185,3.42615222 L16.4006296,3.42615222 C16.713963,3.42615222 16.9758148,3.18788584 17.0050741,2.87636364 L17.1847037,0.958763214 C17.2176667,0.603213531 16.938037,0.296131078 16.5806296,0.296131078 L0.606925926,0.296131078 C0.247296296,0.296131078 -0.0334444444,0.60654334 0.00322222222,0.963572939 L1.43211111,14.9942812 C1.46359259,15.3035835 1.72433333,15.53926 2.03581481,15.53926 L3.62877778,15.53926 Z" id="Fill-1" fill="#FFFFFF"></path>
            <mask id="mask-2" fill="white">
                <use xlink:href="#path-1"></use>
            </mask>
            <g id="Clip-5"></g>
            <path d="M18.4703333,5.08987315 L17.6336667,5.08987315 L16.7973704,5.08987315 L11.8436667,5.08987315 C11.4907037,5.08987315 11.2121852,5.39029598 11.2388519,5.7417759 L11.3677407,7.44700846 C11.3918148,7.76334038 11.6555185,8.00789641 11.9729259,8.00789641 L16.524037,8.00789641 L17.3603333,8.00789641 L18.197,8.00789641 L20.1203333,8.00789641 L21.2825556,8.00789641 C21.6403333,8.00789641 21.919963,8.31497886 21.887,8.67052854 L21.7784815,9.82634249 L21.2014444,14.8639746 C21.1603333,15.2239641 21.4414444,15.539186 21.8044074,15.539186 L23.8325556,15.539186 C24.1332963,15.539186 24.3888519,15.3183087 24.4329259,15.0212156 L25.7910741,5.78432347 C25.8447778,5.41841438 25.5610741,5.08987315 25.1907037,5.08987315 L18.4703333,5.08987315 Z" id="Fill-4" fill="#FFFFFF" mask="url(#mask-2)"></path>
            <mask id="mask-4" fill="white">
                <use xlink:href="#path-3"></use>
            </mask>
            <g id="Clip-8"></g>
            <path d="M5.46977778,10.3714693 L5.81496296,14.9370085 C5.84051852,15.276649 6.12422222,15.539334 6.46496296,15.539334 L18.9827407,15.539334 C19.3197778,15.539334 19.6008889,15.2825687 19.6316296,14.9477378 L20.0545926,10.3825687 C20.0897778,10.0007505 19.789037,9.67109937 19.4053333,9.67109937 L6.11977778,9.67109937 C5.74014815,9.67109937 5.44125926,9.99372093 5.46977778,10.3714693" id="Fill-7" fill="#FFFFFF" mask="url(#mask-4)"></path>
        </g>
    </g>
</svg>