<?xml version="1.0" encoding="UTF-8"?>
<svg width="23px" height="28px" viewBox="0 0 23 28" version="1.1" xmlns="http://www.w3.org/2000/svg" xmlns:xlink="http://www.w3.org/1999/xlink">
    <title>logo-Tipsteros</title>
    <defs>
        <polygon id="path-1" points="9.67635454e-06 0.0629621622 13.8562685 0.0629621622 13.8562685 27.9582724 9.67635454e-06 27.9582724"></polygon>
    </defs>
    <g id="UI---mobile" stroke="none" stroke-width="1" fill="none" fill-rule="evenodd">
        <g id="01-splash-copy" transform="translate(-176.000000, -320.000000)">
            <g id="logo-Tipsteros" transform="translate(176.000000, 320.000000)">
                <g id="Group-3">
                    <mask id="mask-2" fill="white">
                        <use xlink:href="#path-1"></use>
                    </mask>
                    <g id="Clip-2"></g>
                    <path d="M4.45565474,5.73005622 L5.62841263,1.36780757 C5.91106526,0.453645405 6.84169684,-0.128603243 7.77247579,0.120823784 C8.70310737,0.411872432 9.26841263,1.36780757 8.98576,2.32283459 L8.01445474,5.93771027 L11.0080968,5.93771027 C11.9794021,5.93771027 12.7476337,6.76847784 12.7476337,7.72441297 C12.7476337,8.72106162 11.9794021,9.51081297 11.0080968,9.51081297 L7.04477053,9.51081297 L3.56554947,22.598467 C3.40314947,23.1381859 3.48434947,23.6368886 3.72647579,23.9697103 C3.92940211,24.2191373 4.21205474,24.3851697 4.57590737,24.3851697 C5.18336,24.3851697 5.75013895,23.9279373 6.43731789,23.1381859 L10.8034021,17.1993103 C11.4515284,16.4513319 12.5430863,16.3270724 13.2722653,16.9500346 C13.9999705,17.6147697 14.0406442,18.7367373 13.4331916,19.484867 L9.18883368,25.2993319 C8.21738105,26.4211481 6.84169684,27.9582724 4.57590737,27.9582724 C3.12049684,27.9582724 1.78548632,27.2935373 0.935907368,26.1299481 C0.0458021053,24.8838724 -0.236850526,23.2633535 0.206728421,21.6426832 L1.70413895,15.9925859 L4.45565474,5.73005622 Z" id="Fill-1" fill="#CACEE2" mask="url(#mask-2)"></path>
                </g>
                <path d="M19.9810683,22 C21.667778,22 23,23.3335873 23,25.0197124 C23,26.7058375 21.667778,28 19.9810683,28 C18.2945015,28 17,26.7058375 17,25.0197124 C17,23.3335873 18.2945015,22 19.9810683,22" id="Fill-4" fill="#CACEE2"></path>
            </g>
        </g>
    </g>
</svg>