<svg width="77" height="27" viewBox="0 0 77 27" fill="none" xmlns="http://www.w3.org/2000/svg">
<path fill-rule="evenodd" clip-rule="evenodd" d="M7.46359 4.08972C8.5837 4.26821 9.19573 4.88694 9.3954 6.28739L13.4994 6.28739C13.4994 4.99884 12.6292 1.94921 10.2017 0.766282C8.72976 0.0888481 7.18702 -0.0198644 5.62306 0.208784C4.26379 0.407534 3.02444 0.929679 1.94838 1.91271C-0.358527 4.02021 -0.608642 9.30391 3.08637 10.749C3.81167 11.0327 4.75876 11.2566 5.70231 11.4797C6.85728 11.7528 8.00693 12.0246 8.73795 12.4032C9.18105 12.6326 9.48999 12.9915 9.53025 13.5674C9.57527 14.2123 9.22237 14.8386 8.59698 15.1746C7.81948 15.5924 6.97773 15.6299 6.17689 15.4023C5.37606 15.1746 4.44951 14.338 4.3724 13.0524C4.3724 13.0524 0.0828006 13.0178 0.00229381 13.031C0.00229381 13.0645 0.00175268 13.1029 0.00119608 13.1424C6.61022e-05 13.2226 -0.00112766 13.3074 0.0020131 13.3649C0.141356 15.9214 1.2625 17.7122 3.34756 18.7651C9.77264 21.5751 14.0795 17.541 13.9644 13.0691C13.9038 11.3752 13.3447 8.82161 7.28802 7.64999C7.23778 7.63762 7.17782 7.62395 7.11007 7.6085C6.23512 7.40899 4.0609 6.91323 4.74237 5.08451C5.20268 3.84926 6.84017 3.99725 7.46359 4.08972ZM67.6087 0.102081C70.1928 0.0502089 72.1799 1.12729 73.4951 2.29149C75.0086 3.69114 75.9842 5.35725 76.5065 7.4099C77.7158 12.4826 75.1913 16.9426 72.3544 18.6773C70.4674 20.0111 66.5617 20.8654 63.268 18.5982V26.0169L58.7832 26.0169L58.7764 0.423286L62.4462 0.423286L63.268 1.50694C64.8458 0.472519 66.1861 0.170112 67.6087 0.102081ZM63.2865 10.1044C63.2865 12.9967 65.3596 15.3414 67.9168 15.3414C70.4741 15.3414 72.5471 12.9967 72.5471 10.1044C72.5471 7.21202 70.4741 4.86731 67.9168 4.86731C65.3596 4.86731 63.2865 7.21202 63.2865 10.1044ZM17.9918 0.100281L13.3847 0.121205L18.7283 19.0637L22.2872 19.0637L25.9335 8.80343L29.5851 19.0637H33.1448L38.4083 0.121205L33.8671 0.100281L30.8245 10.9906L27.7593 0.100281L24.0899 0.100281L21.0549 10.9906L17.9918 0.100281ZM46.7318 4.85079C44.1742 4.85079 42.101 7.1696 42.101 10.03C42.101 12.8905 44.1742 15.2093 46.7318 15.2093C49.2893 15.2093 51.3626 12.8905 51.3626 10.03C51.3626 7.1696 49.2893 4.85079 46.7318 4.85079ZM52.1429 0.425574L55.8666 0.415242L55.8666 19.401L52.1449 19.4151C52.1449 19.4151 51.4775 18.2784 51.439 18.1786L51.4378 18.1797C51.3553 18.2522 49.4263 19.9484 45.9256 19.6636C44.8001 19.7184 39.5664 18.4501 38.138 12.4319C37.4662 9.96667 37.8833 6.67095 39.3638 4.3298C40.7217 2.25007 42.4688 0.864845 44.9791 0.281673C48.5861 -0.419974 51.439 1.59268 51.439 1.59268L52.1429 0.425574Z" fill="#9F9F9F"/>
</svg>
