<?xml version="1.0" encoding="UTF-8"?>
<svg width="33px" height="24px" viewBox="0 0 33 24" version="1.1" xmlns="http://www.w3.org/2000/svg" xmlns:xlink="http://www.w3.org/1999/xlink">
    <title>logo-CF</title>
    <g id="UI-Library" stroke="none" stroke-width="1" fill="none" fill-rule="evenodd">
        <g transform="translate(-19.000000, -10.000000)" fill="#FFFFFF" id="logo">
            <g transform="translate(19.000000, 10.000000)" id="logo-CF">
                <path d="M13.812245,6.09092 L7.406203,6.09092 C6.917198,6.09092 6.261848,6.008046 6.085728,6.528082 L1.002439,20.611668 L1.002439,1.924934 C1.002439,1.48841 1.674636,1.004982 2.09151,1.004982 L7.830064,1.004982 L7.830234,1.004982 L8.197927,1.004982 C8.616824,1.004982 9.079139,1.358434 9.229929,1.794364 L9.541607,3.909268 L15.235859,3.909268 L13.812245,6.09092 Z" id="Rounded-Rectangle-2"></path>
                <path d="M7.72992,7.533836 L13.9912,7.52904 L9.41312,21.123346 C9.352864,21.310214 9.159424,21.908724 9.159424,21.908724 C9.159424,21.908724 8.668384,21.92276 8.44064,21.92276 L3.094272,21.92276 L2.298656,21.921088 L7.151936,7.52904 C7.151936,7.52904 7.515936,7.533836 7.72992,7.533836 Z" id="Shape-sp-25-0"></path>
                <path d="M17.03264,5.358256 L23.055264,5.353856 L17.496896,21.302272 C17.432416,21.484322 17.2256,22.06862 17.2256,22.06862 C17.2256,22.06862 16.700544,22.081798 16.457248,22.081798 L11.108928,22.081798 L10.258336,22.080544 L16.11072,5.353856 C16.11072,5.353856 16.80384,5.358256 17.03264,5.358256 Z" id="Shape-sp-25-0"></path>
                <path d="M25.104864,3.90278 C25.104864,3.90278 28.36672,3.900888 30.254176,3.899216 C30.607456,3.899216 31.971168,3.725724 31.527104,5.229556 C30.326656,9.269768 26.205504,21.299126 26.205504,21.299126 C26.143296,21.481814 25.943552,22.068202 25.943552,22.068202 C25.943552,22.068202 25.437216,22.081798 25.202304,22.081798 L19.617568,22.081798 L18.796864,22.080544 L25.104864,3.90278 Z" id="Shape-sp-25-0"></path>
            </g>
        </g>
    </g>
</svg>