<svg width="76" height="142" viewBox="0 0 76 142" fill="none" xmlns="http://www.w3.org/2000/svg">
<path d="M18.5893 136.913C18.5893 140.087 15.2465 141.737 13.27 141.737C8.89328 141.737 4.97316 139.385 8.16439 136.149H8.26433C8.6193 138.561 10.5044 141.645 13.239 141.607C15.3671 141.639 16.5836 140.66 16.5836 139.44C16.5836 137.974 15.3068 137.638 12.7841 136.67C10.1701 135.661 7.31317 134.653 7.31317 131.447C7.31317 128.425 10.4148 126.773 12.6015 126.773C17.1901 126.773 19.7438 129.583 17.1005 132.057H17.0092C16.8266 129.675 15.6411 126.863 12.8737 126.896C10.289 126.865 9.31717 128.209 9.31717 129.278C9.31717 130.469 10.8973 130.926 13.482 131.996C16.0356 133.004 18.5893 133.767 18.5893 136.913Z" fill="white"/>
<path d="M33.8166 132.086V141.434H29.5002V131.324C29.5002 128.79 29.1659 127.507 28.0114 127.507C26.7035 127.507 25.3974 129.094 25.1837 133.064V141.434H20.8673V121.46C22.4947 121.184 24.0001 120.417 25.1837 119.262V131.508C25.5783 128.544 26.7949 126.744 29.8362 126.744C32.4174 126.744 33.7856 128.575 33.8166 132.086Z" fill="white"/>
<path d="M48.8905 135.658C48.284 138.743 46.0043 141.705 42.5149 141.705C38.4122 141.705 36.0721 138.163 36.0721 134.261C36.0721 130.323 38.7154 126.779 42.9095 126.779C46.8917 126.779 48.5028 130.108 48.5338 133.07H48.5028L48.5338 133.131H40.2628C40.4144 136.368 41.9342 138.445 44.7602 138.445C46.4626 138.445 48.134 137.375 48.713 135.665L48.8905 135.658ZM40.2593 132.636V132.972H44.9118C44.9118 129.855 44.5465 126.926 42.7837 126.926C40.9589 126.926 40.2593 129.734 40.2593 132.636Z" fill="white"/>
<path d="M50.7756 121.46C52.3999 121.182 53.902 120.416 55.0835 119.262V141.434H50.7756V121.46Z" fill="white"/>
<path d="M62.9323 124.393V127.171H63.0236L68.0086 126.957V129.614L63.0236 127.263H62.9323V141.434H58.6469V127.263H56.4895V127.171H58.6469V125.736C58.6469 121.125 60.8663 119.781 64.4831 119.781C68.274 119.781 70.5003 122.987 67.826 125.369H67.7346C67.4004 122.987 66.6715 119.873 64.5744 119.873C62.7806 119.873 62.9323 122.565 62.9323 124.393Z" fill="white"/>
<path d="M75.2134 24.2607C75.2134 21.1301 76.4308 15.2169 69.1262 12.0885C61.8216 8.96006 58.2573 9.26067 49.6472 13.9565C43.2852 17.4284 25.3007 28.001 21.1266 30.3478C16.9526 32.6947 12.8665 33.7403 6.86524 31.3914C0.863948 29.0424 2.75559 25.2505 6.34348 23.2171C10.2577 21.0013 43.7361 1.13155 43.7361 1.13155L42.1258 0C36.0837 3.78328 8.03973 20.078 4.5184 22.2617C-1.51724 25.987 -0.0893858 31.2174 0.868244 64.5219C1.17529 75.2126 1.12805 86.6955 1.12805 86.6955C1.12805 86.6955 4.51625 96.8 17.9982 95.9133C20.5898 95.7415 20.9548 95.9991 20.9548 95.9991L20.6049 32.9609C20.6049 32.9609 51.0386 15.3951 55.7344 13.3102C60.4302 11.2253 64.6601 11.3778 68.7783 13.832C72.7355 16.1788 71.692 20.3099 68.0397 22.5709C64.95 24.4818 34.7782 42.5265 34.7782 42.5265V103.564L36.6054 105C36.6054 105 68.9523 85.1732 71.0393 84.1297C73.1263 83.0862 75.0867 81.2589 75.2134 77.3468C75.821 58.4777 75.2134 40.0873 75.2134 24.2607Z" fill="white"/>
<path d="M62.863 15.2163C63.3096 14.9587 65.6027 14.044 64.0375 13.5222C62.6268 13.052 60.3873 14.9243 59.4275 15.5212C39.0811 28.3032 25.1246 36.1339 25.1246 36.1339L25.9062 97.5682L27.2138 98.5194L26.6899 37.1774C26.6899 37.1774 46.9526 24.4791 62.863 15.2163Z" fill="white"/>
<path d="M5.64564 28.4C6.86951 29.6432 8.71606 27.8525 10.2577 27.0001C19.3359 21.9779 35.5941 14.3104 47.1694 3.65196L45.8661 3.00781C33.2322 15.5686 11.2003 24.2281 8.82342 25.9566C7.29465 27.0688 4.90916 27.6528 5.64564 28.4Z" fill="white"/>
<path d="M11.7113 31.0285C13.2036 31.3077 14.2879 30.305 15.1725 29.7789C19.8683 26.964 39.474 15.393 51.6054 6.26115L50.0015 5.64062C42.7269 12.2195 16.055 27.7692 14.4317 28.6967C12.8085 29.6243 9.13902 30.5497 11.7113 31.0285Z" fill="white"/>
<path d="M67.2131 17.5224C67.6426 17.2519 69.5621 16.5712 67.9968 16.0495C66.5862 15.5793 66.3478 16.2857 65.169 17.0866C59.7346 20.7818 29.8226 39.1292 29.8226 39.1292V100.211L31.2398 101.386L30.9971 39.651C30.9971 39.651 50.562 27.7815 67.2131 17.5224Z" fill="white"/>
</svg>
