<svg width="239" height="292" viewBox="0 0 239 292" fill="none" xmlns="http://www.w3.org/2000/svg">
<mask id="mask0_0_7923" style="mask-type:luminance" maskUnits="userSpaceOnUse" x="0" y="0" width="145" height="292">
<path fill-rule="evenodd" clip-rule="evenodd" d="M0.00012207 0.656616H144.392V291.565H0.00012207V0.656616Z" fill="white"/>
</mask>
<g mask="url(#mask0_0_7923)">
<path fill-rule="evenodd" clip-rule="evenodd" d="M46.431 59.7563L58.6519 14.2643C61.5974 4.73089 71.2952 -1.34113 80.9945 1.26003C90.6923 4.29525 96.5832 14.2643 93.6378 24.2239L83.5161 61.9218H114.712C124.834 61.9218 132.839 70.5856 132.839 80.5546C132.839 90.9482 124.834 99.1842 114.712 99.1842H73.4113L37.1555 235.67C35.4632 241.298 36.3093 246.499 38.8324 249.97C40.9471 252.571 43.8925 254.303 47.6841 254.303C54.0142 254.303 59.9204 249.534 67.0813 241.298L112.579 179.364C119.333 171.564 130.708 170.268 138.306 176.765C145.889 183.697 146.313 195.397 139.983 203.199L95.754 263.836C85.6308 275.535 71.2952 291.565 47.6841 291.565C32.5177 291.565 18.606 284.633 9.75282 272.498C0.477311 259.503 -2.46812 242.604 2.15427 225.702L17.7583 166.78L46.431 59.7563Z" fill="white"/>
</g>
<path fill-rule="evenodd" clip-rule="evenodd" d="M207.804 230C225.234 230 239 243.78 239 261.204C239 278.627 225.234 292 207.804 292C190.377 292 177 278.627 177 261.204C177 243.78 190.377 230 207.804 230Z" fill="white"/>
</svg>
