<svg width="327" height="215" viewBox="0 0 327 215" fill="none" xmlns="http://www.w3.org/2000/svg">
<rect x="279" y="7" width="48" height="23" rx="11.5" fill="#EAEAEA"/>
<rect x="237" y="7" width="34" height="23" rx="11.5" fill="#EAEAEA"/>
<path d="M248.108 21.132C247.58 21.132 247.125 20.9487 246.744 20.582C246.377 20.2007 246.194 19.746 246.194 19.218C246.194 18.69 246.377 18.2427 246.744 17.876C247.125 17.5093 247.58 17.326 248.108 17.326C248.636 17.326 249.083 17.5093 249.45 17.876C249.816 18.2427 250 18.69 250 19.218C250 19.746 249.816 20.2007 249.45 20.582C249.083 20.9487 248.636 21.132 248.108 21.132ZM254.016 21.132C253.488 21.132 253.033 20.9487 252.652 20.582C252.285 20.2007 252.102 19.746 252.102 19.218C252.102 18.69 252.285 18.2427 252.652 17.876C253.033 17.5093 253.488 17.326 254.016 17.326C254.544 17.326 254.991 17.5093 255.358 17.876C255.725 18.2427 255.908 18.69 255.908 19.218C255.908 19.746 255.725 20.2007 255.358 20.582C254.991 20.9487 254.544 21.132 254.016 21.132ZM259.924 21.132C259.396 21.132 258.941 20.9487 258.56 20.582C258.193 20.2007 258.01 19.746 258.01 19.218C258.01 18.69 258.193 18.2427 258.56 17.876C258.941 17.5093 259.396 17.326 259.924 17.326C260.452 17.326 260.899 17.5093 261.266 17.876C261.633 18.2427 261.816 18.69 261.816 19.218C261.816 19.746 261.633 20.2007 261.266 20.582C260.899 20.9487 260.452 21.132 259.924 21.132Z" fill="#6B6B6B"/>
<path d="M292.957 20.708C292.957 21.46 292.681 22.064 292.129 22.52C291.569 22.968 290.889 23.192 290.089 23.192C289.377 23.192 288.749 22.984 288.205 22.568C287.661 22.152 287.285 21.584 287.077 20.864L288.133 20.432C288.205 20.688 288.305 20.92 288.433 21.128C288.561 21.336 288.709 21.516 288.877 21.668C289.053 21.812 289.245 21.928 289.453 22.016C289.661 22.096 289.881 22.136 290.113 22.136C290.617 22.136 291.029 22.008 291.349 21.752C291.669 21.488 291.829 21.14 291.829 20.708C291.829 20.348 291.697 20.04 291.433 19.784C291.185 19.536 290.721 19.296 290.041 19.064C289.353 18.816 288.925 18.648 288.757 18.56C287.845 18.096 287.389 17.412 287.389 16.508C287.389 15.876 287.641 15.336 288.145 14.888C288.657 14.44 289.285 14.216 290.029 14.216C290.685 14.216 291.253 14.384 291.733 14.72C292.213 15.048 292.533 15.46 292.693 15.956L291.661 16.388C291.565 16.068 291.373 15.804 291.085 15.596C290.805 15.38 290.461 15.272 290.053 15.272C289.621 15.272 289.257 15.392 288.961 15.632C288.665 15.856 288.517 16.148 288.517 16.508C288.517 16.804 288.633 17.06 288.865 17.276C289.121 17.492 289.677 17.748 290.533 18.044C291.405 18.34 292.025 18.704 292.393 19.136C292.769 19.56 292.957 20.084 292.957 20.708ZM296.734 23.192C295.87 23.192 295.158 22.896 294.598 22.304C294.038 21.712 293.758 20.964 293.758 20.06C293.758 19.164 294.03 18.42 294.574 17.828C295.118 17.228 295.814 16.928 296.662 16.928C297.534 16.928 298.226 17.212 298.738 17.78C299.258 18.34 299.518 19.128 299.518 20.144L299.506 20.264H294.886C294.902 20.84 295.094 21.304 295.462 21.656C295.83 22.008 296.27 22.184 296.782 22.184C297.486 22.184 298.038 21.832 298.438 21.128L299.422 21.608C299.158 22.104 298.79 22.492 298.318 22.772C297.854 23.052 297.326 23.192 296.734 23.192ZM294.97 19.352H298.342C298.31 18.944 298.142 18.608 297.838 18.344C297.542 18.072 297.142 17.936 296.638 17.936C296.222 17.936 295.862 18.064 295.558 18.32C295.262 18.576 295.066 18.92 294.97 19.352ZM303.226 23.192C302.362 23.192 301.65 22.896 301.09 22.304C300.53 21.712 300.25 20.964 300.25 20.06C300.25 19.164 300.522 18.42 301.066 17.828C301.61 17.228 302.306 16.928 303.154 16.928C304.026 16.928 304.718 17.212 305.23 17.78C305.75 18.34 306.01 19.128 306.01 20.144L305.998 20.264H301.378C301.394 20.84 301.586 21.304 301.954 21.656C302.322 22.008 302.762 22.184 303.274 22.184C303.978 22.184 304.53 21.832 304.93 21.128L305.914 21.608C305.65 22.104 305.282 22.492 304.81 22.772C304.346 23.052 303.818 23.192 303.226 23.192ZM301.462 19.352H304.834C304.802 18.944 304.634 18.608 304.33 18.344C304.034 18.072 303.634 17.936 303.13 17.936C302.714 17.936 302.354 18.064 302.05 18.32C301.754 18.576 301.558 18.92 301.462 19.352ZM310.46 21.2C310.46 21.488 310.58 21.728 310.82 21.92C311.068 22.112 311.356 22.208 311.684 22.208C312.148 22.208 312.56 22.036 312.92 21.692C313.288 21.348 313.472 20.944 313.472 20.48C313.128 20.208 312.648 20.072 312.032 20.072C311.584 20.072 311.208 20.18 310.904 20.396C310.608 20.612 310.46 20.88 310.46 21.2ZM311.888 16.928C312.704 16.928 313.348 17.148 313.82 17.588C314.292 18.02 314.528 18.616 314.528 19.376V23H313.472V22.184H313.424C312.968 22.856 312.36 23.192 311.6 23.192C310.952 23.192 310.408 23 309.968 22.616C309.536 22.232 309.32 21.752 309.32 21.176C309.32 20.568 309.548 20.084 310.004 19.724C310.468 19.364 311.084 19.184 311.852 19.184C312.508 19.184 313.048 19.304 313.472 19.544V19.292C313.472 18.908 313.32 18.584 313.016 18.32C312.712 18.048 312.356 17.912 311.948 17.912C311.332 17.912 310.844 18.172 310.484 18.692L309.512 18.08C310.048 17.312 310.84 16.928 311.888 16.928ZM316.878 14.408V23H315.774V14.408H316.878ZM319.327 14.408V23H318.223V14.408H319.327Z" fill="#6B6B6B"/>
<path d="M7.936 18.928C7.70133 18.672 7.408 18.4427 7.056 18.24C6.71467 18.0373 6.224 17.936 5.584 17.936C4.912 17.936 4.41067 18.0587 4.08 18.304C3.74933 18.5387 3.584 18.8427 3.584 19.216C3.584 19.344 3.616 19.4827 3.68 19.632C3.744 19.7813 3.872 19.9253 4.064 20.064C4.256 20.2027 4.528 20.3253 4.88 20.432L7.408 21.152C8.38933 21.4187 9.104 21.8507 9.552 22.448C10 23.0347 10.224 23.7173 10.224 24.496C10.224 25.2427 10.032 25.8933 9.648 26.448C9.264 26.992 8.71467 27.4133 8 27.712C7.28533 28.0107 6.43733 28.16 5.456 28.16C4.73067 28.16 4.048 28.08 3.408 27.92C2.77867 27.7493 2.21867 27.5093 1.728 27.2C1.248 26.88 0.869333 26.512 0.592 26.096C0.538667 25.9893 0.517333 25.904 0.528 25.84C0.538667 25.7653 0.592 25.6907 0.688 25.616L1.92 24.768C2.048 24.6933 2.14933 24.6613 2.224 24.672C2.30933 24.6827 2.384 24.7253 2.448 24.8C2.704 25.12 2.95467 25.3867 3.2 25.6C3.456 25.8133 3.74933 25.968 4.08 26.064C4.41067 26.16 4.80533 26.208 5.264 26.208C5.95733 26.208 6.512 26.1013 6.928 25.888C7.344 25.664 7.552 25.3227 7.552 24.864C7.552 24.6827 7.50933 24.5173 7.424 24.368C7.33867 24.208 7.2 24.0693 7.008 23.952C6.82667 23.824 6.56533 23.7067 6.224 23.6L3.808 22.912C3.17867 22.7307 2.65067 22.4747 2.224 22.144C1.79733 21.8133 1.472 21.424 1.248 20.976C1.03467 20.528 0.928 20.0587 0.928 19.568C0.928 18.8853 1.11467 18.272 1.488 17.728C1.872 17.184 2.40533 16.7573 3.088 16.448C3.78133 16.128 4.58667 15.968 5.504 15.968C6.112 15.968 6.67733 16.0373 7.2 16.176C7.73333 16.3147 8.21333 16.5067 8.64 16.752C9.06667 16.9973 9.41333 17.296 9.68 17.648C9.72267 17.7013 9.75467 17.7653 9.776 17.84C9.79733 17.904 9.76533 17.9733 9.68 18.048L8.336 19.04C8.272 19.0827 8.21333 19.0987 8.16 19.088C8.10667 19.0667 8.032 19.0133 7.936 18.928ZM15.5801 19.36C16.2735 19.36 16.8601 19.4827 17.3401 19.728C17.8308 19.9627 18.2308 20.2667 18.5401 20.64C18.8495 21.0133 19.0681 21.3973 19.1961 21.792C19.2708 22.0053 19.2068 22.1173 19.0041 22.128L17.3241 22.288C17.2068 22.2987 17.1268 22.24 17.0841 22.112C16.9881 21.9093 16.8815 21.7227 16.7641 21.552C16.6468 21.3813 16.5028 21.2427 16.3321 21.136C16.1615 21.0293 15.9375 20.976 15.6601 20.976C15.2975 20.976 14.9775 21.0773 14.7001 21.28C14.4228 21.4827 14.2041 21.792 14.0441 22.208C13.8948 22.6133 13.8201 23.1307 13.8201 23.76C13.8201 24.4 13.9001 24.928 14.0601 25.344C14.2201 25.76 14.4441 26.0693 14.7321 26.272C15.0308 26.4747 15.3828 26.576 15.7881 26.576C16.2575 26.576 16.6255 26.4533 16.8921 26.208C17.1695 25.9627 17.4308 25.632 17.6761 25.216C17.7081 25.1627 17.7401 25.1307 17.7721 25.12C17.8041 25.1093 17.8628 25.1147 17.9481 25.136L19.1321 25.408C19.2495 25.44 19.2868 25.5413 19.2441 25.712C19.1588 25.9467 19.0255 26.208 18.8441 26.496C18.6628 26.784 18.4228 27.0507 18.1241 27.296C17.8361 27.5413 17.4788 27.7493 17.0521 27.92C16.6361 28.08 16.1455 28.16 15.5801 28.16C14.7588 28.16 14.0281 27.9787 13.3881 27.616C12.7481 27.2427 12.2415 26.7307 11.8681 26.08C11.5055 25.4187 11.3241 24.656 11.3241 23.792C11.3241 22.9173 11.5108 22.1493 11.8841 21.488C12.2575 20.816 12.7641 20.2933 13.4041 19.92C14.0441 19.5467 14.7695 19.36 15.5801 19.36ZM22.9846 27.616C22.9846 27.7547 22.9526 27.856 22.8886 27.92C22.8246 27.9733 22.7126 28 22.5526 28H20.8726C20.734 28 20.638 27.9733 20.5846 27.92C20.542 27.8667 20.5206 27.7813 20.5206 27.664V19.824C20.5206 19.6213 20.606 19.52 20.7766 19.52H22.7446C22.9046 19.52 22.9846 19.6107 22.9846 19.792V27.616ZM23.0166 18.096C23.0166 18.3627 22.8726 18.496 22.5846 18.496H20.8566C20.718 18.496 20.622 18.464 20.5686 18.4C20.526 18.336 20.5046 18.2453 20.5046 18.128V16.448C20.5046 16.2347 20.5953 16.128 20.7766 16.128H22.7606C22.9313 16.128 23.0166 16.2293 23.0166 16.432V18.096ZM29.171 24.32C29.171 24.5547 29.0323 24.672 28.755 24.672H24.995C24.867 24.672 24.7763 24.6507 24.723 24.608C24.6803 24.5547 24.659 24.4693 24.659 24.352V23.184C24.659 22.992 24.739 22.896 24.899 22.896H28.931C29.091 22.896 29.171 22.976 29.171 23.136V24.32ZM31.0731 16.432C31.0731 16.2293 31.1585 16.128 31.3291 16.128H39.2651C39.4251 16.128 39.5051 16.2187 39.5051 16.4L39.4891 17.84C39.4891 18.064 39.3825 18.176 39.1691 18.176H34.1771C33.9745 18.176 33.8731 18.2613 33.8731 18.432V20.912C33.8731 21.0827 33.9531 21.168 34.1131 21.168H37.5851C37.7558 21.168 37.8411 21.2533 37.8411 21.424V22.944C37.8411 23.0933 37.7611 23.168 37.6011 23.168H34.0971C33.9478 23.168 33.8731 23.2373 33.8731 23.376V27.632C33.8731 27.8773 33.7345 28 33.4571 28H31.4251C31.2865 28 31.1905 27.9733 31.1371 27.92C31.0945 27.8667 31.0731 27.7813 31.0731 27.664V16.432ZM43.3909 27.616C43.3909 27.7547 43.3589 27.856 43.2949 27.92C43.2309 27.9733 43.1189 28 42.9589 28H41.2789C41.1402 28 41.0442 27.9733 40.9909 27.92C40.9482 27.8667 40.9269 27.7813 40.9269 27.664V19.824C40.9269 19.6213 41.0122 19.52 41.1829 19.52H43.1509C43.3109 19.52 43.3909 19.6107 43.3909 19.792V27.616ZM43.4229 18.096C43.4229 18.3627 43.2789 18.496 42.9909 18.496H41.2629C41.1242 18.496 41.0282 18.464 40.9749 18.4C40.9322 18.336 40.9109 18.2453 40.9109 18.128V16.448C40.9109 16.2347 41.0015 16.128 41.1829 16.128H43.1669C43.3375 16.128 43.4229 16.2293 43.4229 16.432V18.096Z" fill="black"/>
<path d="M51.2981 19.216C50.7461 19.872 50.2981 20.648 49.9541 21.544C49.6181 22.424 49.4501 23.288 49.4501 24.136C49.4501 24.992 49.6181 25.856 49.9541 26.728C50.2981 27.624 50.7461 28.4 51.2981 29.056L50.4821 29.632C49.8181 28.856 49.2941 27.992 48.9101 27.04C48.5341 26.056 48.3461 25.088 48.3461 24.136C48.3461 23.176 48.5341 22.212 48.9101 21.244C49.2861 20.292 49.8101 19.424 50.4821 18.64L51.2981 19.216ZM52.0671 23.896C52.0671 22.648 52.3751 21.62 52.9911 20.812C53.6071 20.004 54.3991 19.6 55.3671 19.6C56.3351 19.6 57.1271 20.008 57.7431 20.824C58.3591 21.632 58.6671 22.656 58.6671 23.896C58.6671 25.128 58.3591 26.156 57.7431 26.98C57.1271 27.788 56.3351 28.192 55.3671 28.192C54.3991 28.192 53.6071 27.788 52.9911 26.98C52.3751 26.156 52.0671 25.128 52.0671 23.896ZM57.5391 23.896C57.5391 22.952 57.3391 22.176 56.9391 21.568C56.5471 20.96 56.0231 20.656 55.3671 20.656C54.7111 20.656 54.1871 20.96 53.7951 21.568C53.3951 22.176 53.1951 22.952 53.1951 23.896C53.1951 24.84 53.3951 25.62 53.7951 26.236C54.1871 26.836 54.7111 27.136 55.3671 27.136C56.0231 27.136 56.5471 26.832 56.9391 26.224C57.3391 25.608 57.5391 24.832 57.5391 23.896ZM65.6081 28.192C65.1761 28.192 64.7801 28.1 64.4201 27.916C64.0681 27.732 63.7961 27.488 63.6041 27.184H63.5561V28H62.5001V19.408H63.6041V22.12L63.5561 22.936H63.6041C63.7961 22.632 64.0681 22.388 64.4201 22.204C64.7801 22.02 65.1761 21.928 65.6081 21.928C66.3841 21.928 67.0401 22.232 67.5761 22.84C68.1281 23.456 68.4041 24.196 68.4041 25.06C68.4041 25.932 68.1281 26.672 67.5761 27.28C67.0401 27.888 66.3841 28.192 65.6081 28.192ZM65.4281 27.184C65.9561 27.184 66.4001 26.984 66.7601 26.584C67.1201 26.192 67.3001 25.684 67.3001 25.06C67.3001 24.444 67.1201 23.936 66.7601 23.536C66.4001 23.136 65.9561 22.936 65.4281 22.936C64.8921 22.936 64.4441 23.136 64.0841 23.536C63.7321 23.936 63.5561 24.444 63.5561 25.06C63.5561 25.684 63.7321 26.196 64.0841 26.596C64.4441 26.988 64.8921 27.184 65.4281 27.184ZM69.0782 25.06C69.0782 24.156 69.3622 23.408 69.9302 22.816C70.5062 22.224 71.2302 21.928 72.1022 21.928C72.9742 21.928 73.6942 22.224 74.2622 22.816C74.8382 23.408 75.1262 24.156 75.1262 25.06C75.1262 25.972 74.8382 26.72 74.2622 27.304C73.6942 27.896 72.9742 28.192 72.1022 28.192C71.2302 28.192 70.5062 27.896 69.9302 27.304C69.3622 26.712 69.0782 25.964 69.0782 25.06ZM70.1822 25.06C70.1822 25.692 70.3662 26.204 70.7342 26.596C71.1022 26.988 71.5582 27.184 72.1022 27.184C72.6462 27.184 73.1022 26.988 73.4702 26.596C73.8382 26.204 74.0222 25.692 74.0222 25.06C74.0222 24.436 73.8382 23.928 73.4702 23.536C73.0942 23.136 72.6382 22.936 72.1022 22.936C71.5662 22.936 71.1102 23.136 70.7342 23.536C70.3662 23.928 70.1822 24.436 70.1822 25.06ZM75.793 25.06C75.793 24.156 76.077 23.408 76.645 22.816C77.221 22.224 77.945 21.928 78.817 21.928C79.689 21.928 80.409 22.224 80.977 22.816C81.553 23.408 81.841 24.156 81.841 25.06C81.841 25.972 81.553 26.72 80.977 27.304C80.409 27.896 79.689 28.192 78.817 28.192C77.945 28.192 77.221 27.896 76.645 27.304C76.077 26.712 75.793 25.964 75.793 25.06ZM76.897 25.06C76.897 25.692 77.081 26.204 77.449 26.596C77.817 26.988 78.273 27.184 78.817 27.184C79.361 27.184 79.817 26.988 80.185 26.596C80.553 26.204 80.737 25.692 80.737 25.06C80.737 24.436 80.553 23.928 80.185 23.536C79.809 23.136 79.353 22.936 78.817 22.936C78.281 22.936 77.825 23.136 77.449 23.536C77.081 23.928 76.897 24.436 76.897 25.06ZM87.9573 28H86.6253L84.7893 25.228L83.8893 26.116V28H82.7853V19.408H83.8893V24.7L86.4333 22.12H87.8493V22.168L85.5573 24.448L87.9573 27.952V28ZM92.9689 26.368C92.9689 26.88 92.7449 27.312 92.2969 27.664C91.8489 28.016 91.2849 28.192 90.6049 28.192C90.0129 28.192 89.4929 28.04 89.0449 27.736C88.5969 27.424 88.2769 27.016 88.0849 26.512L89.0689 26.092C89.2129 26.444 89.4209 26.72 89.6929 26.92C89.9729 27.112 90.2769 27.208 90.6049 27.208C90.9569 27.208 91.2489 27.132 91.4809 26.98C91.7209 26.828 91.8409 26.648 91.8409 26.44C91.8409 26.064 91.5529 25.788 90.9769 25.612L89.9689 25.36C88.8249 25.072 88.2529 24.52 88.2529 23.704C88.2529 23.168 88.4689 22.74 88.9009 22.42C89.3409 22.092 89.9009 21.928 90.5809 21.928C91.1009 21.928 91.5689 22.052 91.9849 22.3C92.4089 22.548 92.7049 22.88 92.8729 23.296L91.8889 23.704C91.7769 23.456 91.5929 23.264 91.3369 23.128C91.0889 22.984 90.8089 22.912 90.4969 22.912C90.2089 22.912 89.9489 22.984 89.7169 23.128C89.4929 23.272 89.3809 23.448 89.3809 23.656C89.3809 23.992 89.6969 24.232 90.3289 24.376L91.2169 24.604C92.3849 24.892 92.9689 25.48 92.9689 26.368ZM94.3138 18.64C94.6498 19.024 94.9458 19.432 95.2018 19.864C95.4658 20.296 95.6898 20.756 95.8738 21.244C96.2578 22.204 96.4498 23.168 96.4498 24.136C96.4498 25.104 96.2578 26.072 95.8738 27.04C95.5058 27.984 94.9858 28.848 94.3138 29.632L93.4978 29.056C94.0498 28.4 94.4978 27.624 94.8418 26.728C95.1778 25.856 95.3458 24.992 95.3458 24.136C95.3458 23.288 95.1778 22.424 94.8418 21.544C94.4978 20.648 94.0498 19.872 93.4978 19.216L94.3138 18.64Z" fill="#6B6B6B"/>
<path d="M110.321 199.618C110.353 199.693 110.348 199.762 110.305 199.826C110.273 199.89 110.22 199.922 110.145 199.922H108.977C108.86 199.922 108.774 199.858 108.721 199.73L106.657 194.69C106.604 194.573 106.476 194.514 106.273 194.514H103.569C103.494 194.514 103.441 194.53 103.409 194.562C103.388 194.594 103.377 194.637 103.377 194.69V199.666C103.377 199.837 103.286 199.922 103.105 199.922H102.065C101.98 199.922 101.921 199.906 101.889 199.874C101.857 199.832 101.841 199.778 101.841 199.714V188.274C101.841 188.125 101.905 188.05 102.033 188.05H106.497C107.756 188.05 108.732 188.312 109.425 188.834C110.129 189.346 110.481 190.109 110.481 191.122C110.481 191.73 110.364 192.248 110.129 192.674C109.894 193.09 109.596 193.426 109.233 193.682C108.881 193.928 108.518 194.109 108.145 194.226C108.06 194.237 108.038 194.29 108.081 194.386L110.321 199.618ZM106.049 193.394C106.988 193.394 107.692 193.224 108.161 192.882C108.641 192.541 108.881 192.002 108.881 191.266C108.881 190.552 108.668 190.024 108.241 189.682C107.825 189.341 107.217 189.17 106.417 189.17H103.601C103.452 189.17 103.377 189.229 103.377 189.346V193.186C103.377 193.325 103.425 193.394 103.521 193.394H106.049ZM112.964 196.21C112.964 196.733 113.087 197.213 113.332 197.65C113.588 198.077 113.924 198.418 114.34 198.674C114.767 198.93 115.241 199.058 115.764 199.058C116.297 199.058 116.772 198.952 117.188 198.738C117.604 198.514 117.961 198.178 118.26 197.73C118.303 197.688 118.335 197.666 118.356 197.666C118.388 197.656 118.431 197.661 118.484 197.682L119.156 198.018C119.252 198.072 119.263 198.146 119.188 198.242C118.9 198.669 118.58 199.021 118.228 199.298C117.887 199.565 117.503 199.762 117.076 199.89C116.649 200.018 116.169 200.082 115.636 200.082C114.847 200.082 114.148 199.901 113.54 199.538C112.932 199.176 112.452 198.669 112.1 198.018C111.748 197.368 111.572 196.616 111.572 195.762C111.572 194.834 111.748 194.04 112.1 193.378C112.463 192.706 112.948 192.189 113.556 191.826C114.175 191.464 114.863 191.282 115.62 191.282C116.399 191.282 117.076 191.453 117.652 191.794C118.228 192.136 118.676 192.632 118.996 193.282C119.316 193.933 119.476 194.717 119.476 195.634C119.476 195.709 119.465 195.784 119.444 195.858C119.433 195.933 119.364 195.97 119.236 195.97H113.108C113.065 195.97 113.028 195.997 112.996 196.05C112.975 196.093 112.964 196.146 112.964 196.21ZM117.86 195.09C117.977 195.09 118.052 195.08 118.084 195.058C118.116 195.026 118.132 194.962 118.132 194.866C118.132 194.408 118.031 193.981 117.828 193.586C117.636 193.181 117.353 192.856 116.98 192.61C116.617 192.365 116.175 192.242 115.652 192.242C115.076 192.242 114.591 192.381 114.196 192.658C113.801 192.925 113.503 193.277 113.3 193.714C113.097 194.152 112.996 194.61 112.996 195.09H117.86ZM126.245 198.898C125.85 199.282 125.418 199.576 124.949 199.778C124.49 199.981 123.973 200.082 123.397 200.082C122.565 200.082 121.909 199.869 121.429 199.442C120.959 199.016 120.725 198.456 120.725 197.762C120.725 197.197 120.885 196.712 121.205 196.306C121.525 195.89 121.999 195.565 122.629 195.33C123.258 195.085 124.031 194.936 124.949 194.882L126.197 194.786C126.261 194.776 126.319 194.754 126.373 194.722C126.426 194.69 126.453 194.632 126.453 194.546V194.114C126.453 193.538 126.271 193.085 125.909 192.754C125.557 192.413 125.077 192.242 124.469 192.242C123.999 192.242 123.573 192.349 123.189 192.562C122.815 192.776 122.479 193.096 122.181 193.522C122.138 193.576 122.101 193.613 122.069 193.634C122.047 193.645 122.005 193.64 121.941 193.618L121.077 193.33C121.045 193.309 121.018 193.282 120.997 193.25C120.986 193.218 121.002 193.16 121.045 193.074C121.365 192.52 121.813 192.082 122.389 191.762C122.975 191.442 123.69 191.282 124.533 191.282C125.247 191.282 125.839 191.394 126.309 191.618C126.789 191.832 127.146 192.146 127.381 192.562C127.626 192.968 127.749 193.453 127.749 194.018V199.682C127.749 199.778 127.733 199.842 127.701 199.874C127.669 199.906 127.615 199.922 127.541 199.922H126.725C126.65 199.922 126.597 199.901 126.565 199.858C126.533 199.805 126.511 199.741 126.501 199.666L126.485 198.93C126.453 198.781 126.373 198.77 126.245 198.898ZM126.453 195.858C126.453 195.677 126.378 195.592 126.229 195.602L125.173 195.698C124.682 195.72 124.245 195.784 123.861 195.89C123.477 195.986 123.151 196.114 122.885 196.274C122.618 196.434 122.415 196.626 122.277 196.85C122.138 197.064 122.069 197.314 122.069 197.602C122.069 198.072 122.229 198.44 122.549 198.706C122.879 198.962 123.322 199.09 123.877 199.09C124.218 199.09 124.543 199.032 124.853 198.914C125.173 198.786 125.45 198.626 125.685 198.434C125.93 198.232 126.117 198.024 126.245 197.81C126.383 197.597 126.453 197.389 126.453 197.186V195.858ZM130.354 199.922C130.28 199.922 130.221 199.906 130.178 199.874C130.146 199.832 130.13 199.778 130.13 199.714V191.65C130.13 191.512 130.189 191.442 130.306 191.442H131.234C131.352 191.442 131.41 191.501 131.41 191.618V192.658C131.41 192.722 131.426 192.76 131.458 192.77C131.49 192.781 131.533 192.76 131.586 192.706C131.864 192.376 132.136 192.109 132.402 191.906C132.68 191.693 132.957 191.538 133.234 191.442C133.512 191.336 133.789 191.282 134.066 191.282C134.44 191.282 134.626 191.352 134.626 191.49V192.45C134.626 192.557 134.578 192.6 134.482 192.578C134.386 192.568 134.274 192.557 134.146 192.546C134.029 192.536 133.901 192.53 133.762 192.53C133.528 192.53 133.277 192.584 133.01 192.69C132.744 192.786 132.493 192.925 132.258 193.106C132.034 193.288 131.848 193.49 131.698 193.714C131.549 193.938 131.474 194.162 131.474 194.386V199.682C131.474 199.842 131.394 199.922 131.234 199.922H130.354ZM136.479 199.922C136.405 199.922 136.346 199.906 136.303 199.874C136.271 199.832 136.255 199.778 136.255 199.714V191.65C136.255 191.512 136.314 191.442 136.431 191.442H137.359C137.477 191.442 137.535 191.501 137.535 191.618V192.658C137.535 192.722 137.551 192.76 137.583 192.77C137.615 192.781 137.658 192.76 137.711 192.706C137.989 192.376 138.261 192.109 138.527 191.906C138.805 191.693 139.082 191.538 139.359 191.442C139.637 191.336 139.914 191.282 140.191 191.282C140.565 191.282 140.751 191.352 140.751 191.49V192.45C140.751 192.557 140.703 192.6 140.607 192.578C140.511 192.568 140.399 192.557 140.271 192.546C140.154 192.536 140.026 192.53 139.887 192.53C139.653 192.53 139.402 192.584 139.135 192.69C138.869 192.786 138.618 192.925 138.383 193.106C138.159 193.288 137.973 193.49 137.823 193.714C137.674 193.938 137.599 194.162 137.599 194.386V199.682C137.599 199.842 137.519 199.922 137.359 199.922H136.479ZM147.167 198.898C146.772 199.282 146.34 199.576 145.871 199.778C145.412 199.981 144.895 200.082 144.319 200.082C143.487 200.082 142.831 199.869 142.351 199.442C141.881 199.016 141.647 198.456 141.647 197.762C141.647 197.197 141.807 196.712 142.127 196.306C142.447 195.89 142.921 195.565 143.551 195.33C144.18 195.085 144.953 194.936 145.871 194.882L147.119 194.786C147.183 194.776 147.241 194.754 147.295 194.722C147.348 194.69 147.375 194.632 147.375 194.546V194.114C147.375 193.538 147.193 193.085 146.831 192.754C146.479 192.413 145.999 192.242 145.391 192.242C144.921 192.242 144.495 192.349 144.111 192.562C143.737 192.776 143.401 193.096 143.103 193.522C143.06 193.576 143.023 193.613 142.991 193.634C142.969 193.645 142.927 193.64 142.863 193.618L141.999 193.33C141.967 193.309 141.94 193.282 141.919 193.25C141.908 193.218 141.924 193.16 141.967 193.074C142.287 192.52 142.735 192.082 143.311 191.762C143.897 191.442 144.612 191.282 145.455 191.282C146.169 191.282 146.761 191.394 147.231 191.618C147.711 191.832 148.068 192.146 148.303 192.562C148.548 192.968 148.671 193.453 148.671 194.018V199.682C148.671 199.778 148.655 199.842 148.623 199.874C148.591 199.906 148.537 199.922 148.463 199.922H147.647C147.572 199.922 147.519 199.901 147.487 199.858C147.455 199.805 147.433 199.741 147.423 199.666L147.407 198.93C147.375 198.781 147.295 198.77 147.167 198.898ZM147.375 195.858C147.375 195.677 147.3 195.592 147.151 195.602L146.095 195.698C145.604 195.72 145.167 195.784 144.783 195.89C144.399 195.986 144.073 196.114 143.807 196.274C143.54 196.434 143.337 196.626 143.199 196.85C143.06 197.064 142.991 197.314 142.991 197.602C142.991 198.072 143.151 198.44 143.471 198.706C143.801 198.962 144.244 199.09 144.799 199.09C145.14 199.09 145.465 199.032 145.775 198.914C146.095 198.786 146.372 198.626 146.607 198.434C146.852 198.232 147.039 198.024 147.167 197.81C147.305 197.597 147.375 197.389 147.375 197.186V195.858ZM151.276 199.922C151.127 199.922 151.052 199.853 151.052 199.714V191.65C151.052 191.512 151.111 191.442 151.228 191.442H152.188C152.306 191.442 152.364 191.501 152.364 191.618V192.546C152.364 192.6 152.375 192.632 152.396 192.642C152.418 192.653 152.455 192.637 152.508 192.594C152.86 192.317 153.186 192.082 153.484 191.89C153.794 191.688 154.108 191.538 154.428 191.442C154.748 191.336 155.09 191.282 155.452 191.282C156.284 191.282 156.919 191.506 157.356 191.954C157.804 192.402 158.028 192.984 158.028 193.698V199.666C158.028 199.837 157.948 199.922 157.788 199.922H156.892C156.818 199.922 156.764 199.906 156.732 199.874C156.7 199.832 156.684 199.778 156.684 199.714V194.002C156.684 193.48 156.551 193.074 156.284 192.786C156.018 192.488 155.596 192.338 155.02 192.338C154.711 192.338 154.418 192.392 154.14 192.498C153.874 192.594 153.602 192.738 153.324 192.93C153.047 193.112 152.738 193.346 152.396 193.634V199.682C152.396 199.842 152.316 199.922 152.156 199.922H151.276ZM168.06 191.298C168.167 191.298 168.241 191.32 168.284 191.362C168.337 191.405 168.364 191.469 168.364 191.554V192.114C168.364 192.21 168.337 192.285 168.284 192.338C168.241 192.392 168.161 192.413 168.044 192.402C167.873 192.402 167.724 192.413 167.596 192.434C167.468 192.456 167.34 192.493 167.212 192.546C166.956 192.642 166.849 192.765 166.892 192.914C166.945 193.032 167.004 193.176 167.068 193.346C167.132 193.506 167.164 193.725 167.164 194.002C167.164 194.472 167.041 194.904 166.796 195.298C166.551 195.682 166.167 195.992 165.644 196.226C165.132 196.461 164.481 196.578 163.692 196.578C163.148 196.578 162.721 196.61 162.412 196.674C162.103 196.738 161.884 196.824 161.756 196.93C161.628 197.037 161.564 197.149 161.564 197.266C161.564 197.437 161.676 197.56 161.9 197.634C162.135 197.709 162.508 197.762 163.02 197.794L165.084 197.906C166.023 197.96 166.711 198.184 167.148 198.578C167.585 198.973 167.804 199.49 167.804 200.13C167.804 200.93 167.447 201.56 166.732 202.018C166.028 202.488 165.02 202.722 163.708 202.722C162.353 202.722 161.319 202.525 160.604 202.13C159.9 201.746 159.548 201.192 159.548 200.466C159.548 200.093 159.676 199.757 159.932 199.458C160.199 199.16 160.572 198.893 161.052 198.658C161.169 198.605 161.169 198.546 161.052 198.482C160.817 198.376 160.636 198.248 160.508 198.098C160.38 197.938 160.316 197.752 160.316 197.538C160.316 197.389 160.364 197.24 160.46 197.09C160.556 196.941 160.695 196.802 160.876 196.674C161.068 196.546 161.297 196.434 161.564 196.338C161.628 196.317 161.66 196.29 161.66 196.258C161.66 196.226 161.633 196.189 161.58 196.146C161.111 195.912 160.764 195.618 160.54 195.266C160.316 194.914 160.204 194.493 160.204 194.002C160.204 193.17 160.519 192.514 161.148 192.034C161.777 191.554 162.668 191.314 163.82 191.314C164.375 191.314 164.844 191.378 165.228 191.506C165.623 191.634 165.953 191.81 166.22 192.034C166.284 192.088 166.343 192.114 166.396 192.114C166.449 192.114 166.503 192.088 166.556 192.034C166.684 191.917 166.828 191.805 166.988 191.698C167.148 191.581 167.319 191.485 167.5 191.41C167.692 191.336 167.879 191.298 168.06 191.298ZM163.692 195.73C164.439 195.73 164.993 195.581 165.356 195.282C165.719 194.973 165.9 194.541 165.9 193.986C165.9 193.421 165.719 192.978 165.356 192.658C164.993 192.328 164.439 192.162 163.692 192.162C162.977 192.162 162.423 192.328 162.028 192.658C161.644 192.978 161.452 193.421 161.452 193.986C161.452 194.541 161.644 194.973 162.028 195.282C162.423 195.581 162.977 195.73 163.692 195.73ZM162.284 198.882C162.092 198.872 161.879 198.93 161.644 199.058C161.409 199.176 161.201 199.341 161.02 199.554C160.839 199.768 160.748 200.018 160.748 200.306C160.748 200.637 160.86 200.92 161.084 201.154C161.319 201.4 161.665 201.581 162.124 201.698C162.593 201.826 163.169 201.89 163.852 201.89C164.737 201.89 165.409 201.757 165.868 201.49C166.327 201.234 166.556 200.834 166.556 200.29C166.556 199.938 166.433 199.65 166.188 199.426C165.953 199.202 165.543 199.074 164.956 199.042L162.284 198.882ZM170.636 196.21C170.636 196.733 170.758 197.213 171.004 197.65C171.26 198.077 171.596 198.418 172.012 198.674C172.438 198.93 172.913 199.058 173.436 199.058C173.969 199.058 174.444 198.952 174.86 198.738C175.276 198.514 175.633 198.178 175.932 197.73C175.974 197.688 176.006 197.666 176.028 197.666C176.06 197.656 176.102 197.661 176.156 197.682L176.828 198.018C176.924 198.072 176.934 198.146 176.86 198.242C176.572 198.669 176.252 199.021 175.9 199.298C175.558 199.565 175.174 199.762 174.748 199.89C174.321 200.018 173.841 200.082 173.308 200.082C172.518 200.082 171.82 199.901 171.212 199.538C170.604 199.176 170.124 198.669 169.772 198.018C169.42 197.368 169.244 196.616 169.244 195.762C169.244 194.834 169.42 194.04 169.772 193.378C170.134 192.706 170.62 192.189 171.228 191.826C171.846 191.464 172.534 191.282 173.292 191.282C174.07 191.282 174.748 191.453 175.324 191.794C175.9 192.136 176.348 192.632 176.668 193.282C176.988 193.933 177.148 194.717 177.148 195.634C177.148 195.709 177.137 195.784 177.116 195.858C177.105 195.933 177.036 195.97 176.908 195.97H170.78C170.737 195.97 170.7 195.997 170.668 196.05C170.646 196.093 170.636 196.146 170.636 196.21ZM175.532 195.09C175.649 195.09 175.724 195.08 175.756 195.058C175.788 195.026 175.804 194.962 175.804 194.866C175.804 194.408 175.702 193.981 175.5 193.586C175.308 193.181 175.025 192.856 174.652 192.61C174.289 192.365 173.846 192.242 173.324 192.242C172.748 192.242 172.262 192.381 171.868 192.658C171.473 192.925 171.174 193.277 170.972 193.714C170.769 194.152 170.668 194.61 170.668 195.09H175.532ZM187.547 193.314C187.333 192.994 187.035 192.733 186.651 192.53C186.267 192.328 185.808 192.226 185.275 192.226C184.699 192.226 184.219 192.349 183.835 192.594C183.461 192.84 183.275 193.17 183.275 193.586C183.275 193.81 183.36 194.024 183.531 194.226C183.701 194.418 184.048 194.6 184.571 194.77L186.603 195.378C187.339 195.581 187.867 195.874 188.187 196.258C188.517 196.642 188.683 197.085 188.683 197.586C188.683 198.088 188.533 198.525 188.235 198.898C187.936 199.272 187.525 199.565 187.003 199.778C186.48 199.981 185.888 200.082 185.227 200.082C184.384 200.082 183.648 199.917 183.019 199.586C182.389 199.245 181.941 198.824 181.675 198.322C181.643 198.269 181.627 198.221 181.627 198.178C181.627 198.136 181.653 198.098 181.707 198.066L182.331 197.714C182.384 197.682 182.432 197.672 182.475 197.682C182.517 197.682 182.549 197.698 182.571 197.73C182.752 198.008 182.96 198.248 183.195 198.45C183.44 198.653 183.728 198.813 184.059 198.93C184.4 199.048 184.795 199.106 185.243 199.106C185.648 199.096 186.016 199.037 186.347 198.93C186.677 198.824 186.939 198.669 187.131 198.466C187.323 198.253 187.419 198.008 187.419 197.73C187.419 197.442 187.301 197.197 187.067 196.994C186.832 196.781 186.427 196.594 185.851 196.434L184.203 195.97C183.403 195.757 182.837 195.469 182.507 195.106C182.187 194.744 182.021 194.317 182.011 193.826C182.011 193.314 182.149 192.872 182.427 192.498C182.704 192.114 183.088 191.816 183.579 191.602C184.08 191.389 184.651 191.282 185.291 191.282C186.005 191.282 186.64 191.421 187.195 191.698C187.76 191.965 188.187 192.322 188.475 192.77C188.507 192.813 188.523 192.856 188.523 192.898C188.523 192.93 188.501 192.962 188.459 192.994L187.787 193.362C187.744 193.384 187.701 193.394 187.659 193.394C187.627 193.384 187.589 193.357 187.547 193.314ZM190.87 199.922C190.731 199.922 190.662 199.853 190.662 199.714V188.258C190.662 188.12 190.721 188.05 190.838 188.05H191.782C191.899 188.05 191.958 188.114 191.958 188.242V192.514C191.958 192.568 191.969 192.6 191.99 192.61C192.011 192.621 192.049 192.605 192.102 192.562C192.475 192.274 192.817 192.034 193.126 191.842C193.446 191.65 193.755 191.512 194.054 191.426C194.363 191.33 194.699 191.282 195.062 191.282C195.894 191.282 196.529 191.506 196.966 191.954C197.403 192.392 197.622 192.978 197.622 193.714V199.666C197.622 199.837 197.542 199.922 197.382 199.922H196.486C196.411 199.922 196.358 199.906 196.326 199.874C196.294 199.832 196.278 199.778 196.278 199.714V194.002C196.278 193.48 196.145 193.074 195.878 192.786C195.611 192.488 195.19 192.338 194.614 192.338C194.305 192.338 194.011 192.392 193.734 192.498C193.467 192.594 193.195 192.738 192.918 192.93C192.641 193.112 192.337 193.346 192.006 193.634V199.682C192.006 199.842 191.921 199.922 191.75 199.922H190.87ZM200.886 196.21C200.886 196.733 201.008 197.213 201.254 197.65C201.51 198.077 201.846 198.418 202.262 198.674C202.688 198.93 203.163 199.058 203.686 199.058C204.219 199.058 204.694 198.952 205.11 198.738C205.526 198.514 205.883 198.178 206.182 197.73C206.224 197.688 206.256 197.666 206.278 197.666C206.31 197.656 206.352 197.661 206.406 197.682L207.078 198.018C207.174 198.072 207.184 198.146 207.11 198.242C206.822 198.669 206.502 199.021 206.15 199.298C205.808 199.565 205.424 199.762 204.998 199.89C204.571 200.018 204.091 200.082 203.558 200.082C202.768 200.082 202.07 199.901 201.462 199.538C200.854 199.176 200.374 198.669 200.022 198.018C199.67 197.368 199.494 196.616 199.494 195.762C199.494 194.834 199.67 194.04 200.022 193.378C200.384 192.706 200.87 192.189 201.478 191.826C202.096 191.464 202.784 191.282 203.542 191.282C204.32 191.282 204.998 191.453 205.574 191.794C206.15 192.136 206.598 192.632 206.918 193.282C207.238 193.933 207.398 194.717 207.398 195.634C207.398 195.709 207.387 195.784 207.366 195.858C207.355 195.933 207.286 195.97 207.158 195.97H201.03C200.987 195.97 200.95 195.997 200.918 196.05C200.896 196.093 200.886 196.146 200.886 196.21ZM205.782 195.09C205.899 195.09 205.974 195.08 206.006 195.058C206.038 195.026 206.054 194.962 206.054 194.866C206.054 194.408 205.952 193.981 205.75 193.586C205.558 193.181 205.275 192.856 204.902 192.61C204.539 192.365 204.096 192.242 203.574 192.242C202.998 192.242 202.512 192.381 202.118 192.658C201.723 192.925 201.424 193.277 201.222 193.714C201.019 194.152 200.918 194.61 200.918 195.09H205.782ZM210.647 199.65C210.647 199.757 210.625 199.832 210.583 199.874C210.54 199.906 210.465 199.922 210.359 199.922H209.527C209.367 199.922 209.287 199.848 209.287 199.698L209.303 188.274C209.303 188.125 209.367 188.05 209.495 188.05H210.455C210.583 188.05 210.647 188.12 210.647 188.258V199.65ZM220.011 191.442C220.085 191.442 220.139 191.469 220.171 191.522C220.203 191.565 220.203 191.618 220.171 191.682L216.923 199.682C216.869 199.842 216.747 199.922 216.555 199.922H215.979C215.776 199.922 215.643 199.848 215.579 199.698L212.347 191.682C212.325 191.618 212.331 191.565 212.363 191.522C212.395 191.469 212.448 191.442 212.523 191.442H213.515C213.579 191.442 213.632 191.458 213.675 191.49C213.717 191.512 213.749 191.554 213.771 191.618L216.283 197.906C216.357 198.109 216.443 198.104 216.539 197.89L219.035 191.618C219.056 191.554 219.083 191.512 219.115 191.49C219.157 191.458 219.211 191.442 219.275 191.442H220.011ZM222.355 196.21C222.355 196.733 222.477 197.213 222.723 197.65C222.979 198.077 223.315 198.418 223.731 198.674C224.157 198.93 224.632 199.058 225.155 199.058C225.688 199.058 226.163 198.952 226.579 198.738C226.995 198.514 227.352 198.178 227.651 197.73C227.693 197.688 227.725 197.666 227.747 197.666C227.779 197.656 227.821 197.661 227.875 197.682L228.547 198.018C228.643 198.072 228.653 198.146 228.579 198.242C228.291 198.669 227.971 199.021 227.619 199.298C227.277 199.565 226.893 199.762 226.467 199.89C226.04 200.018 225.56 200.082 225.027 200.082C224.237 200.082 223.539 199.901 222.931 199.538C222.323 199.176 221.843 198.669 221.491 198.018C221.139 197.368 220.963 196.616 220.963 195.762C220.963 194.834 221.139 194.04 221.491 193.378C221.853 192.706 222.339 192.189 222.947 191.826C223.565 191.464 224.253 191.282 225.011 191.282C225.789 191.282 226.467 191.453 227.043 191.794C227.619 192.136 228.067 192.632 228.387 193.282C228.707 193.933 228.867 194.717 228.867 195.634C228.867 195.709 228.856 195.784 228.835 195.858C228.824 195.933 228.755 195.97 228.627 195.97H222.499C222.456 195.97 222.419 195.997 222.387 196.05C222.365 196.093 222.355 196.146 222.355 196.21ZM227.251 195.09C227.368 195.09 227.443 195.08 227.475 195.058C227.507 195.026 227.523 194.962 227.523 194.866C227.523 194.408 227.421 193.981 227.219 193.586C227.027 193.181 226.744 192.856 226.371 192.61C226.008 192.365 225.565 192.242 225.043 192.242C224.467 192.242 223.981 192.381 223.587 192.658C223.192 192.925 222.893 193.277 222.691 193.714C222.488 194.152 222.387 194.61 222.387 195.09H227.251ZM235.843 193.314C235.63 192.994 235.331 192.733 234.947 192.53C234.563 192.328 234.105 192.226 233.571 192.226C232.995 192.226 232.515 192.349 232.131 192.594C231.758 192.84 231.571 193.17 231.571 193.586C231.571 193.81 231.657 194.024 231.827 194.226C231.998 194.418 232.345 194.6 232.867 194.77L234.899 195.378C235.635 195.581 236.163 195.874 236.483 196.258C236.814 196.642 236.979 197.085 236.979 197.586C236.979 198.088 236.83 198.525 236.531 198.898C236.233 199.272 235.822 199.565 235.299 199.778C234.777 199.981 234.185 200.082 233.523 200.082C232.681 200.082 231.945 199.917 231.315 199.586C230.686 199.245 230.238 198.824 229.971 198.322C229.939 198.269 229.923 198.221 229.923 198.178C229.923 198.136 229.95 198.098 230.003 198.066L230.627 197.714C230.681 197.682 230.729 197.672 230.771 197.682C230.814 197.682 230.846 197.698 230.867 197.73C231.049 198.008 231.257 198.248 231.491 198.45C231.737 198.653 232.025 198.813 232.355 198.93C232.697 199.048 233.091 199.106 233.539 199.106C233.945 199.096 234.313 199.037 234.643 198.93C234.974 198.824 235.235 198.669 235.427 198.466C235.619 198.253 235.715 198.008 235.715 197.73C235.715 197.442 235.598 197.197 235.363 196.994C235.129 196.781 234.723 196.594 234.147 196.434L232.499 195.97C231.699 195.757 231.134 195.469 230.803 195.106C230.483 194.744 230.318 194.317 230.307 193.826C230.307 193.314 230.446 192.872 230.723 192.498C231.001 192.114 231.385 191.816 231.875 191.602C232.377 191.389 232.947 191.282 233.587 191.282C234.302 191.282 234.937 191.421 235.491 191.698C236.057 191.965 236.483 192.322 236.771 192.77C236.803 192.813 236.819 192.856 236.819 192.898C236.819 192.93 236.798 192.962 236.755 192.994L236.083 193.362C236.041 193.384 235.998 193.394 235.955 193.394C235.923 193.384 235.886 193.357 235.843 193.314Z" fill="black"/>
<line x1="89" y1="193.782" x2="96" y2="193.782" stroke="black"/>
<line x1="89" y1="195.665" x2="96" y2="195.665" stroke="black"/>
<path d="M95.7942 191.273C96.068 191.028 96.0687 190.631 95.7958 190.385L93.0048 187.874C92.7319 187.628 92.2887 187.628 92.0149 187.873L89.2058 190.384C88.932 190.629 88.9313 191.026 89.2042 191.272C89.4772 191.517 89.9204 191.518 90.1942 191.273L92.5 189.204L94.8042 191.272C95.0771 191.517 95.5204 191.518 95.7942 191.273Z" fill="black"/>
<path d="M89.2058 198.232C88.932 198.476 88.9313 198.874 89.2042 199.119L91.9952 201.631C92.2681 201.876 92.7113 201.877 92.9851 201.632L95.7942 199.121C96.068 198.876 96.0687 198.479 95.7958 198.233C95.5228 197.987 95.0796 197.987 94.8058 198.232L92.5 200.301L90.1958 198.233C89.9229 197.987 89.4796 197.987 89.2058 198.232Z" fill="black"/>
<rect x="0.5" y="175.005" width="326" height="39.4951" rx="6.5" stroke="black"/>
<rect y="51" width="79" height="100" rx="3" fill="#EAEAEA"/>
</svg>
