<svg width="65" height="12" viewBox="0 0 65 12" fill="none" xmlns="http://www.w3.org/2000/svg">
<path d="M6.59434 11L9.88242 1.13574H7.66074L5.45957 8.67578H5.33652L3.09434 1.13574H0.763283L4.09922 11H6.59434ZM13.5131 4.82031C14.4428 4.82031 15.0443 5.44238 15.0854 6.44043H11.8725C11.9408 5.46289 12.5902 4.82031 13.5131 4.82031ZM15.1264 8.85352C14.9145 9.35254 14.3744 9.63281 13.5883 9.63281C12.5492 9.63281 11.893 8.93555 11.8656 7.81445V7.71191H17.0404V7.10352C17.0404 4.71094 15.7279 3.2959 13.5063 3.2959C11.2641 3.2959 9.8832 4.81348 9.8832 7.26758C9.8832 9.71484 11.2367 11.1641 13.5336 11.1641C15.3793 11.1641 16.685 10.2686 16.9789 8.85352H15.1264ZM18.3742 11H20.3635V6.82324C20.3635 5.76367 21.1086 5.12109 22.1955 5.12109C22.5168 5.12109 22.9816 5.18262 23.1389 5.24414V3.43262C22.968 3.37109 22.633 3.33691 22.3596 3.33691C21.4025 3.33691 20.6232 3.91113 20.425 4.66309H20.302V3.45996H18.3742V11ZM28.0486 1.66895V3.53516H26.8729V5.10059H28.0486V8.96289C28.0486 10.4326 28.7732 11.0273 30.6053 11.0273C30.9881 11.0273 31.3572 10.9863 31.6033 10.9385V9.4209C31.4119 9.44141 31.2752 9.44824 31.0154 9.44824C30.3387 9.44824 30.0379 9.14746 30.0379 8.49121V5.10059H31.6033V3.53516H30.0379V1.66895H28.0486ZM36.2525 11.1641C38.5699 11.1641 39.9645 9.69434 39.9645 7.22656C39.9645 4.7793 38.5494 3.2959 36.2525 3.2959C33.9557 3.2959 32.5406 4.78613 32.5406 7.22656C32.5406 9.69434 33.9352 11.1641 36.2525 11.1641ZM36.2525 9.53711C35.1861 9.53711 34.5846 8.69629 34.5846 7.22656C34.5846 5.77734 35.193 4.92285 36.2525 4.92285C37.3053 4.92285 37.9205 5.77734 37.9205 7.22656C37.9205 8.68945 37.3121 9.53711 36.2525 9.53711ZM43.9916 11.1162C45.0375 11.1162 45.892 10.6309 46.2953 9.81738H46.4184V11H48.3461V0.582031H46.3568V4.66309H46.2406C45.851 3.8291 45.0102 3.33691 43.9916 3.33691C42.098 3.33691 40.9223 4.82031 40.9223 7.21973C40.9223 9.62598 42.0912 11.1162 43.9916 11.1162ZM44.6684 5.00488C45.7279 5.00488 46.3773 5.85938 46.3773 7.2334C46.3773 8.61426 45.7348 9.45508 44.6684 9.45508C43.602 9.45508 42.9662 8.62109 42.9662 7.22656C42.9662 5.8457 43.6088 5.00488 44.6684 5.00488ZM52.8313 9.61914C52.1408 9.61914 51.6555 9.27734 51.6555 8.7168C51.6555 8.17676 52.0725 7.86914 52.927 7.80762L54.4514 7.71191V8.26562C54.4514 9.03125 53.7541 9.61914 52.8313 9.61914ZM52.175 11.1162C53.1525 11.1162 53.9729 10.7061 54.3625 10.0156H54.4855V11H56.4133V5.85254C56.4133 4.23926 55.2854 3.2959 53.2893 3.2959C51.3957 3.2959 50.1174 4.1709 49.9875 5.56543H51.8195C51.9836 5.11426 52.4621 4.86816 53.1799 4.86816C54.0002 4.86816 54.4514 5.22363 54.4514 5.85254V6.46777L52.6262 6.57715C50.7531 6.68652 49.7072 7.47949 49.7072 8.84668C49.7072 10.2275 50.7258 11.1162 52.175 11.1162ZM57.8975 5.6748C57.8975 6.83691 58.6084 7.53418 60.0713 7.85547L61.4385 8.16309C62.1016 8.30664 62.3887 8.53223 62.3887 8.90137C62.3887 9.38672 61.8555 9.70801 61.083 9.70801C60.29 9.70801 59.8047 9.41406 59.6543 8.90137H57.7129C57.8496 10.3506 59.0527 11.1641 61.042 11.1641C63.0176 11.1641 64.3643 10.1797 64.3643 8.67578C64.3643 7.54785 63.708 6.93262 62.2451 6.61133L60.8301 6.30371C60.1328 6.14648 59.8115 5.9209 59.8115 5.55176C59.8115 5.07324 60.3379 4.75195 61.0488 4.75195C61.7871 4.75195 62.2451 5.05273 62.3477 5.53809H64.1865C64.0771 4.0957 62.9492 3.2959 61.0352 3.2959C59.1553 3.2959 57.8975 4.24609 57.8975 5.6748Z" fill="#3081D0"/>
</svg>
