<svg width="110" height="38" viewBox="0 0 110 38" fill="none" xmlns="http://www.w3.org/2000/svg">
<path d="M39.3418 10.8179V9.49951H35.0059V10.8765H37.7305V11.1035C37.7158 12.6709 36.5293 13.7256 34.8008 13.7256C32.8159 13.7256 31.5708 12.1875 31.5708 9.69727C31.5708 7.25098 32.8086 5.70557 34.7642 5.70557C36.207 5.70557 37.2104 6.40137 37.6206 7.67578H39.2686C38.9097 5.53711 37.1665 4.1748 34.7642 4.1748C31.8052 4.1748 29.8936 6.34277 29.8936 9.71191C29.8936 13.125 31.7832 15.2563 34.7788 15.2563C37.5474 15.2563 39.3418 13.5205 39.3418 10.8179ZM47.7455 7.02393H46.1708V11.6895C46.1708 12.9419 45.475 13.6963 44.2006 13.6963C43.0434 13.6963 42.5233 13.0811 42.5233 11.792V7.02393H40.9486V12.2021C40.9486 14.0771 41.9301 15.1538 43.6952 15.1538C44.9037 15.1538 45.7167 14.6411 46.1049 13.7329H46.2294V15H47.7455V7.02393ZM52.2381 13.8062C51.3812 13.8062 50.7586 13.3887 50.7586 12.6709C50.7586 11.9678 51.2566 11.5942 52.3553 11.521L54.3035 11.3965V12.063C54.3035 13.0518 53.4246 13.8062 52.2381 13.8062ZM51.8353 15.1318C52.8826 15.1318 53.7542 14.6777 54.2303 13.8794H54.3548V15H55.8709V9.55078C55.8709 7.86621 54.743 6.87012 52.7435 6.87012C50.9344 6.87012 49.6453 7.74902 49.4842 9.11865H51.0076C51.1834 8.55469 51.7913 8.23242 52.6702 8.23242C53.7469 8.23242 54.3035 8.7085 54.3035 9.55078V10.2393L52.1429 10.3638C50.2459 10.481 49.1766 11.3086 49.1766 12.7441C49.1766 14.2017 50.2972 15.1318 51.8353 15.1318ZM57.7121 15H59.2868V10.2905C59.2868 9.16992 60.1291 8.41553 61.3229 8.41553C61.6013 8.41553 62.07 8.4668 62.2019 8.51074V6.95801C62.0334 6.91406 61.7331 6.89209 61.4987 6.89209C60.4587 6.89209 59.5725 7.46338 59.3454 8.24707H59.2282V7.02393H57.7121V15ZM66.0279 15.1318C67.1266 15.1318 68.0567 14.6118 68.5328 13.7402H68.6573V15H70.1661V3.91113H68.5914V8.29102H68.4742C68.0421 7.41211 67.1192 6.89209 66.0279 6.89209C64.0138 6.89209 62.7174 8.48877 62.7174 11.0083C62.7174 13.5352 63.9991 15.1318 66.0279 15.1318ZM66.4747 8.30566C67.7931 8.30566 68.6207 9.35303 68.6207 11.0156C68.6207 12.6855 67.8004 13.7183 66.4747 13.7183C65.1417 13.7183 64.3434 12.7002 64.3434 11.0083C64.3434 9.33105 65.149 8.30566 66.4747 8.30566ZM74.7393 13.8062C73.8823 13.8062 73.2598 13.3887 73.2598 12.6709C73.2598 11.9678 73.7578 11.5942 74.8564 11.521L76.8047 11.3965V12.063C76.8047 13.0518 75.9258 13.8062 74.7393 13.8062ZM74.3364 15.1318C75.3838 15.1318 76.2554 14.6777 76.7314 13.8794H76.856V15H78.3721V9.55078C78.3721 7.86621 77.2441 6.87012 75.2446 6.87012C73.4355 6.87012 72.1465 7.74902 71.9854 9.11865H73.5088C73.6846 8.55469 74.2925 8.23242 75.1714 8.23242C76.248 8.23242 76.8047 8.7085 76.8047 9.55078V10.2393L74.644 10.3638C72.7471 10.481 71.6777 11.3086 71.6777 12.7441C71.6777 14.2017 72.7983 15.1318 74.3364 15.1318ZM80.2133 15H81.788V10.2905C81.788 9.16992 82.6303 8.41553 83.8241 8.41553C84.1024 8.41553 84.5712 8.4668 84.703 8.51074V6.95801C84.5346 6.91406 84.2343 6.89209 83.9999 6.89209C82.9599 6.89209 82.0736 7.46338 81.8466 8.24707H81.7294V7.02393H80.2133V15ZM34.3687 34.1318C36.3828 34.1318 37.6646 32.5352 37.6646 30.0083C37.6646 27.4741 36.3901 25.8921 34.3687 25.8921C33.2773 25.8921 32.3398 26.4194 31.915 27.291H31.7905V22.9111H30.2158V34H31.7319V32.7402H31.8491C32.3252 33.6191 33.2554 34.1318 34.3687 34.1318ZM33.9146 27.3057C35.2476 27.3057 36.0459 28.3311 36.0459 30.0083C36.0459 31.7002 35.2476 32.7183 33.9146 32.7183C32.5889 32.7183 31.7686 31.6855 31.7612 30.0156C31.7686 28.3457 32.5962 27.3057 33.9146 27.3057ZM42.4354 27.2104C43.6 27.2104 44.3617 28.0234 44.3983 29.2759H40.37C40.4579 28.0308 41.2709 27.2104 42.4354 27.2104ZM44.391 31.8467C44.098 32.4692 43.4462 32.8135 42.494 32.8135C41.2343 32.8135 40.4213 31.9272 40.37 30.5283V30.4404H46.0023V29.8911C46.0023 27.3862 44.662 25.8701 42.4428 25.8701C40.1942 25.8701 38.766 27.4888 38.766 30.0376C38.766 32.5864 40.1649 34.1538 42.4501 34.1538C44.2738 34.1538 45.5629 33.2676 45.9071 31.8467H44.391ZM47.492 34H49.0667V29.3345C49.0667 28.0894 49.8064 27.313 50.971 27.313C52.1355 27.313 52.6922 27.9502 52.6922 29.2319V34H54.2669V28.8364C54.2669 26.9395 53.2854 25.8701 51.5057 25.8701C50.3045 25.8701 49.5135 26.4048 49.1253 27.291H49.0081V26.0239H47.492V34ZM59.3601 27.2104C60.5246 27.2104 61.2863 28.0234 61.3229 29.2759H57.2946C57.3825 28.0308 58.1955 27.2104 59.3601 27.2104ZM61.3156 31.8467C61.0227 32.4692 60.3708 32.8135 59.4187 32.8135C58.1589 32.8135 57.3459 31.9272 57.2946 30.5283V30.4404H62.927V29.8911C62.927 27.3862 61.5866 25.8701 59.3674 25.8701C57.1188 25.8701 55.6906 27.4888 55.6906 30.0376C55.6906 32.5864 57.0896 34.1538 59.3747 34.1538C61.1984 34.1538 62.4875 33.2676 62.8317 31.8467H61.3156ZM64.9806 34H66.5553V27.3862H68.3131V26.0605H66.5333V25.2988C66.5333 24.5078 66.8922 24.1123 67.7711 24.1123C68.0201 24.1123 68.2325 24.127 68.379 24.1562V22.9185C68.108 22.8672 67.8004 22.8379 67.4415 22.8379C65.7862 22.8379 64.9806 23.6143 64.9806 25.2036V26.0605H63.6695V27.3862H64.9806V34ZM69.7295 34H71.2969V26.0239H69.7295V34ZM70.5132 24.6396C71.0625 24.6396 71.5093 24.1782 71.5093 23.6143C71.5093 23.043 71.0625 22.5815 70.5132 22.5815C69.9639 22.5815 69.5171 23.043 69.5171 23.6143C69.5171 24.1782 69.9639 24.6396 70.5132 24.6396ZM79.9643 28.6313C79.7592 27.0347 78.5507 25.8701 76.5512 25.8701C74.2294 25.8701 72.8158 27.4302 72.8158 29.9863C72.8158 32.5864 74.2367 34.1538 76.5585 34.1538C78.5287 34.1538 79.7592 33.0405 79.9643 31.4365H78.4335C78.2284 32.2935 77.5473 32.7476 76.5512 32.7476C75.2401 32.7476 74.4271 31.7148 74.4271 29.9863C74.4271 28.2871 75.2328 27.2764 76.5512 27.2764C77.6059 27.2764 78.2504 27.855 78.4335 28.6313H79.9643ZM81.3953 34H82.9627V26.0239H81.3953V34ZM82.179 24.6396C82.7283 24.6396 83.1751 24.1782 83.1751 23.6143C83.1751 23.043 82.7283 22.5815 82.179 22.5815C81.6297 22.5815 81.1829 23.043 81.1829 23.6143C81.1829 24.1782 81.6297 24.6396 82.179 24.6396ZM87.4846 32.8062C86.6276 32.8062 86.0051 32.3887 86.0051 31.6709C86.0051 30.9678 86.5031 30.5942 87.6018 30.521L89.55 30.3965V31.063C89.55 32.0518 88.6711 32.8062 87.4846 32.8062ZM87.0817 34.1318C88.1291 34.1318 89.0007 33.6777 89.4768 32.8794H89.6013V34H91.1174V28.5508C91.1174 26.8662 89.9895 25.8701 87.9899 25.8701C86.1809 25.8701 84.8918 26.749 84.7307 28.1187H86.2541C86.4299 27.5547 87.0378 27.2324 87.9167 27.2324C88.9934 27.2324 89.55 27.7085 89.55 28.5508V29.2393L87.3894 29.3638C85.4924 29.481 84.423 30.3086 84.423 31.7441C84.423 33.2017 85.5437 34.1318 87.0817 34.1318ZM92.9586 34H94.5333V29.2905C94.5333 28.1699 95.3756 27.4155 96.5694 27.4155C96.8478 27.4155 97.3165 27.4668 97.4483 27.5107V25.958C97.2799 25.9141 96.9796 25.8921 96.7452 25.8921C95.7052 25.8921 94.8189 26.4634 94.5919 27.2471H94.4747V26.0239H92.9586V34ZM98.5938 34H100.161V26.0239H98.5938V34ZM99.3774 24.6396C99.9268 24.6396 100.374 24.1782 100.374 23.6143C100.374 23.043 99.9268 22.5815 99.3774 22.5815C98.8281 22.5815 98.3813 23.043 98.3813 23.6143C98.3813 24.1782 98.8281 24.6396 99.3774 24.6396ZM105.445 34.1538C107.774 34.1538 109.202 32.5938 109.202 30.0083C109.202 27.4375 107.767 25.8701 105.445 25.8701C103.116 25.8701 101.68 27.4375 101.68 30.0083C101.68 32.5938 103.108 34.1538 105.445 34.1538ZM105.445 32.7549C104.075 32.7549 103.306 31.7515 103.306 30.0083C103.306 28.2798 104.075 27.269 105.445 27.269C106.807 27.269 107.583 28.2798 107.583 30.0083C107.583 31.7441 106.807 32.7549 105.445 32.7549Z" fill="#222222"/>
<circle cx="11" cy="22" r="10" fill="white" stroke="#B3BCC6"/>
</svg>
