<svg width="203" height="17" viewBox="0 0 203 17" fill="none" xmlns="http://www.w3.org/2000/svg">
<path d="M0.349432 13V11.2273L4.49148 7.39205C4.84375 7.05114 5.1392 6.74432 5.37784 6.47159C5.62027 6.19886 5.80398 5.93182 5.92898 5.67045C6.05398 5.4053 6.11648 5.11932 6.11648 4.8125C6.11648 4.47159 6.03883 4.17803 5.88352 3.93182C5.72822 3.68182 5.5161 3.49053 5.24716 3.35795C4.97822 3.22159 4.6733 3.15341 4.33239 3.15341C3.97633 3.15341 3.66572 3.22538 3.40057 3.36932C3.13542 3.51326 2.93087 3.7197 2.78693 3.98864C2.64299 4.25758 2.57102 4.57765 2.57102 4.94886H0.235795C0.235795 4.1875 0.408144 3.52652 0.752841 2.96591C1.09754 2.4053 1.58049 1.97159 2.2017 1.66477C2.82292 1.35795 3.53883 1.20455 4.34943 1.20455C5.18277 1.20455 5.90814 1.35227 6.52557 1.64773C7.14678 1.93939 7.62974 2.3447 7.97443 2.86364C8.31913 3.38258 8.49148 3.97727 8.49148 4.64773C8.49148 5.08712 8.40436 5.52083 8.23011 5.94886C8.05966 6.37689 7.75473 6.85227 7.31534 7.375C6.87595 7.89394 6.25663 8.51705 5.45739 9.24432L3.75852 10.9091V10.9886H8.64489V13H0.349432ZM11.8651 13.1477C11.4901 13.1477 11.1681 13.0152 10.8991 12.75C10.634 12.4811 10.5014 12.1591 10.5014 11.7841C10.5014 11.4129 10.634 11.0947 10.8991 10.8295C11.1681 10.5644 11.4901 10.4318 11.8651 10.4318C12.2287 10.4318 12.5469 10.5644 12.8196 10.8295C13.0923 11.0947 13.2287 11.4129 13.2287 11.7841C13.2287 12.0341 13.1643 12.2633 13.0355 12.4716C12.9105 12.6761 12.7457 12.8409 12.5412 12.9659C12.3366 13.0871 12.1113 13.1477 11.8651 13.1477ZM29.1108 7.18182C29.1108 8.45076 28.8703 9.5303 28.3892 10.4205C27.9119 11.3106 27.2604 11.9905 26.4347 12.4602C25.6127 12.9261 24.6884 13.1591 23.6619 13.1591C22.6278 13.1591 21.6998 12.9242 20.8778 12.4545C20.0559 11.9848 19.4063 11.3049 18.929 10.4148C18.4517 9.52462 18.2131 8.44697 18.2131 7.18182C18.2131 5.91288 18.4517 4.83333 18.929 3.94318C19.4063 3.05303 20.0559 2.375 20.8778 1.90909C21.6998 1.43939 22.6278 1.20455 23.6619 1.20455C24.6884 1.20455 25.6127 1.43939 26.4347 1.90909C27.2604 2.375 27.9119 3.05303 28.3892 3.94318C28.8703 4.83333 29.1108 5.91288 29.1108 7.18182ZM26.6165 7.18182C26.6165 6.35985 26.4934 5.66667 26.2472 5.10227C26.0047 4.53788 25.6619 4.10985 25.2188 3.81818C24.7756 3.52652 24.2566 3.38068 23.6619 3.38068C23.0672 3.38068 22.5483 3.52652 22.1051 3.81818C21.6619 4.10985 21.3172 4.53788 21.071 5.10227C20.8286 5.66667 20.7074 6.35985 20.7074 7.18182C20.7074 8.00379 20.8286 8.69697 21.071 9.26136C21.3172 9.82576 21.6619 10.2538 22.1051 10.5455C22.5483 10.8371 23.0672 10.983 23.6619 10.983C24.2566 10.983 24.7756 10.8371 25.2188 10.5455C25.6619 10.2538 26.0047 9.82576 26.2472 9.26136C26.4934 8.69697 26.6165 8.00379 26.6165 7.18182ZM30.8878 16.2727V4.27273H33.2741V5.73864H33.3821C33.4882 5.50379 33.6416 5.26515 33.8423 5.02273C34.0469 4.77652 34.312 4.57197 34.6378 4.40909C34.9673 4.24242 35.3764 4.15909 35.8651 4.15909C36.5014 4.15909 37.0885 4.32576 37.6264 4.65909C38.1643 4.98864 38.5942 5.48674 38.9162 6.15341C39.2382 6.81629 39.3991 7.64773 39.3991 8.64773C39.3991 9.62121 39.242 10.4432 38.9276 11.1136C38.617 11.7803 38.1927 12.286 37.6548 12.6307C37.1207 12.9716 36.5223 13.142 35.8594 13.142C35.3897 13.142 34.9901 13.0644 34.6605 12.9091C34.3348 12.7538 34.0677 12.5587 33.8594 12.3239C33.651 12.0852 33.492 11.8447 33.3821 11.6023H33.3082V16.2727H30.8878ZM33.2571 8.63636C33.2571 9.1553 33.3291 9.60795 33.473 9.99432C33.617 10.3807 33.8253 10.6818 34.098 10.8977C34.3707 11.1098 34.7022 11.2159 35.0923 11.2159C35.4863 11.2159 35.8196 11.108 36.0923 10.892C36.3651 10.6723 36.5715 10.3693 36.7116 9.98295C36.8556 9.5928 36.9276 9.14394 36.9276 8.63636C36.9276 8.13258 36.8575 7.68939 36.7173 7.30682C36.5772 6.92424 36.3707 6.625 36.098 6.40909C35.8253 6.19318 35.4901 6.08523 35.0923 6.08523C34.6984 6.08523 34.3651 6.18939 34.0923 6.39773C33.8234 6.60606 33.617 6.90151 33.473 7.28409C33.3291 7.66667 33.2571 8.11742 33.2571 8.63636ZM44.9901 13.1705C44.0923 13.1705 43.3196 12.9886 42.6719 12.625C42.0279 12.2576 41.5317 11.7386 41.1832 11.0682C40.8348 10.3939 40.6605 9.59659 40.6605 8.67614C40.6605 7.77841 40.8348 6.99053 41.1832 6.3125C41.5317 5.63447 42.0223 5.10606 42.6548 4.72727C43.2912 4.34848 44.0374 4.15909 44.8935 4.15909C45.4692 4.15909 46.0052 4.25189 46.5014 4.4375C47.0014 4.61932 47.437 4.89394 47.8082 5.26136C48.1832 5.62879 48.4749 6.09091 48.6832 6.64773C48.8916 7.20076 48.9957 7.84848 48.9957 8.59091V9.25568H41.6264V7.75568H46.7173C46.7173 7.4072 46.6416 7.09848 46.4901 6.82955C46.3385 6.56061 46.1283 6.35038 45.8594 6.19886C45.5942 6.04356 45.2855 5.96591 44.9332 5.96591C44.5658 5.96591 44.2401 6.05114 43.956 6.22159C43.6757 6.38826 43.456 6.61364 43.2969 6.89773C43.1378 7.17803 43.0563 7.49053 43.0526 7.83523V9.26136C43.0526 9.69318 43.1321 10.0663 43.2912 10.3807C43.4541 10.6951 43.6832 10.9375 43.9787 11.108C44.2741 11.2784 44.6245 11.3636 45.0298 11.3636C45.2988 11.3636 45.545 11.3258 45.7685 11.25C45.992 11.1742 46.1832 11.0606 46.3423 10.9091C46.5014 10.7576 46.6226 10.572 46.706 10.3523L48.9446 10.5C48.831 11.0379 48.598 11.5076 48.2457 11.9091C47.8973 12.3068 47.4465 12.6174 46.8935 12.8409C46.3442 13.0606 45.7098 13.1705 44.9901 13.1705ZM52.9957 7.95455V13H50.5753V4.27273H52.8821V5.8125H52.9844C53.1776 5.30492 53.5014 4.90341 53.956 4.60795C54.4105 4.30871 54.9616 4.15909 55.6094 4.15909C56.2154 4.15909 56.7438 4.29167 57.1946 4.55682C57.6454 4.82197 57.9957 5.20076 58.2457 5.69318C58.4957 6.18182 58.6207 6.76515 58.6207 7.44318V13H56.2003V7.875C56.2041 7.34091 56.0677 6.92424 55.7912 6.625C55.5147 6.32197 55.134 6.17045 54.6491 6.17045C54.3234 6.17045 54.0355 6.24053 53.7855 6.38068C53.5393 6.52083 53.3461 6.72538 53.206 6.99432C53.0696 7.25947 52.9995 7.57955 52.9957 7.95455ZM66.2827 13H63.6463L67.6634 1.36364H70.8338L74.8452 13H72.2088L69.294 4.02273H69.2031L66.2827 13ZM66.1179 8.42614H72.3452V10.3466H66.1179V8.42614ZM76.2003 16.2727V4.27273H78.5866V5.73864H78.6946C78.8007 5.50379 78.9541 5.26515 79.1548 5.02273C79.3594 4.77652 79.6245 4.57197 79.9503 4.40909C80.2798 4.24242 80.6889 4.15909 81.1776 4.15909C81.8139 4.15909 82.401 4.32576 82.9389 4.65909C83.4768 4.98864 83.9067 5.48674 84.2287 6.15341C84.5507 6.81629 84.7116 7.64773 84.7116 8.64773C84.7116 9.62121 84.5545 10.4432 84.2401 11.1136C83.9295 11.7803 83.5052 12.286 82.9673 12.6307C82.4332 12.9716 81.8348 13.142 81.1719 13.142C80.7022 13.142 80.3026 13.0644 79.973 12.9091C79.6473 12.7538 79.3802 12.5587 79.1719 12.3239C78.9635 12.0852 78.8045 11.8447 78.6946 11.6023H78.6207V16.2727H76.2003ZM78.5696 8.63636C78.5696 9.1553 78.6416 9.60795 78.7855 9.99432C78.9295 10.3807 79.1378 10.6818 79.4105 10.8977C79.6832 11.1098 80.0147 11.2159 80.4048 11.2159C80.7988 11.2159 81.1321 11.108 81.4048 10.892C81.6776 10.6723 81.884 10.3693 82.0241 9.98295C82.1681 9.5928 82.2401 9.14394 82.2401 8.63636C82.2401 8.13258 82.17 7.68939 82.0298 7.30682C81.8897 6.92424 81.6832 6.625 81.4105 6.40909C81.1378 6.19318 80.8026 6.08523 80.4048 6.08523C80.0109 6.08523 79.6776 6.18939 79.4048 6.39773C79.1359 6.60606 78.9295 6.90151 78.7855 7.28409C78.6416 7.66667 78.5696 8.11742 78.5696 8.63636ZM86.3253 16.2727V4.27273H88.7116V5.73864H88.8196C88.9257 5.50379 89.0791 5.26515 89.2798 5.02273C89.4844 4.77652 89.7495 4.57197 90.0753 4.40909C90.4048 4.24242 90.8139 4.15909 91.3026 4.15909C91.9389 4.15909 92.526 4.32576 93.0639 4.65909C93.6018 4.98864 94.0317 5.48674 94.3537 6.15341C94.6757 6.81629 94.8366 7.64773 94.8366 8.64773C94.8366 9.62121 94.6795 10.4432 94.3651 11.1136C94.0545 11.7803 93.6302 12.286 93.0923 12.6307C92.5582 12.9716 91.9598 13.142 91.2969 13.142C90.8272 13.142 90.4276 13.0644 90.098 12.9091C89.7723 12.7538 89.5052 12.5587 89.2969 12.3239C89.0885 12.0852 88.9295 11.8447 88.8196 11.6023H88.7457V16.2727H86.3253ZM88.6946 8.63636C88.6946 9.1553 88.7666 9.60795 88.9105 9.99432C89.0545 10.3807 89.2628 10.6818 89.5355 10.8977C89.8082 11.1098 90.1397 11.2159 90.5298 11.2159C90.9238 11.2159 91.2571 11.108 91.5298 10.892C91.8026 10.6723 92.009 10.3693 92.1491 9.98295C92.2931 9.5928 92.3651 9.14394 92.3651 8.63636C92.3651 8.13258 92.295 7.68939 92.1548 7.30682C92.0147 6.92424 91.8082 6.625 91.5355 6.40909C91.2628 6.19318 90.9276 6.08523 90.5298 6.08523C90.1359 6.08523 89.8026 6.18939 89.5298 6.39773C89.2609 6.60606 89.0545 6.90151 88.9105 7.28409C88.7666 7.66667 88.6946 8.11742 88.6946 8.63636ZM102.642 13.1648C102.085 13.1648 101.589 13.0682 101.153 12.875C100.718 12.678 100.373 12.3883 100.119 12.0057C99.8693 11.6193 99.7443 11.1383 99.7443 10.5625C99.7443 10.0777 99.8333 9.67045 100.011 9.34091C100.189 9.01136 100.432 8.74621 100.739 8.54545C101.045 8.3447 101.394 8.19318 101.784 8.09091C102.178 7.98864 102.591 7.91667 103.023 7.875C103.53 7.82197 103.939 7.77273 104.25 7.72727C104.561 7.67803 104.786 7.60606 104.926 7.51136C105.066 7.41667 105.136 7.27652 105.136 7.09091V7.05682C105.136 6.69697 105.023 6.41856 104.795 6.22159C104.572 6.02462 104.254 5.92614 103.841 5.92614C103.405 5.92614 103.059 6.02273 102.801 6.21591C102.544 6.4053 102.373 6.64394 102.29 6.93182L100.051 6.75C100.165 6.2197 100.388 5.76136 100.722 5.375C101.055 4.98485 101.485 4.68561 102.011 4.47727C102.542 4.26515 103.155 4.15909 103.852 4.15909C104.337 4.15909 104.801 4.21591 105.244 4.32955C105.691 4.44318 106.087 4.61932 106.432 4.85795C106.78 5.09659 107.055 5.40341 107.256 5.77841C107.456 6.14962 107.557 6.5947 107.557 7.11364V13H105.261V11.7898H105.193C105.053 12.0625 104.866 12.303 104.631 12.5114C104.396 12.7159 104.114 12.8769 103.784 12.9943C103.455 13.108 103.074 13.1648 102.642 13.1648ZM103.335 11.4943C103.691 11.4943 104.006 11.4242 104.278 11.2841C104.551 11.1402 104.765 10.947 104.92 10.7045C105.076 10.4621 105.153 10.1875 105.153 9.88068V8.95455C105.078 9.00379 104.973 9.04924 104.841 9.09091C104.712 9.12879 104.566 9.16477 104.403 9.19886C104.241 9.22917 104.078 9.25758 103.915 9.28409C103.752 9.30682 103.604 9.32765 103.472 9.34659C103.188 9.38826 102.939 9.45455 102.727 9.54545C102.515 9.63636 102.35 9.75947 102.233 9.91477C102.116 10.0663 102.057 10.2557 102.057 10.483C102.057 10.8125 102.176 11.0644 102.415 11.2386C102.657 11.4091 102.964 11.4943 103.335 11.4943ZM111.855 7.95455V13H109.435V4.27273H111.741V5.8125H111.844C112.037 5.30492 112.361 4.90341 112.815 4.60795C113.27 4.30871 113.821 4.15909 114.469 4.15909C115.075 4.15909 115.603 4.29167 116.054 4.55682C116.505 4.82197 116.855 5.20076 117.105 5.69318C117.355 6.18182 117.48 6.76515 117.48 7.44318V13H115.06V7.875C115.063 7.34091 114.927 6.92424 114.651 6.625C114.374 6.32197 113.993 6.17045 113.509 6.17045C113.183 6.17045 112.895 6.24053 112.645 6.38068C112.399 6.52083 112.205 6.72538 112.065 6.99432C111.929 7.25947 111.859 7.57955 111.855 7.95455ZM122.604 13.142C121.941 13.142 121.34 12.9716 120.803 12.6307C120.268 12.286 119.844 11.7803 119.53 11.1136C119.219 10.4432 119.064 9.62121 119.064 8.64773C119.064 7.64773 119.225 6.81629 119.547 6.15341C119.869 5.48674 120.297 4.98864 120.831 4.65909C121.369 4.32576 121.958 4.15909 122.598 4.15909C123.087 4.15909 123.494 4.24242 123.82 4.40909C124.149 4.57197 124.414 4.77652 124.615 5.02273C124.82 5.26515 124.975 5.50379 125.081 5.73864H125.155V1.36364H127.57V13H125.183V11.6023H125.081C124.967 11.8447 124.806 12.0852 124.598 12.3239C124.393 12.5587 124.126 12.7538 123.797 12.9091C123.471 13.0644 123.073 13.142 122.604 13.142ZM123.371 11.2159C123.761 11.2159 124.09 11.1098 124.359 10.8977C124.632 10.6818 124.84 10.3807 124.984 9.99432C125.132 9.60795 125.206 9.1553 125.206 8.63636C125.206 8.11742 125.134 7.66667 124.99 7.28409C124.846 6.90151 124.638 6.60606 124.365 6.39773C124.092 6.18939 123.761 6.08523 123.371 6.08523C122.973 6.08523 122.638 6.19318 122.365 6.40909C122.092 6.625 121.886 6.92424 121.746 7.30682C121.606 7.68939 121.536 8.13258 121.536 8.63636C121.536 9.14394 121.606 9.5928 121.746 9.98295C121.89 10.3693 122.096 10.6723 122.365 10.892C122.638 11.108 122.973 11.2159 123.371 11.2159ZM140.524 6.76136L138.308 6.89773C138.27 6.70833 138.189 6.53788 138.064 6.38636C137.939 6.23106 137.774 6.10795 137.57 6.01705C137.369 5.92235 137.128 5.875 136.848 5.875C136.473 5.875 136.157 5.95455 135.899 6.11364C135.642 6.26894 135.513 6.47727 135.513 6.73864C135.513 6.94697 135.596 7.12311 135.763 7.26705C135.929 7.41098 136.215 7.52652 136.621 7.61364L138.2 7.93182C139.049 8.10606 139.681 8.38636 140.098 8.77273C140.515 9.15909 140.723 9.66667 140.723 10.2955C140.723 10.8674 140.554 11.3693 140.217 11.8011C139.884 12.233 139.426 12.5701 138.842 12.8125C138.263 13.0511 137.594 13.1705 136.837 13.1705C135.681 13.1705 134.761 12.9299 134.075 12.4489C133.393 11.964 132.994 11.3049 132.876 10.4716L135.257 10.3466C135.329 10.6989 135.503 10.9678 135.78 11.1534C136.056 11.3352 136.411 11.4261 136.842 11.4261C137.267 11.4261 137.607 11.3447 137.865 11.1818C138.126 11.0152 138.259 10.8011 138.263 10.5398C138.259 10.3201 138.166 10.1402 137.984 10C137.803 9.85606 137.522 9.74621 137.143 9.67045L135.632 9.36932C134.78 9.19886 134.145 8.90341 133.729 8.48295C133.316 8.0625 133.109 7.52652 133.109 6.875C133.109 6.31439 133.261 5.83144 133.564 5.42614C133.871 5.02083 134.301 4.70833 134.854 4.48864C135.411 4.26894 136.062 4.15909 136.808 4.15909C137.911 4.15909 138.778 4.39205 139.411 4.85795C140.047 5.32386 140.418 5.95833 140.524 6.76136ZM142.247 13V4.27273H144.554V5.8125H144.656C144.838 5.30114 145.141 4.89773 145.565 4.60227C145.99 4.30682 146.497 4.15909 147.088 4.15909C147.687 4.15909 148.196 4.30871 148.616 4.60795C149.037 4.90341 149.317 5.30492 149.457 5.8125H149.548C149.726 5.3125 150.048 4.91288 150.514 4.61364C150.984 4.31061 151.539 4.15909 152.179 4.15909C152.993 4.15909 153.654 4.41856 154.162 4.9375C154.673 5.45265 154.929 6.18371 154.929 7.13068V13H152.514V7.60795C152.514 7.12311 152.385 6.75947 152.128 6.51705C151.87 6.27462 151.548 6.15341 151.162 6.15341C150.723 6.15341 150.38 6.29356 150.134 6.57386C149.887 6.85038 149.764 7.21591 149.764 7.67045V13H147.418V7.55682C147.418 7.12879 147.295 6.78788 147.048 6.53409C146.806 6.2803 146.486 6.15341 146.088 6.15341C145.819 6.15341 145.577 6.22159 145.361 6.35795C145.149 6.49053 144.98 6.67803 144.855 6.92045C144.73 7.15909 144.668 7.43939 144.668 7.76136V13H142.247ZM159.33 13.1648C158.773 13.1648 158.277 13.0682 157.841 12.875C157.405 12.678 157.061 12.3883 156.807 12.0057C156.557 11.6193 156.432 11.1383 156.432 10.5625C156.432 10.0777 156.521 9.67045 156.699 9.34091C156.877 9.01136 157.119 8.74621 157.426 8.54545C157.733 8.3447 158.081 8.19318 158.472 8.09091C158.866 7.98864 159.278 7.91667 159.71 7.875C160.218 7.82197 160.627 7.77273 160.938 7.72727C161.248 7.67803 161.473 7.60606 161.614 7.51136C161.754 7.41667 161.824 7.27652 161.824 7.09091V7.05682C161.824 6.69697 161.71 6.41856 161.483 6.22159C161.259 6.02462 160.941 5.92614 160.528 5.92614C160.093 5.92614 159.746 6.02273 159.489 6.21591C159.231 6.4053 159.061 6.64394 158.977 6.93182L156.739 6.75C156.852 6.2197 157.076 5.76136 157.409 5.375C157.742 4.98485 158.172 4.68561 158.699 4.47727C159.229 4.26515 159.843 4.15909 160.54 4.15909C161.025 4.15909 161.489 4.21591 161.932 4.32955C162.379 4.44318 162.775 4.61932 163.119 4.85795C163.468 5.09659 163.742 5.40341 163.943 5.77841C164.144 6.14962 164.244 6.5947 164.244 7.11364V13H161.949V11.7898H161.881C161.741 12.0625 161.553 12.303 161.318 12.5114C161.083 12.7159 160.801 12.8769 160.472 12.9943C160.142 13.108 159.761 13.1648 159.33 13.1648ZM160.023 11.4943C160.379 11.4943 160.693 11.4242 160.966 11.2841C161.239 11.1402 161.453 10.947 161.608 10.7045C161.763 10.4621 161.841 10.1875 161.841 9.88068V8.95455C161.765 9.00379 161.661 9.04924 161.528 9.09091C161.4 9.12879 161.254 9.16477 161.091 9.19886C160.928 9.22917 160.765 9.25758 160.602 9.28409C160.439 9.30682 160.292 9.32765 160.159 9.34659C159.875 9.38826 159.627 9.45455 159.415 9.54545C159.203 9.63636 159.038 9.75947 158.92 9.91477C158.803 10.0663 158.744 10.2557 158.744 10.483C158.744 10.8125 158.864 11.0644 159.102 11.2386C159.345 11.4091 159.652 11.4943 160.023 11.4943ZM173.384 6.76136L171.168 6.89773C171.13 6.70833 171.048 6.53788 170.923 6.38636C170.798 6.23106 170.634 6.10795 170.429 6.01705C170.228 5.92235 169.988 5.875 169.707 5.875C169.332 5.875 169.016 5.95455 168.759 6.11364C168.501 6.26894 168.372 6.47727 168.372 6.73864C168.372 6.94697 168.455 7.12311 168.622 7.26705C168.789 7.41098 169.075 7.52652 169.48 7.61364L171.06 7.93182C171.908 8.10606 172.541 8.38636 172.957 8.77273C173.374 9.15909 173.582 9.66667 173.582 10.2955C173.582 10.8674 173.414 11.3693 173.077 11.8011C172.743 12.233 172.285 12.5701 171.702 12.8125C171.122 13.0511 170.454 13.1705 169.696 13.1705C168.541 13.1705 167.62 12.9299 166.935 12.4489C166.253 11.964 165.853 11.3049 165.736 10.4716L168.116 10.3466C168.188 10.6989 168.363 10.9678 168.639 11.1534C168.916 11.3352 169.27 11.4261 169.702 11.4261C170.126 11.4261 170.467 11.3447 170.724 11.1818C170.986 11.0152 171.118 10.8011 171.122 10.5398C171.118 10.3201 171.026 10.1402 170.844 10C170.662 9.85606 170.382 9.74621 170.003 9.67045L168.491 9.36932C167.639 9.19886 167.005 8.90341 166.588 8.48295C166.175 8.0625 165.969 7.52652 165.969 6.875C165.969 6.31439 166.12 5.83144 166.423 5.42614C166.73 5.02083 167.16 4.70833 167.713 4.48864C168.27 4.26894 168.921 4.15909 169.668 4.15909C170.77 4.15909 171.637 4.39205 172.27 4.85795C172.906 5.32386 173.277 5.95833 173.384 6.76136ZM177.527 7.95455V13H175.107V1.36364H177.459V5.8125H177.561C177.758 5.29735 178.076 4.89394 178.516 4.60227C178.955 4.30682 179.506 4.15909 180.169 4.15909C180.775 4.15909 181.304 4.29167 181.754 4.55682C182.209 4.81818 182.561 5.19508 182.811 5.6875C183.065 6.17614 183.19 6.76136 183.186 7.44318V13H180.766V7.875C180.769 7.33712 180.633 6.91856 180.357 6.61932C180.084 6.32008 179.701 6.17045 179.209 6.17045C178.879 6.17045 178.588 6.24053 178.334 6.38068C178.084 6.52083 177.887 6.72538 177.743 6.99432C177.603 7.25947 177.531 7.57955 177.527 7.95455ZM188.794 13V4.27273H191.214V13H188.794ZM190.01 3.14773C189.65 3.14773 189.341 3.02841 189.084 2.78977C188.83 2.54735 188.703 2.25758 188.703 1.92045C188.703 1.58712 188.83 1.30114 189.084 1.0625C189.341 0.820075 189.65 0.698863 190.01 0.698863C190.37 0.698863 190.677 0.820075 190.93 1.0625C191.188 1.30114 191.317 1.58712 191.317 1.92045C191.317 2.25758 191.188 2.54735 190.93 2.78977C190.677 3.02841 190.37 3.14773 190.01 3.14773ZM197.795 4.27273V6.09091H192.54V4.27273H197.795ZM193.733 2.18182H196.153V10.3182C196.153 10.5417 196.188 10.7159 196.256 10.8409C196.324 10.9621 196.419 11.0473 196.54 11.0966C196.665 11.1458 196.809 11.1705 196.972 11.1705C197.085 11.1705 197.199 11.161 197.312 11.142C197.426 11.1193 197.513 11.1023 197.574 11.0909L197.955 12.892C197.833 12.9299 197.663 12.9735 197.443 13.0227C197.223 13.0758 196.956 13.108 196.642 13.1193C196.059 13.142 195.547 13.0644 195.108 12.8864C194.672 12.7083 194.333 12.4318 194.091 12.0568C193.848 11.6818 193.729 11.2083 193.733 10.6364V2.18182ZM202.264 1.36364L202.043 9.51136H199.963L199.736 1.36364H202.264ZM201.003 13.1477C200.628 13.1477 200.306 13.0152 200.037 12.75C199.768 12.4811 199.635 12.1591 199.639 11.7841C199.635 11.4129 199.768 11.0947 200.037 10.8295C200.306 10.5644 200.628 10.4318 201.003 10.4318C201.363 10.4318 201.679 10.5644 201.952 10.8295C202.224 11.0947 202.363 11.4129 202.366 11.7841C202.363 12.0341 202.296 12.2633 202.168 12.4716C202.043 12.6761 201.878 12.8409 201.673 12.9659C201.469 13.0871 201.245 13.1477 201.003 13.1477Z" fill="#B6D3FF"/>
</svg>
