<svg width="408" height="157" viewBox="0 0 408 157" fill="none" xmlns="http://www.w3.org/2000/svg">
<g filter="url(#filter0_d_99_3112)">
<path d="M16 39C16 30.7157 22.7157 24 31 24H377C385.284 24 392 30.7157 392 39V149H16V39Z" fill="url(#paint0_linear_99_3112)"/>
</g>
<path opacity="0.4" d="M174.5 40.5H232.5" stroke="white" stroke-width="2" stroke-linecap="square"/>
<path d="M146.202 84.459H149.64L149.35 74.0498H146.481L146.202 84.459ZM147.921 72.2881C149.135 72.2881 149.876 71.5898 149.876 70.4512C149.876 69.3232 149.135 68.625 147.921 68.625C146.718 68.625 145.966 69.3232 145.966 70.4512C145.966 71.5898 146.718 72.2881 147.921 72.2881ZM152.583 76.6924C152.702 79.582 155.097 81.3975 158.792 81.3975C162.681 81.3975 165.077 79.4854 165.077 76.3594C165.077 73.9531 163.734 72.6104 160.619 71.9551L158.749 71.5576C156.934 71.1709 156.193 70.623 156.193 69.667C156.193 68.4854 157.267 67.7334 158.889 67.7334C160.457 67.7334 161.596 68.5498 161.747 69.7744H164.797C164.701 67.0137 162.284 65.1016 158.868 65.1016C155.29 65.1016 152.938 67.0244 152.938 69.9463C152.938 72.3096 154.324 73.7812 157.149 74.3721L159.168 74.8018C161.07 75.21 161.843 75.7793 161.843 76.7676C161.843 77.9385 160.651 78.7549 158.964 78.7549C157.138 78.7549 155.871 77.9492 155.72 76.6924H152.583ZM170.942 65.499H167.698V75.6504C167.698 79.0879 170.233 81.3975 174.197 81.3975C178.161 81.3975 180.685 79.0879 180.685 75.6504V65.499H177.441V75.3174C177.441 77.2725 176.27 78.5186 174.197 78.5186C172.124 78.5186 170.942 77.2725 170.942 75.3174V65.499ZM190.966 81C194.275 81 196.326 79.2812 196.326 76.5635C196.326 74.5654 194.833 73.0186 192.782 72.8682V72.6748C194.371 72.4385 195.585 71.0098 195.585 69.3662C195.585 66.9707 193.791 65.499 190.784 65.499H184.005V81H190.966ZM187.249 67.9805H189.956C191.503 67.9805 192.395 68.7217 192.395 69.957C192.395 71.2031 191.439 71.9229 189.688 71.9229H187.249V67.9805ZM187.249 78.5186V74.1143H190.064C191.976 74.1143 193.018 74.8662 193.018 76.2842C193.018 77.7344 192.008 78.5186 190.139 78.5186H187.249ZM209.089 78.2285H202.063V74.458H208.691V71.8906H202.063V68.2705H209.089V65.499H198.819V81H209.089V78.2285ZM217.297 65.499V81H223.398C228.039 81 230.671 78.1748 230.671 73.1367C230.671 68.2812 228.006 65.499 223.398 65.499H217.297ZM220.541 68.2705H222.882C225.697 68.2705 227.362 70.0537 227.362 73.1904C227.362 76.4668 225.751 78.2285 222.882 78.2285H220.541V68.2705ZM243.583 78.2285H236.558V74.458H243.186V71.8906H236.558V68.2705H243.583V65.499H233.314V81H243.583V78.2285ZM254.895 81V71.2998H255.089L262.243 81H264.929V65.499H261.824V75.1562H261.631L254.498 65.499H251.791V81H254.895ZM271.503 81V65.499H268.259V81H271.503ZM282.88 81L288.047 65.499H284.556L281.097 77.3477H280.903L277.38 65.499H273.717L278.959 81H282.88ZM300.53 78.2285H293.504V74.458H300.132V71.8906H293.504V68.2705H300.53V65.499H290.26V81H300.53V78.2285ZM313.646 78.1748H306.75V65.499H303.506V81H313.646V78.1748ZM316.472 65.499L316.751 75.8975H319.619L319.909 65.499H316.472ZM318.191 81.3223C319.404 81.3223 320.146 80.624 320.146 79.4961C320.146 78.3574 319.404 77.6592 318.191 77.6592C316.987 77.6592 316.236 78.3574 316.236 79.4961C316.236 80.624 316.987 81.3223 318.191 81.3223ZM150.843 103.972H146.311V100.823H150.608V99.8076H146.311V96.8687H150.843V95.8403H145.168V105H150.843V103.972ZM152.354 100.03C152.354 101.02 152.938 101.572 154.22 101.883L155.394 102.169C156.124 102.347 156.48 102.664 156.48 103.134C156.48 103.762 155.82 104.2 154.899 104.2C154.023 104.2 153.477 103.832 153.293 103.254H152.17C152.29 104.391 153.338 105.121 154.861 105.121C156.416 105.121 157.603 104.276 157.603 103.051C157.603 102.067 156.981 101.509 155.693 101.198L154.639 100.944C153.833 100.747 153.452 100.455 153.452 99.9854C153.452 99.376 154.087 98.9634 154.899 98.9634C155.724 98.9634 156.258 99.3252 156.404 99.8711H157.483C157.337 98.7476 156.34 98.0366 154.906 98.0366C153.452 98.0366 152.354 98.8936 152.354 100.03ZM165.475 103.438C164.472 103.438 163.901 102.67 163.901 101.433C163.901 100.208 164.478 99.4331 165.475 99.4331C166.471 99.4331 167.074 100.208 167.074 101.439C167.074 102.67 166.478 103.438 165.475 103.438ZM165.449 107.653C167.563 107.653 168.903 106.619 168.903 104.975V97.9985H167.113V99.1221H166.998C166.624 98.354 165.818 97.8843 164.872 97.8843C163.095 97.8843 162.003 99.2681 162.003 101.439C162.003 103.546 163.088 104.898 164.834 104.898C165.818 104.898 166.554 104.505 166.941 103.769H167.055V105.063C167.055 105.851 166.478 106.308 165.488 106.308C164.688 106.308 164.167 106.035 164.072 105.603H162.244C162.358 106.834 163.59 107.653 165.449 107.653ZM170.496 105H172.343V101.122C172.343 100.138 173.035 99.541 174.044 99.541C174.343 99.541 174.774 99.5981 174.92 99.6553V97.9731C174.762 97.916 174.451 97.8843 174.197 97.8843C173.308 97.8843 172.585 98.4175 172.4 99.1157H172.286V97.9985H170.496V105ZM178.298 103.718C177.657 103.718 177.206 103.4 177.206 102.88C177.206 102.378 177.593 102.093 178.387 102.036L179.802 101.947V102.461C179.802 103.172 179.155 103.718 178.298 103.718ZM177.688 105.108C178.596 105.108 179.358 104.727 179.72 104.086H179.834V105H181.624V100.22C181.624 98.7222 180.576 97.8462 178.723 97.8462C176.965 97.8462 175.778 98.6587 175.657 99.9536H177.358C177.511 99.5347 177.955 99.3062 178.621 99.3062C179.383 99.3062 179.802 99.6362 179.802 100.22V100.792L178.107 100.893C176.368 100.995 175.397 101.731 175.397 103C175.397 104.283 176.343 105.108 177.688 105.108ZM183.706 96.3354V98.0684H182.614V99.522H183.706V103.108C183.706 104.473 184.379 105.025 186.08 105.025C186.436 105.025 186.778 104.987 187.007 104.943V103.534C186.829 103.553 186.702 103.559 186.461 103.559C185.833 103.559 185.553 103.28 185.553 102.67V99.522H187.007V98.0684H185.553V96.3354H183.706ZM188.302 105H190.149V97.9985H188.302V105ZM189.229 96.9512C189.806 96.9512 190.276 96.4814 190.276 95.8911C190.276 95.3008 189.806 94.8374 189.229 94.8374C188.658 94.8374 188.181 95.3008 188.181 95.8911C188.181 96.4814 188.658 96.9512 189.229 96.9512ZM191.603 100.055C191.603 101.134 192.263 101.782 193.622 102.08L194.891 102.366C195.507 102.499 195.774 102.708 195.774 103.051C195.774 103.502 195.278 103.8 194.561 103.8C193.825 103.8 193.374 103.527 193.234 103.051H191.432C191.559 104.397 192.676 105.152 194.523 105.152C196.357 105.152 197.608 104.238 197.608 102.842C197.608 101.794 196.999 101.223 195.64 100.925L194.326 100.639C193.679 100.493 193.38 100.284 193.38 99.9409C193.38 99.4966 193.869 99.1982 194.529 99.1982C195.215 99.1982 195.64 99.4775 195.735 99.9282H197.443C197.341 98.5889 196.294 97.8462 194.517 97.8462C192.771 97.8462 191.603 98.7285 191.603 100.055ZM202.96 107.476C204.172 107.476 204.718 107.006 205.302 105.419L207.974 98.1572H206.813L204.94 103.788H204.838L202.96 98.1572H201.779L204.312 105.006L204.185 105.413C203.899 106.238 203.556 106.536 202.928 106.536C202.775 106.536 202.604 106.53 202.471 106.504V107.438C202.623 107.463 202.814 107.476 202.96 107.476ZM213.04 96.3862V98.1572H211.936V99.0713H213.04V103.223C213.04 104.53 213.605 105.051 215.014 105.051C215.23 105.051 215.44 105.025 215.655 104.987V104.067C215.452 104.086 215.344 104.092 215.148 104.092C214.437 104.092 214.132 103.75 214.132 102.943V99.0713H215.655V98.1572H214.132V96.3862H213.04ZM219.674 99.0015C220.759 99.0015 221.483 99.8013 221.508 101.014H217.738C217.82 99.8013 218.582 99.0015 219.674 99.0015ZM221.476 103.229C221.191 103.832 220.594 104.156 219.712 104.156C218.55 104.156 217.795 103.299 217.738 101.947V101.896H222.657V101.477C222.657 99.3506 221.534 98.0366 219.686 98.0366C217.808 98.0366 216.601 99.4331 216.601 101.585C216.601 103.75 217.788 105.121 219.686 105.121C221.184 105.121 222.251 104.397 222.568 103.229H221.476ZM227.977 96.3862V98.1572H226.872V99.0713H227.977V103.223C227.977 104.53 228.542 105.051 229.951 105.051C230.167 105.051 230.376 105.025 230.592 104.987V104.067C230.389 104.086 230.281 104.092 230.084 104.092C229.373 104.092 229.069 103.75 229.069 102.943V99.0713H230.592V98.1572H229.069V96.3862H227.977ZM234.693 105.121C236.642 105.121 237.848 103.775 237.848 101.579C237.848 99.376 236.642 98.0366 234.693 98.0366C232.744 98.0366 231.538 99.376 231.538 101.579C231.538 103.775 232.744 105.121 234.693 105.121ZM234.693 104.137C233.398 104.137 232.668 103.197 232.668 101.579C232.668 99.9536 233.398 99.0205 234.693 99.0205C235.988 99.0205 236.718 99.9536 236.718 101.579C236.718 103.197 235.988 104.137 234.693 104.137ZM239.302 105H240.393V100.76C240.393 99.7949 241.085 99.0205 241.98 99.0205C242.844 99.0205 243.409 99.541 243.409 100.354V105H244.5V100.601C244.5 99.7314 245.135 99.0205 246.087 99.0205C247.052 99.0205 247.528 99.5156 247.528 100.525V105H248.62V100.271C248.62 98.8364 247.839 98.0366 246.443 98.0366C245.497 98.0366 244.716 98.5127 244.348 99.2363H244.247C243.929 98.5254 243.282 98.0366 242.355 98.0366C241.441 98.0366 240.755 98.4746 240.444 99.2363H240.343V98.1572H239.302V105ZM252.461 104.162C251.667 104.162 251.077 103.756 251.077 103.058C251.077 102.372 251.534 102.01 252.575 101.94L254.416 101.82V102.448C254.416 103.426 253.584 104.162 252.461 104.162ZM252.257 105.121C253.172 105.121 253.921 104.721 254.365 103.991H254.466V105H255.507V100.315C255.507 98.8936 254.574 98.0366 252.905 98.0366C251.445 98.0366 250.366 98.7603 250.22 99.8584H251.324C251.477 99.3188 252.048 99.0078 252.867 99.0078C253.889 99.0078 254.416 99.4712 254.416 100.315V100.938L252.442 101.058C250.848 101.153 249.947 101.858 249.947 103.083C249.947 104.333 250.931 105.121 252.257 105.121ZM257.266 105H258.358V100.76C258.358 99.7949 259.113 99.0967 260.154 99.0967C260.37 99.0967 260.764 99.1348 260.852 99.1602V98.0684C260.713 98.0493 260.484 98.0366 260.307 98.0366C259.399 98.0366 258.612 98.5063 258.409 99.1729H258.307V98.1572H257.266V105ZM264.065 104.162C263.271 104.162 262.681 103.756 262.681 103.058C262.681 102.372 263.138 102.01 264.179 101.94L266.02 101.82V102.448C266.02 103.426 265.188 104.162 264.065 104.162ZM263.862 105.121C264.776 105.121 265.525 104.721 265.969 103.991H266.071V105H267.112V100.315C267.112 98.8936 266.178 98.0366 264.509 98.0366C263.049 98.0366 261.97 98.7603 261.824 99.8584H262.928C263.081 99.3188 263.652 99.0078 264.471 99.0078C265.493 99.0078 266.02 99.4712 266.02 100.315V100.938L264.046 101.058C262.452 101.153 261.551 101.858 261.551 103.083C261.551 104.333 262.535 105.121 263.862 105.121ZM265.004 97.2051L266.47 95.0469H265.163L264.039 97.2051H265.004ZM272.216 98.4238H273.32C273.32 97.3384 274.05 96.6211 275.148 96.6211C276.227 96.6211 276.881 97.3447 276.881 98.3159C276.881 99.1221 276.538 99.5981 275.37 100.861L272.273 104.213V105H278.201V103.972H273.86V103.87L275.942 101.718C277.592 100.011 278.049 99.249 278.049 98.1953C278.049 96.71 276.824 95.6245 275.224 95.6245C273.472 95.6245 272.216 96.7925 272.216 98.4238ZM283.286 105H284.378V100.76C284.378 99.7949 285.07 99.0205 285.965 99.0205C286.828 99.0205 287.393 99.541 287.393 100.354V105H288.485V100.601C288.485 99.7314 289.12 99.0205 290.072 99.0205C291.037 99.0205 291.513 99.5156 291.513 100.525V105H292.605V100.271C292.605 98.8364 291.824 98.0366 290.427 98.0366C289.482 98.0366 288.701 98.5127 288.333 99.2363H288.231C287.914 98.5254 287.266 98.0366 286.34 98.0366C285.426 98.0366 284.74 98.4746 284.429 99.2363H284.327V98.1572H283.286V105ZM294.363 105H295.455V98.1572H294.363V105ZM294.909 96.8369C295.328 96.8369 295.671 96.4941 295.671 96.0752C295.671 95.6562 295.328 95.3135 294.909 95.3135C294.49 95.3135 294.147 95.6562 294.147 96.0752C294.147 96.4941 294.49 96.8369 294.909 96.8369ZM297.277 105H298.369V100.95C298.369 99.7505 299.074 99.0205 300.165 99.0205C301.257 99.0205 301.778 99.6045 301.778 100.836V105H302.869V100.569C302.869 98.9443 302.012 98.0366 300.476 98.0366C299.429 98.0366 298.762 98.481 298.42 99.2363H298.318V98.1572H297.277V105ZM305.301 107.33L306.297 103.718H305.085L304.482 107.33H305.301ZM317.279 100.252C317.089 99.0332 316.073 98.0366 314.41 98.0366C312.493 98.0366 311.274 99.4204 311.274 101.553C311.274 103.73 312.5 105.121 314.417 105.121C316.061 105.121 317.083 104.194 317.279 102.937H316.175C315.972 103.711 315.331 104.137 314.41 104.137C313.191 104.137 312.404 103.134 312.404 101.553C312.404 100.004 313.179 99.0205 314.41 99.0205C315.394 99.0205 315.997 99.5728 316.175 100.252H317.279ZM321.444 105.121C323.392 105.121 324.598 103.775 324.598 101.579C324.598 99.376 323.392 98.0366 321.444 98.0366C319.495 98.0366 318.289 99.376 318.289 101.579C318.289 103.775 319.495 105.121 321.444 105.121ZM321.444 104.137C320.149 104.137 319.419 103.197 319.419 101.579C319.419 99.9536 320.149 99.0205 321.444 99.0205C322.739 99.0205 323.469 99.9536 323.469 101.579C323.469 103.197 322.739 104.137 321.444 104.137ZM326.052 105H327.144V100.95C327.144 99.7505 327.849 99.0205 328.94 99.0205C330.032 99.0205 330.553 99.6045 330.553 100.836V105H331.645V100.569C331.645 98.9443 330.788 98.0366 329.252 98.0366C328.204 98.0366 327.538 98.481 327.195 99.2363H327.093V98.1572H326.052V105ZM336.196 105.121C338.145 105.121 339.351 103.775 339.351 101.579C339.351 99.376 338.145 98.0366 336.196 98.0366C334.247 98.0366 333.041 99.376 333.041 101.579C333.041 103.775 334.247 105.121 336.196 105.121ZM336.196 104.137C334.901 104.137 334.171 103.197 334.171 101.579C334.171 99.9536 334.901 99.0205 336.196 99.0205C337.491 99.0205 338.221 99.9536 338.221 101.579C338.221 103.197 337.491 104.137 336.196 104.137ZM346.467 100.252C346.276 99.0332 345.261 98.0366 343.598 98.0366C341.681 98.0366 340.462 99.4204 340.462 101.553C340.462 103.73 341.687 105.121 343.604 105.121C345.248 105.121 346.27 104.194 346.467 102.937H345.362C345.159 103.711 344.518 104.137 343.598 104.137C342.379 104.137 341.592 103.134 341.592 101.553C341.592 100.004 342.366 99.0205 343.598 99.0205C344.582 99.0205 345.185 99.5728 345.362 100.252H346.467ZM350.549 99.0015C351.634 99.0015 352.358 99.8013 352.383 101.014H348.613C348.695 99.8013 349.457 99.0015 350.549 99.0015ZM352.351 103.229C352.066 103.832 351.469 104.156 350.587 104.156C349.425 104.156 348.67 103.299 348.613 101.947V101.896H353.532V101.477C353.532 99.3506 352.409 98.0366 350.561 98.0366C348.682 98.0366 347.476 99.4331 347.476 101.585C347.476 103.75 348.663 105.121 350.561 105.121C352.059 105.121 353.126 104.397 353.443 103.229H352.351ZM145.092 129H146.184V119.44H145.092V129ZM150.856 129.121C152.804 129.121 154.011 127.775 154.011 125.579C154.011 123.376 152.804 122.037 150.856 122.037C148.907 122.037 147.701 123.376 147.701 125.579C147.701 127.775 148.907 129.121 150.856 129.121ZM150.856 128.137C149.561 128.137 148.831 127.197 148.831 125.579C148.831 123.954 149.561 123.021 150.856 123.021C152.151 123.021 152.881 123.954 152.881 125.579C152.881 127.197 152.151 128.137 150.856 128.137ZM155.306 124.03C155.306 125.02 155.89 125.572 157.172 125.883L158.346 126.169C159.076 126.347 159.432 126.664 159.432 127.134C159.432 127.762 158.772 128.2 157.851 128.2C156.975 128.2 156.429 127.832 156.245 127.254H155.122C155.242 128.391 156.29 129.121 157.813 129.121C159.368 129.121 160.555 128.276 160.555 127.051C160.555 126.067 159.933 125.509 158.645 125.198L157.591 124.944C156.785 124.747 156.404 124.455 156.404 123.985C156.404 123.376 157.039 122.963 157.851 122.963C158.676 122.963 159.209 123.325 159.355 123.871H160.435C160.289 122.748 159.292 122.037 157.857 122.037C156.404 122.037 155.306 122.894 155.306 124.03ZM168.82 129.121C170.553 129.121 171.689 127.718 171.689 125.579C171.689 123.427 170.56 122.037 168.82 122.037C167.881 122.037 167.049 122.5 166.675 123.236H166.573V119.44H165.481V129H166.522V127.908H166.624C167.056 128.67 167.868 129.121 168.82 129.121ZM168.566 123.021C169.817 123.021 170.56 123.979 170.56 125.579C170.56 127.178 169.817 128.137 168.566 128.137C167.322 128.137 166.548 127.159 166.548 125.579C166.548 123.998 167.322 123.021 168.566 123.021ZM175.873 123.001C176.958 123.001 177.682 123.801 177.707 125.014H173.937C174.019 123.801 174.781 123.001 175.873 123.001ZM177.676 127.229C177.39 127.832 176.793 128.156 175.911 128.156C174.749 128.156 173.994 127.299 173.937 125.947V125.896H178.856V125.477C178.856 123.351 177.733 122.037 175.886 122.037C174.007 122.037 172.801 123.433 172.801 125.585C172.801 127.75 173.988 129.121 175.886 129.121C177.384 129.121 178.45 128.397 178.767 127.229H177.676ZM180.31 129H181.402V124.95C181.402 123.75 182.107 123.021 183.198 123.021C184.29 123.021 184.811 123.604 184.811 124.836V129H185.902V124.569C185.902 122.944 185.045 122.037 183.509 122.037C182.462 122.037 181.795 122.481 181.453 123.236H181.351V122.157H180.31V129ZM190.371 123.001C191.457 123.001 192.18 123.801 192.206 125.014H188.435C188.518 123.801 189.28 123.001 190.371 123.001ZM192.174 127.229C191.888 127.832 191.292 128.156 190.409 128.156C189.248 128.156 188.493 127.299 188.435 125.947V125.896H193.355V125.477C193.355 123.351 192.231 122.037 190.384 122.037C188.505 122.037 187.299 123.433 187.299 125.585C187.299 127.75 188.486 129.121 190.384 129.121C191.882 129.121 192.949 128.397 193.266 127.229H192.174ZM195.266 129H196.357V123.071H197.925V122.157H196.357V121.427C196.357 120.678 196.688 120.297 197.475 120.297C197.671 120.297 197.856 120.304 197.989 120.329V119.44C197.76 119.396 197.519 119.377 197.253 119.377C195.951 119.377 195.266 120.031 195.266 121.396V122.157H194.129V123.071H195.266V129ZM199.284 129H200.376V122.157H199.284V129ZM199.83 120.837C200.249 120.837 200.592 120.494 200.592 120.075C200.592 119.656 200.249 119.313 199.83 119.313C199.411 119.313 199.068 119.656 199.068 120.075C199.068 120.494 199.411 120.837 199.83 120.837ZM207.86 124.252C207.67 123.033 206.654 122.037 204.991 122.037C203.074 122.037 201.855 123.42 201.855 125.553C201.855 127.73 203.08 129.121 204.997 129.121C206.641 129.121 207.663 128.194 207.86 126.937H206.755C206.552 127.711 205.911 128.137 204.991 128.137C203.772 128.137 202.985 127.134 202.985 125.553C202.985 124.004 203.759 123.021 204.991 123.021C205.975 123.021 206.578 123.573 206.755 124.252H207.86ZM209.238 129H210.329V122.157H209.238V129ZM209.784 120.837C210.202 120.837 210.545 120.494 210.545 120.075C210.545 119.656 210.202 119.313 209.784 119.313C209.365 119.313 209.022 119.656 209.022 120.075C209.022 120.494 209.365 120.837 209.784 120.837ZM214.963 129.121C216.912 129.121 218.118 127.775 218.118 125.579C218.118 123.376 216.912 122.037 214.963 122.037C213.015 122.037 211.809 123.376 211.809 125.579C211.809 127.775 213.015 129.121 214.963 129.121ZM214.963 128.137C213.669 128.137 212.939 127.197 212.939 125.579C212.939 123.954 213.669 123.021 214.963 123.021C216.258 123.021 216.988 123.954 216.988 125.579C216.988 127.197 216.258 128.137 214.963 128.137ZM219.413 124.03C219.413 125.02 219.997 125.572 221.28 125.883L222.454 126.169C223.184 126.347 223.539 126.664 223.539 127.134C223.539 127.762 222.879 128.2 221.959 128.2C221.083 128.2 220.537 127.832 220.353 127.254H219.229C219.35 128.391 220.397 129.121 221.921 129.121C223.476 129.121 224.663 128.276 224.663 127.051C224.663 126.067 224.041 125.509 222.752 125.198L221.699 124.944C220.892 124.747 220.512 124.455 220.512 123.985C220.512 123.376 221.146 122.963 221.959 122.963C222.784 122.963 223.317 123.325 223.463 123.871H224.542C224.396 122.748 223.4 122.037 221.965 122.037C220.512 122.037 219.413 122.894 219.413 124.03ZM232.058 129.121C233.004 129.121 233.817 128.67 234.248 127.908H234.35V129H235.391V119.44H234.299V123.236H234.204C233.817 122.487 233.011 122.037 232.058 122.037C230.319 122.037 229.183 123.433 229.183 125.579C229.183 127.73 230.307 129.121 232.058 129.121ZM232.312 123.021C233.55 123.021 234.325 124.011 234.325 125.579C234.325 127.159 233.557 128.137 232.312 128.137C231.062 128.137 230.313 127.178 230.313 125.579C230.313 123.985 231.068 123.021 232.312 123.021ZM239.981 123.001C241.066 123.001 241.79 123.801 241.815 125.014H238.045C238.127 123.801 238.889 123.001 239.981 123.001ZM241.783 127.229C241.498 127.832 240.901 128.156 240.019 128.156C238.857 128.156 238.102 127.299 238.045 125.947V125.896H242.964V125.477C242.964 123.351 241.84 122.037 239.993 122.037C238.114 122.037 236.908 123.433 236.908 125.585C236.908 127.75 238.095 129.121 239.993 129.121C241.491 129.121 242.558 128.397 242.875 127.229H241.783ZM247.89 129H248.982V124.95C248.982 123.795 249.655 123.021 250.88 123.021C251.915 123.021 252.461 123.624 252.461 124.836V129H253.552V124.569C253.552 122.963 252.638 122.037 251.191 122.037C250.144 122.037 249.426 122.481 249.084 123.236H248.982V119.44H247.89V129ZM257.393 128.162C256.6 128.162 256.009 127.756 256.009 127.058C256.009 126.372 256.466 126.01 257.507 125.94L259.348 125.82V126.448C259.348 127.426 258.517 128.162 257.393 128.162ZM257.19 129.121C258.104 129.121 258.853 128.721 259.297 127.991H259.399V129H260.44V124.315C260.44 122.894 259.507 122.037 257.837 122.037C256.377 122.037 255.298 122.76 255.152 123.858H256.257C256.409 123.319 256.98 123.008 257.799 123.008C258.821 123.008 259.348 123.471 259.348 124.315V124.938L257.374 125.058C255.781 125.153 254.879 125.858 254.879 127.083C254.879 128.333 255.863 129.121 257.19 129.121ZM267.861 124.252C267.67 123.033 266.654 122.037 264.991 122.037C263.074 122.037 261.856 123.42 261.856 125.553C261.856 127.73 263.081 129.121 264.998 129.121C266.642 129.121 267.664 128.194 267.861 126.937H266.756C266.553 127.711 265.912 128.137 264.991 128.137C263.773 128.137 262.986 127.134 262.986 125.553C262.986 124.004 263.76 123.021 264.991 123.021C265.975 123.021 266.578 123.573 266.756 124.252H267.861ZM271.942 123.001C273.028 123.001 273.751 123.801 273.777 125.014H270.006C270.089 123.801 270.851 123.001 271.942 123.001ZM273.745 127.229C273.459 127.832 272.863 128.156 271.98 128.156C270.819 128.156 270.063 127.299 270.006 125.947V125.896H274.926V125.477C274.926 123.351 273.802 122.037 271.955 122.037C270.076 122.037 268.87 123.433 268.87 125.585C268.87 127.75 270.057 129.121 271.955 129.121C273.453 129.121 274.519 128.397 274.837 127.229H273.745ZM276.38 129H277.471V124.76C277.471 123.795 278.227 123.097 279.268 123.097C279.484 123.097 279.877 123.135 279.966 123.16V122.068C279.826 122.049 279.598 122.037 279.42 122.037C278.512 122.037 277.725 122.506 277.522 123.173H277.421V122.157H276.38V129ZM281.134 129H282.226V119.44H281.134V129ZM286.898 129.121C288.847 129.121 290.053 127.775 290.053 125.579C290.053 123.376 288.847 122.037 286.898 122.037C284.949 122.037 283.743 123.376 283.743 125.579C283.743 127.775 284.949 129.121 286.898 129.121ZM286.898 128.137C285.603 128.137 284.873 127.197 284.873 125.579C284.873 123.954 285.603 123.021 286.898 123.021C288.193 123.021 288.923 123.954 288.923 125.579C288.923 127.197 288.193 128.137 286.898 128.137ZM292.408 129.063C292.865 129.063 293.233 128.689 293.233 128.238C293.233 127.781 292.865 127.413 292.408 127.413C291.958 127.413 291.583 127.781 291.583 128.238C291.583 128.689 291.958 129.063 292.408 129.063ZM292.408 124.15C292.865 124.15 293.233 123.776 293.233 123.325C293.233 122.868 292.865 122.5 292.408 122.5C291.958 122.5 291.583 122.868 291.583 123.325C291.583 123.776 291.958 124.15 292.408 124.15Z" fill="white"/>
<ellipse cx="86.9999" cy="96.0893" rx="30.5229" ry="30.5229" fill="#382B73"/>
<path d="M63.6372 31.7664L75.541 58.3312H98.4739L84.4503 27.0078C77.0827 27.3339 70.0561 28.9942 63.6372 31.7664Z" fill="#382B73"/>
<path d="M75.541 58.3468H98.4739L110.378 31.782C103.959 29.0099 96.9471 27.3496 89.5795 27.0234L75.541 58.3468Z" fill="#382B73"/>
<path d="M61.7842 24.0587L75.541 55.3673H98.4739L84.4503 24.0439C76.5913 23.9994 68.6329 24.0587 61.7842 24.0587Z" fill="#177BC0"/>
<path d="M86.9998 29.7804L75.5408 55.3817L74.4883 53.0395L85.9325 27.3789L86.9998 29.7804Z" fill="#136DA0"/>
<path fill-rule="evenodd" clip-rule="evenodd" d="M75.9707 63.4316H98.029C100.475 63.4316 102.476 61.4303 102.461 58.9843C102.461 56.5384 100.46 54.5371 98.0141 54.5371H75.9707C73.5247 54.5371 71.5234 56.5384 71.5234 58.9843C71.5234 61.4303 73.5247 63.4316 75.9707 63.4316ZM73.747 58.9843C73.747 57.7539 74.7403 56.7607 75.9707 56.7607H98.0141C99.2445 56.7607 100.238 57.7539 100.238 58.9843C100.238 60.2147 99.2445 61.208 98.0141 61.208H75.9707C74.7403 61.208 73.747 60.2147 73.747 58.9843Z" fill="#382B73"/>
<path fill-rule="evenodd" clip-rule="evenodd" d="M75.9707 61.9492H98.029C100.475 61.9492 102.476 59.9479 102.461 57.5019C102.461 55.0559 100.46 53.0547 98.0141 53.0547H75.9707C73.5247 53.0547 71.5234 55.0559 71.5234 57.5019C71.5234 59.9479 73.5247 61.9492 75.9707 61.9492ZM73.747 57.5019C73.747 56.2715 74.7403 55.2783 75.9707 55.2783H98.0141C99.2445 55.2783 100.238 56.2715 100.238 57.5019C100.238 58.7323 99.2445 59.7255 98.0141 59.7255H75.9707C74.7403 59.7255 73.747 58.7323 73.747 57.5019Z" fill="#4537A0"/>
<path d="M95.8499 64.0248H78.1499V60.6597C78.1499 58.9994 79.4989 57.6504 81.1592 57.6504H92.8258C94.4861 57.6504 95.8351 58.9994 95.8351 60.6597V64.0248H95.8499Z" fill="#E7AD27"/>
<ellipse cx="86.9999" cy="93.1244" rx="30.5229" ry="30.5229" fill="#FFC733"/>
<ellipse cx="87" cy="93.124" rx="25.2158" ry="25.2158" fill="#FEDE3A"/>
<path d="M86.9999 69.3461C97.0507 69.3461 105.797 74.9941 110.229 83.2808C106.39 74.2381 97.4361 67.9082 86.9999 67.9082C76.5637 67.9082 67.61 74.2529 63.7705 83.2808C68.2029 74.9793 76.9492 69.3461 86.9999 69.3461Z" fill="#E7AD27"/>
<path d="M116.456 95.0222L117.256 97.6165C117.508 98.4318 118.146 99.0692 118.961 99.3212L121.555 100.122C121.777 100.196 121.777 100.507 121.555 100.566L118.961 101.367C118.146 101.619 117.508 102.256 117.256 103.072L116.456 105.666C116.381 105.888 116.07 105.888 116.011 105.666L115.21 103.072C114.958 102.256 114.321 101.619 113.506 101.367L110.911 100.566C110.689 100.492 110.689 100.181 110.911 100.122L113.506 99.3212C114.321 99.0692 114.958 98.4318 115.21 97.6165L116.011 95.0222C116.07 94.7999 116.381 94.7999 116.456 95.0222Z" fill="white"/>
<path d="M70.6338 69.6726L71.4343 72.2669C71.6864 73.0822 72.3238 73.7196 73.1391 73.9716L75.7333 74.7721C75.9557 74.8462 75.9557 75.1576 75.7333 75.2169L73.1391 76.0174C72.3238 76.2694 71.6864 76.9068 71.4343 77.7221L70.6338 80.3163C70.5597 80.5387 70.2484 80.5387 70.1891 80.3163L69.3886 77.7221C69.1366 76.9068 68.4992 76.2694 67.6838 76.0174L65.0896 75.2169C64.8673 75.1427 64.8673 74.8314 65.0896 74.7721L67.6838 73.9716C68.4992 73.7196 69.1366 73.0822 69.3886 72.2669L70.1891 69.6726C70.2632 69.4503 70.5745 69.4503 70.6338 69.6726Z" fill="white"/>
<path d="M75.541 55.3829H98.4739L112.846 24.0596C105.367 24.0596 97.1088 24.0003 89.5795 24.0596L75.541 55.3829Z" fill="#1CAEE4"/>
<path d="M91.2544 55.3821L104.122 26.5195L106.182 27.1866L93.4187 55.3821H91.2544Z" fill="#177BC0"/>
<path d="M97.933 108.331V103.125H84.7825V102.752L91.0051 96.9438C95.9833 92.2768 97.5182 89.8707 97.5182 86.3653C97.5182 81.3042 93.4527 77.6328 87.1056 77.6328C80.5511 77.6328 75.9878 81.6775 75.9878 87.5476H81.7956C81.7956 84.6852 83.7039 82.6732 86.753 82.6732C89.6776 82.6732 91.3785 84.5607 91.3785 86.9461C91.3785 88.958 90.5696 90.327 86.836 93.9154L76.3404 103.955V108.331H97.933Z" fill="#E7AD27"/>
<path d="M98.8769 106.757V101.551H85.7263V101.177L91.949 95.3696C96.9271 90.7026 98.462 88.2965 98.462 84.7911C98.462 79.73 94.3966 76.0586 88.0495 76.0586C81.4949 76.0586 76.9316 80.1033 76.9316 85.9734H82.7395C82.7395 83.1109 84.6477 81.0989 87.6968 81.0989C90.6215 81.0989 92.3223 82.9865 92.3223 85.3718C92.3223 87.3838 91.5134 88.7528 87.7798 92.3412L77.2843 102.38V106.757H98.8769Z" fill="white"/>
<defs>
<filter id="filter0_d_99_3112" x="0" y="0" width="408" height="157" filterUnits="userSpaceOnUse" color-interpolation-filters="sRGB">
<feFlood flood-opacity="0" result="BackgroundImageFix"/>
<feColorMatrix in="SourceAlpha" type="matrix" values="0 0 0 0 0 0 0 0 0 0 0 0 0 0 0 0 0 0 127 0" result="hardAlpha"/>
<feMorphology radius="8" operator="erode" in="SourceAlpha" result="effect1_dropShadow_99_3112"/>
<feOffset dy="-8"/>
<feGaussianBlur stdDeviation="12"/>
<feColorMatrix type="matrix" values="0 0 0 0 0.270588 0 0 0 0 0.215686 0 0 0 0 0.627451 0 0 0 0.64 0"/>
<feBlend mode="normal" in2="BackgroundImageFix" result="effect1_dropShadow_99_3112"/>
<feBlend mode="normal" in="SourceGraphic" in2="effect1_dropShadow_99_3112" result="shape"/>
</filter>
<linearGradient id="paint0_linear_99_3112" x1="209.879" y1="205.636" x2="282.379" y2="-12.4431" gradientUnits="userSpaceOnUse">
<stop stop-color="#3081D0"/>
<stop offset="1" stop-color="#482F9B"/>
</linearGradient>
</defs>
</svg>
