<svg width="154" height="150" viewBox="0 0 154 150" fill="none" xmlns="http://www.w3.org/2000/svg">
<rect x="2" y="2" width="150" height="146" rx="38" fill="#F3F5F7" stroke="#ECECEC" stroke-width="4"/>
<mask id="mask0_274_6341" style="mask-type:alpha" maskUnits="userSpaceOnUse" x="0" y="0" width="154" height="150">
<rect x="2" y="2" width="150" height="146" rx="38" fill="#F3F5F7" stroke="#ECECEC" stroke-width="4"/>
</mask>
<g mask="url(#mask0_274_6341)">
<path d="M40.4888 50.292H43.521C44.8589 50.292 45.8647 50.4922 46.5386 50.8926C47.2124 51.293 47.5493 51.9741 47.5493 52.936C47.5493 53.3511 47.4688 53.7246 47.3076 54.0566C47.1514 54.3838 46.9219 54.6548 46.6191 54.8696C46.3164 55.0845 45.9429 55.2334 45.4985 55.3164V55.3896C45.9673 55.4629 46.3823 55.5972 46.7437 55.7925C47.105 55.9878 47.3882 56.2612 47.5933 56.6128C47.7983 56.9644 47.9009 57.4111 47.9009 57.9531C47.9009 58.6123 47.7471 59.1689 47.4395 59.623C47.1367 60.0771 46.707 60.4214 46.1504 60.6558C45.5938 60.8853 44.9346 61 44.1729 61H40.4888V50.292ZM41.7339 54.8843H43.7847C44.7173 54.8843 45.3618 54.7305 45.7183 54.4229C46.0796 54.1152 46.2603 53.666 46.2603 53.0752C46.2603 52.4648 46.0454 52.0254 45.6157 51.7568C45.1909 51.4883 44.5122 51.354 43.5796 51.354H41.7339V54.8843ZM41.7339 55.9316V59.938H43.9604C44.9126 59.938 45.5864 59.7524 45.9819 59.3813C46.3774 59.0054 46.5752 58.5 46.5752 57.8652C46.5752 57.46 46.4849 57.1133 46.3042 56.8252C46.1284 56.5371 45.8403 56.3174 45.4399 56.166C45.0444 56.0098 44.5146 55.9316 43.8506 55.9316H41.7339ZM52.7188 52.8262C53.4023 52.8262 53.9883 52.9775 54.4766 53.2803C54.9648 53.583 55.3384 54.0078 55.5972 54.5547C55.856 55.0967 55.9854 55.7314 55.9854 56.459V57.2134H50.4409C50.4556 58.1558 50.6899 58.8735 51.144 59.3667C51.5981 59.8599 52.2378 60.1064 53.063 60.1064C53.5708 60.1064 54.02 60.0601 54.4106 59.9673C54.8013 59.8745 55.2065 59.7378 55.6265 59.5571V60.6265C55.2212 60.8071 54.8184 60.939 54.418 61.022C54.0225 61.105 53.5537 61.1465 53.0117 61.1465C52.2402 61.1465 51.5664 60.9902 50.9902 60.6777C50.4189 60.3604 49.9746 59.8965 49.6572 59.2861C49.3398 58.6758 49.1812 57.9287 49.1812 57.0449C49.1812 56.1807 49.3252 55.4336 49.6133 54.8037C49.9062 54.1689 50.3164 53.6807 50.8438 53.3389C51.376 52.9971 52.001 52.8262 52.7188 52.8262ZM52.7041 53.8223C52.0547 53.8223 51.5371 54.0347 51.1514 54.4595C50.7656 54.8843 50.5361 55.4775 50.4629 56.2393H54.7109C54.7061 55.7607 54.6304 55.3408 54.4839 54.9795C54.3423 54.6133 54.125 54.3301 53.832 54.1299C53.5391 53.9248 53.1631 53.8223 52.7041 53.8223ZM60.2686 60.1504C60.4688 60.1504 60.6738 60.1333 60.8838 60.0991C61.0938 60.0649 61.2646 60.0234 61.3965 59.9746V60.9194C61.2549 60.9829 61.0571 61.0366 60.8032 61.0806C60.5542 61.1245 60.3101 61.1465 60.0708 61.1465C59.646 61.1465 59.2603 61.0732 58.9136 60.9268C58.5669 60.7754 58.2886 60.5215 58.0786 60.165C57.8735 59.8086 57.771 59.3154 57.771 58.6855V53.9248H56.6284V53.3315L57.7783 52.8555L58.2617 51.1123H58.9941V52.9727H61.3452V53.9248H58.9941V58.6489C58.9941 59.1519 59.1089 59.5278 59.3384 59.7769C59.5728 60.0259 59.8828 60.1504 60.2686 60.1504ZM70.6294 52.6577C70.7417 52.6577 70.8711 52.665 71.0176 52.6797C71.1689 52.6895 71.291 52.7041 71.3838 52.7236L71.2153 54.8184C71.1421 54.7939 71.0371 54.7769 70.9004 54.7671C70.7686 54.7524 70.6538 54.7451 70.5562 54.7451C70.2681 54.7451 69.9873 54.7817 69.7139 54.855C69.4453 54.9282 69.2036 55.0479 68.9888 55.2139C68.7739 55.375 68.603 55.5898 68.4761 55.8584C68.354 56.1221 68.293 56.4468 68.293 56.8325V61H66.0591V52.8115H67.751L68.0806 54.1885H68.1904C68.3516 53.9102 68.5518 53.6562 68.791 53.4268C69.0352 53.1924 69.311 53.0068 69.6187 52.8701C69.9312 52.7285 70.2681 52.6577 70.6294 52.6577ZM75.8721 52.6577C76.6289 52.6577 77.2808 52.8042 77.8276 53.0972C78.3745 53.3853 78.7969 53.8052 79.0947 54.3569C79.3926 54.9087 79.5415 55.5825 79.5415 56.3784V57.4624H74.2607C74.2852 58.0923 74.4731 58.5879 74.8247 58.9492C75.1812 59.3057 75.6743 59.4839 76.3042 59.4839C76.8267 59.4839 77.3052 59.4302 77.7397 59.3228C78.1743 59.2153 78.6211 59.0542 79.0801 58.8394V60.5679C78.6748 60.7681 78.25 60.9146 77.8057 61.0073C77.3662 61.1001 76.8315 61.1465 76.2017 61.1465C75.3813 61.1465 74.6538 60.9951 74.019 60.6924C73.3892 60.3896 72.8936 59.9282 72.5322 59.3081C72.1758 58.688 71.9976 57.9067 71.9976 56.9644C71.9976 56.0073 72.1587 55.2114 72.481 54.5767C72.8081 53.937 73.2622 53.4585 73.8433 53.1411C74.4243 52.8188 75.1006 52.6577 75.8721 52.6577ZM75.8867 54.2471C75.4521 54.2471 75.0908 54.3862 74.8027 54.6646C74.5195 54.9429 74.356 55.3799 74.312 55.9756H77.4468C77.4419 55.6436 77.3809 55.3481 77.2637 55.0894C77.1514 54.8306 76.9805 54.6255 76.751 54.4741C76.5264 54.3228 76.2383 54.2471 75.8867 54.2471ZM80.3237 64.6035C80.0698 64.6035 79.8062 64.584 79.5327 64.5449C79.2593 64.5107 79.0322 64.4692 78.8516 64.4204V62.6626C79.0322 62.7114 79.2031 62.7456 79.3643 62.7651C79.5205 62.7896 79.6987 62.8018 79.8989 62.8018C80.2017 62.8018 80.458 62.7163 80.668 62.5454C80.8779 62.3794 80.9829 62.0498 80.9829 61.5566V52.8115H83.2168V61.8862C83.2168 62.3843 83.1216 62.8384 82.9312 63.2485C82.7407 63.6636 82.4331 63.9932 82.0083 64.2373C81.5835 64.4814 81.022 64.6035 80.3237 64.6035ZM80.8877 50.6948C80.8877 50.2749 81.0049 49.9893 81.2393 49.8379C81.4785 49.6816 81.7666 49.6035 82.1035 49.6035C82.4355 49.6035 82.7212 49.6816 82.9604 49.8379C83.1997 49.9893 83.3193 50.2749 83.3193 50.6948C83.3193 51.1099 83.1997 51.3979 82.9604 51.5591C82.7212 51.7153 82.4355 51.7935 82.1035 51.7935C81.7666 51.7935 81.4785 51.7153 81.2393 51.5591C81.0049 51.3979 80.8877 51.1099 80.8877 50.6948ZM88.5693 52.6577C89.3262 52.6577 89.978 52.8042 90.5249 53.0972C91.0718 53.3853 91.4941 53.8052 91.792 54.3569C92.0898 54.9087 92.2388 55.5825 92.2388 56.3784V57.4624H86.958C86.9824 58.0923 87.1704 58.5879 87.522 58.9492C87.8784 59.3057 88.3716 59.4839 89.0015 59.4839C89.5239 59.4839 90.0024 59.4302 90.437 59.3228C90.8716 59.2153 91.3184 59.0542 91.7773 58.8394V60.5679C91.3721 60.7681 90.9473 60.9146 90.5029 61.0073C90.0635 61.1001 89.5288 61.1465 88.8989 61.1465C88.0786 61.1465 87.3511 60.9951 86.7163 60.6924C86.0864 60.3896 85.5908 59.9282 85.2295 59.3081C84.873 58.688 84.6948 57.9067 84.6948 56.9644C84.6948 56.0073 84.856 55.2114 85.1782 54.5767C85.5054 53.937 85.9595 53.4585 86.5405 53.1411C87.1216 52.8188 87.7979 52.6577 88.5693 52.6577ZM88.584 54.2471C88.1494 54.2471 87.7881 54.3862 87.5 54.6646C87.2168 54.9429 87.0532 55.3799 87.0093 55.9756H90.144C90.1392 55.6436 90.0781 55.3481 89.9609 55.0894C89.8486 54.8306 89.6777 54.6255 89.4482 54.4741C89.2236 54.3228 88.9355 54.2471 88.584 54.2471ZM97.0054 61.1465C96.1948 61.1465 95.5039 61 94.9326 60.707C94.3613 60.4092 93.9268 59.9502 93.6289 59.3301C93.3311 58.71 93.1821 57.9165 93.1821 56.9497C93.1821 55.9487 93.3506 55.1333 93.6875 54.5034C94.0293 53.8687 94.5005 53.4023 95.1011 53.1045C95.7065 52.8066 96.4072 52.6577 97.2031 52.6577C97.7695 52.6577 98.2578 52.7139 98.668 52.8262C99.083 52.9336 99.4443 53.063 99.752 53.2144L99.0928 54.9429C98.7412 54.8013 98.4141 54.6865 98.1113 54.5986C97.8086 54.5059 97.5059 54.4595 97.2031 54.4595C96.8125 54.4595 96.4878 54.5522 96.229 54.7378C95.9702 54.9185 95.7773 55.1919 95.6504 55.5581C95.5234 55.9243 95.46 56.3833 95.46 56.9351C95.46 57.4771 95.5283 57.9263 95.665 58.2827C95.8018 58.6392 95.9995 58.9053 96.2583 59.0811C96.5171 59.252 96.832 59.3374 97.2031 59.3374C97.667 59.3374 98.0796 59.2764 98.4409 59.1543C98.8022 59.0273 99.1538 58.8516 99.4956 58.627V60.5386C99.1538 60.7534 98.7949 60.9072 98.4189 61C98.0479 61.0977 97.5767 61.1465 97.0054 61.1465ZM104.475 59.3667C104.719 59.3667 104.956 59.3423 105.185 59.2935C105.419 59.2446 105.651 59.1836 105.881 59.1104V60.7729C105.642 60.8804 105.344 60.9683 104.987 61.0366C104.636 61.1099 104.25 61.1465 103.83 61.1465C103.342 61.1465 102.902 61.0684 102.512 60.9121C102.126 60.751 101.821 60.4751 101.596 60.0845C101.376 59.689 101.267 59.1396 101.267 58.4365V54.4888H100.197V53.5439L101.428 52.7969L102.072 51.0684H103.5V52.8115H105.793V54.4888H103.5V58.4365C103.5 58.749 103.588 58.9834 103.764 59.1396C103.945 59.291 104.182 59.3667 104.475 59.3667ZM110.545 52.6577C111.302 52.6577 111.954 52.8042 112.5 53.0972C113.047 53.3853 113.47 53.8052 113.768 54.3569C114.065 54.9087 114.214 55.5825 114.214 56.3784V57.4624H108.934C108.958 58.0923 109.146 58.5879 109.498 58.9492C109.854 59.3057 110.347 59.4839 110.977 59.4839C111.5 59.4839 111.978 59.4302 112.413 59.3228C112.847 59.2153 113.294 59.0542 113.753 58.8394V60.5679C113.348 60.7681 112.923 60.9146 112.479 61.0073C112.039 61.1001 111.504 61.1465 110.875 61.1465C110.054 61.1465 109.327 60.9951 108.692 60.6924C108.062 60.3896 107.566 59.9282 107.205 59.3081C106.849 58.688 106.67 57.9067 106.67 56.9644C106.67 56.0073 106.832 55.2114 107.154 54.5767C107.481 53.937 107.935 53.4585 108.516 53.1411C109.097 52.8188 109.773 52.6577 110.545 52.6577ZM110.56 54.2471C110.125 54.2471 109.764 54.3862 109.476 54.6646C109.192 54.9429 109.029 55.3799 108.985 55.9756H112.12C112.115 55.6436 112.054 55.3481 111.937 55.0894C111.824 54.8306 111.653 54.6255 111.424 54.4741C111.199 54.3228 110.911 54.2471 110.56 54.2471ZM118.249 61.1465C117.335 61.1465 116.591 60.79 116.015 60.0771C115.443 59.3594 115.158 58.3071 115.158 56.9204C115.158 55.519 115.448 54.4595 116.029 53.7417C116.61 53.019 117.37 52.6577 118.307 52.6577C118.698 52.6577 119.042 52.7114 119.34 52.8188C119.638 52.9263 119.894 53.0703 120.109 53.251C120.329 53.4316 120.514 53.6343 120.666 53.8589H120.739C120.709 53.7026 120.673 53.4731 120.629 53.1704C120.59 52.8628 120.57 52.5479 120.57 52.2256V49.6035H122.812V61H121.098L120.666 59.938H120.57C120.429 60.1626 120.25 60.3677 120.036 60.5532C119.826 60.7339 119.574 60.8779 119.281 60.9854C118.988 61.0928 118.644 61.1465 118.249 61.1465ZM119.032 59.3667C119.643 59.3667 120.072 59.186 120.321 58.8247C120.575 58.4585 120.709 57.9092 120.724 57.1768V56.9351C120.724 56.1392 120.602 55.5312 120.358 55.1113C120.114 54.6865 119.66 54.4741 118.996 54.4741C118.502 54.4741 118.117 54.6865 117.838 55.1113C117.56 55.5361 117.421 56.1489 117.421 56.9497C117.421 57.7505 117.56 58.3535 117.838 58.7588C118.122 59.1641 118.52 59.3667 119.032 59.3667ZM30.5396 69.6035V72.4526C30.5396 72.7798 30.5298 73.0972 30.5103 73.4048C30.4956 73.7124 30.4834 73.9517 30.4736 74.1226H30.5396C30.7593 73.7612 31.0767 73.4561 31.4917 73.207C31.9067 72.958 32.4365 72.8335 33.0811 72.8335C34.0869 72.8335 34.8877 73.1826 35.4834 73.8809C36.084 74.5742 36.3843 75.6069 36.3843 76.979C36.3843 77.8823 36.2476 78.644 35.9741 79.2642C35.7007 79.8843 35.3149 80.353 34.8169 80.6704C34.3188 80.9878 33.7305 81.1465 33.0518 81.1465C32.417 81.1465 31.8945 81.0293 31.4844 80.7949C31.0791 80.5557 30.7666 80.2651 30.5469 79.9233H30.4517L30.2026 81H29.3237V69.6035H30.5396ZM32.8833 73.8516C32.3022 73.8516 31.8408 73.9663 31.499 74.1958C31.1572 74.4204 30.9106 74.7622 30.7593 75.2212C30.6128 75.6753 30.5396 76.2515 30.5396 76.9497V77.0156C30.5396 78.0264 30.708 78.8003 31.0449 79.3374C31.3818 79.8696 31.9946 80.1357 32.8833 80.1357C33.6304 80.1357 34.1895 79.8623 34.5605 79.3154C34.9365 78.7686 35.1245 77.9873 35.1245 76.9717C35.1245 75.9365 34.939 75.1577 34.5679 74.6353C34.2017 74.1128 33.6401 73.8516 32.8833 73.8516ZM41.2241 72.8262C41.9077 72.8262 42.4937 72.9775 42.9819 73.2803C43.4702 73.583 43.8438 74.0078 44.1025 74.5547C44.3613 75.0967 44.4907 75.7314 44.4907 76.459V77.2134H38.9463C38.9609 78.1558 39.1953 78.8735 39.6494 79.3667C40.1035 79.8599 40.7432 80.1064 41.5684 80.1064C42.0762 80.1064 42.5254 80.0601 42.916 79.9673C43.3066 79.8745 43.7119 79.7378 44.1318 79.5571V80.6265C43.7266 80.8071 43.3237 80.939 42.9233 81.022C42.5278 81.105 42.0591 81.1465 41.5171 81.1465C40.7456 81.1465 40.0718 80.9902 39.4956 80.6777C38.9243 80.3604 38.48 79.8965 38.1626 79.2861C37.8452 78.6758 37.6865 77.9287 37.6865 77.0449C37.6865 76.1807 37.8306 75.4336 38.1187 74.8037C38.4116 74.1689 38.8218 73.6807 39.3491 73.3389C39.8813 72.9971 40.5063 72.8262 41.2241 72.8262ZM41.2095 73.8223C40.5601 73.8223 40.0425 74.0347 39.6567 74.4595C39.271 74.8843 39.0415 75.4775 38.9683 76.2393H43.2163C43.2114 75.7607 43.1357 75.3408 42.9893 74.9795C42.8477 74.6133 42.6304 74.3301 42.3374 74.1299C42.0444 73.9248 41.6685 73.8223 41.2095 73.8223ZM49.3965 81.1465C48.6738 81.1465 48.0366 80.9976 47.4849 80.6997C46.9331 80.4019 46.5034 79.9478 46.1958 79.3374C45.8882 78.7271 45.7344 77.958 45.7344 77.0303C45.7344 76.0586 45.8955 75.2651 46.2178 74.6499C46.5449 74.0298 46.9941 73.5708 47.5654 73.2729C48.1367 72.9751 48.7861 72.8262 49.5137 72.8262C49.9141 72.8262 50.2998 72.8677 50.6709 72.9507C51.0469 73.0288 51.3545 73.1289 51.5938 73.251L51.2275 74.269C50.9834 74.1714 50.7002 74.0835 50.3779 74.0054C50.0605 73.9272 49.7627 73.8882 49.4844 73.8882C48.9277 73.8882 48.4639 74.0078 48.0928 74.2471C47.7266 74.4863 47.4507 74.8379 47.2651 75.3018C47.0845 75.7656 46.9941 76.3369 46.9941 77.0156C46.9941 77.665 47.082 78.2192 47.2578 78.6782C47.4385 79.1372 47.7046 79.4888 48.0562 79.7329C48.4126 79.9722 48.8569 80.0918 49.3892 80.0918C49.814 80.0918 50.1973 80.0479 50.5391 79.96C50.8809 79.8672 51.1909 79.7598 51.4692 79.6377V80.7217C51.2007 80.8584 50.9004 80.9634 50.5684 81.0366C50.2412 81.1099 49.8506 81.1465 49.3965 81.1465ZM56.0015 72.8408C56.9585 72.8408 57.6689 73.0557 58.1328 73.4854C58.5967 73.915 58.8286 74.6011 58.8286 75.5435V81H57.9424L57.708 79.8135H57.6494C57.4248 80.1064 57.1904 80.353 56.9463 80.5532C56.7021 80.7485 56.4189 80.8975 56.0967 81C55.7793 81.0977 55.3887 81.1465 54.9248 81.1465C54.4365 81.1465 54.002 81.061 53.6211 80.8901C53.2451 80.7192 52.9473 80.4604 52.7275 80.1138C52.5127 79.7671 52.4053 79.3276 52.4053 78.7954C52.4053 77.9946 52.7227 77.3794 53.3574 76.9497C53.9922 76.52 54.959 76.2856 56.2578 76.2466L57.6421 76.188V75.6973C57.6421 75.0039 57.4932 74.5181 57.1953 74.2397C56.8975 73.9614 56.4775 73.8223 55.9355 73.8223C55.5156 73.8223 55.1152 73.8833 54.7344 74.0054C54.3535 74.1274 53.9922 74.2715 53.6504 74.4375L53.2769 73.5146C53.6382 73.3291 54.0532 73.1704 54.522 73.0386C54.9907 72.9067 55.4839 72.8408 56.0015 72.8408ZM57.6274 77.0449L56.4043 77.0962C55.4033 77.1353 54.6978 77.2988 54.2876 77.5869C53.8774 77.875 53.6724 78.2827 53.6724 78.8101C53.6724 79.269 53.8115 79.6084 54.0898 79.8281C54.3682 80.0479 54.7368 80.1577 55.1958 80.1577C55.9087 80.1577 56.4922 79.96 56.9463 79.5645C57.4004 79.1689 57.6274 78.5757 57.6274 77.7847V77.0449ZM67.5869 72.9727V81H66.5908L66.415 79.8721H66.3491C66.1831 80.1504 65.9683 80.3848 65.7046 80.5752C65.4409 80.7656 65.1431 80.9072 64.811 81C64.4839 81.0977 64.1348 81.1465 63.7637 81.1465C63.1289 81.1465 62.5967 81.0439 62.167 80.8389C61.7373 80.6338 61.4126 80.3164 61.1929 79.8867C60.978 79.457 60.8706 78.9053 60.8706 78.2314V72.9727H62.1011V78.1436C62.1011 78.8125 62.2524 79.313 62.5552 79.645C62.8579 79.9722 63.3193 80.1357 63.9395 80.1357C64.5352 80.1357 65.0088 80.0234 65.3604 79.7988C65.7168 79.5742 65.9731 79.2446 66.1294 78.8101C66.2856 78.3706 66.3638 77.8335 66.3638 77.1987V72.9727H67.5869ZM74.9756 78.8027C74.9756 79.3154 74.8462 79.7476 74.5874 80.0991C74.3335 80.4458 73.9673 80.707 73.4888 80.8828C73.0151 81.0586 72.4487 81.1465 71.7896 81.1465C71.228 81.1465 70.7422 81.1025 70.332 81.0146C69.9219 80.9268 69.563 80.8022 69.2554 80.6411V79.5205C69.5825 79.6816 69.9731 79.8281 70.4272 79.96C70.8813 80.0918 71.3452 80.1577 71.8188 80.1577C72.5122 80.1577 73.0151 80.0454 73.3276 79.8208C73.6401 79.5962 73.7964 79.291 73.7964 78.9053C73.7964 78.6855 73.7329 78.4927 73.606 78.3267C73.4839 78.1558 73.2764 77.9922 72.9834 77.8359C72.6904 77.6748 72.2852 77.499 71.7676 77.3086C71.2549 77.1133 70.8105 76.9204 70.4346 76.73C70.0635 76.5347 69.7754 76.2979 69.5703 76.0195C69.3701 75.7412 69.27 75.3799 69.27 74.9355C69.27 74.2568 69.5435 73.7368 70.0903 73.3755C70.6421 73.0093 71.3647 72.8262 72.2583 72.8262C72.7417 72.8262 73.1934 72.875 73.6133 72.9727C74.0381 73.0654 74.4336 73.1924 74.7998 73.3535L74.3896 74.3276C74.0576 74.186 73.7036 74.0664 73.3276 73.9688C72.9517 73.8711 72.5684 73.8223 72.1777 73.8223C71.6162 73.8223 71.1841 73.915 70.8813 74.1006C70.5835 74.2861 70.4346 74.54 70.4346 74.8623C70.4346 75.1113 70.5029 75.3164 70.6396 75.4775C70.7812 75.6387 71.0059 75.79 71.3135 75.9316C71.6211 76.0732 72.0264 76.2393 72.5293 76.4297C73.0322 76.6152 73.4668 76.8081 73.833 77.0083C74.1992 77.2036 74.48 77.4429 74.6753 77.7261C74.8755 78.0044 74.9756 78.3633 74.9756 78.8027ZM79.647 72.8262C80.3306 72.8262 80.9165 72.9775 81.4048 73.2803C81.8931 73.583 82.2666 74.0078 82.5254 74.5547C82.7842 75.0967 82.9136 75.7314 82.9136 76.459V77.2134H77.3691C77.3838 78.1558 77.6182 78.8735 78.0723 79.3667C78.5264 79.8599 79.166 80.1064 79.9912 80.1064C80.499 80.1064 80.9482 80.0601 81.3389 79.9673C81.7295 79.8745 82.1348 79.7378 82.5547 79.5571V80.6265C82.1494 80.8071 81.7466 80.939 81.3462 81.022C80.9507 81.105 80.4819 81.1465 79.9399 81.1465C79.1685 81.1465 78.4946 80.9902 77.9185 80.6777C77.3472 80.3604 76.9028 79.8965 76.5854 79.2861C76.2681 78.6758 76.1094 77.9287 76.1094 77.0449C76.1094 76.1807 76.2534 75.4336 76.5415 74.8037C76.8345 74.1689 77.2446 73.6807 77.772 73.3389C78.3042 72.9971 78.9292 72.8262 79.647 72.8262ZM79.6323 73.8223C78.9829 73.8223 78.4653 74.0347 78.0796 74.4595C77.6938 74.8843 77.4644 75.4775 77.3911 76.2393H81.6392C81.6343 75.7607 81.5586 75.3408 81.4121 74.9795C81.2705 74.6133 81.0532 74.3301 80.7603 74.1299C80.4673 73.9248 80.0913 73.8223 79.6323 73.8223ZM96.8413 72.8262C97.7251 72.8262 98.3916 73.0581 98.8408 73.522C99.29 73.981 99.5146 74.7207 99.5146 75.7412V81H98.3135V75.7998C98.3135 75.1504 98.1719 74.6646 97.8887 74.3423C97.6104 74.0151 97.1953 73.8516 96.6436 73.8516C95.8672 73.8516 95.3032 74.0762 94.9517 74.5254C94.6001 74.9746 94.4243 75.6362 94.4243 76.5103V81H93.2158V75.7998C93.2158 75.3652 93.1523 75.0039 93.0254 74.7158C92.9033 74.4277 92.7178 74.2129 92.4688 74.0713C92.2246 73.9248 91.9146 73.8516 91.5386 73.8516C91.0063 73.8516 90.5791 73.9614 90.2568 74.1812C89.9346 74.4009 89.7002 74.728 89.5537 75.1626C89.4121 75.5923 89.3413 76.1221 89.3413 76.752V81H88.1255V72.9727H89.1069L89.29 74.1079H89.356C89.5171 73.8296 89.7197 73.5952 89.9639 73.4048C90.208 73.2144 90.4814 73.0703 90.7842 72.9727C91.0869 72.875 91.4092 72.8262 91.751 72.8262C92.3613 72.8262 92.8716 72.9409 93.2817 73.1704C93.6968 73.395 93.9971 73.7393 94.1826 74.2031H94.2485C94.5122 73.7393 94.8735 73.395 95.3325 73.1704C95.7915 72.9409 96.2944 72.8262 96.8413 72.8262ZM108.559 76.9717C108.559 77.6309 108.473 78.2192 108.302 78.7368C108.131 79.2544 107.885 79.6914 107.562 80.0479C107.24 80.4043 106.85 80.6777 106.391 80.8682C105.937 81.0537 105.421 81.1465 104.845 81.1465C104.308 81.1465 103.815 81.0537 103.366 80.8682C102.921 80.6777 102.536 80.4043 102.208 80.0479C101.886 79.6914 101.635 79.2544 101.454 78.7368C101.278 78.2192 101.19 77.6309 101.19 76.9717C101.19 76.0928 101.339 75.3457 101.637 74.7305C101.935 74.1104 102.36 73.6392 102.912 73.3169C103.468 72.9897 104.13 72.8262 104.896 72.8262C105.629 72.8262 106.269 72.9897 106.815 73.3169C107.367 73.644 107.794 74.1177 108.097 74.7378C108.405 75.353 108.559 76.0977 108.559 76.9717ZM102.45 76.9717C102.45 77.6162 102.536 78.1753 102.707 78.6489C102.877 79.1226 103.141 79.4888 103.498 79.7476C103.854 80.0063 104.313 80.1357 104.875 80.1357C105.431 80.1357 105.888 80.0063 106.244 79.7476C106.605 79.4888 106.872 79.1226 107.042 78.6489C107.213 78.1753 107.299 77.6162 107.299 76.9717C107.299 76.332 107.213 75.7803 107.042 75.3164C106.872 74.8477 106.608 74.4863 106.251 74.2324C105.895 73.9785 105.434 73.8516 104.867 73.8516C104.032 73.8516 103.419 74.1274 103.029 74.6792C102.643 75.231 102.45 75.9951 102.45 76.9717ZM119.001 72.8262C119.885 72.8262 120.552 73.0581 121.001 73.522C121.45 73.981 121.675 74.7207 121.675 75.7412V81H120.474V75.7998C120.474 75.1504 120.332 74.6646 120.049 74.3423C119.771 74.0151 119.355 73.8516 118.804 73.8516C118.027 73.8516 117.463 74.0762 117.112 74.5254C116.76 74.9746 116.584 75.6362 116.584 76.5103V81H115.376V75.7998C115.376 75.3652 115.312 75.0039 115.186 74.7158C115.063 74.4277 114.878 74.2129 114.629 74.0713C114.385 73.9248 114.075 73.8516 113.699 73.8516C113.167 73.8516 112.739 73.9614 112.417 74.1812C112.095 74.4009 111.86 74.728 111.714 75.1626C111.572 75.5923 111.501 76.1221 111.501 76.752V81H110.286V72.9727H111.267L111.45 74.1079H111.516C111.677 73.8296 111.88 73.5952 112.124 73.4048C112.368 73.2144 112.642 73.0703 112.944 72.9727C113.247 72.875 113.569 72.8262 113.911 72.8262C114.521 72.8262 115.032 72.9409 115.442 73.1704C115.857 73.395 116.157 73.7393 116.343 74.2031H116.409C116.672 73.7393 117.034 73.395 117.493 73.1704C117.952 72.9409 118.455 72.8262 119.001 72.8262ZM125.013 72.9727V81H123.797V72.9727H125.013ZM124.42 69.9697C124.62 69.9697 124.791 70.0356 124.933 70.1675C125.079 70.2944 125.152 70.4946 125.152 70.7681C125.152 71.0366 125.079 71.2368 124.933 71.3687C124.791 71.5005 124.62 71.5664 124.42 71.5664C124.21 71.5664 124.034 71.5005 123.893 71.3687C123.756 71.2368 123.688 71.0366 123.688 70.7681C123.688 70.4946 123.756 70.2944 123.893 70.1675C124.034 70.0356 124.21 69.9697 124.42 69.9697ZM134.138 76.9717C134.138 77.6309 134.052 78.2192 133.881 78.7368C133.71 79.2544 133.464 79.6914 133.142 80.0479C132.819 80.4043 132.429 80.6777 131.97 80.8682C131.516 81.0537 131 81.1465 130.424 81.1465C129.887 81.1465 129.394 81.0537 128.945 80.8682C128.5 80.6777 128.115 80.4043 127.788 80.0479C127.465 79.6914 127.214 79.2544 127.033 78.7368C126.857 78.2192 126.77 77.6309 126.77 76.9717C126.77 76.0928 126.918 75.3457 127.216 74.7305C127.514 74.1104 127.939 73.6392 128.491 73.3169C129.047 72.9897 129.709 72.8262 130.476 72.8262C131.208 72.8262 131.848 72.9897 132.395 73.3169C132.946 73.644 133.374 74.1177 133.676 74.7378C133.984 75.353 134.138 76.0977 134.138 76.9717ZM128.029 76.9717C128.029 77.6162 128.115 78.1753 128.286 78.6489C128.457 79.1226 128.72 79.4888 129.077 79.7476C129.433 80.0063 129.892 80.1357 130.454 80.1357C131.01 80.1357 131.467 80.0063 131.823 79.7476C132.185 79.4888 132.451 79.1226 132.622 78.6489C132.792 78.1753 132.878 77.6162 132.878 76.9717C132.878 76.332 132.792 75.7803 132.622 75.3164C132.451 74.8477 132.187 74.4863 131.831 74.2324C131.474 73.9785 131.013 73.8516 130.446 73.8516C129.611 73.8516 128.999 74.1274 128.608 74.6792C128.222 75.231 128.029 75.9951 128.029 76.9717ZM45.9336 101.146C44.918 101.146 44.1123 100.8 43.5166 100.106C42.9258 99.4131 42.6304 98.3828 42.6304 97.0156C42.6304 95.6338 42.9331 94.5913 43.5386 93.8882C44.144 93.1802 44.9497 92.8262 45.9556 92.8262C46.3804 92.8262 46.7515 92.8823 47.0688 92.9946C47.3862 93.1069 47.6597 93.2583 47.8892 93.4487C48.1187 93.6343 48.3115 93.8467 48.4678 94.0859H48.5557C48.5361 93.9346 48.5166 93.7271 48.4971 93.4634C48.4775 93.1997 48.4678 92.9849 48.4678 92.8188V89.6035H49.6836V101H48.7021L48.519 99.8574H48.4678C48.3164 100.097 48.1235 100.314 47.8892 100.509C47.6597 100.705 47.3838 100.861 47.0615 100.978C46.7441 101.09 46.3682 101.146 45.9336 101.146ZM46.124 100.136C46.9834 100.136 47.5913 99.8916 47.9478 99.4033C48.3042 98.915 48.4824 98.1899 48.4824 97.228V97.0083C48.4824 95.9878 48.3115 95.2041 47.9697 94.6572C47.6328 94.1104 47.0176 93.8369 46.124 93.8369C45.377 93.8369 44.8179 94.125 44.4468 94.7012C44.0757 95.2725 43.8901 96.0537 43.8901 97.0449C43.8901 98.0312 44.0732 98.793 44.4395 99.3301C44.8105 99.8672 45.3721 100.136 46.124 100.136ZM58.8081 96.9717C58.8081 97.6309 58.7227 98.2192 58.5518 98.7368C58.3809 99.2544 58.1343 99.6914 57.812 100.048C57.4897 100.404 57.0991 100.678 56.6401 100.868C56.186 101.054 55.6709 101.146 55.0947 101.146C54.5576 101.146 54.0645 101.054 53.6152 100.868C53.1709 100.678 52.7852 100.404 52.458 100.048C52.1357 99.6914 51.8843 99.2544 51.7036 98.7368C51.5278 98.2192 51.4399 97.6309 51.4399 96.9717C51.4399 96.0928 51.5889 95.3457 51.8867 94.7305C52.1846 94.1104 52.6094 93.6392 53.1611 93.3169C53.7178 92.9897 54.3794 92.8262 55.146 92.8262C55.8784 92.8262 56.5181 92.9897 57.0649 93.3169C57.6167 93.644 58.0439 94.1177 58.3467 94.7378C58.6543 95.353 58.8081 96.0977 58.8081 96.9717ZM52.6997 96.9717C52.6997 97.6162 52.7852 98.1753 52.9561 98.6489C53.127 99.1226 53.3906 99.4888 53.7471 99.7476C54.1035 100.006 54.5625 100.136 55.124 100.136C55.6807 100.136 56.1372 100.006 56.4937 99.7476C56.855 99.4888 57.1211 99.1226 57.292 98.6489C57.4629 98.1753 57.5483 97.6162 57.5483 96.9717C57.5483 96.332 57.4629 95.7803 57.292 95.3164C57.1211 94.8477 56.8574 94.4863 56.501 94.2324C56.1445 93.9785 55.6831 93.8516 55.1167 93.8516C54.2817 93.8516 53.6689 94.1274 53.2783 94.6792C52.8926 95.231 52.6997 95.9951 52.6997 96.9717ZM64.3364 92.8262C65.2886 92.8262 66.0088 93.0605 66.4971 93.5293C66.9854 93.9932 67.2295 94.7402 67.2295 95.7705V101H66.0283V95.8511C66.0283 95.1821 65.8745 94.6816 65.5669 94.3496C65.2642 94.0176 64.7979 93.8516 64.168 93.8516C63.2793 93.8516 62.6543 94.103 62.293 94.606C61.9316 95.1089 61.751 95.8389 61.751 96.7959V101H60.5352V92.9727H61.5166L61.6997 94.1299H61.7656C61.9365 93.8467 62.1538 93.6099 62.4175 93.4194C62.6812 93.2241 62.9766 93.0776 63.3037 92.98C63.6309 92.8774 63.9751 92.8262 64.3364 92.8262ZM70.3188 90.292L70.4287 90.4531C70.3408 90.8096 70.2285 91.1929 70.0918 91.603C69.9551 92.0083 69.8062 92.4136 69.645 92.8188C69.4839 93.2241 69.3228 93.605 69.1616 93.9614H68.2681C68.3413 93.6831 68.4146 93.3853 68.4878 93.0679C68.5659 92.7505 68.6392 92.4282 68.7075 92.1011C68.7759 91.7739 68.8369 91.4565 68.8906 91.1489C68.9492 90.8413 68.998 90.5557 69.0371 90.292H70.3188ZM74.126 100.15C74.3262 100.15 74.5312 100.133 74.7412 100.099C74.9512 100.065 75.1221 100.023 75.2539 99.9746V100.919C75.1123 100.983 74.9146 101.037 74.6606 101.081C74.4116 101.125 74.1675 101.146 73.9282 101.146C73.5034 101.146 73.1177 101.073 72.771 100.927C72.4243 100.775 72.146 100.521 71.936 100.165C71.731 99.8086 71.6284 99.3154 71.6284 98.6855V93.9248H70.4858V93.3315L71.6357 92.8555L72.1191 91.1123H72.8516V92.9727H75.2026V93.9248H72.8516V98.6489C72.8516 99.1519 72.9663 99.5278 73.1958 99.7769C73.4302 100.026 73.7402 100.15 74.126 100.15ZM88.7422 92.8262C89.626 92.8262 90.2925 93.0581 90.7417 93.522C91.1909 93.981 91.4155 94.7207 91.4155 95.7412V101H90.2144V95.7998C90.2144 95.1504 90.0728 94.6646 89.7896 94.3423C89.5112 94.0151 89.0962 93.8516 88.5444 93.8516C87.7681 93.8516 87.2041 94.0762 86.8525 94.5254C86.501 94.9746 86.3252 95.6362 86.3252 96.5103V101H85.1167V95.7998C85.1167 95.3652 85.0532 95.0039 84.9263 94.7158C84.8042 94.4277 84.6187 94.2129 84.3696 94.0713C84.1255 93.9248 83.8154 93.8516 83.4395 93.8516C82.9072 93.8516 82.48 93.9614 82.1577 94.1812C81.8354 94.4009 81.6011 94.728 81.4546 95.1626C81.313 95.5923 81.2422 96.1221 81.2422 96.752V101H80.0264V92.9727H81.0078L81.1909 94.1079H81.2568C81.418 93.8296 81.6206 93.5952 81.8647 93.4048C82.1089 93.2144 82.3823 93.0703 82.6851 92.9727C82.9878 92.875 83.3101 92.8262 83.6519 92.8262C84.2622 92.8262 84.7725 92.9409 85.1826 93.1704C85.5977 93.395 85.8979 93.7393 86.0835 94.2031H86.1494C86.4131 93.7393 86.7744 93.395 87.2334 93.1704C87.6924 92.9409 88.1953 92.8262 88.7422 92.8262ZM96.541 92.8408C97.498 92.8408 98.2085 93.0557 98.6724 93.4854C99.1362 93.915 99.3682 94.6011 99.3682 95.5435V101H98.4819L98.2476 99.8135H98.189C97.9644 100.106 97.73 100.353 97.4858 100.553C97.2417 100.749 96.9585 100.897 96.6362 101C96.3188 101.098 95.9282 101.146 95.4644 101.146C94.9761 101.146 94.5415 101.061 94.1606 100.89C93.7847 100.719 93.4868 100.46 93.2671 100.114C93.0522 99.7671 92.9448 99.3276 92.9448 98.7954C92.9448 97.9946 93.2622 97.3794 93.897 96.9497C94.5317 96.52 95.4985 96.2856 96.7974 96.2466L98.1816 96.188V95.6973C98.1816 95.0039 98.0327 94.5181 97.7349 94.2397C97.437 93.9614 97.0171 93.8223 96.4751 93.8223C96.0552 93.8223 95.6548 93.8833 95.2739 94.0054C94.8931 94.1274 94.5317 94.2715 94.1899 94.4375L93.8164 93.5146C94.1777 93.3291 94.5928 93.1704 95.0615 93.0386C95.5303 92.9067 96.0234 92.8408 96.541 92.8408ZM98.167 97.0449L96.9438 97.0962C95.9429 97.1353 95.2373 97.2988 94.8271 97.5869C94.417 97.875 94.2119 98.2827 94.2119 98.8101C94.2119 99.269 94.3511 99.6084 94.6294 99.8281C94.9077 100.048 95.2764 100.158 95.7354 100.158C96.4482 100.158 97.0317 99.96 97.4858 99.5645C97.9399 99.1689 98.167 98.5757 98.167 97.7847V97.0449ZM104.091 100.15C104.291 100.15 104.496 100.133 104.706 100.099C104.916 100.065 105.087 100.023 105.219 99.9746V100.919C105.077 100.983 104.879 101.037 104.625 101.081C104.376 101.125 104.132 101.146 103.893 101.146C103.468 101.146 103.083 101.073 102.736 100.927C102.389 100.775 102.111 100.521 101.901 100.165C101.696 99.8086 101.593 99.3154 101.593 98.6855V93.9248H100.451V93.3315L101.601 92.8555L102.084 91.1123H102.816V92.9727H105.167V93.9248H102.816V98.6489C102.816 99.1519 102.931 99.5278 103.161 99.7769C103.395 100.026 103.705 100.15 104.091 100.15ZM109.685 101.146C108.962 101.146 108.325 100.998 107.773 100.7C107.222 100.402 106.792 99.9478 106.484 99.3374C106.177 98.7271 106.023 97.958 106.023 97.0303C106.023 96.0586 106.184 95.2651 106.506 94.6499C106.833 94.0298 107.283 93.5708 107.854 93.2729C108.425 92.9751 109.075 92.8262 109.802 92.8262C110.203 92.8262 110.588 92.8677 110.959 92.9507C111.335 93.0288 111.643 93.1289 111.882 93.251L111.516 94.269C111.272 94.1714 110.989 94.0835 110.667 94.0054C110.349 93.9272 110.051 93.8882 109.773 93.8882C109.216 93.8882 108.752 94.0078 108.381 94.2471C108.015 94.4863 107.739 94.8379 107.554 95.3018C107.373 95.7656 107.283 96.3369 107.283 97.0156C107.283 97.665 107.371 98.2192 107.546 98.6782C107.727 99.1372 107.993 99.4888 108.345 99.7329C108.701 99.9722 109.146 100.092 109.678 100.092C110.103 100.092 110.486 100.048 110.828 99.96C111.169 99.8672 111.479 99.7598 111.758 99.6377V100.722C111.489 100.858 111.189 100.963 110.857 101.037C110.53 101.11 110.139 101.146 109.685 101.146ZM114.503 89.6035V93.0093C114.503 93.2046 114.498 93.4023 114.488 93.6025C114.479 93.7979 114.461 93.9785 114.437 94.1445H114.518C114.684 93.8613 114.894 93.6245 115.147 93.4341C115.406 93.2388 115.699 93.0923 116.026 92.9946C116.354 92.8921 116.7 92.8408 117.066 92.8408C117.711 92.8408 118.248 92.9434 118.678 93.1484C119.112 93.3535 119.437 93.6709 119.652 94.1006C119.872 94.5303 119.981 95.0869 119.981 95.7705V101H118.78V95.8511C118.78 95.1821 118.626 94.6816 118.319 94.3496C118.016 94.0176 117.55 93.8516 116.92 93.8516C116.324 93.8516 115.848 93.9663 115.492 94.1958C115.14 94.4204 114.886 94.7524 114.73 95.1919C114.579 95.6313 114.503 96.1685 114.503 96.8032V101H113.287V89.6035H114.503Z" fill="#FF6060"/>
<path fill-rule="evenodd" clip-rule="evenodd" d="M27 48C22.6 48 19 51.6 19 56C19 60.4 22.6 64 27 64C31.4 64 35 60.4 35 56C35 51.6 31.4 48 27 48ZM27 60C26.4 60 26 59.6 26 59C26 58.4 26.4 58 27 58C27.6 58 28 58.4 28 59C28 59.6 27.6 60 27 60ZM26 57H28V52H26V57Z" fill="#FF3B30"/>
</g>
</svg>
