<svg width="154" height="150" viewBox="0 0 154 150" fill="none" xmlns="http://www.w3.org/2000/svg">
<rect x="2" y="2" width="150" height="146" rx="38" fill="#F3F5F7" stroke="#ECECEC" stroke-width="4"/>
<mask id="mask0_256_6245" style="mask-type:alpha" maskUnits="userSpaceOnUse" x="0" y="0" width="154" height="150">
<rect x="2" y="2" width="150" height="146" rx="38" fill="#F3F5F7" stroke="#ECECEC" stroke-width="4"/>
</mask>
<g mask="url(#mask0_256_6245)">
<path fill-rule="evenodd" clip-rule="evenodd" d="M45 41C45 38.7909 46.7909 37 49 37H106C108.209 37 110 38.7909 110 41V65C110 67.2091 108.209 69 106 69H49C46.7909 69 45 67.2091 45 65V41Z" fill="#D9DBE5"/>
<path d="M49 37.5H106C107.933 37.5 109.5 39.067 109.5 41V65C109.5 66.933 107.933 68.5 106 68.5H49C47.067 68.5 45.5 66.933 45.5 65V41C45.5 39.067 47.067 37.5 49 37.5Z" stroke="#3352E5"/>
<path d="M54.2578 59V49.0059H56.377V57.25H60.4307V59H54.2578ZM65.1611 51.2139C65.8675 51.2139 66.4759 51.3506 66.9863 51.624C67.4967 51.8929 67.891 52.2848 68.1689 52.7998C68.4469 53.3148 68.5859 53.9437 68.5859 54.6865V55.6982H63.6572C63.68 56.2861 63.8555 56.7487 64.1836 57.0859C64.5163 57.4186 64.9766 57.585 65.5645 57.585C66.0521 57.585 66.4987 57.5348 66.9043 57.4346C67.3099 57.3343 67.7269 57.1839 68.1553 56.9834V58.5967C67.777 58.7835 67.3805 58.9202 66.9658 59.0068C66.5557 59.0934 66.0566 59.1367 65.4688 59.1367C64.7031 59.1367 64.0241 58.9954 63.4316 58.7129C62.8438 58.4303 62.3812 57.9997 62.0439 57.4209C61.7113 56.8421 61.5449 56.113 61.5449 55.2334C61.5449 54.3402 61.6953 53.5973 61.9961 53.0049C62.3014 52.4079 62.7253 51.9613 63.2676 51.665C63.8099 51.3643 64.4411 51.2139 65.1611 51.2139ZM65.1748 52.6973C64.7692 52.6973 64.432 52.8271 64.1631 53.0869C63.8988 53.3467 63.7461 53.7546 63.7051 54.3105H66.6309C66.6263 54.0007 66.5693 53.7249 66.46 53.4834C66.3551 53.2419 66.1956 53.0505 65.9814 52.9092C65.7718 52.7679 65.5029 52.6973 65.1748 52.6973ZM72.3662 51.3574V59H70.2812V51.3574H72.3662ZM71.3271 48.3633C71.637 48.3633 71.9036 48.4362 72.127 48.582C72.3503 48.7233 72.4619 48.9899 72.4619 49.3818C72.4619 49.7692 72.3503 50.0381 72.127 50.1885C71.9036 50.3343 71.637 50.4072 71.3271 50.4072C71.0127 50.4072 70.7438 50.3343 70.5205 50.1885C70.3018 50.0381 70.1924 49.7692 70.1924 49.3818C70.1924 48.9899 70.3018 48.7233 70.5205 48.582C70.7438 48.4362 71.0127 48.3633 71.3271 48.3633ZM78.8125 51.2139C79.6738 51.2139 80.3688 51.5488 80.8975 52.2188C81.4307 52.8887 81.6973 53.8708 81.6973 55.165C81.6973 56.0309 81.5719 56.7601 81.3213 57.3525C81.0706 57.9404 80.7243 58.3848 80.2822 58.6855C79.8402 58.9863 79.332 59.1367 78.7578 59.1367C78.3887 59.1367 78.0719 59.0911 77.8076 59C77.5433 58.9043 77.3177 58.7835 77.1309 58.6377C76.944 58.4873 76.7822 58.3278 76.6455 58.1592H76.5361C76.5726 58.3415 76.5999 58.5283 76.6182 58.7197C76.6364 58.9111 76.6455 59.098 76.6455 59.2803V62.3633H74.5605V51.3574H76.2559L76.5498 52.3486H76.6455C76.7822 52.1436 76.9486 51.9544 77.1445 51.7812C77.3405 51.6081 77.5752 51.4714 77.8486 51.3711C78.1266 51.2663 78.4479 51.2139 78.8125 51.2139ZM78.1426 52.8818C77.778 52.8818 77.4886 52.957 77.2744 53.1074C77.0602 53.2578 76.903 53.4834 76.8027 53.7842C76.707 54.085 76.6546 54.4655 76.6455 54.9258V55.1514C76.6455 55.6436 76.6911 56.0605 76.7822 56.4023C76.8779 56.7441 77.0352 57.0039 77.2539 57.1816C77.4772 57.3594 77.7826 57.4482 78.1699 57.4482C78.4889 57.4482 78.751 57.3594 78.9561 57.1816C79.1611 57.0039 79.3138 56.7441 79.4141 56.4023C79.5189 56.056 79.5713 55.6344 79.5713 55.1377C79.5713 54.3903 79.4551 53.8275 79.2227 53.4492C78.9902 53.071 78.6302 52.8818 78.1426 52.8818ZM88.7383 59H82.7021V57.7695L86.2432 52.9502H82.9141V51.3574H88.6152V52.7109L85.1699 57.4072H88.7383V59ZM92.3408 51.3574V59H90.2559V51.3574H92.3408ZM91.3018 48.3633C91.6117 48.3633 91.8783 48.4362 92.1016 48.582C92.3249 48.7233 92.4365 48.9899 92.4365 49.3818C92.4365 49.7692 92.3249 50.0381 92.1016 50.1885C91.8783 50.3343 91.6117 50.4072 91.3018 50.4072C90.9873 50.4072 90.7184 50.3343 90.4951 50.1885C90.2764 50.0381 90.167 49.7692 90.167 49.3818C90.167 48.9899 90.2764 48.7233 90.4951 48.582C90.7184 48.4362 90.9873 48.3633 91.3018 48.3633ZM96.7705 62.3633C95.7041 62.3633 94.8883 62.1764 94.3232 61.8027C93.7627 61.4336 93.4824 60.9141 93.4824 60.2441C93.4824 59.7839 93.626 59.3988 93.9131 59.0889C94.2002 58.779 94.6217 58.5579 95.1777 58.4258C94.9635 58.3346 94.7767 58.1865 94.6172 57.9814C94.4577 57.7718 94.3779 57.5508 94.3779 57.3184C94.3779 57.0267 94.4622 56.7852 94.6309 56.5938C94.7995 56.3978 95.0433 56.2064 95.3623 56.0195C94.9613 55.8464 94.6423 55.5684 94.4053 55.1855C94.1729 54.8027 94.0566 54.3516 94.0566 53.832C94.0566 53.276 94.1774 52.8044 94.4189 52.417C94.665 52.0251 95.0205 51.7266 95.4854 51.5215C95.9548 51.3164 96.5244 51.2139 97.1943 51.2139C97.3356 51.2139 97.4997 51.223 97.6865 51.2412C97.8734 51.2594 98.0443 51.2799 98.1992 51.3027C98.3587 51.3255 98.4658 51.3438 98.5205 51.3574H101.187V52.417L99.9902 52.7246C100.1 52.8932 100.182 53.0732 100.236 53.2646C100.291 53.4561 100.318 53.6589 100.318 53.873C100.318 54.6934 100.031 55.3337 99.457 55.7939C98.8874 56.2497 98.0944 56.4775 97.0781 56.4775C96.8366 56.4639 96.6087 56.4456 96.3945 56.4229C96.2897 56.5049 96.21 56.5915 96.1553 56.6826C96.1006 56.7738 96.0732 56.8695 96.0732 56.9697C96.0732 57.07 96.1143 57.1543 96.1963 57.2227C96.2829 57.2865 96.4105 57.3366 96.5791 57.373C96.7523 57.4049 96.9665 57.4209 97.2217 57.4209H98.5205C99.359 57.4209 99.9971 57.6009 100.435 57.9609C100.877 58.321 101.098 58.8496 101.098 59.5469C101.098 60.4401 100.724 61.1328 99.9766 61.625C99.2337 62.1172 98.165 62.3633 96.7705 62.3633ZM96.8594 61.0029C97.3561 61.0029 97.7822 60.9551 98.1377 60.8594C98.4977 60.7682 98.7734 60.6361 98.9648 60.4629C99.1562 60.2943 99.252 60.0915 99.252 59.8545C99.252 59.6631 99.195 59.5104 99.0811 59.3965C98.9717 59.2871 98.8031 59.2096 98.5752 59.1641C98.3519 59.1185 98.0648 59.0957 97.7139 59.0957H96.6338C96.3786 59.0957 96.1484 59.1367 95.9434 59.2188C95.7428 59.3008 95.5833 59.4147 95.4648 59.5605C95.3464 59.7109 95.2871 59.8841 95.2871 60.0801C95.2871 60.3672 95.4238 60.5928 95.6973 60.7568C95.9753 60.9209 96.3626 61.0029 96.8594 61.0029ZM97.1943 55.2061C97.5863 55.2061 97.8734 55.0853 98.0557 54.8438C98.238 54.6022 98.3291 54.2741 98.3291 53.8594C98.3291 53.3991 98.2334 53.055 98.042 52.8271C97.8551 52.5947 97.5726 52.4785 97.1943 52.4785C96.8115 52.4785 96.5244 52.5947 96.333 52.8271C96.1416 53.055 96.0459 53.3991 96.0459 53.8594C96.0459 54.2741 96.1393 54.6022 96.3262 54.8438C96.5176 55.0853 96.807 55.2061 97.1943 55.2061Z" fill="#3352E5"/>
<path fill-rule="evenodd" clip-rule="evenodd" d="M43 85C43 82.7909 44.7909 81 47 81H107C109.209 81 111 82.7909 111 85V109C111 111.209 109.209 113 107 113H47C44.7909 113 43 111.209 43 109V85Z" fill="#D9DBE5"/>
<path d="M58.0576 103L54.9639 92.9189H54.8848C54.8965 93.1592 54.9141 93.5225 54.9375 94.0088C54.9668 94.4893 54.9932 95.002 55.0166 95.5469C55.04 96.0918 55.0518 96.584 55.0518 97.0234V103H52.6172V90.1504H56.3262L59.3672 99.9766H59.4199L62.6455 90.1504H66.3545V103H63.8145V96.918C63.8145 96.5137 63.8203 96.0479 63.832 95.5205C63.8496 94.9932 63.8701 94.4922 63.8936 94.0176C63.917 93.5371 63.9346 93.1768 63.9463 92.9365H63.8672L60.5537 103H58.0576Z" fill="#B0B6D3"/>
<path d="M82.6621 94.791C83.4473 94.791 84.1445 94.9404 84.7539 95.2393C85.3691 95.5381 85.8525 95.9775 86.2041 96.5576C86.5557 97.1377 86.7314 97.8525 86.7314 98.7021C86.7314 99.6279 86.5381 100.428 86.1514 101.102C85.7705 101.77 85.1992 102.282 84.4375 102.64C83.6816 102.997 82.7383 103.176 81.6074 103.176C80.9336 103.176 80.2979 103.117 79.7002 103C79.1084 102.889 78.5898 102.716 78.1445 102.481V100.135C78.5898 100.369 79.123 100.568 79.7441 100.732C80.3711 100.891 80.96 100.97 81.5107 100.97C82.0498 100.97 82.5039 100.899 82.873 100.759C83.2422 100.612 83.5205 100.39 83.708 100.091C83.9014 99.7861 83.998 99.3994 83.998 98.9307C83.998 98.3037 83.7871 97.8232 83.3652 97.4893C82.9434 97.1553 82.2959 96.9883 81.4229 96.9883C81.0889 96.9883 80.7402 97.0205 80.377 97.085C80.0195 97.1494 79.7207 97.2139 79.4805 97.2783L78.3994 96.6982L78.8828 90.1504H85.8525V92.4531H81.2646L81.0273 94.9756C81.2266 94.9346 81.4434 94.8936 81.6777 94.8525C81.9121 94.8115 82.2402 94.791 82.6621 94.791ZM88.5947 101.743C88.5947 101.192 88.7441 100.806 89.043 100.583C89.3477 100.36 89.7139 100.249 90.1416 100.249C90.5576 100.249 90.915 100.36 91.2139 100.583C91.5186 100.806 91.6709 101.192 91.6709 101.743C91.6709 102.271 91.5186 102.651 91.2139 102.886C90.915 103.12 90.5576 103.237 90.1416 103.237C89.7139 103.237 89.3477 103.12 89.043 102.886C88.7441 102.651 88.5947 102.271 88.5947 101.743ZM100.135 103H97.4189V95.5645C97.4189 95.3594 97.4219 95.1074 97.4277 94.8086C97.4336 94.5039 97.4424 94.1934 97.4541 93.877C97.4658 93.5547 97.4775 93.2646 97.4893 93.0068C97.4248 93.083 97.293 93.2148 97.0938 93.4023C96.9004 93.584 96.7188 93.748 96.5488 93.8945L95.0723 95.0811L93.7627 93.4463L97.9023 90.1504H100.135V103Z" fill="#3352E5"/>
</g>
</svg>
