<svg width="154" height="150" viewBox="0 0 154 150" fill="none" xmlns="http://www.w3.org/2000/svg">
<rect x="2" y="2" width="150" height="146" rx="38" fill="#F3F5F7" stroke="#ECECEC" stroke-width="4"/>
<mask id="mask0_256_6294" style="mask-type:alpha" maskUnits="userSpaceOnUse" x="0" y="0" width="154" height="150">
<rect x="2" y="2" width="150" height="146" rx="38" fill="#F3F5F7" stroke="#ECECEC" stroke-width="4"/>
</mask>
<g mask="url(#mask0_256_6294)">
<path d="M54.9395 70.292C56.3213 70.292 57.3296 70.5898 57.9644 71.1855C58.5991 71.7764 58.9165 72.5918 58.9165 73.6318C58.9165 74.1006 58.8457 74.5498 58.7041 74.9795C58.5625 75.4043 58.3306 75.7827 58.0083 76.1147C57.6909 76.4468 57.2661 76.7104 56.7339 76.9058C56.2017 77.0962 55.5449 77.1914 54.7637 77.1914H53.7896V81H51.519V70.292H54.9395ZM54.8223 72.1523H53.7896V75.3311H54.5366C54.9614 75.3311 55.3301 75.2749 55.6426 75.1626C55.9551 75.0503 56.1968 74.8745 56.3677 74.6353C56.5386 74.396 56.624 74.0884 56.624 73.7124C56.624 73.1851 56.4775 72.7944 56.1846 72.5405C55.8916 72.2817 55.4375 72.1523 54.8223 72.1523ZM63.7637 72.6577C64.5205 72.6577 65.1724 72.8042 65.7192 73.0972C66.2661 73.3853 66.6885 73.8052 66.9863 74.3569C67.2842 74.9087 67.4331 75.5825 67.4331 76.3784V77.4624H62.1523C62.1768 78.0923 62.3647 78.5879 62.7163 78.9492C63.0728 79.3057 63.5659 79.4839 64.1958 79.4839C64.7183 79.4839 65.1968 79.4302 65.6313 79.3228C66.0659 79.2153 66.5127 79.0542 66.9717 78.8394V80.5679C66.5664 80.7681 66.1416 80.9146 65.6973 81.0073C65.2578 81.1001 64.7231 81.1465 64.0933 81.1465C63.2729 81.1465 62.5454 80.9951 61.9106 80.6924C61.2808 80.3896 60.7852 79.9282 60.4238 79.3081C60.0674 78.688 59.8892 77.9067 59.8892 76.9644C59.8892 76.0073 60.0503 75.2114 60.3726 74.5767C60.6997 73.937 61.1538 73.4585 61.7349 73.1411C62.3159 72.8188 62.9922 72.6577 63.7637 72.6577ZM63.7783 74.2471C63.3438 74.2471 62.9824 74.3862 62.6943 74.6646C62.4111 74.9429 62.2476 75.3799 62.2036 75.9756H65.3384C65.3335 75.6436 65.2725 75.3481 65.1553 75.0894C65.043 74.8306 64.8721 74.6255 64.6426 74.4741C64.418 74.3228 64.1299 74.2471 63.7783 74.2471ZM73.5254 72.6577C74.3994 72.6577 75.1025 72.897 75.6348 73.3755C76.167 73.8491 76.4331 74.6108 76.4331 75.6606V81H74.1992V76.2173C74.1992 75.6313 74.0918 75.1895 73.877 74.8916C73.667 74.5938 73.335 74.4448 72.8809 74.4448C72.1973 74.4448 71.731 74.6768 71.4819 75.1406C71.2329 75.6045 71.1084 76.2734 71.1084 77.1475V81H68.8745V72.8115H70.5811L70.8813 73.8589H71.0059C71.1816 73.5757 71.3989 73.3462 71.6577 73.1704C71.9214 72.9946 72.2119 72.8652 72.5293 72.7822C72.8516 72.6992 73.1836 72.6577 73.5254 72.6577ZM80.9507 81.1465C80.0376 81.1465 79.293 80.79 78.7168 80.0771C78.1455 79.3594 77.8599 78.3071 77.8599 76.9204C77.8599 75.519 78.1504 74.4595 78.7314 73.7417C79.3125 73.019 80.0718 72.6577 81.0093 72.6577C81.3999 72.6577 81.7441 72.7114 82.042 72.8188C82.3398 72.9263 82.5962 73.0703 82.811 73.251C83.0308 73.4316 83.2163 73.6343 83.3677 73.8589H83.4409C83.4116 73.7026 83.375 73.4731 83.3311 73.1704C83.292 72.8628 83.2725 72.5479 83.2725 72.2256V69.6035H85.5137V81H83.7998L83.3677 79.938H83.2725C83.1309 80.1626 82.9526 80.3677 82.7378 80.5532C82.5278 80.7339 82.2764 80.8779 81.9834 80.9854C81.6904 81.0928 81.3462 81.1465 80.9507 81.1465ZM81.7344 79.3667C82.3447 79.3667 82.7744 79.186 83.0234 78.8247C83.2773 78.4585 83.4116 77.9092 83.4263 77.1768V76.9351C83.4263 76.1392 83.3042 75.5312 83.0601 75.1113C82.8159 74.6865 82.3618 74.4741 81.6978 74.4741C81.2046 74.4741 80.8188 74.6865 80.5405 75.1113C80.2622 75.5361 80.123 76.1489 80.123 76.9497C80.123 77.7505 80.2622 78.3535 80.5405 78.7588C80.8237 79.1641 81.2217 79.3667 81.7344 79.3667ZM89.709 72.8115V81H87.4751V72.8115H89.709ZM88.5957 69.6035C88.9277 69.6035 89.2134 69.6816 89.4526 69.8379C89.6919 69.9893 89.8115 70.2749 89.8115 70.6948C89.8115 71.1099 89.6919 71.3979 89.4526 71.5591C89.2134 71.7153 88.9277 71.7935 88.5957 71.7935C88.2588 71.7935 87.9707 71.7153 87.7314 71.5591C87.4971 71.3979 87.3799 71.1099 87.3799 70.6948C87.3799 70.2749 87.4971 69.9893 87.7314 69.8379C87.9707 69.6816 88.2588 69.6035 88.5957 69.6035ZM96.3359 72.6577C97.21 72.6577 97.9131 72.897 98.4453 73.3755C98.9775 73.8491 99.2437 74.6108 99.2437 75.6606V81H97.0098V76.2173C97.0098 75.6313 96.9023 75.1895 96.6875 74.8916C96.4775 74.5938 96.1455 74.4448 95.6914 74.4448C95.0078 74.4448 94.5415 74.6768 94.2925 75.1406C94.0435 75.6045 93.9189 76.2734 93.9189 77.1475V81H91.6851V72.8115H93.3916L93.6919 73.8589H93.8164C93.9922 73.5757 94.2095 73.3462 94.4683 73.1704C94.7319 72.9946 95.0225 72.8652 95.3398 72.7822C95.6621 72.6992 95.9941 72.6577 96.3359 72.6577ZM103.563 84.6035C102.421 84.6035 101.547 84.4033 100.941 84.0029C100.341 83.6074 100.041 83.0508 100.041 82.333C100.041 81.8398 100.194 81.4272 100.502 81.0952C100.81 80.7632 101.261 80.5264 101.857 80.3848C101.627 80.2871 101.427 80.1284 101.256 79.9087C101.085 79.6841 101 79.4473 101 79.1982C101 78.8857 101.09 78.627 101.271 78.4219C101.452 78.2119 101.713 78.0068 102.055 77.8066C101.625 77.6211 101.283 77.3232 101.029 76.9131C100.78 76.5029 100.656 76.0195 100.656 75.4629C100.656 74.8672 100.785 74.3618 101.044 73.9468C101.308 73.5269 101.688 73.207 102.187 72.9873C102.689 72.7676 103.3 72.6577 104.018 72.6577C104.169 72.6577 104.345 72.6675 104.545 72.687C104.745 72.7065 104.928 72.7285 105.094 72.7529C105.265 72.7773 105.38 72.7969 105.438 72.8115H108.295V73.9468L107.013 74.2764C107.13 74.457 107.218 74.6499 107.277 74.855C107.335 75.0601 107.365 75.2773 107.365 75.5068C107.365 76.3857 107.057 77.0718 106.442 77.5649C105.832 78.0532 104.982 78.2974 103.893 78.2974C103.634 78.2827 103.39 78.2632 103.161 78.2388C103.048 78.3267 102.963 78.4194 102.904 78.5171C102.846 78.6147 102.816 78.7173 102.816 78.8247C102.816 78.9321 102.86 79.0225 102.948 79.0957C103.041 79.1641 103.178 79.2178 103.358 79.2568C103.544 79.291 103.773 79.3081 104.047 79.3081H105.438C106.337 79.3081 107.021 79.501 107.489 79.8867C107.963 80.2725 108.2 80.8389 108.2 81.5859C108.2 82.543 107.799 83.2852 106.999 83.8125C106.203 84.3398 105.058 84.6035 103.563 84.6035ZM103.659 83.146C104.191 83.146 104.647 83.0947 105.028 82.9922C105.414 82.8945 105.709 82.7529 105.915 82.5674C106.12 82.3867 106.222 82.1694 106.222 81.9155C106.222 81.7104 106.161 81.5469 106.039 81.4248C105.922 81.3076 105.741 81.2246 105.497 81.1758C105.258 81.127 104.95 81.1025 104.574 81.1025H103.417C103.144 81.1025 102.897 81.1465 102.677 81.2344C102.462 81.3223 102.292 81.4443 102.165 81.6006C102.038 81.7617 101.974 81.9473 101.974 82.1572C101.974 82.4648 102.121 82.7065 102.414 82.8823C102.711 83.0581 103.126 83.146 103.659 83.146ZM104.018 76.9351C104.438 76.9351 104.745 76.8057 104.94 76.5469C105.136 76.2881 105.233 75.9365 105.233 75.4922C105.233 74.999 105.131 74.6304 104.926 74.3862C104.726 74.1372 104.423 74.0127 104.018 74.0127C103.607 74.0127 103.3 74.1372 103.095 74.3862C102.89 74.6304 102.787 74.999 102.787 75.4922C102.787 75.9365 102.887 76.2881 103.087 76.5469C103.292 76.8057 103.603 76.9351 104.018 76.9351ZM114.122 69.6035V72.4526C114.122 72.7798 114.112 73.0972 114.093 73.4048C114.078 73.7124 114.066 73.9517 114.056 74.1226H114.122C114.342 73.7612 114.659 73.4561 115.074 73.207C115.489 72.958 116.019 72.8335 116.664 72.8335C117.669 72.8335 118.47 73.1826 119.066 73.8809C119.667 74.5742 119.967 75.6069 119.967 76.979C119.967 77.8823 119.83 78.644 119.557 79.2642C119.283 79.8843 118.897 80.353 118.399 80.6704C117.901 80.9878 117.313 81.1465 116.634 81.1465C116 81.1465 115.477 81.0293 115.067 80.7949C114.662 80.5557 114.349 80.2651 114.129 79.9233H114.034L113.785 81H112.906V69.6035H114.122ZM116.466 73.8516C115.885 73.8516 115.423 73.9663 115.082 74.1958C114.74 74.4204 114.493 74.7622 114.342 75.2212C114.195 75.6753 114.122 76.2515 114.122 76.9497V77.0156C114.122 78.0264 114.291 78.8003 114.627 79.3374C114.964 79.8696 115.577 80.1357 116.466 80.1357C117.213 80.1357 117.772 79.8623 118.143 79.3154C118.519 78.7686 118.707 77.9873 118.707 76.9717C118.707 75.9365 118.521 75.1577 118.15 74.6353C117.784 74.1128 117.223 73.8516 116.466 73.8516ZM124.807 72.8262C125.49 72.8262 126.076 72.9775 126.564 73.2803C127.053 73.583 127.426 74.0078 127.685 74.5547C127.944 75.0967 128.073 75.7314 128.073 76.459V77.2134H122.529C122.543 78.1558 122.778 78.8735 123.232 79.3667C123.686 79.8599 124.326 80.1064 125.151 80.1064C125.659 80.1064 126.108 80.0601 126.499 79.9673C126.889 79.8745 127.294 79.7378 127.714 79.5571V80.6265C127.309 80.8071 126.906 80.939 126.506 81.022C126.11 81.105 125.642 81.1465 125.1 81.1465C124.328 81.1465 123.654 80.9902 123.078 80.6777C122.507 80.3604 122.062 79.8965 121.745 79.2861C121.428 78.6758 121.269 77.9287 121.269 77.0449C121.269 76.1807 121.413 75.4336 121.701 74.8037C121.994 74.1689 122.404 73.6807 122.932 73.3389C123.464 72.9971 124.089 72.8262 124.807 72.8262ZM124.792 73.8223C124.143 73.8223 123.625 74.0347 123.239 74.4595C122.854 74.8843 122.624 75.4775 122.551 76.2393H126.799C126.794 75.7607 126.718 75.3408 126.572 74.9795C126.43 74.6133 126.213 74.3301 125.92 74.1299C125.627 73.9248 125.251 73.8223 124.792 73.8223ZM132.356 80.1504C132.557 80.1504 132.762 80.1333 132.972 80.0991C133.182 80.0649 133.353 80.0234 133.484 79.9746V80.9194C133.343 80.9829 133.145 81.0366 132.891 81.0806C132.642 81.1245 132.398 81.1465 132.159 81.1465C131.734 81.1465 131.348 81.0732 131.001 80.9268C130.655 80.7754 130.376 80.5215 130.167 80.165C129.961 79.8086 129.859 79.3154 129.859 78.6855V73.9248H128.716V73.3315L129.866 72.8555L130.35 71.1123H131.082V72.9727H133.433V73.9248H131.082V78.6489C131.082 79.1519 131.197 79.5278 131.426 79.7769C131.661 80.0259 131.971 80.1504 132.356 80.1504Z" fill="#FFB721"/>
<path fill-rule="evenodd" clip-rule="evenodd" d="M44.5508 80.5295L38.2168 68.6545C37.8408 67.9485 36.8288 67.9485 36.4518 68.6545L30.1188 80.5295C29.7638 81.1955 30.2468 82.0005 31.0018 82.0005H43.6688C44.4228 82.0005 44.9058 81.1955 44.5508 80.5295ZM37.335 80.001C36.783 80.001 36.335 79.553 36.335 79.001C36.335 78.449 36.783 78.001 37.335 78.001C37.887 78.001 38.335 78.449 38.335 79.001C38.335 79.553 37.887 80.001 37.335 80.001ZM36.335 77.001H38.335V73.001H36.335V77.001Z" fill="#FFB721"/>
</g>
</svg>
