<svg width="154" height="150" viewBox="0 0 154 150" fill="none" xmlns="http://www.w3.org/2000/svg">
<rect x="2" y="2" width="150" height="146" rx="38" fill="#F3F5F7" stroke="#ECECEC" stroke-width="4"/>
<mask id="mask0_256_6312" style="mask-type:alpha" maskUnits="userSpaceOnUse" x="0" y="0" width="154" height="150">
<rect x="2" y="2" width="150" height="146" rx="38" fill="#F3F5F7" stroke="#ECECEC" stroke-width="4"/>
</mask>
<g mask="url(#mask0_256_6312)">
<path d="M40.6572 44.292H43.6895C45.0273 44.292 46.0332 44.4922 46.707 44.8926C47.3809 45.293 47.7178 45.9741 47.7178 46.936C47.7178 47.3511 47.6372 47.7246 47.4761 48.0566C47.3198 48.3838 47.0903 48.6548 46.7876 48.8696C46.4849 49.0845 46.1113 49.2334 45.667 49.3164V49.3896C46.1357 49.4629 46.5508 49.5972 46.9121 49.7925C47.2734 49.9878 47.5566 50.2612 47.7617 50.6128C47.9668 50.9644 48.0693 51.4111 48.0693 51.9531C48.0693 52.6123 47.9155 53.1689 47.6079 53.623C47.3052 54.0771 46.8755 54.4214 46.3188 54.6558C45.7622 54.8853 45.103 55 44.3413 55H40.6572V44.292ZM41.9023 48.8843H43.9531C44.8857 48.8843 45.5303 48.7305 45.8867 48.4229C46.248 48.1152 46.4287 47.666 46.4287 47.0752C46.4287 46.4648 46.2139 46.0254 45.7842 45.7568C45.3594 45.4883 44.6807 45.354 43.748 45.354H41.9023V48.8843ZM41.9023 49.9316V53.938H44.1289C45.0811 53.938 45.7549 53.7524 46.1504 53.3813C46.5459 53.0054 46.7437 52.5 46.7437 51.8652C46.7437 51.46 46.6533 51.1133 46.4727 50.8252C46.2969 50.5371 46.0088 50.3174 45.6084 50.166C45.2129 50.0098 44.6831 49.9316 44.019 49.9316H41.9023ZM52.8872 46.8262C53.5708 46.8262 54.1567 46.9775 54.645 47.2803C55.1333 47.583 55.5068 48.0078 55.7656 48.5547C56.0244 49.0967 56.1538 49.7314 56.1538 50.459V51.2134H50.6094C50.624 52.1558 50.8584 52.8735 51.3125 53.3667C51.7666 53.8599 52.4062 54.1064 53.2314 54.1064C53.7393 54.1064 54.1885 54.0601 54.5791 53.9673C54.9697 53.8745 55.375 53.7378 55.7949 53.5571V54.6265C55.3896 54.8071 54.9868 54.939 54.5864 55.022C54.1909 55.105 53.7222 55.1465 53.1802 55.1465C52.4087 55.1465 51.7349 54.9902 51.1587 54.6777C50.5874 54.3604 50.1431 53.8965 49.8257 53.2861C49.5083 52.6758 49.3496 51.9287 49.3496 51.0449C49.3496 50.1807 49.4937 49.4336 49.7817 48.8037C50.0747 48.1689 50.4849 47.6807 51.0122 47.3389C51.5444 46.9971 52.1694 46.8262 52.8872 46.8262ZM52.8726 47.8223C52.2231 47.8223 51.7056 48.0347 51.3198 48.4595C50.9341 48.8843 50.7046 49.4775 50.6313 50.2393H54.8794C54.8745 49.7607 54.7988 49.3408 54.6523 48.9795C54.5107 48.6133 54.2935 48.3301 54.0005 48.1299C53.7075 47.9248 53.3315 47.8223 52.8726 47.8223ZM60.437 54.1504C60.6372 54.1504 60.8423 54.1333 61.0522 54.0991C61.2622 54.0649 61.4331 54.0234 61.5649 53.9746V54.9194C61.4233 54.9829 61.2256 55.0366 60.9717 55.0806C60.7227 55.1245 60.4785 55.1465 60.2393 55.1465C59.8145 55.1465 59.4287 55.0732 59.082 54.9268C58.7354 54.7754 58.457 54.5215 58.2471 54.165C58.042 53.8086 57.9395 53.3154 57.9395 52.6855V47.9248H56.7969V47.3315L57.9468 46.8555L58.4302 45.1123H59.1626V46.9727H61.5137V47.9248H59.1626V52.6489C59.1626 53.1519 59.2773 53.5278 59.5068 53.7769C59.7412 54.0259 60.0513 54.1504 60.437 54.1504ZM69.5527 55.1465C68.7422 55.1465 68.0513 55 67.48 54.707C66.9087 54.4092 66.4741 53.9502 66.1763 53.3301C65.8784 52.71 65.7295 51.9165 65.7295 50.9497C65.7295 49.9487 65.8979 49.1333 66.2349 48.5034C66.5767 47.8687 67.0479 47.4023 67.6484 47.1045C68.2539 46.8066 68.9546 46.6577 69.7505 46.6577C70.3169 46.6577 70.8052 46.7139 71.2153 46.8262C71.6304 46.9336 71.9917 47.063 72.2993 47.2144L71.6401 48.9429C71.2886 48.8013 70.9614 48.6865 70.6587 48.5986C70.356 48.5059 70.0532 48.4595 69.7505 48.4595C69.3599 48.4595 69.0352 48.5522 68.7764 48.7378C68.5176 48.9185 68.3247 49.1919 68.1978 49.5581C68.0708 49.9243 68.0073 50.3833 68.0073 50.9351C68.0073 51.4771 68.0757 51.9263 68.2124 52.2827C68.3491 52.6392 68.5469 52.9053 68.8057 53.0811C69.0645 53.252 69.3794 53.3374 69.7505 53.3374C70.2144 53.3374 70.627 53.2764 70.9883 53.1543C71.3496 53.0273 71.7012 52.8516 72.043 52.627V54.5386C71.7012 54.7534 71.3423 54.9072 70.9663 55C70.5952 55.0977 70.124 55.1465 69.5527 55.1465ZM76.9268 46.6431C78.0254 46.6431 78.8677 46.8823 79.4536 47.3608C80.0396 47.8394 80.3325 48.5669 80.3325 49.5435V55H78.7725L78.3403 53.8867H78.2817C78.0474 54.1797 77.8081 54.4189 77.564 54.6045C77.3198 54.79 77.0391 54.9268 76.7217 55.0146C76.4043 55.1025 76.0186 55.1465 75.5645 55.1465C75.0811 55.1465 74.6465 55.0537 74.2607 54.8682C73.8799 54.6826 73.5796 54.3994 73.3599 54.0186C73.1401 53.6328 73.0303 53.1445 73.0303 52.5537C73.0303 51.6846 73.3354 51.0449 73.9458 50.6348C74.5562 50.2197 75.4717 49.9902 76.6924 49.9463L78.1133 49.9023V49.5435C78.1133 49.1138 78.001 48.7988 77.7764 48.5986C77.5518 48.3984 77.2393 48.2983 76.8389 48.2983C76.4434 48.2983 76.0552 48.3545 75.6743 48.4668C75.2935 48.5791 74.9126 48.7207 74.5317 48.8916L73.792 47.3828C74.2266 47.1533 74.7124 46.9727 75.2495 46.8408C75.7915 46.709 76.3506 46.6431 76.9268 46.6431ZM78.1133 51.2061L77.249 51.2354C76.5264 51.2549 76.0234 51.3843 75.7402 51.6235C75.4619 51.8628 75.3228 52.1777 75.3228 52.5684C75.3228 52.9102 75.4229 53.1543 75.623 53.3008C75.8232 53.4424 76.0845 53.5132 76.4067 53.5132C76.8853 53.5132 77.2881 53.3716 77.6152 53.0884C77.9473 52.8052 78.1133 52.4023 78.1133 51.8799V51.2061ZM86.9155 46.6577C87.7896 46.6577 88.4927 46.897 89.0249 47.3755C89.5571 47.8491 89.8232 48.6108 89.8232 49.6606V55H87.5894V50.2173C87.5894 49.6313 87.4819 49.1895 87.2671 48.8916C87.0571 48.5938 86.7251 48.4448 86.271 48.4448C85.5874 48.4448 85.1211 48.6768 84.8721 49.1406C84.623 49.6045 84.4985 50.2734 84.4985 51.1475V55H82.2646V46.8115H83.9712L84.2715 47.8589H84.396C84.5718 47.5757 84.7891 47.3462 85.0479 47.1704C85.3115 46.9946 85.6021 46.8652 85.9194 46.7822C86.2417 46.6992 86.5737 46.6577 86.9155 46.6577ZM95.0732 55.1465C94.2627 55.1465 93.5718 55 93.0005 54.707C92.4292 54.4092 91.9946 53.9502 91.6968 53.3301C91.3989 52.71 91.25 51.9165 91.25 50.9497C91.25 49.9487 91.4185 49.1333 91.7554 48.5034C92.0972 47.8687 92.5684 47.4023 93.1689 47.1045C93.7744 46.8066 94.4751 46.6577 95.271 46.6577C95.8374 46.6577 96.3257 46.7139 96.7358 46.8262C97.1509 46.9336 97.5122 47.063 97.8198 47.2144L97.1606 48.9429C96.8091 48.8013 96.4819 48.6865 96.1792 48.5986C95.8765 48.5059 95.5737 48.4595 95.271 48.4595C94.8804 48.4595 94.5557 48.5522 94.2969 48.7378C94.0381 48.9185 93.8452 49.1919 93.7183 49.5581C93.5913 49.9243 93.5278 50.3833 93.5278 50.9351C93.5278 51.4771 93.5962 51.9263 93.7329 52.2827C93.8696 52.6392 94.0674 52.9053 94.3262 53.0811C94.585 53.252 94.8999 53.3374 95.271 53.3374C95.7349 53.3374 96.1475 53.2764 96.5088 53.1543C96.8701 53.0273 97.2217 52.8516 97.5635 52.627V54.5386C97.2217 54.7534 96.8628 54.9072 96.4868 55C96.1157 55.0977 95.6445 55.1465 95.0732 55.1465ZM102.469 46.6577C103.226 46.6577 103.878 46.8042 104.425 47.0972C104.972 47.3853 105.394 47.8052 105.692 48.3569C105.99 48.9087 106.139 49.5825 106.139 50.3784V51.4624H100.858C100.882 52.0923 101.07 52.5879 101.422 52.9492C101.778 53.3057 102.271 53.4839 102.901 53.4839C103.424 53.4839 103.902 53.4302 104.337 53.3228C104.771 53.2153 105.218 53.0542 105.677 52.8394V54.5679C105.272 54.7681 104.847 54.9146 104.403 55.0073C103.963 55.1001 103.429 55.1465 102.799 55.1465C101.979 55.1465 101.251 54.9951 100.616 54.6924C99.9863 54.3896 99.4907 53.9282 99.1294 53.3081C98.7729 52.688 98.5947 51.9067 98.5947 50.9644C98.5947 50.0073 98.7559 49.2114 99.0781 48.5767C99.4053 47.937 99.8594 47.4585 100.44 47.1411C101.021 46.8188 101.698 46.6577 102.469 46.6577ZM102.484 48.2471C102.049 48.2471 101.688 48.3862 101.4 48.6646C101.117 48.9429 100.953 49.3799 100.909 49.9756H104.044C104.039 49.6436 103.978 49.3481 103.861 49.0894C103.749 48.8306 103.578 48.6255 103.348 48.4741C103.124 48.3228 102.835 48.2471 102.484 48.2471ZM109.814 55H107.58V43.6035H109.814V55ZM114.024 55H111.79V43.6035H114.024V55ZM119.376 46.6577C120.133 46.6577 120.785 46.8042 121.332 47.0972C121.879 47.3853 122.301 47.8052 122.599 48.3569C122.897 48.9087 123.046 49.5825 123.046 50.3784V51.4624H117.765C117.79 52.0923 117.978 52.5879 118.329 52.9492C118.686 53.3057 119.179 53.4839 119.809 53.4839C120.331 53.4839 120.81 53.4302 121.244 53.3228C121.679 53.2153 122.125 53.0542 122.584 52.8394V54.5679C122.179 54.7681 121.754 54.9146 121.31 55.0073C120.871 55.1001 120.336 55.1465 119.706 55.1465C118.886 55.1465 118.158 54.9951 117.523 54.6924C116.894 54.3896 116.398 53.9282 116.037 53.3081C115.68 52.688 115.502 51.9067 115.502 50.9644C115.502 50.0073 115.663 49.2114 115.985 48.5767C116.312 47.937 116.767 47.4585 117.348 47.1411C117.929 46.8188 118.605 46.6577 119.376 46.6577ZM119.391 48.2471C118.957 48.2471 118.595 48.3862 118.307 48.6646C118.024 48.9429 117.86 49.3799 117.816 49.9756H120.951C120.946 49.6436 120.885 49.3481 120.768 49.0894C120.656 48.8306 120.485 48.6255 120.255 48.4741C120.031 48.3228 119.743 48.2471 119.391 48.2471ZM127.08 55.1465C126.167 55.1465 125.422 54.79 124.846 54.0771C124.275 53.3594 123.989 52.3071 123.989 50.9204C123.989 49.519 124.28 48.4595 124.861 47.7417C125.442 47.019 126.201 46.6577 127.139 46.6577C127.529 46.6577 127.874 46.7114 128.171 46.8188C128.469 46.9263 128.726 47.0703 128.94 47.251C129.16 47.4316 129.346 47.6343 129.497 47.8589H129.57C129.541 47.7026 129.504 47.4731 129.46 47.1704C129.421 46.8628 129.402 46.5479 129.402 46.2256V43.6035H131.643V55H129.929L129.497 53.938H129.402C129.26 54.1626 129.082 54.3677 128.867 54.5532C128.657 54.7339 128.406 54.8779 128.113 54.9854C127.82 55.0928 127.476 55.1465 127.08 55.1465ZM127.864 53.3667C128.474 53.3667 128.904 53.186 129.153 52.8247C129.407 52.4585 129.541 51.9092 129.556 51.1768V50.9351C129.556 50.1392 129.434 49.5312 129.189 49.1113C128.945 48.6865 128.491 48.4741 127.827 48.4741C127.334 48.4741 126.948 48.6865 126.67 49.1113C126.392 49.5361 126.252 50.1489 126.252 50.9497C126.252 51.7505 126.392 52.3535 126.67 52.7588C126.953 53.1641 127.351 53.3667 127.864 53.3667ZM60.8574 63.6035V66.4526C60.8574 66.7798 60.8477 67.0972 60.8281 67.4048C60.8135 67.7124 60.8013 67.9517 60.7915 68.1226H60.8574C61.0771 67.7612 61.3945 67.4561 61.8096 67.207C62.2246 66.958 62.7544 66.8335 63.3989 66.8335C64.4048 66.8335 65.2056 67.1826 65.8013 67.8809C66.4019 68.5742 66.7021 69.6069 66.7021 70.979C66.7021 71.8823 66.5654 72.644 66.292 73.2642C66.0186 73.8843 65.6328 74.353 65.1348 74.6704C64.6367 74.9878 64.0483 75.1465 63.3696 75.1465C62.7349 75.1465 62.2124 75.0293 61.8022 74.7949C61.397 74.5557 61.0845 74.2651 60.8647 73.9233H60.7695L60.5205 75H59.6416V63.6035H60.8574ZM63.2012 67.8516C62.6201 67.8516 62.1587 67.9663 61.8169 68.1958C61.4751 68.4204 61.2285 68.7622 61.0771 69.2212C60.9307 69.6753 60.8574 70.2515 60.8574 70.9497V71.0156C60.8574 72.0264 61.0259 72.8003 61.3628 73.3374C61.6997 73.8696 62.3125 74.1357 63.2012 74.1357C63.9482 74.1357 64.5073 73.8623 64.8784 73.3154C65.2544 72.7686 65.4424 71.9873 65.4424 70.9717C65.4424 69.9365 65.2568 69.1577 64.8857 68.6353C64.5195 68.1128 63.958 67.8516 63.2012 67.8516ZM71.542 66.8262C72.2256 66.8262 72.8115 66.9775 73.2998 67.2803C73.7881 67.583 74.1616 68.0078 74.4204 68.5547C74.6792 69.0967 74.8086 69.7314 74.8086 70.459V71.2134H69.2642C69.2788 72.1558 69.5132 72.8735 69.9673 73.3667C70.4214 73.8599 71.061 74.1064 71.8862 74.1064C72.394 74.1064 72.8433 74.0601 73.2339 73.9673C73.6245 73.8745 74.0298 73.7378 74.4497 73.5571V74.6265C74.0444 74.8071 73.6416 74.939 73.2412 75.022C72.8457 75.105 72.377 75.1465 71.835 75.1465C71.0635 75.1465 70.3896 74.9902 69.8135 74.6777C69.2422 74.3604 68.7979 73.8965 68.4805 73.2861C68.1631 72.6758 68.0044 71.9287 68.0044 71.0449C68.0044 70.1807 68.1484 69.4336 68.4365 68.8037C68.7295 68.1689 69.1396 67.6807 69.667 67.3389C70.1992 66.9971 70.8242 66.8262 71.542 66.8262ZM71.5273 67.8223C70.8779 67.8223 70.3604 68.0347 69.9746 68.4595C69.5889 68.8843 69.3594 69.4775 69.2861 70.2393H73.5342C73.5293 69.7607 73.4536 69.3408 73.3071 68.9795C73.1655 68.6133 72.9482 68.3301 72.6553 68.1299C72.3623 67.9248 71.9863 67.8223 71.5273 67.8223ZM79.7144 75.1465C78.9917 75.1465 78.3545 74.9976 77.8027 74.6997C77.251 74.4019 76.8213 73.9478 76.5137 73.3374C76.2061 72.7271 76.0522 71.958 76.0522 71.0303C76.0522 70.0586 76.2134 69.2651 76.5356 68.6499C76.8628 68.0298 77.312 67.5708 77.8833 67.2729C78.4546 66.9751 79.104 66.8262 79.8315 66.8262C80.2319 66.8262 80.6177 66.8677 80.9888 66.9507C81.3647 67.0288 81.6724 67.1289 81.9116 67.251L81.5454 68.269C81.3013 68.1714 81.0181 68.0835 80.6958 68.0054C80.3784 67.9272 80.0806 67.8882 79.8022 67.8882C79.2456 67.8882 78.7817 68.0078 78.4106 68.2471C78.0444 68.4863 77.7686 68.8379 77.583 69.3018C77.4023 69.7656 77.312 70.3369 77.312 71.0156C77.312 71.665 77.3999 72.2192 77.5757 72.6782C77.7563 73.1372 78.0225 73.4888 78.374 73.7329C78.7305 73.9722 79.1748 74.0918 79.707 74.0918C80.1318 74.0918 80.5151 74.0479 80.8569 73.96C81.1987 73.8672 81.5088 73.7598 81.7871 73.6377V74.7217C81.5186 74.8584 81.2183 74.9634 80.8862 75.0366C80.5591 75.1099 80.1685 75.1465 79.7144 75.1465ZM86.3193 66.8408C87.2764 66.8408 87.9868 67.0557 88.4507 67.4854C88.9146 67.915 89.1465 68.6011 89.1465 69.5435V75H88.2603L88.0259 73.8135H87.9673C87.7427 74.1064 87.5083 74.353 87.2642 74.5532C87.02 74.7485 86.7368 74.8975 86.4146 75C86.0972 75.0977 85.7065 75.1465 85.2427 75.1465C84.7544 75.1465 84.3198 75.061 83.939 74.8901C83.563 74.7192 83.2651 74.4604 83.0454 74.1138C82.8306 73.7671 82.7231 73.3276 82.7231 72.7954C82.7231 71.9946 83.0405 71.3794 83.6753 70.9497C84.3101 70.52 85.2769 70.2856 86.5757 70.2466L87.96 70.188V69.6973C87.96 69.0039 87.811 68.5181 87.5132 68.2397C87.2153 67.9614 86.7954 67.8223 86.2534 67.8223C85.8335 67.8223 85.4331 67.8833 85.0522 68.0054C84.6714 68.1274 84.3101 68.2715 83.9683 68.4375L83.5947 67.5146C83.9561 67.3291 84.3711 67.1704 84.8398 67.0386C85.3086 66.9067 85.8018 66.8408 86.3193 66.8408ZM87.9453 71.0449L86.7222 71.0962C85.7212 71.1353 85.0156 71.2988 84.6055 71.5869C84.1953 71.875 83.9902 72.2827 83.9902 72.8101C83.9902 73.269 84.1294 73.6084 84.4077 73.8281C84.686 74.0479 85.0547 74.1577 85.5137 74.1577C86.2266 74.1577 86.8101 73.96 87.2642 73.5645C87.7183 73.1689 87.9453 72.5757 87.9453 71.7847V71.0449ZM97.9048 66.9727V75H96.9087L96.7329 73.8721H96.667C96.501 74.1504 96.2861 74.3848 96.0225 74.5752C95.7588 74.7656 95.4609 74.9072 95.1289 75C94.8018 75.0977 94.4526 75.1465 94.0815 75.1465C93.4468 75.1465 92.9146 75.0439 92.4849 74.8389C92.0552 74.6338 91.7305 74.3164 91.5107 73.8867C91.2959 73.457 91.1885 72.9053 91.1885 72.2314V66.9727H92.4189V72.1436C92.4189 72.8125 92.5703 73.313 92.873 73.645C93.1758 73.9722 93.6372 74.1357 94.2573 74.1357C94.853 74.1357 95.3267 74.0234 95.6782 73.7988C96.0347 73.5742 96.291 73.2446 96.4473 72.8101C96.6035 72.3706 96.6816 71.8335 96.6816 71.1987V66.9727H97.9048ZM105.293 72.8027C105.293 73.3154 105.164 73.7476 104.905 74.0991C104.651 74.4458 104.285 74.707 103.807 74.8828C103.333 75.0586 102.767 75.1465 102.107 75.1465C101.546 75.1465 101.06 75.1025 100.65 75.0146C100.24 74.9268 99.8809 74.8022 99.5732 74.6411V73.5205C99.9004 73.6816 100.291 73.8281 100.745 73.96C101.199 74.0918 101.663 74.1577 102.137 74.1577C102.83 74.1577 103.333 74.0454 103.646 73.8208C103.958 73.5962 104.114 73.291 104.114 72.9053C104.114 72.6855 104.051 72.4927 103.924 72.3267C103.802 72.1558 103.594 71.9922 103.301 71.8359C103.008 71.6748 102.603 71.499 102.085 71.3086C101.573 71.1133 101.128 70.9204 100.752 70.73C100.381 70.5347 100.093 70.2979 99.8882 70.0195C99.688 69.7412 99.5879 69.3799 99.5879 68.9355C99.5879 68.2568 99.8613 67.7368 100.408 67.3755C100.96 67.0093 101.683 66.8262 102.576 66.8262C103.06 66.8262 103.511 66.875 103.931 66.9727C104.356 67.0654 104.751 67.1924 105.118 67.3535L104.708 68.3276C104.375 68.186 104.021 68.0664 103.646 67.9688C103.27 67.8711 102.886 67.8223 102.496 67.8223C101.934 67.8223 101.502 67.915 101.199 68.1006C100.901 68.2861 100.752 68.54 100.752 68.8623C100.752 69.1113 100.821 69.3164 100.958 69.4775C101.099 69.6387 101.324 69.79 101.631 69.9316C101.939 70.0732 102.344 70.2393 102.847 70.4297C103.35 70.6152 103.785 70.8081 104.151 71.0083C104.517 71.2036 104.798 71.4429 104.993 71.7261C105.193 72.0044 105.293 72.3633 105.293 72.8027ZM109.965 66.8262C110.648 66.8262 111.234 66.9775 111.723 67.2803C112.211 67.583 112.584 68.0078 112.843 68.5547C113.102 69.0967 113.231 69.7314 113.231 70.459V71.2134H107.687C107.702 72.1558 107.936 72.8735 108.39 73.3667C108.844 73.8599 109.484 74.1064 110.309 74.1064C110.817 74.1064 111.266 74.0601 111.657 73.9673C112.047 73.8745 112.453 73.7378 112.873 73.5571V74.6265C112.467 74.8071 112.064 74.939 111.664 75.022C111.269 75.105 110.8 75.1465 110.258 75.1465C109.486 75.1465 108.812 74.9902 108.236 74.6777C107.665 74.3604 107.221 73.8965 106.903 73.2861C106.586 72.6758 106.427 71.9287 106.427 71.0449C106.427 70.1807 106.571 69.4336 106.859 68.8037C107.152 68.1689 107.562 67.6807 108.09 67.3389C108.622 66.9971 109.247 66.8262 109.965 66.8262ZM109.95 67.8223C109.301 67.8223 108.783 68.0347 108.397 68.4595C108.012 68.8843 107.782 69.4775 107.709 70.2393H111.957C111.952 69.7607 111.876 69.3408 111.73 68.9795C111.588 68.6133 111.371 68.3301 111.078 68.1299C110.785 67.9248 110.409 67.8223 109.95 67.8223Z" fill="#FFB721"/>
<path d="M62 111.1H92V81.1H62V111.1Z" fill="#FF6060"/>
<path fill-rule="evenodd" clip-rule="evenodd" d="M35.5508 54.5295L29.2168 42.6545C28.8408 41.9485 27.8288 41.9485 27.4518 42.6545L21.1188 54.5295C20.7638 55.1955 21.2468 56.0005 22.0018 56.0005H34.6688C35.4228 56.0005 35.9058 55.1955 35.5508 54.5295ZM28.335 54.001C27.783 54.001 27.335 53.553 27.335 53.001C27.335 52.449 27.783 52.001 28.335 52.001C28.887 52.001 29.335 52.449 29.335 53.001C29.335 53.553 28.887 54.001 28.335 54.001ZM27.335 51.001H29.335V47.001H27.335V51.001Z" fill="#FFB721"/>
</g>
</svg>
