<svg width="272" height="140" viewBox="0 0 272 140" fill="none" xmlns="http://www.w3.org/2000/svg">
<g clip-path="url(#clip0_268_6337)">
<path d="M108 98.5H125C126.933 98.5 128.5 100.067 128.5 102V119C128.5 120.933 126.933 122.5 125 122.5H108C106.067 122.5 104.5 120.933 104.5 119V102C104.5 100.067 106.067 98.5 108 98.5Z" stroke="#D9DBE5"/>
<path d="M135.498 104.604V107.453C135.498 107.78 135.488 108.097 135.468 108.405C135.454 108.712 135.441 108.952 135.432 109.123H135.498C135.717 108.761 136.035 108.456 136.45 108.207C136.865 107.958 137.395 107.833 138.039 107.833C139.045 107.833 139.846 108.183 140.441 108.881C141.042 109.574 141.342 110.607 141.342 111.979C141.342 112.882 141.206 113.644 140.932 114.264C140.659 114.884 140.273 115.353 139.775 115.67C139.277 115.988 138.688 116.146 138.01 116.146C137.375 116.146 136.853 116.029 136.442 115.795C136.037 115.556 135.725 115.265 135.505 114.923H135.41L135.161 116H134.282V104.604H135.498ZM137.841 108.852C137.26 108.852 136.799 108.966 136.457 109.196C136.115 109.42 135.869 109.762 135.717 110.221C135.571 110.675 135.498 111.251 135.498 111.95V112.016C135.498 113.026 135.666 113.8 136.003 114.337C136.34 114.87 136.953 115.136 137.841 115.136C138.588 115.136 139.147 114.862 139.519 114.315C139.895 113.769 140.083 112.987 140.083 111.972C140.083 110.937 139.897 110.158 139.526 109.635C139.16 109.113 138.598 108.852 137.841 108.852ZM146.182 107.826C146.866 107.826 147.452 107.978 147.94 108.28C148.428 108.583 148.802 109.008 149.061 109.555C149.319 110.097 149.449 110.731 149.449 111.459V112.213H143.904C143.919 113.156 144.153 113.874 144.607 114.367C145.062 114.86 145.701 115.106 146.526 115.106C147.034 115.106 147.483 115.06 147.874 114.967C148.265 114.875 148.67 114.738 149.09 114.557V115.626C148.685 115.807 148.282 115.939 147.881 116.022C147.486 116.105 147.017 116.146 146.475 116.146C145.704 116.146 145.03 115.99 144.454 115.678C143.882 115.36 143.438 114.896 143.121 114.286C142.803 113.676 142.645 112.929 142.645 112.045C142.645 111.181 142.789 110.434 143.077 109.804C143.37 109.169 143.78 108.681 144.307 108.339C144.839 107.997 145.464 107.826 146.182 107.826ZM146.167 108.822C145.518 108.822 145 109.035 144.615 109.459C144.229 109.884 144 110.478 143.926 111.239H148.174C148.169 110.761 148.094 110.341 147.947 109.979C147.806 109.613 147.588 109.33 147.295 109.13C147.002 108.925 146.626 108.822 146.167 108.822ZM153.732 115.15C153.932 115.15 154.137 115.133 154.347 115.099C154.557 115.065 154.728 115.023 154.86 114.975V115.919C154.718 115.983 154.521 116.037 154.267 116.081C154.018 116.125 153.773 116.146 153.534 116.146C153.109 116.146 152.724 116.073 152.377 115.927C152.03 115.775 151.752 115.521 151.542 115.165C151.337 114.809 151.234 114.315 151.234 113.686V108.925H150.092V108.332L151.242 107.855L151.725 106.112H152.458V107.973H154.809V108.925H152.458V113.649C152.458 114.152 152.572 114.528 152.802 114.777C153.036 115.026 153.346 115.15 153.732 115.15ZM161.304 113.803C161.304 114.315 161.174 114.748 160.916 115.099C160.662 115.446 160.295 115.707 159.817 115.883C159.343 116.059 158.777 116.146 158.118 116.146C157.556 116.146 157.07 116.103 156.66 116.015C156.25 115.927 155.891 115.802 155.583 115.641V114.521C155.911 114.682 156.301 114.828 156.755 114.96C157.209 115.092 157.673 115.158 158.147 115.158C158.84 115.158 159.343 115.045 159.656 114.821C159.968 114.596 160.125 114.291 160.125 113.905C160.125 113.686 160.061 113.493 159.934 113.327C159.812 113.156 159.604 112.992 159.312 112.836C159.019 112.675 158.613 112.499 158.096 112.309C157.583 112.113 157.139 111.92 156.763 111.73C156.392 111.535 156.104 111.298 155.898 111.02C155.698 110.741 155.598 110.38 155.598 109.936C155.598 109.257 155.872 108.737 156.418 108.375C156.97 108.009 157.693 107.826 158.586 107.826C159.07 107.826 159.521 107.875 159.941 107.973C160.366 108.065 160.762 108.192 161.128 108.354L160.718 109.328C160.386 109.186 160.032 109.066 159.656 108.969C159.28 108.871 158.896 108.822 158.506 108.822C157.944 108.822 157.512 108.915 157.209 109.101C156.912 109.286 156.763 109.54 156.763 109.862C156.763 110.111 156.831 110.316 156.968 110.478C157.109 110.639 157.334 110.79 157.642 110.932C157.949 111.073 158.354 111.239 158.857 111.43C159.36 111.615 159.795 111.808 160.161 112.008C160.527 112.204 160.808 112.443 161.003 112.726C161.204 113.004 161.304 113.363 161.304 113.803Z" fill="#B4B7C3"/>
<path d="M114.196 116H111.933V109.804C111.933 109.633 111.936 109.423 111.94 109.174C111.945 108.92 111.953 108.661 111.962 108.397C111.972 108.129 111.982 107.887 111.992 107.672C111.938 107.736 111.828 107.846 111.662 108.002C111.501 108.153 111.35 108.29 111.208 108.412L109.978 109.401L108.886 108.039L112.336 105.292H114.196V116ZM122.405 116H120.142V109.804C120.142 109.633 120.145 109.423 120.149 109.174C120.154 108.92 120.162 108.661 120.171 108.397C120.181 108.129 120.191 107.887 120.201 107.672C120.147 107.736 120.037 107.846 119.871 108.002C119.71 108.153 119.559 108.29 119.417 108.412L118.187 109.401L117.095 108.039L120.545 105.292H122.405V116Z" fill="#80868C"/>
<path d="M84.5073 113.151C84.5073 113.786 84.3486 114.328 84.0312 114.777C83.7188 115.221 83.2793 115.561 82.7129 115.795C82.1465 116.029 81.48 116.146 80.7134 116.146C80.3081 116.146 79.9248 116.127 79.5635 116.088C79.2021 116.049 78.8701 115.993 78.5674 115.919C78.2646 115.846 77.9985 115.756 77.769 115.648V114.455C78.1353 114.606 78.582 114.748 79.1094 114.879C79.6367 115.006 80.1885 115.07 80.7646 115.07C81.3018 115.07 81.7559 114.999 82.127 114.857C82.498 114.711 82.7788 114.503 82.9692 114.235C83.1646 113.961 83.2622 113.634 83.2622 113.253C83.2622 112.887 83.1816 112.582 83.0205 112.338C82.8594 112.089 82.5908 111.864 82.2148 111.664C81.8438 111.459 81.3359 111.242 80.6914 111.012C80.2373 110.851 79.8369 110.675 79.4902 110.485C79.1436 110.29 78.853 110.07 78.6187 109.826C78.3843 109.582 78.2061 109.298 78.084 108.976C77.9668 108.654 77.9082 108.285 77.9082 107.87C77.9082 107.299 78.0522 106.811 78.3403 106.405C78.6333 105.995 79.0361 105.683 79.5488 105.468C80.0664 105.248 80.6597 105.138 81.3286 105.138C81.8999 105.138 82.4272 105.192 82.9106 105.299C83.3989 105.407 83.8457 105.551 84.251 105.731L83.8628 106.801C83.4771 106.64 83.0669 106.505 82.6323 106.398C82.2026 106.291 81.7583 106.237 81.2993 106.237C80.8403 106.237 80.4521 106.305 80.1348 106.442C79.8223 106.574 79.583 106.762 79.417 107.006C79.251 107.25 79.168 107.541 79.168 107.877C79.168 108.253 79.2461 108.566 79.4023 108.815C79.5635 109.064 79.8174 109.286 80.1641 109.481C80.5156 109.672 80.9795 109.872 81.5557 110.082C82.1855 110.312 82.7202 110.556 83.1597 110.814C83.5991 111.068 83.9336 111.381 84.1631 111.752C84.3926 112.118 84.5073 112.584 84.5073 113.151ZM89.23 107.826C89.9136 107.826 90.4995 107.978 90.9878 108.28C91.4761 108.583 91.8496 109.008 92.1084 109.555C92.3672 110.097 92.4966 110.731 92.4966 111.459V112.213H86.9521C86.9668 113.156 87.2012 113.874 87.6553 114.367C88.1094 114.86 88.749 115.106 89.5742 115.106C90.082 115.106 90.5312 115.06 90.9219 114.967C91.3125 114.875 91.7178 114.738 92.1377 114.557V115.626C91.7324 115.807 91.3296 115.939 90.9292 116.022C90.5337 116.105 90.0649 116.146 89.5229 116.146C88.7515 116.146 88.0776 115.99 87.5015 115.678C86.9302 115.36 86.4858 114.896 86.1685 114.286C85.8511 113.676 85.6924 112.929 85.6924 112.045C85.6924 111.181 85.8364 110.434 86.1245 109.804C86.4175 109.169 86.8276 108.681 87.355 108.339C87.8872 107.997 88.5122 107.826 89.23 107.826ZM89.2153 108.822C88.5659 108.822 88.0483 109.035 87.6626 109.459C87.2769 109.884 87.0474 110.478 86.9741 111.239H91.2222C91.2173 110.761 91.1416 110.341 90.9951 109.979C90.8535 109.613 90.6362 109.33 90.3433 109.13C90.0503 108.925 89.6743 108.822 89.2153 108.822ZM97.2778 107.826C97.9614 107.826 98.5474 107.978 99.0356 108.28C99.5239 108.583 99.8975 109.008 100.156 109.555C100.415 110.097 100.544 110.731 100.544 111.459V112.213H95C95.0146 113.156 95.249 113.874 95.7031 114.367C96.1572 114.86 96.7969 115.106 97.6221 115.106C98.1299 115.106 98.5791 115.06 98.9697 114.967C99.3604 114.875 99.7656 114.738 100.186 114.557V115.626C99.7803 115.807 99.3774 115.939 98.9771 116.022C98.5815 116.105 98.1128 116.146 97.5708 116.146C96.7993 116.146 96.1255 115.99 95.5493 115.678C94.978 115.36 94.5337 114.896 94.2163 114.286C93.8989 113.676 93.7402 112.929 93.7402 112.045C93.7402 111.181 93.8843 110.434 94.1724 109.804C94.4653 109.169 94.8755 108.681 95.4028 108.339C95.9351 107.997 96.5601 107.826 97.2778 107.826ZM97.2632 108.822C96.6138 108.822 96.0962 109.035 95.7104 109.459C95.3247 109.884 95.0952 110.478 95.022 111.239H99.27C99.2651 110.761 99.1895 110.341 99.043 109.979C98.9014 109.613 98.6841 109.33 98.3911 109.13C98.0981 108.925 97.7222 108.822 97.2632 108.822Z" fill="#B4B7C3"/>
<path fill-rule="evenodd" clip-rule="evenodd" d="M64.5631 109.508C64.8071 109.771 64.8 110.179 64.5471 110.433L60.7086 114.288C60.3178 114.681 59.6822 114.681 59.2914 114.288L55.4529 110.433C55.2 110.179 55.1929 109.771 55.4369 109.508V109.508C55.6947 109.231 56.1313 109.223 56.3985 109.492L60 113.109L63.6015 109.492C63.8687 109.223 64.3053 109.231 64.5631 109.508V109.508Z" fill="url(#paint0_linear_268_6337)"/>
<path fill-rule="evenodd" clip-rule="evenodd" d="M215.563 109.508C215.807 109.771 215.8 110.179 215.547 110.433L211.709 114.288C211.318 114.681 210.682 114.681 210.291 114.288L206.453 110.433C206.2 110.179 206.193 109.771 206.437 109.508V109.508C206.695 109.231 207.131 109.223 207.398 109.492L211 113.109L214.602 109.492C214.869 109.223 215.305 109.231 215.563 109.508V109.508Z" fill="url(#paint1_linear_268_6337)"/>
</g>
<g clip-path="url(#clip1_268_6337)">
<path d="M4 57.5H21C22.933 57.5 24.5 59.067 24.5 61V78C24.5 79.933 22.933 81.5 21 81.5H4C2.067 81.5 0.5 79.933 0.5 78V61C0.5 59.067 2.067 57.5 4 57.5Z" stroke="#3352E5"/>
<path d="M14.4043 75H12.1411V68.8037C12.1411 68.6328 12.1436 68.4229 12.1484 68.1738C12.1533 67.9199 12.1606 67.6611 12.1704 67.3975C12.1802 67.1289 12.1899 66.8872 12.1997 66.6724C12.146 66.7358 12.0361 66.8457 11.8701 67.002C11.709 67.1533 11.5576 67.29 11.416 67.4121L10.1855 68.4009L9.09424 67.0386L12.5439 64.292H14.4043V75Z" fill="#3352E5"/>
</g>
<path d="M37.0859 75.5H29.6006V73.9253L32.2886 71.208C32.8306 70.6514 33.2651 70.1875 33.5923 69.8164C33.9243 69.4404 34.1636 69.0986 34.3101 68.791C34.4614 68.4834 34.5371 68.1538 34.5371 67.8022C34.5371 67.3774 34.4175 67.0601 34.1782 66.8501C33.9438 66.6353 33.6289 66.5278 33.2334 66.5278C32.8184 66.5278 32.4155 66.623 32.0249 66.8135C31.6343 67.0039 31.2266 67.2749 30.8018 67.6265L29.5713 66.1689C29.8789 65.9053 30.2036 65.6562 30.5454 65.4219C30.8921 65.1875 31.2925 64.9995 31.7466 64.8579C32.2056 64.7114 32.7549 64.6382 33.3945 64.6382C34.0977 64.6382 34.7007 64.7651 35.2036 65.019C35.7114 65.2729 36.1021 65.6196 36.3755 66.0591C36.6489 66.4937 36.7856 66.9868 36.7856 67.5386C36.7856 68.1294 36.6685 68.6689 36.4341 69.1572C36.1997 69.6455 35.8579 70.1289 35.4087 70.6074C34.9644 71.0859 34.4272 71.6157 33.7974 72.1968L32.4204 73.4932V73.5957H37.0859V75.5ZM44.8774 67.187C44.8774 67.6802 44.7749 68.1074 44.5698 68.4688C44.3647 68.8301 44.0864 69.1255 43.7349 69.355C43.3882 69.5845 42.9976 69.7529 42.563 69.8604V69.9043C43.4224 70.0117 44.0742 70.2754 44.5186 70.6953C44.9678 71.1152 45.1924 71.6768 45.1924 72.3799C45.1924 73.0049 45.0386 73.564 44.731 74.0571C44.4282 74.5503 43.9595 74.9385 43.3247 75.2217C42.6899 75.5049 41.8721 75.6465 40.8711 75.6465C40.2803 75.6465 39.7285 75.5977 39.2158 75.5C38.708 75.4072 38.2295 75.2632 37.7803 75.0679V73.1416C38.2393 73.376 38.7202 73.5542 39.2231 73.6763C39.7261 73.7935 40.1948 73.8521 40.6294 73.8521C41.4399 73.8521 42.0063 73.7129 42.3286 73.4346C42.6558 73.1514 42.8193 72.7559 42.8193 72.248C42.8193 71.9502 42.7437 71.6987 42.5923 71.4937C42.4409 71.2886 42.1772 71.1323 41.8013 71.0249C41.4302 70.9175 40.9102 70.8638 40.2412 70.8638H39.4282V69.1279H40.2559C40.915 69.1279 41.4155 69.0669 41.7573 68.9448C42.104 68.8179 42.3384 68.647 42.4604 68.4321C42.5874 68.2124 42.6509 67.9634 42.6509 67.6851C42.6509 67.3042 42.5337 67.0063 42.2993 66.7915C42.0649 66.5767 41.6743 66.4692 41.1274 66.4692C40.7856 66.4692 40.4731 66.5132 40.1899 66.6011C39.9116 66.6841 39.6602 66.7866 39.4355 66.9087C39.2109 67.0259 39.0132 67.1406 38.8423 67.2529L37.7949 65.6929C38.2148 65.3901 38.7056 65.1387 39.2671 64.9385C39.8335 64.7383 40.5073 64.6382 41.2886 64.6382C42.3921 64.6382 43.2661 64.8604 43.9106 65.3047C44.5552 65.749 44.8774 66.3765 44.8774 67.187ZM46.2749 74.4526C46.2749 73.9937 46.3994 73.6714 46.6484 73.4858C46.9023 73.3003 47.2075 73.2075 47.564 73.2075C47.9106 73.2075 48.2085 73.3003 48.4575 73.4858C48.7114 73.6714 48.8384 73.9937 48.8384 74.4526C48.8384 74.8921 48.7114 75.2095 48.4575 75.4048C48.2085 75.6001 47.9106 75.6978 47.564 75.6978C47.2075 75.6978 46.9023 75.6001 46.6484 75.4048C46.3994 75.2095 46.2749 74.8921 46.2749 74.4526ZM46.2749 68.4028C46.2749 67.9438 46.3994 67.6216 46.6484 67.436C46.9023 67.2505 47.2075 67.1577 47.564 67.1577C47.9106 67.1577 48.2085 67.2505 48.4575 67.436C48.7114 67.6216 48.8384 67.9438 48.8384 68.4028C48.8384 68.8472 48.7114 69.167 48.4575 69.3623C48.2085 69.5527 47.9106 69.6479 47.564 69.6479C47.2075 69.6479 46.9023 69.5527 46.6484 69.3623C46.3994 69.167 46.2749 68.8472 46.2749 68.4028ZM57.3477 70.146C57.3477 71.0103 57.2793 71.7817 57.1426 72.4604C57.0107 73.1392 56.7959 73.7153 56.498 74.189C56.2051 74.6626 55.8193 75.0239 55.3408 75.2729C54.8623 75.522 54.2812 75.6465 53.5977 75.6465C52.7383 75.6465 52.0327 75.4292 51.481 74.9946C50.9292 74.5552 50.5215 73.9253 50.2578 73.105C49.9941 72.2798 49.8623 71.2935 49.8623 70.146C49.8623 68.9888 49.9819 68 50.2212 67.1797C50.4653 66.3545 50.8608 65.7222 51.4077 65.2827C51.9546 64.8433 52.6846 64.6235 53.5977 64.6235C54.4521 64.6235 55.1553 64.8433 55.707 65.2827C56.2637 65.7173 56.6763 66.3472 56.9448 67.1724C57.2134 67.9927 57.3477 68.9839 57.3477 70.146ZM52.1108 70.146C52.1108 70.9614 52.1548 71.6426 52.2427 72.1895C52.3354 72.7314 52.4893 73.1392 52.7041 73.4126C52.9189 73.686 53.2168 73.8228 53.5977 73.8228C53.9736 73.8228 54.269 73.6885 54.4839 73.4199C54.7036 73.1465 54.8599 72.7388 54.9526 72.1968C55.0454 71.6499 55.0918 70.9663 55.0918 70.146C55.0918 69.3306 55.0454 68.6494 54.9526 68.1025C54.8599 67.5557 54.7036 67.1455 54.4839 66.8721C54.269 66.5938 53.9736 66.4546 53.5977 66.4546C53.2168 66.4546 52.9189 66.5938 52.7041 66.8721C52.4893 67.1455 52.3354 67.5557 52.2427 68.1025C52.1548 68.6494 52.1108 69.3306 52.1108 70.146ZM65.5566 70.146C65.5566 71.0103 65.4883 71.7817 65.3516 72.4604C65.2197 73.1392 65.0049 73.7153 64.707 74.189C64.4141 74.6626 64.0283 75.0239 63.5498 75.2729C63.0713 75.522 62.4902 75.6465 61.8066 75.6465C60.9473 75.6465 60.2417 75.4292 59.6899 74.9946C59.1382 74.5552 58.7305 73.9253 58.4668 73.105C58.2031 72.2798 58.0713 71.2935 58.0713 70.146C58.0713 68.9888 58.1909 68 58.4302 67.1797C58.6743 66.3545 59.0698 65.7222 59.6167 65.2827C60.1636 64.8433 60.8936 64.6235 61.8066 64.6235C62.6611 64.6235 63.3643 64.8433 63.916 65.2827C64.4727 65.7173 64.8853 66.3472 65.1538 67.1724C65.4224 67.9927 65.5566 68.9839 65.5566 70.146ZM60.3198 70.146C60.3198 70.9614 60.3638 71.6426 60.4517 72.1895C60.5444 72.7314 60.6982 73.1392 60.9131 73.4126C61.1279 73.686 61.4258 73.8228 61.8066 73.8228C62.1826 73.8228 62.478 73.6885 62.6929 73.4199C62.9126 73.1465 63.0688 72.7388 63.1616 72.1968C63.2544 71.6499 63.3008 70.9663 63.3008 70.146C63.3008 69.3306 63.2544 68.6494 63.1616 68.1025C63.0688 67.5557 62.9126 67.1455 62.6929 66.8721C62.478 66.5938 62.1826 66.4546 61.8066 66.4546C61.4258 66.4546 61.1279 66.5938 60.9131 66.8721C60.6982 67.1455 60.5444 67.5557 60.4517 68.1025C60.3638 68.6494 60.3198 69.3306 60.3198 70.146Z" fill="#80868C"/>
<path d="M75.7534 75.5H74.501V65.8906H71.1318V64.792H79.1079V65.8906H75.7534V75.5ZM83.2593 67.3262C83.9429 67.3262 84.5288 67.4775 85.0171 67.7803C85.5054 68.083 85.8789 68.5078 86.1377 69.0547C86.3965 69.5967 86.5259 70.2314 86.5259 70.959V71.7134H80.9814C80.9961 72.6558 81.2305 73.3735 81.6846 73.8667C82.1387 74.3599 82.7783 74.6064 83.6035 74.6064C84.1113 74.6064 84.5605 74.5601 84.9512 74.4673C85.3418 74.3745 85.7471 74.2378 86.167 74.0571V75.1265C85.7617 75.3071 85.3589 75.439 84.9585 75.522C84.563 75.605 84.0942 75.6465 83.5522 75.6465C82.7808 75.6465 82.1069 75.4902 81.5308 75.1777C80.9595 74.8604 80.5151 74.3965 80.1978 73.7861C79.8804 73.1758 79.7217 72.4287 79.7217 71.5449C79.7217 70.6807 79.8657 69.9336 80.1538 69.3037C80.4468 68.6689 80.8569 68.1807 81.3843 67.8389C81.9165 67.4971 82.5415 67.3262 83.2593 67.3262ZM83.2446 68.3223C82.5952 68.3223 82.0776 68.5347 81.6919 68.9595C81.3062 69.3843 81.0767 69.9775 81.0034 70.7393H85.2515C85.2466 70.2607 85.1709 69.8408 85.0244 69.4795C84.8828 69.1133 84.6655 68.8301 84.3726 68.6299C84.0796 68.4248 83.7036 68.3223 83.2446 68.3223ZM91.2192 67.3408C92.1763 67.3408 92.8867 67.5557 93.3506 67.9854C93.8145 68.415 94.0464 69.1011 94.0464 70.0435V75.5H93.1602L92.9258 74.3135H92.8672C92.6426 74.6064 92.4082 74.853 92.1641 75.0532C91.9199 75.2485 91.6367 75.3975 91.3145 75.5C90.9971 75.5977 90.6064 75.6465 90.1426 75.6465C89.6543 75.6465 89.2197 75.561 88.8389 75.3901C88.4629 75.2192 88.165 74.9604 87.9453 74.6138C87.7305 74.2671 87.623 73.8276 87.623 73.2954C87.623 72.4946 87.9404 71.8794 88.5752 71.4497C89.21 71.02 90.1768 70.7856 91.4756 70.7466L92.8599 70.688V70.1973C92.8599 69.5039 92.7109 69.0181 92.4131 68.7397C92.1152 68.4614 91.6953 68.3223 91.1533 68.3223C90.7334 68.3223 90.333 68.3833 89.9521 68.5054C89.5713 68.6274 89.21 68.7715 88.8682 68.9375L88.4946 68.0146C88.856 67.8291 89.271 67.6704 89.7397 67.5386C90.2085 67.4067 90.7017 67.3408 91.2192 67.3408ZM92.8452 71.5449L91.6221 71.5962C90.6211 71.6353 89.9155 71.7988 89.5054 72.0869C89.0952 72.375 88.8901 72.7827 88.8901 73.3101C88.8901 73.769 89.0293 74.1084 89.3076 74.3281C89.5859 74.5479 89.9546 74.6577 90.4136 74.6577C91.1265 74.6577 91.71 74.46 92.1641 74.0645C92.6182 73.6689 92.8452 73.0757 92.8452 72.2847V71.5449ZM104.892 67.3262C105.776 67.3262 106.442 67.5581 106.892 68.022C107.341 68.481 107.565 69.2207 107.565 70.2412V75.5H106.364V70.2998C106.364 69.6504 106.223 69.1646 105.939 68.8423C105.661 68.5151 105.246 68.3516 104.694 68.3516C103.918 68.3516 103.354 68.5762 103.002 69.0254C102.651 69.4746 102.475 70.1362 102.475 71.0103V75.5H101.267V70.2998C101.267 69.8652 101.203 69.5039 101.076 69.2158C100.954 68.9277 100.769 68.7129 100.52 68.5713C100.275 68.4248 99.9653 68.3516 99.5894 68.3516C99.0571 68.3516 98.6299 68.4614 98.3076 68.6812C97.9854 68.9009 97.751 69.228 97.6045 69.6626C97.4629 70.0923 97.3921 70.6221 97.3921 71.252V75.5H96.1763V67.4727H97.1577L97.3408 68.6079H97.4067C97.5679 68.3296 97.7705 68.0952 98.0146 67.9048C98.2588 67.7144 98.5322 67.5703 98.835 67.4727C99.1377 67.375 99.46 67.3262 99.8018 67.3262C100.412 67.3262 100.922 67.4409 101.333 67.6704C101.748 67.895 102.048 68.2393 102.233 68.7031H102.299C102.563 68.2393 102.924 67.895 103.383 67.6704C103.842 67.4409 104.345 67.3262 104.892 67.3262ZM117.194 75.5H116.007V67.9121C116.007 67.624 116.007 67.3774 116.007 67.1724C116.012 66.9624 116.017 66.772 116.022 66.6011C116.032 66.4253 116.044 66.2471 116.059 66.0664C115.907 66.2227 115.766 66.3569 115.634 66.4692C115.502 66.5767 115.338 66.7109 115.143 66.8721L113.92 67.8535L113.283 67.0259L116.183 64.792H117.194V75.5Z" fill="#80868C"/>
<path d="M128.12 75.5L125 67.3115H127.336L128.918 71.9771C129.006 72.2505 129.075 72.5386 129.124 72.8413C129.177 73.144 129.214 73.415 129.233 73.6543H129.292C129.307 73.3955 129.341 73.1196 129.395 72.8267C129.453 72.5337 129.529 72.2505 129.622 71.9771L131.196 67.3115H133.533L130.413 75.5H128.12ZM140.05 73.0684C140.05 73.625 139.918 74.0962 139.654 74.4819C139.396 74.8628 139.007 75.1533 138.49 75.3535C137.972 75.5488 137.328 75.6465 136.556 75.6465C135.985 75.6465 135.494 75.6099 135.084 75.5366C134.679 75.4634 134.269 75.3413 133.854 75.1704V73.3247C134.298 73.5249 134.774 73.6909 135.282 73.8228C135.794 73.9497 136.244 74.0132 136.629 74.0132C137.064 74.0132 137.374 73.9497 137.56 73.8228C137.75 73.6909 137.845 73.52 137.845 73.3101C137.845 73.1733 137.806 73.0513 137.728 72.9438C137.655 72.8315 137.494 72.707 137.245 72.5703C136.996 72.4287 136.605 72.2456 136.073 72.021C135.56 71.8062 135.138 71.5889 134.806 71.3691C134.479 71.1494 134.234 70.8906 134.073 70.5928C133.917 70.29 133.839 69.9067 133.839 69.4429C133.839 68.686 134.132 68.1172 134.718 67.7363C135.309 67.3506 136.097 67.1577 137.083 67.1577C137.591 67.1577 138.075 67.209 138.534 67.3115C138.998 67.4141 139.474 67.5776 139.962 67.8022L139.288 69.4136C138.883 69.2378 138.5 69.0938 138.138 68.9814C137.782 68.8691 137.418 68.813 137.047 68.813C136.72 68.813 136.473 68.8569 136.307 68.9448C136.141 69.0327 136.058 69.167 136.058 69.3477C136.058 69.4795 136.1 69.5967 136.183 69.6992C136.271 69.8018 136.437 69.9165 136.681 70.0435C136.93 70.1655 137.293 70.3242 137.772 70.5195C138.236 70.71 138.639 70.9102 138.98 71.1201C139.322 71.3252 139.586 71.5815 139.771 71.8892C139.957 72.1919 140.05 72.585 140.05 73.0684ZM141.103 74.4526C141.103 73.9937 141.228 73.6714 141.477 73.4858C141.73 73.3003 142.036 73.2075 142.392 73.2075C142.739 73.2075 143.037 73.3003 143.286 73.4858C143.54 73.6714 143.667 73.9937 143.667 74.4526C143.667 74.8921 143.54 75.2095 143.286 75.4048C143.037 75.6001 142.739 75.6978 142.392 75.6978C142.036 75.6978 141.73 75.6001 141.477 75.4048C141.228 75.2095 141.103 74.8921 141.103 74.4526Z" fill="#B4B7C3"/>
<path d="M153.753 75.5H152.501V65.8906H149.132V64.792H157.108V65.8906H153.753V75.5ZM161.259 67.3262C161.943 67.3262 162.529 67.4775 163.017 67.7803C163.505 68.083 163.879 68.5078 164.138 69.0547C164.396 69.5967 164.526 70.2314 164.526 70.959V71.7134H158.981C158.996 72.6558 159.23 73.3735 159.685 73.8667C160.139 74.3599 160.778 74.6064 161.604 74.6064C162.111 74.6064 162.561 74.5601 162.951 74.4673C163.342 74.3745 163.747 74.2378 164.167 74.0571V75.1265C163.762 75.3071 163.359 75.439 162.958 75.522C162.563 75.605 162.094 75.6465 161.552 75.6465C160.781 75.6465 160.107 75.4902 159.531 75.1777C158.959 74.8604 158.515 74.3965 158.198 73.7861C157.88 73.1758 157.722 72.4287 157.722 71.5449C157.722 70.6807 157.866 69.9336 158.154 69.3037C158.447 68.6689 158.857 68.1807 159.384 67.8389C159.917 67.4971 160.542 67.3262 161.259 67.3262ZM161.245 68.3223C160.595 68.3223 160.078 68.5347 159.692 68.9595C159.306 69.3843 159.077 69.9775 159.003 70.7393H163.251C163.247 70.2607 163.171 69.8408 163.024 69.4795C162.883 69.1133 162.666 68.8301 162.373 68.6299C162.08 68.4248 161.704 68.3223 161.245 68.3223ZM169.219 67.3408C170.176 67.3408 170.887 67.5557 171.351 67.9854C171.814 68.415 172.046 69.1011 172.046 70.0435V75.5H171.16L170.926 74.3135H170.867C170.643 74.6064 170.408 74.853 170.164 75.0532C169.92 75.2485 169.637 75.3975 169.314 75.5C168.997 75.5977 168.606 75.6465 168.143 75.6465C167.654 75.6465 167.22 75.561 166.839 75.3901C166.463 75.2192 166.165 74.9604 165.945 74.6138C165.73 74.2671 165.623 73.8276 165.623 73.2954C165.623 72.4946 165.94 71.8794 166.575 71.4497C167.21 71.02 168.177 70.7856 169.476 70.7466L170.86 70.688V70.1973C170.86 69.5039 170.711 69.0181 170.413 68.7397C170.115 68.4614 169.695 68.3223 169.153 68.3223C168.733 68.3223 168.333 68.3833 167.952 68.5054C167.571 68.6274 167.21 68.7715 166.868 68.9375L166.495 68.0146C166.856 67.8291 167.271 67.6704 167.74 67.5386C168.208 67.4067 168.702 67.3408 169.219 67.3408ZM170.845 71.5449L169.622 71.5962C168.621 71.6353 167.916 71.7988 167.505 72.0869C167.095 72.375 166.89 72.7827 166.89 73.3101C166.89 73.769 167.029 74.1084 167.308 74.3281C167.586 74.5479 167.955 74.6577 168.414 74.6577C169.126 74.6577 169.71 74.46 170.164 74.0645C170.618 73.6689 170.845 73.0757 170.845 72.2847V71.5449ZM182.892 67.3262C183.776 67.3262 184.442 67.5581 184.892 68.022C185.341 68.481 185.565 69.2207 185.565 70.2412V75.5H184.364V70.2998C184.364 69.6504 184.223 69.1646 183.939 68.8423C183.661 68.5151 183.246 68.3516 182.694 68.3516C181.918 68.3516 181.354 68.5762 181.002 69.0254C180.651 69.4746 180.475 70.1362 180.475 71.0103V75.5H179.267V70.2998C179.267 69.8652 179.203 69.5039 179.076 69.2158C178.954 68.9277 178.769 68.7129 178.52 68.5713C178.275 68.4248 177.965 68.3516 177.589 68.3516C177.057 68.3516 176.63 68.4614 176.308 68.6812C175.985 68.9009 175.751 69.228 175.604 69.6626C175.463 70.0923 175.392 70.6221 175.392 71.252V75.5H174.176V67.4727H175.158L175.341 68.6079H175.407C175.568 68.3296 175.771 68.0952 176.015 67.9048C176.259 67.7144 176.532 67.5703 176.835 67.4727C177.138 67.375 177.46 67.3262 177.802 67.3262C178.412 67.3262 178.922 67.4409 179.333 67.6704C179.748 67.895 180.048 68.2393 180.233 68.7031H180.299C180.563 68.2393 180.924 67.895 181.383 67.6704C181.842 67.4409 182.345 67.3262 182.892 67.3262ZM197.684 75.5H190.667V74.4819L193.531 71.5742C194.063 71.0371 194.51 70.5586 194.872 70.1387C195.238 69.7188 195.516 69.3062 195.707 68.9009C195.897 68.4907 195.992 68.0415 195.992 67.5532C195.992 66.9478 195.812 66.4863 195.45 66.1689C195.094 65.8467 194.623 65.6855 194.037 65.6855C193.524 65.6855 193.07 65.7734 192.674 65.9492C192.279 66.125 191.874 66.374 191.458 66.6963L190.807 65.876C191.09 65.6367 191.397 65.4243 191.729 65.2388C192.066 65.0532 192.425 64.9067 192.806 64.7993C193.192 64.6919 193.602 64.6382 194.037 64.6382C194.696 64.6382 195.265 64.7529 195.743 64.9824C196.222 65.2119 196.59 65.5391 196.849 65.9639C197.113 66.3887 197.245 66.894 197.245 67.48C197.245 68.0464 197.132 68.5737 196.908 69.062C196.683 69.5454 196.368 70.0264 195.963 70.5049C195.558 70.9785 195.084 71.4814 194.542 72.0137L192.213 74.3354V74.3867H197.684V75.5Z" fill="#80868C"/>
<path d="M0 32.19H17V15.19H0V32.19Z" fill="#80868C"/>
<g clip-path="url(#clip2_268_6337)">
<path fill-rule="evenodd" clip-rule="evenodd" d="M26.5081 20.4369C26.7707 20.1929 27.1791 20.2 27.4331 20.4529L31.2883 24.2914C31.6809 24.6822 31.6809 25.3178 31.2883 25.7086L27.4331 29.5471C27.1791 29.8 26.7707 29.8071 26.5081 29.5631V29.5631C26.2307 29.3053 26.2232 28.8687 26.4915 28.6015L30.1087 25L26.4915 21.3985C26.2232 21.1313 26.2307 20.6947 26.5081 20.4369V20.4369Z" fill="#B4B7C3"/>
<path d="M41.896 22.0278C41.4614 22.0278 41.0757 22.1133 40.7388 22.2842C40.4067 22.4502 40.126 22.6919 39.8965 23.0093C39.6719 23.3267 39.501 23.71 39.3838 24.1592C39.2666 24.6084 39.208 25.1138 39.208 25.6753C39.208 26.4321 39.3008 27.0791 39.4863 27.6162C39.6768 28.1484 39.9697 28.5562 40.3652 28.8394C40.7607 29.1177 41.271 29.2568 41.896 29.2568C42.3306 29.2568 42.7651 29.208 43.1997 29.1104C43.6392 29.0127 44.1152 28.8735 44.6279 28.6929V30.5972C44.1543 30.7925 43.688 30.9316 43.229 31.0146C42.77 31.1025 42.2549 31.1465 41.6836 31.1465C40.5801 31.1465 39.6719 30.9194 38.959 30.4653C38.251 30.0063 37.7261 29.3667 37.3843 28.5464C37.0425 27.7212 36.8716 26.7593 36.8716 25.6606C36.8716 24.8501 36.9814 24.1079 37.2012 23.4341C37.4209 22.7603 37.7432 22.1768 38.168 21.6836C38.5928 21.1904 39.1177 20.8096 39.7427 20.541C40.3677 20.2725 41.0854 20.1382 41.896 20.1382C42.4282 20.1382 42.9604 20.2065 43.4927 20.3433C44.0298 20.4751 44.5425 20.6582 45.0308 20.8926L44.2983 22.7383C43.8979 22.5479 43.4951 22.3818 43.0898 22.2402C42.6846 22.0986 42.2866 22.0278 41.896 22.0278ZM53.8037 26.8911C53.8037 27.5747 53.7109 28.1802 53.5254 28.7075C53.3447 29.2349 53.0786 29.6816 52.7271 30.0479C52.3804 30.4092 51.9604 30.6826 51.4673 30.8682C50.979 31.0537 50.4272 31.1465 49.812 31.1465C49.2358 31.1465 48.7061 31.0537 48.2227 30.8682C47.7441 30.6826 47.3267 30.4092 46.9702 30.0479C46.6187 29.6816 46.3452 29.2349 46.1499 28.7075C45.9595 28.1802 45.8643 27.5747 45.8643 26.8911C45.8643 25.9829 46.0254 25.2139 46.3477 24.584C46.6699 23.9541 47.1289 23.4756 47.7246 23.1484C48.3203 22.8213 49.0308 22.6577 49.856 22.6577C50.6226 22.6577 51.3013 22.8213 51.8921 23.1484C52.4878 23.4756 52.9541 23.9541 53.291 24.584C53.6328 25.2139 53.8037 25.9829 53.8037 26.8911ZM48.1421 26.8911C48.1421 27.4282 48.2007 27.8799 48.3179 28.2461C48.4351 28.6123 48.6182 28.8882 48.8672 29.0737C49.1162 29.2593 49.4409 29.3521 49.8413 29.3521C50.2368 29.3521 50.5566 29.2593 50.8008 29.0737C51.0498 28.8882 51.2305 28.6123 51.3428 28.2461C51.46 27.8799 51.5186 27.4282 51.5186 26.8911C51.5186 26.3491 51.46 25.8999 51.3428 25.5435C51.2305 25.1821 51.0498 24.9111 50.8008 24.7305C50.5518 24.5498 50.2271 24.4595 49.8267 24.4595C49.2358 24.4595 48.8062 24.6621 48.5376 25.0674C48.2739 25.4727 48.1421 26.0806 48.1421 26.8911ZM62.7891 22.8115V31H61.0752L60.7749 29.9526H60.6577C60.4819 30.231 60.2622 30.458 59.9985 30.6338C59.7349 30.8096 59.4443 30.939 59.127 31.022C58.8096 31.105 58.48 31.1465 58.1382 31.1465C57.5522 31.1465 57.042 31.0439 56.6074 30.8389C56.1729 30.6289 55.8335 30.3042 55.5894 29.8647C55.3501 29.4253 55.2305 28.854 55.2305 28.1509V22.8115H57.4644V27.5942C57.4644 28.1802 57.5693 28.6221 57.7793 28.9199C57.9893 29.2178 58.3237 29.3667 58.7827 29.3667C59.2368 29.3667 59.5933 29.2642 59.8521 29.0591C60.1108 28.8491 60.2915 28.5439 60.394 28.1436C60.5015 27.7383 60.5552 27.2451 60.5552 26.6641V22.8115H62.7891ZM69.4087 22.6577C70.2827 22.6577 70.9858 22.897 71.5181 23.3755C72.0503 23.8491 72.3164 24.6108 72.3164 25.6606V31H70.0825V26.2173C70.0825 25.6313 69.9751 25.1895 69.7603 24.8916C69.5503 24.5938 69.2183 24.4448 68.7642 24.4448C68.0806 24.4448 67.6143 24.6768 67.3652 25.1406C67.1162 25.6045 66.9917 26.2734 66.9917 27.1475V31H64.7578V22.8115H66.4644L66.7646 23.8589H66.8892C67.0649 23.5757 67.2822 23.3462 67.541 23.1704C67.8047 22.9946 68.0952 22.8652 68.4126 22.7822C68.7349 22.6992 69.0669 22.6577 69.4087 22.6577ZM77.6909 29.3667C77.9351 29.3667 78.1719 29.3423 78.4014 29.2935C78.6357 29.2446 78.8677 29.1836 79.0972 29.1104V30.7729C78.8579 30.8804 78.5601 30.9683 78.2036 31.0366C77.8521 31.1099 77.4663 31.1465 77.0464 31.1465C76.5581 31.1465 76.1187 31.0684 75.728 30.9121C75.3423 30.751 75.0371 30.4751 74.8125 30.0845C74.5928 29.689 74.4829 29.1396 74.4829 28.4365V24.4888H73.4136V23.5439L74.644 22.7969L75.2886 21.0684H76.7168V22.8115H79.0093V24.4888H76.7168V28.4365C76.7168 28.749 76.8047 28.9834 76.9805 29.1396C77.1611 29.291 77.3979 29.3667 77.6909 29.3667ZM84.9551 22.6577C85.0674 22.6577 85.1968 22.665 85.3433 22.6797C85.4946 22.6895 85.6167 22.7041 85.7095 22.7236L85.541 24.8184C85.4678 24.7939 85.3628 24.7769 85.2261 24.7671C85.0942 24.7524 84.9795 24.7451 84.8818 24.7451C84.5938 24.7451 84.313 24.7817 84.0396 24.855C83.771 24.9282 83.5293 25.0479 83.3145 25.2139C83.0996 25.375 82.9287 25.5898 82.8018 25.8584C82.6797 26.1221 82.6187 26.4468 82.6187 26.8325V31H80.3848V22.8115H82.0767L82.4062 24.1885H82.5161C82.6772 23.9102 82.8774 23.6562 83.1167 23.4268C83.3608 23.1924 83.6367 23.0068 83.9443 22.8701C84.2568 22.7285 84.5938 22.6577 84.9551 22.6577ZM85.6494 22.8115H88.0957L89.6411 27.4185C89.6899 27.5649 89.7314 27.7139 89.7656 27.8652C89.7998 28.0166 89.8291 28.1729 89.8535 28.334C89.8779 28.4951 89.8975 28.6636 89.9121 28.8394H89.9561C89.9854 28.5757 90.0244 28.3291 90.0732 28.0996C90.127 27.8701 90.1929 27.6431 90.271 27.4185L91.7871 22.8115H94.1821L90.7178 32.0474C90.5078 32.6138 90.2344 33.085 89.8975 33.4609C89.5605 33.8418 89.1724 34.1274 88.7329 34.3179C88.2983 34.5083 87.8198 34.6035 87.2974 34.6035C87.0435 34.6035 86.8237 34.5889 86.6382 34.5596C86.4526 34.5352 86.2939 34.5083 86.1621 34.479V32.7065C86.2646 32.731 86.394 32.7529 86.5503 32.7725C86.7065 32.792 86.8701 32.8018 87.041 32.8018C87.3535 32.8018 87.6221 32.7358 87.8467 32.604C88.0713 32.4722 88.2593 32.2939 88.4106 32.0693C88.562 31.8496 88.6816 31.6079 88.7695 31.3442L88.9014 30.9414L85.6494 22.8115Z" fill="#80868C"/>
<path fill-rule="evenodd" clip-rule="evenodd" d="M99.5081 20.4369C99.7707 20.1929 100.179 20.2 100.433 20.4529L104.288 24.2914C104.681 24.6822 104.681 25.3178 104.288 25.7086L100.433 29.5471C100.179 29.8 99.7707 29.8071 99.5081 29.5631V29.5631C99.2307 29.3053 99.2232 28.8687 99.4915 28.6015L103.109 25L99.4915 21.3985C99.2232 21.1313 99.2307 20.6947 99.5081 20.4369V20.4369Z" fill="#B4B7C3"/>
<path d="M110.465 31V20.292H111.71V29.8867H116.463V31H110.465ZM120.834 22.8262C121.518 22.8262 122.104 22.9775 122.592 23.2803C123.081 23.583 123.454 24.0078 123.713 24.5547C123.972 25.0967 124.101 25.7314 124.101 26.459V27.2134H118.557C118.571 28.1558 118.806 28.8735 119.26 29.3667C119.714 29.8599 120.354 30.1064 121.179 30.1064C121.687 30.1064 122.136 30.0601 122.526 29.9673C122.917 29.8745 123.322 29.7378 123.742 29.5571V30.6265C123.337 30.8071 122.934 30.939 122.534 31.022C122.138 31.105 121.669 31.1465 121.127 31.1465C120.356 31.1465 119.682 30.9902 119.106 30.6777C118.535 30.3604 118.09 29.8965 117.773 29.2861C117.456 28.6758 117.297 27.9287 117.297 27.0449C117.297 26.1807 117.441 25.4336 117.729 24.8037C118.022 24.1689 118.432 23.6807 118.959 23.3389C119.492 22.9971 120.117 22.8262 120.834 22.8262ZM120.82 23.8223C120.17 23.8223 119.653 24.0347 119.267 24.4595C118.881 24.8843 118.652 25.4775 118.579 26.2393H122.827C122.822 25.7607 122.746 25.3408 122.6 24.9795C122.458 24.6133 122.241 24.3301 121.948 24.1299C121.655 23.9248 121.279 23.8223 120.82 23.8223ZM128.794 22.8408C129.751 22.8408 130.462 23.0557 130.926 23.4854C131.39 23.915 131.622 24.6011 131.622 25.5435V31H130.735L130.501 29.8135H130.442C130.218 30.1064 129.983 30.353 129.739 30.5532C129.495 30.7485 129.212 30.8975 128.89 31C128.572 31.0977 128.182 31.1465 127.718 31.1465C127.229 31.1465 126.795 31.061 126.414 30.8901C126.038 30.7192 125.74 30.4604 125.521 30.1138C125.306 29.7671 125.198 29.3276 125.198 28.7954C125.198 27.9946 125.516 27.3794 126.15 26.9497C126.785 26.52 127.752 26.2856 129.051 26.2466L130.435 26.188V25.6973C130.435 25.0039 130.286 24.5181 129.988 24.2397C129.69 23.9614 129.271 23.8223 128.729 23.8223C128.309 23.8223 127.908 23.8833 127.527 24.0054C127.146 24.1274 126.785 24.2715 126.443 24.4375L126.07 23.5146C126.431 23.3291 126.846 23.1704 127.315 23.0386C127.784 22.9067 128.277 22.8408 128.794 22.8408ZM130.42 27.0449L129.197 27.0962C128.196 27.1353 127.491 27.2988 127.081 27.5869C126.67 27.875 126.465 28.2827 126.465 28.8101C126.465 29.269 126.604 29.6084 126.883 29.8281C127.161 30.0479 127.53 30.1577 127.989 30.1577C128.702 30.1577 129.285 29.96 129.739 29.5645C130.193 29.1689 130.42 28.5757 130.42 27.7847V27.0449ZM135.993 34.6035C134.938 34.6035 134.125 34.4058 133.554 34.0103C132.982 33.6196 132.697 33.0703 132.697 32.3623C132.697 31.8594 132.855 31.4297 133.173 31.0732C133.495 30.7168 133.939 30.48 134.506 30.3628C134.296 30.2651 134.115 30.1187 133.964 29.9233C133.817 29.728 133.744 29.5034 133.744 29.2495C133.744 28.9565 133.825 28.7002 133.986 28.4805C134.152 28.2559 134.403 28.041 134.74 27.8359C134.32 27.665 133.979 27.377 133.715 26.9717C133.456 26.5615 133.327 26.0854 133.327 25.5435C133.327 24.9673 133.446 24.4766 133.686 24.0713C133.925 23.6611 134.271 23.3486 134.726 23.1338C135.18 22.9189 135.729 22.8115 136.374 22.8115C136.515 22.8115 136.657 22.8188 136.798 22.8335C136.945 22.8433 137.084 22.8604 137.216 22.8848C137.348 22.9043 137.462 22.9287 137.56 22.958H140.314V23.7417L138.834 23.9248C138.981 24.1152 139.103 24.3447 139.201 24.6133C139.298 24.8818 139.347 25.1797 139.347 25.5068C139.347 26.3076 139.076 26.9448 138.534 27.4185C137.992 27.8872 137.248 28.1216 136.3 28.1216C136.076 28.1216 135.846 28.1021 135.612 28.063C135.373 28.1948 135.189 28.3413 135.062 28.5024C134.94 28.6636 134.879 28.8491 134.879 29.0591C134.879 29.2153 134.926 29.3398 135.019 29.4326C135.116 29.5254 135.255 29.5938 135.436 29.6377C135.617 29.6768 135.834 29.6963 136.088 29.6963H137.501C138.375 29.6963 139.044 29.8794 139.508 30.2456C139.977 30.6118 140.211 31.1465 140.211 31.8496C140.211 32.7383 139.85 33.4194 139.127 33.8931C138.405 34.3667 137.36 34.6035 135.993 34.6035ZM136.029 33.6514C136.693 33.6514 137.243 33.583 137.677 33.4463C138.117 33.3145 138.444 33.1216 138.659 32.8677C138.878 32.6187 138.988 32.3208 138.988 31.9741C138.988 31.6519 138.915 31.4077 138.769 31.2417C138.622 31.0806 138.407 30.9731 138.124 30.9194C137.841 30.8608 137.494 30.8315 137.084 30.8315H135.692C135.331 30.8315 135.016 30.8877 134.748 31C134.479 31.1123 134.271 31.2783 134.125 31.498C133.983 31.7178 133.913 31.9912 133.913 32.3184C133.913 32.7529 134.096 33.0825 134.462 33.3071C134.828 33.5366 135.351 33.6514 136.029 33.6514ZM136.344 27.2354C136.925 27.2354 137.362 27.0889 137.655 26.7959C137.948 26.5029 138.095 26.0757 138.095 25.5142C138.095 24.9136 137.946 24.4644 137.648 24.1665C137.35 23.8638 136.911 23.7124 136.33 23.7124C135.773 23.7124 135.343 23.8687 135.041 24.1812C134.743 24.4888 134.594 24.9404 134.594 25.5361C134.594 26.083 134.745 26.5029 135.048 26.7959C135.351 27.0889 135.783 27.2354 136.344 27.2354ZM148.149 22.9727V31H147.153L146.978 29.8721H146.912C146.746 30.1504 146.531 30.3848 146.267 30.5752C146.003 30.7656 145.706 30.9072 145.374 31C145.046 31.0977 144.697 31.1465 144.326 31.1465C143.691 31.1465 143.159 31.0439 142.729 30.8389C142.3 30.6338 141.975 30.3164 141.755 29.8867C141.541 29.457 141.433 28.9053 141.433 28.2314V22.9727H142.664V28.1436C142.664 28.8125 142.815 29.313 143.118 29.645C143.42 29.9722 143.882 30.1357 144.502 30.1357C145.098 30.1357 145.571 30.0234 145.923 29.7988C146.279 29.5742 146.536 29.2446 146.692 28.8101C146.848 28.3706 146.926 27.8335 146.926 27.1987V22.9727H148.149ZM153.436 22.8262C154.12 22.8262 154.706 22.9775 155.194 23.2803C155.682 23.583 156.056 24.0078 156.314 24.5547C156.573 25.0967 156.703 25.7314 156.703 26.459V27.2134H151.158C151.173 28.1558 151.407 28.8735 151.861 29.3667C152.315 29.8599 152.955 30.1064 153.78 30.1064C154.288 30.1064 154.737 30.0601 155.128 29.9673C155.519 29.8745 155.924 29.7378 156.344 29.5571V30.6265C155.938 30.8071 155.536 30.939 155.135 31.022C154.74 31.105 154.271 31.1465 153.729 31.1465C152.958 31.1465 152.284 30.9902 151.708 30.6777C151.136 30.3604 150.692 29.8965 150.375 29.2861C150.057 28.6758 149.898 27.9287 149.898 27.0449C149.898 26.1807 150.042 25.4336 150.331 24.8037C150.624 24.1689 151.034 23.6807 151.561 23.3389C152.093 22.9971 152.718 22.8262 153.436 22.8262ZM153.421 23.8223C152.772 23.8223 152.254 24.0347 151.869 24.4595C151.483 24.8843 151.253 25.4775 151.18 26.2393H155.428C155.423 25.7607 155.348 25.3408 155.201 24.9795C155.06 24.6133 154.842 24.3301 154.549 24.1299C154.256 23.9248 153.88 23.8223 153.421 23.8223Z" fill="#80868C"/>
</g>
<rect y="139" width="272" height="1" fill="#D9DBE5"/>
<defs>
<linearGradient id="paint0_linear_268_6337" x1="55" y1="115" x2="65" y2="115" gradientUnits="userSpaceOnUse">
<stop stop-color="#628AF4"/>
<stop offset="1" stop-color="#3352E5"/>
</linearGradient>
<linearGradient id="paint1_linear_268_6337" x1="206" y1="115" x2="216" y2="115" gradientUnits="userSpaceOnUse">
<stop stop-color="#628AF4"/>
<stop offset="1" stop-color="#3352E5"/>
</linearGradient>
<clipPath id="clip0_268_6337">
<rect width="161" height="25" fill="white" transform="translate(55 98)"/>
</clipPath>
<clipPath id="clip1_268_6337">
<rect width="25" height="25" fill="white" transform="translate(0 57)"/>
</clipPath>
<clipPath id="clip2_268_6337">
<rect width="132" height="20" fill="white" transform="translate(26 15)"/>
</clipPath>
</defs>
</svg>
