<?xml version="1.0" encoding="utf-8"?>
<!-- Generator: Adobe Illustrator 21.1.0, SVG Export Plug-In . SVG Version: 6.00 Build 0)  -->
<svg version="1.1" id="Layer_1" xmlns="http://www.w3.org/2000/svg" xmlns:xlink="http://www.w3.org/1999/xlink" x="0px" y="0px"
	 viewBox="0 0 32 32" style="enable-background:new 0 0 32 32;" xml:space="preserve">
<style type="text/css">
	.st0{fill:#2B2B2B;}
</style>
<path class="st0" d="M29.1,7L17.9,4.3L6.7,1.7L1.1,7.9l10.9,21L31.3,15L29.1,7z M27.6,8.7l1.3,4.7l-4.1-1L27.6,8.7z M25.7,8.1
	l-2.6,3.4l-3.3-4.8L25.7,8.1z M20.8,11.4l-4.3-1l-4.3-1l5.2-2.9L20.8,11.4z M15.1,5.6l-5.1,2.8L9.3,4.2L15.1,5.6z M7.3,3.8l0.8,4.6
	L4,7.5L7.3,3.8z M4.1,9.4l4.5,1.1l2.1,11.5L4.1,9.4z M10.5,10.9l5.5,1.3l5.5,1.3L13,24.9L10.5,10.9z M16.5,23.3l7-9.3l4.5,1.1
	L16.5,23.3z"/>
</svg>
